<svg width="70" height="70" viewBox="0 0 70 70" fill="none" xmlns="http://www.w3.org/2000/svg">
<path fill-rule="evenodd" clip-rule="evenodd" d="M21.7543 13.3707C21.517 13.1333 21.195 13 20.8594 13C20.5237 13 20.2018 13.1333 19.9644 13.3707C19.7271 13.608 19.5938 13.93 19.5938 14.2656V15.5312H17.0625C15.7198 15.5312 14.4322 16.0646 13.4828 17.014C12.5334 17.9634 12 19.2511 12 20.5938V23.125H52.5V20.5938C52.5 19.2511 51.9666 17.9634 51.0172 17.014C50.0678 16.0646 48.7802 15.5312 47.4375 15.5312H44.9062V14.2656C44.9062 13.93 44.7729 13.608 44.5356 13.3707C44.2982 13.1333 43.9763 13 43.6406 13C43.305 13 42.983 13.1333 42.7457 13.3707C42.5083 13.608 42.375 13.93 42.375 14.2656V15.5312H22.125V14.2656C22.125 13.93 21.9917 13.608 21.7543 13.3707ZM52.5 38.8749V25.6562H12V48.4375C12 49.7802 12.5334 51.0678 13.4828 52.0172C14.4322 52.9666 15.7198 53.5 17.0625 53.5H40.601C39.5885 51.947 39 50.0922 39 48.1C39 42.6324 43.4324 38.2 48.9 38.2C50.1701 38.2 51.3842 38.4392 52.5 38.8749Z" fill="#9C171E"/>
<path d="M48.6988 56.2004H50.0146C50.446 56.2004 50.7695 55.9416 50.863 55.5174L51.2225 54.0003C51.4669 53.914 51.697 53.8206 51.9127 53.7199L53.2428 54.5395C53.5951 54.7624 54.0193 54.7265 54.3141 54.4317L55.2416 53.5042C55.5364 53.2094 55.5795 52.7708 55.3423 52.4113L54.5298 51.0956C54.6305 50.8799 54.7239 50.6498 54.7958 50.4269L56.3273 50.0674C56.7515 49.974 57.0031 49.6504 57.0031 49.219V47.9249C57.0031 47.5007 56.7515 47.1699 56.3273 47.0765L54.8102 46.7098C54.7311 46.4581 54.6305 46.2353 54.5442 46.0411L55.3566 44.6966C55.5867 44.3299 55.558 43.9201 55.2488 43.6182L54.3141 42.6907C54.0121 42.4174 53.6311 42.3671 53.2644 42.5684L51.9127 43.4025C51.7042 43.3018 51.4741 43.2083 51.2297 43.1221L50.863 41.5834C50.7695 41.1592 50.446 40.9004 50.0146 40.9004H48.6988C48.2603 40.9004 47.9367 41.1592 47.8433 41.5834L47.4838 43.1149C47.2393 43.194 47.002 43.2874 46.7863 43.3953L45.4418 42.5684C45.0752 42.3671 44.7013 42.4103 44.3921 42.6907L43.4574 43.6182C43.1483 43.9201 43.1195 44.3299 43.3496 44.6966L44.1621 46.0411C44.0758 46.2353 43.9823 46.4581 43.896 46.7098L42.379 47.0765C41.9548 47.1699 41.7031 47.5007 41.7031 47.9249V49.219C41.7031 49.6504 41.9548 49.974 42.379 50.0674L43.9104 50.4269C43.9823 50.6498 44.0758 50.8799 44.1764 51.0956L43.364 52.4113C43.1267 52.7708 43.1699 53.2094 43.4718 53.5042L44.3921 54.4317C44.6869 54.7265 45.1111 54.7624 45.4706 54.5395L46.7935 53.7199C47.0092 53.8206 47.2393 53.914 47.4838 54.0003L47.8433 55.5174C47.9367 55.9416 48.2603 56.2004 48.6988 56.2004ZM49.3531 51.0668C47.9727 51.0668 46.8439 49.9308 46.8439 48.5432C46.8439 47.1699 47.9727 46.0411 49.3531 46.0411C50.7408 46.0411 51.8696 47.1699 51.8696 48.5432C51.8696 49.9308 50.7408 51.0668 49.3531 51.0668Z" fill="#9C171E"/>
</svg>
