<svg width="70" height="70" viewBox="0 0 70 70" fill="none" xmlns="http://www.w3.org/2000/svg">
<path d="M13 42.2002C13 45.6761 14.7753 47.3953 18.1765 47.3953H29.5947L29.0901 50.7778H27.1092C26.1748 50.7778 25.4086 51.5627 25.4086 52.4971C25.4086 53.4128 26.1748 54.1977 27.1092 54.1977H44.0216C44.9747 54.1977 45.7409 53.4128 45.7409 52.4971C45.7409 51.5627 44.9747 50.7778 44.0216 50.7778H41.8912L41.4053 47.3953H52.8048C56.206 47.3953 58 45.6761 58 42.2002V21.1765C58 17.7193 56.206 16 52.8048 16H18.1765C14.7753 16 13 17.7193 13 21.1765V42.2002ZM16.6441 41.9759V21.4194C16.6441 20.13 17.186 19.6441 18.4194 19.6441H52.5619C53.7953 19.6441 54.3559 20.13 54.3559 21.4194V41.9759C54.3559 43.2467 53.7953 43.7512 52.5619 43.7512H18.4194C17.186 43.7512 16.6441 43.2467 16.6441 41.9759Z" fill="#9C171E"/>
<path d="M35.8865 25.0214C37.602 25.2305 39.186 26.0469 40.3512 27.3233C41.5168 28.5994 42.1864 30.2508 42.2392 31.9781L41.1648 30.8259L40.4581 31.4892L42.3219 33.4878C42.504 33.6829 42.8095 33.6934 43.0046 33.5115L45.0035 31.6452L44.3447 30.9386L43.205 32.0015V32.0013C43.1407 29.4568 41.8998 27.0861 39.8455 25.5832C37.791 24.0806 35.1558 23.6159 32.7116 24.3254C30.2672 25.0346 28.2899 26.8379 27.3594 29.2071L28.2584 29.5598V29.5595C28.846 28.0638 29.9145 26.806 31.2955 25.9846C32.6767 25.1628 34.2919 24.8239 35.8868 25.0213L35.8865 25.0214Z" fill="#9C171E"/>
<path d="M42.6431 35.219C42.0417 36.7547 40.991 38.0733 39.6284 39.0023C38.2655 39.9313 36.6545 40.4279 35.0052 40.4269C34.6694 40.4276 34.3338 40.4065 34.0004 40.3641C32.0458 40.1282 30.2418 39.1961 28.919 37.7384C27.5961 36.2806 26.8428 34.3947 26.7972 32.4267L25.6569 33.4896L25 32.7842L27.0002 30.9194C27.093 30.8312 27.2177 30.784 27.3458 30.7884C27.474 30.793 27.5949 30.8491 27.6814 30.9437L29.5461 32.939L28.8407 33.6008L27.7634 32.4463V32.446C27.8333 34.6859 28.9363 36.7672 30.7503 38.0829C32.5646 39.3986 34.8856 39.8005 37.0365 39.1711C39.1871 38.5419 40.9257 36.9524 41.7445 34.8665L42.6431 35.219Z" fill="#9C171E"/>
<path d="M35.4844 33.6626C35.7514 33.6626 35.9677 33.4463 35.9677 33.1793C35.9677 32.9126 35.7514 32.6963 35.4844 32.6963V33.6626Z" fill="#9C171E"/>
<path d="M34.995 27.3828C33.7138 27.3828 32.4851 27.8916 31.579 28.7977C30.6731 29.7036 30.1641 30.9325 30.1641 32.2138C30.1641 33.4951 30.6731 34.7238 31.579 35.6299C32.4851 36.5357 33.7138 37.0448 34.995 37.0448C36.2763 37.0448 37.505 36.5357 38.4111 35.6299C39.317 34.7238 39.826 33.4951 39.826 32.2138C39.826 30.9325 39.317 29.7036 38.4111 28.7977C37.505 27.8916 36.2763 27.3828 34.995 27.3828V27.3828ZM36.9274 33.1801V33.1799C36.9274 33.5644 36.7749 33.9329 36.503 34.2048C36.2312 34.4767 35.8627 34.6292 35.4781 34.6292V35.5955H34.5121V34.6292C34.1275 34.6292 33.759 34.4767 33.4871 34.2048C33.2152 33.9329 33.0627 33.5644 33.0627 33.1799H34.0291H34.0288C34.0288 33.3081 34.0798 33.4311 34.1703 33.5216C34.2609 33.6121 34.3838 33.6631 34.5121 33.6631V32.6968C33.9941 32.6968 33.5157 32.4206 33.2568 31.9723C32.998 31.5237 32.998 30.9713 33.2568 30.523C33.5157 30.0744 33.9941 29.7981 34.5121 29.7981V28.8321H35.4784V29.7984L35.4781 29.7981C35.8627 29.7981 36.2312 29.9509 36.5031 30.2228C36.7749 30.4944 36.9275 30.8631 36.9275 31.2474H35.9614C35.9614 31.1194 35.9104 30.9965 35.8199 30.906C35.7293 30.8152 35.6064 30.7644 35.4781 30.7644V31.7307V31.7305C35.8627 31.7305 36.2312 31.8832 36.5031 32.1551C36.7749 32.427 36.9274 32.7955 36.9274 33.1798L36.9274 33.1801Z" fill="#9C171E"/>
<path d="M34.0312 31.2477C34.0312 31.376 34.0823 31.4986 34.1728 31.5894C34.2633 31.6799 34.3862 31.7307 34.5145 31.7307V30.7646C34.2475 30.7646 34.0313 30.9809 34.0313 31.2477L34.0312 31.2477Z" fill="#9C171E"/>
</svg>
