<svg width="70" height="70" viewBox="0 0 70 70" fill="none" xmlns="http://www.w3.org/2000/svg">
<path d="M11.9531 42.5201C11.9531 46.0384 13.7285 47.7787 17.1296 47.7787H28.5478L28.0432 51.2025H26.0623C25.128 51.2025 24.3618 51.9969 24.3618 52.9427C24.3618 53.8696 25.128 54.6641 26.0623 54.6641H42.9747C43.9278 54.6641 44.694 53.8696 44.694 52.9427C44.694 51.9969 43.9278 51.2025 42.9747 51.2025H40.8443L40.3584 47.7787H51.7579C55.1591 47.7787 56.9531 46.0384 56.9531 42.5201V21.2397C56.9531 17.7403 55.1591 16 51.7579 16H17.1296C13.7285 16 11.9531 17.7403 11.9531 21.2397V42.5201ZM15.5972 42.2931V21.4856C15.5972 20.1804 16.1392 19.6886 17.3726 19.6886H51.515C52.7484 19.6886 53.309 20.1804 53.309 21.4856V42.2931C53.309 43.5794 52.7484 44.0901 51.515 44.0901H17.3726C16.1392 44.0901 15.5972 43.5794 15.5972 42.2931Z" fill="#9C171E"/>
<path d="M31.44 40C31.0667 40 30.74 39.8867 30.46 39.66C30.18 39.4333 29.9933 39.14 29.9 38.78L29 35.2H39.4L38.5 38.78C38.4067 39.14 38.22 39.4333 37.94 39.66C37.66 39.8867 37.3333 40 36.96 40H31.44ZM34.2 28.8C34.2 27.4667 34.6667 26.3333 35.6 25.4C36.5333 24.4667 37.6667 24 39 24C39 25.2 38.62 26.24 37.86 27.12C37.1 28 36.1467 28.5333 35 28.72V30.4H41.4V32.8C41.4 33.24 41.2435 33.6165 40.9304 33.9296C40.6168 34.2432 40.24 34.4 39.8 34.4H28.6C28.16 34.4 27.7832 34.2432 27.4696 33.9296C27.1565 33.6165 27 33.24 27 32.8V30.4H33.4V28.72C32.2533 28.5333 31.3 28 30.54 27.12C29.78 26.24 29.4 25.2 29.4 24C30.7333 24 31.8667 24.4667 32.8 25.4C33.7333 26.3333 34.2 27.4667 34.2 28.8Z" fill="#9C171E"/>
</svg>
