<svg width="70" height="70" viewBox="0 0 70 70" fill="none" xmlns="http://www.w3.org/2000/svg">
<path fill-rule="evenodd" clip-rule="evenodd" d="M24.1966 54.2004C24.8599 54.798 25.6337 55.0968 26.5181 55.0968H39.2371C37.0384 53.5936 35.5954 51.0661 35.5954 48.2015C35.5954 45.9682 36.4725 43.9398 37.9011 42.4419H20.7379L22.87 51.8803C23.0911 52.8294 23.5333 53.6028 24.1966 54.2004ZM41.1515 40.3327H19.7903C18.748 40.3327 17.8554 39.9193 17.1125 39.0925C16.3708 38.2672 16 37.2744 16 36.1144V31.8961C16 31.2985 16.1819 30.7972 16.5458 30.3923C16.9084 29.9887 17.3582 29.787 17.8952 29.787H31.1613V25.3577C28.6976 24.8656 26.5971 23.6261 24.8599 21.6393C23.1226 19.6539 22.0961 17.2726 21.7802 14.4956C21.7171 14.0738 21.8276 13.7047 22.1119 13.3883C22.3962 13.0719 22.7278 12.9489 23.1069 13.0192C25.918 13.4059 28.2794 14.7853 30.191 17.1573C32.1013 19.5308 33.0565 22.3346 33.0565 25.5686C33.0565 22.3346 34.0116 19.5308 35.9219 17.1573C37.8335 14.7853 40.1949 13.4059 43.006 13.0192C43.3851 12.9489 43.7167 13.0719 44.001 13.3883C44.2853 13.7047 44.3958 14.0738 44.3327 14.4956C44.0168 17.2726 42.9903 19.6539 41.253 21.6393C39.5158 23.6261 37.4153 24.8656 34.9516 25.3577V29.787H48.2177C48.7547 29.787 49.2045 29.9887 49.5671 30.3923C49.931 30.7972 50.1129 31.2985 50.1129 31.8961V36.1144C50.1129 37.2744 49.7421 38.2672 49.0004 39.0925C48.3449 39.8221 47.5728 40.2298 46.6841 40.3156C45.8253 40.017 44.9027 39.8548 43.9422 39.8548C42.9635 39.8548 42.0241 40.0232 41.1515 40.3327Z" fill="#9C171E"/>
<path d="M44.1466 42.0322C43.1491 42.0328 42.1656 42.2672 41.2753 42.7168C40.3849 43.1664 39.6125 43.8186 39.02 44.6209C38.4276 45.4232 38.0317 46.3532 37.8641 47.3363C37.6965 48.3194 37.7619 49.3281 38.0551 50.2813C38.3483 51.2345 38.8611 52.1057 39.5522 52.8247C40.2434 53.5438 41.0936 54.0907 42.0346 54.4215C42.9756 54.7524 43.9811 54.8579 44.9703 54.7296C45.9595 54.6013 46.9048 54.2428 47.7302 53.6829L51.6709 57.6195C51.7803 57.737 51.9123 57.8312 52.059 57.8965C52.2056 57.9618 52.364 57.9969 52.5245 57.9998C52.685 58.0026 52.8445 57.9731 52.9934 57.913C53.1422 57.8529 53.2775 57.7634 53.391 57.6499C53.5045 57.5364 53.594 57.4011 53.6542 57.2523C53.7143 57.1035 53.7438 56.944 53.741 56.7835C53.7382 56.623 53.703 56.4648 53.6377 56.3181C53.5723 56.1715 53.4781 56.0395 53.3606 55.9301L49.4231 51.9902C50.0746 51.0317 50.4523 49.9138 50.5158 48.7567C50.5793 47.5995 50.3262 46.447 49.7835 45.423C49.2409 44.3989 48.4294 43.5421 47.4362 42.9447C46.443 42.3473 45.3057 42.0318 44.1466 42.0322V42.0322ZM40.1612 48.4074C40.1612 47.3506 40.5811 46.3372 41.3285 45.5899C42.0759 44.8427 43.0896 44.4229 44.1466 44.4229C45.2035 44.4229 46.2172 44.8427 46.9646 45.5899C47.712 46.3372 48.1319 47.3506 48.1319 48.4074C48.1319 49.4641 47.712 50.4776 46.9646 51.2249C46.2172 51.9721 45.2035 52.3919 44.1466 52.3919C43.0896 52.3919 42.0759 51.9721 41.3285 51.2249C40.5811 50.4776 40.1612 49.4641 40.1612 48.4074Z" fill="#9C171E"/>
</svg>
