<svg width="70" height="70" viewBox="0 0 70 70" fill="none" xmlns="http://www.w3.org/2000/svg">
<path d="M15.2588 15.2676C14.0195 16.5068 13 17.5703 13 17.6143C13 17.667 13.4131 18.1152 13.9229 18.625L14.8457 19.5479L15.5488 18.8447L16.252 18.1416V36.4492V54.748H34.5508H52.8584L52.1553 55.4512L51.4521 56.1543L52.375 57.0771C52.8848 57.5869 53.333 58 53.3857 58C53.5 58 58 53.5 58 53.3857C58 53.2715 53.5 48.7715 53.3857 48.7715C53.333 48.7715 52.8848 49.1846 52.375 49.6943L51.4521 50.6172L52.1553 51.3203L52.8584 52.0234H35.9131H18.9766V35.0869V18.1416L19.6797 18.8447L20.3828 19.5479L21.3057 18.625C21.8154 18.1152 22.2285 17.667 22.2285 17.6143C22.2285 17.5 17.7285 13 17.6143 13C17.5615 13 16.5068 14.0195 15.2588 15.2676Z" fill="#9C171E"/>
<path d="M15.2588 15.2676C14.0195 16.5068 13 17.5703 13 17.6143C13 17.667 13.4131 18.1152 13.9229 18.625L14.8457 19.5479L15.5488 18.8447L16.252 18.1416V36.4492V54.748H34.5508H52.8584L52.1553 55.4512L51.4521 56.1543L52.375 57.0771C52.8848 57.5869 53.333 58 53.3857 58C53.5 58 58 53.5 58 53.3857C58 53.2715 53.5 48.7715 53.3857 48.7715C53.333 48.7715 52.8848 49.1846 52.375 49.6943L51.4521 50.6172L52.1553 51.3203L52.8584 52.0234H35.9131H18.9766V35.0869V18.1416L19.6797 18.8447L20.3828 19.5479L21.3057 18.625C21.8154 18.1152 22.2285 17.667 22.2285 17.6143C22.2285 17.5 17.7285 13 17.6143 13C17.5615 13 16.5068 14.0195 15.2588 15.2676Z" fill="#9C171E"/>
<path d="M37.4781 49.8987C37.3452 49.9654 37.1985 50 37.0499 50V50C36.9086 50 36.7681 49.9725 36.6391 49.915C36.6059 49.9002 36.5729 49.8848 36.5405 49.8685C33.5228 48.354 30.5045 46.8396 27.4856 45.3251C27.1468 45.1561 27 44.9122 27 44.5303C27.0072 41.1649 27.0072 37.7997 27 34.4346C27 34.0495 27.1489 33.8127 27.49 33.6454C28.6609 33.0712 29.0106 32.9918 30.1751 32.4035C30.2256 32.3727 30.8188 32.0942 31.1993 32.0942C31.5798 32.0942 32.2754 32.3727 32.3259 32.4035C35.393 34.002 37.2428 34.9395 40.3149 36.5279C40.7245 36.7341 40.7251 37.0834 40.7245 37.2497C40.7181 38.8157 40.7272 40.1368 40.7283 41.7034C40.7283 42.0391 40.8659 42.1244 41.16 41.9702C41.7077 41.6833 42.251 41.3867 42.8036 41.1097C43.0022 41.0103 43.0734 40.8799 43.0734 40.6599C43.0669 39.0732 43.0626 37.4864 43.0772 35.8997C43.0772 35.6281 42.9887 35.5015 42.7593 35.3842C39.7545 33.8425 37.3738 32.719 34.3744 31.1662C34.3478 31.1525 34.2051 31.0589 34.045 30.9533C33.8305 30.8118 33.8376 30.4568 34.0671 30.3413V30.3413C35.0152 29.8671 35.6216 29.5902 36.5659 29.1089C36.8584 28.9601 37.1255 28.9661 37.4185 29.1127C40.4362 30.6272 43.4579 32.1363 46.4836 33.6399C46.8494 33.8214 47.0011 34.0631 47 34.4716C46.991 37.8033 46.991 41.1351 47 44.4668C47 44.8943 46.8322 45.1464 46.4604 45.3316C43.3977 46.8481 40.5255 48.3704 37.4781 49.8987Z" fill="#9C171E"/>
<path d="M46.2812 16C45.3318 16 44.5625 16.8085 44.5625 17.8056C44.5625 18.0103 44.6021 18.2035 44.6615 18.3869L40.4719 22.1768C40.178 21.9309 39.8112 21.7778 39.4062 21.7778C38.9391 21.7778 38.5166 21.9749 38.2073 22.2927L34.9255 20.5666C34.8616 19.6302 34.1263 18.8889 33.2188 18.8889C32.2697 18.8889 31.5 19.6974 31.5 20.6944C31.5 20.9674 31.5619 21.2235 31.665 21.4553L28.3189 25.5084C28.1312 25.4348 27.9308 25.3889 27.7188 25.3889C26.7697 25.3889 26 26.1974 26 27.1944C26 28.1915 26.7697 29 27.7188 29C28.6678 29 29.4375 28.1915 29.4375 27.1944C29.4375 26.9543 29.3908 26.7257 29.3096 26.5163L32.71 22.4104C32.8719 22.4632 33.0403 22.5 33.2188 22.5C33.7189 22.5 34.1651 22.2718 34.4793 21.9132L37.6892 23.6039C37.7006 24.5912 38.4637 25.3889 39.4062 25.3889C40.3557 25.3889 41.125 24.5804 41.125 23.5833C41.125 23.5512 41.1178 23.5212 41.1161 23.4894L45.5869 19.4547C45.7997 19.5537 46.0334 19.6111 46.2812 19.6111C47.2307 19.6111 48 18.8029 48 17.8056C48 16.8085 47.2307 16 46.2813 16H46.2812Z" fill="#9C171E"/>
</svg>
