<svg width="70" height="70" viewBox="0 0 70 70" fill="none" xmlns="http://www.w3.org/2000/svg">
<path fill-rule="evenodd" clip-rule="evenodd" d="M19.5573 26.157H13.5255C12.9977 26.157 12.5065 26.43 12.2291 26.8785C11.9513 27.327 11.9239 27.8883 12.1591 28.3614L18.9791 42.0905C19.2368 42.6091 19.7662 42.9372 20.346 42.9372H22.8097L21.2019 44.545C22.0897 45.0712 22.8325 45.814 23.3588 46.7018L26.8077 43.2529C26.9039 43.1567 26.9844 43.05 27.0501 42.9373H31.1596L39.0962 51.5953C39.3844 51.9094 39.7931 52.0897 40.2203 52.0897H42.5083C43.3502 52.0897 44.0339 51.4065 44.0339 50.5642V28.1451L46.3756 24.6322H55.4744C56.3163 24.6322 57 23.9489 57 23.1066C57 22.2647 56.3168 21.5811 55.4744 21.5811H45.5595C45.0502 21.5811 44.5726 21.8359 44.2905 22.2599L41.6927 26.1572L41.6919 26.157H38.3706C37.009 30.0397 33.3116 32.8238 28.9639 32.8238C24.6162 32.8238 20.9188 30.0397 19.5573 26.157ZM12.7631 49.8003C12.7631 46.8535 15.1547 44.4615 18.1019 44.4615C21.0487 44.4615 23.4407 46.8531 23.4407 49.8003C23.4407 52.7471 21.0492 55.1391 18.1019 55.1391C15.1551 55.1391 12.7631 52.7475 12.7631 49.8003ZM20.39 49.8005C20.39 48.5375 19.365 47.5124 18.1019 47.5124C16.8389 47.5124 15.8138 48.5375 15.8138 49.8005C15.8138 51.0635 16.8389 52.0886 18.1019 52.0886C19.3649 52.0886 20.39 51.0635 20.39 49.8005ZM40.9828 49.038V42.9362H35.2977L40.8914 49.038H40.9828Z" fill="#9C171E"/>
<path d="M29.8438 25.514C30.3334 25.514 30.7299 25.1175 30.7299 24.6279C30.7299 24.1387 30.3334 23.7422 29.8438 23.7422V25.514Z" fill="#9C171E"/>
<path d="M28.9598 14C26.6105 14 24.3575 14.9329 22.696 16.5944C21.035 18.2554 20.1016 20.5089 20.1016 22.8583C20.1016 25.2076 21.035 27.4606 22.696 29.1221C24.3575 30.7831 26.6105 31.7165 28.9598 31.7165C31.3092 31.7165 33.5622 30.7831 35.2237 29.1221C36.8847 27.4606 37.8181 25.2076 37.8181 22.8583C37.8181 20.5089 36.8847 18.2554 35.2237 16.5944C33.5622 14.9329 31.3092 14 28.9598 14V14ZM32.5031 24.6301V24.6297C32.5031 25.3349 32.2235 26.0106 31.725 26.509C31.2265 27.0075 30.5507 27.2872 29.8456 27.2872V29.059H28.0742V27.2872C27.369 27.2872 26.6933 27.0075 26.1948 26.509C25.6963 26.0105 25.4167 25.3348 25.4167 24.6297H27.1886H27.1881C27.1881 24.8649 27.2816 25.0903 27.4476 25.2563C27.6136 25.4223 27.839 25.5158 28.0743 25.5158V23.744C27.1245 23.744 26.2472 23.2375 25.7725 22.4154C25.2979 21.5928 25.2979 20.58 25.7725 19.7579C26.2472 18.9353 27.1245 18.4288 28.0743 18.4288V16.6574H29.8461V18.4293L29.8457 18.4288C30.5508 18.4288 31.2265 18.7089 31.725 19.2074C32.2235 19.7055 32.5032 20.3817 32.5032 21.0863H30.7318C30.7318 20.8516 30.6382 20.6262 30.4722 20.4602C30.3062 20.2937 30.0808 20.2006 29.8456 20.2006V21.9725V21.972C30.5508 21.972 31.2265 22.2521 31.725 22.7506C32.2235 23.2491 32.5031 23.9249 32.5031 24.6295L32.5031 24.6301Z" fill="#9C171E"/>
<path d="M27.1797 21.0859C27.1797 21.3211 27.2732 21.546 27.4392 21.7125C27.6052 21.8785 27.8306 21.9716 28.0658 21.9716V20.2002C27.5762 20.2002 27.1797 20.5967 27.1797 21.0859L27.1797 21.0859Z" fill="#9C171E"/>
</svg>
