<svg width="70" height="70" viewBox="0 0 70 70" fill="none" xmlns="http://www.w3.org/2000/svg">
<path fill-rule="evenodd" clip-rule="evenodd" d="M54.3265 29.4652V43.262C54.3265 46.2436 52.679 47.7183 49.5554 47.7183H39.0865L39.5327 50.6197H41.4892C42.3645 50.6197 43.0681 51.293 43.0681 52.0945C43.0681 52.88 42.3645 53.5532 41.4892 53.5532H25.9574C25.0993 53.5532 24.3957 52.88 24.3957 52.0945C24.3957 51.293 25.0993 50.6197 25.9574 50.6197H27.7766L28.24 47.7183H17.7539C14.6304 47.7183 13 46.2436 13 43.262V25.2284C13 22.2628 14.6304 20.7881 17.7539 20.7881H45.4954C45.2667 21.4736 45.1429 22.207 45.1429 22.9694C45.1429 23.2898 45.1647 23.6051 45.2071 23.9139H17.977C16.8443 23.9139 16.3466 24.3307 16.3466 25.4368V43.0697C16.3466 44.1597 16.8443 44.5925 17.977 44.5925H49.3323C50.465 44.5925 50.9799 44.1597 50.9799 43.0697V29.7775C51.3225 29.8299 51.6734 29.8571 52.0306 29.8571C52.8356 29.8571 53.6084 29.719 54.3265 29.4652Z" fill="#9C171E"/>
<path d="M52.0319 17C48.7404 17 46.0625 19.6779 46.0625 22.9694C46.0625 26.2609 48.7404 28.9388 52.0319 28.9388C55.3234 28.9388 58.0013 26.2609 58.0013 22.9694C58.0013 19.6779 55.3234 17 52.0319 17ZM52.0319 26.6429C51.4321 26.6429 50.9551 26.3886 50.8911 25.8513C50.8894 25.8353 50.8911 25.819 50.8961 25.8037C50.9011 25.7883 50.9093 25.7742 50.9201 25.7623C50.931 25.7503 50.9442 25.7407 50.959 25.7342C50.9738 25.7277 50.9898 25.7244 51.0059 25.7245H53.0564C53.0727 25.7244 53.0889 25.7277 53.1038 25.7343C53.1187 25.741 53.132 25.7507 53.1429 25.7628C53.1538 25.775 53.1619 25.7893 53.1668 25.8049C53.1717 25.8204 53.1732 25.8369 53.1712 25.8531C53.0981 26.3803 52.6254 26.6429 52.0319 26.6429ZM54.8444 25.2653H49.2194C48.8796 25.2653 48.7028 24.8348 48.8982 24.6052C49.3669 24.0502 49.6981 23.8169 49.6981 22.2864C49.6981 20.8838 50.4368 20.3862 51.0469 20.1434C51.0889 20.1259 51.1268 20.0998 51.1581 20.0668C51.1894 20.0338 51.2134 19.9946 51.2286 19.9517C51.3345 19.6001 51.6341 19.2959 52.0319 19.2959C52.4297 19.2959 52.7287 19.6001 52.8355 19.952C52.8508 19.9948 52.8749 20.034 52.9062 20.067C52.9375 20.1001 52.9754 20.1262 53.0174 20.1437C53.6261 20.3859 54.3663 20.8844 54.3663 22.2866C54.3663 23.8172 54.6972 24.0505 55.1658 24.6055C55.3592 24.8348 55.1822 25.2653 54.8444 25.2653V25.2653Z" fill="#9C171E"/>
<path d="M41.9706 33.0561C41.9706 34.6409 40.594 35.93 38.9022 35.93H28.0124C26.9924 35.9204 26.0346 35.4203 25.418 34.5759C24.9398 33.9055 24.8091 33.0338 25.0684 32.2439C25.426 31.2171 26.2223 30.4211 27.2238 30.0902C27.7752 29.8855 28.3666 29.826 28.9453 29.9172C28.8111 29.0714 28.9996 28.2046 29.4701 27.5006C30.4764 26.1399 32.0691 25.1634 33.7168 25.2742C35.1883 25.3659 37.1836 26.1749 38.0865 27.7329C38.4341 28.3159 38.583 29.2298 38.5096 29.9114C39.1463 29.8054 39.799 29.9205 40.3663 30.239C40.858 30.5085 41.2683 30.9146 41.5517 31.4119C41.8351 31.9092 41.9799 32.4784 41.9706 33.0561ZM28.4124 38.0173C28.4124 38.2287 28.2902 38.4188 28.1026 38.4998C27.9149 38.5805 27.6988 38.5358 27.5552 38.3865C27.4117 38.2372 27.3685 38.0126 27.4465 37.8176C27.5241 37.6228 27.7073 37.4955 27.9104 37.4955C28.0434 37.4955 28.1712 37.5506 28.2653 37.6484C28.3597 37.7462 28.4124 37.879 28.4124 38.0173ZM39.4597 38.5392L29.4168 38.5394C29.1395 38.5394 28.9145 38.3058 28.9145 38.0173C28.9145 37.7291 29.1395 37.4955 29.4168 37.4955H39.4597C39.737 37.4955 39.962 37.7291 39.962 38.0173C39.962 38.3058 39.737 38.5392 39.4597 38.5392ZM28.4124 40.1052C28.4124 40.3162 28.2902 40.5066 28.1026 40.5873C27.9149 40.6681 27.6988 40.6234 27.5552 40.4741C27.4117 40.3248 27.3685 40.1005 27.4465 39.9054C27.5241 39.7104 27.7073 39.5831 27.9104 39.5831C28.0434 39.5831 28.1712 39.6382 28.2653 39.736C28.3597 39.8338 28.4124 39.9666 28.4124 40.1052ZM39.4597 40.627H29.4168C29.1395 40.627 28.9145 40.3934 28.9145 40.1052C28.9145 39.8167 29.1395 39.5831 29.4168 39.5831H39.4597C39.737 39.5831 39.962 39.8167 39.962 40.1052C39.962 40.3934 39.737 40.627 39.4597 40.627ZM28.4124 42.1927C28.4124 42.4038 28.2902 42.5942 28.1026 42.6749C27.9149 42.7556 27.6988 42.711 27.5552 42.5617C27.4117 42.4126 27.3685 42.1881 27.4465 41.993C27.5241 41.7979 27.7073 41.6709 27.9104 41.6709C28.0434 41.6709 28.1712 41.7257 28.2653 41.8236C28.3597 41.9216 28.4124 42.0544 28.4124 42.1927ZM39.4597 42.7146H29.4168C29.1395 42.7146 28.9145 42.4809 28.9145 42.1927C28.9145 41.9046 29.1395 41.6709 29.4168 41.6709H39.4597C39.737 41.6709 39.962 41.9046 39.962 42.1927C39.962 42.4809 39.737 42.7146 39.4597 42.7146Z" fill="#9C171E"/>
</svg>
