<svg width="70" height="70" viewBox="0 0 70 70" fill="none" xmlns="http://www.w3.org/2000/svg">
<path d="M31.5973 45.6088C31.1523 45.6088 30.7629 45.4737 30.4291 45.2035C30.0954 44.9333 29.8729 44.5836 29.7616 44.1545L28.6888 39.887H41.086L40.0131 44.1545C39.9019 44.5836 39.6794 44.9333 39.3456 45.2035C39.0118 45.4737 38.6224 45.6088 38.1774 45.6088H31.5973ZM34.8874 32.2579C34.8874 30.6685 35.4437 29.3176 36.5562 28.205C37.6688 27.0924 39.0198 26.5361 40.6092 26.5361C40.6092 27.9666 40.1562 29.2063 39.2502 30.2553C38.3443 31.3043 37.2079 31.94 35.841 32.1626V34.1652H43.47V37.0261C43.47 37.5506 43.2835 37.9994 42.9103 38.3726C42.5364 38.7464 42.0873 38.9333 41.5628 38.9333H28.2119C27.6875 38.9333 27.2383 38.7464 26.8645 38.3726C26.4913 37.9994 26.3047 37.5506 26.3047 37.0261V34.1652H33.9337V32.1626C32.5669 31.94 31.4305 31.3043 30.5245 30.2553C29.6186 29.2063 29.1656 27.9666 29.1656 26.5361C30.755 26.5361 32.1059 27.0924 33.2185 28.205C34.3311 29.3176 34.8874 30.6685 34.8874 32.2579Z" fill="#9C171E"/>
<path d="M36.487 19.2977C40.3462 19.7681 43.9096 21.6045 46.5309 24.476C49.1528 27.3468 50.6592 31.0615 50.778 34.9472L48.361 32.3553L46.7713 33.8475L50.9639 38.3435C51.3736 38.7824 52.0609 38.8059 52.4997 38.3969L56.9964 34.1985L55.5145 32.6088L52.9506 35V34.9994C52.806 29.2755 50.0144 23.9424 45.3932 20.5615C40.7714 17.1812 34.8434 16.136 29.3449 17.732C23.846 19.3274 19.398 23.3841 17.3047 28.7138L19.3271 29.5072V29.5066C20.6489 26.1419 23.0527 23.3123 26.1594 21.4644C29.2665 19.6159 32.8999 18.8535 36.4877 19.2975L36.487 19.2977Z" fill="#9C171E"/>
<path d="M51.6893 42.2381C50.3366 45.6929 47.9729 48.6591 44.9076 50.749C41.8417 52.8389 38.2176 53.956 34.5075 53.9537C33.752 53.9554 32.997 53.9078 32.2471 53.8125C27.8502 53.2819 23.7919 51.1849 20.8161 47.9056C17.8402 44.6264 16.1455 40.3838 16.0428 35.9566L13.4778 38.3478L12 36.7609L16.4996 32.566C16.7084 32.3675 16.989 32.2614 17.277 32.2711C17.5655 32.2815 17.8375 32.4077 18.032 32.6205L22.2268 37.1091L20.6399 38.5979L18.2166 36.0007V36.0001C18.3738 41.039 20.8551 45.721 24.9358 48.6807C29.0171 51.6404 34.2384 52.5447 39.077 51.1287C43.915 49.7134 47.8259 46.1375 49.6681 41.4451L51.6893 42.2381Z" fill="#9C171E"/>
</svg>
