<svg width="70" height="70" viewBox="0 0 70 70" fill="none" xmlns="http://www.w3.org/2000/svg">
<path fill-rule="evenodd" clip-rule="evenodd" d="M26.6852 57.8871H27.1197C27.637 57.7346 27.9879 57.369 28.3362 57.0061L28.3363 57.0061C28.4185 56.9204 28.5005 56.8349 28.5846 56.7524C28.7978 56.5408 29.0005 56.3188 29.2251 56.0729L29.2252 56.0728L29.2258 56.0721C29.3379 55.9494 29.4553 55.8208 29.5823 55.6845C29.732 55.8413 29.8748 55.995 30.014 56.145C30.3344 56.49 30.6364 56.8152 30.9629 57.1131C31.1875 57.3191 31.4452 57.4885 31.7031 57.658C31.8176 57.7333 31.9321 57.8086 32.0437 57.8871H32.4828L33.5063 57.2407C28.7064 52.6973 26.9476 47.306 29.2134 41.129C31.4793 34.952 36.271 31.9332 42.8379 31.5269V31.0374C42.8379 29.8368 42.8394 28.6362 42.8409 27.4354V27.4353V27.4352V27.4351V27.4349V27.4348V27.4347C42.8445 24.4723 42.8481 21.5096 42.8297 18.5476C42.8169 16.5546 43.3743 14.7817 44.6319 13.2313C44.6681 13.1856 44.7017 13.1379 44.7326 13.0884C44.7353 13.0843 44.7325 13.0763 44.7265 13.059C44.7221 13.0465 44.7161 13.0293 44.7092 13.0053H44.3474C36.7788 12.9982 29.2103 12.9982 21.6418 13.0053C18.4215 13.0076 15.7716 15.1681 15.1287 18.3134C15.0353 18.8153 14.9925 19.3253 15.0011 19.8357V56.1681C15.0011 57.2197 15.1849 57.4972 16.1404 57.8871H16.5796C16.7456 57.7444 16.912 57.6026 17.0784 57.4606C17.446 57.1472 17.8136 56.8336 18.178 56.5112C18.358 56.3537 18.5319 56.1889 18.7174 56.0132L18.7175 56.0131C18.8118 55.9237 18.9091 55.8315 19.0117 55.736C19.1484 55.8741 19.2847 56.0155 19.4219 56.158C19.7491 56.4975 20.0816 56.8427 20.438 57.1611C20.6612 57.3604 20.9215 57.5227 21.1785 57.6829L21.1785 57.6829L21.1786 57.6829C21.2869 57.7505 21.3947 57.8177 21.4989 57.8871H21.849C22.3646 57.7469 22.7133 57.3841 23.0606 57.0227C23.1164 56.9646 23.1721 56.9067 23.2285 56.8496C23.4703 56.6054 23.7061 56.3563 23.9288 56.1211L23.9289 56.121L23.9291 56.1208L23.9294 56.1205C24.0193 56.0256 24.1071 55.9329 24.1922 55.8437L26.6852 57.8871ZM30.902 23.6098H33.3739C33.6123 23.6098 33.8315 23.6541 34.0232 23.7349C33.8306 23.6531 33.6103 23.6076 33.3705 23.6063C32.9784 23.6063 32.5856 23.6071 32.185 23.608C31.7683 23.6089 31.3432 23.6098 30.902 23.6098ZM28.3239 29.0725H25.5882C24.6136 29.0725 23.8235 28.2824 23.8235 27.3078C23.8235 26.3331 24.6136 25.543 25.5882 25.543H35.2941C36.2687 25.543 37.0588 26.3331 37.0588 27.3078C37.0588 28.2824 36.2687 29.0725 35.2941 29.0725H28.3268C28.4023 29.4029 28.5463 29.666 28.7487 29.8493C28.5451 29.6664 28.4 29.4032 28.3239 29.0725ZM28.2704 22.896H35.2941C36.2687 22.896 37.0588 22.1059 37.0588 21.1313C37.0588 20.1567 36.2687 19.3666 35.2941 19.3666H25.5882C24.6136 19.3666 23.8235 20.1567 23.8235 21.1313C23.8235 22.1059 24.6136 22.896 25.5882 22.896H28.2676C28.2687 23.1319 28.2696 23.3699 28.2696 23.611C27.9644 23.611 27.6644 23.6094 27.3679 23.6078C26.7848 23.6047 26.2151 23.6016 25.6454 23.611C25.3048 23.6166 24.9796 23.7539 24.7379 23.994C24.4963 24.2341 24.3569 24.5585 24.3491 24.8991C24.3485 25.1062 24.396 25.3085 24.4858 25.4911C24.3975 25.3098 24.3508 25.1091 24.3514 24.9037C24.3592 24.5632 24.4986 24.2388 24.7402 23.9987C24.9819 23.7586 25.3071 23.6213 25.6477 23.6156C26.2174 23.604 26.7871 23.6078 27.3702 23.6117L27.3706 23.6117H27.3706H27.3706H27.3706H27.3706H27.3706C27.667 23.6137 27.9669 23.6156 28.2719 23.6156C28.2719 23.3731 28.2712 23.1334 28.2704 22.896ZM31.8658 34.1218C31.8734 34.862 31.3553 35.3692 30.5381 35.44C31.3569 35.3736 31.8751 34.8635 31.8751 34.1206C31.8681 33.3419 31.2697 32.8185 30.3762 32.8185H21.8678C21.786 32.8185 21.7067 32.823 21.6301 32.8317C21.7038 32.8237 21.7801 32.8196 21.8585 32.8196H30.3669C31.2604 32.8196 31.8588 33.3431 31.8658 34.1218ZM24.908 35.4478H24.9072H24.9065H24.9057H24.9049C24.0818 35.4481 23.2597 35.4485 22.44 35.4473L26.1372 35.4474C25.7276 35.4474 25.3181 35.4476 24.9088 35.4478H24.908ZM24.3124 38.0774L26.8537 38.0774C27.6734 38.0833 28.2589 38.6289 28.2589 39.3807C28.2589 40.0257 27.8426 40.5362 27.2142 40.6705C27.8511 40.5383 28.2721 40.0284 28.2661 39.3807C28.2591 38.6254 27.6806 38.0833 26.8609 38.0774C26.2932 38.0743 25.7275 38.0753 25.1616 38.0764H25.1613H25.161H25.1608H25.1605H25.1603H25.16C24.8777 38.0769 24.5952 38.0774 24.3124 38.0774ZM21.7647 38.0774H21.9626L21.7704 38.0786C20.9566 38.0844 20.3711 38.6278 20.3652 39.3831C20.3635 39.6079 20.4131 39.8159 20.5053 39.9974C20.4111 39.8154 20.3595 39.6068 20.3595 39.3819C20.3595 38.6325 20.945 38.0833 21.7647 38.0774ZM20.356 44.635C20.3568 44.5153 20.3715 44.4014 20.3991 44.2942C20.372 44.4009 20.3576 44.5144 20.357 44.6338C20.3535 45.4055 20.9414 45.9582 21.7892 45.9582C23.1787 45.9644 24.5683 45.9644 25.9579 45.9582C26.7214 45.9561 27.2776 45.4918 27.374 44.8456C27.2805 45.5036 26.7233 45.9594 25.9569 45.9594C24.5665 45.9656 23.1769 45.9656 21.7882 45.9594C20.9415 45.957 20.3513 45.4055 20.356 44.635ZM26.8374 43.5796C27.0538 43.725 27.2161 43.9281 27.3068 44.1719C27.2165 43.9258 27.0541 43.7237 26.8374 43.5796ZM24.5199 43.3308H24.52H24.5202C24.9502 43.3299 25.3802 43.329 25.8104 43.3316L23.8748 43.3317C24.0895 43.3317 24.3041 43.3312 24.5187 43.3308H24.5188H24.519H24.5191H24.5199ZM45.3872 31.1697V31.5093C46.122 31.5093 46.8513 31.51 47.5764 31.5107C49.5552 31.5125 51.5033 31.5143 53.4495 31.5023C54.138 31.4988 54.6509 30.9601 54.6966 30.2704C54.7052 30.0862 54.7023 29.9009 54.6994 29.7156C54.698 29.623 54.6966 29.5303 54.6966 29.4378C54.6966 28.1329 54.6989 26.8281 54.7013 25.5232C54.706 22.9134 54.7106 20.3037 54.6966 17.6939C54.6802 14.5428 51.7937 12.36 48.7749 13.1797C47.802 13.4493 46.9443 14.0305 46.3335 14.8343C45.7226 15.638 45.3923 16.62 45.393 17.6295C45.3828 20.9277 45.3844 24.2264 45.386 27.5249V27.525V27.5251C45.3866 28.74 45.3872 29.9549 45.3872 31.1697ZM20.2941 19.3666C19.3195 19.3666 18.5294 20.1567 18.5294 21.1313C18.5294 22.1059 19.3195 22.896 20.2941 22.896C21.2687 22.896 22.0588 22.1059 22.0588 21.1313C22.0588 20.1567 21.2687 19.3666 20.2941 19.3666ZM18.5294 27.3078C18.5294 26.3331 19.3195 25.543 20.2941 25.543C21.2687 25.543 22.0588 26.3331 22.0588 27.3078C22.0588 28.2824 21.2687 29.0725 20.2941 29.0725C19.3195 29.0725 18.5294 28.2824 18.5294 27.3078Z" fill="#9C171E"/>
<path d="M42.8475 57C49.1505 57 54.353 51.795 54.353 45.5C54.353 39.205 49.1394 34 42.8364 34C36.5444 34 31.353 39.205 31.353 45.5C31.353 51.795 36.5555 57 42.8475 57ZM42.8364 51.9952C42.5362 51.9952 42.3139 51.7727 42.3139 51.4613V50.6717C40.6575 50.5382 39.4347 49.6707 39.1012 48.4473C39.0567 48.3027 39.0345 48.1692 39.0345 48.0358C39.0345 47.5687 39.3569 47.2461 39.8349 47.2461C40.2351 47.2461 40.5019 47.4574 40.6686 47.869C40.8465 48.5474 41.3912 49.0479 42.3139 49.1813V46.1562L42.1138 46.1117C40.1906 45.6668 39.1901 44.7771 39.1901 43.2756C39.1901 41.6518 40.4908 40.5397 42.3139 40.3728V39.5943C42.3139 39.2718 42.5362 39.0604 42.8364 39.0604C43.1365 39.0604 43.3699 39.2829 43.3699 39.5943V40.3728C44.9263 40.5285 46.0824 41.3849 46.3936 42.575C46.427 42.7084 46.4603 42.8419 46.4603 42.9753C46.4603 43.4202 46.1379 43.7427 45.6711 43.7427C45.2597 43.7427 44.9929 43.5092 44.8262 43.131C44.6039 42.4526 44.1036 42.0189 43.3699 41.8854V44.7437L43.6256 44.7993C45.6377 45.1775 46.6493 46.1006 46.6493 47.6799C46.6493 49.4371 45.2486 50.516 43.3699 50.6828V51.4613C43.3699 51.7727 43.1365 51.9952 42.8364 51.9952ZM42.3139 44.4768V41.8743C41.4357 42.0189 40.9021 42.5416 40.9021 43.1644C40.9021 43.7872 41.3134 44.1876 42.2361 44.4545L42.3139 44.4768ZM43.3699 46.412V49.1813C44.426 49.059 44.9485 48.5251 44.9485 47.8022C44.9485 47.1572 44.5816 46.7345 43.5812 46.4676L43.3699 46.412Z" fill="#9C171E"/>
</svg>
