<svg width="70" height="70" viewBox="0 0 70 70" fill="none" xmlns="http://www.w3.org/2000/svg">
<path d="M24.9732 12.2012C24.3806 12.5628 24.25 12.9143 24.25 14.1297V15.2146H20.5937C17.2891 15.2146 16.8772 15.2347 16.3248 15.4054C14.8482 15.8675 13.5926 17.1331 13.1607 18.6197C13.0301 19.0617 13 19.7146 13 22.0148V24.8574H35.5H58V22.0148C58 19.7146 57.9699 19.0617 57.8393 18.6197C57.4074 17.1331 56.1518 15.8675 54.6752 15.4054C54.1228 15.2347 53.7109 15.2146 50.4062 15.2146H46.75V14.1297C46.75 12.9143 46.6194 12.5628 46.0268 12.2012C45.5748 11.93 44.7109 11.93 44.2589 12.2012C43.6663 12.5628 43.5357 12.9143 43.5357 14.1297V15.2146H35.5H27.4643V14.1297C27.4643 13.2358 27.4342 13.0047 27.2634 12.7235C26.9621 12.2414 26.51 12.0003 25.8571 12.0003C25.4855 12.0003 25.1942 12.0605 24.9732 12.2012Z" fill="#9C171E"/>
<path d="M13 40.5569C13 51.6663 13.0201 53.1027 13.1607 53.5949C13.5926 55.0815 14.8482 56.3471 16.3248 56.8092C16.9174 56.99 17.5603 57 35.5 57C53.4397 57 54.0826 56.99 54.6752 56.8092C56.1518 56.3471 57.4074 55.0815 57.8393 53.5949C57.9799 53.1027 58 51.6663 58 40.5569V28.0714H35.5H13V40.5569ZM28.3884 33.0837C29.3225 33.385 30.2165 34.2891 30.4978 35.2333C30.6685 35.8058 30.6685 39.6228 30.4978 40.1953C30.2165 41.1496 29.2924 42.0636 28.3382 42.3549C27.7455 42.5357 22.3616 42.5357 21.769 42.3549C20.8248 42.0737 19.9007 41.1696 19.6194 40.2455C19.5592 40.0446 19.4888 39.1306 19.4587 38.2165C19.3783 35.7656 19.5692 34.8315 20.3225 33.9676C20.7143 33.5257 21.4877 33.1138 22.1507 33.0033C22.9141 32.8728 27.9163 32.933 28.3884 33.0837ZM49.2812 42.7165C50.2254 43.0379 51.1094 43.9319 51.3906 44.8761C51.5614 45.4487 51.5614 49.2656 51.3906 49.8382C51.1094 50.7924 50.1853 51.7065 49.231 51.9978C48.6183 52.1886 35.2388 52.1886 34.6261 51.9978C33.6819 51.7165 32.7578 50.8125 32.4766 49.8884C32.4163 49.6875 32.346 48.7734 32.3158 47.8594C32.2355 45.4085 32.4263 44.4743 33.1797 43.6105C33.5714 43.1685 34.3449 42.7567 35.0078 42.6462C35.8616 42.5056 48.8292 42.5658 49.2812 42.7165Z" fill="#9C171E"/>
<path d="M22.6431 37.7141V37.7141C22.6431 38.6017 23.3626 39.3213 24.2502 39.3213H25.0538H25.8574C26.745 39.3213 27.4645 38.6017 27.4645 37.7141V37.7141V37.7141C27.4645 36.8265 26.745 36.107 25.8574 36.107H25.0538H24.2502C23.3626 36.107 22.6431 36.8265 22.6431 37.7141V37.7141Z" fill="#9C171E"/>
<path d="M35.5 47.3567V47.3567C35.5 48.2443 36.2195 48.9639 37.1071 48.9639H41.9286H46.75C47.6376 48.9639 48.3571 48.2443 48.3571 47.3567V47.3567V47.3567C48.3571 46.4691 47.6376 45.7496 46.75 45.7496H41.9286H37.1071C36.2195 45.7496 35.5 46.4691 35.5 47.3567V47.3567Z" fill="#9C171E"/>
</svg>
