<svg width="70" height="70" viewBox="0 0 70 70" fill="none" xmlns="http://www.w3.org/2000/svg">
<path d="M16.646 6.91486C14.8539 7.53282 13.5438 9.01593 13.1483 10.8698C12.9506 11.7968 12.9506 56.9574 13.1483 57.8844C13.4944 59.4787 14.5573 60.8506 16.0404 61.5798L16.9055 62H35.5062H54.1068L54.972 61.5798C56.4551 60.8506 57.518 59.4787 57.864 57.8844C57.9629 57.4147 58 51.9149 58 38.5174V19.7932H53.081C47.5688 19.7932 47.3958 19.7685 46.3205 18.9528C45.8756 18.6191 45.579 18.2483 45.27 17.6427L44.8374 16.7899L44.8003 11.7473L44.7633 6.69239H31.0198C18.228 6.70475 17.2269 6.71711 16.646 6.91486ZM29.6973 20.2381C30.9703 20.6089 32.0456 21.2639 33.1085 22.3268C34.6781 23.8841 35.3826 25.5773 35.3826 27.7649C35.3826 29.1121 35.1478 30.1626 34.6287 31.2008C33.1703 34.0805 30.3153 35.7613 27.1761 35.5759C24.2963 35.4153 21.8369 33.7839 20.6257 31.2502C20.329 30.6322 20.02 29.8536 19.9459 29.5323C19.7481 28.7042 19.7729 26.7638 19.9953 25.911C20.7369 22.9942 23.3323 20.5718 26.2491 20.0527C27.1266 19.8921 28.8445 19.9786 29.6973 20.2381ZM46.4194 23.983C47.5935 24.4279 47.4946 25.9975 46.2834 26.3436C45.6902 26.5043 39.7825 26.5043 39.1892 26.3436C38.6207 26.1829 38.2252 25.7009 38.2252 25.1695C38.2252 24.7245 38.6083 24.156 39.0162 23.9953C39.3746 23.847 46.0486 23.847 46.4194 23.983ZM49.4968 29.5446C49.8305 29.8413 49.9047 29.9896 49.9047 30.4221C49.9047 30.8547 49.8305 31.003 49.4968 31.2996L49.1013 31.6581H44.1576C40.5982 31.6581 39.1398 31.621 38.905 31.5098C38.3117 31.2378 38.0645 30.4221 38.3982 29.8165C38.7443 29.1986 38.8061 29.1986 44.1206 29.1862H49.1013L49.4968 29.5446ZM29.6973 40.0129C30.9703 40.3837 32.0456 41.0387 33.1085 42.1016C34.6781 43.6589 35.3826 45.3521 35.3826 47.5397C35.3826 48.8868 35.1478 49.9374 34.6287 50.9756C33.1703 53.8553 30.3153 55.5361 27.1761 55.3507C24.2963 55.1901 21.8369 53.5586 20.6257 51.025C20.329 50.407 20.02 49.6284 19.9459 49.3071C19.7481 48.479 19.7729 46.5386 19.9953 45.6858C20.7369 42.769 23.3323 40.3466 26.2491 39.8275C27.1266 39.6668 28.8445 39.7534 29.6973 40.0129ZM46.4194 43.7578C47.5935 44.2027 47.4946 45.7723 46.2834 46.1184C45.6902 46.279 39.7825 46.279 39.1892 46.1184C38.6207 45.9577 38.2252 45.4757 38.2252 44.9442C38.2252 44.4993 38.6083 43.9308 39.0162 43.7701C39.3746 43.6218 46.0486 43.6218 46.4194 43.7578ZM49.4968 49.3194C49.8305 49.616 49.9047 49.7644 49.9047 50.1969C49.9047 50.6295 49.8305 50.7778 49.4968 51.0744L49.1013 51.4328H44.1576C40.5982 51.4328 39.1398 51.3958 38.905 51.2845C38.3117 51.0126 38.0645 50.1969 38.3982 49.5913C38.7443 48.9734 38.8061 48.9734 44.1206 48.961H49.1013L49.4968 49.3194Z" fill="#9C171E"/>
<path d="M25.9275 22.7223C23.5051 23.5875 22.1579 25.6144 22.3186 28.1604C22.5534 31.9423 26.5578 34.2288 30.006 32.5356C32.1812 31.4603 33.4048 28.7166 32.7251 26.4054C32.2554 24.7863 31.4026 23.7481 29.9813 23.0437C29.1038 22.6111 28.9431 22.574 27.7937 22.5369C26.8421 22.5122 26.3971 22.5617 25.9275 22.7223ZM31.0689 25.5897C31.3532 25.8739 31.4273 26.0593 31.4273 26.4795C31.4273 27.011 31.4026 27.0481 29.1038 29.3345C26.9038 31.5468 26.7555 31.6581 26.3106 31.6581C25.8904 31.6581 25.7297 31.5592 24.914 30.7558C24.4073 30.2738 23.9253 29.7547 23.8635 29.6188C23.5421 29.0379 23.8635 28.2222 24.5062 27.9503C24.9634 27.7649 25.3713 27.8638 25.841 28.2593C26.0511 28.4323 26.2612 28.5682 26.3106 28.5682C26.36 28.5682 27.1634 27.8143 28.0903 26.8997C29.66 25.3548 29.8083 25.2312 30.2408 25.2312C30.5869 25.2312 30.797 25.3178 31.0689 25.5897Z" fill="#9C171E"/>
<path d="M25.9275 42.4966C23.5051 43.3618 22.1579 45.3887 22.3186 47.9347C22.4669 50.3942 24.296 52.4087 26.7679 52.8166C29.0791 53.1997 31.415 51.9391 32.4408 49.7639C32.7251 49.1335 32.8239 48.7257 32.8734 47.9347C33.0217 45.6729 31.9588 43.7943 29.9813 42.818C29.1038 42.3854 28.9431 42.3483 27.7937 42.3112C26.8421 42.2865 26.3971 42.336 25.9275 42.4966ZM31.0689 45.364C31.3532 45.6482 31.4273 45.8336 31.4273 46.2538C31.4273 46.7853 31.4026 46.8224 29.1038 49.1088C26.9038 51.3211 26.7555 51.4324 26.3106 51.4324C25.8904 51.4324 25.7297 51.3335 24.914 50.5301C24.4073 50.0481 23.9253 49.529 23.8635 49.3931C23.5421 48.8122 23.8635 47.9965 24.5062 47.7246C24.9634 47.5392 25.3713 47.6381 25.841 48.0336C26.0511 48.2066 26.2612 48.3425 26.3106 48.3425C26.36 48.3425 27.1634 47.5886 28.0903 46.674C29.66 45.1291 29.8083 45.0055 30.2408 45.0055C30.5869 45.0055 30.797 45.0921 31.0689 45.364Z" fill="#9C171E"/>
<path d="M47.3711 12.0444V16.5308L47.7542 16.9016L48.125 17.26L52.5743 17.2971C56.072 17.3218 57.0113 17.2971 57.0113 17.1735C57.0113 17.0128 47.952 7.86695 47.5936 7.6692C47.3835 7.55797 47.3711 7.80515 47.3711 12.0444Z" fill="#9C171E"/>
</svg>
