<svg width="70" height="70" viewBox="0 0 70 70" fill="none" xmlns="http://www.w3.org/2000/svg">
<path fill-rule="evenodd" clip-rule="evenodd" d="M29.0563 51.9436C29.3089 51.9436 29.5586 51.8871 29.7866 51.7782C32.101 50.6728 34.3558 49.5693 36.6068 48.4677C38.3094 47.6345 40.0098 46.8023 41.732 45.9713C40.5152 44.6392 39.773 42.8663 39.773 40.9199C39.773 37.2371 42.4305 34.1749 45.9324 33.5463C45.9335 31.3122 45.9372 29.0782 45.9436 26.8441C45.9454 26.1838 45.6881 25.7931 45.0672 25.4998C39.932 23.0694 34.8037 20.6302 29.682 18.1822C29.1847 17.9452 28.7314 17.9355 28.235 18.1761C27.3346 18.6132 26.6151 18.946 25.8721 19.2896C25.2928 19.5576 24.6991 19.8322 23.9942 20.168C23.6152 20.3497 23.6033 20.9352 23.9592 21.1588C24.2299 21.3289 24.4706 21.4793 24.5156 21.5013C27.2141 22.8318 29.6175 23.9674 32.0401 25.1119C34.1875 26.1265 36.35 27.1482 38.7464 28.3192C39.1356 28.5088 39.2858 28.7134 39.2858 29.1524C39.2611 31.7172 39.2684 34.2819 39.2794 36.8466C39.2794 37.2022 39.1585 37.413 38.8215 37.5737C38.1939 37.8734 37.5732 38.1872 36.9526 38.501C36.646 38.6561 36.3394 38.8111 36.032 38.9645C35.5329 39.2138 35.2994 39.076 35.2994 38.5333C35.2988 37.6496 35.2964 36.8142 35.2942 35.9934C35.2899 34.4624 35.2859 32.9823 35.293 31.3344C35.2939 31.0657 35.293 30.5011 34.5977 30.1678C32.5689 29.1688 30.8542 28.3291 29.2097 27.5237C26.6278 26.2593 24.2189 25.0796 21.0391 23.5013C20.9533 23.4515 19.7727 23.0013 19.127 23.0013C18.4812 23.0013 17.4745 23.4515 17.3887 23.5013C16.3432 24.0043 15.6847 24.2771 15.0021 24.5599C14.3944 24.8117 13.7675 25.0714 12.8315 25.5086C12.2528 25.779 12 26.1618 12 26.7844C12.0122 32.2235 12.0122 37.6629 12 43.1026C12 43.7199 12.2491 44.1141 12.8242 44.3872C17.9477 46.8352 23.0703 49.2831 28.192 51.7311C28.2462 51.7571 28.3014 51.7815 28.357 51.8052C28.5777 51.899 28.8165 51.9436 29.0563 51.9436Z" fill="#9C171E"/>
<path d="M49.51 44.1665C48.7951 44.1665 48.1094 43.8903 47.6039 43.3985C47.0984 42.9068 46.8144 42.2399 46.8144 41.5444C46.8144 40.849 47.0984 40.1821 47.6039 39.6903C48.1094 39.1986 48.7951 38.9223 49.51 38.9223C50.2249 38.9223 50.9106 39.1986 51.4161 39.6903C51.9217 40.1821 52.2057 40.849 52.2057 41.5444C52.2057 42.2399 51.9217 42.9068 51.4161 43.3985C50.9106 43.8903 50.2249 44.1665 49.51 44.1665M55.2325 42.2711C55.2633 42.0314 55.2864 41.7917 55.2864 41.5444C55.2864 41.2972 55.2633 41.05 55.2325 40.7953L56.8576 39.5741C57.0039 39.4617 57.0424 39.2595 56.95 39.0947L55.4096 36.5025C55.3172 36.3377 55.1093 36.2703 54.9398 36.3377L53.0221 37.0869C52.6216 36.7947 52.2057 36.54 51.7204 36.3527L51.4355 34.3674C51.4198 34.2791 51.3726 34.1991 51.3021 34.1416C51.2316 34.084 51.1424 34.0525 51.0504 34.0527H47.9696C47.7771 34.0527 47.6153 34.1876 47.5845 34.3674L47.2996 36.3527C46.8144 36.54 46.3985 36.7947 45.998 37.0869L44.0802 36.3377C43.9107 36.2703 43.7028 36.3377 43.6104 36.5025L42.07 39.0947C41.9699 39.2595 42.0161 39.4617 42.1624 39.5741L43.7875 40.7953C43.7567 41.05 43.7336 41.2972 43.7336 41.5444C43.7336 41.7917 43.7567 42.0314 43.7875 42.2711L42.1624 43.5148C42.0161 43.6271 41.9699 43.8294 42.07 43.9942L43.6104 46.5864C43.7028 46.7512 43.9107 46.8111 44.0802 46.7512L45.998 45.9945C46.3985 46.2942 46.8144 46.5489 47.2996 46.7362L47.5845 48.7215C47.6153 48.9013 47.7771 49.0362 47.9696 49.0362H51.0504C51.2429 49.0362 51.4047 48.9013 51.4355 48.7215L51.7204 46.7362C52.2057 46.5414 52.6216 46.2942 53.0221 45.9945L54.9398 46.7512C55.1093 46.8111 55.3172 46.7512 55.4096 46.5864L56.95 43.9942C57.0424 43.8294 57.0039 43.6271 56.8576 43.5148L55.2325 42.2711V42.2711Z" fill="#9C171E"/>
</svg>
