<svg width="70" height="70" viewBox="0 0 70 70" fill="none" xmlns="http://www.w3.org/2000/svg">
<path d="M36.866 12H28.5869C27.4904 12 26.6016 12.8888 26.6016 13.9853V13.9853C26.6016 15.0817 27.4904 15.9706 28.5869 15.9706H36.866C37.9624 15.9706 38.8513 15.0817 38.8513 13.9853V13.9853C38.8513 12.8888 37.9624 12 36.866 12Z" fill="#9C171E"/>
<path d="M42.3626 56.9108C42.2453 56.9695 42.1159 57.0001 41.9847 57.0001C41.8601 57.0001 41.7361 56.9758 41.6223 56.9251C41.593 56.912 41.5639 56.8985 41.5353 56.8841C38.8726 55.5478 36.2094 54.2115 33.5457 52.8752C33.2467 52.7261 33.1172 52.5109 33.1172 52.1739C33.1235 49.2045 33.1235 46.2351 33.1172 43.266C33.1172 42.9262 33.2486 42.7172 33.5495 42.5695C34.5827 42.0629 34.8913 41.9929 35.9187 41.4738C35.9633 41.4466 36.4867 41.2008 36.8225 41.2008C37.1582 41.2008 37.772 41.4466 37.8165 41.4738C40.5228 42.8842 42.1549 43.7115 44.8656 45.113C45.2271 45.2949 45.2276 45.6031 45.2271 45.7498C45.2214 47.1317 45.2294 48.2973 45.2304 49.6796C45.2304 49.9758 45.3518 50.0511 45.6113 49.915C46.0945 49.6619 46.574 49.4002 47.0615 49.1557C47.2367 49.068 47.2996 48.953 47.2996 48.7589C47.2939 47.3588 47.2901 45.9587 47.3029 44.5587C47.3029 44.319 47.2248 44.2073 47.0225 44.1038C44.3712 42.7435 42.2705 41.7522 39.624 40.382C39.6005 40.37 39.4746 40.2874 39.3334 40.1942C39.1441 40.0693 39.1504 39.7561 39.3529 39.6542C40.1894 39.2357 40.7245 38.9915 41.5577 38.5668C41.8157 38.4355 42.0514 38.4408 42.3099 38.5702C44.9727 39.9065 47.6389 41.238 50.3086 42.5648C50.6314 42.7248 50.7652 42.9381 50.7642 43.2986C50.7563 46.2383 50.7563 49.1781 50.7642 52.1179C50.7642 52.4951 50.6162 52.7175 50.2881 52.8809C47.5857 54.219 45.0515 55.5623 42.3626 56.9108Z" fill="#9C171E"/>
<path fill-rule="evenodd" clip-rule="evenodd" d="M24.9145 14.5352H23.9759C21.2278 14.5352 19 16.7629 19 19.5111V46.7307C19 49.4788 21.2278 51.7066 23.9759 51.7066H32.5363C32.3291 51.5565 32.2371 51.3528 32.2371 51.0631C32.2438 47.9522 32.2438 44.8416 32.2371 41.7311C32.2371 41.375 32.3757 41.1561 32.6931 41.0015C33.2063 40.7515 33.55 40.603 33.8832 40.459C34.2575 40.2972 34.6186 40.1412 35.1918 39.8535C35.2053 39.8453 35.2606 39.8182 35.341 39.7837L38.7341 38.0062C38.7563 37.9828 38.7828 37.9627 38.8136 37.9473C39.2001 37.7553 39.5256 37.5982 39.8433 37.445C40.2507 37.2485 40.6451 37.0582 41.1388 36.8082C41.411 36.6706 41.6596 36.6761 41.9322 36.8117C43.5797 37.633 45.2285 38.4526 46.8786 39.2705V19.5111C46.8786 16.7629 44.6508 14.5352 41.9027 14.5352H40.9658C40.9656 16.4013 39.4528 17.914 37.5866 17.914H28.2937C26.4276 17.914 24.9147 16.4013 24.9145 14.5352ZM30.8639 22.9461C31.3497 23.4319 31.3497 24.2195 30.8639 24.7053L27.2433 28.3259C26.7575 28.8117 25.9699 28.8117 25.4841 28.3259L24.0358 26.8777C23.55 26.3919 23.55 25.6042 24.0358 25.1184C24.5216 24.6326 25.3093 24.6326 25.7951 25.1184L26.3637 25.6871L29.1047 22.9461C29.5905 22.4603 30.3781 22.4603 30.8639 22.9461ZM33.3667 24.2706C32.6797 24.2706 32.1228 24.8276 32.1228 25.5146C32.1228 26.2016 32.6797 26.7586 33.3667 26.7586H40.97C41.657 26.7586 42.214 26.2016 42.214 25.5146C42.214 24.8276 41.657 24.2706 40.97 24.2706H33.3667ZM30.8639 31.3945C31.3497 31.8803 31.3497 32.6679 30.8639 33.1538L27.2433 36.7743C26.7575 37.2602 25.9699 37.2602 25.4841 36.7743L24.0358 35.3261C23.55 34.8403 23.55 34.0527 24.0358 33.5669C24.5216 33.0811 25.3093 33.0811 25.7951 33.5669L26.3637 34.1355L29.1047 31.3945C29.5905 30.9087 30.3781 30.9087 30.8639 31.3945ZM33.3667 32.719C32.6797 32.719 32.1228 33.276 32.1228 33.963C32.1228 34.65 32.6797 35.207 33.3667 35.207H40.97C41.657 35.207 42.214 34.65 42.214 33.963C42.214 33.276 41.657 32.719 40.97 32.719H33.3667ZM30.8639 39.8429C31.3497 40.3287 31.3497 41.1164 30.8639 41.6022L27.2433 45.2228C26.7575 45.7086 25.9699 45.7086 25.4841 45.2228L24.0358 43.7745C23.55 43.2887 23.55 42.5011 24.0358 42.0153C24.5216 41.5295 25.3093 41.5295 25.7951 42.0153L26.3637 42.5839L29.1047 39.8429C29.5905 39.3571 30.3781 39.3571 30.8639 39.8429Z" fill="#9C171E"/>
</svg>
