<svg width="70" height="70" viewBox="0 0 70 70" fill="none" xmlns="http://www.w3.org/2000/svg">
<path d="M49 35.8603C49 35.8734 48.999 35.8864 48.9969 35.8993C48.9124 36.4334 48.8409 36.9712 48.7358 37.5025C48.5249 38.6019 48.1674 39.6672 47.6732 40.6694C47.203 41.6253 46.3847 42 45.3617 42C41.021 42 36.6798 42 32.3382 42C30.088 42 27.8381 42 25.5887 42C24.466 42 23.6537 41.507 23.2072 40.4443C23.0943 40.1771 22.9741 39.9099 22.8691 39.6353C22.5838 38.9006 22.3657 38.1423 22.2168 37.3699C22.0357 36.4307 22.8053 35.6228 23.7618 35.6228H24.1527C24.7607 35.6228 25.2434 36.0768 25.3629 36.6728C25.4599 37.1591 25.5702 37.6441 25.7023 38.121C25.8476 38.6447 26.2604 38.8892 26.7167 38.7583C27.1612 38.63 27.3771 38.1791 27.2127 37.6621C26.8501 36.5159 26.6844 35.3502 26.7722 34.1438C26.8723 32.6201 27.374 31.1514 28.2251 29.8901C29.6041 27.8474 31.5114 26.5589 33.9206 26.1494C37.2293 25.5903 40.0513 26.5996 42.2294 29.1881C43.8639 31.1306 44.4893 33.4324 44.1499 35.9714C44.07 36.5653 43.8936 37.1471 43.7497 37.7316C43.6176 38.266 43.9088 38.7262 44.4233 38.783C44.6091 38.8087 44.7976 38.7626 44.9512 38.6538C45.1048 38.5451 45.2123 38.3818 45.2521 38.1965C45.4331 37.4484 45.5718 36.6902 45.725 35.9354C45.7626 35.7524 45.908 35.6114 46.0948 35.6114H48.7511C48.8886 35.6114 49 35.7228 49 35.8603ZM35.5083 38.7843C36.2215 38.791 36.8033 38.5125 37.3488 37.9013C38.457 36.6615 39.5648 35.4215 40.6721 34.1813C41.3847 33.383 41.5207 33.0231 42.2294 32.2209C42.5226 31.8869 42.5483 31.4908 42.3165 31.1735C42.0702 30.8362 41.6673 30.7587 41.2308 30.9764C40.0103 31.5856 39.3706 31.7609 38.1546 32.375C36.8819 33.0163 35.5974 33.6342 34.3433 34.3122C33.3408 34.8532 32.9313 35.9421 33.2206 37.0689C33.4821 38.0616 34.4311 38.7736 35.5083 38.7843Z" fill="#9C171E"/>
<path d="M48.9999 33.7593C48.9988 33.8924 48.8903 33.9995 48.7572 33.9988L45.9287 33.9844C45.7287 33.9844 45.5621 33.8321 45.5364 33.6337C45.3404 32.1197 44.8283 30.738 44.0044 29.4918C43.5058 28.7375 43.535 27.7103 44.1985 27.0959C44.856 26.487 45.8895 26.5099 46.4306 27.2243C46.7964 27.7071 47.1273 28.2124 47.421 28.7368C48.1378 30.0163 48.6264 31.3941 48.8681 32.8173C48.9213 33.1176 48.9549 33.4211 48.9975 33.7234C48.9991 33.7353 49 33.7473 48.9999 33.7593Z" fill="#9C171E"/>
<path d="M26.81 27.1168C27.4667 27.7313 27.5005 28.758 27.0044 29.5082C26.4025 30.4183 25.9654 31.401 25.6976 32.4542C25.4783 33.3169 24.7515 34 23.8614 34C22.8569 34 22.0529 33.1404 22.2704 32.1598C22.6658 30.3776 23.4351 28.7461 24.5567 27.256C25.1029 26.5303 26.1467 26.4961 26.81 27.1168Z" fill="#9C171E"/>
<path d="M28.3418 26.2292C27.6416 25.5882 27.6738 24.4599 28.4876 23.9711C29.9881 23.0696 31.6325 22.472 33.421 22.1781C34.2706 22.0385 35 22.7285 35 23.5895C35 24.303 34.4923 24.9149 33.7931 25.0572C31.6552 25.4925 31.3778 25.6459 30.1645 26.3984C29.585 26.7579 28.8449 26.6897 28.3418 26.2292Z" fill="#9C171E"/>
<path d="M42.5693 24.003C43.3497 24.4761 43.3866 25.5556 42.7122 26.1704C42.185 26.651 41.3951 26.6759 40.7814 26.3122C39.7173 25.6817 38.556 25.2475 37.3033 25.009C36.5734 24.87 36 24.2616 36 23.5185C36 22.6957 36.6965 22.0366 37.509 22.166C39.3443 22.4581 41.0311 23.0704 42.5693 24.003Z" fill="#9C171E"/>
<path d="M13 42.2002C13 45.6761 14.7753 47.3953 18.1765 47.3953H29.5947L29.0901 50.7778H27.1092C26.1748 50.7778 25.4086 51.5627 25.4086 52.4971C25.4086 53.4128 26.1748 54.1977 27.1092 54.1977H44.0216C44.9747 54.1977 45.7409 53.4128 45.7409 52.4971C45.7409 51.5627 44.9747 50.7778 44.0216 50.7778H41.8912L41.4053 47.3953H52.8048C56.206 47.3953 58 45.6761 58 42.2002V21.1765C58 17.7193 56.206 16 52.8048 16H18.1765C14.7753 16 13 17.7193 13 21.1765V42.2002ZM16.6441 41.9759V21.4194C16.6441 20.13 17.186 19.6441 18.4194 19.6441H52.5619C53.7953 19.6441 54.3559 20.13 54.3559 21.4194V41.9759C54.3559 43.2467 53.7953 43.7512 52.5619 43.7512H18.4194C17.186 43.7512 16.6441 43.2467 16.6441 41.9759Z" fill="#9C171E"/>
</svg>
