<svg width="70" height="70" viewBox="0 0 70 70" fill="none" xmlns="http://www.w3.org/2000/svg">
<path d="M56.3553 42.5018C56.3653 42.6566 56.3002 42.8014 56.2152 42.9362C56.0351 43.2358 55.865 43.5404 55.6749 43.83C55.5948 43.9548 55.5748 44.0547 55.6499 44.1945C55.83 44.524 55.97 44.8686 56.0751 45.2281C56.1151 45.3629 56.1852 45.4128 56.3102 45.4428C56.6655 45.5277 57.0207 45.6125 57.3759 45.7074C57.7861 45.8123 57.9962 46.0769 57.9962 46.4963C58.0013 47.3302 58.0013 48.1591 57.9962 48.9929C57.9962 49.4274 57.7861 49.687 57.3609 49.7969C57.0157 49.8867 56.6705 49.9716 56.3203 50.0515C56.1902 50.0815 56.1101 50.1414 56.0701 50.2812C55.965 50.6407 55.82 50.9852 55.6449 51.3148C55.5848 51.4346 55.5848 51.5195 55.6549 51.6344C55.85 51.9439 56.0401 52.2585 56.2202 52.5731C56.4353 52.9476 56.4003 53.2671 56.1001 53.5717C55.5148 54.1609 54.9244 54.7501 54.3341 55.3393C54.0239 55.6489 53.7037 55.6839 53.3185 55.4542C53.0083 55.2744 52.7031 55.0897 52.3979 54.8999C52.2879 54.83 52.2028 54.815 52.0777 54.8849C51.7425 55.0647 51.3873 55.2095 51.0171 55.3194C50.882 55.3593 50.832 55.4292 50.802 55.554C50.7219 55.9036 50.6319 56.2481 50.5468 56.5926C50.4368 57.032 50.1766 57.2367 49.7264 57.2367C48.9109 57.2367 48.0904 57.2367 47.2749 57.2367C46.8096 57.2367 46.5595 57.037 46.4394 56.5776C46.3544 56.2381 46.2643 55.9036 46.1893 55.564C46.1592 55.4292 46.0942 55.3543 45.9541 55.3144C45.5939 55.2095 45.2487 55.0647 44.9185 54.8899C44.7984 54.825 44.7084 54.835 44.5983 54.9049C44.2881 55.0996 43.9729 55.2844 43.6578 55.4691C43.2825 55.6839 42.9673 55.6489 42.6622 55.3493C42.0718 54.7651 41.4815 54.1759 40.8961 53.5867C40.5859 53.2771 40.5509 52.9576 40.7811 52.5731C40.9612 52.2635 41.1463 51.9589 41.3364 51.6543C41.4014 51.5445 41.4214 51.4596 41.3564 51.3348C41.1763 51.0002 41.0312 50.6457 40.9211 50.2812C40.8811 50.1464 40.8111 50.0915 40.686 50.0665C40.3358 49.9866 39.9906 49.9017 39.6454 49.8118C39.2051 49.702 39 49.4423 39 48.9929C39 48.1791 39 47.3602 39 46.5463C39 46.0769 39.2001 45.8322 39.6604 45.7174C39.9906 45.6325 40.3208 45.5476 40.651 45.4727C40.7911 45.4428 40.8811 45.3878 40.9261 45.2331C41.0312 44.8735 41.1763 44.529 41.3514 44.1995C41.4164 44.0796 41.4114 43.9947 41.3414 43.8799C41.1463 43.5703 40.9612 43.2557 40.7761 42.9412C40.5509 42.5517 40.5859 42.2321 40.8861 41.9276C41.4715 41.3384 42.0618 40.7492 42.6522 40.16C42.9673 39.8504 43.2825 39.8154 43.6678 40.0401C43.9779 40.2199 44.2831 40.3996 44.5883 40.5944C44.7084 40.6743 44.8084 40.6693 44.9285 40.6044C45.2587 40.4246 45.6039 40.2848 45.9641 40.1799C46.0942 40.14 46.1542 40.0701 46.1793 39.9452C46.2643 39.5907 46.3494 39.2362 46.4394 38.8817C46.5445 38.4722 46.8096 38.2625 47.2299 38.2625C48.0654 38.2575 48.8959 38.2575 49.7314 38.2625C50.1666 38.2625 50.4268 38.4722 50.5368 38.8967C50.6219 39.2362 50.7069 39.5708 50.787 39.9103C50.817 40.0501 50.867 40.135 51.0271 40.1799C51.3773 40.2848 51.7175 40.4196 52.0377 40.5994C52.1828 40.6792 52.2879 40.6593 52.4229 40.5744C52.7131 40.3846 53.0183 40.2099 53.3185 40.0351C53.6887 39.8204 54.0139 39.8554 54.3141 40.155C54.9144 40.7442 55.5048 41.3433 56.1001 41.9375C56.2702 42.0923 56.3603 42.2721 56.3553 42.5018ZM51.9977 47.7596C52.0027 45.8322 50.4418 44.2644 48.5206 44.2544C46.5795 44.2444 44.9986 45.8073 44.9935 47.7397C44.9885 49.667 46.5495 51.2349 48.4706 51.2449C50.4118 51.2549 51.9927 49.692 51.9977 47.7596Z" fill="#9C171E"/>
<path d="M13 46.7042V26.2168H52.957V35.9688C48.4074 34.5589 44.2275 35.1892 40.6174 38.3005C37.0074 41.4117 35.7479 45.4578 36.4955 50.1389C36.4436 50.1497 36.3909 50.1573 36.338 50.1614C29.8524 50.1614 23.3657 50.1709 16.8802 50.1531C15.1587 50.1531 13.654 48.9482 13.1682 47.2954C13.1102 47.0987 13.0557 46.902 13 46.7042ZM21.1348 36.8609C20.7651 36.8609 20.3955 36.8515 20.027 36.8609C19.6815 36.8667 19.3518 37.0069 19.1081 37.2519C18.8644 37.497 18.7259 37.8274 18.7221 38.1729C18.7182 38.5184 18.8493 38.8519 19.0875 39.1023C19.3256 39.3526 19.6521 39.5002 19.9974 39.5137C20.7501 39.5326 21.5028 39.5326 22.2556 39.5137C22.6075 39.5118 22.9443 39.3702 23.1918 39.12C23.4393 38.8698 23.5773 38.5315 23.5754 38.1796C23.5735 37.8277 23.4319 37.4909 23.1817 37.2434C22.9316 36.9959 22.5933 36.8579 22.2414 36.8598C21.8729 36.8515 21.5032 36.8609 21.1348 36.8609ZM29.0053 39.5184C29.4034 39.5184 29.8027 39.5338 30.2008 39.5184C30.5451 39.5081 30.8718 39.3641 31.1117 39.1169C31.3516 38.8698 31.4857 38.5389 31.4857 38.1944C31.4857 37.85 31.3516 37.5191 31.1117 37.2719C30.8718 37.0247 30.5451 36.8807 30.2008 36.8704C29.4342 36.8479 28.6605 36.8503 27.8975 36.8704C27.5529 36.8807 27.2259 37.0249 26.9858 37.2723C26.7457 37.5196 26.6114 37.8508 26.6114 38.1956C26.6114 38.5404 26.7457 38.8716 26.9858 39.119C27.2259 39.3664 27.5529 39.5105 27.8975 39.5208C28.266 39.5315 28.6392 39.5196 29.0053 39.5184ZM36.915 39.5184C37.313 39.5184 37.7123 39.5338 38.1104 39.5184C38.4547 39.5081 38.7814 39.3641 39.0213 39.1169C39.2612 38.8698 39.3954 38.5389 39.3954 38.1944C39.3954 37.85 39.2612 37.5191 39.0213 37.2719C38.7814 37.0247 38.4547 36.8807 38.1104 36.8704C37.3439 36.8479 36.5702 36.8503 35.8084 36.8704C35.4638 36.8807 35.1367 37.0249 34.8966 37.2723C34.6565 37.5196 34.5222 37.8508 34.5222 38.1956C34.5222 38.5404 34.6565 38.8716 34.8966 39.119C35.1367 39.3664 35.4638 39.5105 35.8084 39.5208C36.1756 39.5315 36.5453 39.5196 36.915 39.5184ZM29.0468 30.8825C28.6771 30.8825 28.3063 30.8718 27.9366 30.8825C27.1819 30.9097 26.6263 31.4429 26.5978 32.1514C26.5887 32.322 26.6135 32.4928 26.6708 32.6537C26.728 32.8147 26.8166 32.9628 26.9314 33.0893C27.0462 33.2159 27.1849 33.3185 27.3395 33.3912C27.4942 33.4638 27.6617 33.5051 27.8324 33.5127C28.6453 33.5572 29.4601 33.5572 30.273 33.5127C30.6113 33.4934 30.9282 33.3413 31.1547 33.0894C31.3813 32.8376 31.4992 32.5064 31.4827 32.168C31.4735 31.8315 31.3359 31.5113 31.0983 31.273C30.8606 31.0346 30.5408 30.8962 30.2043 30.886C29.824 30.8659 29.4318 30.8825 29.0468 30.8825ZM36.9505 30.8825C36.5654 30.8825 36.1804 30.8671 35.7965 30.8825C35.4601 30.8904 35.1393 31.0263 34.8995 31.2625C34.6598 31.4987 34.5192 31.8175 34.5063 32.1538C34.489 32.4905 34.6046 32.8205 34.8282 33.0729C35.0517 33.3253 35.3654 33.4798 35.7017 33.5032C36.5304 33.5502 37.3611 33.5502 38.1898 33.5032C38.527 33.4822 38.8423 33.3291 39.0674 33.0771C39.2925 32.8252 39.4092 32.4947 39.3924 32.1573C39.3819 31.8209 39.2432 31.5012 39.0046 31.2637C38.766 31.0263 38.4457 30.889 38.1092 30.8801C37.7218 30.8659 37.3356 30.8825 36.9505 30.8825ZM44.8341 33.521C45.2488 33.521 45.6634 33.5506 46.0769 33.521C46.4161 33.4961 46.7325 33.3409 46.9598 33.0879C47.1871 32.8349 47.3076 32.5037 47.2961 32.1638C47.2846 31.8239 47.142 31.5016 46.8982 31.2645C46.6543 31.0274 46.3282 30.8939 45.9881 30.892C45.233 30.8706 44.4779 30.8706 43.7228 30.892C43.3828 30.8945 43.0571 31.0284 42.8136 31.2657C42.5702 31.503 42.428 31.8252 42.4169 32.165C42.4057 32.5047 42.5264 32.8356 42.7537 33.0884C42.981 33.3411 43.2972 33.4962 43.6363 33.521C44.032 33.5506 44.4348 33.521 44.8341 33.521ZM21.1513 42.8536C20.7663 42.8536 20.38 42.8406 19.9962 42.8536C19.6521 42.8588 19.3237 42.9978 19.0804 43.2411C18.8371 43.4844 18.6981 43.8128 18.6929 44.1569C18.6829 44.4943 18.8053 44.8222 19.0341 45.0705C19.2628 45.3187 19.5797 45.4675 19.9168 45.485C20.7298 45.5289 21.5445 45.5289 22.3575 45.485C22.6946 45.4672 23.0113 45.3179 23.2395 45.0691C23.4676 44.8203 23.5891 44.4919 23.5778 44.1545C23.5698 43.8102 23.4277 43.4826 23.1819 43.2415C22.9361 43.0003 22.6059 42.8645 22.2615 42.8631C21.8918 42.8406 21.521 42.8536 21.1513 42.8536ZM29.0148 45.4945C29.4295 45.4945 29.8441 45.5241 30.2576 45.4945C30.6056 45.4827 30.9347 45.3335 31.1729 45.0796C31.4111 44.8258 31.5391 44.4878 31.5287 44.1399C31.5184 43.7919 31.3706 43.4621 31.1177 43.2228C30.8648 42.9836 30.5275 42.8542 30.1794 42.8631C29.4243 42.8418 28.6692 42.8418 27.9141 42.8631C27.5738 42.8644 27.2473 42.9975 27.003 43.2344C26.7587 43.4713 26.6157 43.7936 26.6039 44.1337C26.5921 44.4738 26.7125 44.8052 26.9397 45.0585C27.167 45.3118 27.4835 45.4672 27.8229 45.4921C28.2127 45.5241 28.6155 45.4945 29.0148 45.4945Z" fill="#9C171E"/>
<path d="M30.061 14.6947H35.9375L35.9257 14.6817C35.9257 15.9648 35.9257 17.2468 35.9328 18.5299C35.9328 19.396 36.4695 19.9943 37.242 20.0073C38.0144 20.0203 38.5926 19.4149 38.5962 18.5299C38.5962 17.2468 38.5962 15.9648 38.6033 14.6817L38.5914 14.6947H44.468L44.4561 14.6817C44.4561 15.9648 44.4561 17.2468 44.4632 18.5299C44.4632 19.396 45 19.9943 45.7724 20.0073C46.5449 20.0203 47.1231 19.4149 47.1267 18.5299C47.1267 17.2468 47.1267 15.9648 47.1338 14.6817L47.1219 14.6947C48.5105 14.6177 49.8469 14.7623 50.9974 15.6426C52.2509 16.5975 52.9369 17.8605 52.9807 19.4339C53.0186 20.7905 52.989 22.1482 52.989 23.5605H13V18.9446C13.0758 18.6638 13.1422 18.3794 13.2298 18.1022C13.5397 17.1256 14.1484 16.2711 14.97 15.659C15.7916 15.047 16.7847 14.7085 17.8091 14.6912C18.1645 14.6841 18.5199 14.6912 18.8754 14.6912L18.8635 14.6781C18.8635 15.9613 18.8635 17.2432 18.8706 18.5263C18.8706 19.3924 19.4073 19.9907 20.1798 20.0038C20.9523 20.0168 21.5305 19.4114 21.534 18.5263C21.54 17.2432 21.534 15.9613 21.5411 14.6781L21.5293 14.6912H27.4058L27.394 14.6781C27.394 15.9613 27.394 17.2432 27.4011 18.5263C27.4011 19.3924 27.9378 19.9907 28.7044 20.0038C29.4958 20.018 30.055 19.4114 30.0586 18.5263C30.0645 17.2432 30.0586 15.9613 30.0657 14.6781L30.061 14.6947Z" fill="#9C171E"/>
<path d="M18.8702 14.6948C18.8702 14.2529 18.8572 13.811 18.8702 13.3702C18.8649 13.1922 18.8954 13.015 18.9598 12.849C19.0243 12.683 19.1214 12.5316 19.2454 12.4038C19.3694 12.2761 19.5178 12.1745 19.6818 12.1051C19.8458 12.0357 20.0221 12 20.2002 12C20.3782 12 20.5545 12.0357 20.7185 12.1051C20.8825 12.1745 21.0309 12.2761 21.1549 12.4038C21.2789 12.5316 21.3761 12.683 21.4405 12.849C21.5049 13.015 21.5354 13.1922 21.5301 13.3702C21.5419 13.811 21.5301 14.2529 21.5301 14.6948L21.5419 14.6818H18.8584L18.8702 14.6948Z" fill="#9C171E"/>
<path d="M27.401 14.6948C27.401 14.2529 27.388 13.811 27.401 13.3702C27.3957 13.1922 27.4262 13.015 27.4906 12.849C27.5551 12.683 27.6522 12.5316 27.7762 12.4038C27.9002 12.2761 28.0486 12.1745 28.2126 12.1051C28.3766 12.0357 28.5529 12 28.7309 12C28.909 12 29.0853 12.0357 29.2493 12.1051C29.4133 12.1745 29.5617 12.2761 29.6857 12.4038C29.8097 12.5316 29.9068 12.683 29.9713 12.849C30.0357 13.015 30.0662 13.1922 30.0609 13.3702C30.0727 13.811 30.0609 14.2529 30.0609 14.6948L30.0727 14.6818H27.3892L27.401 14.6948Z" fill="#9C171E"/>
<path d="M35.9317 14.6948C35.9317 14.2529 35.9187 13.811 35.9317 13.3702C35.9264 13.1922 35.9569 13.015 36.0213 12.849C36.0858 12.683 36.1829 12.5316 36.3069 12.4038C36.4309 12.2761 36.5793 12.1745 36.7433 12.1051C36.9073 12.0357 37.0836 12 37.2616 12C37.4397 12 37.616 12.0357 37.78 12.1051C37.944 12.1745 38.0924 12.2761 38.2164 12.4038C38.3404 12.5316 38.4375 12.683 38.502 12.849C38.5664 13.015 38.5969 13.1922 38.5916 13.3702C38.6034 13.811 38.5916 14.2529 38.5916 14.6948L38.6034 14.6818H35.9258L35.9317 14.6948Z" fill="#9C171E"/>
<path d="M44.462 14.6948C44.462 14.2529 44.4489 13.811 44.462 13.3702C44.4567 13.1922 44.4871 13.015 44.5516 12.849C44.616 12.683 44.7131 12.5316 44.8372 12.4038C44.9612 12.2761 45.1096 12.1745 45.2736 12.1051C45.4376 12.0357 45.6138 12 45.7919 12C45.97 12 46.1462 12.0357 46.3102 12.1051C46.4742 12.1745 46.6226 12.2761 46.7467 12.4038C46.8707 12.5316 46.9678 12.683 47.0322 12.849C47.0967 13.015 47.1271 13.1922 47.1218 13.3702C47.1337 13.811 47.1218 14.2529 47.1218 14.6948L47.1337 14.6818H44.4561L44.462 14.6948Z" fill="#9C171E"/>
</svg>
