<svg width="70" height="70" viewBox="0 0 70 70" fill="none" xmlns="http://www.w3.org/2000/svg">
<path d="M12 42.2002C12 45.6761 13.7753 47.3953 17.1765 47.3953H28.5947L28.0901 50.7778H26.1092C25.1748 50.7778 24.4086 51.5627 24.4086 52.4971C24.4086 53.4128 25.1748 54.1977 26.1092 54.1977H43.0216C43.9747 54.1977 44.7409 53.4128 44.7409 52.4971C44.7409 51.5627 43.9747 50.7778 43.0216 50.7778H40.8912L40.4053 47.3953H51.8048C55.206 47.3953 57 45.6761 57 42.2002V21.1765C57 17.7193 55.206 16 51.8048 16H17.1765C13.7753 16 12 17.7193 12 21.1765V42.2002ZM15.6441 41.9759V21.4194C15.6441 20.13 16.186 19.6441 17.4194 19.6441H51.5619C52.7953 19.6441 53.3559 20.13 53.3559 21.4194V41.9759C53.3559 43.2467 52.7953 43.7512 51.5619 43.7512H17.4194C16.186 43.7512 15.6441 43.2467 15.6441 41.9759Z" fill="#9C171E"/>
<path d="M28.9466 30.1469C28.3562 32.3461 26.3366 33.972 23.9577 33.972C21.1081 33.9635 18.7891 31.653 18.7891 28.8034C18.7891 26.4159 20.415 24.4049 22.6142 23.8145C22.5543 24.0455 22.5885 23.8915 22.58 28.8034C22.58 29.5564 23.1961 30.1726 23.9491 30.1726C28.8354 30.164 28.707 30.1897 28.9466 30.1469Z" fill="#9C171E"/>
<path d="M29.1178 28.8027C29.1178 29.0508 28.9124 29.2562 28.6642 29.2562H23.9577C23.7095 29.2562 23.5042 29.0508 23.5042 28.8027V24.0961C23.5042 23.8394 23.7095 23.6426 23.9577 23.6426C26.8073 23.6426 29.1178 25.9531 29.1178 28.8027ZM28.6642 36.7353H19.2426C18.9944 36.7353 18.7891 36.5299 18.7891 36.2818C18.7891 36.0336 18.9944 35.8282 19.2426 35.8282H28.6642C28.9124 35.8282 29.1178 36.0336 29.1178 36.2818C29.1178 36.5299 28.9124 36.7353 28.6642 36.7353ZM37.4783 34.519V41.2023C37.4783 41.7071 37.0675 42.1179 36.5627 42.1179H34.6629C34.1581 42.1179 33.7473 41.7071 33.7473 41.2023V34.519C33.7473 34.0141 34.1495 33.6033 34.6629 33.6033H36.5627C37.0675 33.6033 37.4783 34.0141 37.4783 34.519ZM43.1176 29.8124V41.2023C43.1176 41.7071 42.7068 42.1179 42.202 42.1179H40.3022C39.7973 42.1179 39.3866 41.7071 39.3866 41.2023V29.8124C39.3866 29.3075 39.7888 28.8968 40.3022 28.8968H42.202C42.7068 28.8968 43.1176 29.3075 43.1176 29.8124ZM48.7483 34.519V41.2023C48.7483 41.7071 48.3376 42.1179 47.8327 42.1179H45.9244C45.4195 42.1179 45.0088 41.7071 45.0088 41.2023V34.519C45.0088 34.0141 45.4195 33.6033 45.9244 33.6033H47.8327C48.3376 33.6033 48.7483 34.0141 48.7483 34.519Z" fill="#9C171E"/>
<path d="M45.5972 29.4185C45.4825 29.4349 45.3592 29.3919 45.2606 29.3022L39.6053 23.7092L35.6082 29.437C35.4718 29.6295 35.2117 29.6667 35.0333 29.5106C34.8548 29.3544 34.8136 29.0662 34.95 28.8736L39.2199 22.7608C39.2919 22.664 39.3917 22.5978 39.5077 22.5899C39.6236 22.582 39.7392 22.626 39.8214 22.7094L45.5221 28.3478L49.7273 23.9658C49.8903 23.7954 50.15 23.8102 50.3092 23.9951C50.4683 24.1799 50.4624 24.4663 50.2994 24.6366L45.8234 29.3082C45.7619 29.369 45.6814 29.4064 45.5972 29.4185Z" fill="#9C171E"/>
<rect x="18.7891" y="38.8809" width="10.1638" height="0.846987" rx="0.423494" fill="#9C171E"/>
</svg>
