<svg width="70" height="70" viewBox="0 0 70 70" fill="none" xmlns="http://www.w3.org/2000/svg">
<path d="M44.7512 48.5631C44.7512 49.8926 43.6737 50.9704 42.3444 50.9704C41.015 50.9704 39.9375 49.8925 39.9375 48.5631C39.9375 47.2341 41.015 46.1562 42.3444 46.1562C43.6737 46.1562 44.7512 47.2342 44.7512 48.5631Z" fill="#9C171E"/>
<path d="M26.4272 43.8945C23.8483 43.8945 21.7578 45.9939 21.7578 48.5639C21.7578 51.1427 23.8572 53.2332 26.4272 53.2332C28.9971 53.2332 31.0965 51.1339 31.0965 48.5639C31.0961 45.9939 28.9971 43.8945 26.4272 43.8945ZM26.4272 52.3005C24.373 52.3005 22.6901 50.6263 22.6901 48.5634C22.6901 46.5005 24.3643 44.8263 26.4272 44.8263C28.4902 44.8263 30.1643 46.5005 30.1643 48.5634C30.1643 50.6269 28.4812 52.3005 26.4272 52.3005Z" fill="#9C171E"/>
<path d="M42.3412 43.8945C39.7624 43.8945 37.6719 45.9939 37.6719 48.5639C37.6719 51.1427 39.7713 53.2332 42.3412 53.2332C44.9112 53.2332 47.0106 51.1339 47.0106 48.5639C47.0106 45.9939 44.9112 43.8945 42.3412 43.8945ZM42.3412 52.3005C40.2871 52.3005 38.6041 50.6263 38.6041 48.5634C38.6041 46.5005 40.2783 44.8263 42.3412 44.8263C44.4042 44.8263 46.0783 46.5005 46.0783 48.5634C46.0783 50.6269 44.3952 52.3005 42.3412 52.3005Z" fill="#9C171E"/>
<path d="M28.8293 48.5631C28.8293 49.8926 27.7519 50.9704 26.4225 50.9704C25.0931 50.9704 24.0156 49.8925 24.0156 48.5631C24.0156 47.2341 25.0931 46.1562 26.4225 46.1562C27.7519 46.1562 28.8293 47.2342 28.8293 48.5631Z" fill="#9C171E"/>
<path fill-rule="evenodd" clip-rule="evenodd" d="M23.798 29.6895H13.448C12.6518 29.6895 12 30.3408 12 31.1374V33.427C12 34.2232 12.6514 34.875 13.448 34.875H27.6723C25.9155 33.5791 24.553 31.7795 23.798 29.6895ZM28.7674 35.5878C30.3926 36.5147 32.2738 37.0443 34.2787 37.0443C36.2835 37.0443 38.1647 36.5147 39.7899 35.5878H55.147C55.5722 35.5878 55.8526 36.0041 55.7264 36.4022C55.0808 38.1103 54.432 39.8153 53.7838 41.5191L53.7834 41.52C53.3053 42.7764 52.8275 44.0322 52.3514 45.2881C51.7453 46.8446 50.1888 48.6001 48.56 48.573H47.483C47.483 45.7404 45.1751 43.433 42.3431 43.433C39.5105 43.433 37.2031 45.7409 37.2031 48.573H31.5567C31.5567 45.7404 29.2488 43.433 26.4168 43.433C23.5842 43.433 21.2769 45.7409 21.2769 48.573H20.589C18.9695 48.5548 17.386 46.8899 16.7977 45.2881C16.1521 43.5801 15.5034 41.8751 14.8551 40.1714C14.3769 38.9146 13.8989 37.6585 13.4226 36.4022C13.2778 36.0041 13.5675 35.5878 13.9838 35.5878H28.7674ZM40.885 34.875C42.6418 33.5791 44.0043 31.7795 44.7593 29.6895H55.561H55.5613C56.3574 29.6895 57.0088 30.3408 56.9999 31.1374V33.427C56.9999 34.2236 56.3481 34.875 55.5519 34.875H40.885ZM47.4644 40.6459H21.2768C21.0236 40.6459 20.8152 40.438 20.8152 40.1843C20.8152 39.931 21.0231 39.7226 21.2768 39.7226H47.4644C47.7177 39.7226 47.926 39.9306 47.926 40.1843C47.9349 40.438 47.727 40.6459 47.4644 40.6459Z" fill="#9C171E"/>
<path d="M34.2775 16C28.809 16 24.375 20.434 24.375 25.9025C24.375 31.3709 28.809 35.8049 34.2775 35.8049C39.7459 35.8049 44.1799 31.3709 44.1799 25.9025C44.1799 20.434 39.7459 16 34.2775 16ZM34.7704 30.7034L34.7748 31.4041C34.7748 31.5013 34.6952 31.5831 34.598 31.5831L33.9702 31.5831C33.873 31.5831 33.7934 31.5035 33.7934 31.4063L33.7934 30.7122C31.8306 30.5663 30.9066 29.4479 30.8072 28.2322C30.7983 28.1283 30.8801 28.0399 30.984 28.0399L32.0052 28.0399C32.0914 28.0399 32.1665 28.1018 32.1798 28.1858C32.2925 28.8864 32.8385 29.4103 33.8177 29.5407L33.8177 26.3865L33.2717 26.2473C32.1157 25.971 31.0149 25.2504 31.0149 23.7562C31.0149 22.1448 32.2395 21.2784 33.8044 21.1258L33.8044 20.3964C33.8044 20.2992 33.884 20.2196 33.9813 20.2196L34.6024 20.2196C34.6996 20.2196 34.7792 20.2992 34.7792 20.3964L34.7792 21.1192C36.2933 21.2717 37.4294 22.1559 37.5621 23.5329C37.5731 23.6368 37.4913 23.7274 37.3852 23.7274L36.3928 23.7274C36.3044 23.7274 36.2292 23.6611 36.2182 23.5749C36.1297 22.9295 35.6125 22.4034 34.7704 22.2885L34.7704 25.257L35.3318 25.3874C36.7641 25.7411 37.7389 26.4263 37.7389 27.9603C37.7389 29.6247 36.5011 30.5531 34.7704 30.7034ZM32.3898 23.6545C32.3898 24.2159 32.7368 24.6514 33.4839 24.921C33.5878 24.963 33.6917 24.9962 33.8155 25.0316L33.8155 22.2907C32.9999 22.3946 32.3898 22.8521 32.3898 23.6545ZM34.9649 26.6429C34.903 26.6297 34.8411 26.6142 34.7704 26.5943L34.7704 29.5496C35.712 29.4656 36.3618 28.9483 36.3618 28.0819C36.3618 27.4033 36.0104 26.9612 34.9649 26.6429Z" fill="#9C171E"/>
</svg>
