<svg width="70" height="70" viewBox="0 0 70 70" fill="none" xmlns="http://www.w3.org/2000/svg">
<path d="M24.0522 53.1784C24.0522 53.6226 23.6925 53.9823 23.2487 53.9823C22.805 53.9823 22.4453 53.6226 22.4453 53.1784C22.4453 52.7347 22.805 52.375 23.2487 52.375C23.6925 52.375 24.0522 52.7347 24.0522 53.1784Z" fill="#9C171E"/>
<path d="M24.0522 46.7507C24.0522 47.1944 23.6925 47.5541 23.2487 47.5541C22.805 47.5541 22.4453 47.1944 22.4453 46.7507C22.4453 46.307 22.805 45.9473 23.2487 45.9473C23.6925 45.9473 24.0522 46.307 24.0522 46.7507Z" fill="#9C171E"/>
<path d="M24.0522 40.321C24.0522 40.7651 23.6925 41.1249 23.2487 41.1249C22.805 41.1249 22.4453 40.7651 22.4453 40.321C22.4453 39.8773 22.805 39.5176 23.2487 39.5176C23.6925 39.5176 24.0522 39.8773 24.0522 40.321Z" fill="#9C171E"/>
<path d="M29.6706 45.9453C29.2269 45.9453 28.8672 46.305 28.8672 46.7487V53.1775V53.1771C28.8672 53.6212 29.2269 53.9809 29.6706 53.9809C30.1148 53.9809 30.4745 53.6212 30.4745 53.1771V46.7488C30.4745 46.5354 30.3896 46.3313 30.239 46.1803C30.0884 46.0297 29.884 45.9453 29.6706 45.9453L29.6706 45.9453Z" fill="#9C171E"/>
<path d="M17.6229 40.321C17.6229 40.7651 17.2628 41.1249 16.8191 41.1249C16.3753 41.1249 16.0156 40.7651 16.0156 40.321C16.0156 39.8773 16.3753 39.5176 16.8191 39.5176C17.2628 39.5176 17.6229 39.8773 17.6229 40.321Z" fill="#9C171E"/>
<path d="M16.0156 33.0898H27.2661V34.6972H16.0156V33.0898Z" fill="#9C171E"/>
<path d="M17.6229 46.7507C17.6229 47.1944 17.2628 47.5541 16.8191 47.5541C16.3753 47.5541 16.0156 47.1944 16.0156 46.7507C16.0156 46.307 16.3753 45.9473 16.8191 45.9473C17.2628 45.9473 17.6229 46.307 17.6229 46.7507Z" fill="#9C171E"/>
<path d="M17.6229 53.1784C17.6229 53.6226 17.2628 53.9823 16.8191 53.9823C16.3753 53.9823 16.0156 53.6226 16.0156 53.1784C16.0156 52.7347 16.3753 52.375 16.8191 52.375C17.2628 52.375 17.6229 52.7347 17.6229 53.1784Z" fill="#9C171E"/>
<path d="M32.0889 29.0703H14.4107C13.7714 29.0703 13.1585 29.3244 12.7063 29.7762C12.2541 30.2284 12 30.8418 12 31.481V55.5881C12 56.2278 12.2541 56.8407 12.7063 57.2929C13.1585 57.7451 13.7715 57.9988 14.4107 57.9988H32.0889C32.7286 57.9988 33.3416 57.7451 33.7937 57.2929C34.2459 56.8407 34.4996 56.2277 34.4996 55.5881V31.481C34.4996 30.8418 34.2459 30.2284 33.7937 29.7762C33.3415 29.3244 32.7286 29.0703 32.0889 29.0703ZM14.4107 32.2845C14.4107 31.8408 14.7704 31.4811 15.2145 31.4811H28.0711C28.2841 31.4811 28.4886 31.5655 28.6391 31.7165C28.7902 31.8671 28.8746 32.0716 28.8746 32.2845V35.4987C28.8746 35.7121 28.7902 35.9166 28.6391 36.0672C28.4886 36.2177 28.2841 36.3026 28.0711 36.3026H15.2145C14.7704 36.3026 14.4107 35.9429 14.4107 35.4987V32.2845ZM16.8214 55.588C16.1821 55.588 15.5692 55.3343 15.117 54.8821C14.6648 54.4299 14.4107 53.8169 14.4107 53.1773C14.4107 52.538 14.6648 51.925 15.117 51.4729C15.5692 51.0207 16.1822 50.767 16.8214 50.767C17.4606 50.767 18.074 51.0207 18.5262 51.4729C18.978 51.9251 19.2321 52.538 19.2321 53.1773C19.2321 53.8169 18.978 54.4299 18.5262 54.8821C18.074 55.3343 17.4606 55.588 16.8214 55.588ZM16.8214 49.1592V49.1597C16.1821 49.1597 15.5692 48.9056 15.117 48.4534C14.6648 48.0016 14.4107 47.3882 14.4107 46.749C14.4107 46.1097 14.6648 45.4963 15.117 45.0441C15.5692 44.5924 16.1822 44.3383 16.8214 44.3383C17.4606 44.3383 18.074 44.5924 18.5262 45.0441C18.978 45.4963 19.2321 46.1097 19.2321 46.749C19.2321 47.3882 18.978 48.0016 18.5262 48.4534C18.074 48.9056 17.4606 49.1597 16.8214 49.1597V49.1592ZM16.8214 42.7305V42.7309C16.1821 42.7309 15.5692 42.4773 15.117 42.0251C14.6648 41.5729 14.4107 40.9599 14.4107 40.3202C14.4107 39.681 14.6648 39.068 15.117 38.6158C15.5692 38.1636 16.1822 37.9095 16.8214 37.9095C17.4606 37.9095 18.074 38.1636 18.5262 38.6158C18.978 39.068 19.2321 39.681 19.2321 40.3202C19.2321 40.9599 18.978 41.5729 18.5262 42.0251C18.074 42.4773 17.4606 42.7309 16.8214 42.7309V42.7305ZM23.2501 55.5871V55.5875C22.6109 55.5875 21.9975 55.3338 21.5453 54.8816C21.0935 54.4294 20.8394 53.8165 20.8394 53.1768C20.8394 52.5375 21.0935 51.9246 21.5453 51.4724C21.9975 51.0202 22.6109 50.7665 23.2501 50.7665C23.8894 50.7665 24.5028 51.0202 24.9545 51.4724C25.4067 51.9246 25.6608 52.5376 25.6608 53.1768C25.6608 53.8165 25.4067 54.4295 24.9545 54.8816C24.5028 55.3338 23.8894 55.5875 23.2501 55.5875V55.5871ZM23.2501 49.1584V49.1592C22.6109 49.1592 21.9975 48.9051 21.5453 48.4529C21.0935 48.0011 20.8394 47.3878 20.8394 46.7485C20.8394 46.1093 21.0935 45.4959 21.5453 45.0437C21.9975 44.5919 22.6109 44.3378 23.2501 44.3378C23.8894 44.3378 24.5028 44.5919 24.9545 45.0437C25.4067 45.4959 25.6608 46.1093 25.6608 46.7485C25.6608 47.3878 25.4067 48.0012 24.9545 48.4529C24.5028 48.9051 23.8894 49.1592 23.2501 49.1592V49.1584ZM23.2501 42.7296V42.7305C22.6109 42.7305 21.9975 42.4768 21.5453 42.0246C21.0935 41.5724 20.8394 40.9594 20.8394 40.3198C20.8394 39.6805 21.0935 39.0676 21.5453 38.6154C21.9975 38.1632 22.6109 37.9091 23.2501 37.9091C23.8894 37.9091 24.5028 38.1632 24.9545 38.6154C25.4067 39.0676 25.6608 39.6805 25.6608 40.3198C25.6608 40.9595 25.4067 41.5724 24.9545 42.0246C24.5028 42.4768 23.8894 42.7305 23.2501 42.7305V42.7296ZM32.0892 53.1768C32.0892 54.0384 31.6298 54.8342 30.884 55.2648C30.1383 55.6953 29.2191 55.6953 28.4733 55.2648C27.7276 54.8342 27.2677 54.0384 27.2677 53.1768V46.7485C27.2677 45.8874 27.7276 45.0912 28.4733 44.6606C29.2191 44.23 30.1383 44.23 30.884 44.6606C31.6298 45.0911 32.0892 45.8874 32.0892 46.7485V53.1768ZM29.6785 42.7305C29.0393 42.7305 28.4263 42.4768 27.9741 42.0246C27.5219 41.5724 27.2678 40.9595 27.2678 40.3198C27.2678 39.6805 27.5219 39.0676 27.9741 38.6154C28.4263 38.1632 29.0393 37.9091 29.6785 37.9091C30.3182 37.9091 30.9312 38.1632 31.3834 38.6154C31.8356 39.0676 32.0892 39.6806 32.0892 40.3198C32.0892 40.9595 31.8356 41.5724 31.3834 42.0246C30.9312 42.4768 30.3182 42.7305 29.6785 42.7305ZM32.0892 36.3018L30.4824 36.3022V34.6949H32.0897L32.0892 36.3018ZM32.0892 33.0876H30.4824V31.4807H32.0897L32.0892 33.0876Z" fill="#9C171E"/>
<path d="M53.7079 26.5485C53.4194 26.4763 53.1946 26.2511 53.1229 25.9626C52.8281 24.7977 52.3649 23.6821 51.7477 22.6509C51.5966 22.3973 51.5966 22.0808 51.7477 21.8271L53.4987 18.9104L51.088 16.4997L48.1713 18.2508C47.9159 18.4043 47.5969 18.4043 47.342 18.2508C46.863 17.9632 46.365 17.7091 45.8513 17.4906C45.2616 17.2407 44.6538 17.0367 44.0328 16.8797C43.7473 16.8059 43.525 16.5811 43.4541 16.2948L42.6329 13H39.2291L38.4078 16.2948C38.3361 16.5832 38.1105 16.8089 37.822 16.8806C36.6571 17.1754 35.5415 17.6386 34.5103 18.2554C34.2566 18.4068 33.9406 18.4068 33.6869 18.2554L30.7702 16.5043L28.3595 18.915L30.1106 21.8318L30.1101 21.8322C30.2616 22.0859 30.2616 22.4019 30.1101 22.6556C29.4929 23.6868 29.0301 24.8025 28.7353 25.9673C28.6636 26.2557 28.4384 26.481 28.1504 26.5531L24.8594 27.3688V27.4643H32.0916C33.1568 27.4656 34.1783 27.8893 34.9316 28.6428C35.6845 29.3957 36.1083 30.4172 36.1096 31.4823V40.676C36.6645 40.914 37.2367 41.1095 37.8213 41.261C38.1102 41.3322 38.3359 41.5579 38.408 41.8468L39.2292 45.1429H42.633L43.4543 41.8481V41.8485C43.526 41.5596 43.7516 41.3344 44.0401 41.2627C45.205 40.9679 46.3206 40.5046 47.3518 39.8874C47.6055 39.736 47.9215 39.736 48.1752 39.8874L51.0919 41.6385L53.5026 39.2278L51.7515 36.3111H51.752C51.6005 36.0574 51.6005 35.7409 51.752 35.4873C52.3688 34.456 52.832 33.3408 53.1268 32.176C53.1985 31.8875 53.4233 31.6619 53.7118 31.5902L57.0023 30.7744V27.369L53.7079 26.5485ZM40.9306 38.7144C39.7309 38.7161 38.5415 38.4934 37.4237 38.0569L38.0087 36.559C39.9939 37.3332 42.2056 37.2869 44.157 36.4305C46.1083 35.5744 47.6396 33.9782 48.4138 31.993C49.1884 30.0077 49.1426 27.7963 48.287 25.8446C47.4309 23.8933 45.8351 22.3615 43.8499 21.5869C41.8651 20.8119 39.6532 20.8573 37.7016 21.7125C35.7502 22.5681 34.218 24.1639 33.443 26.1488L31.9451 25.5655C32.7995 23.3758 34.4246 21.5734 36.515 20.4976C38.6051 19.4219 41.0158 19.1466 43.2946 19.7235C45.5735 20.3003 47.563 21.69 48.8895 23.6307C50.2155 25.5714 50.7874 27.93 50.4972 30.2626C50.2066 32.5952 49.0741 34.7417 47.3123 36.2981C45.5506 37.8545 43.2812 38.7135 40.9306 38.7144L40.9306 38.7144ZM40.8131 31.4822H41.0481C41.3662 31.4817 41.6424 31.2628 41.7153 30.9532C41.7883 30.6435 41.6385 30.3241 41.3539 30.182L39.7878 29.3985C39.2401 29.1257 38.8244 28.6447 38.6339 28.0631C38.4435 27.4815 38.4944 26.8478 38.7748 26.304C39.0556 25.7601 39.5426 25.3516 40.1271 25.1701V24.25H41.7344V25.1701H41.734C42.1985 25.3152 42.6049 25.6041 42.8938 25.9956C43.1827 26.3872 43.3396 26.8606 43.3413 27.3471V27.4642H41.734V27.3467V27.3471C41.7336 26.9683 41.4269 26.6612 41.0481 26.6607H40.8131C40.4949 26.6607 40.2188 26.88 40.1458 27.1897C40.0728 27.4994 40.2226 27.8188 40.5072 27.9609L42.0734 28.7444C42.621 29.0167 43.0367 29.4978 43.2272 30.0794C43.4177 30.6609 43.3668 31.2946 43.0864 31.8385C42.8055 32.3823 42.3186 32.7908 41.734 32.9728V33.8929H40.1271V32.9728C39.6626 32.8277 39.2563 32.5384 38.9673 32.1468C38.6785 31.7557 38.5215 31.2823 38.5198 30.7958V30.6783H40.1271V30.7958C40.1276 31.1746 40.4343 31.4817 40.8131 31.4822L40.8131 31.4822ZM44.9486 29.8748V28.2675H46.5559V29.8748H44.9486Z" fill="#9C171E"/>
<path d="M30.4745 40.321C30.4745 40.7651 30.1147 41.1249 29.6706 41.1249C29.2269 41.1249 28.8672 40.7651 28.8672 40.321C28.8672 39.8773 29.2269 39.5176 29.6706 39.5176C30.1147 39.5176 30.4745 39.8773 30.4745 40.321Z" fill="#9C171E"/>
</svg>
