<svg width="70" height="70" viewBox="0 0 70 70" fill="none" xmlns="http://www.w3.org/2000/svg">
<path d="M33.1828 42.375H27.2047V47.4982L25.136 45.7262L23.0607 47.4982V42.375H16.0896C15.4757 42.375 15 42.8577 15 43.4715V56.9039C15.0004 57.5108 15.4896 58.0004 16.0896 58.0004H33.1832C33.2108 58.0004 33.2453 58.0004 33.2729 57.9935C33.7763 57.9452 34.1693 57.5798 34.2521 57.111C34.2659 57.0419 34.2728 56.9729 34.2728 56.9039V43.4715C34.2728 42.8577 33.7966 42.375 33.1828 42.375ZM27.6321 52.0218L28.8115 50.6152C29.0254 50.3671 29.3977 50.3736 29.6043 50.6152L30.7833 52.0218C30.9627 52.2426 30.9351 52.5666 30.7142 52.7525C30.5141 52.9319 30.1695 52.9112 29.9904 52.6835L29.7217 52.3664V53.8628C29.7217 54.1453 29.4939 54.3799 29.2045 54.3799C28.9219 54.3799 28.6873 54.1453 28.6873 53.8628V52.3733L28.4255 52.6835C28.2391 52.9112 27.9083 52.9315 27.6947 52.7525C27.4739 52.5665 27.4462 52.2422 27.6321 52.0218ZM23.2125 52.0218L24.3919 50.6152C24.5989 50.3671 24.9781 50.3736 25.1778 50.6152L26.3567 52.0218C26.5431 52.2426 26.5154 52.5666 26.2946 52.7525C26.0945 52.9319 25.7498 52.9112 25.5708 52.6835L25.302 52.3664V53.8628C25.302 54.1453 25.0743 54.3799 24.7849 54.3799C24.5023 54.3799 24.2677 54.1453 24.2677 53.8628V52.3733L24.0058 52.6835C23.8195 52.9112 23.4886 52.9315 23.2751 52.7525C23.0538 52.5665 23.0262 52.2422 23.2125 52.0218ZM30.6939 56.4484H23.3022C23.0127 56.4484 22.785 56.2206 22.785 55.9312C22.785 55.6486 23.0127 55.414 23.3022 55.414H30.6939C30.9764 55.414 31.2111 55.6482 31.2111 55.9312C31.2111 56.221 30.9764 56.4484 30.6939 56.4484Z" fill="#9C171E"/>
<path d="M44.9844 47.0078H50.1637L44.9844 52.1867V47.0078Z" fill="#9C171E"/>
<path d="M26.2122 17.502H29.1773V20.1565H26.8743C26.6194 20.191 26.4192 20.4046 26.4192 20.6737V40.9943H23.7578V20.0813C23.7578 18.7368 24.7922 17.6265 26.1091 17.5096C26.1363 17.5092 26.1708 17.5023 26.2122 17.5023L26.2122 17.502Z" fill="#9C171E"/>
<path d="M54.5904 20.0809V54.0333C54.5904 55.4538 53.4387 56.6119 52.0183 56.6119H35.6562V53.9505H44.4753C44.6133 53.9505 44.744 53.8953 44.8406 53.7987L51.7841 46.8552C51.8807 46.7586 51.9359 46.6275 51.9359 46.4898V20.6737C51.9359 20.3912 51.7017 20.1565 51.4187 20.1565L49.1709 20.2531C49.1778 20.1772 49.1778 20.1082 49.1778 20.0392V17.502H52.0187C53.4392 17.502 54.5905 18.6605 54.5905 20.081L54.5904 20.0809Z" fill="#9C171E"/>
<path d="M47.1229 16.6889H41.7586V15.5994C41.7586 14.1789 40.6137 13 39.1657 13C37.7315 13 36.5733 14.1651 36.5733 15.5994V16.6889H31.209C30.8436 16.6889 30.5469 16.9853 30.5469 17.3511V20.0401C30.5469 20.261 30.5745 20.4745 30.6228 20.6746C30.9053 21.8398 31.9536 22.702 33.2014 22.702H45.13C46.3779 22.702 47.4261 21.8402 47.7086 20.6746C47.7569 20.4745 47.7845 20.261 47.7845 20.0401L47.7849 17.3506C47.7849 16.9853 47.4881 16.6889 47.1228 16.6889L47.1229 16.6889ZM39.1657 16.7303C38.5174 16.7303 37.9938 16.2063 37.9938 15.5584C37.9938 14.9101 38.5179 14.3794 39.1657 14.3794C39.8141 14.3794 40.3377 14.9104 40.3377 15.5584C40.3381 16.2063 39.814 16.7303 39.1657 16.7303Z" fill="#9C171E"/>
<path fill-rule="evenodd" clip-rule="evenodd" d="M48.8211 21.4614C48.3247 23.1713 46.7593 24.3507 44.9597 24.3507H33.0311C31.2315 24.3507 29.6661 23.1713 29.1697 21.4614H27.2734V41.2644H33.0036C34.3895 41.2644 35.4722 42.354 35.4722 43.7399V53.1866H43.7741V46.7602C43.7741 46.4777 44.0083 46.243 44.2913 46.243H50.7176V21.4609L48.8211 21.4614ZM33.324 31.8321H29.881C29.6917 31.8321 29.5367 31.6771 29.5367 31.4878V28.0447C29.5367 27.8554 29.6917 27.7004 29.881 27.7004H33.324C33.5134 27.7004 33.6684 27.8554 33.6684 28.0447V31.4878C33.6684 31.6771 33.5134 31.8321 33.324 31.8321ZM30.2251 31.1434H32.9797V28.3891H30.2251V31.1434ZM29.881 37.3429H33.324C33.5134 37.3429 33.6684 37.1879 33.6684 36.9983V33.5553C33.6684 33.366 33.5134 33.211 33.324 33.211H29.881C29.6917 33.211 29.5367 33.366 29.5367 33.5553V36.9985C29.5367 37.1879 29.6917 37.3429 29.881 37.3429ZM32.9797 36.6542H30.2251V33.8997H32.9797V36.6542ZM37.7995 29.0762H34.7006C34.5112 29.0762 34.3562 28.9212 34.3562 28.7319C34.3562 28.5425 34.5112 28.3875 34.7006 28.3875H37.7995C37.9888 28.3875 38.1438 28.5425 38.1438 28.7319C38.1438 28.9214 37.9888 29.0762 37.7995 29.0762ZM34.7006 30.1098H48.4731C48.6624 30.1098 48.8174 29.9548 48.8174 29.7655C48.8174 29.5761 48.6624 29.4211 48.4731 29.4211H34.7006C34.5112 29.4211 34.3562 29.5761 34.3562 29.7655C34.3562 29.9548 34.5112 30.1098 34.7006 30.1098ZM40.554 31.1434H34.7006C34.5112 31.1434 34.3562 30.9884 34.3562 30.7991C34.3562 30.6097 34.5112 30.4547 34.7006 30.4547H40.554C40.7434 30.4547 40.8984 30.6097 40.8984 30.7991C40.8986 30.9886 40.7436 31.1434 40.5542 31.1434H40.554ZM41.9338 31.1434H45.3771C45.5664 31.1434 45.7212 30.9886 45.7212 30.7991C45.7212 30.6097 45.5662 30.4547 45.3769 30.4547H41.9338C41.7445 30.4547 41.5895 30.6097 41.5895 30.7991C41.5895 30.9884 41.7445 31.1434 41.9338 31.1434ZM48.4689 31.1434H46.403C46.2137 31.1434 46.0587 30.9884 46.0587 30.7991C46.0587 30.6097 46.2137 30.4547 46.403 30.4547H48.4689C48.6583 30.4547 48.8132 30.6097 48.8132 30.7991C48.8132 30.9886 48.6583 31.1434 48.4689 31.1434ZM34.7006 34.5868H37.7995C37.9888 34.5868 38.1438 34.4318 38.1438 34.2424C38.1438 34.0531 37.9888 33.8981 37.7995 33.8981H34.7006C34.5112 33.8981 34.3562 34.0531 34.3562 34.2424C34.3562 34.4318 34.5112 34.5868 34.7006 34.5868ZM40.2096 35.6184H34.7006C34.5112 35.6184 34.3562 35.4634 34.3562 35.2741C34.3562 35.0847 34.5112 34.9297 34.7006 34.9297H40.2096C40.3989 34.9297 40.5539 35.0847 40.5539 35.2741C40.5541 35.4636 40.3991 35.6184 40.2098 35.6184H40.2096ZM34.7006 36.652H41.9313C42.1206 36.652 42.2756 36.497 42.2756 36.3077C42.2756 36.1183 42.1206 35.9633 41.9313 35.9633H34.7006C34.5112 35.9633 34.3562 36.1183 34.3562 36.3077C34.3562 36.497 34.5112 36.652 34.7006 36.652ZM46.7499 36.652H44.3397C44.1504 36.652 43.9954 36.497 43.9954 36.3077C43.9954 36.1183 44.1504 35.9633 44.3397 35.9633H46.7499C46.9393 35.9633 47.0943 36.1183 47.0943 36.3077C47.0943 36.497 46.9393 36.652 46.7499 36.652ZM47.7812 36.652H48.4698C48.6592 36.652 48.8142 36.497 48.8142 36.3077C48.8142 36.1183 48.6592 35.9633 48.4698 35.9633H47.7812C47.5918 35.9633 47.4368 36.1183 47.4368 36.3077C47.4368 36.497 47.5918 36.652 47.7812 36.652ZM45.0345 35.6184H41.5912C41.4019 35.6184 41.2469 35.4634 41.2469 35.2741C41.2469 35.0847 41.4019 34.9297 41.5912 34.9297H45.0343C45.2236 34.9297 45.3786 35.0847 45.3786 35.2741C45.3788 35.4636 45.2238 35.6184 45.0345 35.6184ZM46.7534 35.6184H47.4421C47.6314 35.6184 47.7862 35.4636 47.7864 35.2741C47.7864 35.0847 47.6314 34.9297 47.4421 34.9297H46.7534C46.5641 34.9297 46.4091 35.0847 46.4091 35.2741C46.4091 35.4634 46.5641 35.6184 46.7534 35.6184Z" fill="#9C171E"/>
</svg>
