<svg width="70" height="70" viewBox="0 0 70 70" fill="none" xmlns="http://www.w3.org/2000/svg">
<path fill-rule="evenodd" clip-rule="evenodd" d="M47.2585 22.5287H51.5619C52.7953 22.5287 53.3559 22.9825 53.3559 24.1869V43.3871C53.3559 44.5741 52.7953 45.0454 51.5619 45.0454H17.4194C16.186 45.0454 15.6441 44.5741 15.6441 43.3871V24.1869C15.6441 22.9825 16.186 22.5287 17.4194 22.5287H22.8391C23.7782 21.6462 25.2147 21.0058 26.8841 20.7801C26.9594 20.2096 27.0824 19.6562 27.2485 19.125H17.1765C13.7753 19.125 12 20.7308 12 23.96V43.5966C12 46.8432 13.7753 48.449 17.1765 48.449H28.5947L28.0901 51.6084H26.1092C25.1748 51.6084 24.4086 52.3415 24.4086 53.2142C24.4086 54.0695 25.1748 54.8026 26.1092 54.8026H43.0216C43.9747 54.8026 44.7409 54.0695 44.7409 53.2142C44.7409 52.3415 43.9747 51.6084 43.0216 51.6084H40.8912L40.4053 48.449H51.8048C55.206 48.449 57 46.8432 57 43.5966V23.96C57 20.7308 55.206 19.125 51.8048 19.125H42.8491C43.0151 19.6562 43.1381 20.2096 43.2135 20.7801C44.8828 21.0058 46.3193 21.6462 47.2585 22.5287Z" fill="#9C171E"/>
<path d="M47.8501 26.9732C47.8501 29.4089 45.7344 31.3901 43.1343 31.3901H26.3977C24.83 31.3753 23.3579 30.6068 22.4104 29.3089C21.6754 28.2787 21.4746 26.939 21.873 25.725C22.4226 24.1468 23.6465 22.9235 25.1857 22.415C26.0331 22.1004 26.9421 22.0089 27.8314 22.149C27.6253 20.8491 27.9149 19.517 28.6381 18.435C30.1846 16.3436 32.6324 14.8429 35.1648 15.0132C37.4264 15.1542 40.493 16.3974 41.8806 18.7919C42.4148 19.6879 42.6437 21.0926 42.5309 22.1402C43.5095 21.9771 44.5125 22.1541 45.3843 22.6436C46.1401 23.0577 46.7708 23.6819 47.2063 24.4462C47.6418 25.2105 47.8643 26.0853 47.8501 26.9732ZM27.0125 34.5981C27.0125 34.9229 26.8247 35.2151 26.5363 35.3396C26.2478 35.4636 25.9158 35.395 25.6949 35.1655C25.4745 34.936 25.4081 34.5909 25.5279 34.2911C25.6473 33.9917 25.9288 33.7961 26.2409 33.7961C26.4454 33.7961 26.6418 33.8808 26.7864 34.0311C26.9314 34.1814 27.0125 34.3855 27.0125 34.5981ZM43.9911 35.4001L28.5561 35.4005C28.13 35.4005 27.7841 35.0415 27.7841 34.5981C27.7841 34.1552 28.13 33.7961 28.5561 33.7961H43.9911C44.4172 33.7961 44.7631 34.1552 44.7631 34.5981C44.7631 35.0415 44.4172 35.4001 43.9911 35.4001ZM27.0125 37.8069C27.0125 38.1313 26.8247 38.4239 26.5363 38.548C26.2478 38.672 25.9158 38.6034 25.6949 38.3739C25.4745 38.1444 25.4081 37.7997 25.5279 37.4999C25.6473 37.2001 25.9288 37.0045 26.2409 37.0045C26.4454 37.0045 26.6418 37.0892 26.7864 37.2395C26.9314 37.3898 27.0125 37.5939 27.0125 37.8069ZM43.9911 38.6089H28.5561C28.13 38.6089 27.7841 38.2499 27.7841 37.8069C27.7841 37.3636 28.13 37.0045 28.5561 37.0045H43.9911C44.4172 37.0045 44.7631 37.3636 44.7631 37.8069C44.7631 38.2499 44.4172 38.6089 43.9911 38.6089ZM27.0125 41.0153C27.0125 41.3397 26.8247 41.6323 26.5363 41.7563C26.2478 41.8804 25.9158 41.8118 25.6949 41.5823C25.4745 41.3532 25.4081 41.0081 25.5279 40.7083C25.6473 40.4085 25.9288 40.2133 26.2409 40.2133C26.4454 40.2133 26.6418 40.2976 26.7864 40.4479C26.9314 40.5987 27.0125 40.8028 27.0125 41.0153ZM43.9911 41.8173H28.5561C28.13 41.8173 27.7841 41.4582 27.7841 41.0153C27.7841 40.5724 28.13 40.2133 28.5561 40.2133H43.9911C44.4172 40.2133 44.7631 40.5724 44.7631 41.0153C44.7631 41.4582 44.4172 41.8173 43.9911 41.8173Z" fill="#9C171E"/>
</svg>
