<svg width="70" height="70" viewBox="0 0 70 70" fill="none" xmlns="http://www.w3.org/2000/svg">
<path d="M28.2288 49.6866V51.9334L27.7349 52.2812C27.4636 52.469 27.2063 52.6499 27.1645 52.6777C27.1228 52.7055 27.241 52.8864 27.4706 53.1299C27.6793 53.3525 27.9506 53.735 28.0758 53.9715C28.2218 54.2498 28.3401 54.3889 28.3888 54.3541C28.4375 54.3333 28.834 54.055 29.2722 53.735C29.8565 53.3246 30.1069 53.0951 30.1974 52.9142C30.3017 52.6847 30.3156 52.3856 30.3156 50.0553V47.4468H29.2722H28.2288V49.6866Z" fill="#9C171E"/>
<path d="M34.4922 49.6736V51.8926L34.7217 51.8439C34.84 51.8161 35.2087 51.7952 35.5356 51.7952C35.8625 51.7952 36.2312 51.8161 36.3564 51.8439L36.579 51.8926V49.6736V47.4477H35.5356H34.4922V49.6736Z" fill="#9C171E"/>
<path d="M40.7578 50.0553C40.7578 52.3577 40.7717 52.6847 40.8761 52.9073C40.9595 53.0812 41.2239 53.3177 41.7943 53.7281C42.2395 54.0481 42.6359 54.3333 42.6846 54.3541C42.7333 54.3889 42.8516 54.2498 42.9977 53.9715C43.1229 53.735 43.3942 53.3594 43.6028 53.1368C44.0272 52.6708 44.0619 52.7681 43.2829 52.2325L42.8446 51.9334V49.6866V47.4468H41.8012H40.7578V50.0553Z" fill="#9C171E"/>
<path d="M23.727 53.9724C21.981 54.5985 21.835 56.9775 23.4835 57.7913C24.047 58.0696 24.7565 58.0696 25.3199 57.7913C26.0642 57.4226 26.4538 56.7896 26.4538 55.9341C26.4538 55.3428 26.3077 54.9463 25.939 54.522C25.4382 53.9585 24.4574 53.7081 23.727 53.9724Z" fill="#9C171E"/>
<path d="M34.8598 53.9724C33.1138 54.5985 32.9678 56.9775 34.6164 57.7913C35.1798 58.0696 35.8893 58.0696 36.4527 57.7913C37.197 57.4226 37.5866 56.7896 37.5866 55.9341C37.5866 55.3428 37.4405 54.9463 37.0718 54.522C36.571 53.9585 35.5902 53.7081 34.8598 53.9724Z" fill="#9C171E"/>
<path d="M45.9848 53.9724C44.2388 54.5985 44.0928 56.9775 45.7414 57.7913C46.3048 58.0696 47.0143 58.0696 47.5777 57.7913C48.322 57.4226 48.7116 56.7896 48.7116 55.9341C48.7116 55.3428 48.5655 54.9463 48.1968 54.522C47.696 53.9585 46.7152 53.7081 45.9848 53.9724Z" fill="#9C171E"/>
<path d="M15 35.6222C15 38.6234 16.5614 40.1079 19.5527 40.1079H29.595L29.1513 43.0284H27.4091C26.5873 43.0284 25.9134 43.7061 25.9134 44.5129C25.9134 45.3036 26.5873 45.9813 27.4091 45.9813H42.2835C43.1217 45.9813 43.7956 45.3036 43.7956 44.5129C43.7956 43.7061 43.1217 43.0284 42.2835 43.0284H40.4098L39.9825 40.1079H50.0084C52.9997 40.1079 54.5775 38.6234 54.5775 35.6222V17.4696C54.5775 14.4845 52.9997 13 50.0084 13H19.5527C16.5614 13 15 14.4845 15 17.4696V35.6222ZM18.205 35.4286V17.6793C18.205 16.566 18.6816 16.1465 19.7664 16.1465H49.7947C50.8795 16.1465 51.3725 16.566 51.3725 17.6793V35.4286C51.3725 36.5258 50.8795 36.9614 49.7947 36.9614H19.7664C18.6816 36.9614 18.205 36.5258 18.205 35.4286Z" fill="#9C171E"/>
<path d="M34.1593 19.6111C31.1139 19.7526 28.1579 20.9923 25.9315 23.0661C25.5406 23.4309 25.3656 23.658 25.3023 23.8851C25.1162 24.5664 25.6634 25.2812 26.3783 25.2812C26.7022 25.2812 26.9255 25.1658 27.3313 24.7935C28.2249 23.9708 29.0141 23.4235 30.0082 22.9358C31.449 22.2284 32.8488 21.8784 34.4572 21.83C35.8272 21.7891 37.0707 21.9752 38.3366 22.4108C39.755 22.9022 40.9389 23.6171 42.1489 24.7079C42.6962 25.2031 42.8749 25.2961 43.2546 25.2738C43.7237 25.2515 44.0812 24.9909 44.245 24.559C44.4125 24.1122 44.3083 23.7399 43.8987 23.3118C43.3812 22.7757 42.4654 22.0534 41.6277 21.5285C41.1065 21.1971 39.9374 20.6275 39.3269 20.4041C37.6739 19.801 35.9092 19.5292 34.1593 19.6111Z" fill="#9C171E"/>
<path d="M33.7115 23.3967C31.6974 23.6461 29.8694 24.4949 28.4397 25.8501C28.0488 26.2187 27.9297 26.4383 27.9297 26.8032C27.9297 27.4547 28.4584 27.9573 29.095 27.9127C29.4114 27.894 29.6274 27.7786 30.0146 27.4249C31.3586 26.2001 32.9669 25.5746 34.7726 25.5746C36.6341 25.5746 38.1791 26.1777 39.6125 27.4733C39.9997 27.8233 40.2156 27.9238 40.573 27.9238C41.2506 27.9238 41.7607 27.3058 41.6378 26.6319C41.5857 26.3378 41.4181 26.0958 41.0123 25.7347C40.3347 25.1241 39.672 24.6811 38.8381 24.2716C37.9893 23.8583 37.1143 23.5828 36.1687 23.4376C35.6475 23.3557 34.2402 23.3334 33.7115 23.3967Z" fill="#9C171E"/>
<path d="M34.4359 26.9081C33.7248 26.9491 32.9542 27.1538 32.284 27.474C31.6697 27.7681 30.8507 28.3899 30.6236 28.7324C30.147 29.4509 30.6831 30.4301 31.5543 30.4301C31.8671 30.4301 32.1202 30.3184 32.433 30.0354C32.8685 29.6445 33.3674 29.3727 33.9147 29.2201C34.3391 29.1047 35.2364 29.1047 35.6534 29.2201C36.2118 29.3727 36.6921 29.6371 37.1575 30.0503C37.5521 30.4003 37.8574 30.5045 38.2632 30.4189C38.844 30.2998 39.2386 29.7004 39.1083 29.1233C39.0487 28.859 38.937 28.6803 38.6653 28.4271C37.9058 27.7123 36.9676 27.2283 35.9251 27.0124C35.631 26.9528 34.8976 26.8783 34.7152 26.8895C34.663 26.8932 34.5402 26.9007 34.4359 26.9081Z" fill="#9C171E"/>
<path d="M34.5524 30.8293C33.7296 30.9596 33.1562 31.6223 33.1562 32.4488C33.1562 33.7221 34.504 34.489 35.6283 33.8599C35.8256 33.7519 36.1384 33.428 36.2389 33.2269C36.5814 32.5531 36.4548 31.7675 35.9187 31.2686C35.5427 30.9187 35.0364 30.7549 34.5524 30.8293Z" fill="#9C171E"/>
</svg>
