<svg width="70" height="70" viewBox="0 0 70 70" fill="none" xmlns="http://www.w3.org/2000/svg">
<path d="M22.5391 20.7846C22.5391 21.0502 22.7553 21.2665 23.021 21.2665H37.5519C37.8176 21.2665 38.0338 21.0502 38.0338 20.7846L38.0193 19.4194C38.0041 18.0211 37.1422 16.748 35.8234 16.2828C35.4663 16.1569 35.0823 16.0883 34.6828 16.0883H34.075C33.7135 14.3282 32.1523 13 30.287 13C28.4214 13 26.8601 14.3279 26.4991 16.0883H25.8912C25.4917 16.0883 25.1077 16.1569 24.7507 16.2828C23.4319 16.748 22.57 18.0211 22.5547 19.4194L22.5391 20.7846Z" fill="#9C171E"/>
<path fill-rule="evenodd" clip-rule="evenodd" d="M43.2693 18.668H40.6048V20.7862C40.6048 22.4734 39.2324 23.8463 37.5448 23.8463H23.0139C21.3268 23.8463 19.9538 22.4738 19.9538 20.7862V18.668H17.289C16.577 18.668 16 19.245 16 19.957V55.7097C16 56.4217 16.577 56.9987 17.289 56.9987H37.2923C37.2729 56.8768 37.2629 56.7498 37.2629 56.6175C37.2629 53.6325 40.7716 51.1069 44.0584 50.267C42.3854 49.3265 41.2551 47.5345 41.2551 45.4786C41.2551 43.2239 42.6144 41.2868 44.5583 40.4419V19.957C44.5583 19.245 43.9813 18.668 43.2693 18.668ZM31.1096 29.1623H38.1136C38.8256 29.1623 39.4027 29.7393 39.4027 30.4513C39.4027 31.1633 38.8256 31.7403 38.1136 31.7403H31.1096C30.3976 31.7403 29.8206 31.1633 29.8206 30.4513C29.8206 29.7393 30.3976 29.1623 31.1096 29.1623ZM31.1096 36.0229H38.1136C38.8256 36.0229 39.4027 36.5999 39.4027 37.312C39.4027 38.024 38.8256 38.601 38.1136 38.601H31.1096C30.3976 38.601 29.8206 38.024 29.8206 37.312C29.8206 36.5999 30.3976 36.0229 31.1096 36.0229ZM31.1096 42.8836H38.1136C38.8256 42.8836 39.4027 43.4606 39.4027 44.1726C39.4027 44.8847 38.8256 45.4617 38.1136 45.4617H31.1096C30.3976 45.4617 29.8206 44.8847 29.8206 44.1726C29.8206 43.4606 30.3976 42.8836 31.1096 42.8836ZM31.1096 49.7443H38.1136C38.8256 49.7443 39.4027 50.3213 39.4027 51.0333C39.4027 51.7453 38.8256 52.3223 38.1136 52.3223H31.1096C30.3976 52.3223 29.8206 51.7453 29.8206 51.0333C29.8206 50.3213 30.3976 49.7443 31.1096 49.7443ZM21.0845 29.1896C21.5878 28.6862 22.404 28.6862 22.9073 29.1896L23.1915 29.4737L24.5633 28.1019C25.0666 27.5986 25.8828 27.5986 26.3861 28.1019C26.8895 28.6053 26.8895 29.4214 26.3861 29.9248L24.1028 32.2081C23.8611 32.4498 23.5334 32.5855 23.1915 32.5855C22.8497 32.5855 22.5216 32.4498 22.2803 32.2081L21.0845 31.0124C20.5808 30.509 20.5808 29.6929 21.0845 29.1895L21.0845 29.1896ZM21.0845 36.064C21.5878 35.5607 22.404 35.5607 22.9073 36.064L23.1915 36.3482L24.5633 34.9764C25.0666 34.473 25.8828 34.473 26.3861 34.9764C26.8895 35.4797 26.8895 36.2958 26.3861 36.7992L24.1028 39.0826C23.8611 39.3243 23.5334 39.46 23.1915 39.46C22.8497 39.46 22.5216 39.3243 22.2803 39.0826L21.0845 37.8868C20.5808 37.3835 20.5808 36.5673 21.0845 36.064L21.0845 36.064ZM21.0845 42.9384C21.5878 42.4351 22.404 42.4351 22.9073 42.9384L23.1915 43.2226L24.5633 41.8508C25.0666 41.3474 25.8828 41.3474 26.3861 41.8508C26.8895 42.3541 26.8895 43.1703 26.3861 43.6736L24.1028 45.957C23.8611 46.1987 23.5334 46.3344 23.1915 46.3344C22.8497 46.3344 22.5216 46.1987 22.2803 45.957L21.0845 44.7612C20.5808 44.2579 20.5808 43.4417 21.0845 42.9384L21.0845 42.9384ZM21.0845 49.8129C21.5878 49.3095 22.404 49.3095 22.9073 49.8129L23.1915 50.097L24.5633 48.7252C25.0666 48.2219 25.8828 48.2219 26.3861 48.7252C26.8895 49.2286 26.8895 50.0447 26.3861 50.5481L24.1028 52.8314C23.8611 53.0731 23.5334 53.2088 23.1915 53.2088C22.8497 53.2088 22.5216 53.0731 22.2803 52.8314L21.0845 51.6357C20.5808 51.1323 20.5808 50.3162 21.0845 49.8128L21.0845 49.8129Z" fill="#9C171E"/>
<path d="M46.752 49.762C48.6831 49.762 50.3219 48.0435 50.3219 45.82C50.3219 43.6497 48.6742 41.9844 46.752 41.9844C44.8209 41.9844 43.1643 43.6763 43.1732 45.8378C43.1732 48.0435 44.812 49.762 46.752 49.762ZM41.2244 58.0003H52.2619C53.7235 58.0003 54.2284 57.5573 54.2284 56.7424C54.2284 54.4658 51.3406 51.3299 46.7431 51.3299C42.1545 51.3299 39.2578 54.4658 39.2578 56.7424C39.2578 57.5573 39.7627 58.0003 41.2244 58.0003Z" fill="#9C171E"/>
</svg>
