<svg width="70" height="70" viewBox="0 0 70 70" fill="none" xmlns="http://www.w3.org/2000/svg">
<path d="M30.6328 27.5666C30.6328 25.4858 32.3905 23.752 34.5 23.752C36.6094 23.752 38.3671 25.4858 38.3671 27.5666C38.3671 29.6474 36.6094 31.3813 34.5 31.3813C32.3909 31.3817 30.6328 29.6474 30.6328 27.5666V27.5666Z" fill="#9C171E"/>
<path d="M43.1478 38.663V41.1599C43.1478 41.5065 42.8665 41.8535 42.4447 41.8535H26.5547C26.1329 41.8535 25.8516 41.5069 25.8516 41.1599V38.663C25.8516 35.1258 28.8047 32.2129 32.3904 32.2129C32.6717 32.2129 32.9531 32.3515 33.0231 32.5595L34.4295 35.3339L35.8358 32.5595C35.9763 32.3515 36.1872 32.2129 36.4685 32.2129C40.1952 32.2129 43.1483 35.1259 43.1483 38.663H43.1478Z" fill="#9C171E"/>
<path d="M57 31.9347V35.2637C57 35.6798 56.6486 35.9573 56.2968 35.9573H48.1408C47.6486 35.9573 47.4376 35.4718 47.4376 35.1252C47.5077 28.0506 41.6719 22.2936 34.5001 22.2936C27.3282 22.2936 21.492 28.0502 21.492 35.1252C21.492 35.1946 21.5624 35.4718 21.2811 35.7493C21.1406 35.8879 20.9997 35.9573 20.7888 35.9573H12.7031C12.4922 35.9573 12.3518 35.8879 12.2109 35.7493C12.0704 35.6107 12 35.4027 12 35.2637V31.6572C12 31.3106 12.2813 31.033 12.5627 30.9636L16.5003 30.27C16.9221 28.7442 17.5548 27.2184 18.3988 25.8312L16.2186 22.5715C16.0077 22.294 16.0781 21.9474 16.289 21.6699L21.1406 16.9536C21.3516 16.7455 21.7029 16.7455 21.9843 16.9536L25.2187 19.2425C26.6954 18.4103 28.1718 17.8552 29.789 17.4392L30.4922 13.555C30.5626 13.2084 30.8436 13 31.1954 13H38.0156C38.367 13 38.6483 13.2775 38.7188 13.555L39.4219 17.4388C41.0391 17.8549 42.5154 18.4791 43.9218 19.3116L47.2267 17.0922C47.508 16.8841 47.8594 16.9536 48.1407 17.1617L52.9219 21.9475C53.1328 22.1555 53.2033 22.5716 52.9924 22.8491L50.672 26.0393C51.5156 27.4959 52.1487 28.9523 52.5001 30.5475L56.4377 31.3106C56.7891 31.3106 57 31.6572 57 31.9347L57 31.9347Z" fill="#9C171E"/>
<path d="M23.3906 41.9924V55.9336C23.3906 56.3497 23.1092 56.6272 22.6874 56.6272H15.6563C15.2345 56.6272 14.9531 56.3497 14.9531 55.9336V41.9924C14.9531 41.5763 15.2345 41.2988 15.6563 41.2988H22.6874C23.1092 41.2988 23.3906 41.6458 23.3906 41.9924V41.9924Z" fill="#9C171E"/>
<path d="M52.7809 48.5115L44.3435 53.9214L38.8591 57.32C37.7342 58.0136 35.7656 58.2216 34.4293 57.736L28.5936 55.6553C26.8358 55.0311 25.5 55.3087 24.7969 55.3087V42.9633C26.4141 42.6167 30.703 41.9231 32.8125 44.5586C32.953 44.6972 33.0939 44.6972 33.2343 44.6972H40.1954C41.4608 44.6972 42.5158 45.8068 42.5158 47.1941C42.5158 48.5813 41.4612 49.691 40.1954 49.691H33.5157C33.3048 49.691 33.2343 49.7604 33.1643 49.7604C33.1643 49.8299 33.0938 49.9685 33.1643 50.246H40.2659C40.5472 50.246 40.8285 50.1765 41.1095 49.9685L50.6014 43.9344C51.7968 43.2408 53.2732 43.7958 53.8359 45.0441C54.3982 46.4313 53.9764 47.8876 52.7809 48.5117L52.7809 48.5115Z" fill="#9C171E"/>
</svg>
