<svg width="70" height="70" viewBox="0 0 70 70" fill="none" xmlns="http://www.w3.org/2000/svg">
<path fill-rule="evenodd" clip-rule="evenodd" d="M29.1441 52.1184C29.3981 52.1184 29.6491 52.0617 29.8783 51.9523C32.2045 50.8412 34.471 49.732 36.7335 48.6247C38.2939 47.8611 39.8524 47.0984 41.4274 46.3365C40.4852 44.9766 39.9151 43.2028 39.9151 41.2626C39.9151 36.9847 42.6864 33.5159 46.1073 33.5084C46.1085 31.3021 46.1122 29.0959 46.1184 26.8896C46.1203 26.2259 45.8616 25.8332 45.2375 25.5384C40.0759 23.0955 34.9211 20.6438 29.7731 18.1832C29.2732 17.9449 28.8176 17.9352 28.3187 18.177C27.4136 18.6164 26.6904 18.9508 25.9436 19.2963C25.3613 19.5656 24.7645 19.8416 24.0559 20.1792C23.675 20.3618 23.6631 20.9503 24.0208 21.1751C24.2929 21.346 24.5349 21.4973 24.5801 21.5193C27.2925 22.8567 29.7083 23.9981 32.1433 25.1486C34.3018 26.1684 36.4755 27.1953 38.8842 28.3723C39.2754 28.5629 39.4264 28.7686 39.4264 29.2099C39.4015 31.7878 39.4089 34.3658 39.4199 36.9437C39.4199 37.3012 39.2984 37.513 38.9597 37.6745C38.3288 37.9757 37.705 38.2912 37.0812 38.6066C36.773 38.7625 36.4648 38.9183 36.1558 39.0725C35.6542 39.3231 35.4194 39.1845 35.4194 38.6391C35.4188 37.7508 35.4165 36.9111 35.4142 36.0862C35.4099 34.5473 35.4058 33.0595 35.413 31.4031C35.4139 31.133 35.413 30.5655 34.7141 30.2305C32.6748 29.2263 30.9513 28.3822 29.2983 27.5727C26.7032 26.3019 24.2819 25.1161 21.0856 23.5296C20.9994 23.4796 19.8128 23.027 19.1637 23.027C18.5146 23.027 17.5027 23.4796 17.4164 23.5296C16.3656 24.0352 15.7037 24.3095 15.0176 24.5937C14.4067 24.8468 13.7766 25.1079 12.8358 25.5472C12.2541 25.8191 12 26.2039 12 26.8296C12.0123 32.2968 12.0123 37.7642 12 43.232C12 43.8524 12.2504 44.2487 12.8285 44.5231C17.9784 46.9837 23.1273 49.4443 28.2754 51.9049C28.3299 51.931 28.3854 51.9556 28.4412 51.9793C28.6631 52.0736 28.9031 52.1184 29.1441 52.1184Z" fill="#9C171E"/>
<path d="M47.6688 35.0586C46.6984 35.0591 45.7417 35.2873 44.8755 35.7247C44.0093 36.1622 43.2578 36.7968 42.6815 37.5775C42.1051 38.3581 41.72 39.2632 41.5569 40.2197C41.3939 41.1763 41.4576 42.1578 41.7428 43.0854C42.028 44.0129 42.5269 44.8605 43.1992 45.5602C43.8716 46.2599 44.6988 46.7921 45.6142 47.114C46.5296 47.4359 47.5078 47.5386 48.4701 47.4138C49.4325 47.2889 50.3521 46.9401 51.1551 46.3952L54.9887 50.2258C55.0952 50.3401 55.2236 50.4317 55.3663 50.4953C55.509 50.5589 55.663 50.5931 55.8192 50.5958C55.9754 50.5986 56.1305 50.5698 56.2753 50.5113C56.4201 50.4528 56.5517 50.3658 56.6622 50.2553C56.7726 50.1449 56.8597 50.0133 56.9182 49.8685C56.9767 49.7236 57.0054 49.5685 57.0026 49.4123C56.9999 49.2562 56.9657 49.1021 56.9021 48.9595C56.8386 48.8168 56.7469 48.6884 56.6326 48.5819L52.8021 44.7482C53.4358 43.8155 53.8033 42.7277 53.8651 41.6018C53.9268 40.4759 53.6806 39.3544 53.1527 38.3579C52.6248 37.3615 51.8353 36.5278 50.8691 35.9465C49.9028 35.3651 48.7964 35.0582 47.6688 35.0586V35.0586ZM43.7917 41.2619C43.7917 40.2337 44.2002 39.2475 44.9273 38.5204C45.6544 37.7933 46.6405 37.3849 47.6688 37.3849C48.6971 37.3849 49.6832 37.7933 50.4103 38.5204C51.1374 39.2475 51.5459 40.2337 51.5459 41.2619C51.5459 42.2902 51.1374 43.2764 50.4103 44.0035C49.6832 44.7306 48.6971 45.139 47.6688 45.139C46.6405 45.139 45.6544 44.7306 44.9273 44.0035C44.2002 43.2764 43.7917 42.2902 43.7917 41.2619Z" fill="#9C171E"/>
</svg>
