<svg width="70" height="70" viewBox="0 0 70 70" fill="none" xmlns="http://www.w3.org/2000/svg">
<path d="M28.0667 30.172C27.5424 32.1249 25.749 33.5686 23.6366 33.5686C21.1062 33.561 19.0469 31.5094 19.0469 28.9789C19.0469 26.8589 20.4907 25.0731 22.4436 24.5488C22.3904 24.754 22.4208 24.6172 22.4132 28.9789C22.4132 29.6476 22.9603 30.1948 23.629 30.1948C27.9679 30.1872 27.8539 30.21 28.0667 30.172Z" fill="#9C171E"/>
<path d="M28.2187 28.9786C28.2187 29.1989 28.0363 29.3813 27.8159 29.3813H23.6366C23.4162 29.3813 23.2338 29.1989 23.2338 28.9786V24.7992C23.2338 24.5713 23.4162 24.3965 23.6366 24.3965C26.167 24.3965 28.2187 26.4482 28.2187 28.9786ZM27.8159 36.0227H19.4496C19.2292 36.0227 19.0469 35.8403 19.0469 35.62C19.0469 35.3996 19.2292 35.2172 19.4496 35.2172H27.8159C28.0363 35.2172 28.2187 35.3996 28.2187 35.62C28.2187 35.8403 28.0363 36.0227 27.8159 36.0227ZM35.6427 34.0546V39.9893C35.6427 40.4376 35.278 40.8024 34.8296 40.8024H33.1427C32.6944 40.8024 32.3296 40.4376 32.3296 39.9893V34.0546C32.3296 33.6063 32.6868 33.2415 33.1427 33.2415H34.8296C35.278 33.2415 35.6427 33.6063 35.6427 34.0546ZM40.6503 29.8752V39.9893C40.6503 40.4376 40.2856 40.8024 39.8373 40.8024H38.1503C37.702 40.8024 37.3373 40.4376 37.3373 39.9893V29.8752C37.3373 29.4269 37.6944 29.0622 38.1503 29.0622H39.8373C40.2856 29.0622 40.6503 29.4269 40.6503 29.8752ZM45.6504 34.0546V39.9893C45.6504 40.4376 45.2856 40.8024 44.8373 40.8024H43.1428C42.6944 40.8024 42.3297 40.4376 42.3297 39.9893V34.0546C42.3297 33.6063 42.6944 33.2415 43.1428 33.2415H44.8373C45.2856 33.2415 45.6504 33.6063 45.6504 34.0546Z" fill="#9C171E"/>
<path d="M42.8495 29.5243C42.7476 29.5389 42.6381 29.5007 42.5505 29.4211L37.5287 24.4546L33.9793 29.5407C33.8582 29.7117 33.6273 29.7447 33.4688 29.6061C33.3103 29.4674 33.2737 29.2115 33.3948 29.0405L37.1864 23.6124C37.2504 23.5264 37.339 23.4676 37.442 23.4606C37.545 23.4536 37.6476 23.4927 37.7206 23.5667L42.7828 28.5736L46.517 24.6824C46.6617 24.5311 46.8923 24.5442 47.0336 24.7084C47.1749 24.8725 47.1697 25.1268 47.025 25.2781L43.0503 29.4264C42.9957 29.4803 42.9242 29.5136 42.8495 29.5243Z" fill="#9C171E"/>
<path fill-rule="evenodd" clip-rule="evenodd" d="M17.5967 45.8787C14.5765 45.8787 13 44.352 13 41.2655V22.5967C13 19.5267 14.5765 18 17.5967 18H48.3462C51.3664 18 52.9595 19.5267 52.9595 22.5967V38.3961C52.5057 38.3135 52.038 38.2703 51.5603 38.2703C50.9275 38.2703 50.3124 38.3461 49.7236 38.489V22.8124C49.7236 21.6674 49.2258 21.2359 48.1305 21.2359H17.8124C16.7172 21.2359 16.2359 21.6674 16.2359 22.8124V41.0663C16.2359 42.1948 16.7172 42.6428 17.8124 42.6428H44.5772C44.1006 43.6237 43.8246 44.7202 43.8025 45.8787H38.2236L38.6551 48.8823H40.5468C41.3932 48.8823 42.0735 49.5793 42.0735 50.409C42.0735 51.2222 41.3932 51.9191 40.5468 51.9191H25.5288C24.6991 51.9191 24.0187 51.2222 24.0187 50.409C24.0187 49.5793 24.6991 48.8823 25.5288 48.8823H27.2878L27.7359 45.8787H17.5967Z" fill="#9C171E"/>
<path d="M57.5123 43.4092C57.8364 44.1715 58.0005 44.9923 57.9946 45.8206C57.9994 46.6459 57.8325 47.4631 57.5046 48.2204C57.1845 48.9621 56.7251 49.6354 56.1513 50.204C55.5785 50.775 54.9033 51.233 54.161 51.5539C53.4076 51.881 52.5945 52.0479 51.7732 52.0439C50.9487 52.0494 50.1318 51.8852 49.3734 51.5617C48.633 51.2454 47.9601 50.7901 47.3912 50.2204C46.8209 49.6502 46.364 48.9769 46.0447 48.2363C45.7213 47.4743 45.5547 46.6549 45.5547 45.8271C45.5547 44.9993 45.7213 44.1799 46.0447 43.4179C46.366 42.6786 46.8227 42.0058 47.3912 41.4343C47.9593 40.8613 48.6331 40.4039 49.3753 40.0873C50.1373 39.768 50.9552 39.6035 51.7814 39.6035C52.6076 39.6035 53.4255 39.768 54.1875 40.0873C55.6832 40.7251 56.8745 41.9164 57.5123 43.4121V43.4092ZM55.3999 43.4825C55.4028 43.3803 55.3835 43.2787 55.3433 43.1846C55.3032 43.0905 55.2432 43.0062 55.1675 42.9375C55.0225 42.7987 54.829 42.7219 54.6283 42.7234C54.5 42.7212 54.3733 42.7514 54.2598 42.8114C54.1464 42.8713 54.05 42.959 53.9796 43.0663L50.9895 47.2052L49.4833 45.5766C49.4145 45.4999 49.3312 45.4375 49.2383 45.3928C49.1315 45.3418 49.0142 45.3167 48.8959 45.3195C48.7959 45.318 48.6966 45.337 48.6042 45.3753C48.5118 45.4136 48.4283 45.4705 48.3587 45.5423C48.2863 45.6142 48.2294 45.7002 48.1915 45.7949C48.1536 45.8896 48.1355 45.9911 48.1383 46.0931C48.14 46.1868 48.1563 46.2797 48.1865 46.3685C48.2178 46.4688 48.2677 46.5624 48.3336 46.6443L50.4151 48.911C50.4898 49.0018 50.5869 49.0714 50.6968 49.1131C50.8017 49.1562 50.9137 49.1791 51.0271 49.1806C51.3133 49.1806 51.5256 49.0826 51.6642 48.8864L55.2283 43.9508C55.2823 43.8755 55.3257 43.793 55.357 43.7058C55.3836 43.6349 55.3981 43.5601 55.3999 43.4844V43.4825Z" fill="#9C171E"/>
</svg>
