<svg width="70" height="70" viewBox="0 0 70 70" fill="none" xmlns="http://www.w3.org/2000/svg">
<path d="M22.5642 44.0595C21.9318 43.3833 21.5284 42.462 21.3541 41.2955L18.7376 23.3422H13.2102C13.0507 23.3431 12.8927 23.3109 12.7463 23.2475C12.6 23.184 12.4684 23.0908 12.3601 22.9738C12.2442 22.8598 12.1526 22.7236 12.0908 22.5733C12.0289 22.423 11.9981 22.2618 12.0001 22.0992C11.9992 21.9393 12.0307 21.7808 12.0925 21.6333C12.1544 21.4858 12.2454 21.3523 12.3601 21.2408C12.4685 21.1238 12.6 21.0307 12.7464 20.9674C12.8928 20.9041 13.0507 20.872 13.2102 20.8731H18.9495C19.7892 20.8731 20.359 21.0311 20.6586 21.3471C20.9583 21.663 21.1515 22.1372 21.2382 22.7696L21.5654 24.8465H37.2641C37.2314 25.0973 37.2068 25.3424 37.19 25.582C37.1733 25.8215 37.1655 26.0669 37.1668 26.3181C37.1572 27.7071 37.4274 29.0839 37.9613 30.3664C38.4951 31.6488 39.2817 32.8106 40.2741 33.7826C41.2598 34.7506 42.4228 35.5193 43.6995 36.0469C45.0025 36.5926 46.4114 36.8652 47.9261 36.8648L47.7973 37.208C47.5394 37.8307 47.0957 38.3585 46.5267 38.7195C45.9655 39.0737 45.2597 39.2508 44.4092 39.2508H23.6596L23.9211 40.9677C23.9971 41.4696 24.177 41.8701 24.4608 42.1694C24.7446 42.4686 25.1151 42.6189 25.5723 42.6202H44.3796C44.5345 42.62 44.6879 42.6508 44.8307 42.7109C44.9735 42.7709 45.1028 42.859 45.211 42.9699C45.4412 43.2029 45.5703 43.5172 45.5703 43.8447C45.5703 44.1723 45.4412 44.4866 45.211 44.7196C45.1031 44.8312 44.974 44.92 44.8311 44.9807C44.6883 45.0414 44.5348 45.0729 44.3796 45.0732H25.2948C24.1077 45.0732 23.1975 44.7353 22.5642 44.0595ZM24.2811 49.0299C24.5128 48.6346 24.8421 48.3053 25.2374 48.0735C25.6469 47.836 26.1133 47.7145 26.5866 47.7219C26.938 47.7164 27.2869 47.7809 27.6131 47.9116C27.9393 48.0423 28.2363 48.2365 28.4867 48.483C28.7371 48.7296 28.9359 49.0235 29.0717 49.3476C29.2074 49.6717 29.2773 50.0196 29.2773 50.371C29.2773 50.7224 29.2074 51.0703 29.0717 51.3944C28.9359 51.7185 28.7371 52.0124 28.4867 52.259C28.2363 52.5055 27.9393 52.6997 27.6131 52.8304C27.2869 52.9611 26.938 53.0256 26.5866 53.0201C26.1133 53.0275 25.6469 52.9059 25.2374 52.6685C24.8419 52.4366 24.5126 52.1071 24.2811 51.7115C24.0453 51.304 23.9211 50.8415 23.9211 50.3707C23.9211 49.8999 24.0453 49.4374 24.2811 49.0299ZM39.5696 49.0299C39.8032 48.6327 40.1361 48.3031 40.5356 48.0735C40.9428 47.838 41.406 47.7166 41.8764 47.7219C42.2268 47.7153 42.5749 47.78 42.8995 47.9122C43.2242 48.0444 43.5185 48.2413 43.7646 48.4908C44.2624 48.9899 44.542 49.6661 44.542 50.371C44.542 51.0759 44.2624 51.7521 43.7646 52.2511C43.2612 52.7441 42.5847 53.0201 41.8802 53.0201C41.1757 53.0201 40.4993 52.7441 39.9959 52.2511C39.7418 52.0093 39.5408 51.7172 39.4056 51.3935C39.2705 51.0697 39.2041 50.7214 39.2109 50.3707C39.2053 49.8993 39.3294 49.4355 39.5696 49.0299Z" fill="#9C171E"/>
<path fill-rule="evenodd" clip-rule="evenodd" d="M47.7075 35.587C52.8402 35.587 57.001 31.4261 57.001 26.2935C57.001 21.1608 52.8402 17 47.7075 17C42.5749 17 38.4141 21.1608 38.4141 26.2935C38.4141 31.4261 42.5749 35.587 47.7075 35.587ZM47.7665 31.4561C47.6998 31.4561 47.634 31.4403 47.5743 31.4099C46.9627 31.0983 46.3668 30.7872 45.7719 30.4767C45.038 30.0936 44.3057 29.7113 43.5473 29.3298C43.3806 29.2454 43.3054 29.1306 43.3054 28.9359C43.3094 27.4184 43.3094 25.9009 43.3054 24.3834C43.3049 24.1974 43.3729 24.0873 43.5369 24.0046C44.8935 23.3198 46.2482 22.6325 47.6013 21.9427C47.7326 21.8759 47.8524 21.8731 47.9835 21.9409C48.2214 22.0641 48.4114 22.1579 48.6077 22.2547C48.7608 22.3302 48.9176 22.4076 49.1038 22.5022C49.2062 22.5545 49.2093 22.7169 49.1136 22.781C49.0419 22.8291 48.978 22.8717 48.9661 22.8779C48.2532 23.2528 47.6183 23.5728 46.9783 23.8953C46.411 24.1812 45.8397 24.4691 45.2067 24.7991C45.1038 24.8525 45.0642 24.9102 45.0642 25.0339C45.0707 25.7566 45.0688 26.4793 45.0659 27.202C45.0659 27.3022 45.0978 27.3616 45.1868 27.4069C45.3526 27.4913 45.5166 27.5798 45.6805 27.6682C45.7615 27.7119 45.8425 27.7556 45.9237 27.7988C46.0556 27.869 46.1173 27.8302 46.1173 27.6773C46.1174 27.4283 46.1181 27.1929 46.1187 26.9616C46.1198 26.5302 46.1209 26.1131 46.119 25.6487C46.1187 25.573 46.119 25.4139 46.3026 25.32C46.8386 25.0385 47.2915 24.8019 47.726 24.575C48.408 24.2187 49.0444 23.8863 49.8845 23.4415C49.9071 23.4275 50.219 23.3006 50.3896 23.3006C50.5602 23.3006 50.8262 23.4275 50.8488 23.4415C51.125 23.5832 51.299 23.6601 51.4793 23.7398C51.6398 23.8107 51.8054 23.8839 52.0527 24.0071C52.2056 24.0833 52.2724 24.1912 52.2724 24.3666C52.2691 25.8993 52.2691 27.432 52.2724 28.9649C52.2724 29.1388 52.2066 29.2499 52.0546 29.3268C50.7011 30.0166 49.3479 30.7064 47.9949 31.3962C47.9804 31.4036 47.9656 31.4106 47.9508 31.4173C47.8929 31.4436 47.8298 31.4561 47.7665 31.4561Z" fill="#9C171E"/>
</svg>
