<svg width="70" height="70" viewBox="0 0 70 70" fill="none" xmlns="http://www.w3.org/2000/svg">
<path d="M36.4349 31.546V21.138C36.7949 21.2042 37.1363 21.3478 37.4354 21.5589C37.8201 21.826 38.1763 22.1319 38.4985 22.4718L47.2474 31.379C47.5798 31.712 47.8827 32.0731 48.1529 32.4583C48.3608 32.7525 48.5017 33.0887 48.5656 33.4432H38.7036C37.451 33.4432 36.4349 32.5934 36.4349 31.546ZM29.5044 46.804C29.9246 47.7924 30.1374 48.8566 30.1297 49.9306C30.1359 51.0006 29.9195 52.0603 29.4944 53.0422C29.0793 54.0038 28.4836 54.8769 27.7397 55.6142C26.997 56.3545 26.1215 56.9483 25.159 57.3645C24.1822 57.7886 23.1279 58.005 22.063 57.9998C20.9939 58.0069 19.9347 57.794 18.9513 57.3745C17.9914 56.9644 17.1189 56.3741 16.3812 55.6355C15.6418 54.8961 15.0493 54.0231 14.6353 53.0629C14.2161 52.0748 14 51.0124 14 49.939C14 48.8657 14.2161 47.8033 14.6353 46.8152C15.052 45.8566 15.6441 44.9843 16.3812 44.2432C17.1179 43.5003 17.9915 42.9072 18.9538 42.4967C19.9418 42.0827 21.0024 41.8695 22.0736 41.8695C23.1448 41.8695 24.2054 42.0827 25.1934 42.4967C27.1327 43.3238 28.6773 44.8684 29.5044 46.8077V46.804ZM26.7654 46.899C26.7691 46.7665 26.7441 46.6347 26.692 46.5127C26.64 46.3908 26.5622 46.2815 26.464 46.1924C26.276 46.0124 26.0252 45.9128 25.7649 45.9147C25.5986 45.9118 25.4342 45.9511 25.2872 46.0288C25.1401 46.1066 25.0151 46.2203 24.9238 46.3594L21.0468 51.7259L19.0939 49.6142C19.0046 49.5148 18.8967 49.4338 18.7763 49.3759C18.6378 49.3098 18.4857 49.2773 18.3323 49.2809C18.2026 49.2789 18.0739 49.3036 17.9541 49.3532C17.8343 49.4029 17.7259 49.4766 17.6357 49.5698C17.5418 49.663 17.4681 49.7745 17.4189 49.8973C17.3698 50.0201 17.3463 50.1517 17.3499 50.2839C17.3521 50.4055 17.3732 50.5259 17.4124 50.641C17.453 50.7711 17.5177 50.8924 17.6031 50.9987L20.3021 53.9377C20.3989 54.0553 20.5248 54.1456 20.6672 54.1997C20.8033 54.2555 20.9486 54.2852 21.0956 54.2873C21.4666 54.2873 21.742 54.1601 21.9217 53.9058L26.5428 47.5062C26.6129 47.4086 26.6691 47.3017 26.7098 47.1885C26.7443 47.0967 26.7631 46.9996 26.7654 46.9015V46.899ZM48.7557 35.6181V50.035V52.7358C48.7557 53.3375 48.5167 53.9146 48.0912 54.34C47.6658 54.7655 47.0887 55.0045 46.487 55.0045H30.9551C31.1588 54.6533 31.3419 54.2907 31.5035 53.9183C32.0475 52.6608 32.3256 51.3044 32.3202 49.9344C32.3203 49.4688 32.2896 49.0038 32.2283 48.5424H41.6745C41.814 48.5452 41.9526 48.52 42.0822 48.4682C42.2117 48.4165 42.3295 48.3392 42.4286 48.241C42.5287 48.1477 42.6083 48.0346 42.6621 47.9088C42.716 47.783 42.7429 47.6474 42.7413 47.5106C42.7441 47.3712 42.7177 47.2328 42.6639 47.1042C42.61 46.9757 42.5299 46.8597 42.4286 46.7639C42.3295 46.6657 42.2117 46.5885 42.0822 46.5367C41.9526 46.4849 41.814 46.4597 41.6745 46.4625H31.7205C31.658 46.2874 31.5886 46.1136 31.5154 45.9423C30.9952 44.7266 30.2477 43.6215 29.313 42.6862C29.258 42.6312 29.2023 42.5774 29.1467 42.5236H29.1792H41.6745C41.8134 42.5268 41.9515 42.5024 42.0809 42.452C42.2104 42.4015 42.3285 42.326 42.4286 42.2297C42.5301 42.1359 42.6105 42.0216 42.6644 41.8944C42.7183 41.7672 42.7445 41.6299 42.7413 41.4918C42.7441 41.3524 42.7177 41.214 42.6639 41.0855C42.61 40.9569 42.5299 40.841 42.4286 40.7452C42.3295 40.647 42.2117 40.5697 42.0822 40.5179C41.9526 40.4661 41.814 40.4409 41.6745 40.4438H29.1792C29.0374 40.4404 28.8963 40.4654 28.7643 40.5174C28.6324 40.5694 28.5121 40.6472 28.4107 40.7464C28.3094 40.8422 28.2293 40.9581 28.1755 41.0867C28.1216 41.2153 28.0952 41.3537 28.098 41.4931C28.0983 41.5479 28.1025 41.6026 28.1105 41.6569C27.4722 41.1894 26.7829 40.7961 26.0557 40.4844C24.794 39.9468 23.4357 39.673 22.0642 39.6796H22.0486L22.0592 23.2335C22.0592 22.6318 22.2982 22.0547 22.7237 21.6293C23.1492 21.2038 23.7262 20.9648 24.3279 20.9648H34.26V33.3494C34.26 33.9511 34.499 34.5282 34.9245 34.9536C35.3499 35.3791 35.927 35.6181 36.5287 35.6181H48.7557ZM30.7582 30.3972C30.7582 29.844 30.5789 29.3986 30.2204 29.0609C29.8619 28.7232 29.3293 28.4912 28.6227 28.3649L28.512 28.3412V26.0712C28.781 26.115 29.0335 26.2296 29.2436 26.4033C29.4458 26.5793 29.5927 26.8102 29.6663 27.068C29.7564 27.3369 29.9231 27.4713 30.1666 27.4713C30.2308 27.4745 30.295 27.4641 30.355 27.441C30.415 27.4178 30.4694 27.3824 30.5149 27.3369C30.5604 27.2914 30.5958 27.2369 30.619 27.177C30.6421 27.117 30.6525 27.0528 30.6493 26.9886C30.649 26.9466 30.645 26.9048 30.6375 26.8635C30.6293 26.8216 30.62 26.7791 30.6093 26.7385C30.4985 26.3003 30.2368 25.9153 29.8702 25.651C29.4737 25.358 29.0047 25.1787 28.5139 25.1326V24.5698C28.5159 24.5179 28.507 24.4661 28.488 24.4178C28.4689 24.3695 28.4401 24.3256 28.4032 24.289C28.3271 24.2206 28.2285 24.1827 28.1262 24.1827C28.0238 24.1827 27.9252 24.2206 27.8491 24.289C27.8123 24.3256 27.7834 24.3695 27.7643 24.4178C27.7453 24.4661 27.7365 24.5179 27.7385 24.5698V25.1326C27.1219 25.2014 26.6145 25.4163 26.2164 25.7773C25.8183 26.1383 25.6192 26.5984 25.6192 27.1574C25.6192 27.6739 25.7933 28.0908 26.1414 28.4081C26.4895 28.7253 27.0035 28.9667 27.6834 29.1322L27.7385 29.1478V31.5522C27.3749 31.4989 27.0864 31.3775 26.873 31.1883C26.6648 31.0078 26.517 30.7676 26.4497 30.5004C26.4159 30.3791 26.3472 30.2703 26.252 30.1878C26.1635 30.1207 26.0548 30.0858 25.9438 30.089C25.8809 30.087 25.8183 30.0979 25.7598 30.121C25.7013 30.1441 25.6481 30.179 25.6036 30.2234C25.5586 30.2691 25.5235 30.3235 25.5003 30.3833C25.4772 30.4431 25.4666 30.507 25.4691 30.5711C25.4692 30.613 25.4732 30.6549 25.481 30.6961C25.4885 30.738 25.4979 30.7806 25.5085 30.8212C25.6184 31.2873 25.9011 31.6943 26.2996 31.9599C26.7268 32.2509 27.2225 32.4255 27.7378 32.4664V33.0518C27.7358 33.1037 27.7446 33.1554 27.7637 33.2038C27.7827 33.2521 27.8116 33.2959 27.8485 33.3325C27.9245 33.401 28.0232 33.4389 28.1255 33.4389C28.2278 33.4389 28.3265 33.401 28.4025 33.3325C28.4394 33.2959 28.4683 33.2521 28.4874 33.2038C28.5064 33.1554 28.5152 33.1037 28.5132 33.0518V32.4821C29.1461 32.4187 29.6786 32.2092 30.1109 31.8536C30.5433 31.498 30.759 31.0126 30.7582 30.3972ZM28.6858 29.3848L28.512 29.3373V31.5522C28.9289 31.5047 29.2386 31.3807 29.4412 31.1802C29.5393 31.0864 29.617 30.9734 29.6694 30.8483C29.7218 30.7232 29.7478 30.5886 29.7458 30.4529C29.7531 30.215 29.6697 29.9832 29.5125 29.8044C29.357 29.6302 29.0814 29.4903 28.6858 29.3848ZM26.6297 27.0993C26.6271 27.2128 26.6482 27.3257 26.6918 27.4306C26.7354 27.5355 26.8006 27.6301 26.883 27.7083C27.0498 27.8722 27.3159 28.0093 27.6815 28.1198L27.7366 28.1354V26.0718C27.3939 26.1298 27.1229 26.2538 26.9236 26.4439C26.8315 26.5265 26.7578 26.6275 26.7072 26.7404C26.6565 26.8533 26.6302 26.9755 26.6297 27.0993ZM56.3284 18.1902V15.2687C56.3284 14.667 56.0894 14.0899 55.6639 13.6645C55.2385 13.239 54.6614 13 54.0597 13H31.8819C31.2802 13 30.7031 13.239 30.2777 13.6645C29.8522 14.0899 29.6132 14.667 29.6132 15.2687V17.9851V18.294H34.3513L36.5531 18.4422L36.8895 18.4966C37.5609 18.613 38.199 18.8737 38.7598 19.2608C39.0697 19.4709 39.3645 19.7025 39.6422 19.9536H49.1903C49.3227 19.9502 49.4545 19.9741 49.5773 20.0237C49.7001 20.0732 49.8115 20.1475 49.9044 20.2419C49.9973 20.3326 50.0705 20.4414 50.1197 20.5616C50.1688 20.6817 50.1928 20.8106 50.1902 20.9404C50.193 21.075 50.1692 21.2088 50.1202 21.3341C50.0712 21.4595 49.9978 21.5739 49.9044 21.6708C49.8137 21.7689 49.703 21.8466 49.5799 21.8987C49.4568 21.9508 49.324 21.9761 49.1903 21.9728H41.6532L45.287 25.6723H49.1903C49.3226 25.6685 49.4542 25.692 49.577 25.7411C49.6998 25.7903 49.8113 25.8641 49.9044 25.958C49.9973 26.0487 50.0706 26.1575 50.1198 26.2776C50.1689 26.3978 50.1929 26.5267 50.1902 26.6565C50.193 26.7911 50.1692 26.9249 50.1202 27.0502C50.0712 27.1756 49.9978 27.29 49.9044 27.3869C49.8138 27.4851 49.7031 27.5629 49.58 27.6148C49.4568 27.6668 49.324 27.6919 49.1903 27.6883H47.2674L48.9214 29.3717C49.3439 29.7956 49.7281 30.256 50.0695 30.7474C50.4568 31.3051 50.7168 31.941 50.8312 32.6103L50.8856 32.9461L51.05 35.1485V40.2524L51.0738 47.0503H54.0579C54.6596 47.0503 55.2366 46.8113 55.6621 46.3859C56.0875 45.9604 56.3266 45.3833 56.3266 44.7817V39.1062H56.3172V18.1902H56.3284Z" fill="#9C171E"/>
</svg>
