<svg width="70" height="70" viewBox="0 0 70 70" fill="none" xmlns="http://www.w3.org/2000/svg">
<path d="M37.425 30.7834C35.3259 29.8769 33.6522 28.2032 32.7457 26.1041C32.2935 25.0382 32.0605 23.8922 32.0605 22.7343C32.0605 21.5764 32.2935 20.4304 32.7457 19.3645C33.1938 18.3245 33.8351 17.3788 34.6354 16.5776C35.4339 15.7749 36.3788 15.1326 37.4189 14.6852C38.4854 14.233 39.632 14 40.7904 14C41.9488 14 43.0954 14.233 44.1619 14.6852C46.2635 15.5895 47.9395 17.2638 48.8459 19.3645C49.2981 20.4304 49.5312 21.5764 49.5312 22.7343C49.5312 23.8922 49.2981 25.0382 48.8459 26.1041C47.9394 28.2032 46.2657 29.8769 44.1667 30.7834C43.1007 31.2356 41.9547 31.4686 40.7968 31.4686C39.639 31.4686 38.4909 31.2356 37.425 30.7834ZM41.0947 27.6621C41.1347 27.6225 41.166 27.575 41.1866 27.5227C41.2072 27.4703 41.2167 27.4143 41.2146 27.3581V26.7419C41.8993 26.6738 42.4758 26.4467 42.9438 26.0608C43.4119 25.6749 43.646 25.1483 43.646 24.4812C43.646 23.8817 43.4519 23.3994 43.0637 23.0342C42.6755 22.6691 42.0991 22.4179 41.3344 22.2807L41.2146 22.2549V19.7971C41.5061 19.8439 41.7796 19.9681 42.0068 20.1567C42.2256 20.3471 42.3845 20.5969 42.4645 20.8757C42.5611 21.1669 42.7416 21.3124 43.0061 21.3124C43.0756 21.3157 43.1449 21.3045 43.2097 21.2794C43.2746 21.2543 43.3334 21.216 43.3826 21.1668C43.4317 21.1177 43.4701 21.0588 43.4951 20.994C43.5202 20.9292 43.5315 20.8598 43.5282 20.7904C43.5282 20.745 43.5239 20.6996 43.5153 20.655C43.5072 20.6089 43.497 20.5636 43.4855 20.5196C43.3652 20.0453 43.0819 19.6285 42.6852 19.3421C42.2556 19.0255 41.748 18.8317 41.2166 18.7815V18.1721C41.2191 18.1151 41.2095 18.0582 41.1885 18.0051C41.1675 17.952 41.1356 17.904 41.0947 17.8641C41.0126 17.7895 40.9057 17.7482 40.7948 17.7482C40.6839 17.7482 40.577 17.7895 40.4949 17.8641C40.4549 17.9037 40.4236 17.9512 40.403 18.0035C40.3824 18.0558 40.3729 18.1119 40.375 18.1681V18.7775C39.7074 18.8519 39.1581 19.0846 38.727 19.4755C38.2959 19.8664 38.0804 20.3645 38.0804 20.9698C38.0804 21.5291 38.2688 21.9805 38.6458 22.324C39.0227 22.6675 39.5792 22.9286 40.3154 23.1074L40.375 23.125V25.7277C39.9819 25.6708 39.6693 25.5397 39.4373 25.3343C39.2123 25.1385 39.0526 24.8786 38.9796 24.5895C38.9428 24.4582 38.8684 24.3405 38.7656 24.251C38.6697 24.1779 38.5516 24.1402 38.4311 24.144C38.3631 24.1417 38.2954 24.1535 38.2321 24.1785C38.1689 24.2036 38.1115 24.2414 38.0635 24.2895C38.0147 24.339 37.9766 24.3979 37.9516 24.4626C37.9265 24.5274 37.9151 24.5966 37.9179 24.666C37.9179 24.7114 37.9222 24.7568 37.9308 24.8014C37.9389 24.8475 37.949 24.8928 37.9605 24.9368C38.0795 25.4415 38.3856 25.8822 38.8171 26.1698C39.2799 26.4843 39.8165 26.6731 40.3743 26.7176V27.3513C40.3722 27.4075 40.3817 27.4636 40.4023 27.5159C40.423 27.5682 40.4542 27.6157 40.4942 27.6553C40.5763 27.7299 40.6832 27.7712 40.7941 27.7712C40.905 27.7712 41.012 27.7299 41.0941 27.6553L41.0947 27.6621ZM40.3154 22.0152C39.9214 21.8947 39.6329 21.7462 39.4501 21.5697C39.3615 21.4848 39.2916 21.3822 39.245 21.2686C39.1983 21.1551 39.1759 21.033 39.1793 20.9102C39.1801 20.7759 39.209 20.6432 39.2643 20.5207C39.3196 20.3983 39.4 20.2888 39.5002 20.1993C39.7142 19.9939 40.0076 19.8599 40.3804 19.7971V22.0315L40.3154 22.0152ZM41.4062 23.385C41.8341 23.4996 42.1325 23.6508 42.3013 23.8386C42.4715 24.0321 42.5618 24.2831 42.5539 24.5407C42.5554 24.6881 42.5265 24.8343 42.4688 24.9699C42.4111 25.1055 42.326 25.2278 42.2187 25.3289C41.9989 25.546 41.6635 25.68 41.2126 25.731V23.3335L41.4062 23.385ZM57 35.2792C54.442 39.4284 51.5069 43.3141 48.7119 47.2967C47.2352 49.3956 45.0557 50.4194 42.4895 50.4458C37.5408 50.481 32.5927 50.4546 27.6446 50.4634C27.4076 50.4634 27.2932 50.4018 27.1787 50.1824C24.7792 45.367 22.3769 40.5543 19.9719 35.7444C19.9042 35.609 19.7783 35.4986 19.9631 35.332C21.299 34.1302 22.6349 32.9108 24.3492 32.2703C27.9696 30.9195 31.3008 31.4056 34.2292 34.0158C34.7214 34.4545 35.24 34.6929 35.9219 34.6739C38.0926 34.6387 40.2552 34.6563 42.4259 34.6651C43.0613 34.6686 43.6741 34.9011 44.152 35.32C44.6298 35.7389 44.9405 36.316 45.0272 36.9455C45.2033 38.1642 44.447 39.383 43.2431 39.7892C42.9372 39.8884 42.6168 39.9358 42.2952 39.9294H37.2848C36.3972 39.9294 35.8081 40.4711 35.8169 41.2632C35.8257 42.0351 36.406 42.5612 37.276 42.5612C39.2395 42.5612 41.2031 42.5788 43.1666 42.5524C44.0895 42.5436 44.8593 42.1841 45.4517 41.4562C47.7087 38.6757 49.9703 35.8978 52.2368 33.1227C52.9138 32.2892 53.7663 31.8857 54.8212 32.0787C55.9282 32.2818 56.6405 32.9589 56.9201 34.0611C56.9289 34.0964 56.9729 34.114 56.9993 34.1404L57 35.2792ZM12 38.1764C12.7651 37.1419 13.9425 36.7729 15.0678 36.3869C16.2365 35.9841 17.4667 36.6503 18.0734 37.8521C19.4885 40.6681 20.886 43.4834 22.2923 46.2906C23.0741 47.8519 23.8563 49.4162 24.639 50.9834C25.4387 52.5975 24.9464 54.0451 23.3201 54.8427C22.7141 55.1406 22.1074 55.4304 21.5008 55.7229H20.798C20.2089 55.3898 19.9543 54.7933 19.6727 54.2232C18.179 51.2233 16.6791 48.2261 15.1728 45.2316C14.1184 43.1354 13.0637 41.0448 12.0088 38.9598C12 38.7005 12 38.4371 12 38.1764Z" fill="#9C171E"/>
</svg>
