<svg width="70" height="70" viewBox="0 0 70 70" fill="none" xmlns="http://www.w3.org/2000/svg">
<path d="M34.5033 13.1192C33.6423 13.4305 33.0717 14.0633 32.8642 14.9347L32.7501 15.4327L31.8994 15.495C29.8556 15.6402 28.0505 16.7917 27.1376 18.5346C26.7434 19.2816 26.4321 20.3294 26.4321 20.9311V21.2734H35.3125H44.1929L44.1203 20.6717C44.0269 19.8833 43.6431 18.794 43.2385 18.1611C42.8131 17.5076 41.7653 16.5324 41.091 16.1589C40.4063 15.7958 39.1199 15.4638 38.3626 15.4638H37.7712L37.709 15.0385C37.626 14.4264 37.1384 13.7002 36.5782 13.3579C35.9972 12.9948 35.0947 12.891 34.5033 13.1192ZM35.9142 14.7895C36.5159 15.3393 36.1217 16.3975 35.3125 16.3975C34.7627 16.3975 34.3685 16.0137 34.3685 15.4638C34.3685 15.1111 34.4307 14.9762 34.6589 14.7791C35.0428 14.4472 35.5511 14.4472 35.9142 14.7895Z" fill="#9C171E"/>
<path d="M21.5043 18.4824C21.0374 18.6172 20.415 19.1774 20.1971 19.6547C20.0104 20.0593 20 20.7958 20 38.1831C20 55.5705 20.0104 56.307 20.1971 56.7116C20.4253 57.2096 21.0478 57.7594 21.5561 57.8943C21.7844 57.9565 26.9508 57.998 35.354 57.998H48.7887L49.3177 57.7491C49.878 57.4897 50.2929 57.0332 50.49 56.4523C50.6664 55.9232 50.656 20.4742 50.4797 19.8829C50.3137 19.3331 49.6394 18.6587 49.0895 18.4927C48.8198 18.4201 47.9691 18.3683 46.7657 18.3683C45.002 18.3683 44.8776 18.3786 44.9502 18.5446C45.251 19.2501 45.4378 20.2253 45.4896 21.3457L45.5519 22.6217H35.3125H25.0834V21.5532C25.0834 20.5157 25.2494 19.5198 25.5502 18.7521L25.7059 18.3683L23.7555 18.3786C22.6869 18.3786 21.6806 18.4305 21.5043 18.4824ZM27.8326 31.8548L25.9652 33.7222L24.9278 32.6848L23.8904 31.6473L24.3572 31.1805L24.8137 30.7137L25.3946 31.2842L25.9652 31.8548L27.3657 30.4543L28.7663 29.0538L29.2331 29.5206L29.7 29.9875L27.8326 31.8548ZM46.6619 31.388V32.2698H39.9705H33.2791V31.388V30.5062H39.9705H46.6619V31.388ZM28.5069 38.2869V39.9468H26.847H25.1871V38.2869V36.627H26.847H28.5069V38.2869ZM46.6619 38.5462V39.4281H39.9705H33.2791V38.5462V37.6644H39.9705H46.6619V38.5462ZM28.5069 45.6526V47.3125H26.847H25.1871V45.6526V43.9928H26.847H28.5069V45.6526ZM46.6619 45.7045V46.5863H39.9705H33.2791V45.7045V44.8227H39.9705H46.6619V45.7045Z" fill="#9C171E"/>
</svg>
