<svg width="70" height="70" viewBox="0 0 70 70" fill="none" xmlns="http://www.w3.org/2000/svg">
<path d="M32.6083 51.6711C31.9161 50.9883 31.5703 49.9636 31.5708 48.5969V32.4527C31.5708 31.086 31.9166 30.061 32.6083 29.3777C33.2999 28.6944 34.3382 28.353 35.7231 28.3535H53.7868C55.1712 28.3535 56.2071 28.6949 56.8946 29.3777C57.5821 30.0605 57.9258 31.0855 57.9258 32.4527V48.5954C57.9258 49.962 57.5821 50.9867 56.8946 51.6695C56.2071 52.3523 55.1712 52.694 53.7868 52.6945H35.7231C34.3387 52.6945 33.3005 52.3534 32.6083 51.6711ZM53.9587 50.5672C54.5493 50.5672 55.0035 50.4109 55.3212 50.0984C55.6389 49.786 55.7975 49.3253 55.7969 48.7164V36.244C55.7969 35.6357 55.6384 35.175 55.3212 34.862C55.004 34.549 54.5498 34.3927 53.9587 34.3933H35.5215C34.9392 34.3933 34.4895 34.5495 34.1723 34.862C33.8551 35.1745 33.6965 35.6352 33.6965 36.244V48.7141C33.6965 49.3229 33.8551 49.7836 34.1723 50.0961C34.4895 50.4086 34.9392 50.5648 35.5215 50.5648L53.9587 50.5672ZM37.2965 43.3454C37.2085 43.2569 37.1645 43.0981 37.1645 42.8689V42.1025C37.1645 41.8645 37.2085 41.7035 37.2965 41.6197C37.3845 41.5358 37.5475 41.4939 37.7855 41.4939H38.5668C38.7959 41.4939 38.9545 41.5358 39.0425 41.6197C39.1306 41.7035 39.1748 41.8645 39.1754 42.1025V42.8689C39.1754 43.0986 39.1311 43.2574 39.0425 43.3454C38.954 43.4335 38.7954 43.4775 38.5668 43.4775H37.7855C37.548 43.4775 37.385 43.4335 37.2965 43.3454ZM37.2965 47.6758C37.2085 47.592 37.1645 47.4313 37.1645 47.1938V46.4266C37.1645 46.1886 37.2085 46.0277 37.2965 45.9438C37.3845 45.86 37.5475 45.8181 37.7855 45.8181H38.5668C38.7959 45.8181 38.9545 45.86 39.0425 45.9438C39.1306 46.0277 39.1748 46.1886 39.1754 46.4266V47.1938C39.1754 47.4313 39.1311 47.592 39.0425 47.6758C38.9543 47.7602 38.7957 47.8016 38.5668 47.8016H37.7855C37.548 47.8016 37.3848 47.7602 37.2965 47.6758V47.6758ZM41.6933 39.0213C41.6011 38.9369 41.5519 38.7744 41.5519 38.5463V37.7651C41.5519 37.5354 41.5988 37.3791 41.6909 37.2963C41.7831 37.2135 41.9441 37.1706 42.1737 37.1706H42.955C43.1836 37.1706 43.3446 37.2125 43.4378 37.2963C43.531 37.3802 43.5771 37.5364 43.5761 37.7651V38.5463C43.5761 38.776 43.53 38.9348 43.4378 39.0229C43.3456 39.1109 43.1857 39.1544 42.9581 39.1533H42.1769C41.9464 39.1533 41.7862 39.1096 41.6933 39.0213V39.0213ZM41.6933 43.3454C41.6011 43.2572 41.5542 43.0986 41.5542 42.8689V42.1025C41.5542 41.8681 41.6011 41.7033 41.6933 41.6197C41.7855 41.5361 41.9464 41.4939 42.1761 41.4939H42.9573C43.186 41.4939 43.3469 41.5358 43.4401 41.6197C43.5334 41.7035 43.5794 41.8645 43.5784 42.1025V42.8689C43.5784 43.0986 43.5323 43.2574 43.4401 43.3454C43.3479 43.4335 43.1873 43.4775 42.9581 43.4775H42.1769C41.9464 43.4775 41.7862 43.4337 41.6933 43.3454ZM41.6933 47.6758C41.6011 47.5922 41.5542 47.4313 41.5542 47.1938V46.4266C41.5542 46.1923 41.6011 46.0274 41.6933 45.9438C41.7855 45.8602 41.9464 45.8181 42.1761 45.8181H42.9573C43.186 45.8181 43.3469 45.86 43.4401 45.9438C43.5334 46.0277 43.5794 46.1886 43.5784 46.4266V47.1938C43.5784 47.4313 43.5323 47.592 43.4401 47.6758C43.3472 47.7602 43.1862 47.8016 42.9573 47.8016H42.1769C41.9464 47.8016 41.7862 47.7602 41.6933 47.6758V47.6758ZM46.0901 39.0213C46.0026 38.933 45.9581 38.7744 45.9581 38.5447V37.7651C45.9581 37.5354 46.0026 37.3791 46.0901 37.2963C46.1776 37.2135 46.337 37.1706 46.5666 37.1706H47.3479C47.5854 37.1706 47.7484 37.2125 47.8369 37.2963C47.9255 37.3802 47.9695 37.5364 47.969 37.7651V38.5463C47.969 38.776 47.9249 38.9348 47.8369 39.0229C47.7489 39.1109 47.5859 39.1549 47.3479 39.1549H46.5666C46.337 39.1538 46.1781 39.1093 46.0901 39.0213V39.0213ZM46.0901 43.3454C46.0026 43.2572 45.9581 43.0986 45.9581 42.8689V42.1025C45.9581 41.8681 46.0026 41.7033 46.0901 41.6197C46.1776 41.5361 46.337 41.4939 46.5666 41.4939H47.3479C47.5854 41.4939 47.7484 41.5358 47.8369 41.6197C47.9255 41.7035 47.9695 41.8645 47.969 42.1025V42.8689C47.969 43.0986 47.9249 43.2574 47.8369 43.3454C47.7489 43.4335 47.5859 43.4775 47.3479 43.4775H46.5666C46.337 43.4775 46.1781 43.4335 46.0901 43.3454V43.3454ZM46.0901 47.6758C46.0026 47.5922 45.9581 47.4313 45.9581 47.1938V46.4266C45.9581 46.1923 46.0026 46.0274 46.0901 45.9438C46.1776 45.8602 46.337 45.8181 46.5666 45.8181H47.3479C47.5854 45.8181 47.7484 45.86 47.8369 45.9438C47.9255 46.0277 47.9695 46.1886 47.969 46.4266V47.1938C47.969 47.4313 47.9249 47.592 47.8369 47.6758C47.7486 47.7602 47.5854 47.8016 47.3479 47.8016H46.5666C46.337 47.8016 46.1784 47.7602 46.0901 47.6758V47.6758ZM50.4806 39.0213C50.3926 38.9328 50.3486 38.7739 50.3486 38.5447V37.7651C50.3486 37.5354 50.3926 37.3791 50.4806 37.2963C50.5686 37.2135 50.7319 37.1716 50.9705 37.1706H51.7369C51.9749 37.1706 52.1382 37.2125 52.2267 37.2963C52.3142 37.3799 52.3587 37.5362 52.3587 37.7651V38.5463C52.3587 38.776 52.3142 38.9369 52.2267 39.0229C52.1392 39.1088 51.9751 39.1549 51.7369 39.1549H50.9705C50.733 39.1538 50.5697 39.1093 50.4806 39.0213V39.0213ZM50.4806 43.3454C50.3926 43.2569 50.3486 43.0981 50.3486 42.8689V42.1025C50.3486 41.8645 50.3926 41.7035 50.4806 41.6197C50.5686 41.5358 50.7319 41.4939 50.9705 41.4939H51.7369C51.9749 41.4939 52.1382 41.5358 52.2267 41.6197C52.3142 41.7033 52.3587 41.8642 52.3587 42.1025V42.8689C52.3587 43.0986 52.3142 43.2595 52.2267 43.3454C52.1392 43.4314 51.9751 43.4775 51.7369 43.4775H50.9705C50.733 43.4775 50.5697 43.4335 50.4806 43.3454Z" fill="#9C171E"/>
<path d="M35.2544 13H23.6952C23.2063 13 22.8101 13.3963 22.8101 13.8851V16.7765C22.8101 17.2653 23.2063 17.6616 23.6952 17.6616H35.2544C35.7432 17.6616 36.1395 17.2653 36.1395 16.7765V13.8851C36.1395 13.3963 35.7432 13 35.2544 13Z" fill="#9C171E"/>
<path d="M35.7233 55.429C33.6006 55.429 31.9069 54.8188 30.6882 53.6157C29.4695 52.4126 28.8367 50.7142 28.8367 48.5955V45.7338H26.3437C26.1709 45.7382 25.999 45.707 25.8387 45.6423C25.6783 45.5775 25.533 45.4805 25.4117 45.3573C25.2897 45.2391 25.1933 45.0971 25.1284 44.9402C25.0635 44.7832 25.0315 44.6146 25.0344 44.4448C25.0315 44.2771 25.0636 44.1106 25.1286 43.9559C25.1935 43.8012 25.2899 43.6618 25.4117 43.5464C25.5345 43.4258 25.6803 43.3312 25.8404 43.2681C26.0005 43.205 26.1717 43.1748 26.3437 43.1792H28.8367V38.4683H26.3437C26.1709 38.4727 25.999 38.4415 25.8387 38.3768C25.6783 38.312 25.533 38.215 25.4117 38.0918C25.2897 37.9736 25.1933 37.8316 25.1284 37.6747C25.0635 37.5177 25.0315 37.3491 25.0344 37.1793C25.0315 37.0116 25.0636 36.8451 25.1286 36.6904C25.1935 36.5357 25.2899 36.3963 25.4117 36.2809C25.5345 36.1603 25.6803 36.0657 25.8404 36.0026C26.0005 35.9395 26.1717 35.9093 26.3437 35.9137H28.8367V32.4528C28.8358 32.0386 28.8619 31.6247 28.9148 31.2138H26.3437C26.1725 31.2162 26.0026 31.1841 25.8441 31.1194C25.6856 31.0547 25.5417 30.9587 25.4211 30.8372C25.298 30.7235 25.2001 30.5853 25.1335 30.4316C25.0669 30.2778 25.0331 30.1118 25.0344 29.9443C25.0376 29.598 25.1766 29.2669 25.4215 29.022C25.6663 28.7772 25.9975 28.6382 26.3437 28.6349H29.7554C30.0112 28.1947 30.3243 27.7904 30.6866 27.4326C31.9053 26.2287 33.5991 25.6193 35.7217 25.6193H45.8778L45.8825 19.1484C45.8816 18.8644 45.8507 18.5813 45.7903 18.3039C45.7903 18.296 45.7903 18.2726 45.7903 18.2679C45.766 18.1757 45.7301 18.0906 45.7004 18.0015C45.4571 17.1686 44.9507 16.4369 44.2571 15.9156C43.5634 15.3943 42.7197 15.1115 41.8521 15.1094H38.874V15.9765L38.8591 16.3922C38.8146 17.5398 38.7974 17.6726 38.5412 18.2023C38.2713 18.7638 37.8679 19.2505 37.3663 19.6199C36.8647 19.9892 36.2801 20.23 35.6639 20.321C35.3022 20.3733 32.3827 20.3991 29.4663 20.3991C26.55 20.3991 23.6305 20.3726 23.2688 20.321C22.6525 20.23 22.068 19.9892 21.5664 19.6199C21.0647 19.2505 20.6613 18.7638 20.3915 18.2023C20.1352 17.6726 20.1173 17.5398 20.0735 16.3922L20.0587 15.9765V15.1094H17.0798C16.2127 15.1118 15.3696 15.3946 14.6765 15.9155C13.9833 16.4365 13.4772 17.1677 13.2338 17.9999C13.2041 18.089 13.1674 18.1742 13.144 18.2664C13.144 18.271 13.144 18.2945 13.1401 18.3023C13.0796 18.5797 13.0487 18.8628 13.0479 19.1468V22.1499C12.9697 29.1669 12.9947 43.8995 13.069 50.9572V53.9368C13.0699 54.9891 13.4827 55.9992 14.2191 56.751C14.9554 57.5028 15.9567 57.9365 17.0087 57.9594L17.1017 57.9735L28.3406 58H28.3624H29.4562H29.4718H30.5655H30.5866L41.8263 57.9735L41.9192 57.9594C42.7083 57.9416 43.4748 57.6927 44.1237 57.2434C44.7727 56.7942 45.2755 56.1644 45.57 55.4321L35.7233 55.429ZM22.0993 45.676C21.9378 45.8394 21.7455 45.9691 21.5336 46.0577C21.3216 46.1462 21.0942 46.1918 20.8645 46.1918C20.6348 46.1918 20.4074 46.1462 20.1955 46.0577C19.9835 45.9691 19.7912 45.8394 19.6298 45.676C19.4671 45.5156 19.3385 45.3241 19.2516 45.1128C19.1648 44.9015 19.1215 44.6748 19.1243 44.4464C19.1209 44.2192 19.1639 43.9938 19.2509 43.7839C19.3378 43.5741 19.4667 43.3842 19.6298 43.2261C19.7911 43.0617 19.9842 42.9321 20.1974 42.8452C20.4107 42.7583 20.6394 42.7159 20.8696 42.7206C21.0973 42.7175 21.3232 42.7597 21.5344 42.8449C21.7455 42.9301 21.9375 43.0565 22.0993 43.2167C22.2665 43.3742 22.3988 43.565 22.4876 43.7768C22.5765 43.9886 22.6198 44.2167 22.6149 44.4464C22.6175 44.6757 22.5731 44.9031 22.4844 45.1146C22.3957 45.3261 22.2646 45.5172 22.0993 45.676ZM22.0993 38.4105C21.9378 38.5739 21.7455 38.7036 21.5336 38.7922C21.3216 38.8807 21.0942 38.9263 20.8645 38.9263C20.6348 38.9263 20.4074 38.8807 20.1955 38.7922C19.9835 38.7036 19.7912 38.5739 19.6298 38.4105C19.4671 38.2502 19.3385 38.0586 19.2516 37.8473C19.1648 37.636 19.1215 37.4093 19.1243 37.1809C19.1209 36.9537 19.1639 36.7283 19.2509 36.5184C19.3378 36.3086 19.4667 36.1187 19.6298 35.9606C19.7911 35.7962 19.9842 35.6666 20.1974 35.5797C20.4107 35.4928 20.6394 35.4504 20.8696 35.4551C21.0973 35.452 21.3232 35.4942 21.5344 35.5794C21.7455 35.6646 21.9375 35.791 22.0993 35.9512C22.2665 36.1087 22.3988 36.2995 22.4876 36.5113C22.5765 36.7231 22.6198 36.9512 22.6149 37.1809C22.6175 37.4102 22.5731 37.6376 22.4844 37.8491C22.3957 38.0606 22.2646 38.2517 22.0993 38.4105ZM22.0993 31.17C21.8965 31.3708 21.6474 31.5185 21.374 31.6003C21.1006 31.682 20.8113 31.6952 20.5316 31.6387C20.2519 31.5822 19.9904 31.4578 19.7702 31.2764C19.5499 31.0949 19.3777 30.8621 19.2687 30.5984C19.1597 30.3347 19.1173 30.0482 19.1452 29.7642C19.173 29.4803 19.2703 29.2075 19.4285 28.97C19.5867 28.7325 19.8009 28.5376 20.0522 28.4025C20.3036 28.2673 20.5843 28.1961 20.8696 28.1951C21.0982 28.1925 21.325 28.2362 21.5363 28.3235C21.7476 28.4107 21.9391 28.5398 22.0993 28.7029C22.2627 28.8643 22.3924 29.0566 22.4809 29.2686C22.5694 29.4805 22.615 29.7079 22.615 29.9376C22.615 30.1673 22.5694 30.3947 22.4809 30.6067C22.3924 30.8186 22.2627 31.0109 22.0993 31.1724V31.17Z" fill="#9C171E"/>
</svg>
