<svg width="70" height="70" viewBox="0 0 70 70" fill="none" xmlns="http://www.w3.org/2000/svg">
<path d="M50.4887 13H27.0822C25.5142 13 24.237 14.0841 24.237 15.4233V37.1549C24.5506 37.1298 24.8668 37.1172 25.1856 37.1172C26.7467 37.111 28.2924 37.4264 29.7264 38.0437C30.8937 38.5468 31.9731 39.2332 32.9236 40.0771C33.1997 40.0928 33.3943 40.1541 33.5074 40.261C33.6193 40.3686 33.6834 40.5589 33.7012 40.8312C34.6457 41.8375 35.4086 42.9998 35.9563 44.2665C36.5742 45.7 36.8896 47.2456 36.8828 48.8066C36.8844 49.8633 36.7405 50.9151 36.4552 51.9326H38.7402V51.9183L50.4852 51.9326C52.0532 51.9326 53.3297 50.8485 53.3297 49.5093V15.4211C53.3325 14.0841 52.0567 13 50.4887 13ZM33.7062 35.6319C33.7062 35.9773 33.6399 36.2163 33.5074 36.3489C33.3748 36.4814 33.1291 36.5477 32.7704 36.5477H31.5958C31.2509 36.5477 31.0119 36.4814 30.8788 36.3489C30.7458 36.2163 30.6795 35.9773 30.68 35.6319V34.4772C30.68 34.1209 30.7463 33.8771 30.8788 33.7503C31.0114 33.6234 31.2509 33.5614 31.5958 33.5614H32.7704C33.1287 33.5614 33.3743 33.6243 33.5074 33.7503C33.6399 33.8771 33.7062 34.1187 33.7062 34.4772V35.6319ZM33.7062 29.1218C33.7062 29.4668 33.6399 29.7058 33.5074 29.8388C33.3748 29.9719 33.1291 30.0382 32.7704 30.0377H31.5958C31.2509 30.0377 31.0119 29.9714 30.8788 29.8388C30.7458 29.7063 30.6795 29.4673 30.68 29.1218V27.9451C30.68 27.6002 30.7463 27.3645 30.8788 27.2381C31.0114 27.1117 31.2504 27.0488 31.5958 27.0492H32.7704C33.1287 27.0492 33.3743 27.1122 33.5074 27.2381C33.6404 27.364 33.7067 27.5997 33.7062 27.9451V29.1218ZM40.2925 42.1419C40.2925 42.5001 40.2262 42.7425 40.0937 42.8689C39.9611 42.9953 39.7154 43.0573 39.3567 43.0549H38.1821C37.8372 43.0549 37.5984 42.9919 37.4658 42.866C37.3333 42.7401 37.2667 42.4978 37.2663 42.139V40.988C37.2663 40.6316 37.3326 40.3879 37.4658 40.261C37.5991 40.1341 37.8372 40.0721 38.1821 40.0721H39.3567C39.7154 40.0721 39.9611 40.1351 40.0937 40.261C40.2262 40.3879 40.2925 40.6295 40.2925 40.988V42.1419ZM40.2925 35.6319C40.2925 35.9773 40.2262 36.2163 40.0937 36.3489C39.9611 36.4814 39.7154 36.5477 39.3567 36.5477H38.1821C37.8372 36.5477 37.5984 36.4814 37.4658 36.3489C37.3333 36.2163 37.2667 35.9773 37.2663 35.6319V34.4772C37.2663 34.1209 37.3326 33.8771 37.4658 33.7503C37.5991 33.6234 37.8372 33.5614 38.1821 33.5614H39.3567C39.7154 33.5614 39.9611 33.6243 40.0937 33.7503C40.2262 33.8771 40.2925 34.1187 40.2925 34.4772V35.6319ZM40.2925 29.1218C40.2925 29.4668 40.2262 29.7058 40.0937 29.8388C39.9611 29.9719 39.7154 30.0382 39.3567 30.0377H38.1821C37.8372 30.0377 37.5984 29.9714 37.4658 29.8388C37.3333 29.7063 37.2667 29.4673 37.2663 29.1218V27.9451C37.2663 27.6002 37.3328 27.3645 37.4658 27.2381C37.5989 27.1117 37.8376 27.0488 38.1821 27.0492H39.3567C39.7154 27.0492 39.9611 27.1122 40.0937 27.2381C40.2262 27.364 40.2925 27.5997 40.2925 27.9451V29.1218ZM46.9023 42.1397C46.9023 42.4852 46.8358 42.7242 46.7027 42.8567C46.5697 42.9893 46.3243 43.0554 45.9665 43.0549H44.8119C44.4536 43.0549 44.208 42.9886 44.0749 42.856C43.9419 42.7235 43.8756 42.4845 43.8761 42.139V40.988C43.8761 40.6316 43.9424 40.3879 44.0749 40.261C44.2075 40.1341 44.4534 40.0721 44.8119 40.0721H45.9665C46.3252 40.0721 46.5707 40.1351 46.7027 40.261C46.8353 40.3879 46.9023 40.6295 46.9023 40.988V42.1397ZM46.9023 35.6319C46.9023 35.9773 46.8358 36.2163 46.7027 36.3489C46.5697 36.4814 46.3243 36.5477 45.9665 36.5477H44.8119C44.4536 36.5477 44.208 36.4814 44.0749 36.3489C43.9419 36.2163 43.8756 35.9773 43.8761 35.6319V34.4772C43.8761 34.1209 43.9424 33.8771 44.0749 33.7503C44.2075 33.6234 44.4534 33.5614 44.8119 33.5614H45.9665C46.3252 33.5614 46.5707 33.6243 46.7027 33.7503C46.8353 33.8771 46.9023 34.1187 46.9023 34.4772V35.6319ZM46.9023 29.1218C46.9023 29.4668 46.8358 29.7058 46.7027 29.8388C46.5697 29.9719 46.3243 30.0382 45.9665 30.0377H44.8119C44.4536 30.0377 44.208 29.9714 44.0749 29.8388C43.9419 29.7063 43.8756 29.4673 43.8761 29.1218V27.9451C43.8761 27.6002 43.9424 27.3645 44.0749 27.2381C44.2075 27.1117 44.4531 27.0488 44.8119 27.0492H45.9665C46.3252 27.0492 46.5707 27.1122 46.7027 27.2381C46.8348 27.364 46.9014 27.5997 46.9023 27.9451V29.1218ZM49.4817 22.4065C49.4871 22.5984 49.4452 22.7886 49.3599 22.9605C49.2745 23.1324 49.1482 23.2806 48.992 23.3922C48.6656 23.6379 48.2142 23.7605 47.6378 23.76H29.9623C29.3664 23.76 28.9053 23.6374 28.5789 23.3922C28.4226 23.2807 28.2961 23.1325 28.2106 22.9606C28.1251 22.7887 28.0832 22.5984 28.0885 22.4065V19.0817C28.0803 18.8876 28.1209 18.6946 28.2066 18.5203C28.2922 18.346 28.4202 18.1959 28.5789 18.0839C28.9053 17.8463 29.3664 17.7275 29.9623 17.7275H47.6378C48.2142 17.7275 48.6656 17.8463 48.992 18.0839C49.1506 18.1959 49.2786 18.346 49.3643 18.5203C49.45 18.6946 49.4906 18.8876 49.4824 19.0817L49.4817 22.4065ZM21.6476 57.2787C19.4374 56.3249 17.6751 54.5626 16.7213 52.3524C16.2453 51.2305 16 50.0242 16 48.8055C16 47.5868 16.2453 46.3805 16.7213 45.2586C17.6719 43.0492 19.4313 41.2868 21.6391 40.3323C22.762 39.8568 23.969 39.6117 25.1884 39.6117C26.4079 39.6117 27.6149 39.8568 28.7378 40.3323C30.9502 41.2844 32.7144 43.047 33.6684 45.2586C34.1444 46.3805 34.3897 47.5868 34.3897 48.8055C34.3897 50.0242 34.1444 51.2305 33.6684 52.3524C32.7146 54.5623 30.9526 56.3245 28.7428 57.2787C27.6209 57.7547 26.4146 58 25.1959 58C23.9772 58 22.771 57.7547 21.6491 57.2787H21.6476ZM25.5099 53.9931C25.5517 53.9515 25.5846 53.9018 25.6063 53.847C25.628 53.7921 25.6381 53.7334 25.636 53.6745V53.0259C26.3573 52.9532 26.9643 52.7142 27.457 52.3089C27.9498 51.9036 28.1961 51.3493 28.1961 50.6461C28.1961 50.0146 27.9918 49.5067 27.5832 49.1223C27.1746 48.7379 26.5676 48.4735 25.7622 48.329L25.636 48.302V45.7141C25.9429 45.763 26.231 45.8938 26.4699 46.0925C26.7002 46.293 26.8676 46.5559 26.9517 46.8494C27.0544 47.1559 27.2444 47.3091 27.5219 47.3091C27.595 47.3127 27.6681 47.3009 27.7364 47.2746C27.8048 47.2482 27.8668 47.2079 27.9186 47.1561C27.9704 47.1044 28.0109 47.0424 28.0373 46.9741C28.0637 46.9058 28.0756 46.8328 28.0721 46.7596C28.0717 46.7118 28.0672 46.6641 28.0586 46.6171C28.0493 46.5693 28.0386 46.5216 28.0265 46.4745C27.9004 45.9737 27.6016 45.5335 27.1826 45.2315C26.7306 44.898 26.1961 44.6939 25.6367 44.6414V44C25.639 43.9408 25.629 43.8818 25.6073 43.8267C25.5855 43.7716 25.5526 43.7216 25.5106 43.6799C25.4243 43.6015 25.3118 43.5581 25.1952 43.5581C25.0786 43.5581 24.9661 43.6015 24.8798 43.6799C24.8375 43.7214 24.8043 43.7713 24.7826 43.8265C24.7609 43.8816 24.751 43.9407 24.7537 44V44.6414C24.05 44.7189 23.4715 44.9636 23.0182 45.3755C22.5649 45.7875 22.3375 46.3118 22.3361 46.9485C22.3361 47.5377 22.5345 48.0128 22.9312 48.3739C23.328 48.7351 23.9136 49.0111 24.6881 49.2021L24.7515 49.2199V51.9639C24.3367 51.9041 24.0077 51.7658 23.7644 51.5491C23.5272 51.3433 23.3588 51.0697 23.2819 50.7651C23.2437 50.6267 23.1653 50.5027 23.0567 50.4088C22.9561 50.3317 22.832 50.2917 22.7053 50.2955C22.6336 50.2932 22.5623 50.3056 22.4956 50.332C22.4289 50.3583 22.3683 50.398 22.3176 50.4487C22.2663 50.5009 22.2262 50.563 22.1999 50.6313C22.1735 50.6996 22.1614 50.7725 22.1644 50.8457C22.1643 50.8935 22.1689 50.9412 22.1779 50.9882C22.1864 51.0367 22.1971 51.0844 22.2093 51.1308C22.3347 51.6619 22.6569 52.1257 23.1108 52.4286C23.5981 52.7597 24.163 52.9583 24.7501 53.0052V53.6745C24.7474 53.7337 24.7573 53.7928 24.779 53.8479C24.8008 53.9031 24.8339 53.953 24.8763 53.9945C24.9626 54.0729 25.075 54.1164 25.1916 54.1164C25.3083 54.1164 25.4207 54.0729 25.507 53.9945L25.5099 53.9931ZM24.6881 48.0482C24.2733 47.9223 23.9699 47.7662 23.778 47.58C23.684 47.4909 23.6098 47.383 23.5601 47.2635C23.5103 47.1439 23.4862 47.0152 23.4893 46.8858C23.4901 46.7443 23.5206 46.6047 23.5788 46.4757C23.637 46.3468 23.7216 46.2316 23.8271 46.1374C24.0524 45.9217 24.3612 45.7806 24.7537 45.7141V48.066L24.6881 48.0482ZM25.8327 49.4908C26.2841 49.6115 26.5982 49.7706 26.775 49.9683C26.9539 50.1721 27.0487 50.4363 27.0401 50.7074C27.0426 50.8619 27.0133 51.0152 26.9539 51.1578C26.8946 51.3004 26.8065 51.4292 26.6951 51.5363C26.4637 51.7644 26.1107 51.9055 25.636 51.9597V49.4366L25.8327 49.4908Z" fill="#9C171E"/>
</svg>
