<svg width="70" height="70" viewBox="0 0 70 70" fill="none" xmlns="http://www.w3.org/2000/svg">
<path d="M8 42.8659C8 46.9609 10.1304 48.9863 14.2118 48.9863H27.9136L27.3081 52.9711H24.9311C23.8098 52.9711 22.8904 53.8958 22.8904 54.9966C22.8904 56.0753 23.8098 57 24.9311 57H45.2259C46.3696 57 47.289 56.0753 47.289 54.9966C47.289 53.8958 46.3696 52.9711 45.2259 52.9711H42.6694L42.0864 48.9863H55.7658C59.8472 48.9863 62 46.9609 62 42.8659V18.0983C62 14.0254 59.8472 12 55.7658 12H14.2118C10.1304 12 8 14.0254 8 18.0983V42.8659ZM12.3729 42.6018V18.3845C12.3729 16.8655 13.0233 16.2931 14.5033 16.2931H55.4743C56.9543 16.2931 57.6271 16.8655 57.6271 18.3845V42.6018C57.6271 44.0988 56.9543 44.6932 55.4743 44.6932H14.5033C13.0233 44.6932 12.3729 44.0988 12.3729 42.6018Z" fill="#9C171E"/>
<path fill-rule="evenodd" clip-rule="evenodd" d="M28.1429 23.5C28.1429 22.837 28.3837 22.2011 28.8123 21.7322C29.241 21.2634 29.8224 21 30.4286 21H39.5714C40.1776 21 40.759 21.2634 41.1877 21.7322C41.6163 22.2011 41.8571 22.837 41.8571 23.5V38.5C42.1602 38.5 42.4509 38.6317 42.6653 38.8661C42.8796 39.1005 43 39.4185 43 39.75C43 40.0815 42.8796 40.3995 42.6653 40.6339C42.4509 40.8683 42.1602 41 41.8571 41H38.4286C38.1255 41 37.8348 40.8683 37.6205 40.6339C37.4061 40.3995 37.2857 40.0815 37.2857 39.75V37.25C37.2857 36.9185 37.1653 36.6005 36.951 36.3661C36.7367 36.1317 36.446 36 36.1429 36H33.8571C33.554 36 33.2633 36.1317 33.049 36.3661C32.8347 36.6005 32.7143 36.9185 32.7143 37.25V39.75C32.7143 40.0815 32.5939 40.3995 32.3796 40.6339C32.1652 40.8683 31.8745 41 31.5714 41H28.1429C27.8398 41 27.5491 40.8683 27.3347 40.6339C27.1204 40.3995 27 40.0815 27 39.75C27 39.4185 27.1204 39.1005 27.3347 38.8661C27.5491 38.6317 27.8398 38.5 28.1429 38.5V23.5ZM31.5714 24.75H33.8571V27.25H31.5714V24.75ZM33.8571 29.75H31.5714V32.25H33.8571V29.75ZM36.1429 24.75H38.4286V27.25H36.1429V24.75ZM38.4286 29.75H36.1429V32.25H38.4286V29.75Z" fill="#9C171E"/>
</svg>
