<svg width="70" height="70" viewBox="0 0 70 70" fill="none" xmlns="http://www.w3.org/2000/svg">
<path d="M9 42.8659C9 46.9609 11.0515 48.9863 14.9817 48.9863H28.1761L27.593 52.9711H25.304C24.2243 52.9711 23.3389 53.8958 23.3389 54.9966C23.3389 56.0753 24.2243 57 25.304 57H44.8472C45.9485 57 46.8339 56.0753 46.8339 54.9966C46.8339 53.8958 45.9485 52.9711 44.8472 52.9711H42.3854L41.8239 48.9863H54.9967C58.9269 48.9863 61 46.9609 61 42.8659V18.0983C61 14.0254 58.9269 12 54.9967 12H14.9817C11.0515 12 9 14.0254 9 18.0983V42.8659ZM13.211 42.6018V18.3845C13.211 16.8655 13.8372 16.2931 15.2625 16.2931H54.7159C56.1412 16.2931 56.789 16.8655 56.789 18.3845V42.6018C56.789 44.0988 56.1412 44.6932 54.7159 44.6932H15.2625C13.8372 44.6932 13.211 44.0988 13.211 42.6018Z" fill="#9C171E"/>
<path d="M24 21.9052C24 22.4007 24.4165 22.82 24.8898 22.82H27.8528L29.3201 32.9012C29.5284 34.34 30.2857 35.2166 31.7341 35.2166H42.753C43.1979 35.2166 43.605 34.8641 43.605 34.3591C43.605 33.8636 43.1979 33.511 42.753 33.511H31.9518C31.4974 33.511 31.2134 33.1966 31.1472 32.7106L30.9957 31.7197H42.8287C44.2771 31.7197 45.0439 30.8335 45.2522 29.3852L45.9621 24.6113C45.9811 24.4875 46 24.3255 46 24.2207C46 23.6585 45.6119 23.2773 44.9587 23.2773H29.7935L29.642 22.2482C29.5189 21.4193 29.1876 21 28.1368 21H24.8898C24.4165 21 24 21.4193 24 21.9052ZM30.8537 38.3325C30.8537 39.2568 31.5921 40 32.5103 40C33.4286 40 34.167 39.2568 34.167 38.3325C34.167 37.4082 33.4286 36.665 32.5103 36.665C31.5921 36.665 30.8537 37.4082 30.8537 38.3325ZM39.5912 38.3325C39.5912 39.2568 40.3391 40 41.2573 40C42.1756 40 42.9045 39.2568 42.9045 38.3325C42.9045 37.4082 42.1756 36.665 41.2573 36.665C40.3391 36.665 39.5912 37.4082 39.5912 38.3325Z" fill="#9C171E"/>
</svg>
