<svg width="70" height="70" viewBox="0 0 70 70" fill="none" xmlns="http://www.w3.org/2000/svg">
<path d="M22.1025 30.8294C22.1025 29.9862 22.4561 29.1777 23.0855 28.5815C23.7149 27.9853 24.5685 27.6504 25.4586 27.6504H38.8828C39.7729 27.6504 40.6265 27.9853 41.2559 28.5815C41.8853 29.1777 42.2389 29.9862 42.2389 30.8294V40.3662H45.5949C46.485 40.3662 47.3386 40.7012 47.968 41.2973C48.5974 41.8935 48.951 42.7021 48.951 43.5452V60.4997C48.951 60.7807 48.8331 61.0502 48.6233 61.2489C48.4135 61.4477 48.129 61.5593 47.8323 61.5593H42.2389V54.1417C42.2389 53.8607 42.121 53.5912 41.9112 53.3924C41.7014 53.1937 41.4169 53.0821 41.1202 53.0821H29.9333C29.6366 53.0821 29.3521 53.1937 29.1423 53.3924C28.9325 53.5912 28.8146 53.8607 28.8146 54.1417V61.5593H23.2212C22.9245 61.5593 22.64 61.4477 22.4302 61.2489C22.2204 61.0502 22.1025 60.7807 22.1025 60.4997V30.8294ZM28.2553 37.1873C28.7003 37.1873 29.1272 37.0198 29.4418 36.7217C29.7565 36.4236 29.9333 36.0194 29.9333 35.5978C29.9333 35.1762 29.7565 34.7719 29.4418 34.4739C29.1272 34.1758 28.7003 34.0083 28.2553 34.0083C27.8103 34.0083 27.3835 34.1758 27.0688 34.4739C26.7541 34.7719 26.5773 35.1762 26.5773 35.5978C26.5773 36.0194 26.7541 36.4236 27.0688 36.7217C27.3835 37.0198 27.8103 37.1873 28.2553 37.1873ZM29.9333 41.9557C29.9333 41.5342 29.7565 41.1299 29.4418 40.8318C29.1272 40.5337 28.7003 40.3662 28.2553 40.3662C27.8103 40.3662 27.3835 40.5337 27.0688 40.8318C26.7541 41.1299 26.5773 41.5342 26.5773 41.9557C26.5773 42.3773 26.7541 42.7816 27.0688 43.0796C27.3835 43.3777 27.8103 43.5452 28.2553 43.5452C28.7003 43.5452 29.1272 43.3777 29.4418 43.0796C29.7565 42.7816 29.9333 42.3773 29.9333 41.9557ZM28.2553 49.9031C28.4757 49.9031 28.6939 49.862 28.8975 49.7821C29.101 49.7023 29.286 49.5852 29.4418 49.4376C29.5977 49.29 29.7213 49.1148 29.8056 48.9219C29.8899 48.7291 29.9333 48.5224 29.9333 48.3136C29.9333 48.1049 29.8899 47.8982 29.8056 47.7054C29.7213 47.5125 29.5977 47.3373 29.4418 47.1897C29.286 47.0421 29.101 46.925 28.8975 46.8452C28.6939 46.7653 28.4757 46.7242 28.2553 46.7242C27.8103 46.7242 27.3835 46.8916 27.0688 47.1897C26.7541 47.4878 26.5773 47.8921 26.5773 48.3136C26.5773 48.7352 26.7541 49.1395 27.0688 49.4376C27.3835 49.7357 27.8103 49.9031 28.2553 49.9031ZM36.6454 35.5978C36.6454 35.1762 36.4686 34.7719 36.154 34.4739C35.8393 34.1758 35.4125 34.0083 34.9674 34.0083C34.5224 34.0083 34.0956 34.1758 33.7809 34.4739C33.4662 34.7719 33.2894 35.1762 33.2894 35.5978C33.2894 36.0194 33.4662 36.4236 33.7809 36.7217C34.0956 37.0198 34.5224 37.1873 34.9674 37.1873C35.4125 37.1873 35.8393 37.0198 36.154 36.7217C36.4686 36.4236 36.6454 36.0194 36.6454 35.5978ZM34.9674 43.5452C35.4125 43.5452 35.8393 43.3777 36.154 43.0796C36.4686 42.7816 36.6454 42.3773 36.6454 41.9557C36.6454 41.5342 36.4686 41.1299 36.154 40.8318C35.8393 40.5337 35.4125 40.3662 34.9674 40.3662C34.5224 40.3662 34.0956 40.5337 33.7809 40.8318C33.4662 41.1299 33.2894 41.5342 33.2894 41.9557C33.2894 42.3773 33.4662 42.7816 33.7809 43.0796C34.0956 43.3777 34.5224 43.5452 34.9674 43.5452ZM36.6454 48.3136C36.6454 47.8921 36.4686 47.4878 36.154 47.1897C35.8393 46.8916 35.4125 46.7242 34.9674 46.7242C34.5224 46.7242 34.0956 46.8916 33.7809 47.1897C33.4662 47.4878 33.2894 47.8921 33.2894 48.3136C33.2894 48.7352 33.4662 49.1395 33.7809 49.4376C34.0956 49.7357 34.5224 49.9031 34.9674 49.9031C35.4125 49.9031 35.8393 49.7357 36.154 49.4376C36.4686 49.1395 36.6454 48.7352 36.6454 48.3136ZM41.6795 49.9031C41.8999 49.9031 42.1181 49.862 42.3217 49.7821C42.5253 49.7023 42.7102 49.5852 42.8661 49.4376C43.0219 49.29 43.1455 49.1148 43.2298 48.9219C43.3141 48.7291 43.3575 48.5224 43.3575 48.3136C43.3575 48.1049 43.3141 47.8982 43.2298 47.7054C43.1455 47.5125 43.0219 47.3373 42.8661 47.1897C42.7102 47.0421 42.5253 46.925 42.3217 46.8452C42.1181 46.7653 41.8999 46.7242 41.6795 46.7242C41.2345 46.7242 40.8077 46.8916 40.493 47.1897C40.1783 47.4878 40.0015 47.8921 40.0015 48.3136C40.0015 48.7352 40.1783 49.1395 40.493 49.4376C40.8077 49.7357 41.2345 49.9031 41.6795 49.9031ZM40.0015 55.2014V61.5593H36.6454V55.2014H40.0015ZM34.4081 55.2014H31.052V61.5593H34.4081V55.2014Z" fill="#9C171E"/>
<path d="M40.181 13.1791L36.6597 12.6376L35.0856 9.2612C35.0426 9.16875 34.9719 9.09392 34.8845 9.04843C34.6654 8.93397 34.3991 9.02935 34.2895 9.2612L32.7154 12.6376L29.1942 13.1791C29.0971 13.1938 29.0083 13.2422 28.9404 13.3156C28.8582 13.4049 28.8129 13.5251 28.8145 13.6498C28.8161 13.7744 28.8643 13.8933 28.9487 13.9803L31.4964 16.6084L30.8945 20.3194C30.8804 20.4057 30.8894 20.4945 30.9205 20.5757C30.9517 20.6568 31.0037 20.7271 31.0707 20.7786C31.1377 20.8301 31.217 20.8607 31.2996 20.8669C31.3822 20.8732 31.4648 20.8548 31.538 20.8139L34.6876 19.0618L37.8372 20.8139C37.9232 20.8623 38.023 20.8784 38.1187 20.8608C38.36 20.8168 38.5223 20.5747 38.4807 20.3194L37.8788 16.6084L40.4265 13.9803C40.4958 13.9084 40.5416 13.8145 40.5555 13.7118C40.5929 13.455 40.4237 13.2173 40.181 13.1791Z" fill="#9C171E"/>
<path d="M25.0245 18.265L21.0002 17.7236L19.2012 14.3471C19.1521 14.2547 19.0712 14.1799 18.9714 14.1344C18.721 14.0199 18.4166 14.1153 18.2914 14.3471L16.4924 17.7236L12.4681 18.265C12.3572 18.2797 12.2557 18.3281 12.1781 18.4015C12.0842 18.4909 12.0324 18.611 12.0342 18.7357C12.036 18.8603 12.0912 18.9792 12.1876 19.0662L15.0992 21.6943L14.4113 25.4053C14.3952 25.4916 14.4055 25.5804 14.4411 25.6616C14.4767 25.7428 14.5362 25.8131 14.6127 25.8646C14.6893 25.916 14.7799 25.9466 14.8743 25.9529C14.9687 25.9591 15.0631 25.9407 15.1468 25.8998L18.7463 24.1478L22.3459 25.8998C22.4441 25.9482 22.5582 25.9644 22.6676 25.9468C22.9434 25.9028 23.1288 25.6606 23.0813 25.4053L22.3934 21.6943L25.3051 19.0662C25.3843 18.9943 25.4366 18.9004 25.4525 18.7977C25.4953 18.5409 25.3019 18.3032 25.0245 18.265V18.265Z" fill="#9C171E"/>
<path d="M56.9068 18.265L52.8825 17.7236L51.0835 14.3471C51.0344 14.2547 50.9536 14.1799 50.8537 14.1344C50.6033 14.0199 50.299 14.1153 50.1737 14.3471L48.3748 17.7236L44.3505 18.265C44.2395 18.2797 44.1381 18.3281 44.0604 18.4015C43.9665 18.4909 43.9148 18.611 43.9165 18.7357C43.9183 18.8603 43.9735 18.9792 44.0699 19.0662L46.9816 21.6943L46.2937 25.4053C46.2775 25.4916 46.2879 25.5804 46.3234 25.6616C46.359 25.7428 46.4185 25.8131 46.4951 25.8646C46.5716 25.916 46.6623 25.9466 46.7566 25.9529C46.851 25.9591 46.9454 25.9407 47.0291 25.8998L50.6286 24.1478L54.2282 25.8998C54.3265 25.9482 54.4406 25.9644 54.5499 25.9468C54.8257 25.9028 55.0112 25.6606 54.9636 25.4053L54.2757 21.6943L57.1874 19.0662C57.2666 18.9943 57.3189 18.9004 57.3348 18.7977C57.3776 18.5409 57.1842 18.3032 56.9068 18.265V18.265Z" fill="#9C171E"/>
</svg>
