<svg width="32" height="32" viewBox="0 0 32 32" fill="none" xmlns="http://www.w3.org/2000/svg">
<g clip-path="url(#clip0_2390_5085)">
<path d="M7.11133 7.11108H8.88911V8.88886H7.11133V7.11108Z" fill="#1A202C"/>
<path d="M10.666 7.11108H12.4438V8.88886H10.666V7.11108Z" fill="#1A202C"/>
<path d="M14.2227 7.11108H16.0004V8.88886H14.2227V7.11108Z" fill="#1A202C"/>
<path d="M7.11133 11.5555H8.88911V13.3333H7.11133V11.5555Z" fill="#1A202C"/>
<path d="M10.666 11.5555H12.4438V13.3333H10.666V11.5555Z" fill="#1A202C"/>
<path d="M14.2227 11.5555H16.0004V13.3333H14.2227V11.5555Z" fill="#1A202C"/>
<path d="M7.11133 16H8.88911V17.7778H7.11133V16Z" fill="#1A202C"/>
<path d="M10.666 16H12.4438V17.7778H10.666V16Z" fill="#1A202C"/>
<path d="M14.2227 16H16.0004V17.7778H14.2227V16Z" fill="#1A202C"/>
<path d="M7.11133 20.4445H8.88911V22.2222H7.11133V20.4445Z" fill="#1A202C"/>
<path d="M10.666 20.4445H12.4438V22.2222H10.666V20.4445Z" fill="#1A202C"/>
<path d="M14.2227 20.4445H16.0004V22.2222H14.2227V20.4445Z" fill="#1A202C"/>
<path d="M20.4453 16H22.2231V17.7778H20.4453V16Z" fill="#1A202C"/>
<path d="M24 16H25.7778V17.7778H24V16Z" fill="#1A202C"/>
<path d="M20.4453 20.4445H22.2231V22.2222H20.4453V20.4445Z" fill="#1A202C"/>
<path d="M24 20.4445H25.7778V22.2222H24V20.4445Z" fill="#1A202C"/>
<path d="M17.7769 27.5556H15.1102V24.8889H7.99913V27.5556H5.33247V4.55115C5.33247 4.53715 5.33522 4.52328 5.34058 4.51033C5.34595 4.49739 5.3538 4.48563 5.36371 4.47573C5.37361 4.46582 5.38537 4.45797 5.39831 4.45261C5.41125 4.44725 5.42512 4.44449 5.43913 4.44449H17.6702C17.6842 4.44449 17.6981 4.44725 17.7111 4.45261C17.724 4.45797 17.7358 4.46582 17.7457 4.47573C17.7556 4.48563 17.7634 4.49739 17.7688 4.51033C17.7742 4.52328 17.7769 4.53715 17.7769 4.55115V7.32449L19.5547 4.29338C19.492 3.83949 19.2662 3.42398 18.9193 3.12458C18.5725 2.82518 18.1284 2.6624 17.6702 2.66671H5.43913C4.93935 2.66671 4.46003 2.86525 4.10663 3.21865C3.75323 3.57205 3.55469 4.05137 3.55469 4.55115V29.3334H19.5547V13.6712C18.9102 13.6322 18.2916 13.4033 17.7769 13.0134V27.5556Z" fill="#1A202C"/>
<path d="M27.5564 13.6888V27.5555H20.4453V29.3333H29.3342V13.6888H27.5564Z" fill="#1A202C"/>
<path d="M23.8659 1.01334L18.7815 9.77779C18.6632 9.95142 18.5953 10.1544 18.5853 10.3643C18.5753 10.5741 18.6236 10.7826 18.7248 10.9667C18.8261 11.1508 18.9763 11.3033 19.1589 11.4072C19.3415 11.5111 19.5493 11.5625 19.7592 11.5556H29.937C30.147 11.5625 30.3548 11.5111 30.5374 11.4072C30.72 11.3033 30.8702 11.1508 30.9715 10.9667C31.0727 10.7826 31.121 10.5741 31.111 10.3643C31.101 10.1544 31.0331 9.95142 30.9148 9.77779L25.8304 1.01334C25.7301 0.841838 25.5867 0.699576 25.4143 0.600712C25.242 0.501849 25.0468 0.449829 24.8481 0.449829C24.6495 0.449829 24.4543 0.501849 24.2819 0.600712C24.1096 0.699576 23.9662 0.841838 23.8659 1.01334Z" fill="#1A202C"/>
</g>
<defs>
<clipPath id="clip0_2390_5085">
<rect width="32" height="32" fill="white"/>
</clipPath>
</defs>
</svg>
