<svg width="70" height="72" viewBox="0 0 70 72" fill="none" xmlns="http://www.w3.org/2000/svg">
<path d="M35.5046 14.5025C41.1535 14.5025 46.8024 14.5025 52.4513 14.5025C55.704 14.5025 58 16.7985 58 20.0603C58 28.1237 58 36.187 58 44.2504C58 47.4393 55.6767 49.7718 52.4969 49.7718C49.3262 49.7718 46.1464 49.7809 42.9757 49.7627C42.5566 49.7627 42.511 49.8629 42.6113 50.2364C42.8755 51.2022 43.1215 52.168 43.3402 53.1429C43.413 53.4527 43.5497 53.5073 43.8322 53.5073C45.0439 53.4982 46.2648 53.4709 47.4766 53.5165C48.898 53.5711 49.6724 55.0107 48.98 56.2498C48.6793 56.8056 48.2055 57.1336 47.5677 57.1974C47.3582 57.2156 47.1395 57.2247 46.9299 57.2247C39.2492 57.2247 31.5594 57.2247 23.8787 57.2247C23.6327 57.2247 23.3958 57.2156 23.1498 57.1883C22.2387 57.0607 21.5645 56.2225 21.5918 55.2931C21.6283 54.2818 22.2569 53.562 23.2409 53.5256C24.5438 53.48 25.8558 53.4891 27.1587 53.5073C27.4958 53.5165 27.5961 53.398 27.669 53.0973C27.8876 52.1498 28.1154 51.2113 28.3796 50.282C28.4981 49.872 28.4434 49.7536 27.9879 49.7627C25.2089 49.7809 22.43 49.7718 19.6511 49.7718C19.2685 49.7718 18.8949 49.7718 18.5122 49.7718C15.3689 49.7718 13.1549 47.6398 13.0091 44.5055C13 44.3962 13 44.296 13 44.1866C13 36.0048 13 27.8139 13 19.6321C13 17.2085 14.64 15.1403 16.9542 14.6027C17.4918 14.4752 18.0385 14.5025 18.5851 14.5025C24.2341 14.5025 29.8739 14.5025 35.5046 14.5025ZM35.4134 38.5742C41.4724 38.5742 47.5313 38.5742 53.5902 38.5833C53.982 38.5833 54.0913 38.5013 54.0913 38.0913C54.0731 32.005 54.0822 25.9097 54.0822 19.8234C54.0822 18.6936 53.4353 18.0376 52.3146 18.0376C41.0441 18.0376 29.7827 18.0376 18.5122 18.0376C17.3916 18.0376 16.7447 18.6936 16.7447 19.8234C16.7447 25.9097 16.7538 32.005 16.7356 38.0913C16.7356 38.5013 16.8449 38.5833 17.2367 38.5833C23.2956 38.5742 29.3545 38.5742 35.4134 38.5742Z" fill="#9C171E"/>
<path d="M43.6129 36.9772C43.582 36.9261 43.5344 36.956 43.4977 36.9597C43.0151 36.9914 42.5702 36.8752 42.1448 36.6506C40.958 36.0212 39.7655 35.3974 38.5811 34.7635C38.4363 34.687 38.3592 34.7071 38.247 34.8099C37.2728 35.7017 36.1751 36.3779 34.8892 36.7146C32.5833 37.3173 30.4187 36.9673 28.4323 35.6495C26.773 34.545 25.7084 32.9992 25.2119 31.0734C24.403 27.9527 25.6197 24.634 28.2433 22.7554C31.8217 20.1917 36.7928 21.0569 39.2925 24.6854C40.4946 26.4311 40.8592 28.3711 40.5581 30.4487C40.5367 30.5879 40.5697 30.6458 40.6919 30.7103C41.8744 31.3259 43.0521 31.9505 44.2297 32.5751C45.2842 33.1318 45.7697 34.3111 45.4116 35.4443C45.2234 36.0365 44.8363 36.4628 44.2764 36.7343C44.2532 36.7452 44.2335 36.7551 44.2352 36.7849C44.0277 36.849 43.8203 36.9131 43.6129 36.9772ZM34.591 34.8791C37.7727 33.8998 39.5441 30.5499 38.5648 27.3682C37.5866 24.1899 34.2253 22.4183 31.0481 23.3999C27.8788 24.3829 26.1099 27.7283 27.0825 30.9007C28.0537 34.0811 31.4127 35.8573 34.591 34.8791Z" fill="#9C171E"/>
</svg>
