<svg width="70" height="72" viewBox="0 0 70 72" fill="none" xmlns="http://www.w3.org/2000/svg">
<path d="M35.5046 14.9341C41.1535 14.9341 46.8024 14.9341 52.4513 14.9341C55.704 14.9341 58 17.2301 58 20.4919C58 28.5553 58 36.6187 58 44.6821C58 47.871 55.6767 50.2034 52.4969 50.2034C49.3262 50.2034 46.1464 50.2125 42.9757 50.1943C42.5566 50.1943 42.511 50.2945 42.6113 50.6681C42.8755 51.6339 43.1215 52.5996 43.3402 53.5745C43.413 53.8843 43.5497 53.939 43.8322 53.939C45.0439 53.9299 46.2648 53.9025 47.4766 53.9481C48.898 54.0028 49.6724 55.4423 48.98 56.6814C48.6793 57.2372 48.2055 57.5652 47.5677 57.629C47.3582 57.6472 47.1395 57.6563 46.9299 57.6563C39.2492 57.6563 31.5594 57.6563 23.8787 57.6563C23.6327 57.6563 23.3958 57.6472 23.1498 57.6199C22.2387 57.4923 21.5645 56.6541 21.5918 55.7248C21.6283 54.7134 22.2569 53.9937 23.2409 53.9572C24.5438 53.9117 25.8558 53.9208 27.1587 53.939C27.4958 53.9481 27.5961 53.8296 27.669 53.529C27.8876 52.5814 28.1154 51.643 28.3796 50.7136C28.4981 50.3036 28.4434 50.1852 27.9879 50.1943C25.2089 50.2125 22.43 50.2034 19.6511 50.2034C19.2685 50.2034 18.8949 50.2034 18.5122 50.2034C15.3689 50.2034 13.1549 48.0714 13.0091 44.9372C13 44.8278 13 44.7276 13 44.6183C13 36.4365 13 28.2455 13 20.0637C13 17.6401 14.64 15.5719 16.9542 15.0344C17.4918 14.9068 18.0385 14.9341 18.5851 14.9341C24.2341 14.9341 29.8739 14.9341 35.5046 14.9341ZM35.4134 39.0058C41.4724 39.0058 47.5313 39.0058 53.5902 39.0149C53.982 39.0149 54.0913 38.9329 54.0913 38.5229C54.0731 32.4367 54.0822 26.3413 54.0822 20.255C54.0822 19.1253 53.4353 18.4693 52.3146 18.4693C41.0441 18.4693 29.7827 18.4693 18.5122 18.4693C17.3916 18.4693 16.7447 19.1253 16.7447 20.255C16.7447 26.3413 16.7538 32.4367 16.7356 38.5229C16.7356 38.9329 16.8449 39.0149 17.2367 39.0149C23.2956 39.0058 29.3545 39.0058 35.4134 39.0058Z" fill="#9C171E"/>
<path d="M44.7154 35.2702C43.6402 35.2702 42.556 35.252 41.4809 35.2793C41.1164 35.2884 40.998 35.1973 40.9798 34.8147C40.8613 32.136 39.1302 30.1224 36.5062 29.5757C33.1715 28.8742 30.0099 31.2795 29.8368 34.6871C29.8095 35.1973 29.6637 35.2884 29.1808 35.2793C27.0397 35.252 24.8986 35.2611 22.7575 35.2793C22.4112 35.2793 22.2837 35.1973 22.3384 34.8511C22.3566 34.7144 22.3384 34.5778 22.3384 34.4411C22.3384 33.0106 22.9944 32.3364 24.4248 32.2818C25.3997 32.2453 26.2379 31.398 26.247 30.4231C26.2561 29.9949 26.0739 29.6486 25.7459 29.348C24.6617 28.3548 24.6526 27.3435 25.7004 26.2957C26.1013 25.8948 26.4839 25.4848 26.903 25.1113C27.5499 24.5282 28.4246 24.4735 29.1262 24.9564C29.2173 25.0202 29.3084 25.0748 29.3631 25.1568C29.8733 25.8675 30.4655 26.0224 31.5588 25.7217C32.1055 25.5759 32.5246 24.9564 32.5702 24.2366C32.5793 24.1273 32.5793 24.027 32.5793 23.9177C32.6248 22.8062 33.372 22.0499 34.4835 22.0135C35.012 21.9953 35.5495 21.9953 36.078 22.0135C37.1986 22.0499 37.9458 22.7879 38.0004 23.9086C38.0095 24.0726 38.0004 24.2457 38.0278 24.4097C38.128 25.0111 38.4013 25.5213 39.0118 25.7126C40.0322 26.0315 40.6609 25.8675 41.1347 25.2388C41.8453 24.3004 43.0571 24.1728 43.9227 24.9746C44.3782 25.3937 44.8156 25.8402 45.2438 26.2957C46.0365 27.134 46.0365 28.1362 45.2256 28.9653C44.7609 29.4391 44.4147 29.9493 44.5513 30.66C44.7153 31.5164 45.5354 32.218 46.4465 32.2818C47.7038 32.3729 48.4327 33.1564 48.4327 34.4138C48.4327 35.2793 48.4327 35.2793 47.5489 35.2793C46.6287 35.2702 45.672 35.2702 44.7154 35.2702Z" fill="#9C171E"/>
</svg>
