<svg width="34" height="34" viewBox="0 0 34 34" fill="none" xmlns="http://www.w3.org/2000/svg">
<path d="M5.66732 31.1667C4.88815 31.1667 4.22137 30.8895 3.66698 30.3351C3.11165 29.7798 2.83398 29.1125 2.83398 28.3334V16.0438C2.83398 15.4771 2.98746 14.9577 3.2944 14.4855C3.60135 14.0132 4.01454 13.6591 4.53398 13.423L10.7673 10.7667C11.2395 10.5778 11.6882 10.6189 12.1132 10.89C12.5382 11.162 12.7507 11.5577 12.7507 12.0771V12.75L17.8861 10.6959C18.3583 10.507 18.8008 10.5542 19.2135 10.8375C19.6272 11.1209 19.834 11.5105 19.834 12.0063V14.1667H31.1673V28.3334C31.1673 29.1125 30.8901 29.7798 30.3357 30.3351C29.7804 30.8895 29.1131 31.1667 28.334 31.1667H5.66732ZM28.334 17H17.0007V14.0959L9.91732 16.9292V14.1667L5.66732 16.0438V28.3334H28.334V17ZM17.0007 25.5C17.402 25.5 17.7387 25.364 18.0107 25.092C18.2818 24.821 18.4173 24.4848 18.4173 24.0834V21.25C18.4173 20.8487 18.2818 20.512 18.0107 20.24C17.7387 19.9689 17.402 19.8334 17.0007 19.8334C16.5993 19.8334 16.263 19.9689 15.992 20.24C15.72 20.512 15.584 20.8487 15.584 21.25V24.0834C15.584 24.4848 15.72 24.821 15.992 25.092C16.263 25.364 16.5993 25.5 17.0007 25.5ZM11.334 25.5C11.7354 25.5 12.0721 25.364 12.3441 25.092C12.6151 24.821 12.7507 24.4848 12.7507 24.0834V21.25C12.7507 20.8487 12.6151 20.512 12.3441 20.24C12.0721 19.9689 11.7354 19.8334 11.334 19.8334C10.9326 19.8334 10.5959 19.9689 10.3239 20.24C10.0528 20.512 9.91732 20.8487 9.91732 21.25V24.0834C9.91732 24.4848 10.0528 24.821 10.3239 25.092C10.5959 25.364 10.9326 25.5 11.334 25.5ZM22.6673 25.5C23.0687 25.5 23.4049 25.364 23.676 25.092C23.948 24.821 24.084 24.4848 24.084 24.0834V21.25C24.084 20.8487 23.948 20.512 23.676 20.24C23.4049 19.9689 23.0687 19.8334 22.6673 19.8334C22.2659 19.8334 21.9297 19.9689 21.6587 20.24C21.3867 20.512 21.2507 20.8487 21.2507 21.25V24.0834C21.2507 24.4848 21.3867 24.821 21.6587 25.092C21.9297 25.364 22.2659 25.5 22.6673 25.5ZM31.1673 14.1667H24.084L25.359 4.07296C25.4062 3.71879 25.5597 3.42365 25.8194 3.18754C26.0791 2.95143 26.3861 2.83337 26.7402 2.83337H28.5111C28.8652 2.83337 29.1722 2.95143 29.4319 3.18754C29.6916 3.42365 29.8451 3.71879 29.8923 4.07296L31.1673 14.1667ZM28.334 28.3334H5.66732H28.334Z" fill="black"/>
</svg>
