<svg width="70" height="71" viewBox="0 0 70 71" fill="none" xmlns="http://www.w3.org/2000/svg">
<path d="M58 36.7863C58 41.4968 58 46.1986 58 50.9091C57.8857 50.9354 57.9033 51.0407 57.877 51.1196C57.2793 52.9705 55.9785 53.9179 54.0098 53.9179C41.6699 53.9179 29.3301 53.9179 16.9902 53.9179C16.8584 53.9179 16.7266 53.9179 16.5947 53.9091C15.0039 53.8477 13.6504 52.8038 13.167 51.2951C13.123 51.1635 13.1494 50.9968 13 50.9179C13 46.2073 13 41.5056 13 36.7951C13.4307 36.1021 13.9404 35.9266 14.5117 36.3301C15.2939 36.8828 16.1553 37.0933 17.1133 37.0845C21.8594 37.067 26.5967 37.0845 31.3428 37.067C31.668 37.067 31.7647 37.1459 31.7559 37.4793C31.7295 38.2073 31.7471 38.9442 31.7471 39.6723C31.7471 40.4793 32.0986 40.8302 32.8896 40.8302C34.6299 40.8302 36.3701 40.8302 38.1191 40.8302C38.9102 40.8302 39.2617 40.4793 39.2617 39.6723C39.2617 38.9705 39.2881 38.2687 39.2529 37.567C39.2354 37.1635 39.3496 37.067 39.7539 37.067C44.5088 37.0845 49.2725 37.0758 54.0273 37.0845C54.8535 37.0845 55.6182 36.9091 56.3125 36.453C57.0859 35.9179 57.5078 36.0144 58 36.7863Z" fill="#9C171E"/>
<path d="M58 25.2074C58 27.5495 58 29.8828 58 32.2249C57.9033 32.2337 57.9033 32.3214 57.8857 32.3828C57.209 34.3302 55.9785 35.2074 53.8955 35.2074C49.2813 35.2074 44.667 35.2074 40.0615 35.2074C39.2793 35.2074 39.2793 35.2074 39.2617 34.4267C39.2441 33.6986 38.9102 33.3477 38.1807 33.3477C36.3965 33.3389 34.6035 33.3389 32.8193 33.3477C32.0986 33.3477 31.7559 33.6986 31.7471 34.4267C31.7471 34.5758 31.7295 34.7161 31.7471 34.8653C31.7734 35.1196 31.7119 35.2161 31.4219 35.2161C26.5 35.2074 21.5781 35.2161 16.665 35.1986C15.0654 35.1898 13.668 34.1196 13.1758 32.5933C13.1318 32.4618 13.1582 32.2951 13 32.2249C13 29.8565 13 27.4881 13 25.1196C13.0264 25.0933 13.0703 25.067 13.0879 25.0407C13.8525 22.9091 14.96 22.1196 17.21 22.1196C20.0488 22.1196 22.8877 22.1109 25.7354 22.1284C26.0342 22.1284 26.1484 22.0582 26.1309 21.7424C26.1045 21.2512 26.1133 20.7512 26.1309 20.2512C26.1924 18.1723 27.7129 16.5407 29.7344 16.5231C33.584 16.4881 37.4336 16.4968 41.2832 16.5231C42.9531 16.5319 44.3242 17.6898 44.7549 19.3038C44.9658 20.0845 44.8955 20.874 44.8779 21.6547C44.8691 22.0495 44.9746 22.1372 45.3613 22.1284C48.2881 22.1109 51.2148 22.1109 54.1504 22.1196C56.0752 22.1284 57.4551 23.2161 57.9209 25.0846C57.9209 25.1372 57.9297 25.1898 58 25.2074ZM35.5439 20.2249C33.7773 20.2249 32.002 20.2337 30.2354 20.2161C29.9629 20.2161 29.8398 20.26 29.8662 20.567C29.8926 20.9881 29.8838 21.4091 29.8662 21.8389C29.8574 22.0495 29.9189 22.1109 30.1387 22.1109C33.707 22.1021 37.2754 22.1021 40.8438 22.1109C41.0898 22.1109 41.1338 22.0144 41.125 21.8038C41.1162 21.4091 41.0986 21.0144 41.125 20.6196C41.1514 20.2951 41.0547 20.2074 40.7207 20.2074C38.998 20.2424 37.2754 20.2249 35.5439 20.2249Z" fill="#9C171E"/>
</svg>
