<svg width="70" height="70" viewBox="0 0 70 70" fill="none" xmlns="http://www.w3.org/2000/svg">
<path d="M51.8447 57.3494C51.5442 57.3287 51.3162 57.2046 51.0985 57.0184C50.0414 56.0565 48.8185 55.8186 47.5023 56.3771C46.2069 56.9253 45.554 57.9597 45.4711 59.356C45.4296 60.0387 45.0772 60.38 44.3829 60.3904C43.4812 60.4007 42.59 60.4007 41.6883 60.3904C40.8903 60.3904 40.538 60.049 40.4965 59.2319C40.3721 56.915 37.9574 55.4359 35.8536 56.3668C35.5012 56.5219 35.2007 56.7391 34.9105 56.9977C34.3508 57.4942 33.8638 57.4735 33.3248 56.946C32.7134 56.3461 32.1019 55.7255 31.4905 55.1152C30.879 54.4946 30.8687 54.0912 31.4387 53.4189C33.045 51.5674 32.247 48.7126 29.9256 48.0403C29.6147 47.9472 29.283 47.9265 28.9617 47.8851C28.3917 47.8231 28.0083 47.5128 27.9979 46.9439C27.9668 45.9302 27.9668 44.9062 27.9979 43.8926C28.0187 43.2719 28.4125 42.9616 29.1172 42.9203C31.0138 42.8065 32.3818 41.3067 32.2988 39.4242C32.2678 38.6588 31.9672 37.9968 31.4594 37.4175C30.8583 36.7349 30.879 36.3315 31.5319 35.6798C32.133 35.0799 32.7238 34.48 33.3248 33.8904C33.8741 33.3526 34.3405 33.3319 34.9105 33.8284C35.9676 34.7593 37.1594 35.0075 38.4652 34.4593C39.7607 33.9111 40.4447 32.9078 40.5069 31.4907C40.5379 30.8081 40.9007 30.4461 41.5847 30.4254C42.5381 30.4047 43.4812 30.4047 44.4347 30.4254C45.098 30.4461 45.44 30.7977 45.4814 31.4597C45.5643 32.8871 46.238 33.9215 47.5541 34.4697C48.86 35.0075 50.0518 34.7489 51.1089 33.8077C51.6582 33.3215 52.1245 33.3422 52.6531 33.8594C53.2852 34.48 53.9071 35.1006 54.5185 35.7212C55.0989 36.3005 55.0989 36.7659 54.56 37.3762C52.85 39.3207 53.8138 42.2997 56.3322 42.8479C56.4669 42.8789 56.6016 42.8892 56.7467 42.8996C57.7105 42.9616 58.0007 43.2616 58.0007 44.2029C58.0007 45.0303 58.0007 45.8578 58.0007 46.6853C58.0007 47.4817 57.6898 47.8127 56.9022 47.8748C55.5238 47.9679 54.5082 48.6299 53.9693 49.9021C53.4303 51.1744 53.648 52.3638 54.56 53.4085C55.1093 54.0395 55.0989 54.4843 54.5289 55.0738C53.9071 55.7048 53.2852 56.3151 52.6634 56.9357C52.4251 57.1942 52.166 57.3391 51.8447 57.3494ZM42.9941 51.5157C46.3831 51.5157 49.1087 48.7954 49.1087 45.413C49.1087 42.0411 46.3727 39.3001 42.9941 39.3001C39.6363 39.3001 36.8692 42.0618 36.8692 45.413C36.8692 48.7747 39.6156 51.5157 42.9941 51.5157Z" fill="#9C171E"/>
<path d="M13.0217 16.6168C15.8303 18.1993 18.8357 18.8199 21.9034 19.2337C24.7223 19.6164 27.5412 19.7095 30.3809 19.5233C33.6972 19.2957 36.9618 18.8199 40.0294 17.4546C40.4958 17.2477 40.9414 16.9892 41.4492 16.7306C41.4492 18.0442 41.4492 19.3164 41.4492 20.5783C41.4492 21.2713 41.4181 21.954 41.4596 22.647C41.4907 23.2469 41.2523 23.671 40.8171 24.0331C39.9776 24.7468 38.9827 25.1812 37.9463 25.5225C34.5678 26.6603 31.0856 27.0016 27.5412 26.9913C23.7999 26.9809 20.1001 26.5879 16.5246 25.4087C15.5712 25.0984 14.6592 24.695 13.8405 24.1055C13.2808 23.6917 12.9803 23.2056 13.001 22.4505C13.0528 20.537 13.0217 18.6131 13.0217 16.6168Z" fill="#9C171E"/>
<path d="M28.3183 9.50043C31.1062 9.5418 34.5158 9.84176 37.8115 10.9278C38.568 11.1761 39.2935 11.4864 39.9775 11.8794C40.3402 12.0863 40.6822 12.3242 40.9724 12.6242C41.5942 13.2551 41.5942 13.7309 40.9827 14.3619C40.4853 14.8687 39.8635 15.2204 39.2209 15.51C37.0342 16.503 34.7024 16.9684 32.3394 17.227C27.9142 17.7131 23.52 17.5683 19.1569 16.6271C17.8096 16.3375 16.4831 15.9651 15.2291 15.3859C14.628 15.1066 14.058 14.8066 13.5709 14.3619C12.8558 13.7102 12.8558 13.2655 13.5916 12.6138C14.0476 12.2104 14.5761 11.9208 15.1254 11.6622C16.9391 10.8244 18.8667 10.3693 20.8151 10.0486C23.0743 9.66593 25.3647 9.49009 28.3183 9.50043Z" fill="#9C171E"/>
<path d="M13.0218 26.1223C14.3898 26.9188 15.7889 27.4566 17.2502 27.8497C21.1884 28.8944 25.1888 29.2357 29.2513 29.0909C32.2568 28.9875 35.2312 28.6047 38.1123 27.7049C39.2523 27.3532 40.3404 26.8981 41.439 26.2154C41.439 26.9084 41.439 27.529 41.439 28.1496C41.439 28.3255 41.3146 28.3255 41.2006 28.3358C39.5943 28.4806 38.361 29.9184 38.3921 31.4492C38.4024 31.956 38.1226 32.3387 37.6459 32.5353C37.1692 32.7214 36.7132 32.649 36.3504 32.287C35.2001 31.1079 33.1066 30.9631 31.7075 32.5146C31.1686 33.1145 30.5675 33.673 29.9871 34.2316C29.4275 34.7798 29.0337 35.4107 28.9611 36.1968C28.9404 36.4244 28.8679 36.5175 28.6191 36.5175C24.3182 36.5796 20.0691 36.2072 15.9858 34.7384C15.1464 34.4385 14.338 34.0454 13.6437 33.4558C13.2291 33.1042 13.0115 32.7008 13.0218 32.1112C13.0426 30.1459 13.0218 28.1703 13.0218 26.1223Z" fill="#9C171E"/>
<path d="M13.0225 45.1854C16.3803 47.0369 20.0076 47.6368 23.6867 47.9885C24.0287 48.0195 24.381 48.0816 24.723 48.0712C25.5417 48.0402 26.205 48.1437 26.7025 48.9608C27.1481 49.6952 27.9979 49.9641 28.8581 50.0055C29.4281 50.0262 29.8841 50.2227 30.0914 50.7709C30.2987 51.3088 30.1121 51.7535 29.7287 52.1776C28.8581 53.1602 28.7234 54.2877 29.1794 55.5289C27.117 55.6013 25.0857 55.5496 23.0545 55.3324C20.6294 55.0634 18.2457 54.6393 15.9554 53.7705C15.1159 53.4499 14.3075 53.0671 13.6132 52.4879C13.209 52.1466 13.0017 51.7535 13.0121 51.195C13.0432 49.1987 13.0225 47.2127 13.0225 45.1854Z" fill="#9C171E"/>
<path d="M13.0226 35.6488C16.0073 37.3348 19.2097 37.9554 22.4639 38.3484C24.7439 38.6174 27.0343 38.7415 29.335 38.5967C29.8117 38.5657 29.9775 38.8863 30.1019 39.2173C30.4025 40.0137 29.8221 40.7688 28.8894 40.8309C27.0757 40.9447 25.8839 42.2272 25.8735 44.0374C25.8735 44.5856 25.8632 45.1441 25.8735 45.6923C25.8839 45.9302 25.8321 46.0233 25.5626 46.013C22.0286 45.7854 18.5257 45.3613 15.2301 43.9443C14.5771 43.665 13.9657 43.3133 13.4475 42.8168C13.147 42.5272 13.0019 42.1962 13.0122 41.7618C13.033 39.7345 13.0226 37.7278 13.0226 35.6488Z" fill="#9C171E"/>
</svg>
