<svg width="45" height="46" viewBox="0 0 45 46" fill="none" xmlns="http://www.w3.org/2000/svg">
<path d="M44.9993 24.9738C42.4417 29.1229 39.5061 33.0089 36.7112 36.9913C35.2347 39.0878 33.055 40.1141 30.4886 40.1404C25.5403 40.1755 20.5921 40.1492 15.6438 40.158C15.4065 40.158 15.2923 40.0966 15.178 39.8773C12.7786 35.0615 10.3792 30.2545 7.97098 25.4387C7.90067 25.3071 7.77762 25.1931 7.96219 25.0264C9.29813 23.8246 10.6341 22.6053 12.3479 21.965C15.969 20.6141 19.3001 21.0966 22.2268 23.7106C22.719 24.1492 23.2376 24.386 23.9231 24.3685C26.094 24.3334 28.2561 24.351 30.427 24.3597C31.7542 24.3685 32.8352 25.3334 33.0286 26.6404C33.2044 27.8597 32.4485 29.079 31.2444 29.4825C30.9368 29.5878 30.6204 29.6229 30.2952 29.6229C28.6253 29.6229 26.9554 29.6229 25.2854 29.6229C24.3977 29.6229 23.8089 30.1667 23.8177 30.9562C23.8265 31.7281 24.4065 32.2545 25.2766 32.2545C27.2366 32.2545 29.2054 32.272 31.1653 32.2457C32.0882 32.2369 32.8616 31.8773 33.4505 31.1492C35.7093 28.3685 37.9768 25.5966 40.2356 22.8159C40.9124 21.9825 41.7649 21.579 42.8196 21.772C43.927 21.9738 44.639 22.6492 44.9202 23.7545C44.929 23.7895 44.9729 23.8071 44.9993 23.8334C44.9993 24.2106 44.9993 24.5966 44.9993 24.9738Z" fill="#9C171E"/>
<path d="M0 27.8685C0.764648 26.8334 1.94238 26.465 3.06738 26.079C4.23633 25.6755 5.4668 26.3422 6.07324 27.5439C7.48828 30.3597 8.88574 33.1755 10.292 35.9825C11.0742 37.544 11.8564 39.1054 12.6387 40.6755C13.4385 42.2896 12.9463 43.7369 11.3203 44.5352C10.7139 44.8334 10.1074 45.1229 9.50098 45.4124C9.26367 45.4124 9.03516 45.4124 8.79785 45.4124C8.20898 45.079 7.9541 44.4826 7.67285 43.9124C6.17871 40.9124 4.67578 37.9211 3.17285 34.9211C2.11816 32.8247 1.06348 30.7369 0.00878906 28.6492C0 28.3948 0 28.1317 0 27.8685Z" fill="#9C171E"/>
<path d="M29.6892 11.2193C30.7351 12.3859 31.3943 13.7456 31.6404 15.2982C31.7722 16.0965 31.7283 16.9035 31.7283 17.7017C31.7283 18.5438 31.1746 19.0877 30.3132 19.0877C28.1423 19.0965 25.9802 19.0877 23.8093 19.0877C21.6384 19.0877 19.4763 19.0877 17.3054 19.0877C16.3386 19.0877 15.8377 18.5614 15.8113 17.5965C15.7673 16.0351 15.8728 14.5 16.6023 13.0789C16.8923 12.5 17.2439 11.9737 17.6394 11.4649C17.8152 11.2456 17.9031 11.228 18.1228 11.4386C19.6609 12.9737 21.5242 13.7894 23.7039 13.8245C25.866 13.8596 27.7293 13.0789 29.2937 11.5877C29.408 11.4737 29.5222 11.3596 29.6365 11.2544C29.6453 11.2456 29.6541 11.2456 29.6892 11.2193Z" fill="#9C171E"/>
<path d="M29.0918 5.85968C29.0918 8.77196 26.6924 11.2018 23.8184 11.2018C20.918 11.2018 18.4483 8.73687 18.4571 5.84213C18.4571 2.94739 20.9356 0.491251 23.8447 0.500023C26.71 0.508795 29.0918 2.94739 29.0918 5.85968Z" fill="#9C171E"/>
</svg>
