<svg width="43" height="34" viewBox="0 0 43 34" fill="none" xmlns="http://www.w3.org/2000/svg">
<path d="M0.1875 33.875V23.75C0.1875 20.9583 0.729167 18.1042 1.8125 15.1875C2.9375 12.2708 4.375 9.54167 6.125 7C7.91667 4.41667 9.77083 2.25 11.6875 0.5L20.875 5.5C19.5833 7.875 18.375 10.5 17.25 13.375C16.1667 16.25 15.625 19.7292 15.625 23.8125V33.875H0.1875ZM22.125 33.875V23.75C22.125 20.9583 22.6667 18.1042 23.75 15.1875C24.875 12.2708 26.3125 9.54167 28.0625 7C29.8542 4.41667 31.7083 2.25 33.625 0.5L42.8125 5.5C41.5208 7.875 40.3125 10.5 39.1875 13.375C38.1042 16.25 37.5625 19.7292 37.5625 23.8125V33.875H22.125Z" fill="#9C171E"/>
</svg>
