<svg width="70" height="70" viewBox="0 0 70 70" fill="none" xmlns="http://www.w3.org/2000/svg">
<path d="M16.2707 61.2943C16.1582 61.1104 15.9433 61.1411 15.7796 61.0798C14.1732 60.4671 13.2011 59.3131 13.0272 57.6077C12.8532 55.9635 13.5183 54.6359 14.9303 53.7576C16.3731 52.859 17.867 52.8896 19.3097 53.7985C19.6064 53.9823 19.8008 53.9721 20.0771 53.8189C21.5096 53.0122 22.9523 52.2054 24.3951 51.419C24.6713 51.2659 24.7839 51.1127 24.7737 50.7961C24.7532 49.8259 24.7634 48.8558 24.7737 47.8856C24.7737 47.7426 24.6713 47.518 24.9681 47.518C25.9913 47.4976 26.8713 47.0584 27.7103 46.5274C27.7308 46.5172 27.7717 46.5274 27.8331 46.5274C27.8331 48.4473 27.8535 50.357 27.8228 52.2769C27.8126 52.859 27.4238 53.2572 26.9122 53.5432C25.1318 54.5236 23.3514 55.5244 21.5608 56.4945C21.264 56.6579 21.1822 56.8315 21.1822 57.1685C21.2129 59.2008 19.8111 60.8654 17.8056 61.2228C17.7646 61.233 17.7442 61.2841 17.7135 61.3147C17.2223 61.2943 16.7517 61.2943 16.2707 61.2943Z" fill="#9C171E"/>
<path d="M53.1075 61.2943C53.0154 61.1206 52.821 61.1513 52.6675 61.1002C50.9485 60.5181 49.8127 58.9659 49.8434 57.1583C49.8536 56.7907 49.7206 56.6273 49.4239 56.4639C47.756 55.555 46.1087 54.595 44.4204 53.7168C43.5302 53.247 43.1311 52.6241 43.1618 51.6131C43.2232 49.9178 43.1823 48.2226 43.1823 46.4559C43.9394 46.8848 44.625 47.3239 45.4436 47.4567C46.2519 47.5895 46.2519 47.6099 46.2519 48.4473C46.2519 49.2438 46.2621 50.0506 46.2417 50.8472C46.2417 51.0922 46.2928 51.2454 46.5282 51.368C48.0221 52.1747 49.5057 53.0019 50.9792 53.8393C51.2554 53.9925 51.4294 53.9619 51.6954 53.7985C53.1586 52.8896 54.673 52.859 56.1157 53.7883C57.5277 54.6972 58.1826 56.0554 57.9575 57.7098C57.7324 59.4458 56.7092 60.5896 55.0209 61.1411C54.8572 61.1921 54.6423 61.09 54.5195 61.2943C54.059 61.2943 53.5884 61.2943 53.1075 61.2943Z" fill="#9C171E"/>
<path d="M34.6877 61.2942C34.6161 61.1206 34.4319 61.1512 34.2989 61.1103C32.6822 60.5691 31.5669 59.2007 31.4237 57.5667C31.2804 55.9123 32.1399 54.3703 33.6441 53.5839C33.8999 53.4512 33.9817 53.3184 33.9715 53.0427C33.951 52.4095 33.9715 51.7866 33.9613 51.1534C33.9613 50.9288 34.0227 50.8675 34.2478 50.8675C35.0868 50.8777 35.9156 50.8879 36.7546 50.8675C37.0411 50.8573 37.0411 50.99 37.0411 51.2045C37.0309 51.7866 37.0616 52.3585 37.0309 52.9406C37.0104 53.2878 37.1332 53.4716 37.4504 53.635C38.9136 54.4111 39.7527 56.0145 39.5787 57.6178C39.3945 59.2926 38.2178 60.6916 36.6114 61.1512C36.4477 61.2023 36.2328 61.1001 36.11 61.3044C35.6393 61.2942 35.1687 61.2942 34.6877 61.2942Z" fill="#9C171E"/>
<path d="M51.5813 17.6778C51.6018 17.9944 51.4687 18.2906 51.2948 18.5663C50.9264 19.179 50.5785 19.802 50.1897 20.3943C50.026 20.6496 49.9851 20.8538 50.1386 21.1398C50.5069 21.8138 50.7934 22.5184 51.0083 23.2537C51.0901 23.5294 51.2334 23.6316 51.4892 23.6928C52.2157 23.8664 52.9422 24.04 53.6686 24.2341C54.5077 24.4485 54.9374 24.9898 54.9374 25.8476C54.9477 27.553 54.9477 29.2483 54.9374 30.9537C54.9374 31.8422 54.5077 32.3732 53.638 32.5979C52.9319 32.7817 52.2259 32.9553 51.5097 33.1187C51.2436 33.18 51.0799 33.3025 50.9981 33.5885C50.7832 34.3237 50.4865 35.0284 50.1283 35.7024C50.0055 35.9475 50.0055 36.1211 50.1488 36.356C50.5478 36.9891 50.9367 37.6325 51.305 38.2759C51.745 39.0418 51.6734 39.6954 51.0594 40.3183C49.8623 41.5234 48.6549 42.7284 47.4475 43.9334C46.8131 44.5666 46.1582 44.6381 45.3704 44.1683C44.736 43.8007 44.1118 43.4228 43.4877 43.0348C43.2625 42.8918 43.0886 42.8612 42.8328 43.0041C42.1472 43.3718 41.4208 43.6679 40.6636 43.8926C40.3873 43.9743 40.285 44.1173 40.2236 44.3726C40.0599 45.0874 39.8757 45.7921 39.7018 46.4967C39.4766 47.3954 38.9446 47.8141 38.0237 47.8141C36.3558 47.8141 34.6778 47.8141 33.0099 47.8141C32.0583 47.8141 31.5467 47.4056 31.3012 46.4661C31.1272 45.7716 30.943 45.0874 30.7895 44.393C30.7282 44.1173 30.5951 43.9641 30.3086 43.8824C29.5719 43.6679 28.8659 43.3718 28.1906 43.0143C27.945 42.8816 27.7608 42.902 27.5357 43.045C26.9013 43.4433 26.2567 43.8211 25.6121 44.199C24.8447 44.6381 24.2 44.5666 23.5759 43.9539C22.3685 42.759 21.1611 41.554 19.9639 40.349C19.3295 39.7158 19.2579 39.0622 19.7286 38.2759C20.0969 37.6427 20.4755 37.0198 20.8644 36.3968C20.9974 36.1722 21.0383 35.9986 20.9053 35.7432C20.5369 35.059 20.2402 34.334 20.0151 33.5885C19.9332 33.3127 19.79 33.2004 19.5342 33.1493C18.8179 32.9859 18.1119 32.8123 17.4059 32.6285C16.5055 32.4039 16.0859 31.8728 16.0859 30.9537C16.0859 29.2891 16.0859 27.6143 16.0859 25.9497C16.0859 24.9898 16.4952 24.4894 17.4366 24.2545C18.1119 24.0809 18.7872 23.9073 19.4625 23.7541C19.749 23.6928 19.9332 23.5805 20.0253 23.2639C20.2402 22.5286 20.5369 21.824 20.8951 21.15C21.0281 20.9049 21.0178 20.7313 20.8746 20.4964C20.4755 19.8632 20.0969 19.2199 19.7184 18.5765C19.2579 17.78 19.3295 17.1264 19.9435 16.5034C21.1406 15.2984 22.348 14.0933 23.5554 12.8883C24.2 12.2551 24.8447 12.1837 25.6325 12.6432C26.2669 13.0108 26.8911 13.3785 27.5153 13.7768C27.7608 13.9402 27.9655 13.9299 28.211 13.7972C28.8864 13.4295 29.5924 13.1436 30.3291 12.9292C30.5951 12.8475 30.7179 12.7045 30.7691 12.4492C30.943 11.7241 31.117 10.999 31.3012 10.274C31.516 9.43657 32.0583 9.00766 32.9178 9.00766C34.6266 8.99745 36.3251 8.99745 38.0339 9.00766C38.9241 9.00766 39.4562 9.43657 39.6813 10.3046C39.8552 10.999 40.0292 11.6833 40.1929 12.3777C40.2543 12.6636 40.3566 12.8372 40.684 12.9292C41.4003 13.1436 42.0961 13.4193 42.7509 13.787C43.0477 13.9504 43.2625 13.9095 43.5388 13.7359C44.1323 13.3479 44.7564 12.9904 45.3704 12.633C46.1276 12.1939 46.7926 12.2654 47.4066 12.8781C48.6344 14.0831 49.8418 15.3086 51.0594 16.5239C51.4073 16.8404 51.5915 17.2081 51.5813 17.6778ZM42.6691 28.4313C42.6793 24.4894 39.4869 21.2827 35.5577 21.2623C31.5877 21.2419 28.3543 24.4383 28.3441 28.3904C28.3338 32.3324 31.5263 35.539 35.4554 35.5594C39.4255 35.5799 42.6588 32.3834 42.6691 28.4313Z" fill="#9C171E"/>
</svg>
