<svg width="80" height="45" viewBox="0 0 80 45" fill="none" xmlns="http://www.w3.org/2000/svg">
<path d="M9.00643 0C3.88867 0 0 3.87585 0 8.85036C0 14.303 3.88867 16.4087 8.20048 17.7008C12.2806 18.9927 14.2149 20.4271 14.2149 23.255C14.2149 26.1238 12.0791 28.138 9.28851 28.138C6.48785 28.138 4.07002 26.1238 4.07002 23.0211C4.07002 21.3019 4.87596 20.8644 4.87596 19.9082C4.87596 18.8095 4.12039 17.9956 2.88125 17.9956C1.47085 17.9956 0 20.1524 0 23.2143C0 28.1482 4.22114 31.7799 9.28851 31.7799C14.4063 31.7799 18.2949 27.904 18.2949 22.9295C18.2949 17.5176 14.4063 15.3711 10.0541 14.0792C6.02444 12.8381 4.08008 11.3529 4.08008 8.52483C4.08008 5.70695 6.16547 3.69273 8.95606 3.69273C11.8474 3.69273 14.1746 5.74765 14.2149 8.57569C14.2653 9.86763 15.1618 10.6306 16.2095 10.6306C17.2975 10.6306 18.2949 9.86764 18.2445 8.47397C18.1538 3.54014 14.0335 0 9.00643 0ZM29.5781 31.729C31.8549 31.729 33.6079 30.966 33.6079 29.43C33.6079 28.2804 32.6609 27.5175 31.7542 27.5175C31.0893 27.5175 30.6159 27.8024 29.5277 27.8024C26.5861 27.8024 24.2691 25.2693 24.2691 22.2988C24.2691 19.0943 26.6365 16.5512 29.6285 16.5512C32.9933 16.5512 35.1291 19.135 35.1291 22.8685V29.7148C35.1291 30.9152 36.0761 31.729 37.2145 31.729C38.3025 31.729 39.2494 30.9152 39.2494 29.7148V22.726C39.2494 16.9886 35.3204 12.7771 29.7192 12.7771C24.5006 12.7771 20.1889 16.8462 20.1889 22.2988C20.1889 27.5683 24.4604 31.729 29.5781 31.729ZM50.432 44.5569C55.5498 44.5569 59.4383 40.6811 59.4383 35.7067C59.4383 30.254 55.5496 28.1482 51.1976 26.8563C47.1679 25.5644 45.2236 24.13 45.2236 21.3019C45.2236 18.4738 47.3593 16.4189 50.0995 16.4189C52.9002 16.4189 55.3583 18.4331 55.3583 21.5359C55.3583 23.2653 54.5523 23.6925 54.5523 24.6487C54.5523 25.7474 55.3079 26.5613 56.4967 26.5613C57.9676 26.5613 59.4383 24.4046 59.4383 21.3426C59.4383 16.4087 55.177 12.7771 50.0995 12.7771C44.9818 12.7771 41.1434 16.6529 41.1434 21.6274C41.1434 27.0393 44.9818 29.1858 49.3439 30.4778C53.424 31.7189 55.3583 33.2041 55.3583 36.0321C55.3583 38.9009 53.2225 40.8643 50.4822 40.8643C47.5406 40.8643 45.2639 38.8602 45.2236 35.9813C45.1732 34.6893 44.2262 33.967 43.2288 33.967C42.1408 33.967 41.1434 34.6893 41.1938 36.0728C41.2341 41.0676 45.3545 44.5569 50.432 44.5569ZM71.0036 31.729C73.6532 31.729 75.7486 30.966 77.2094 30.0505C78.6299 29.1451 79.1941 28.3719 79.1941 27.5175C79.1941 26.6121 78.5291 25.7983 77.3001 25.7983C75.8292 25.7983 74.6505 27.9956 71.0439 27.9956C67.8706 27.9956 65.352 25.4626 65.352 22.2581C65.352 19.0943 67.7698 16.5105 70.8021 16.5105C74.0763 16.5105 75.8292 18.6671 75.8292 20.0507C75.8292 20.4372 75.5472 20.6305 75.1644 20.6305H71.185C70.097 20.6305 69.2911 21.3527 69.2911 22.3091C69.2911 23.3568 70.097 24.13 71.185 24.13H76.6352C78.7206 24.13 80 23.0313 80 21.1594C80 16.4698 76.0206 12.7872 70.7519 12.7872C65.5333 12.7872 61.3222 16.9987 61.3222 22.2581C61.3222 27.5175 65.6945 31.729 71.0036 31.729Z" fill="#00D639"/>
</svg>
