<svg width="70" height="70" viewBox="0 0 70 70" fill="none" xmlns="http://www.w3.org/2000/svg">
<path d="M53.5 17H17.5C16.3065 17 15.1619 17.4741 14.318 18.318C13.4741 19.1619 13 20.3065 13 21.5V48.5C13 49.6935 13.4741 50.8381 14.318 51.682C15.1619 52.5259 16.3065 53 17.5 53H53.5C54.6935 53 55.8381 52.5259 56.682 51.682C57.5259 50.8381 58 49.6935 58 48.5V21.5C58 20.3065 57.5259 19.1619 56.682 18.318C55.8381 17.4741 54.6935 17 53.5 17ZM17.5 48.5V21.5H53.5V48.5H17.5Z" fill="#9C171E"/>
<path d="M22.127 27.127C22.127 26.5747 22.5747 26.127 23.127 26.127H25.627C26.1792 26.127 26.627 26.5747 26.627 27.127V43.127C26.627 43.6792 26.1792 44.127 25.627 44.127H23.127C22.5747 44.127 22.127 43.6792 22.127 43.127V27.127ZM28.877 27.127C28.877 26.5747 29.3247 26.127 29.877 26.127H30.127C30.6792 26.127 31.127 26.5747 31.127 27.127V43.127C31.127 43.6792 30.6792 44.127 30.127 44.127H29.877C29.3247 44.127 28.877 43.6792 28.877 43.127V27.127ZM46.877 27.127C46.877 26.5747 47.3247 26.127 47.877 26.127H48.127C48.6792 26.127 49.1269 26.5747 49.1269 27.127V43.127C49.1269 43.6792 48.6792 44.127 48.127 44.127H47.877C47.3247 44.127 46.877 43.6792 46.877 43.127V27.127ZM37.877 27.127C37.877 26.5747 38.3247 26.127 38.877 26.127H43.627C44.1792 26.127 44.627 26.5747 44.627 27.127V43.127C44.627 43.6792 44.1792 44.127 43.627 44.127H38.877C38.3247 44.127 37.877 43.6792 37.877 43.127V27.127ZM33.377 27.127C33.377 26.5747 33.8247 26.127 34.377 26.127H34.627C35.1792 26.127 35.627 26.5747 35.627 27.127V43.127C35.627 43.6792 35.1792 44.127 34.627 44.127H34.377C33.8247 44.127 33.377 43.6792 33.377 43.127V27.127Z" fill="#9C171E"/>
</svg>
