<svg width="70" height="70" viewBox="0 0 70 70" fill="none" xmlns="http://www.w3.org/2000/svg">
<path d="M21.8346 24.7967C21.968 24.5968 21.9011 24.2638 21.7012 24.0639L17.4366 19.1999C17.1702 18.9334 16.7038 18.9334 16.4373 19.1999L12.1732 24.0639C11.9732 24.2638 11.9732 24.5303 12.0398 24.7967C12.1732 25.0632 12.3728 25.1966 12.6396 25.1966H13.7059L13.7055 34.9916C13.7055 35.3246 13.972 35.658 14.3718 35.658H19.5023C19.9022 35.658 20.1686 35.325 20.1686 34.9916V25.1966H21.2349C21.5014 25.1966 21.7679 24.9967 21.8347 24.7967H21.8346Z" fill="#9C171E"/>
<path d="M56.9278 45.0233C56.7944 44.7569 56.5948 44.6235 56.328 44.6235H55.2617L55.2621 34.8285C55.2621 34.4955 54.9956 34.1621 54.5958 34.1621H49.4653C49.0654 34.1621 48.7989 34.4951 48.7989 34.8285V44.6235H47.7327C47.4662 44.6235 47.1997 44.7569 47.1328 45.0233C46.9994 45.2898 47.0663 45.5563 47.2663 45.7562L51.5308 50.6202C51.6642 50.7537 51.8638 50.8202 52.0637 50.8202C52.2637 50.8202 52.4636 50.7537 52.5966 50.6202L56.8612 45.7562C56.9946 45.5559 57.0611 45.2894 56.9277 45.023L56.9278 45.0233Z" fill="#9C171E"/>
<path d="M34.7914 47.3193C34.6463 47.3916 34.4864 47.4291 34.3244 47.4291C34.1704 47.4291 34.0173 47.3993 33.8765 47.3369C33.8404 47.3209 33.8046 47.3044 33.7693 47.2867C30.4806 45.6465 27.1912 44.0063 23.9013 42.366C23.532 42.1831 23.3721 41.9189 23.3721 41.5053C23.3799 37.8605 23.3799 34.2159 23.3721 30.5714C23.3721 30.1543 23.5344 29.8978 23.906 29.7166C25.1821 29.0947 25.5633 29.0088 26.8323 28.3716C26.8873 28.3383 27.5338 28.0366 27.9485 28.0366C28.3631 28.0366 29.1212 28.3383 29.1763 28.3716C32.5187 30.1028 34.5346 31.1182 37.8825 32.8384C38.329 33.0618 38.3296 33.4401 38.329 33.6201C38.322 35.3163 38.3319 36.747 38.3331 38.4437C38.3331 38.8073 38.4831 38.8997 38.8036 38.7326C39.4004 38.4219 39.9926 38.1007 40.5947 37.8007C40.8111 37.693 40.8888 37.5518 40.8888 37.3136C40.8817 35.5951 40.877 33.8766 40.8929 32.1581C40.8929 31.864 40.7964 31.7269 40.5465 31.5998C37.2719 29.9301 34.6774 28.7134 31.4086 27.0316C31.3797 27.0168 31.2243 26.9155 31.0499 26.8011C30.8168 26.6483 30.8245 26.2629 31.0738 26.1382C32.107 25.6246 32.7679 25.3248 33.7969 24.8035C34.1157 24.6423 34.4067 24.6488 34.7261 24.8077C38.0148 26.4479 41.3079 28.0822 44.6052 29.7107C45.0039 29.9072 45.1692 30.169 45.168 30.6114C45.1582 34.2198 45.1582 37.8281 45.168 41.4365C45.168 41.8995 44.9851 42.1725 44.5799 42.3731C41.2423 44.0154 38.1123 45.6642 34.7914 47.3193Z" fill="#9C171E"/>
</svg>
