<svg width="70" height="70" viewBox="0 0 70 70" fill="none" xmlns="http://www.w3.org/2000/svg">
<path d="M18.0322 13.1147C17.2939 13.2993 16.7402 13.6157 16.1777 14.1782C15.6064 14.7495 15.2549 15.3735 15.0967 16.1382C15.0439 16.3931 15 17.395 15 18.353V20.1021L16.8896 21.8774L18.7793 23.6528V32.1255V40.5894H20.9766H23.1738L23.1562 36.4761L23.1299 32.3716L22.2773 32.3452L21.416 32.3188V27.9507V23.5825L23.2617 21.8687L25.0986 20.1548L25.1074 18.2476C25.1074 16.6304 25.0811 16.27 24.9404 15.813C24.7119 15.0835 24.4131 14.6089 23.8594 14.0728C22.9014 13.1763 22.251 12.9917 20.0537 13.0005C19.1045 13.0005 18.2959 13.0532 18.0322 13.1147ZM21.7676 15.7954C22.3652 16.1118 22.4268 16.2788 22.4531 17.7202L22.4707 19.0122L21.2842 20.1108C20.6338 20.7173 20.0713 21.2007 20.0449 21.1919C20.0186 21.1919 19.4648 20.6821 18.8145 20.0669L17.6367 18.9507V17.7993C17.6455 16.4634 17.7422 16.1821 18.3047 15.8394C18.6299 15.646 18.7266 15.6284 20.0537 15.6284C21.2578 15.6284 21.5039 15.6548 21.7676 15.7954Z" fill="#9C171E"/>
<path d="M25.8105 37.7769V43.2261H20.4053H15V44.7642V46.3022H24.8438H34.6875V39.3149V32.3276H30.249H25.8105V37.7769Z" fill="#9C171E"/>
<path d="M34.3242 50.2571V52.8938H42.5156H50.707L50.2939 53.1575C48.5625 54.2561 48.7734 56.8928 50.6631 57.7629C51.2871 58.0442 52.2363 58.0178 52.8867 57.7014C54.6973 56.8137 54.8555 54.2297 53.1592 53.1575L52.7461 52.8938H54.8818H57.0176L56.9824 51.2415C56.9561 49.7913 56.9385 49.554 56.7715 49.1936C56.499 48.6135 56.0859 48.1917 55.5234 47.9104L55.0225 47.6643L44.6777 47.6379L34.3242 47.6204V50.2571Z" fill="#9C171E"/>
<path d="M15 50.9164V52.894H17.127H19.2539L18.8408 53.1576C17.5049 54.0014 17.2588 55.9086 18.3311 57.1391C19.0518 57.9477 20.4141 58.2025 21.4336 57.7016C23.2441 56.8139 23.4023 54.2299 21.7061 53.1576L21.293 52.894H27.9902H34.6875V50.9164V48.9389H24.8438H15V50.9164Z" fill="#9C171E"/>
<path d="M40.4721 32.7698C40.5878 32.5385 40.7657 32.3439 40.9857 32.2079C41.2058 32.0719 41.4594 31.9999 41.7181 32H45.0357V35.7143H39L40.4721 32.7698ZM45.9643 35.7143V32H49.281C49.8092 32 50.2908 32.298 50.5288 32.7698L52 35.7143H45.9643ZM52 43.1429C52 44.1672 51.1672 45 50.1429 45H40.8571C39.8314 45 39 44.1672 39 43.1429V36.6429H52V43.1429Z" fill="#9C171E"/>
</svg>
