<svg width="70" height="70" viewBox="0 0 70 70" fill="none" xmlns="http://www.w3.org/2000/svg">
<path d="M51.418 20.498L47.8613 20.498L47.8613 25.2404L44.9922 25.2404L49.6397 29.8879L54.2872 25.2404L51.418 25.2404L51.418 20.498Z" fill="#9C171E"/>
<path d="M17.8691 29.8877L21.4258 29.8877L21.4258 25.1454L24.2949 25.1454L19.6474 20.4979L15 25.1454L17.8691 25.1454L17.8691 29.8877Z" fill="#9C171E"/>
<path d="M35.021 57.881C34.8615 57.9595 34.686 58.0003 34.5083 58.0003C34.3395 58.0003 34.1714 57.968 34.0168 57.9002C33.9773 57.8829 33.9381 57.8651 33.8996 57.846C30.2932 56.0684 26.6861 54.2908 23.0784 52.5132C22.6734 52.3149 22.498 52.0287 22.498 51.5804C22.5066 47.6304 22.5066 43.6805 22.498 39.7308C22.498 39.2788 22.676 39.0008 23.0836 38.8044C24.4829 38.1305 24.9009 38.0373 26.2925 37.3468C26.3529 37.3107 27.0618 36.9837 27.5165 36.9837C27.9712 36.9837 28.8025 37.3107 28.8629 37.3468C32.5282 39.223 34.7389 40.3234 38.4102 42.1877C38.8998 42.4298 38.9004 42.8398 38.8998 43.0349C38.8921 44.8731 38.903 46.4236 38.9043 48.2624C38.9043 48.6564 39.0687 48.7565 39.4202 48.5755C40.0747 48.2388 40.7241 47.8907 41.3844 47.5655C41.6217 47.4489 41.7068 47.2958 41.7068 47.0376C41.6991 45.1752 41.6939 43.3128 41.7113 41.4504C41.7113 41.1316 41.6056 40.9831 41.3315 40.8453C37.7406 39.0359 34.8954 37.7172 31.3109 35.8945C31.2792 35.8786 31.109 35.7689 30.918 35.6451C30.6638 35.4804 30.6722 35.0606 30.9437 34.9263C32.0767 34.3697 32.8014 34.0448 33.9299 33.4799C34.2794 33.3052 34.5986 33.3122 34.9488 33.4844C38.5552 35.262 42.1664 37.0332 45.7823 38.798C46.2195 39.011 46.4007 39.2947 46.3994 39.7742C46.3886 43.6847 46.3886 47.5953 46.3994 51.5058C46.3994 52.0076 46.1988 52.3035 45.7545 52.5209C42.0947 54.3007 38.6625 56.0874 35.021 57.881Z" fill="#9C171E"/>
<path d="M34.4264 21.2161C34.8783 21.2161 35.2653 21.0551 35.5873 20.733C35.9089 20.4115 36.0696 20.0248 36.0696 19.5729C36.0696 19.121 35.9089 18.734 35.5873 18.412C35.2653 18.0904 34.8783 17.9297 34.4264 17.9297C33.9745 17.9297 33.5878 18.0904 33.2663 18.412C32.9442 18.734 32.7832 19.121 32.7832 19.5729C32.7832 20.0248 32.9442 20.4115 33.2663 20.733C33.5878 21.0551 33.9745 21.2161 34.4264 21.2161ZM34.4264 29.4322C32.2217 27.5562 30.5752 25.8136 29.4869 24.2043C28.398 22.5956 27.8535 21.1066 27.8535 19.7372C27.8535 17.6832 28.5144 16.0468 29.8361 14.8281C31.1572 13.6094 32.6873 13 34.4264 13C36.1655 13 37.6956 13.6094 39.0167 14.8281C40.3384 16.0468 40.9993 17.6832 40.9993 19.7372C40.9993 21.1066 40.4551 22.5956 39.3667 24.2043C38.2778 25.8136 36.6311 27.5562 34.4264 29.4322Z" fill="#9C171E"/>
</svg>
