<svg width="70" height="70" viewBox="0 0 70 70" fill="none" xmlns="http://www.w3.org/2000/svg">
<path d="M12 42.2002C12 45.6761 13.7753 47.3953 17.1765 47.3953H28.5947L28.0901 50.7778H26.1092C25.1748 50.7778 24.4086 51.5627 24.4086 52.4971C24.4086 53.4128 25.1748 54.1977 26.1092 54.1977H43.0216C43.9747 54.1977 44.7409 53.4128 44.7409 52.4971C44.7409 51.5627 43.9747 50.7778 43.0216 50.7778H40.8912L40.4053 47.3953H51.8048C55.206 47.3953 57 45.6761 57 42.2002V21.1765C57 17.7193 55.206 16 51.8048 16H17.1765C13.7753 16 12 17.7193 12 21.1765V42.2002ZM15.6441 41.9759V21.4194C15.6441 20.13 16.186 19.6441 17.4194 19.6441H51.5619C52.7953 19.6441 53.3559 20.13 53.3559 21.4194V41.9759C53.3559 43.2467 52.7953 43.7512 51.5619 43.7512H17.4194C16.186 43.7512 15.6441 43.2467 15.6441 41.9759Z" fill="#9C171E"/>
<path d="M30.6625 39.1874H24.3444C24.2687 39.1874 24.2069 39.2506 24.2069 39.328L24.2052 40.1718C24.2052 40.2491 24.267 40.3124 24.3427 40.3124H30.6625C30.7381 40.3124 30.8 40.2491 30.8 40.1718V39.328C30.8 39.2506 30.7381 39.1874 30.6625 39.1874ZM30.6625 40.8749H24.3392C24.2636 40.8749 24.2017 40.9382 24.2017 41.0156L24.2 41.8594C24.2 41.9367 24.2619 42 24.3375 42H30.6625C30.7381 42 30.8 41.9367 30.8 41.8594V41.0156C30.8 40.9382 30.7381 40.8749 30.6625 40.8749ZM30.6625 37.4998H24.3478C24.2722 37.4998 24.2103 37.5631 24.2103 37.6404L24.2086 38.4842C24.2086 38.5616 24.2705 38.6248 24.3461 38.6248H30.6625C30.7381 38.6248 30.8 38.5616 30.8 38.4842V37.6404C30.8 37.5631 30.7381 37.4998 30.6625 37.4998ZM32.493 35.0563L27.8163 33.0646C27.7157 33.022 27.608 33 27.4991 33C27.3903 33 27.2826 33.022 27.182 33.0646L22.507 35.0563C22.2011 35.1881 22 35.494 22 35.8351V41.8594C22 41.9367 22.0619 42 22.1375 42H23.5125C23.5881 42 23.65 41.9367 23.65 41.8594V37.4998C23.65 37.1904 23.9009 36.9373 24.2103 36.9373H30.7897C31.0991 36.9373 31.35 37.1904 31.35 37.4998V41.8594C31.35 41.9367 31.4119 42 31.4875 42H32.8625C32.9381 42 33 41.9367 33 41.8594V35.8351C33 35.494 32.7989 35.1881 32.493 35.0563V35.0563Z" fill="#9C171E"/>
<path d="M44.6625 39.1874H38.3444C38.2688 39.1874 38.2069 39.2506 38.2069 39.328L38.2052 40.1718C38.2052 40.2491 38.267 40.3124 38.3427 40.3124H44.6625C44.7381 40.3124 44.8 40.2491 44.8 40.1718V39.328C44.8 39.2506 44.7381 39.1874 44.6625 39.1874ZM44.6625 40.8749H38.3392C38.2636 40.8749 38.2017 40.9382 38.2017 41.0156L38.2 41.8594C38.2 41.9367 38.2619 42 38.3375 42H44.6625C44.7381 42 44.8 41.9367 44.8 41.8594V41.0156C44.8 40.9382 44.7381 40.8749 44.6625 40.8749ZM44.6625 37.4998H38.3478C38.2722 37.4998 38.2103 37.5631 38.2103 37.6404L38.2086 38.4842C38.2086 38.5616 38.2705 38.6248 38.3461 38.6248H44.6625C44.7381 38.6248 44.8 38.5616 44.8 38.4842V37.6404C44.8 37.5631 44.7381 37.4998 44.6625 37.4998ZM46.493 35.0563L41.8162 33.0646C41.7157 33.022 41.608 33 41.4991 33C41.3903 33 41.2826 33.022 41.182 33.0646L36.507 35.0563C36.2011 35.1881 36 35.494 36 35.8351V41.8594C36 41.9367 36.0619 42 36.1375 42H37.5125C37.5881 42 37.65 41.9367 37.65 41.8594V37.4998C37.65 37.1904 37.9009 36.9373 38.2103 36.9373H44.7897C45.0991 36.9373 45.35 37.1904 45.35 37.4998V41.8594C45.35 41.9367 45.4119 42 45.4875 42H46.8625C46.9381 42 47 41.9367 47 41.8594V35.8351C47 35.494 46.7989 35.1881 46.493 35.0563Z" fill="#9C171E"/>
<path d="M37.6625 28.1874H31.3444C31.2687 28.1874 31.2069 28.2506 31.2069 28.328L31.2052 29.1718C31.2052 29.2491 31.267 29.3124 31.3427 29.3124H37.6625C37.7381 29.3124 37.8 29.2491 37.8 29.1718V28.328C37.8 28.2506 37.7381 28.1874 37.6625 28.1874ZM37.6625 29.8749H31.3392C31.2636 29.8749 31.2017 29.9382 31.2017 30.0156L31.2 30.8594C31.2 30.9367 31.2619 31 31.3375 31H37.6625C37.7381 31 37.8 30.9367 37.8 30.8594V30.0156C37.8 29.9382 37.7381 29.8749 37.6625 29.8749ZM37.6625 26.4998H31.3478C31.2722 26.4998 31.2103 26.5631 31.2103 26.6404L31.2086 27.4842C31.2086 27.5616 31.2705 27.6248 31.3461 27.6248H37.6625C37.7381 27.6248 37.8 27.5616 37.8 27.4842V26.6404C37.8 26.5631 37.7381 26.4998 37.6625 26.4998ZM39.493 24.0563L34.8162 22.0646C34.7157 22.022 34.608 22 34.4991 22C34.3903 22 34.2826 22.022 34.182 22.0646L29.507 24.0563C29.2011 24.1881 29 24.494 29 24.8351V30.8594C29 30.9367 29.0619 31 29.1375 31H30.5125C30.5881 31 30.65 30.9367 30.65 30.8594V26.4998C30.65 26.1904 30.9009 25.9373 31.2103 25.9373H37.7897C38.0991 25.9373 38.35 26.1904 38.35 26.4998V30.8594C38.35 30.9367 38.4119 31 38.4875 31H39.8625C39.9381 31 40 30.9367 40 30.8594V24.8351C40 24.494 39.7989 24.1881 39.493 24.0563Z" fill="#9C171E"/>
</svg>
