<svg width="70" height="70" viewBox="0 0 70 70" fill="none" xmlns="http://www.w3.org/2000/svg">
<path d="M56.2596 52.5644L41.9112 28.9975C40.1812 26.0737 37.242 26.0737 35.5137 28.9975L21.3366 52.5644C19.6066 55.4883 20.9906 57.7252 24.4488 57.7252H52.9761C56.6056 57.7252 57.9896 55.317 56.2596 52.5644ZM36.896 35.5337C37.415 35.0182 38.107 34.6739 38.799 34.6739C39.6622 34.6739 40.1812 35.0182 40.7002 35.5337C41.2192 36.051 41.3922 36.7378 41.3922 37.4264C41.3922 38.115 40.3542 43.1027 40.0082 46.7151H37.415C37.069 43.1027 36.0327 38.115 36.0327 37.4264C36.0327 36.7378 36.3787 36.051 36.896 35.5337ZM40.7002 52.7374C40.1812 53.253 39.4892 53.4243 38.799 53.4243C38.107 53.4243 37.415 53.253 36.896 52.7374C36.3787 52.2202 36.0327 51.7046 36.0327 50.8448C36.0327 50.1562 36.3787 49.4676 36.896 48.9521C37.415 48.4365 38.107 48.2635 38.799 48.2635C39.4892 48.2635 40.1812 48.4365 40.7002 48.9521C41.2192 49.4676 41.5652 50.1562 41.5652 50.8448C41.5652 51.7046 41.2192 52.2202 40.7002 52.7374Z" fill="#9C171E"/>
<path d="M26.6961 40.5235L29.1164 36.5669C27.9071 36.9112 26.8691 37.0825 25.8311 37.0825C20.1257 37.0825 15.4582 32.439 15.4582 26.7609C15.4582 21.0846 20.1257 16.4411 25.8311 16.4411C31.1906 16.4411 35.6868 20.569 36.2058 25.9011C36.8961 25.3855 37.934 25.0412 38.799 25.0412C38.972 25.0412 39.3163 25.0412 39.4893 25.0412C38.626 18.1608 32.7476 13 25.8311 13C18.2244 13 12 19.1936 12 26.7609C12 34.3299 18.2244 40.5235 25.8311 40.5235C26.1771 40.5235 26.3501 40.5235 26.6961 40.5235Z" fill="#9C171E"/>
<path d="M26.7636 33.2481C26.6775 33.2905 26.5827 33.3125 26.4867 33.3125C26.3955 33.3125 26.3048 33.295 26.2213 33.2585C26.1999 33.2491 26.1788 33.2394 26.158 33.2292C24.2102 32.2691 22.262 31.309 20.3135 30.3489C20.0947 30.2418 20 30.0872 20 29.8451C20.0046 27.7117 20.0046 25.5784 20 23.4452C20 23.201 20.0961 23.0509 20.3162 22.9448C21.072 22.5808 21.2978 22.5305 22.0494 22.1576C22.082 22.1381 22.4649 21.9615 22.7105 21.9615C22.956 21.9615 23.405 22.1381 23.4377 22.1576C25.4173 23.1709 26.6112 23.7652 28.5941 24.7721C28.8586 24.9029 28.8589 25.1243 28.8586 25.2297C28.8544 26.2225 28.8603 27.0599 28.861 28.0531C28.861 28.2659 28.9498 28.32 29.1396 28.2222C29.4931 28.0403 29.8439 27.8523 30.2005 27.6767C30.3287 27.6137 30.3746 27.531 30.3746 27.3916C30.3705 26.3857 30.3677 25.3798 30.3771 24.3739C30.3771 24.2017 30.32 24.1215 30.1719 24.0471C28.2325 23.0698 26.6958 22.3576 24.7598 21.3732C24.7427 21.3646 24.6508 21.3053 24.5476 21.2385C24.4103 21.1495 24.4148 20.9228 24.5615 20.8503C25.1734 20.5496 25.5649 20.3742 26.1743 20.0691C26.3631 19.9747 26.5355 19.9785 26.7246 20.0715C28.6725 21.0316 30.6228 21.9882 32.5758 22.9414C32.8119 23.0564 32.9098 23.2096 32.9091 23.4686C32.9033 25.5807 32.9033 27.6928 32.9091 29.8048C32.9091 30.0758 32.8008 30.2356 32.5608 30.3531C30.5841 31.3143 28.7304 32.2793 26.7636 33.2481Z" fill="#9C171E"/>
</svg>
