<svg width="70" height="70" viewBox="0 0 70 70" fill="none" xmlns="http://www.w3.org/2000/svg">
<path d="M38.1211 15.046C37.4377 12.318 33.5651 12.318 32.8789 15.046L32.6792 15.8503C32.5624 16.3177 32.3226 16.7454 31.9848 17.0889C31.6469 17.4324 31.2233 17.6792 30.7578 17.8037C30.2924 17.9282 29.8021 17.926 29.3379 17.7971C28.8736 17.6682 28.4523 17.4175 28.1177 17.0708L27.5411 16.4774C25.5866 14.4554 22.2315 16.3931 23.0048 19.0957L23.2298 19.8944C23.362 20.3572 23.3681 20.8469 23.2475 21.3128C23.1269 21.7787 22.8839 22.2039 22.5437 22.5443C22.2036 22.8848 21.7786 23.1281 21.3128 23.2491C20.847 23.3701 20.3573 23.3645 19.8944 23.2326L19.0957 23.0048C16.3959 22.2315 14.4554 25.5866 16.4774 27.5411L17.0708 28.1177C17.4175 28.4523 17.6682 28.8736 17.7971 29.3379C17.926 29.8021 17.9282 30.2924 17.8037 30.7578C17.6792 31.2233 17.4324 31.6469 17.0889 31.9848C16.7454 32.3226 16.3177 32.5624 15.8503 32.6792L15.046 32.8789C12.318 33.5623 12.318 37.4349 15.046 38.1211L15.8503 38.3208C16.3177 38.4376 16.7454 38.6774 17.0889 39.0152C17.4324 39.3531 17.6792 39.7767 17.8037 40.2422C17.9282 40.7076 17.926 41.1979 17.7971 41.6621C17.6682 42.1264 17.4175 42.5477 17.0708 42.8824L16.4774 43.4589C14.4554 45.4134 16.3931 48.7685 19.0957 47.9952L19.8944 47.7702C20.3575 47.6377 20.8475 47.6315 21.3137 47.7523C21.78 47.873 22.2054 48.1163 22.546 48.4568C22.8865 48.7974 23.1298 49.2228 23.2505 49.6891C23.3713 50.1553 23.3651 50.6454 23.2326 51.1084L23.0048 51.9043C22.2315 54.6041 25.5866 56.5446 27.5411 54.5226L28.1177 53.9292C28.4523 53.5825 28.8736 53.3318 29.3379 53.2029C29.8021 53.074 30.2924 53.0718 30.7578 53.1963C31.2233 53.3208 31.6469 53.5676 31.9848 53.9111C32.3226 54.2546 32.5624 54.6823 32.6792 55.1497L32.8789 55.954C33.5623 58.682 37.4349 58.682 38.1211 55.954L38.3208 55.1497C38.4376 54.6823 38.6774 54.2546 39.0152 53.9111C39.3531 53.5676 39.7767 53.3208 40.2422 53.1963C40.7076 53.0718 41.1979 53.074 41.6621 53.2029C42.1264 53.3318 42.5477 53.5825 42.8824 53.9292L43.4589 54.5226C45.4134 56.5446 48.7685 54.6069 47.9952 51.9043L47.7702 51.1056C47.6377 50.6425 47.6315 50.1525 47.7523 49.6863C47.873 49.22 48.1163 48.7946 48.4568 48.454C48.7974 48.1135 49.2228 47.8702 49.6891 47.7495C50.1553 47.6287 50.6454 47.6349 51.1084 47.7674L51.9043 47.9952C54.6041 48.7685 56.5446 45.4134 54.5226 43.4589L53.9292 42.8824C53.5825 42.5477 53.3318 42.1264 53.2029 41.6621C53.074 41.1979 53.0718 40.7076 53.1963 40.2422C53.3208 39.7767 53.5676 39.3531 53.9111 39.0152C54.2546 38.6774 54.6823 38.4376 55.1497 38.3208L55.954 38.1211C58.682 37.4377 58.682 33.5651 55.954 32.8789L55.1497 32.6792C54.6823 32.5624 54.2546 32.3226 53.9111 31.9848C53.5676 31.6469 53.3208 31.2233 53.1963 30.7578C53.0718 30.2924 53.074 29.8021 53.2029 29.3379C53.3318 28.8736 53.5825 28.4523 53.9292 28.1177L54.5226 27.5411C56.5446 25.5866 54.6069 22.2315 51.9043 23.0048L51.1056 23.2298C50.6428 23.362 50.1531 23.3681 49.6872 23.2475C49.2213 23.1269 48.7961 22.8839 48.4557 22.5437C48.1152 22.2036 47.8719 21.7786 47.7509 21.3128C47.6299 20.847 47.6355 20.3573 47.7674 19.8944L47.9952 19.0957C48.7685 16.3959 45.4134 14.4554 43.4589 16.4774L42.8824 17.0708C42.5477 17.4175 42.1264 17.6682 41.6621 17.7971C41.1979 17.926 40.7076 17.9282 40.2422 17.8037C39.7767 17.6792 39.3531 17.4324 39.0152 17.0889C38.6774 16.7454 38.4376 16.3177 38.3208 15.8503L38.1211 15.046ZM35.5 49.5532C33.6376 49.5795 31.7885 49.2355 30.0603 48.541C28.332 47.8465 26.759 46.8154 25.4326 45.5077C24.1063 44.2 23.0531 42.6418 22.3342 40.9235C21.6154 39.2052 21.2452 37.3612 21.2452 35.4986C21.2452 33.636 21.6154 31.792 22.3342 30.0737C23.0531 28.3554 24.1063 26.7972 25.4326 25.4895C26.759 24.1818 28.332 23.1507 30.0603 22.4562C31.7885 21.7617 33.6376 21.4177 35.5 21.444C39.2279 21.444 42.8031 22.9249 45.4391 25.5609C48.0751 28.1969 49.556 31.7721 49.556 35.5C49.556 39.2279 48.0751 42.8031 45.4391 45.4391C42.8031 48.0751 39.2279 49.556 35.5 49.556V49.5532Z" fill="#9C171E"/>
<path d="M30.5532 44.5154C30.6169 44.5471 30.687 44.5635 30.7582 44.5635C30.8257 44.5635 30.8929 44.5505 30.9547 44.5231C30.9705 44.5161 30.9863 44.5088 31.0017 44.5011C32.445 43.7816 33.8885 43.0622 35.3322 42.3427C35.4943 42.2624 35.5645 42.1466 35.5645 41.9652C35.561 40.3664 35.561 38.7677 35.5645 37.1692C35.5645 36.9862 35.4932 36.8737 35.3301 36.7942C34.7702 36.5214 34.6029 36.4837 34.046 36.2042C34.0218 36.1896 33.7381 36.0573 33.5562 36.0573C33.3742 36.0573 33.0415 36.1896 33.0173 36.2042C31.5505 36.9636 30.6659 37.409 29.1967 38.1636C29.0008 38.2615 29.0005 38.4275 29.0008 38.5064C29.0039 39.2504 28.9995 39.878 28.999 40.6222C28.999 40.7817 28.9331 40.8222 28.7925 40.7489C28.5306 40.6127 28.2707 40.4718 28.0065 40.3402C27.9115 40.2929 27.8774 40.231 27.8774 40.1265C27.8805 39.3727 27.8826 38.6189 27.8756 37.8651C27.8756 37.7361 27.9179 37.676 28.0276 37.6202C29.4647 36.8879 30.6032 36.3541 32.0377 35.6164C32.0504 35.61 32.1186 35.5655 32.1951 35.5154C32.2974 35.4484 32.294 35.2793 32.1846 35.2246C31.7312 34.9993 31.4412 34.8678 30.9896 34.6392C30.8497 34.5684 30.722 34.5713 30.5819 34.641C29.1386 35.3604 27.6935 36.0773 26.2465 36.7916C26.0715 36.8778 25.999 36.9926 25.9995 37.1867C26.0038 38.7695 26.0038 40.3522 25.9995 41.935C25.9995 42.1381 26.0798 42.2578 26.2576 42.3458C27.7223 43.0662 29.0959 43.7894 30.5532 44.5154Z" fill="#9C171E"/>
<path d="M40.9682 44.5154C41.0319 44.5471 41.1021 44.5635 41.1732 44.5635C41.2407 44.5635 41.308 44.5505 41.3697 44.5231C41.3856 44.5161 41.4013 44.5088 41.4168 44.5011C42.86 43.7816 44.3035 43.0622 45.7472 42.3427C45.9093 42.2624 45.9795 42.1466 45.9795 41.9652C45.9761 40.3664 45.9761 38.7677 45.9795 37.1692C45.9795 36.9862 45.9083 36.8737 45.7452 36.7942C45.1852 36.5214 45.0179 36.4837 44.461 36.2042C44.4369 36.1896 44.1532 36.0573 43.9712 36.0573C43.7892 36.0573 43.4566 36.1896 43.4324 36.2042C41.9656 36.9636 41.0809 37.409 39.6117 38.1636C39.4158 38.2615 39.4155 38.4275 39.4158 38.5064C39.4189 39.2504 39.4145 39.878 39.414 40.6222C39.414 40.7817 39.3482 40.8222 39.2075 40.7489C38.9456 40.6127 38.6858 40.4718 38.4215 40.3402C38.3265 40.2929 38.2925 40.231 38.2925 40.1265C38.2956 39.3727 38.2976 38.6189 38.2907 37.8651C38.2907 37.7361 38.333 37.676 38.4427 37.6202C39.8797 36.8879 41.0183 36.3541 42.4527 35.6164C42.4654 35.61 42.5336 35.5655 42.6102 35.5154C42.7124 35.4484 42.709 35.2793 42.5997 35.2246C42.1463 34.9993 41.8562 34.8678 41.4046 34.6392C41.2648 34.5684 41.137 34.5713 40.9969 34.641C39.5537 35.3604 38.1086 36.0773 36.6615 36.7916C36.4866 36.8778 36.4141 36.9926 36.4146 37.1867C36.4189 38.7695 36.4189 40.3522 36.4146 41.935C36.4146 42.1381 36.4948 42.2578 36.6726 42.3458C38.1373 43.0662 39.5109 43.7894 40.9682 44.5154Z" fill="#9C171E"/>
<path d="M35.6548 35.928C35.7184 35.9597 35.7886 35.9761 35.8597 35.9761C35.9273 35.9761 35.9945 35.9631 36.0563 35.9357C36.0721 35.9287 36.0878 35.9214 36.1033 35.9137C37.5465 35.1942 38.99 34.4748 40.4338 33.7553C40.5958 33.675 40.666 33.5592 40.666 33.3778C40.6626 31.779 40.6626 30.1803 40.666 28.5818C40.666 28.3988 40.5948 28.2863 40.4317 28.2068C39.8717 27.934 39.7044 27.8963 39.1475 27.6168C39.1234 27.6022 38.8397 27.4699 38.6577 27.4699C38.4758 27.4699 38.1431 27.6022 38.1189 27.6168C36.6521 28.3762 35.7675 28.8216 34.2982 29.5762C34.1023 29.6741 34.1021 29.8401 34.1023 29.919C34.1054 30.663 34.101 31.2906 34.1005 32.0348C34.1005 32.1943 34.0347 32.2348 33.8941 32.1615C33.6321 32.0253 33.3723 31.8844 33.108 31.7528C33.0131 31.7055 32.979 31.6436 32.979 31.5391C32.9821 30.7853 32.9842 30.0315 32.9772 29.2777C32.9772 29.1487 33.0195 29.0886 33.1292 29.0328C34.5662 28.3005 35.7048 27.7667 37.1393 27.029C37.152 27.0226 37.2201 26.9781 37.2967 26.928C37.3989 26.861 37.3956 26.6919 37.2862 26.6372C36.8328 26.4119 36.5428 26.2804 36.0912 26.0518C35.9513 25.981 35.8236 25.9839 35.6834 26.0536C34.2402 26.773 32.7951 27.4899 31.3481 28.2042C31.1731 28.2904 31.1006 28.4052 31.1011 28.5993C31.1054 30.1821 31.1054 31.7648 31.1011 33.3476C31.1011 33.5506 31.1814 33.6704 31.3592 33.7584C32.8238 34.4788 34.1974 35.202 35.6548 35.928Z" fill="#9C171E"/>
</svg>
