<svg width="70" height="70" viewBox="0 0 70 70" fill="none" xmlns="http://www.w3.org/2000/svg">
<path fill-rule="evenodd" clip-rule="evenodd" d="M15.0652 10.0701C14.2946 10.2539 13.6029 10.7881 13.2351 11.4886L13.0337 11.8564L13.0074 31.3574C12.9899 50.6833 12.9899 50.8585 13.165 51.3226C13.3839 51.918 13.9269 52.4872 14.5573 52.7849L15.0477 53.0126H28.8394H34.7332C34.7328 52.2468 34.7316 51.4811 34.7295 50.7153C34.7289 50.4882 34.8138 50.3537 35.0186 50.2529C36.7124 49.4167 38.4041 48.5776 40.0935 47.7354C40.1984 47.6832 40.2974 47.663 40.398 47.677V46.2299V46.2216V46.2074V45.1788H40.4003C40.4029 43.6737 40.4021 42.1686 40.398 40.6635C40.3974 40.4363 40.4823 40.3019 40.6871 40.201C42.0224 39.5418 43.3563 38.8808 44.6889 38.2179C44.6889 37.9872 44.6889 37.7524 44.6889 37.5133V24.1595H39.7151C36.4927 24.1595 34.5575 24.1245 34.2247 24.0632C32.7011 23.7829 31.4576 22.7321 30.8359 21.1997C30.6346 20.7008 30.6345 20.6919 30.5908 15.3653V15.3652V15.3651V15.365V15.3649L30.5907 15.3591L30.5469 10.0175L22.9725 10C18.7955 10 15.2491 10.0263 15.0652 10.0701ZM38.5855 28.3451C38.7694 28.5378 38.822 28.6779 38.822 28.9756V29.3697L35.6871 32.4958L32.561 35.6307H32.1669H31.7816L29.3035 33.1613L26.8254 30.6832L22.9462 34.5536C20.8183 36.6727 18.9882 38.4591 18.8831 38.5116C18.6117 38.6429 18.3577 38.6342 18.0687 38.4591C17.7798 38.2927 17.6309 38.0037 17.6309 37.6184C17.6309 37.3645 18.06 36.9091 22.0355 32.9424C26.0635 28.9056 26.4576 28.5378 26.7203 28.5378C26.8779 28.5378 27.0968 28.5816 27.2019 28.6341C27.307 28.6867 28.4716 29.7987 29.7764 31.1035L32.1669 33.4853L34.864 30.7882L37.561 28.1H37.9551C38.279 28.1 38.3929 28.1437 38.5855 28.3451ZM27.3508 44.5624V49.4661H25.3805H23.4103V44.5624V39.6587H25.3805H27.3508V44.5624ZM20.433 45.4381V49.4661H18.5066H16.5801V45.4381V41.41H18.5066H20.433V45.4381ZM34.2685 46.8829V49.4661H32.2983H30.328V46.8829V44.2997H32.2983H34.2685V46.8829ZM32.3592 15.289L32.3593 15.3035C32.3855 20.3154 32.3857 20.3507 32.5782 20.7444C32.8934 21.3749 33.2699 21.7602 33.8479 22.0491L34.382 22.3206H39.4083C42.9197 22.3206 44.4259 22.2943 44.4259 22.2243C44.4259 22.1104 37.9635 15.5167 34.9862 12.5832C33.8216 11.4361 32.7533 10.4466 32.6044 10.3678L32.333 10.2277L32.3592 15.289Z" fill="#9C171E"/>
<path d="M41.6482 59.2963C41.7196 59.3318 41.7984 59.3503 41.8782 59.3503C41.9539 59.3503 42.0293 59.3357 42.0986 59.305C42.1164 59.2971 42.1341 59.2889 42.1514 59.2803C43.7704 58.4732 45.3897 57.6661 47.0093 56.859C47.1911 56.769 47.2698 56.639 47.2698 56.4355C47.266 54.642 47.266 52.8486 47.2698 51.0554C47.2698 50.8501 47.1899 50.7239 47.007 50.6347C46.3788 50.3288 46.1911 50.2864 45.5664 49.9729C45.5393 49.9565 45.2211 49.8081 45.0169 49.8081C44.8128 49.8081 44.4396 49.9565 44.4125 49.9729C42.7671 50.8248 41.7747 51.3244 40.1265 52.1709C39.9067 52.2808 39.9064 52.4669 39.9067 52.5555C39.9102 53.3901 39.9053 54.0941 39.9047 54.929C39.9047 55.1079 39.8309 55.1533 39.6731 55.0711C39.3793 54.9183 39.0878 54.7602 38.7913 54.6126C38.6848 54.5596 38.6466 54.4901 38.6466 54.3729C38.6501 53.5273 38.6524 52.6817 38.6446 51.8361C38.6446 51.6914 38.692 51.6239 38.8151 51.5614C40.4271 50.7398 41.7044 50.1411 43.3135 49.3136C43.3278 49.3063 43.4043 49.2564 43.4901 49.2002C43.6048 49.125 43.601 48.9353 43.4784 48.874C42.9697 48.6212 42.6444 48.4737 42.1378 48.2172C41.9809 48.1379 41.8376 48.1411 41.6804 48.2193C40.0614 49.0264 38.4403 49.8305 36.817 50.6318C36.6208 50.7285 36.5394 50.8574 36.54 51.0751C36.5448 52.8506 36.5448 54.6261 36.54 56.4016C36.54 56.6294 36.63 56.7638 36.8295 56.8625C38.4725 57.6706 40.0134 58.4819 41.6482 59.2963Z" fill="#9C171E"/>
<path d="M52.3787 59.2963C52.4501 59.3318 52.5289 59.3503 52.6086 59.3503C52.6844 59.3503 52.7598 59.3357 52.8291 59.305C52.8469 59.2971 52.8645 59.2889 52.8819 59.2803C54.5009 58.4732 56.1202 57.6661 57.7398 56.859C57.9216 56.769 58.0003 56.639 58.0003 56.4355C57.9964 54.642 57.9964 52.8486 58.0003 51.0554C58.0003 50.8501 57.9204 50.7239 57.7374 50.6347C57.1093 50.3288 56.9216 50.2864 56.2969 49.9729C56.2698 49.9565 55.9515 49.8081 55.7474 49.8081C55.5433 49.8081 55.1701 49.9565 55.143 49.9729C53.4975 50.8248 52.5051 51.3244 50.857 52.1709C50.6372 52.2808 50.6369 52.4669 50.6372 52.5555C50.6407 53.3901 50.6358 54.0941 50.6352 54.929C50.6352 55.1079 50.5614 55.1533 50.4036 55.0711C50.1098 54.9183 49.8182 54.7602 49.5218 54.6126C49.4153 54.5596 49.3771 54.4901 49.3771 54.3729C49.3805 53.5273 49.3829 52.6817 49.375 51.8361C49.375 51.6914 49.4225 51.6239 49.5455 51.5614C51.1576 50.7398 52.4348 50.1411 54.044 49.3136C54.0583 49.3063 54.1347 49.2564 54.2206 49.2002C54.3353 49.125 54.3315 48.9353 54.2089 48.874C53.7002 48.6212 53.3749 48.4737 52.8683 48.2172C52.7114 48.1379 52.5681 48.1411 52.4109 48.2193C50.7919 49.0264 49.1708 49.8305 47.5475 50.6318C47.3512 50.7285 47.2699 50.8574 47.2705 51.0751C47.2753 52.8506 47.2753 54.6261 47.2705 56.4016C47.2705 56.6294 47.3605 56.7638 47.56 56.8625C49.203 57.6706 50.7439 58.4819 52.3787 59.2963Z" fill="#9C171E"/>
<path d="M46.7986 49.6634C46.87 49.699 46.9488 49.7175 47.0285 49.7175C47.1043 49.7175 47.1797 49.7028 47.249 49.6721C47.2668 49.6643 47.2844 49.6561 47.3018 49.6474C48.9208 48.8403 50.5401 48.0333 52.1597 47.2262C52.3415 47.1361 52.4202 47.0062 52.4202 46.8026C52.4164 45.0092 52.4164 43.2158 52.4202 41.4225C52.4202 41.2173 52.3403 41.0911 52.1574 41.0019C51.5292 40.6959 51.3415 40.6536 50.7168 40.3401C50.6897 40.3237 50.3715 40.1753 50.1673 40.1753C49.9632 40.1753 49.59 40.3237 49.5629 40.3401C47.9174 41.192 46.925 41.6916 45.2769 42.538C45.0571 42.6479 45.0568 42.8341 45.0571 42.9227C45.0606 43.7573 45.0557 44.4613 45.0551 45.2962C45.0551 45.4751 44.9813 45.5205 44.8235 45.4383C44.5297 45.2854 44.2382 45.1274 43.9417 44.9797C43.8352 44.9268 43.797 44.8573 43.797 44.7401C43.8004 43.8945 43.8028 43.0489 43.7949 42.2033C43.7949 42.0585 43.8424 41.9911 43.9655 41.9286C45.5775 41.107 46.8548 40.5083 48.4639 39.6807C48.4782 39.6735 48.5547 39.6236 48.6405 39.5673C48.7552 39.4922 48.7514 39.3025 48.6288 39.2411C48.1201 38.9884 47.7948 38.8409 47.2882 38.5844C47.1313 38.5051 46.988 38.5083 46.8308 38.5864C45.2118 39.3935 43.5907 40.1977 41.9674 40.999C41.7711 41.0957 41.6898 41.2245 41.6904 41.4422C41.6952 43.2177 41.6952 44.9933 41.6904 46.7688C41.6904 46.9966 41.7804 47.1309 41.9799 47.2296C43.6229 48.0378 45.1638 48.849 46.7986 49.6634Z" fill="#9C171E"/>
</svg>
