<svg width="70" height="70" viewBox="0 0 70 70" fill="none" xmlns="http://www.w3.org/2000/svg">
<path d="M12 41.7216C12 45.1341 13.7753 46.8219 17.1765 46.8219H28.5947L28.0901 50.1426H26.1092C25.1748 50.1426 24.4086 50.9132 24.4086 51.8305C24.4086 52.7295 25.1748 53.5 26.1092 53.5H43.0216C43.9747 53.5 44.7409 52.7295 44.7409 51.8305C44.7409 50.9132 43.9747 50.1426 43.0216 50.1426H40.8912L40.4053 46.8219H51.8048C55.206 46.8219 57 45.1341 57 41.7216V21.0819C57 17.6879 55.206 16 51.8048 16H17.1765C13.7753 16 12 17.6879 12 21.0819V41.7216ZM15.6441 41.5015V21.3204C15.6441 20.0545 16.186 19.5775 17.4194 19.5775H51.5619C52.7953 19.5775 53.3559 20.0545 53.3559 21.3204V41.5015C53.3559 42.749 52.7953 43.2444 51.5619 43.2444H17.4194C16.186 43.2444 15.6441 42.749 15.6441 41.5015Z" fill="#9C171E"/>
<path d="M40.1276 21.834C39.5522 21.834 39.0859 22.3004 39.0859 22.8757C39.0859 22.9938 39.1099 23.1052 39.1459 23.2111L36.6068 25.3975C36.4286 25.2557 36.2064 25.1673 35.9609 25.1673C35.6778 25.1673 35.4218 25.2811 35.2343 25.4644L33.2453 24.4686C33.2066 23.9284 32.761 23.5007 32.2109 23.5007C31.6357 23.5007 31.1693 23.9671 31.1693 24.5423C31.1693 24.6998 31.2068 24.8475 31.2693 24.9813L29.2414 27.3196C29.1276 27.2771 29.0061 27.2507 28.8776 27.2507C28.3024 27.2507 27.8359 27.7171 27.8359 28.2923C27.8359 28.8675 28.3024 29.334 28.8776 29.334C29.4528 29.334 29.9193 28.8675 29.9193 28.2923C29.9193 28.1538 29.8909 28.0219 29.8418 27.9011L31.9026 25.5323C32.0007 25.5627 32.1028 25.584 32.2109 25.584C32.5141 25.584 32.7845 25.4523 32.9749 25.2454L34.9203 26.2209C34.9272 26.7904 35.3897 27.2507 35.9609 27.2507C36.5364 27.2507 37.0026 26.7842 37.0026 26.209C37.0026 26.1904 36.9982 26.1732 36.9972 26.1548L39.7068 23.8271C39.8357 23.8842 39.9774 23.9173 40.1276 23.9173C40.703 23.9173 41.1693 23.4511 41.1693 22.8757C41.1693 22.3004 40.703 21.834 40.1276 21.834H40.1276Z" fill="#9C171E"/>
<path d="M38.5852 35.3989C40.1189 35.3989 41.4144 34.0584 41.4144 32.324C41.4144 30.6311 40.1118 29.332 38.5852 29.332C37.0656 29.332 35.7561 30.6518 35.7631 32.3378C35.7631 34.0584 37.0516 35.3989 38.5852 35.3989ZM30.49 35.5578C31.8275 35.5578 32.955 34.3832 32.955 32.8768C32.955 31.3981 31.8135 30.2718 30.49 30.2718C29.1665 30.2718 28.025 31.4188 28.032 32.8906C28.032 34.3832 29.1595 35.5578 30.49 35.5578ZM26.6315 41.832H31.8836C31.1343 40.7748 31.9396 38.688 33.5222 37.4581C32.7519 36.9675 31.7505 36.6082 30.49 36.6082C27.3597 36.6082 25.3359 38.8815 25.3359 40.7541C25.3359 41.4382 25.6861 41.832 26.6315 41.832ZM34.2225 41.8251H42.948C44.1034 41.8251 44.5026 41.4796 44.5026 40.8439C44.5026 39.0681 42.2127 36.622 38.5852 36.622C34.9508 36.622 32.6679 39.0681 32.6679 40.8439C32.6679 41.4796 33.067 41.8251 34.2225 41.8251Z" fill="#9C171E"/>
</svg>
