<svg width="70" height="70" viewBox="0 0 70 70" fill="none" xmlns="http://www.w3.org/2000/svg">
<path d="M31.2344 27.4502C31.2344 25.386 32.9544 23.666 35.0186 23.666C37.0827 23.666 38.8028 25.386 38.8028 27.4502C38.8028 29.5144 37.0827 31.2344 35.0186 31.2344C32.9548 31.2348 31.2344 29.5144 31.2344 27.4502V27.4502Z" fill="#9C171E"/>
<path d="M43.4799 38.4572V40.9341C43.4799 41.278 43.2046 41.6222 42.7919 41.6222H27.2428C26.83 41.6222 26.5547 41.2784 26.5547 40.9341V38.4572C26.5547 34.9483 29.4444 32.0586 32.9533 32.0586C33.2286 32.0586 33.5039 32.1961 33.5724 32.4024L34.9486 35.1547L36.3248 32.4024C36.4622 32.1961 36.6686 32.0586 36.9439 32.0586C40.5906 32.0586 43.4803 34.9484 43.4803 38.4572H43.4799Z" fill="#9C171E"/>
<path d="M57.0347 31.7835V35.0859C57.0347 35.4987 56.6908 35.774 56.3466 35.774H48.3655C47.8838 35.774 47.6774 35.2923 47.6774 34.9485C47.746 27.9304 42.0354 22.2194 35.0174 22.2194C27.9994 22.2194 22.2884 27.93 22.2884 34.9485C22.2884 35.0174 22.3573 35.2923 22.082 35.5676C21.9445 35.7051 21.8067 35.774 21.6003 35.774H13.6881C13.4817 35.774 13.3442 35.7051 13.2064 35.5676C13.0689 35.4301 13 35.2238 13 35.0859V31.5082C13 31.1643 13.2753 30.889 13.5506 30.8201L17.4037 30.132C17.8165 28.6185 18.4357 27.1049 19.2616 25.7287L17.1281 22.4951C16.9217 22.2198 16.9906 21.8759 17.197 21.6006L21.9446 16.922C22.1509 16.7156 22.4948 16.7156 22.7701 16.922L25.9352 19.1926C27.3802 18.3671 28.8249 17.8164 30.4074 17.4037L31.0955 13.5506C31.1644 13.2068 31.4393 13 31.7836 13H38.4575C38.8014 13 39.0767 13.2753 39.1456 13.5506L39.8337 17.4034C41.4162 17.8161 42.8608 18.4353 44.237 19.2612L47.471 17.0595C47.7463 16.8531 48.0901 16.922 48.3655 17.1284L53.0441 21.876C53.2505 22.0824 53.3194 22.4951 53.113 22.7705L50.8424 25.9351C51.6679 27.3801 52.2874 28.8249 52.6313 30.4074L56.4844 31.1644C56.8282 31.1644 57.0346 31.5082 57.0346 31.7835L57.0347 31.7835Z" fill="#9C171E"/>
<path d="M24.1471 41.7603V55.5902C24.1471 56.0029 23.8718 56.2782 23.459 56.2782H16.5787C16.1659 56.2782 15.8906 56.0029 15.8906 55.5902V41.7603C15.8906 41.3476 16.1659 41.0723 16.5787 41.0723H23.459C23.8718 41.0723 24.1471 41.4165 24.1471 41.7603V41.7603Z" fill="#9C171E"/>
<path d="M52.9072 48.2281L44.6508 53.5948L39.284 56.9662C38.1833 57.6543 36.2569 57.8606 34.9493 57.379L29.2387 55.3148C27.5187 54.6956 26.2115 54.971 25.5234 54.971V42.7242C27.106 42.3804 31.3029 41.6923 33.3671 44.3067C33.5046 44.4442 33.6424 44.4442 33.7799 44.4442H40.5916C41.8299 44.4442 42.8623 45.545 42.8623 46.9212C42.8623 48.2973 41.8303 49.3981 40.5916 49.3981H34.0552C33.8488 49.3981 33.7799 49.467 33.7113 49.467C33.7113 49.536 33.6424 49.6734 33.7113 49.9487H40.6606C40.9359 49.9487 41.2112 49.8798 41.4861 49.6734L50.7744 43.6876C51.9442 42.9995 53.3889 43.5501 53.9395 44.7883C54.4897 46.1645 54.077 47.6092 52.9072 48.2283L52.9072 48.2281Z" fill="#9C171E"/>
</svg>
