<svg width="70" height="70" viewBox="0 0 70 70" fill="none" xmlns="http://www.w3.org/2000/svg">
<path d="M33.2446 41.4746H27.2461V46.6152L25.1704 44.8372L23.088 46.6152V41.4746H16.0933C15.4774 41.4746 15 41.9589 15 42.5749V56.0528C15.0004 56.6618 15.4912 57.1531 16.0933 57.1531H33.245C33.2727 57.1531 33.3073 57.1531 33.335 57.1462C33.8401 57.0977 34.2344 56.7311 34.3175 56.2606C34.3313 56.1914 34.3383 56.1221 34.3383 56.0529V42.5749C34.3383 41.959 33.8609 41.4746 33.245 41.4746L33.2446 41.4746ZM27.675 51.1541L28.8584 49.7427C29.0731 49.4939 29.4466 49.5004 29.6539 49.7427L30.8369 51.1541C31.0169 51.3757 30.9892 51.7008 30.7676 51.8874C30.5668 52.0674 30.221 52.0466 30.0413 51.8181L29.7717 51.5V53.0014C29.7717 53.2849 29.5432 53.5203 29.2527 53.5203C28.9692 53.5203 28.7338 53.2849 28.7338 53.0014V51.5069L28.471 51.8181C28.2841 52.0466 27.9521 52.0669 27.7378 51.8873C27.5162 51.7007 27.4886 51.3753 27.6751 51.1541L27.675 51.1541ZM23.2404 51.1541L24.4237 49.7427C24.6315 49.4939 25.0119 49.5004 25.2123 49.7427L26.3953 51.1541C26.5823 51.3757 26.5545 51.7008 26.333 51.8874C26.1321 52.0674 25.7863 52.0466 25.6067 51.8181L25.337 51.5V53.0014C25.337 53.2849 25.1085 53.5203 24.8181 53.5203C24.5346 53.5203 24.2991 53.2849 24.2991 53.0014V51.5069L24.0364 51.8181C23.8494 52.0466 23.5174 52.0669 23.3032 51.8873C23.0812 51.7007 23.0535 51.3753 23.2405 51.1541L23.2404 51.1541ZM30.7472 55.5958H23.3304C23.0399 55.5958 22.8114 55.3673 22.8114 55.0768C22.8114 54.7933 23.0399 54.5579 23.3304 54.5579H30.7472C31.0307 54.5579 31.2661 54.7929 31.2661 55.0768C31.2661 55.3677 31.0307 55.5958 30.7472 55.5958Z" fill="#9C171E"/>
<path d="M45.0859 46.123H50.2828L45.0859 51.3195V46.123Z" fill="#9C171E"/>
<path d="M26.2518 16.5176H29.227V19.1812H26.9162C26.6603 19.2158 26.4595 19.43 26.4595 19.7001V40.0897H23.7891V19.1057C23.7891 17.7566 24.827 16.6426 26.1484 16.5253C26.1757 16.5248 26.2103 16.5179 26.2518 16.5179L26.2518 16.5176Z" fill="#9C171E"/>
<path d="M54.725 19.1052V53.173C54.725 54.5983 53.5694 55.7604 52.1442 55.7604H35.7266V53.0899H44.5755C44.714 53.0899 44.8452 53.0345 44.9421 52.9376L51.9092 45.9705C52.0061 45.8736 52.0615 45.742 52.0615 45.6039V19.7001C52.0615 19.4166 51.8265 19.1812 51.5426 19.1812L49.2871 19.2781C49.294 19.2019 49.294 19.1327 49.294 19.0634V16.5176H52.1446C53.5699 16.5176 54.7251 17.6801 54.7251 19.1054L54.725 19.1052Z" fill="#9C171E"/>
<path d="M47.2339 15.7015H41.8513V14.6082C41.8513 13.1829 40.7026 12 39.2497 12C37.8105 12 36.6485 13.1691 36.6485 14.6082V15.7015H31.2659C30.8993 15.7015 30.6016 15.9988 30.6016 16.3658V19.064C30.6016 19.2856 30.6293 19.4999 30.6777 19.7007C30.9612 20.8698 32.013 21.735 33.2651 21.735H45.2342C46.4863 21.735 47.5381 20.8702 47.8215 19.7007C47.87 19.4999 47.8977 19.2856 47.8977 19.064L47.8981 16.3654C47.8981 15.9988 47.6003 15.7015 47.2337 15.7015L47.2339 15.7015ZM39.2497 15.743C38.5992 15.743 38.0737 15.2171 38.0737 14.5671C38.0737 13.9165 38.5996 13.3841 39.2497 13.3841C39.9002 13.3841 40.4256 13.9169 40.4256 14.5671C40.426 15.2172 39.9002 15.743 39.2497 15.743Z" fill="#9C171E"/>
<path d="M49.1209 20.2212C48.6227 21.9369 47.052 23.1202 45.2463 23.1202H33.2772C31.4715 23.1202 29.9008 21.9369 29.4027 20.2212H27.5V40.0914H33.2496C34.6403 40.0914 35.7266 41.1847 35.7266 42.5753V52.054H44.0567V45.6059C44.0567 45.3224 44.2917 45.0869 44.5756 45.0869H51.0238V20.2207L49.1209 20.2212ZM34.134 35.7284C34.134 36.1105 33.8244 36.4205 33.4419 36.4205H30.6745C30.2924 36.4205 29.9824 36.1109 29.9824 35.7284V32.961C29.9824 32.5789 30.2924 32.2689 30.6745 32.2689H33.4419C33.824 32.2689 34.134 32.5789 34.134 32.961V35.7284ZM34.134 28.5918C34.134 28.9739 33.8244 29.2839 33.4419 29.2839H30.6745C30.2924 29.2839 29.9824 28.9743 29.9824 28.5918V25.8244C29.9824 25.4423 30.2924 25.1323 30.6745 25.1323H33.4419C33.824 25.1323 34.134 25.4423 34.134 25.8244V28.5918ZM45.858 43.4254H38.3369C38.0506 43.4254 37.818 43.1928 37.818 42.9065C37.818 42.6201 38.0506 42.3875 38.3369 42.3875H45.858C46.1444 42.3875 46.377 42.6201 46.377 42.9065C46.377 43.1932 46.1444 43.4254 45.858 43.4254ZM48.8536 40.5749H38.3371C38.0508 40.5749 37.8182 40.3423 37.8182 40.0559C37.8182 39.7696 38.0508 39.537 38.3371 39.537H48.8536C49.14 39.537 49.3726 39.7696 49.3726 40.0559C49.3726 40.3427 49.14 40.5749 48.8536 40.5749ZM37.8178 35.7699C37.8178 35.4836 38.0504 35.251 38.3368 35.251H45.8579C46.1442 35.251 46.3768 35.4836 46.3768 35.7699C46.3768 36.0563 46.1442 36.2889 45.8579 36.2889H38.3368C38.0504 36.2889 37.8178 36.0567 37.8178 35.7699ZM48.8536 33.4384H38.3371C38.0508 33.4384 37.8182 33.2058 37.8182 32.9194C37.8182 32.6331 38.0508 32.4005 38.3371 32.4005H48.8536C49.14 32.4005 49.3726 32.6331 49.3726 32.9194C49.3726 33.2062 49.14 33.4384 48.8536 33.4384ZM37.8178 28.6334C37.8178 28.3471 38.0504 28.1145 38.3368 28.1145H45.8579C46.1442 28.1145 46.3768 28.3471 46.3768 28.6334C46.3768 28.9198 46.1442 29.1524 45.8579 29.1524H38.3368C38.0504 29.1524 37.8178 28.9202 37.8178 28.6334ZM48.8536 26.3019H38.3371C38.0508 26.3019 37.8182 26.0693 37.8182 25.7829C37.8182 25.4966 38.0508 25.264 38.3371 25.264H48.8536C49.14 25.264 49.3726 25.4966 49.3726 25.7829C49.3726 26.0697 49.14 26.3019 48.8536 26.3019Z" fill="#9C171E"/>
</svg>
