<svg width="123" height="123" viewBox="0 0 123 123" fill="none" xmlns="http://www.w3.org/2000/svg">
<path d="M21 74.6015C21 80.7837 24.1195 83.8416 30.0958 83.8416H50.1592L49.2726 89.8577H45.7919C44.1501 89.8577 42.8037 91.2537 42.8037 92.9156C42.8037 94.5442 44.1501 95.9402 45.7919 95.9402H75.5094C77.1841 95.9402 78.5304 94.5442 78.5304 92.9156C78.5304 91.2537 77.1841 89.8577 75.5094 89.8577H71.766L70.9122 83.8416H90.9427C96.9191 83.8416 100.071 80.7837 100.071 74.6015V37.2089C100.071 31.0598 96.9191 28.002 90.9427 28.002H30.0958C24.1195 28.002 21 31.0598 21 37.2089V74.6015ZM27.4032 74.2026V37.6409C27.4032 35.3475 28.3555 34.4833 30.5227 34.4833H90.5159C92.6831 34.4833 93.6682 35.3475 93.6682 37.6409V74.2026C93.6682 76.4628 92.6831 77.3602 90.5159 77.3602H30.5227C28.3555 77.3602 27.4032 76.4628 27.4032 74.2026Z" fill="#9C171E"/>
<path d="M42.1719 43.639C42.1719 44.4421 42.8514 45.1216 43.6236 45.1216H48.4574L50.8512 61.461C51.191 63.793 52.4265 65.2138 54.7893 65.2138H72.7657C73.4916 65.2138 74.1556 64.6424 74.1556 63.8239C74.1556 63.0208 73.4916 62.4494 72.7657 62.4494H55.1445C54.4032 62.4494 53.9399 61.9397 53.8318 61.1521L53.5847 59.546H72.8893C75.2521 59.546 76.5031 58.1097 76.8428 55.7623L78.0011 48.025C78.032 47.8242 78.0629 47.5617 78.0629 47.3918C78.0629 46.4807 77.4297 45.8629 76.3641 45.8629H51.6234L51.3763 44.195C51.1755 42.8514 50.635 42.1719 48.9207 42.1719H43.6236C42.8514 42.1719 42.1719 42.8514 42.1719 43.639ZM53.3531 70.2639C53.3531 71.7619 54.5577 72.9665 56.0557 72.9665C57.5537 72.9665 58.7583 71.7619 58.7583 70.2639C58.7583 68.7658 57.5537 67.5612 56.0557 67.5612C54.5577 67.5612 53.3531 68.7658 53.3531 70.2639ZM67.6075 70.2639C67.6075 71.7619 68.8276 72.9665 70.3256 72.9665C71.8237 72.9665 73.0128 71.7619 73.0128 70.2639C73.0128 68.7658 71.8237 67.5612 70.3256 67.5612C68.8276 67.5612 67.6075 68.7658 67.6075 70.2639Z" fill="#9C171E"/>
</svg>
