<svg width="70" height="70" viewBox="0 0 70 70" fill="none" xmlns="http://www.w3.org/2000/svg">
<path fill-rule="evenodd" clip-rule="evenodd" d="M49.3582 33.4116C49.8271 34.1029 50.8457 34.1029 51.3147 33.4116L53.5585 30.1034C53.8703 31.5252 54.0346 33.0021 54.0346 34.5173C54.0346 45.8476 44.8476 55.0346 33.5173 55.0346C22.187 55.0346 13 45.8476 13 34.5173C13 23.187 22.187 14 33.5173 14C38.0019 14 42.1508 15.4393 45.5271 17.881V18.2995C45.5271 18.9524 44.9978 19.4816 44.345 19.4816H42.1396C41.1913 19.4816 40.6291 20.5423 41.1614 21.3271L49.3582 33.4116ZM34.5478 45.9163L34.5386 44.4645C38.1245 44.1531 40.6892 42.2296 40.6892 38.7811C40.6892 35.6027 38.6695 34.183 35.7019 33.4502L34.5386 33.18V27.0294C36.2835 27.2676 37.3551 28.3575 37.5383 29.6948C37.5612 29.8734 37.7169 30.0108 37.9001 30.0108H39.9564C40.1763 30.0108 40.3457 29.8231 40.3228 29.6078C40.048 26.7546 37.694 24.9227 34.5569 24.6067V23.1091C34.5569 22.9076 34.392 22.7428 34.1905 22.7428H32.9036C32.7021 22.7428 32.5372 22.9076 32.5372 23.1091V24.6205C29.2948 24.9365 26.7576 26.7317 26.7576 30.0704C26.7576 33.1663 29.0383 34.6593 31.4335 35.2317L32.5647 35.5203V42.0556C30.5359 41.7854 29.4047 40.7 29.1711 39.2482C29.1436 39.0742 28.9879 38.9459 28.8093 38.9459H26.6935C26.4782 38.9459 26.3088 39.1291 26.3271 39.3444C26.5332 41.8632 28.4475 44.1806 32.5143 44.4829V45.9209C32.5143 46.1224 32.6792 46.2873 32.8807 46.2873H34.1814C34.3829 46.2873 34.5478 46.1178 34.5478 45.9163ZM31.8732 32.4839C30.3252 31.9252 29.6062 31.023 29.6062 29.8597C29.6062 28.1972 30.8702 27.2492 32.5601 27.034V32.7129C32.3037 32.6396 32.0884 32.5709 31.8732 32.4839ZM34.5386 35.9508C34.6851 35.992 34.8134 36.024 34.9416 36.0515C37.1078 36.711 37.836 37.627 37.836 39.0329C37.836 40.8282 36.4896 41.8999 34.5386 42.0739V35.9508Z" fill="#9C171E"/>
<path d="M51.1626 30.7422C50.772 31.3282 49.9109 31.3282 49.5202 30.7422L44.3433 22.9768C43.906 22.3209 44.3762 21.4424 45.1645 21.4424H46.116C46.6611 21.4424 47.1029 21.0005 47.1029 20.4554V14.987C47.1029 14.4419 47.5448 14 48.0899 14H52.5929C53.138 14 53.5799 14.4419 53.5799 14.987V20.4554C53.5799 21.0005 54.0218 21.4424 54.5669 21.4424H55.5184C56.3066 21.4424 56.7768 22.3209 56.3396 22.9768L51.1626 30.7422Z" fill="#9C171E"/>
</svg>
