<svg width="70" height="70" viewBox="0 0 70 70" fill="none" xmlns="http://www.w3.org/2000/svg">
<path d="M53.583 34.5101C52.9663 33.8508 51.9675 33.8508 51.3508 34.5101L48.1936 37.8855C47.5769 38.5447 47.5769 39.6126 48.1936 40.2719C48.8103 40.9311 49.8091 40.9311 50.4258 40.2719L50.6408 40.042C49.4849 46.2216 44.3739 50.8927 38.2595 50.8927H35.1023C34.2306 50.8927 33.5234 51.6482 33.5234 52.5806C33.5234 53.5125 34.2301 54.2685 35.1023 54.2685H38.2595C46.2581 54.2685 52.8691 47.8711 53.8932 39.6143L54.5086 40.2723C54.8169 40.6019 55.2207 40.7668 55.6249 40.7668C56.0287 40.7668 56.4329 40.6019 56.7412 40.2723C57.3579 39.613 57.3579 38.5452 56.7412 37.8859L53.583 34.5101Z" fill="#9C171E"/>
<path d="M16.6203 36.8971C16.9286 37.2267 17.3324 37.3916 17.7362 37.3916C18.1399 37.3916 18.5441 37.2267 18.8525 36.8971L22.0097 33.5217C22.6264 32.8624 22.6264 31.7946 22.0097 31.1353C21.393 30.4761 20.3942 30.476 19.7775 31.1353L19.5625 31.3652C20.7184 25.1856 25.8294 20.5145 31.9438 20.5145H35.101C35.9727 20.5145 36.6799 19.759 36.6799 18.8266C36.6799 17.8947 35.9732 17.1387 35.101 17.1387H31.9438C23.9452 17.1387 17.3342 23.5361 16.3101 31.7928L15.6947 31.1349C15.078 30.4756 14.0792 30.4756 13.4625 31.1349C12.8458 31.7942 12.8458 32.862 13.4625 33.5213L16.6203 36.8971Z" fill="#9C171E"/>
<path d="M34.6743 44.1425H35.9164C36.3236 44.1425 36.629 43.8982 36.7173 43.4977L37.0566 42.0656C37.2874 41.9842 37.5046 41.8959 37.7082 41.8009L38.9639 42.5746C39.2964 42.7851 39.6969 42.7511 39.9752 42.4728L40.8507 41.5973C41.129 41.319 41.1697 40.905 40.9457 40.5656L40.1788 39.3236C40.2738 39.1199 40.362 38.9027 40.4299 38.6923L41.8756 38.353C42.276 38.2647 42.5136 37.9593 42.5136 37.5521V36.3304C42.5136 35.9299 42.276 35.6177 41.8756 35.5295L40.4435 35.1833C40.3688 34.9458 40.2738 34.7354 40.1924 34.5521L40.9593 33.2829C41.1765 32.9367 41.1494 32.5499 40.8575 32.2648L39.9752 31.3892C39.6901 31.1313 39.3304 31.0838 38.9842 31.2739L37.7082 32.0612C37.5114 31.9662 37.2942 31.8779 37.0634 31.7965L36.7173 30.344C36.629 29.9436 36.3236 29.6992 35.9164 29.6992H34.6743C34.2603 29.6992 33.9549 29.9436 33.8666 30.344L33.5273 31.7897C33.2965 31.8644 33.0725 31.9526 32.8689 32.0544L31.5997 31.2739C31.2535 31.0838 30.9006 31.1245 30.6087 31.3892L29.7264 32.2648C29.4346 32.5499 29.4074 32.9367 29.6246 33.2829L30.3916 34.5521C30.3101 34.7354 30.2219 34.9458 30.1404 35.1833L28.7083 35.5295C28.3079 35.6177 28.0703 35.9299 28.0703 36.3304V37.5521C28.0703 37.9593 28.3079 38.2647 28.7083 38.353L30.154 38.6923C30.2219 38.9027 30.3101 39.1199 30.4051 39.3236L29.6382 40.5656C29.4142 40.905 29.4549 41.319 29.74 41.5973L30.6087 42.4728C30.887 42.7511 31.2875 42.7851 31.6268 42.5746L32.8757 41.8009C33.0793 41.8959 33.2965 41.9842 33.5273 42.0656L33.8666 43.4977C33.9549 43.8982 34.2603 44.1425 34.6743 44.1425ZM35.292 39.2964C33.9888 39.2964 32.9232 38.224 32.9232 36.9141C32.9232 35.6177 33.9888 34.5521 35.292 34.5521C36.6019 34.5521 37.6675 35.6177 37.6675 36.9141C37.6675 38.224 36.6019 39.2964 35.292 39.2964Z" fill="#9C171E"/>
<path d="M22.4236 48.3208C24.2057 48.3208 25.7181 46.7037 25.7181 44.6114C25.7181 42.5691 24.1976 41.002 22.4236 41.002C20.6416 41.002 19.1129 42.5941 19.121 44.6281C19.121 46.7037 20.6334 48.3208 22.4236 48.3208ZM17.3226 56.0732H27.5083C28.8572 56.0732 29.3231 55.6564 29.3231 54.8895C29.3231 52.7472 26.6582 49.7963 22.4155 49.7963C18.181 49.7963 15.5078 52.7472 15.5078 54.8895C15.5078 55.6564 15.9738 56.0732 17.3226 56.0732Z" fill="#9C171E"/>
<path d="M49.483 30.2483C49.3785 30.3002 49.2633 30.3272 49.1466 30.3272V30.3272C49.0357 30.3272 48.9253 30.3058 48.8239 30.261C48.7979 30.2495 48.7721 30.2376 48.7468 30.225C46.3779 29.0475 44.0087 27.87 41.639 26.6925C41.373 26.5612 41.2578 26.3715 41.2578 26.0746C41.2635 23.4581 41.2635 20.8416 41.2578 18.2254C41.2578 17.9259 41.3747 17.7418 41.6424 17.6117C42.5615 17.1653 42.8361 17.1036 43.7501 16.6462C43.7898 16.6222 44.2554 16.4057 44.5541 16.4057C44.8528 16.4057 45.3988 16.6222 45.4385 16.6462C47.846 17.889 49.298 18.6179 51.7095 19.8528C52.031 20.0132 52.0315 20.2847 52.031 20.414C52.026 21.6316 52.0332 22.6587 52.034 23.8767C52.034 24.1377 52.142 24.2041 52.3728 24.0841C52.8028 23.8611 53.2293 23.6305 53.663 23.4151C53.8189 23.3378 53.8748 23.2365 53.8748 23.0654C53.8697 21.8318 53.8663 20.5981 53.8778 19.3644C53.8778 19.1532 53.8083 19.0548 53.6283 18.9636C51.2696 17.765 49.4008 16.8915 47.0464 15.6842C47.0255 15.6736 46.9137 15.6009 46.7881 15.5188C46.6205 15.4092 46.626 15.1322 46.8052 15.0428V15.0428C47.5494 14.6741 48.0254 14.4589 48.7667 14.0847C48.9962 13.969 49.2059 13.9736 49.4359 14.0877C51.8047 15.2652 54.1766 16.4384 56.5517 17.6075C56.8389 17.7485 56.9579 17.9365 56.957 18.2541C56.95 20.8445 56.95 23.4348 56.957 26.0252C56.957 26.3576 56.8253 26.5536 56.5335 26.6976C54.1295 27.8766 51.875 29.0601 49.483 30.2483Z" fill="#9C171E"/>
</svg>
