<svg width="70" height="70" viewBox="0 0 70 70" fill="none" xmlns="http://www.w3.org/2000/svg">
<path d="M29.342 47.0343C29.342 47.0343 29.342 47.0343 29.342 47.0343L29.1984 47.1175C29.1068 47.1705 28.9922 47.1044 28.9922 46.9986V45.6495C28.9922 45.2401 29.3241 44.9082 29.7335 44.9082V44.9082C30.1429 44.9082 30.4748 45.2401 30.4748 45.6495V46.7642C30.4748 46.9904 30.2332 47.1345 30.0342 47.0272V47.0272C29.9295 46.9715 29.8105 46.9365 29.6915 46.9365C29.5729 46.9365 29.4539 46.9715 29.3421 47.0343C29.3421 47.0344 29.3421 47.0343 29.342 47.0343V47.0343Z" fill="#9C171E"/>
<path d="M34.4175 45.6075C34.4175 45.6075 34.4175 45.6075 34.4175 45.6075V53.2162C34.4175 53.6023 34.1043 53.9155 33.7182 53.9155H25.7462C25.3601 53.9155 25.0469 53.6023 25.0469 53.2162V45.6075C25.0469 45.223 25.3617 44.9082 25.7462 44.9082H25.9502C26.857 44.9082 27.5921 45.6433 27.5921 46.5501V48.4536C27.5921 48.6984 27.725 48.9293 27.9419 49.055C28.1589 49.1808 28.4243 49.1808 28.6412 49.055L28.9004 48.905C29.3992 48.6163 30.0129 48.6103 30.5173 48.8891L30.8303 49.0622C31.0675 49.1888 31.3151 49.1796 31.5225 49.055C31.7394 48.9293 31.8723 48.6984 31.8723 48.4536V46.5501C31.8723 45.6433 32.6074 44.9082 33.5142 44.9082H33.7182C34.1031 44.9082 34.4175 45.223 34.4175 45.6075C34.4175 45.6075 34.4175 45.6075 34.4175 45.6075V45.6075Z" fill="#9C171E"/>
<path d="M40.1077 47.0343C40.1077 47.0343 40.1076 47.0343 40.1076 47.0343L39.9601 47.1198C39.8703 47.1718 39.7578 47.107 39.7578 47.0031V45.6495C39.7578 45.2401 40.0897 44.9082 40.4991 44.9082V44.9082C40.9085 44.9082 41.2404 45.2401 41.2404 45.6495V46.7642C41.2404 46.9904 40.9989 47.1345 40.7998 47.0272V47.0272C40.6951 46.9715 40.5761 46.9365 40.4571 46.9365C40.3385 46.9365 40.2195 46.9715 40.1077 47.0343C40.1077 47.0344 40.1077 47.0343 40.1077 47.0343V47.0343Z" fill="#9C171E"/>
<path d="M45.1835 45.6075C45.1835 45.6075 45.1835 45.6075 45.1835 45.6075V53.2162C45.1835 53.6023 44.8703 53.9155 44.4842 53.9155H36.5118C36.1257 53.9155 35.8125 53.6023 35.8125 53.2162V45.6075C35.8125 45.223 36.1273 44.9082 36.5118 44.9082H36.7159C37.6226 44.9082 38.3577 45.6433 38.3577 46.5501V48.4536C38.3577 48.6984 38.4907 48.9293 38.7076 49.055C38.9245 49.1808 39.19 49.1808 39.4069 49.055L39.6661 48.905C40.1649 48.6163 40.7785 48.6103 41.2829 48.8891L41.596 49.0622C41.8332 49.1888 42.0807 49.1796 42.2881 49.055C42.505 48.9293 42.6379 48.6984 42.6379 48.4536V46.5501C42.6379 45.6433 43.373 44.9082 44.2798 44.9082H44.4839C44.8687 44.9082 45.1836 45.223 45.1836 45.6075C45.1836 45.6075 45.1836 45.6075 45.1835 45.6075V45.6075Z" fill="#9C171E"/>
<path d="M34.717 36.6281C34.717 36.6281 34.717 36.6281 34.717 36.6281L34.5683 36.7142C34.479 36.7659 34.3672 36.7014 34.3672 36.5982V35.2432C34.3672 34.8338 34.6991 34.502 35.1085 34.502V34.502C35.5179 34.502 35.8498 34.8338 35.8498 35.2432V36.358C35.8498 36.5841 35.6082 36.7283 35.4092 36.6209V36.6209C35.3045 36.5652 35.1855 36.5302 35.0665 36.5302C34.9479 36.5302 34.8289 36.5652 34.7171 36.6281C34.7171 36.6281 34.717 36.6281 34.717 36.6281V36.6281Z" fill="#9C171E"/>
<path d="M39.8003 35.2012C39.8003 35.2013 39.8003 35.2013 39.8003 35.2013V42.8099C39.8003 43.196 39.4871 43.5092 39.101 43.5092H31.129C30.7429 43.5092 30.4297 43.196 30.4297 42.8099V35.2013C30.4297 34.8168 30.7445 34.502 31.129 34.502H31.333C32.2398 34.502 32.9749 35.237 32.9749 36.1438V38.0474C32.9749 38.2922 33.1078 38.523 33.3248 38.6488C33.5417 38.7745 33.8071 38.7746 34.0241 38.6488L34.2832 38.4988C34.7821 38.2101 35.3957 38.204 35.9001 38.4829L36.2132 38.6559C36.4504 38.7825 36.6979 38.7733 36.9053 38.6488C37.1222 38.523 37.2551 38.2922 37.2551 38.0474V36.1438C37.2551 35.237 37.9902 34.502 38.897 34.502H39.1011C39.4859 34.502 39.8003 34.8168 39.8004 35.2012C39.8004 35.2012 39.8003 35.2012 39.8003 35.2012V35.2012Z" fill="#9C171E"/>
<path fill-rule="evenodd" clip-rule="evenodd" d="M53.3438 53.1616C53.3438 54.0684 54.0789 54.8034 54.9857 54.8034H57.056C57.0563 54.8034 57.0566 54.8034 57.0569 54.8032V54.8032C57.0571 54.8031 57.0574 54.803 57.0577 54.803C57.444 54.8033 57.7566 55.116 57.7566 55.5023C57.7566 55.8888 57.4437 56.2016 57.0573 56.2016C31.0429 56.2048 12.5165 56.202 13.6993 56.2016C13.3128 56.2016 13 55.8888 13 55.5023C13 55.1159 13.3128 54.803 13.6993 54.803H15.7294C16.6362 54.803 17.3713 54.0679 17.3713 53.1612V29.9144C17.3713 29.2824 16.6382 28.9331 16.1474 29.3313V29.3313C16.0145 29.436 15.8608 29.4849 15.7068 29.4849C15.5042 29.4849 15.3012 29.3942 15.1615 29.2262C14.9164 28.9186 14.9657 28.4851 15.2662 28.2404L33.2385 13.7507C34.4906 12.7509 36.2947 12.7509 37.5464 13.7439L55.3924 28.1215C55.6933 28.3595 55.735 28.7997 55.4974 29.1006C55.2527 29.4011 54.8125 29.4501 54.5116 29.2125V29.2125C54.0427 28.8334 53.3438 29.1671 53.3438 29.77V53.1616ZM47.1824 33.1208C47.1824 32.214 46.4473 31.4789 45.5405 31.4789H25.2155C24.3087 31.4789 23.5736 32.214 23.5736 33.1208V53.1592C23.5736 54.0659 24.3087 54.801 25.2154 54.801L45.5405 54.8014C46.4473 54.8014 47.1824 54.0663 47.1824 53.1595V33.1208ZM35.5209 28.5737H34.7173C34.4495 28.5737 34.2519 28.4156 34.1948 28.1566L34.028 27.4525C33.9951 27.3139 33.889 27.201 33.757 27.1474V27.1474C33.626 27.0941 33.4813 27.1037 33.3611 27.1781L32.7458 27.5594C32.5262 27.6955 32.2672 27.6736 32.0871 27.4935L31.5251 26.9271C31.3407 26.7471 31.3143 26.4792 31.4592 26.2597L31.8425 25.639C31.913 25.5248 31.9194 25.3827 31.8695 25.2583V25.2583C31.8174 25.1287 31.7099 25.0283 31.574 24.9964L30.8577 24.8282C30.5986 24.7711 30.4449 24.5735 30.4449 24.3101V23.5197C30.4449 23.2606 30.5986 23.0586 30.8577 23.0016L31.5652 22.8306C31.7016 22.7976 31.8148 22.6853 31.8674 22.5552V22.5552C31.9178 22.4307 31.9052 22.3008 31.8358 22.1858L31.4504 21.5481C31.3099 21.3242 31.3275 21.0739 31.5163 20.8895L32.0871 20.3231C32.2759 20.1518 32.5043 20.1255 32.7282 20.2484L33.355 20.6339C33.4759 20.7082 33.6225 20.7145 33.7542 20.6618V20.6618C33.8875 20.6084 33.9953 20.4967 34.0281 20.3569L34.1948 19.6469C34.2519 19.3878 34.4495 19.2297 34.7173 19.2297H35.5209C35.7843 19.2297 35.9819 19.3878 36.039 19.6469L36.2108 20.3678C36.2433 20.5041 36.3494 20.6155 36.4791 20.6686V20.6686C36.6096 20.722 36.7527 20.713 36.8726 20.639L37.5056 20.2484C37.7295 20.1255 37.9623 20.1562 38.1467 20.3231L38.7175 20.8895C38.9063 21.0739 38.9239 21.3242 38.7834 21.5481L38.2962 22.3544C38.2905 22.3637 38.2898 22.3752 38.2942 22.3851V22.3851V22.3851C38.4008 22.6246 38.6055 22.8153 38.8603 22.8769L39.3762 23.0016C39.6352 23.0586 39.7889 23.2606 39.7889 23.5197V24.3101C39.7889 24.5735 39.6352 24.7711 39.3762 24.8282L38.6598 24.9964C38.5239 25.0283 38.4164 25.1287 38.3644 25.2583V25.2583C38.3144 25.3827 38.3209 25.5248 38.3913 25.639L38.7746 26.2597C38.9195 26.4792 38.8931 26.7471 38.7131 26.9271L38.1467 27.4935C37.9667 27.6736 37.7076 27.6955 37.4924 27.5594L36.8727 27.1775C36.7525 27.1034 36.608 27.094 36.4772 27.1472V27.1472C36.345 27.201 36.2387 27.314 36.2058 27.4528L36.039 28.1566C35.9819 28.4156 35.7843 28.5737 35.5209 28.5737ZM33.5845 23.8973C33.5845 24.7448 34.2738 25.4386 35.1169 25.4386C35.9644 25.4386 36.6538 24.7448 36.6538 23.8973C36.6538 23.0586 35.9644 22.3693 35.1169 22.3693C34.2738 22.3693 33.5845 23.0586 33.5845 23.8973Z" fill="#9C171E"/>
</svg>
