<svg width="70" height="70" viewBox="0 0 70 70" fill="none" xmlns="http://www.w3.org/2000/svg">
<path fill-rule="evenodd" clip-rule="evenodd" d="M18.0836 13.0707C17.3061 13.2562 16.6082 13.7951 16.2372 14.5019L16.034 14.8729L16.0075 34.5471C15.9898 54.0447 15.9898 54.2214 16.1665 54.6896C16.3874 55.2904 16.9351 55.8646 17.5712 56.165L18.0659 56.3947H31.9801H41.2435C39.8499 54.8936 38.9978 52.8828 38.9978 50.673C38.9978 46.0273 42.7638 42.2613 47.4095 42.2613C47.598 42.2613 47.785 42.2675 47.9704 42.2797C47.9704 41.7925 47.9704 41.2854 47.9704 40.7577V27.2853H42.9525C39.7014 27.2853 37.749 27.2499 37.4133 27.1881C35.8761 26.9054 34.6216 25.8452 33.9944 24.2992C33.7912 23.7958 33.7912 23.7868 33.747 18.4125L33.747 18.4067L33.7028 13.0177L26.061 13C21.847 13 18.2691 13.0265 18.0836 13.0707ZM41.8128 31.5081C41.9983 31.7025 42.0513 31.8438 42.0513 32.1442V32.5417L38.8886 35.6956L35.7347 38.8583H35.3372H34.9485L32.4483 36.367L29.9482 33.8669L26.0345 37.7717C23.8878 39.9096 22.0414 41.7119 21.9354 41.7649C21.6615 41.8974 21.4053 41.8886 21.1138 41.7119C20.8222 41.544 20.672 41.2525 20.672 40.8638C20.672 40.6076 21.1049 40.1482 25.1158 36.1462C29.1796 32.0735 29.5771 31.7025 29.8422 31.7025C30.0012 31.7025 30.2221 31.7466 30.3281 31.7996C30.4341 31.8527 31.6091 32.9746 32.9254 34.291L35.3372 36.6939L38.0582 33.9729L40.7792 31.2607H41.1767C41.5036 31.2607 41.6185 31.3049 41.8128 31.5081ZM30.4783 47.8695V52.8167H28.4905H26.5028V47.8695V42.9222H28.4905H30.4783V47.8695ZM23.4991 48.7529V52.8167H21.5555H19.6119V48.7529V44.6891H21.5555H23.4991V48.7529ZM37.4574 50.2106V52.8167H35.4697H33.482V50.2106V47.6044H35.4697H37.4574V50.2106ZM35.5303 18.3352L35.5304 18.3498C35.5568 23.4062 35.557 23.4419 35.7512 23.839C36.0692 24.4751 36.4491 24.8638 37.0322 25.1554L37.5711 25.4292H42.642C46.1846 25.4292 47.7041 25.4027 47.7041 25.332C47.7041 25.2172 41.1843 18.5649 38.1806 15.6053C37.0057 14.448 35.9279 13.4497 35.7777 13.3702L35.5038 13.2289L35.5303 18.3352Z" fill="#9C171E"/>
<path fill-rule="evenodd" clip-rule="evenodd" d="M47.4044 57.9978C51.4506 57.9978 54.7307 54.7177 54.7307 50.6715C54.7307 46.6253 51.4506 43.3452 47.4044 43.3452C43.3581 43.3452 40.078 46.6253 40.078 50.6715C40.078 54.7177 43.3581 57.9978 47.4044 57.9978ZM47.0791 55.9292C47.0666 55.5253 47.1082 55.3879 47.279 55.3046C47.3997 55.2421 47.5163 55.2671 47.6329 55.3795C47.7037 55.4503 47.7162 55.517 47.7162 55.8792C47.7162 56.2873 47.712 56.2998 47.5996 56.3997C47.4538 56.5246 47.3539 56.5246 47.2082 56.3997C47.0999 56.3039 47.0916 56.2748 47.0791 55.9292ZM43.3024 54.7716C43.1275 54.6009 43.165 54.4885 43.4981 54.1429C43.827 53.8014 43.9603 53.7556 44.1435 53.9263C44.3267 54.097 44.2767 54.2428 43.9311 54.5759C43.5855 54.909 43.4731 54.9465 43.3024 54.7716ZM49.465 48.5799C49.3984 48.6257 48.7905 49.217 48.1201 49.8998L46.9001 51.1365L46.1423 50.3912C45.3345 49.5959 45.1971 49.5043 44.8931 49.5667C44.6891 49.6084 44.4684 49.7708 44.3934 49.9332C44.306 50.1122 44.3018 50.4287 44.3809 50.5786C44.4559 50.7118 46.4712 52.723 46.6003 52.7896C46.7252 52.852 47.0542 52.8479 47.1874 52.7771C47.3456 52.6938 50.3353 49.6792 50.4186 49.5168C50.6518 49.0587 50.3145 48.5049 49.8023 48.5049C49.6691 48.5049 49.5442 48.5341 49.465 48.5799ZM43.3024 46.5687C43.1275 46.7395 43.165 46.8519 43.4981 47.1975C43.8312 47.5431 43.9769 47.5931 44.1476 47.4098C44.3184 47.2266 44.2726 47.0934 43.9311 46.7644C43.5855 46.4313 43.4731 46.3939 43.3024 46.5687ZM47.2081 44.9407C47.0957 45.0406 47.0916 45.0531 47.0916 45.4611C47.0916 45.8359 47.0999 45.89 47.1832 45.9691C47.2373 46.0274 47.3247 46.0607 47.4038 46.0607C47.483 46.0607 47.5704 46.0274 47.6245 45.9691C47.7078 45.89 47.7161 45.8359 47.7161 45.4611C47.7161 45.0531 47.712 45.0406 47.5995 44.9407C47.5371 44.8865 47.4455 44.8407 47.4038 44.8407C47.3622 44.8407 47.2706 44.8865 47.2081 44.9407ZM50.6641 47.414C50.4809 47.2433 50.5309 47.0976 50.8765 46.7644C51.2221 46.4313 51.3345 46.3939 51.5053 46.5687C51.6801 46.7395 51.6427 46.8519 51.3096 47.1975C50.9806 47.5389 50.8474 47.5847 50.6641 47.414ZM41.6161 50.5578C41.6535 50.4953 41.7285 50.4162 41.7826 50.387C41.8534 50.3537 42.0116 50.3371 42.249 50.3454C42.6654 50.3579 42.7944 50.437 42.7944 50.6702C42.7944 50.9034 42.6654 50.9825 42.249 50.995C41.8451 51.0075 41.7202 50.9658 41.6161 50.7826C41.5619 50.6827 41.5619 50.6577 41.6161 50.5578ZM52.1924 50.387C52.0342 50.4703 51.9676 50.641 52.0342 50.7826C52.1216 50.9616 52.2507 51.0074 52.6629 50.9949C53.0085 50.9824 53.0377 50.9741 53.1335 50.8659C53.1876 50.8034 53.2334 50.7118 53.2334 50.6701C53.2334 50.6285 53.1876 50.5369 53.1335 50.4744C53.0377 50.3662 53.0085 50.3579 52.6629 50.3454C52.4214 50.337 52.2632 50.3537 52.1924 50.387ZM50.6601 53.9305C50.4893 54.1137 50.5351 54.247 50.8766 54.5759C51.2222 54.909 51.3346 54.9465 51.5053 54.7716C51.6802 54.6009 51.6427 54.4885 51.3096 54.1429C50.9765 53.7972 50.8308 53.7473 50.6601 53.9305Z" fill="#9C171E"/>
</svg>
