<svg width="70" height="70" viewBox="0 0 70 70" fill="none" xmlns="http://www.w3.org/2000/svg">
<g id="automasi-rekonsiliasi-bank">
<g id="Group">
<path id="Vector" d="M30.0075 22.8649C27.6533 23.8455 25.1234 24.8953 24.3788 25.2052C23.6388 25.5151 22.9728 25.8018 22.8988 25.8481C22.6444 26.0007 22.6074 26.1626 22.6074 27.0922C22.6074 28.0681 22.6537 28.2254 22.9774 28.3919C23.1578 28.4844 23.2226 28.4844 34.4475 28.4844C45.6725 28.4844 45.7373 28.4844 45.9177 28.3919C46.2414 28.2254 46.2877 28.0681 46.2877 27.0969C46.2877 26.1302 46.2414 25.9683 45.9269 25.8065C45.8298 25.7556 44.951 25.3856 43.9705 24.9786C35.7194 21.5514 34.5817 21.0843 34.4383 21.0889C34.3458 21.0889 32.5698 21.8012 30.0075 22.8649ZM38.9338 25.1081C39.142 25.2145 39.3038 25.4781 39.3038 25.7093C39.3038 25.9406 39.142 26.2042 38.9338 26.3106C38.7581 26.4031 38.6702 26.4031 34.4429 26.4031H30.137L29.952 26.3014C29.4849 26.0377 29.4802 25.4041 29.9427 25.1266L30.1231 25.0156H34.4383C38.6702 25.0156 38.7581 25.0156 38.9338 25.1081Z" fill="#9C171E"/>
<path id="Vector_2" d="M24.8262 33.4547V37.0391H26.5837H28.3412V33.4547V29.8702H26.5837H24.8262V33.4547Z" fill="#9C171E"/>
<path id="Vector_3" d="M40.5527 33.4547V37.0391H42.3103H44.0678V33.4547V29.8702H42.3103H40.5527V33.4547Z" fill="#9C171E"/>
<path id="Vector_4" d="M34.1137 30.894C33.887 31.0097 33.7529 31.2687 33.7529 31.5924V31.8376L33.5124 31.9486C33.2118 32.0873 32.7446 32.5452 32.6013 32.8458C32.1896 33.7014 32.333 34.608 32.9898 35.2601C33.3737 35.6486 33.9194 35.8845 34.4282 35.8845C34.7982 35.8845 35.1404 36.2175 35.1404 36.5829C35.1404 36.9251 34.7889 37.272 34.442 37.272C34.1044 37.272 33.7529 36.9205 33.7529 36.5782C33.7529 36.347 33.591 36.0833 33.3829 35.977C33.1517 35.8613 32.9667 35.8613 32.7354 35.977C31.9954 36.3516 32.4486 37.8686 33.4523 38.3866L33.7529 38.5439V38.789C33.7529 39.1174 33.887 39.3718 34.1229 39.492C34.6317 39.751 35.1404 39.3995 35.1404 38.789V38.5439L35.3856 38.4282C35.6816 38.2895 36.1441 37.8362 36.2921 37.5356C36.7037 36.6846 36.5603 35.7735 35.9036 35.1167C35.5151 34.7282 34.9785 34.497 34.4605 34.497C34.1044 34.497 33.7529 34.1547 33.7529 33.8032C33.7529 33.4609 34.1044 33.1094 34.442 33.1094C34.7982 33.1094 35.1404 33.4517 35.1404 33.8032C35.1404 34.1547 35.4827 34.497 35.8342 34.497C35.9128 34.497 36.0608 34.4553 36.1579 34.4045C36.5881 34.1825 36.6436 33.5673 36.2921 32.8458C36.1394 32.5406 35.6816 32.0873 35.3856 31.9486L35.1404 31.8376V31.5924C35.1404 30.9773 34.6178 30.6258 34.1137 30.894Z" fill="#9C171E"/>
<path id="Vector_5" d="M24.3232 38.5052C23.9763 38.6855 23.907 38.9122 23.9023 39.8464V40.5078H26.5895H29.2766L29.2628 39.7308C29.2443 38.8844 29.2073 38.7549 28.9298 38.5468C28.8003 38.4497 28.754 38.4497 26.6404 38.4358C24.6516 38.4265 24.4666 38.4312 24.3232 38.5052Z" fill="#9C171E"/>
<path id="Vector_6" d="M40.0478 38.5052C39.701 38.6855 39.6316 38.9122 39.627 39.8464V40.5078H42.3141H45.0013L44.9874 39.7308C44.9689 38.8844 44.9319 38.7549 44.6544 38.5468C44.5249 38.4497 44.4786 38.4497 42.365 38.4358C40.3762 38.4265 40.1912 38.4312 40.0478 38.5052Z" fill="#9C171E"/>
<path id="Vector_7" d="M23.2087 41.8063C23.0098 41.8896 22.7924 42.0792 22.6999 42.2642C22.6167 42.4261 22.6074 42.5371 22.6074 43.328C22.6074 44.3501 22.649 44.5027 22.9774 44.6692C23.1578 44.7617 23.2226 44.7617 34.4475 44.7617C45.6725 44.7617 45.7373 44.7617 45.9177 44.6692C46.0379 44.6091 46.135 44.512 46.1952 44.3871C46.2877 44.2113 46.2923 44.1373 46.2784 43.2586L46.2645 42.3197L46.1212 42.1393C46.0425 42.0422 45.9084 41.9173 45.8252 41.8572L45.6725 41.7554L34.4984 41.7601C27.2695 41.7601 23.2827 41.7786 23.2087 41.8063Z" fill="#9C171E"/>
<g id="Group_2">
<g id="Vector_8">
<mask id="path-8-outside-1_5921_46652" maskUnits="userSpaceOnUse" x="11" y="11.3711" width="40" height="36" fill="black">
<rect fill="white" x="11" y="11.3711" width="40" height="36"/>
<path d="M32.8309 12.0362C32.6638 12.0538 32.1449 12.1153 31.6876 12.1681C29.0667 12.4671 25.9797 13.4609 23.6491 14.7626C14.4673 19.8899 10.0435 30.3997 12.8227 40.5138C13.2097 41.9297 13.8517 43.5568 14.5641 44.92C15.2061 46.16 15.4436 46.3711 16.1823 46.3711C16.6133 46.3711 16.6924 46.3359 17.0178 46.0369C17.3169 45.7467 17.3784 45.6323 17.4136 45.2629C17.4576 44.8584 17.4048 44.7265 16.754 43.3809C16.367 42.5805 15.9185 41.5691 15.769 41.1382C14.01 36.0724 14.3178 30.5756 16.6397 25.8352C18.6361 21.7632 21.7758 18.6235 25.839 16.6358C31.925 13.672 38.9609 14.0062 44.8622 17.5417C45.3547 17.8407 45.7593 18.1134 45.7593 18.1574C45.7593 18.1925 45.1084 18.2277 44.3169 18.2277C42.9713 18.2277 42.8658 18.2365 42.5931 18.4212C41.7576 18.9929 41.8016 20.1274 42.6899 20.6463C42.9713 20.8134 43.1472 20.8222 46.4189 20.8222C49.7873 20.8222 49.8576 20.8222 50.1567 20.6287C50.7811 20.2417 50.7723 20.3209 50.7723 16.3984C50.7723 12.8893 50.7723 12.8893 50.57 12.5902C50.4469 12.4055 50.2094 12.2296 49.9632 12.1241C49.5938 11.9746 49.5058 11.9658 49.1804 12.0625C48.7143 12.2033 48.3537 12.5551 48.2306 13.0036C48.1778 13.1883 48.1339 14.0678 48.1339 14.956V16.5655L47.3247 16.0026C44.3609 13.9446 40.9749 12.643 37.3602 12.1593C36.6302 12.0625 33.3674 11.9746 32.8309 12.0362Z"/>
</mask>
<path d="M32.8309 12.0362C32.6638 12.0538 32.1449 12.1153 31.6876 12.1681C29.0667 12.4671 25.9797 13.4609 23.6491 14.7626C14.4673 19.8899 10.0435 30.3997 12.8227 40.5138C13.2097 41.9297 13.8517 43.5568 14.5641 44.92C15.2061 46.16 15.4436 46.3711 16.1823 46.3711C16.6133 46.3711 16.6924 46.3359 17.0178 46.0369C17.3169 45.7467 17.3784 45.6323 17.4136 45.2629C17.4576 44.8584 17.4048 44.7265 16.754 43.3809C16.367 42.5805 15.9185 41.5691 15.769 41.1382C14.01 36.0724 14.3178 30.5756 16.6397 25.8352C18.6361 21.7632 21.7758 18.6235 25.839 16.6358C31.925 13.672 38.9609 14.0062 44.8622 17.5417C45.3547 17.8407 45.7593 18.1134 45.7593 18.1574C45.7593 18.1925 45.1084 18.2277 44.3169 18.2277C42.9713 18.2277 42.8658 18.2365 42.5931 18.4212C41.7576 18.9929 41.8016 20.1274 42.6899 20.6463C42.9713 20.8134 43.1472 20.8222 46.4189 20.8222C49.7873 20.8222 49.8576 20.8222 50.1567 20.6287C50.7811 20.2417 50.7723 20.3209 50.7723 16.3984C50.7723 12.8893 50.7723 12.8893 50.57 12.5902C50.4469 12.4055 50.2094 12.2296 49.9632 12.1241C49.5938 11.9746 49.5058 11.9658 49.1804 12.0625C48.7143 12.2033 48.3537 12.5551 48.2306 13.0036C48.1778 13.1883 48.1339 14.0678 48.1339 14.956V16.5655L47.3247 16.0026C44.3609 13.9446 40.9749 12.643 37.3602 12.1593C36.6302 12.0625 33.3674 11.9746 32.8309 12.0362Z" fill="#9C171E"/>
<path d="M32.8309 12.0362C32.6638 12.0538 32.1449 12.1153 31.6876 12.1681C29.0667 12.4671 25.9797 13.4609 23.6491 14.7626C14.4673 19.8899 10.0435 30.3997 12.8227 40.5138C13.2097 41.9297 13.8517 43.5568 14.5641 44.92C15.2061 46.16 15.4436 46.3711 16.1823 46.3711C16.6133 46.3711 16.6924 46.3359 17.0178 46.0369C17.3169 45.7467 17.3784 45.6323 17.4136 45.2629C17.4576 44.8584 17.4048 44.7265 16.754 43.3809C16.367 42.5805 15.9185 41.5691 15.769 41.1382C14.01 36.0724 14.3178 30.5756 16.6397 25.8352C18.6361 21.7632 21.7758 18.6235 25.839 16.6358C31.925 13.672 38.9609 14.0062 44.8622 17.5417C45.3547 17.8407 45.7593 18.1134 45.7593 18.1574C45.7593 18.1925 45.1084 18.2277 44.3169 18.2277C42.9713 18.2277 42.8658 18.2365 42.5931 18.4212C41.7576 18.9929 41.8016 20.1274 42.6899 20.6463C42.9713 20.8134 43.1472 20.8222 46.4189 20.8222C49.7873 20.8222 49.8576 20.8222 50.1567 20.6287C50.7811 20.2417 50.7723 20.3209 50.7723 16.3984C50.7723 12.8893 50.7723 12.8893 50.57 12.5902C50.4469 12.4055 50.2094 12.2296 49.9632 12.1241C49.5938 11.9746 49.5058 11.9658 49.1804 12.0625C48.7143 12.2033 48.3537 12.5551 48.2306 13.0036C48.1778 13.1883 48.1339 14.0678 48.1339 14.956V16.5655L47.3247 16.0026C44.3609 13.9446 40.9749 12.643 37.3602 12.1593C36.6302 12.0625 33.3674 11.9746 32.8309 12.0362Z" stroke="#9C171E" stroke-width="0.4" mask="url(#path-8-outside-1_5921_46652)"/>
</g>
<g id="Vector_9">
<mask id="path-9-outside-2_5921_46652" maskUnits="userSpaceOnUse" x="17.2305" y="22.0078" width="40" height="36" fill="black">
<rect fill="white" x="17.2305" y="22.0078" width="40" height="36"/>
<path d="M51.9849 22.9603C51.6859 23.2505 51.6244 23.3649 51.5892 23.7343C51.5452 24.1388 51.598 24.2707 52.2488 25.6163C53.2866 27.7359 53.7967 29.3365 54.1749 31.6408C54.3947 32.9864 54.3947 35.9942 54.1661 37.3574C53.8143 39.5737 53.2866 41.2623 52.3543 43.1708C50.3931 47.1988 47.2094 50.3913 43.1638 52.3526C40.5781 53.6102 38.1155 54.2259 35.2045 54.349C31.3523 54.4985 27.5618 53.5047 24.1494 51.4555C23.6481 51.1565 23.2435 50.8838 23.2435 50.8398C23.2435 50.8047 23.8943 50.7695 24.6859 50.7695C26.0315 50.7695 26.137 50.7607 26.4096 50.5672C27.2452 50.0043 27.2012 48.8698 26.3129 48.3509C26.0315 48.1838 25.8556 48.175 22.5839 48.175C19.2155 48.175 19.1451 48.175 18.8461 48.3685C18.2217 48.7555 18.2305 48.6763 18.2305 52.5988C18.2305 56.1079 18.2305 56.1079 18.4328 56.407C18.5559 56.5917 18.7933 56.7675 19.0396 56.8731C19.409 57.0226 19.4969 57.0314 19.8223 56.9347C20.2885 56.7939 20.649 56.4421 20.7722 55.9936C20.8249 55.8089 20.8689 54.9294 20.8689 54.0324V52.4229L21.0712 52.5636C22.8214 53.8301 25.2751 55.1405 27.0253 55.7386C32.2758 57.5503 37.7549 57.4184 42.9439 55.3692C47.7634 53.4695 52.1257 49.4854 54.5354 44.7714C57.042 39.8727 57.6664 34.1297 56.268 28.8176C55.8371 27.1642 55.4149 26.0561 54.597 24.429C53.7791 22.802 53.612 22.6261 52.8205 22.6261C52.3895 22.6261 52.3104 22.6613 51.9849 22.9603Z"/>
</mask>
<path d="M51.9849 22.9603C51.6859 23.2505 51.6244 23.3649 51.5892 23.7343C51.5452 24.1388 51.598 24.2707 52.2488 25.6163C53.2866 27.7359 53.7967 29.3365 54.1749 31.6408C54.3947 32.9864 54.3947 35.9942 54.1661 37.3574C53.8143 39.5737 53.2866 41.2623 52.3543 43.1708C50.3931 47.1988 47.2094 50.3913 43.1638 52.3526C40.5781 53.6102 38.1155 54.2259 35.2045 54.349C31.3523 54.4985 27.5618 53.5047 24.1494 51.4555C23.6481 51.1565 23.2435 50.8838 23.2435 50.8398C23.2435 50.8047 23.8943 50.7695 24.6859 50.7695C26.0315 50.7695 26.137 50.7607 26.4096 50.5672C27.2452 50.0043 27.2012 48.8698 26.3129 48.3509C26.0315 48.1838 25.8556 48.175 22.5839 48.175C19.2155 48.175 19.1451 48.175 18.8461 48.3685C18.2217 48.7555 18.2305 48.6763 18.2305 52.5988C18.2305 56.1079 18.2305 56.1079 18.4328 56.407C18.5559 56.5917 18.7933 56.7675 19.0396 56.8731C19.409 57.0226 19.4969 57.0314 19.8223 56.9347C20.2885 56.7939 20.649 56.4421 20.7722 55.9936C20.8249 55.8089 20.8689 54.9294 20.8689 54.0324V52.4229L21.0712 52.5636C22.8214 53.8301 25.2751 55.1405 27.0253 55.7386C32.2758 57.5503 37.7549 57.4184 42.9439 55.3692C47.7634 53.4695 52.1257 49.4854 54.5354 44.7714C57.042 39.8727 57.6664 34.1297 56.268 28.8176C55.8371 27.1642 55.4149 26.0561 54.597 24.429C53.7791 22.802 53.612 22.6261 52.8205 22.6261C52.3895 22.6261 52.3104 22.6613 51.9849 22.9603Z" fill="#9C171E"/>
<path d="M51.9849 22.9603C51.6859 23.2505 51.6244 23.3649 51.5892 23.7343C51.5452 24.1388 51.598 24.2707 52.2488 25.6163C53.2866 27.7359 53.7967 29.3365 54.1749 31.6408C54.3947 32.9864 54.3947 35.9942 54.1661 37.3574C53.8143 39.5737 53.2866 41.2623 52.3543 43.1708C50.3931 47.1988 47.2094 50.3913 43.1638 52.3526C40.5781 53.6102 38.1155 54.2259 35.2045 54.349C31.3523 54.4985 27.5618 53.5047 24.1494 51.4555C23.6481 51.1565 23.2435 50.8838 23.2435 50.8398C23.2435 50.8047 23.8943 50.7695 24.6859 50.7695C26.0315 50.7695 26.137 50.7607 26.4096 50.5672C27.2452 50.0043 27.2012 48.8698 26.3129 48.3509C26.0315 48.1838 25.8556 48.175 22.5839 48.175C19.2155 48.175 19.1451 48.175 18.8461 48.3685C18.2217 48.7555 18.2305 48.6763 18.2305 52.5988C18.2305 56.1079 18.2305 56.1079 18.4328 56.407C18.5559 56.5917 18.7933 56.7675 19.0396 56.8731C19.409 57.0226 19.4969 57.0314 19.8223 56.9347C20.2885 56.7939 20.649 56.4421 20.7722 55.9936C20.8249 55.8089 20.8689 54.9294 20.8689 54.0324V52.4229L21.0712 52.5636C22.8214 53.8301 25.2751 55.1405 27.0253 55.7386C32.2758 57.5503 37.7549 57.4184 42.9439 55.3692C47.7634 53.4695 52.1257 49.4854 54.5354 44.7714C57.042 39.8727 57.6664 34.1297 56.268 28.8176C55.8371 27.1642 55.4149 26.0561 54.597 24.429C53.7791 22.802 53.612 22.6261 52.8205 22.6261C52.3895 22.6261 52.3104 22.6613 51.9849 22.9603Z" stroke="#9C171E" stroke-width="0.4" mask="url(#path-9-outside-2_5921_46652)"/>
</g>
</g>
</g>
</g>
</svg>
