<svg width="70" height="70" viewBox="0 0 70 70" fill="none" xmlns="http://www.w3.org/2000/svg">
<path d="M44.1731 58.0001C48.8519 58.0001 52.7138 53.9814 52.7138 49.1212C52.7138 44.2609 48.8437 40.2422 44.1648 40.2422C39.4943 40.2422 35.6406 44.2609 35.6406 49.1212C35.6406 53.9814 39.5025 58.0001 44.1731 58.0001ZM44.1648 54.136C43.942 54.136 43.777 53.9642 43.777 53.7238V53.1141C42.5475 53.0111 41.6398 52.3413 41.3922 51.3967C41.3592 51.2851 41.3427 51.1821 41.3427 51.079C41.3427 50.7184 41.582 50.4693 41.9368 50.4693C42.2339 50.4693 42.4319 50.6325 42.5557 50.9502C42.6877 51.474 43.0921 51.8604 43.777 51.9635V49.6278L43.6285 49.5935C42.2009 49.25 41.4582 48.563 41.4582 47.4038C41.4582 46.1501 42.4237 45.2914 43.777 45.1626V44.5615C43.777 44.3124 43.942 44.1493 44.1648 44.1493C44.3876 44.1493 44.5609 44.321 44.5609 44.5615V45.1626C45.7162 45.2828 46.5744 45.944 46.8054 46.8628C46.8302 46.9658 46.855 47.0689 46.855 47.1719C46.855 47.5154 46.6156 47.7644 46.2691 47.7644C45.9637 47.7644 45.7657 47.5841 45.6419 47.2921C45.4769 46.7683 45.1055 46.4334 44.5609 46.3304V48.5372L44.7507 48.5802C46.2443 48.8721 46.9952 49.5849 46.9952 50.8042C46.9952 52.161 45.9555 52.9939 44.5609 53.1227V53.7238C44.5609 53.9642 44.3876 54.136 44.1648 54.136ZM43.777 48.3312V46.3218C43.1251 46.4334 42.729 46.837 42.729 47.3179C42.729 47.7988 43.0343 48.1079 43.7192 48.314L43.777 48.3312ZM44.5609 49.8253V51.9635C45.3449 51.869 45.7327 51.4568 45.7327 50.8987C45.7327 50.4006 45.4604 50.0743 44.7177 49.8682L44.5609 49.8253Z" fill="#9C171E"/>
<path fill-rule="evenodd" clip-rule="evenodd" d="M19.3127 14.366C18.4722 15.2406 18 16.4268 18 17.6637V45.646C18 46.8829 18.4722 48.0692 19.3127 48.9438C20.1531 49.8184 21.2931 50.3097 22.4817 50.3097H40.4085C41.5972 50.3097 42.7371 49.8184 43.5776 48.9438C44.4181 48.0692 44.8902 46.8829 44.8902 45.646V17.6637C44.8902 16.4268 44.4181 15.2406 43.5776 14.366C42.7371 13.4914 41.5972 13 40.4085 13H22.4817C21.2931 13 20.1531 13.4914 19.3127 14.366ZM22.4817 23.4934V18.8296C22.4817 18.5204 22.5998 18.2239 22.8099 18.0052C23.02 17.7866 23.305 17.6637 23.6021 17.6637H39.2881C39.5853 17.6637 39.8703 17.7866 40.0804 18.0052C40.2905 18.2239 40.4085 18.5204 40.4085 18.8296V23.4934C40.4085 23.8026 40.2905 24.0991 40.0804 24.3178C39.8703 24.5365 39.5853 24.6593 39.2881 24.6593H23.6021C23.305 24.6593 23.02 24.5365 22.8099 24.3178C22.5998 24.0991 22.4817 23.8026 22.4817 23.4934ZM22.4817 30.4889V28.1571C22.4817 27.8479 22.5998 27.5513 22.8099 27.3326C23.02 27.114 23.305 26.9912 23.6021 26.9912H25.843C26.1401 26.9912 26.4251 27.114 26.6352 27.3326C26.8454 27.5513 26.9634 27.8479 26.9634 28.1571V30.4889C26.9634 30.7982 26.8454 31.0947 26.6352 31.3134C26.4251 31.532 26.1401 31.6549 25.843 31.6549H23.6021C23.305 31.6549 23.02 31.532 22.8099 31.3134C22.5998 31.0947 22.4817 30.7982 22.4817 30.4889ZM22.8099 34.3282C23.02 34.1096 23.305 33.9867 23.6021 33.9867H25.843C26.1401 33.9867 26.4251 34.1096 26.6352 34.3282C26.8454 34.5469 26.9634 34.8434 26.9634 35.1527V37.4845C26.9634 37.7937 26.8454 38.0903 26.6352 38.309C26.4251 38.5276 26.1401 38.6504 25.843 38.6504H23.6021C23.305 38.6504 23.02 38.5276 22.8099 38.309C22.5998 38.0903 22.4817 37.7937 22.4817 37.4845V35.1527C22.4817 34.8434 22.5998 34.5469 22.8099 34.3282ZM22.4817 44.4801V42.1482C22.4817 41.839 22.5998 41.5425 22.8099 41.3238C23.02 41.1051 23.305 40.9823 23.6021 40.9823H25.843C26.1401 40.9823 26.4251 41.1051 26.6352 41.3238C26.8454 41.5425 26.9634 41.839 26.9634 42.1482V44.4801C26.9634 44.7893 26.8454 45.0859 26.6352 45.3045C26.4251 45.5232 26.1401 45.646 25.843 45.646H23.6021C23.305 45.646 23.02 45.5232 22.8099 45.3045C22.5998 45.0859 22.4817 44.7893 22.4817 44.4801ZM29.5324 27.3326C29.7426 27.114 30.0275 26.9912 30.3247 26.9912H32.5655C32.8627 26.9912 33.1477 27.114 33.3578 27.3326C33.5679 27.5513 33.686 27.8479 33.686 28.1571V30.4889C33.686 30.7982 33.5679 31.0947 33.3578 31.3134C33.1477 31.532 32.8627 31.6549 32.5655 31.6549H30.3247C30.0275 31.6549 29.7426 31.532 29.5324 31.3134C29.3223 31.0947 29.2043 30.7982 29.2043 30.4889V28.1571C29.2043 27.8479 29.3223 27.5513 29.5324 27.3326ZM29.2043 37.4845V35.1527C29.2043 34.8434 29.3223 34.5469 29.5324 34.3282C29.7426 34.1096 30.0275 33.9867 30.3247 33.9867H32.5655C32.8627 33.9867 33.1477 34.1096 33.3578 34.3282C33.5679 34.5469 33.686 34.8434 33.686 35.1527V37.4845C33.686 37.7937 33.5679 38.0903 33.3578 38.309C33.1477 38.5276 32.8627 38.6504 32.5655 38.6504H30.3247C30.0275 38.6504 29.7426 38.5276 29.5324 38.309C29.3223 38.0903 29.2043 37.7937 29.2043 37.4845ZM29.5324 41.3238C29.7426 41.1051 30.0275 40.9823 30.3247 40.9823H32.5655C32.8627 40.9823 33.1477 41.1051 33.3578 41.3238C33.5679 41.5425 33.686 41.839 33.686 42.1482V44.4801C33.686 44.7893 33.5679 45.0859 33.3578 45.3045C33.1477 45.5232 32.8627 45.646 32.5655 45.646H30.3247C30.0275 45.646 29.7426 45.5232 29.5324 45.3045C29.3223 45.0859 29.2043 44.7893 29.2043 44.4801V42.1482C29.2043 41.839 29.3223 41.5425 29.5324 41.3238ZM35.9268 30.4889V28.1571C35.9268 27.8479 36.0449 27.5513 36.255 27.3326C36.4651 27.114 36.7501 26.9912 37.0473 26.9912H39.2881C39.5853 26.9912 39.8703 27.114 40.0804 27.3326C40.2905 27.5513 40.4085 27.8479 40.4085 28.1571V30.4889C40.4085 30.7982 40.2905 31.0947 40.0804 31.3134C39.8703 31.532 39.5853 31.6549 39.2881 31.6549H37.0473C36.7501 31.6549 36.4651 31.532 36.255 31.3134C36.0449 31.0947 35.9268 30.7982 35.9268 30.4889ZM36.255 34.3282C36.4651 34.1096 36.7501 33.9867 37.0473 33.9867H39.2881C39.5853 33.9867 39.8703 34.1096 40.0804 34.3282C40.2905 34.5469 40.4085 34.8434 40.4085 35.1527V44.4801C40.4085 44.7893 40.2905 45.0859 40.0804 45.3045C39.8703 45.5232 39.5853 45.646 39.2881 45.646H37.0473C36.7501 45.646 36.4651 45.5232 36.255 45.3045C36.0449 45.0859 35.9268 44.7893 35.9268 44.4801V35.1527C35.9268 34.8434 36.0449 34.5469 36.255 34.3282Z" fill="#9C171E"/>
</svg>
