<svg width="70" height="70" viewBox="0 0 70 70" fill="none" xmlns="http://www.w3.org/2000/svg">
<g id="central-kitchen-optimal">
<g id="Group 1000001214">
<g id="Group">
<path id="Vector" d="M54.8535 24.8597L35.9604 13.196C35.7423 13.0652 35.4958 13 35.2563 13C35.0023 13 34.7557 13.0652 34.5305 13.2031L15.6445 24.8598C15.3324 25.0558 15.1146 25.3533 15.0348 25.7089C14.955 26.0574 15.0131 26.4276 15.2016 26.7394C15.6006 27.3708 16.4427 27.5739 17.0816 27.1824L34.864 16.1933C35.0963 16.0483 35.3938 16.0483 35.6262 16.1933L53.4308 27.1824C54.0476 27.5526 54.9189 27.3491 55.2891 26.7394C55.4851 26.4273 55.5432 26.057 55.4634 25.7014C55.3756 25.3533 55.1579 25.0487 54.8533 24.8598L54.8535 24.8597Z" fill="#9C171E"/>
<path id="Vector_2" d="M52.7814 53.414V28.4822L52.687 28.4241C52.6799 28.4241 52.6724 28.4241 52.6653 28.417L52.2081 28.1341L35.2531 17.668L17.7246 28.4902V53.4149H21.615V30.3918C21.615 29.9927 21.9418 29.666 22.3408 29.666H48.1577C48.5643 29.666 48.8835 29.9927 48.8835 30.3918V53.4149L52.7814 53.414ZM35.2529 28.0108C33.1627 28.0108 31.4641 26.3126 31.4641 24.222C31.4641 22.1318 33.1623 20.4332 35.2529 20.4332C37.3431 20.4332 39.0418 22.1314 39.0418 24.222C39.0418 26.3126 37.3435 28.0108 35.2529 28.0108Z" fill="#9C171E"/>
<path id="Vector_3" d="M35.2492 21.8828C33.9572 21.8828 32.9121 22.9354 32.9121 24.2199C32.9121 25.5044 33.9572 26.557 35.2492 26.557C36.5337 26.557 37.5863 25.5044 37.5863 24.2199C37.5863 22.935 36.5341 21.8828 35.2492 21.8828V21.8828Z" fill="#9C171E"/>
<path id="Vector_4" d="M54.044 54.8633H16.9993H16.9847H16.4623C16.3608 54.8633 16.2734 54.9502 16.2734 55.0446V57.8101C16.2734 57.9117 16.3604 57.999 16.4623 57.999H54.0451C54.1467 57.999 54.2265 57.9121 54.2265 57.8101V55.0446C54.2261 54.9506 54.1463 54.8633 54.0447 54.8633H54.044Z" fill="#9C171E"/>
</g>
<g id="Group_2">
<path id="Vector_5" fill-rule="evenodd" clip-rule="evenodd" d="M30.1988 45.8398C30.4268 45.7617 30.5789 45.7617 30.8069 45.7617C31.0349 45.2924 31.415 44.745 31.6432 44.2758C32.0994 43.1027 31.111 36.6116 34.8361 34.031C38.1809 31.8413 44.4146 35.8298 42.2862 39.9746C41.9821 40.2874 41.602 40.2091 41.1459 40.2874C40.4617 40.3656 39.8536 41.0695 39.7775 41.8515C39.7775 42.4771 40.0816 42.7118 39.9295 43.2592C39.5494 44.7451 35.3684 45.84 34.6839 46.1528C34.6839 46.1528 33.9997 47.2476 33.9997 47.3258C33.9997 47.4822 34.2277 48.0297 34.3038 48.1861C35.5202 51.7835 31.5671 52.0963 30.8829 49.9849C27.7661 50.4542 26.6258 46.3875 30.1987 45.8399L30.1988 45.8398ZM33.3156 44.9795C34.2278 45.5269 32.7835 46.3873 32.7075 47.2474C32.7075 47.4038 32.7075 47.6384 32.8596 47.873C34.304 50.0628 32.7075 50.2192 32.3274 49.9845C31.8712 49.7499 31.9473 48.8896 31.5672 48.7332C31.111 48.4986 30.5029 49.046 29.8187 48.8113C29.2865 48.5767 28.3743 47.2473 30.5789 47.0126C31.0351 46.9344 31.3391 47.0126 31.5671 46.778C32.0233 46.387 32.4034 44.51 33.3156 44.9792L33.3156 44.9795Z" fill="#9C171E"/>
</g>
</g>
</g>
</svg>
