<svg width="70" height="70" viewBox="0 0 70 70" fill="none" xmlns="http://www.w3.org/2000/svg">
<path d="M54.8535 24.8597L35.9604 13.196C35.7423 13.0652 35.4958 13 35.2563 13C35.0023 13 34.7557 13.0652 34.5305 13.2031L15.6445 24.8598C15.3324 25.0558 15.1146 25.3533 15.0348 25.7089C14.955 26.0574 15.0131 26.4276 15.2016 26.7394C15.6006 27.3708 16.4427 27.5739 17.0816 27.1824L34.864 16.1933C35.0963 16.0483 35.3938 16.0483 35.6262 16.1933L53.4308 27.1824C54.0476 27.5526 54.9189 27.3491 55.2891 26.7394C55.4851 26.4273 55.5432 26.057 55.4634 25.7014C55.3756 25.3533 55.1579 25.0487 54.8533 24.8598L54.8535 24.8597Z" fill="#9C171E"/>
<path d="M52.7834 53.414V28.4822L52.689 28.4241C52.6819 28.4241 52.6743 28.4241 52.6672 28.417L52.2101 28.1341L35.2551 17.668L17.7266 28.4902V53.4149H21.6169V30.3918C21.6169 29.9927 21.9437 29.666 22.3428 29.666H48.1597C48.5662 29.666 48.8855 29.9927 48.8855 30.3918V53.4149L52.7834 53.414ZM35.2549 28.0108C33.1647 28.0108 31.4661 26.3126 31.4661 24.222C31.4661 22.1318 33.1643 20.4332 35.2549 20.4332C37.3451 20.4332 39.0437 22.1314 39.0437 24.222C39.0437 26.3126 37.3455 28.0108 35.2549 28.0108Z" fill="#9C171E"/>
<path d="M35.2512 21.8848C33.9592 21.8848 32.9141 22.9373 32.9141 24.2219C32.9141 25.5064 33.9592 26.559 35.2512 26.559C36.5357 26.559 37.5883 25.5064 37.5883 24.2219C37.5883 22.9369 36.5361 21.8848 35.2512 21.8848V21.8848Z" fill="#9C171E"/>
<path d="M54.044 54.8633H16.9993H16.9847H16.4623C16.3608 54.8633 16.2734 54.9502 16.2734 55.0446V57.8101C16.2734 57.9117 16.3604 57.999 16.4623 57.999H54.0451C54.1467 57.999 54.2265 57.9121 54.2265 57.8101V55.0446C54.2261 54.9506 54.1463 54.8633 54.0447 54.8633H54.044Z" fill="#9C171E"/>
<path fill-rule="evenodd" clip-rule="evenodd" d="M30.1969 45.8398C30.4249 45.7617 30.5769 45.7617 30.805 45.7617C31.033 45.2924 31.4131 44.745 31.6412 44.2758C32.0974 43.1027 31.1091 36.6116 34.8342 34.031C38.179 31.8413 44.4126 35.8298 42.2842 39.9746C41.9801 40.2874 41.6 40.2091 41.144 40.2874C40.4598 40.3656 39.8516 41.0695 39.7755 41.8515C39.7755 42.4771 40.0796 42.7118 39.9276 43.2592C39.5475 44.7451 35.3664 45.84 34.682 46.1528C34.682 46.1528 33.9978 47.2476 33.9978 47.3258C33.9978 47.4822 34.2258 48.0297 34.3019 48.1861C35.5183 51.7835 31.5652 52.0963 30.881 49.9849C27.7641 50.4542 26.6238 46.3875 30.1967 45.8399L30.1969 45.8398ZM33.3137 44.9795C34.2259 45.5269 32.7815 46.3873 32.7056 47.2474C32.7056 47.4038 32.7056 47.6384 32.8576 47.873C34.302 50.0628 32.7056 50.2192 32.3254 49.9845C31.8693 49.7499 31.9454 48.8896 31.5653 48.7332C31.1091 48.4986 30.501 49.046 29.8167 48.8113C29.2846 48.5767 28.3723 47.2473 30.5769 47.0126C31.0331 46.9344 31.3371 47.0126 31.5651 46.778C32.0213 46.387 32.4014 44.51 33.3137 44.9792L33.3137 44.9795Z" fill="#9C171E"/>
</svg>
