<svg width="70" height="70" viewBox="0 0 70 70" fill="none" xmlns="http://www.w3.org/2000/svg">
<path d="M42.5676 15H27.4172C26.3728 15 25.5234 15.7256 25.5234 16.6168V26.3692C25.5234 27.2604 26.3728 27.986 27.4172 27.986H30.2579V31.2325L36.2716 27.986H42.5676C43.612 27.986 44.4613 27.2604 44.4613 26.3692V16.6168C44.4598 16.1872 44.2596 15.7758 43.9046 15.4727C43.5495 15.1696 43.0687 14.9996 42.5676 15ZM36.8862 23.9279H30.2579V22.3046H36.8862V23.9279ZM39.7269 20.6814H30.2579V19.0581H39.7269V20.6814Z" fill="#9C171E"/>
<path d="M34.5178 43.0245C37.1215 43.0245 39.321 40.718 39.321 37.7339C39.321 34.8211 37.1096 32.5859 34.5178 32.5859C31.926 32.5859 29.7147 34.8567 29.7266 37.7577C29.7266 40.718 31.9141 43.0245 34.5178 43.0245ZM20.7503 43.298C23.0211 43.298 24.9353 41.2768 24.9353 38.685C24.9353 36.1408 23.0092 34.2028 20.7503 34.2028C18.5033 34.2028 16.5654 36.1764 16.5773 38.7088C16.5773 41.2768 18.4914 43.298 20.7503 43.298ZM48.2497 43.298C50.5086 43.298 52.4227 41.2768 52.4227 38.7088C52.4346 36.1764 50.4967 34.2028 48.2497 34.2028C46.0026 34.2028 44.0647 36.1408 44.0647 38.685C44.0647 41.2768 45.9908 43.298 48.2497 43.298ZM14.1995 54.0932H23.1162C21.8441 52.2742 23.2233 48.6837 25.9102 46.5674C24.6024 45.7233 22.8904 45.1051 20.7503 45.1051C15.4359 45.1051 12 49.0166 12 52.2385C12 53.4155 12.5945 54.0932 14.1995 54.0932ZM54.8005 54.0932C56.4055 54.0932 57 53.4155 57 52.2385C57 49.0166 53.5641 45.1051 48.2497 45.1051C46.1096 45.1051 44.4095 45.7233 43.1017 46.5674C45.7886 48.6837 47.1678 52.2742 45.8956 54.0932H54.8005ZM27.0991 54.0813H41.9247C43.8864 54.0813 44.5641 53.4869 44.5641 52.3931C44.5641 49.3376 40.6764 45.1289 34.5178 45.1289C28.3474 45.1289 24.4716 49.3376 24.4716 52.3931C24.4716 53.4869 25.1493 54.0813 27.0991 54.0813Z" fill="#9C171E"/>
</svg>
