<svg width="70" height="70" viewBox="0 0 70 70" fill="none" xmlns="http://www.w3.org/2000/svg">
<path d="M57.4263 33.0512L53.0996 28.7246L52.5354 29.2888L51.9712 28.7246C51.7432 29.0186 51.4972 29.3068 51.227 29.5767C50.9569 29.8468 50.6691 30.0866 50.375 30.3208L50.9392 30.885L50.375 31.4492L54.7079 35.7755C55.458 36.5256 56.6762 36.5256 57.4325 35.7755C58.1767 35.0196 58.1767 33.8014 57.4263 33.0513L57.4263 33.0512Z" fill="#9C171E"/>
<path d="M39.6562 23.047C39.6562 25.8314 41.9248 28.0999 44.7091 28.0999C47.4935 28.0999 49.762 25.8314 49.762 23.047C49.762 20.2627 47.4935 17.9941 44.7091 17.9941C41.9244 17.9941 39.6562 20.2627 39.6562 23.047ZM45.3031 19.4404V19.8906C46.0774 20.1428 46.6412 20.8628 46.6412 21.7148C46.6412 22.0388 46.3773 22.309 46.047 22.309C45.7229 22.309 45.4527 22.0451 45.4527 21.7148C45.4527 21.3067 45.1166 20.9706 44.7085 20.9706C44.3005 20.9706 43.9643 21.3067 43.9643 21.7148C43.9643 22.1228 44.3005 22.459 44.7085 22.459C45.7706 22.459 46.635 23.323 46.635 24.3854C46.635 25.2437 46.0708 25.9578 45.2969 26.2096V26.6598C45.2969 26.9839 45.0329 27.254 44.7026 27.254C44.3786 27.254 44.1084 26.9901 44.1084 26.6598V26.2096C43.3341 25.9574 42.7703 25.2374 42.7703 24.3854C42.7703 24.0613 43.0342 23.7912 43.3645 23.7912C43.6886 23.7912 43.9588 24.0551 43.9588 24.3854C43.9588 24.7935 44.2949 25.1296 44.703 25.1296C45.111 25.1296 45.4472 24.7935 45.4472 24.3854C45.4472 23.9774 45.111 23.6412 44.703 23.6412C43.6409 23.6412 42.7765 22.7771 42.7765 21.7148C42.7765 20.8565 43.3407 20.1424 44.1146 19.8906V19.4404C44.1146 19.1163 44.3786 18.8461 44.7089 18.8461C45.0391 18.8465 45.3031 19.1104 45.3031 19.4404Z" fill="#9C171E"/>
<path d="M39.0146 17.3583C35.8701 20.5027 35.8701 25.5978 39.0146 28.7423C42.159 31.8867 47.254 31.8867 50.3986 28.7423C53.543 25.5979 53.543 20.5029 50.3986 17.3583C47.2542 14.2139 42.1595 14.2139 39.0146 17.3583ZM50.9447 23.0472C50.9447 26.4859 48.1482 29.2824 44.7095 29.2824C41.2708 29.2824 38.4743 26.4859 38.4743 23.0472C38.4746 19.6089 41.271 16.8124 44.7098 16.8124C48.1482 16.8124 50.9447 19.6089 50.9447 23.0472Z" fill="#9C171E"/>
<path d="M34.0614 32.8594H38.4943C39.1063 32.8594 39.6025 33.6551 39.6025 34.3002V53.0292C39.6025 53.8249 39.1063 54.47 38.4943 54.47H34.0614C33.4494 54.47 32.9531 53.6743 32.9531 53.0292V34.3002C32.9531 33.5045 33.4494 32.8594 34.0614 32.8594Z" fill="#9C171E"/>
<path d="M24.077 39.5078H28.5099C29.1219 39.5078 29.6182 40.259 29.6182 40.868V53.1088C29.6182 53.86 29.1219 54.469 28.5099 54.469H24.077C23.465 54.469 22.9688 53.7178 22.9688 53.1088V40.868C22.9688 40.1169 23.465 39.5078 24.077 39.5078V39.5078Z" fill="#9C171E"/>
<path d="M14.1083 44.4961H18.5411C19.1532 44.4961 19.6494 45.283 19.6494 45.921V53.0453C19.6494 53.8322 19.1532 54.4702 18.5411 54.4702H14.1083C13.4962 54.4702 13 53.6833 13 53.0453V45.921C13 45.1341 13.4962 44.4961 14.1083 44.4961Z" fill="#9C171E"/>
</svg>
