<svg width="70" height="70" viewBox="0 0 70 70" fill="none" xmlns="http://www.w3.org/2000/svg">
<path d="M20.185 12.0751C19.3697 12.2696 18.6378 12.8348 18.2487 13.5759L18.0356 13.965L18.0078 34.5969C17.9893 55.0435 17.9893 55.2288 18.1746 55.7198C18.4062 56.3498 18.9806 56.9519 19.6476 57.2669L20.1664 57.5078H34.7579H49.3494L49.8775 57.2577C50.5538 56.9427 51.1004 56.3776 51.3412 55.7383C51.5265 55.238 51.5265 55.1083 51.5265 41.1098V26.9815H46.2643C42.855 26.9815 40.8076 26.9445 40.4555 26.8796C38.8435 26.5832 37.528 25.4714 36.8702 23.8502C36.6571 23.3221 36.6571 23.3128 36.6108 17.6708L36.5645 12.0195L28.5508 12.001C24.1316 12.001 20.3795 12.0287 20.185 12.0751ZM26.8832 17.152V17.504L27.4668 17.6245C28.1153 17.7449 29.2178 18.1896 29.5698 18.449L29.8014 18.6343L29.3568 19.2643L28.9213 19.9035L28.208 19.5607C27.8096 19.3662 27.3464 19.1809 27.1889 19.1531L26.8832 19.0882V20.4223V21.7564L27.5595 21.9509C28.4952 22.2289 29.366 22.7847 29.681 23.285C30.3758 24.3875 30.135 25.9161 29.1437 26.7962C28.7268 27.1576 28.1894 27.3984 27.4483 27.5467L26.8832 27.6578V28.1488V28.6491H26.4199H25.9567V28.1396C25.9567 27.6578 25.9382 27.63 25.7066 27.5837C24.4929 27.3336 23.4738 26.8982 22.779 26.3238L22.4362 26.0366L22.918 25.4714C23.1866 25.1564 23.409 24.8785 23.4275 24.86C23.4368 24.8414 23.7055 24.9989 24.0204 25.2213C24.5578 25.5919 25.1322 25.8605 25.7066 25.9995L25.9567 26.0551V24.6747V23.285L25.4379 23.1368C23.9834 22.7199 23.2052 22.1084 22.9365 21.182C22.4362 19.4681 23.6221 17.8283 25.5491 17.5596C25.9474 17.504 25.9567 17.504 25.9567 17.152V16.7907H26.4199H26.8832V17.152ZM45.0692 31.4099C45.2638 31.6137 45.3194 31.762 45.3194 32.077V32.4939L42.0027 35.8013L38.6953 39.1179H38.2784H37.8708L35.2489 36.5054L32.6271 33.8835L28.523 37.9784C26.2717 40.2204 24.3354 42.1103 24.2243 42.1659C23.9371 42.3049 23.6684 42.2956 23.3627 42.1103C23.0569 41.9343 22.8995 41.6286 22.8995 41.221C22.8995 40.9523 23.3534 40.4705 27.5595 36.2737C31.8211 32.0028 32.238 31.6137 32.5159 31.6137C32.6827 31.6137 32.9143 31.6601 33.0255 31.7157C33.1366 31.7712 34.3688 32.9478 35.7492 34.3282L38.2784 36.8481L41.1318 33.9947L43.9853 31.1505H44.4022C44.745 31.1505 44.8654 31.1968 45.0692 31.4099ZM47.7281 46.1589V53.7557H45.6899H43.6518V46.1589V38.5621H45.6899H47.7281V46.1589ZM33.183 48.5676V53.7557H31.0985H29.014V48.5676V43.3796H31.0985H33.183V48.5676ZM25.8641 49.4941V53.7557H23.8259H21.7877V49.4941V45.2324H23.8259H25.8641V49.4941ZM40.5019 51.0227V53.7557H38.4174H36.3329V51.0227V48.2897H38.4174H40.5019V51.0227Z" fill="#9C171E"/>
<path d="M25.6302 19.1063C25.204 19.1989 24.9446 19.3657 24.75 19.69C24.3609 20.3292 24.5833 20.9129 25.3615 21.2834C25.6487 21.4224 25.8988 21.5151 25.9174 21.4873C25.9452 21.4687 25.9452 20.9129 25.9359 20.2458L25.9081 19.0507L25.6302 19.1063Z" fill="#9C171E"/>
<path d="M26.8828 24.7953C26.8828 26.222 26.8736 26.2035 27.5962 25.87C28.0131 25.6847 28.3651 25.2307 28.3651 24.8694C28.3651 24.3691 27.8093 23.8133 27.0959 23.6002L26.8828 23.5446V24.7953Z" fill="#9C171E"/>
<path d="M38.4809 17.5958C38.5087 22.9136 38.5087 22.9507 38.7125 23.3676C39.046 24.0346 39.4444 24.4422 40.0559 24.748L40.621 25.0352H45.9388C49.6538 25.0352 51.2473 25.0074 51.2473 24.9332C51.2473 24.8128 44.4102 17.8367 41.2602 14.7331C40.0281 13.5195 38.8978 12.4726 38.7403 12.3892L38.4531 12.241L38.4809 17.5958Z" fill="#9C171E"/>
</svg>
