<svg width="70" height="70" viewBox="0 0 70 70" fill="none" xmlns="http://www.w3.org/2000/svg">
<g id="hybrid-point-of">
<g id="Group 1000001221">
<g id="Group 1000001193">
<path id="display" d="M11.9531 42.4576C11.9531 45.9759 13.7285 47.7162 17.1296 47.7162H28.5478L28.0432 51.14H26.0623C25.128 51.14 24.3618 51.9344 24.3618 52.8802C24.3618 53.8071 25.128 54.6016 26.0623 54.6016H42.9747C43.9278 54.6016 44.694 53.8071 44.694 52.8802C44.694 51.9344 43.9278 51.14 42.9747 51.14H40.8443L40.3584 47.7162H51.7579C55.1591 47.7162 56.9531 45.9759 56.9531 42.4576V21.1772C56.9531 17.6778 55.1591 15.9375 51.7579 15.9375H17.1296C13.7285 15.9375 11.9531 17.6778 11.9531 21.1772V42.4576ZM15.5972 42.2306V21.4231C15.5972 20.1179 16.1392 19.6261 17.3726 19.6261H51.515C52.7484 19.6261 53.309 20.1179 53.309 21.4231V42.2306C53.309 43.5169 52.7484 44.0276 51.515 44.0276H17.3726C16.1392 44.0276 15.5972 43.5169 15.5972 42.2306Z" fill="#9C171E"/>
</g>
<path id="cart.fill" d="M24 24.835C24 25.292 24.3867 25.6787 24.8262 25.6787H27.5771L28.9395 34.9775C29.1328 36.3047 29.8359 37.1133 31.1807 37.1133H41.4111C41.8242 37.1133 42.2021 36.7881 42.2021 36.3223C42.2021 35.8652 41.8242 35.54 41.4111 35.54H31.3828C30.9609 35.54 30.6973 35.25 30.6357 34.8018L30.4951 33.8877H41.4814C42.8262 33.8877 43.5381 33.0703 43.7314 31.7344L44.3906 27.3311C44.4082 27.2168 44.4258 27.0674 44.4258 26.9707C44.4258 26.4521 44.0654 26.1006 43.459 26.1006H29.3789L29.2383 25.1514C29.124 24.3867 28.8164 24 27.8408 24H24.8262C24.3867 24 24 24.3867 24 24.835ZM30.3633 39.9873C30.3633 40.8398 31.0488 41.5254 31.9014 41.5254C32.7539 41.5254 33.4395 40.8398 33.4395 39.9873C33.4395 39.1348 32.7539 38.4492 31.9014 38.4492C31.0488 38.4492 30.3633 39.1348 30.3633 39.9873ZM38.4756 39.9873C38.4756 40.8398 39.1699 41.5254 40.0225 41.5254C40.875 41.5254 41.5518 40.8398 41.5518 39.9873C41.5518 39.1348 40.875 38.4492 40.0225 38.4492C39.1699 38.4492 38.4756 39.1348 38.4756 39.9873Z" fill="#9C171E"/>
</g>
</g>
</svg>
