<svg width="70" height="70" viewBox="0 0 70 70" fill="none" xmlns="http://www.w3.org/2000/svg">
<path d="M11.9531 42.4556C11.9531 45.974 13.7285 47.7142 17.1296 47.7142H28.5478L28.0432 51.138H26.0623C25.128 51.138 24.3618 51.9325 24.3618 52.8783C24.3618 53.8051 25.128 54.5996 26.0623 54.5996H42.9747C43.9278 54.5996 44.694 53.8051 44.694 52.8783C44.694 51.9325 43.9278 51.138 42.9747 51.138H40.8443L40.3584 47.7142H51.7579C55.1591 47.7142 56.9531 45.974 56.9531 42.4556V21.1752C56.9531 17.6758 55.1591 15.9355 51.7579 15.9355H17.1296C13.7285 15.9355 11.9531 17.6758 11.9531 21.1752V42.4556ZM15.5972 42.2286V21.4212C15.5972 20.116 16.1392 19.6241 17.3726 19.6241H51.515C52.7484 19.6241 53.309 20.116 53.309 21.4212V42.2286C53.309 43.5149 52.7484 44.0256 51.515 44.0256H17.3726C16.1392 44.0256 15.5972 43.5149 15.5972 42.2286Z" fill="#9C171E"/>
<path d="M31.713 23.9023C31.5968 23.9022 31.4841 23.9413 31.3929 24.0131L28.8824 25.9267L28.2511 25.1245C28.1686 25.0121 28.0441 24.938 27.9059 24.9189C27.7678 24.8999 27.6278 24.9377 27.518 25.0237C27.4083 25.1097 27.3379 25.2365 27.3232 25.3751C27.3084 25.5138 27.3506 25.6526 27.4398 25.7597L28.3881 26.9616C28.4718 27.0683 28.5941 27.1379 28.7286 27.155C28.8631 27.1721 28.999 27.1355 29.1068 27.0532L32.017 24.8315C32.1333 24.745 32.2079 24.6134 32.2223 24.4692C32.2368 24.3249 32.1898 24.1811 32.0928 24.0734C31.9959 23.9655 31.858 23.9035 31.713 23.9024L31.713 23.9023ZM34.0373 25.0136V25.0138C33.8561 25.0264 33.6949 25.1335 33.613 25.2956C33.531 25.4576 33.5402 25.651 33.6374 25.8044C33.7344 25.958 33.9051 26.0491 34.0865 26.0445H41.9324C42.1137 26.0404 42.2797 25.9414 42.3692 25.7836C42.4588 25.6258 42.4588 25.4325 42.3692 25.2747C42.2797 25.1169 42.1137 25.0177 41.9324 25.0138H34.0865C34.0702 25.0129 34.0538 25.0129 34.0373 25.0138L34.0373 25.0136ZM31.713 30.5272C31.597 30.5266 31.4842 30.5653 31.3929 30.6368L28.8824 32.5504L28.2511 31.7482C28.1686 31.6359 28.0441 31.5617 27.9059 31.5427C27.7678 31.5238 27.6278 31.5615 27.518 31.6474C27.4083 31.7334 27.3379 31.8602 27.3232 31.999C27.3084 32.1376 27.3506 32.2763 27.4398 32.3834L28.3881 33.5853C28.4718 33.6921 28.5941 33.7616 28.7286 33.7787C28.8631 33.7959 28.999 33.7593 29.1068 33.677L32.017 31.4552C32.1328 31.3686 32.2069 31.2373 32.221 31.0932C32.2353 30.9493 32.1883 30.8059 32.0917 30.6983C31.9951 30.5906 31.8576 30.5285 31.713 30.5272L31.713 30.5272ZM34.0867 31.6375H34.0866C33.9052 31.6415 33.7393 31.7406 33.6498 31.8984C33.5601 32.0562 33.5601 32.2495 33.6498 32.4073C33.7393 32.5651 33.9052 32.6642 34.0866 32.6683H41.9324C42.071 32.6714 42.205 32.6185 42.3042 32.5215C42.4033 32.4245 42.4593 32.2916 42.4593 32.1528C42.4593 32.0142 42.4033 31.8813 42.3042 31.7843C42.205 31.6873 42.071 31.6344 41.9324 31.6375L34.0867 31.6375ZM31.713 37.1507C31.597 37.1502 31.4842 37.1889 31.3929 37.2605L28.8824 39.174L28.2511 38.3718C28.1686 38.2594 28.0441 38.1853 27.9059 38.1662C27.7678 38.1473 27.6278 38.185 27.518 38.271C27.4083 38.357 27.3379 38.4837 27.3232 38.6225C27.3084 38.7611 27.3506 38.8999 27.4398 39.0069L28.3881 40.2088C28.4718 40.3156 28.5941 40.3851 28.7286 40.4023C28.8631 40.4194 28.999 40.3828 29.1068 40.3005L32.017 38.0788C32.1328 37.9921 32.2069 37.8608 32.221 37.7168C32.2353 37.5728 32.1883 37.4294 32.0917 37.3218C31.9951 37.2141 31.8576 37.1521 31.713 37.1507L31.713 37.1507ZM34.0867 38.2611H34.0866C33.9022 38.2611 33.7319 38.3594 33.6398 38.519C33.5477 38.6785 33.5477 38.8752 33.6398 39.0348C33.7319 39.1945 33.9022 39.2929 34.0866 39.2929H41.9324C42.1166 39.2929 42.2869 39.1945 42.3791 39.0348C42.4712 38.8752 42.4712 38.6785 42.3791 38.519C42.2869 38.3594 42.1166 38.2611 41.9324 38.2611H34.0867Z" fill="#9C171E"/>
</svg>
