<svg width="70" height="70" viewBox="0 0 70 70" fill="none" xmlns="http://www.w3.org/2000/svg">
<g id="manajemen-resep-dan">
<g id="Group">
<g id="Vector">
<mask id="path-1-outside-1_5937_44969" maskUnits="userSpaceOnUse" x="15" y="11" width="40" height="47" fill="black">
<rect fill="white" x="15" y="11" width="40" height="47"/>
<path d="M16.5546 12.1759C15.9568 12.5364 16.0007 10.7781 16.0007 32.8267C16.0007 46.9632 16.0271 52.9149 16.0974 53.249C16.4139 54.7962 17.5832 56.1237 19.1656 56.7479L19.737 56.9677L35.0076 56.9941C48.2209 57.0116 50.3308 56.9941 50.5946 56.8886C50.9462 56.7391 51.2539 56.2908 51.2539 55.9303C51.2539 55.5787 51.0166 55.1215 50.744 54.9281C50.5154 54.7786 49.7858 54.7699 35.2537 54.7259L20.0008 54.6819L19.5173 54.4094C18.3744 53.7676 17.926 52.4489 18.4447 51.2709C18.6997 50.7083 19.0337 50.3654 19.6227 50.0753L20.159 49.8028H36.4318C51.7462 49.8028 52.7221 49.794 53.0034 49.6445C53.1704 49.5654 53.3902 49.3808 53.4869 49.2489L53.6715 49.0028L53.6979 32.3256C53.7155 20.7299 53.6891 15.4814 53.6276 15.0946C53.4342 13.943 52.7397 12.9232 51.8429 12.466C50.8847 11.9825 51.6056 12.0001 33.5394 12.0001C17.126 12.0001 16.8271 12.0001 16.5546 12.1759ZM50.6825 14.4617C51.5089 14.8748 51.4737 14.6287 51.5001 19.8244C51.5177 22.3123 51.5001 29.5827 51.4737 35.974L51.4122 47.6049H35.6581C18.8403 47.6049 19.526 47.5873 18.6645 48.0269C18.4623 48.1324 18.2689 48.2203 18.2425 48.2203C18.2161 48.2203 18.1986 40.5631 18.1986 31.2091V14.1979L34.2251 14.2155L50.2429 14.2419L50.6825 14.4617Z"/>
</mask>
<path d="M16.5546 12.1759C15.9568 12.5364 16.0007 10.7781 16.0007 32.8267C16.0007 46.9632 16.0271 52.9149 16.0974 53.249C16.4139 54.7962 17.5832 56.1237 19.1656 56.7479L19.737 56.9677L35.0076 56.9941C48.2209 57.0116 50.3308 56.9941 50.5946 56.8886C50.9462 56.7391 51.2539 56.2908 51.2539 55.9303C51.2539 55.5787 51.0166 55.1215 50.744 54.9281C50.5154 54.7786 49.7858 54.7699 35.2537 54.7259L20.0008 54.6819L19.5173 54.4094C18.3744 53.7676 17.926 52.4489 18.4447 51.2709C18.6997 50.7083 19.0337 50.3654 19.6227 50.0753L20.159 49.8028H36.4318C51.7462 49.8028 52.7221 49.794 53.0034 49.6445C53.1704 49.5654 53.3902 49.3808 53.4869 49.2489L53.6715 49.0028L53.6979 32.3256C53.7155 20.7299 53.6891 15.4814 53.6276 15.0946C53.4342 13.943 52.7397 12.9232 51.8429 12.466C50.8847 11.9825 51.6056 12.0001 33.5394 12.0001C17.126 12.0001 16.8271 12.0001 16.5546 12.1759ZM50.6825 14.4617C51.5089 14.8748 51.4737 14.6287 51.5001 19.8244C51.5177 22.3123 51.5001 29.5827 51.4737 35.974L51.4122 47.6049H35.6581C18.8403 47.6049 19.526 47.5873 18.6645 48.0269C18.4623 48.1324 18.2689 48.2203 18.2425 48.2203C18.2161 48.2203 18.1986 40.5631 18.1986 31.2091V14.1979L34.2251 14.2155L50.2429 14.2419L50.6825 14.4617Z" fill="#9C171E"/>
<path d="M16.5546 12.1759C15.9568 12.5364 16.0007 10.7781 16.0007 32.8267C16.0007 46.9632 16.0271 52.9149 16.0974 53.249C16.4139 54.7962 17.5832 56.1237 19.1656 56.7479L19.737 56.9677L35.0076 56.9941C48.2209 57.0116 50.3308 56.9941 50.5946 56.8886C50.9462 56.7391 51.2539 56.2908 51.2539 55.9303C51.2539 55.5787 51.0166 55.1215 50.744 54.9281C50.5154 54.7786 49.7858 54.7699 35.2537 54.7259L20.0008 54.6819L19.5173 54.4094C18.3744 53.7676 17.926 52.4489 18.4447 51.2709C18.6997 50.7083 19.0337 50.3654 19.6227 50.0753L20.159 49.8028H36.4318C51.7462 49.8028 52.7221 49.794 53.0034 49.6445C53.1704 49.5654 53.3902 49.3808 53.4869 49.2489L53.6715 49.0028L53.6979 32.3256C53.7155 20.7299 53.6891 15.4814 53.6276 15.0946C53.4342 13.943 52.7397 12.9232 51.8429 12.466C50.8847 11.9825 51.6056 12.0001 33.5394 12.0001C17.126 12.0001 16.8271 12.0001 16.5546 12.1759ZM50.6825 14.4617C51.5089 14.8748 51.4737 14.6287 51.5001 19.8244C51.5177 22.3123 51.5001 29.5827 51.4737 35.974L51.4122 47.6049H35.6581C18.8403 47.6049 19.526 47.5873 18.6645 48.0269C18.4623 48.1324 18.2689 48.2203 18.2425 48.2203C18.2161 48.2203 18.1986 40.5631 18.1986 31.2091V14.1979L34.2251 14.2155L50.2429 14.2419L50.6825 14.4617Z" stroke="#9C171E" stroke-width="0.6" mask="url(#path-1-outside-1_5937_44969)"/>
</g>
<g id="Vector_2">
<mask id="path-2-outside-2_5937_44969" maskUnits="userSpaceOnUse" x="21.6387" y="19.4648" width="26" height="25" fill="black">
<rect fill="white" x="21.6387" y="19.4648" width="26" height="25"/>
<path d="M33.9531 19.8308C33.241 19.9363 32.0981 20.3583 31.5267 20.7188C31.2805 20.877 30.841 21.2287 30.5421 21.51L30.0146 22.0199L29.3552 21.8792C28.5201 21.7034 27.2453 21.7561 26.4629 22.0111C24.8365 22.5298 23.5266 23.8133 22.876 25.5188C22.6738 26.0375 22.6475 26.2397 22.6387 27.2507C22.6387 28.5782 22.7969 29.2376 23.3596 30.187C23.975 31.2332 25.2497 32.2881 26.2519 32.5783L26.6387 32.6925V36.7014C26.6387 41.6245 26.5508 41.2465 27.8871 41.8883C29.0212 42.4333 30.3838 42.8817 31.7641 43.1718C33.1179 43.4531 35.5531 43.5498 36.9949 43.3828C38.2257 43.2421 39.9839 42.7938 41.1972 42.3015C42.8587 41.6333 43.1752 41.4135 43.3422 40.8245C43.395 40.6487 43.4301 38.8904 43.4301 36.6047V32.6838L44.1598 32.3233C45.0477 31.8837 45.7598 31.2596 46.2697 30.4771C47.017 29.3343 47.2544 28.4463 47.1928 27.0573C47.0873 24.7452 45.6016 22.8287 43.2807 22.0111C42.5598 21.7561 41.1972 21.6946 40.4147 21.8792L39.8081 22.0199L39.2103 21.4748C37.8389 20.2001 35.7641 19.5495 33.9531 19.8308ZM36.063 22.2836C38.1905 22.943 39.4477 25.132 38.9026 27.2331C38.7004 28.0156 38.3576 28.6046 37.7422 29.2463C37.2938 29.7123 37.1619 29.8969 37.1268 30.1782C37.0125 31.0486 37.9707 31.7079 38.7532 31.3035C39.0872 31.1277 39.9224 30.231 40.3092 29.6244C41.2411 28.165 41.5576 26.2133 41.1004 24.6749C41.0213 24.4199 40.9862 24.1738 41.0213 24.121C41.0565 24.0507 41.3378 24.0331 41.8038 24.0595C42.6917 24.1034 43.3598 24.4023 43.984 25.0265C45.3115 26.354 45.2763 28.4727 43.8961 29.8178C43.6323 30.0727 43.395 30.2837 43.3598 30.2837C43.3247 30.2837 43.2279 30.1606 43.1488 30.02C42.8235 29.4485 42.006 29.3606 41.4697 29.8442L41.1884 30.0903L41.162 35.0135L41.1444 39.9366L40.5026 40.2003C38.5598 41.0091 37.3817 41.2289 35.0344 41.2289C33.4696 41.2289 33.0388 41.2025 32.2212 41.0355C31.2454 40.8333 29.7772 40.3762 29.1706 40.0773L28.8366 39.919V36.4376V32.9475L29.4256 32.798C30.1113 32.631 30.8673 32.2969 31.2717 31.9892C31.6498 31.7079 31.7904 31.198 31.6234 30.7936C31.3157 30.0727 30.6212 29.8354 29.9618 30.2222C28.5289 31.0574 26.7794 30.82 25.6805 29.6244C23.7991 27.5584 25.1706 24.2001 27.9574 24.0683C28.3179 24.0507 28.6607 24.0683 28.7135 24.1034C28.7926 24.1562 28.775 24.3408 28.6519 24.7891C28.4497 25.5628 28.4409 26.4243 28.6168 26.776C28.8981 27.3123 29.5399 27.5145 30.1025 27.2507C30.4981 27.0573 30.6739 26.6969 30.7706 25.9144C30.9025 24.7628 31.2366 24.0419 31.9751 23.3122C33.0476 22.2309 34.63 21.8353 36.063 22.2836Z"/>
</mask>
<path d="M33.9531 19.8308C33.241 19.9363 32.0981 20.3583 31.5267 20.7188C31.2805 20.877 30.841 21.2287 30.5421 21.51L30.0146 22.0199L29.3552 21.8792C28.5201 21.7034 27.2453 21.7561 26.4629 22.0111C24.8365 22.5298 23.5266 23.8133 22.876 25.5188C22.6738 26.0375 22.6475 26.2397 22.6387 27.2507C22.6387 28.5782 22.7969 29.2376 23.3596 30.187C23.975 31.2332 25.2497 32.2881 26.2519 32.5783L26.6387 32.6925V36.7014C26.6387 41.6245 26.5508 41.2465 27.8871 41.8883C29.0212 42.4333 30.3838 42.8817 31.7641 43.1718C33.1179 43.4531 35.5531 43.5498 36.9949 43.3828C38.2257 43.2421 39.9839 42.7938 41.1972 42.3015C42.8587 41.6333 43.1752 41.4135 43.3422 40.8245C43.395 40.6487 43.4301 38.8904 43.4301 36.6047V32.6838L44.1598 32.3233C45.0477 31.8837 45.7598 31.2596 46.2697 30.4771C47.017 29.3343 47.2544 28.4463 47.1928 27.0573C47.0873 24.7452 45.6016 22.8287 43.2807 22.0111C42.5598 21.7561 41.1972 21.6946 40.4147 21.8792L39.8081 22.0199L39.2103 21.4748C37.8389 20.2001 35.7641 19.5495 33.9531 19.8308ZM36.063 22.2836C38.1905 22.943 39.4477 25.132 38.9026 27.2331C38.7004 28.0156 38.3576 28.6046 37.7422 29.2463C37.2938 29.7123 37.1619 29.8969 37.1268 30.1782C37.0125 31.0486 37.9707 31.7079 38.7532 31.3035C39.0872 31.1277 39.9224 30.231 40.3092 29.6244C41.2411 28.165 41.5576 26.2133 41.1004 24.6749C41.0213 24.4199 40.9862 24.1738 41.0213 24.121C41.0565 24.0507 41.3378 24.0331 41.8038 24.0595C42.6917 24.1034 43.3598 24.4023 43.984 25.0265C45.3115 26.354 45.2763 28.4727 43.8961 29.8178C43.6323 30.0727 43.395 30.2837 43.3598 30.2837C43.3247 30.2837 43.2279 30.1606 43.1488 30.02C42.8235 29.4485 42.006 29.3606 41.4697 29.8442L41.1884 30.0903L41.162 35.0135L41.1444 39.9366L40.5026 40.2003C38.5598 41.0091 37.3817 41.2289 35.0344 41.2289C33.4696 41.2289 33.0388 41.2025 32.2212 41.0355C31.2454 40.8333 29.7772 40.3762 29.1706 40.0773L28.8366 39.919V36.4376V32.9475L29.4256 32.798C30.1113 32.631 30.8673 32.2969 31.2717 31.9892C31.6498 31.7079 31.7904 31.198 31.6234 30.7936C31.3157 30.0727 30.6212 29.8354 29.9618 30.2222C28.5289 31.0574 26.7794 30.82 25.6805 29.6244C23.7991 27.5584 25.1706 24.2001 27.9574 24.0683C28.3179 24.0507 28.6607 24.0683 28.7135 24.1034C28.7926 24.1562 28.775 24.3408 28.6519 24.7891C28.4497 25.5628 28.4409 26.4243 28.6168 26.776C28.8981 27.3123 29.5399 27.5145 30.1025 27.2507C30.4981 27.0573 30.6739 26.6969 30.7706 25.9144C30.9025 24.7628 31.2366 24.0419 31.9751 23.3122C33.0476 22.2309 34.63 21.8353 36.063 22.2836Z" fill="#9C171E"/>
<path d="M33.9531 19.8308C33.241 19.9363 32.0981 20.3583 31.5267 20.7188C31.2805 20.877 30.841 21.2287 30.5421 21.51L30.0146 22.0199L29.3552 21.8792C28.5201 21.7034 27.2453 21.7561 26.4629 22.0111C24.8365 22.5298 23.5266 23.8133 22.876 25.5188C22.6738 26.0375 22.6475 26.2397 22.6387 27.2507C22.6387 28.5782 22.7969 29.2376 23.3596 30.187C23.975 31.2332 25.2497 32.2881 26.2519 32.5783L26.6387 32.6925V36.7014C26.6387 41.6245 26.5508 41.2465 27.8871 41.8883C29.0212 42.4333 30.3838 42.8817 31.7641 43.1718C33.1179 43.4531 35.5531 43.5498 36.9949 43.3828C38.2257 43.2421 39.9839 42.7938 41.1972 42.3015C42.8587 41.6333 43.1752 41.4135 43.3422 40.8245C43.395 40.6487 43.4301 38.8904 43.4301 36.6047V32.6838L44.1598 32.3233C45.0477 31.8837 45.7598 31.2596 46.2697 30.4771C47.017 29.3343 47.2544 28.4463 47.1928 27.0573C47.0873 24.7452 45.6016 22.8287 43.2807 22.0111C42.5598 21.7561 41.1972 21.6946 40.4147 21.8792L39.8081 22.0199L39.2103 21.4748C37.8389 20.2001 35.7641 19.5495 33.9531 19.8308ZM36.063 22.2836C38.1905 22.943 39.4477 25.132 38.9026 27.2331C38.7004 28.0156 38.3576 28.6046 37.7422 29.2463C37.2938 29.7123 37.1619 29.8969 37.1268 30.1782C37.0125 31.0486 37.9707 31.7079 38.7532 31.3035C39.0872 31.1277 39.9224 30.231 40.3092 29.6244C41.2411 28.165 41.5576 26.2133 41.1004 24.6749C41.0213 24.4199 40.9862 24.1738 41.0213 24.121C41.0565 24.0507 41.3378 24.0331 41.8038 24.0595C42.6917 24.1034 43.3598 24.4023 43.984 25.0265C45.3115 26.354 45.2763 28.4727 43.8961 29.8178C43.6323 30.0727 43.395 30.2837 43.3598 30.2837C43.3247 30.2837 43.2279 30.1606 43.1488 30.02C42.8235 29.4485 42.006 29.3606 41.4697 29.8442L41.1884 30.0903L41.162 35.0135L41.1444 39.9366L40.5026 40.2003C38.5598 41.0091 37.3817 41.2289 35.0344 41.2289C33.4696 41.2289 33.0388 41.2025 32.2212 41.0355C31.2454 40.8333 29.7772 40.3762 29.1706 40.0773L28.8366 39.919V36.4376V32.9475L29.4256 32.798C30.1113 32.631 30.8673 32.2969 31.2717 31.9892C31.6498 31.7079 31.7904 31.198 31.6234 30.7936C31.3157 30.0727 30.6212 29.8354 29.9618 30.2222C28.5289 31.0574 26.7794 30.82 25.6805 29.6244C23.7991 27.5584 25.1706 24.2001 27.9574 24.0683C28.3179 24.0507 28.6607 24.0683 28.7135 24.1034C28.7926 24.1562 28.775 24.3408 28.6519 24.7891C28.4497 25.5628 28.4409 26.4243 28.6168 26.776C28.8981 27.3123 29.5399 27.5145 30.1025 27.2507C30.4981 27.0573 30.6739 26.6969 30.7706 25.9144C30.9025 24.7628 31.2366 24.0419 31.9751 23.3122C33.0476 22.2309 34.63 21.8353 36.063 22.2836Z" stroke="#9C171E" stroke-width="0.6" mask="url(#path-2-outside-2_5937_44969)"/>
</g>
<g id="Vector_3">
<mask id="path-3-outside-3_5937_44969" maskUnits="userSpaceOnUse" x="18.8096" y="50.3203" width="35" height="4" fill="black">
<rect fill="white" x="18.8096" y="50.3203" width="35" height="4"/>
<path d="M20.6608 51.1225C20.2828 51.2104 19.896 51.6324 19.8257 52.028C19.7465 52.4324 19.9663 52.9247 20.3268 53.1445C20.6169 53.3203 20.7224 53.3203 36.3797 53.3203H52.1338L52.4503 53.0302C53.0129 52.5115 52.925 51.6763 52.2481 51.2368C52.0195 51.0873 51.2898 51.0785 36.4852 51.0609C27.9488 51.0609 20.8279 51.0873 20.6608 51.1225Z"/>
</mask>
<path d="M20.6608 51.1225C20.2828 51.2104 19.896 51.6324 19.8257 52.028C19.7465 52.4324 19.9663 52.9247 20.3268 53.1445C20.6169 53.3203 20.7224 53.3203 36.3797 53.3203H52.1338L52.4503 53.0302C53.0129 52.5115 52.925 51.6763 52.2481 51.2368C52.0195 51.0873 51.2898 51.0785 36.4852 51.0609C27.9488 51.0609 20.8279 51.0873 20.6608 51.1225Z" fill="#9C171E"/>
<path d="M20.6608 51.1225C20.2828 51.2104 19.896 51.6324 19.8257 52.028C19.7465 52.4324 19.9663 52.9247 20.3268 53.1445C20.6169 53.3203 20.7224 53.3203 36.3797 53.3203H52.1338L52.4503 53.0302C53.0129 52.5115 52.925 51.6763 52.2481 51.2368C52.0195 51.0873 51.2898 51.0785 36.4852 51.0609C27.9488 51.0609 20.8279 51.0873 20.6608 51.1225Z" stroke="#9C171E" stroke-width="0.6" mask="url(#path-3-outside-3_5937_44969)"/>
</g>
</g>
</g>
</svg>
