<svg width="70" height="70" viewBox="0 0 70 70" fill="none" xmlns="http://www.w3.org/2000/svg">
<g id="manajemen-program-promosi">
<g id="Group">
<g id="Vector">
<mask id="path-1-outside-1_5980_45056" maskUnits="userSpaceOnUse" x="12" y="18.0781" width="40" height="33" fill="black">
<rect fill="white" x="12" y="18.0781" width="40" height="33"/>
<path d="M43.0898 19.0602C42.5534 19.2009 41.8939 19.579 41.4366 20.0011C41.0145 20.3968 40.4781 21.3026 40.4781 21.628C40.4781 21.8126 39.5548 22.5161 38.394 23.2284C35.3953 25.0575 31.4733 26.4293 27.1995 27.1416L25.6694 27.4054L25.4144 27.1856L25.1594 26.9746H21.9585C18.3706 26.9746 18.0101 27.0185 16.8229 27.5637C14.9938 28.3991 13.6132 30.0787 13.1208 32.0749C12.9449 32.7784 12.9625 34.5284 13.1647 35.2407C13.5341 36.5949 14.3343 37.8348 15.3895 38.7054C16.48 39.6112 18.1772 40.2443 19.4874 40.2531C19.7952 40.2531 19.9007 40.2883 19.9007 40.385C19.9007 40.7368 20.9736 48.6335 21.0439 48.8006C21.2989 49.4426 21.9497 49.9702 22.6004 50.0669C23.1984 50.1549 25.2385 49.7064 25.8189 49.3634C26.3465 49.0469 26.7599 48.3609 26.7599 47.8157C26.7599 47.6311 26.54 45.7844 26.2762 43.7178C26.0124 41.6425 25.7925 39.9189 25.7925 39.875C25.7925 39.787 26.1971 39.8398 27.8151 40.13C32.4318 40.9654 36.5825 42.601 39.7042 44.8083C40.2319 45.1864 40.4077 45.3623 40.4869 45.6085C40.8123 46.6022 41.4806 47.3848 42.4127 47.8421C42.9403 48.1059 43.0459 48.1235 43.9077 48.1235C44.7607 48.1235 44.875 48.1059 45.429 47.8421C46.4754 47.3497 47.2053 46.3911 47.4164 45.2304C47.4779 44.905 47.5131 43.3397 47.5131 41.1325V37.5534L47.9792 37.5007C49.5181 37.316 50.9427 35.8474 51.2241 34.1503C51.5582 32.1189 50.0897 30.0612 48.0319 29.6742L47.5131 29.5775V26.0072C47.5131 23.9759 47.4779 22.2171 47.4252 21.9533C47.1174 20.3177 45.728 19.0866 44.1011 19.0074C43.7318 18.9898 43.2745 19.0162 43.0898 19.0602ZM44.9101 21.0564C45.1124 21.1971 45.3674 21.4873 45.4905 21.6983L45.7104 22.094L45.7368 33.3852C45.7631 46.0658 45.7983 45.3183 45.1388 45.9163C44.6991 46.312 44.4617 46.4087 43.8989 46.4087C43.0547 46.4087 42.3248 45.802 42.1489 44.9578C42.0874 44.6588 42.061 40.9126 42.0786 33.3061L42.1049 22.094L42.2984 21.7247C42.5182 21.329 42.9579 20.942 43.3537 20.8189C43.8021 20.6694 44.5232 20.7838 44.9101 21.0564ZM40.3022 33.605V43.0583L39.3877 42.4955C36.3099 40.6049 32.2911 39.1539 27.991 38.3712C27.3402 38.2481 26.5576 38.125 26.2586 38.0898L25.7046 38.0283V33.605V29.173L25.9069 29.1378C26.0124 29.1114 26.7511 28.9883 27.5425 28.8652C31.9042 28.1529 36.3978 26.5612 39.4228 24.653C39.8362 24.3892 40.1967 24.1693 40.2407 24.1693C40.2758 24.1606 40.3022 28.4079 40.3022 33.605ZM23.9459 33.6138V38.4944H21.5979C18.8982 38.4944 18.3794 38.4152 17.3593 37.9052C15.7677 37.1049 14.7124 35.355 14.7124 33.5259C14.7124 32.9279 15.0026 31.8199 15.3016 31.2571C15.8556 30.2458 16.9548 29.3401 18.1332 28.9356C18.6784 28.7509 18.8543 28.7421 21.3341 28.7333H23.9459V33.6138ZM48.0495 31.4945C48.7882 31.7584 49.395 32.5146 49.5005 33.3236C49.6236 34.1942 49.0696 35.2055 48.2606 35.5836C47.4691 35.953 47.5131 36.0673 47.5131 33.5699C47.5131 31.1692 47.4867 31.2923 48.0495 31.4945ZM24.5438 44.0256C24.9659 47.3585 25.0011 47.7718 24.8868 47.8597C24.8076 47.9125 24.324 48.0532 23.8052 48.1587C22.9697 48.3434 22.8466 48.3522 22.7587 48.229C22.7059 48.1587 22.4509 46.4791 22.1959 44.5005C21.9409 42.5307 21.7122 40.7631 21.6859 40.5785L21.6331 40.2443L22.8554 40.2707L24.069 40.2971L24.5438 44.0256Z"/>
</mask>
<path d="M43.0898 19.0602C42.5534 19.2009 41.8939 19.579 41.4366 20.0011C41.0145 20.3968 40.4781 21.3026 40.4781 21.628C40.4781 21.8126 39.5548 22.5161 38.394 23.2284C35.3953 25.0575 31.4733 26.4293 27.1995 27.1416L25.6694 27.4054L25.4144 27.1856L25.1594 26.9746H21.9585C18.3706 26.9746 18.0101 27.0185 16.8229 27.5637C14.9938 28.3991 13.6132 30.0787 13.1208 32.0749C12.9449 32.7784 12.9625 34.5284 13.1647 35.2407C13.5341 36.5949 14.3343 37.8348 15.3895 38.7054C16.48 39.6112 18.1772 40.2443 19.4874 40.2531C19.7952 40.2531 19.9007 40.2883 19.9007 40.385C19.9007 40.7368 20.9736 48.6335 21.0439 48.8006C21.2989 49.4426 21.9497 49.9702 22.6004 50.0669C23.1984 50.1549 25.2385 49.7064 25.8189 49.3634C26.3465 49.0469 26.7599 48.3609 26.7599 47.8157C26.7599 47.6311 26.54 45.7844 26.2762 43.7178C26.0124 41.6425 25.7925 39.9189 25.7925 39.875C25.7925 39.787 26.1971 39.8398 27.8151 40.13C32.4318 40.9654 36.5825 42.601 39.7042 44.8083C40.2319 45.1864 40.4077 45.3623 40.4869 45.6085C40.8123 46.6022 41.4806 47.3848 42.4127 47.8421C42.9403 48.1059 43.0459 48.1235 43.9077 48.1235C44.7607 48.1235 44.875 48.1059 45.429 47.8421C46.4754 47.3497 47.2053 46.3911 47.4164 45.2304C47.4779 44.905 47.5131 43.3397 47.5131 41.1325V37.5534L47.9792 37.5007C49.5181 37.316 50.9427 35.8474 51.2241 34.1503C51.5582 32.1189 50.0897 30.0612 48.0319 29.6742L47.5131 29.5775V26.0072C47.5131 23.9759 47.4779 22.2171 47.4252 21.9533C47.1174 20.3177 45.728 19.0866 44.1011 19.0074C43.7318 18.9898 43.2745 19.0162 43.0898 19.0602ZM44.9101 21.0564C45.1124 21.1971 45.3674 21.4873 45.4905 21.6983L45.7104 22.094L45.7368 33.3852C45.7631 46.0658 45.7983 45.3183 45.1388 45.9163C44.6991 46.312 44.4617 46.4087 43.8989 46.4087C43.0547 46.4087 42.3248 45.802 42.1489 44.9578C42.0874 44.6588 42.061 40.9126 42.0786 33.3061L42.1049 22.094L42.2984 21.7247C42.5182 21.329 42.9579 20.942 43.3537 20.8189C43.8021 20.6694 44.5232 20.7838 44.9101 21.0564ZM40.3022 33.605V43.0583L39.3877 42.4955C36.3099 40.6049 32.2911 39.1539 27.991 38.3712C27.3402 38.2481 26.5576 38.125 26.2586 38.0898L25.7046 38.0283V33.605V29.173L25.9069 29.1378C26.0124 29.1114 26.7511 28.9883 27.5425 28.8652C31.9042 28.1529 36.3978 26.5612 39.4228 24.653C39.8362 24.3892 40.1967 24.1693 40.2407 24.1693C40.2758 24.1606 40.3022 28.4079 40.3022 33.605ZM23.9459 33.6138V38.4944H21.5979C18.8982 38.4944 18.3794 38.4152 17.3593 37.9052C15.7677 37.1049 14.7124 35.355 14.7124 33.5259C14.7124 32.9279 15.0026 31.8199 15.3016 31.2571C15.8556 30.2458 16.9548 29.3401 18.1332 28.9356C18.6784 28.7509 18.8543 28.7421 21.3341 28.7333H23.9459V33.6138ZM48.0495 31.4945C48.7882 31.7584 49.395 32.5146 49.5005 33.3236C49.6236 34.1942 49.0696 35.2055 48.2606 35.5836C47.4691 35.953 47.5131 36.0673 47.5131 33.5699C47.5131 31.1692 47.4867 31.2923 48.0495 31.4945ZM24.5438 44.0256C24.9659 47.3585 25.0011 47.7718 24.8868 47.8597C24.8076 47.9125 24.324 48.0532 23.8052 48.1587C22.9697 48.3434 22.8466 48.3522 22.7587 48.229C22.7059 48.1587 22.4509 46.4791 22.1959 44.5005C21.9409 42.5307 21.7122 40.7631 21.6859 40.5785L21.6331 40.2443L22.8554 40.2707L24.069 40.2971L24.5438 44.0256Z" fill="#9C171E"/>
<path d="M43.0898 19.0602C42.5534 19.2009 41.8939 19.579 41.4366 20.0011C41.0145 20.3968 40.4781 21.3026 40.4781 21.628C40.4781 21.8126 39.5548 22.5161 38.394 23.2284C35.3953 25.0575 31.4733 26.4293 27.1995 27.1416L25.6694 27.4054L25.4144 27.1856L25.1594 26.9746H21.9585C18.3706 26.9746 18.0101 27.0185 16.8229 27.5637C14.9938 28.3991 13.6132 30.0787 13.1208 32.0749C12.9449 32.7784 12.9625 34.5284 13.1647 35.2407C13.5341 36.5949 14.3343 37.8348 15.3895 38.7054C16.48 39.6112 18.1772 40.2443 19.4874 40.2531C19.7952 40.2531 19.9007 40.2883 19.9007 40.385C19.9007 40.7368 20.9736 48.6335 21.0439 48.8006C21.2989 49.4426 21.9497 49.9702 22.6004 50.0669C23.1984 50.1549 25.2385 49.7064 25.8189 49.3634C26.3465 49.0469 26.7599 48.3609 26.7599 47.8157C26.7599 47.6311 26.54 45.7844 26.2762 43.7178C26.0124 41.6425 25.7925 39.9189 25.7925 39.875C25.7925 39.787 26.1971 39.8398 27.8151 40.13C32.4318 40.9654 36.5825 42.601 39.7042 44.8083C40.2319 45.1864 40.4077 45.3623 40.4869 45.6085C40.8123 46.6022 41.4806 47.3848 42.4127 47.8421C42.9403 48.1059 43.0459 48.1235 43.9077 48.1235C44.7607 48.1235 44.875 48.1059 45.429 47.8421C46.4754 47.3497 47.2053 46.3911 47.4164 45.2304C47.4779 44.905 47.5131 43.3397 47.5131 41.1325V37.5534L47.9792 37.5007C49.5181 37.316 50.9427 35.8474 51.2241 34.1503C51.5582 32.1189 50.0897 30.0612 48.0319 29.6742L47.5131 29.5775V26.0072C47.5131 23.9759 47.4779 22.2171 47.4252 21.9533C47.1174 20.3177 45.728 19.0866 44.1011 19.0074C43.7318 18.9898 43.2745 19.0162 43.0898 19.0602ZM44.9101 21.0564C45.1124 21.1971 45.3674 21.4873 45.4905 21.6983L45.7104 22.094L45.7368 33.3852C45.7631 46.0658 45.7983 45.3183 45.1388 45.9163C44.6991 46.312 44.4617 46.4087 43.8989 46.4087C43.0547 46.4087 42.3248 45.802 42.1489 44.9578C42.0874 44.6588 42.061 40.9126 42.0786 33.3061L42.1049 22.094L42.2984 21.7247C42.5182 21.329 42.9579 20.942 43.3537 20.8189C43.8021 20.6694 44.5232 20.7838 44.9101 21.0564ZM40.3022 33.605V43.0583L39.3877 42.4955C36.3099 40.6049 32.2911 39.1539 27.991 38.3712C27.3402 38.2481 26.5576 38.125 26.2586 38.0898L25.7046 38.0283V33.605V29.173L25.9069 29.1378C26.0124 29.1114 26.7511 28.9883 27.5425 28.8652C31.9042 28.1529 36.3978 26.5612 39.4228 24.653C39.8362 24.3892 40.1967 24.1693 40.2407 24.1693C40.2758 24.1606 40.3022 28.4079 40.3022 33.605ZM23.9459 33.6138V38.4944H21.5979C18.8982 38.4944 18.3794 38.4152 17.3593 37.9052C15.7677 37.1049 14.7124 35.355 14.7124 33.5259C14.7124 32.9279 15.0026 31.8199 15.3016 31.2571C15.8556 30.2458 16.9548 29.3401 18.1332 28.9356C18.6784 28.7509 18.8543 28.7421 21.3341 28.7333H23.9459V33.6138ZM48.0495 31.4945C48.7882 31.7584 49.395 32.5146 49.5005 33.3236C49.6236 34.1942 49.0696 35.2055 48.2606 35.5836C47.4691 35.953 47.5131 36.0673 47.5131 33.5699C47.5131 31.1692 47.4867 31.2923 48.0495 31.4945ZM24.5438 44.0256C24.9659 47.3585 25.0011 47.7718 24.8868 47.8597C24.8076 47.9125 24.324 48.0532 23.8052 48.1587C22.9697 48.3434 22.8466 48.3522 22.7587 48.229C22.7059 48.1587 22.4509 46.4791 22.1959 44.5005C21.9409 42.5307 21.7122 40.7631 21.6859 40.5785L21.6331 40.2443L22.8554 40.2707L24.069 40.2971L24.5438 44.0256Z" stroke="#9C171E" mask="url(#path-1-outside-1_5980_45056)"/>
</g>
<g id="Vector_2">
<mask id="path-2-outside-2_5980_45056" maskUnits="userSpaceOnUse" x="50.2949" y="23.5977" width="7" height="6" fill="black">
<rect fill="white" x="50.2949" y="23.5977" width="7" height="6"/>
<path d="M53.5372 25.9266C52.5259 26.507 51.6026 27.0874 51.497 27.2017C51.2069 27.5183 51.2332 27.9492 51.5498 28.3097C51.9895 28.8022 52.2093 28.7406 54.3286 27.5095C55.3487 26.9203 56.2633 26.3399 56.3776 26.2168C56.659 25.8915 56.6414 25.443 56.316 25.1176C55.85 24.6603 55.6301 24.7219 53.5372 25.9266Z"/>
</mask>
<path d="M53.5372 25.9266C52.5259 26.507 51.6026 27.0874 51.497 27.2017C51.2069 27.5183 51.2332 27.9492 51.5498 28.3097C51.9895 28.8022 52.2093 28.7406 54.3286 27.5095C55.3487 26.9203 56.2633 26.3399 56.3776 26.2168C56.659 25.8915 56.6414 25.443 56.316 25.1176C55.85 24.6603 55.6301 24.7219 53.5372 25.9266Z" fill="#9C171E"/>
<path d="M53.5372 25.9266C52.5259 26.507 51.6026 27.0874 51.497 27.2017C51.2069 27.5183 51.2332 27.9492 51.5498 28.3097C51.9895 28.8022 52.2093 28.7406 54.3286 27.5095C55.3487 26.9203 56.2633 26.3399 56.3776 26.2168C56.659 25.8915 56.6414 25.443 56.316 25.1176C55.85 24.6603 55.6301 24.7219 53.5372 25.9266Z" stroke="#9C171E" mask="url(#path-2-outside-2_5980_45056)"/>
</g>
<g id="Vector_3">
<mask id="path-3-outside-3_5980_45056" maskUnits="userSpaceOnUse" x="51.375" y="31.4492" width="8" height="4" fill="black">
<rect fill="white" x="51.375" y="31.4492" width="8" height="4"/>
<path d="M52.9642 32.752C52.4982 32.9279 52.2519 33.4819 52.4366 33.9304C52.6389 34.414 52.8235 34.4492 55.2066 34.4492C56.5257 34.4492 57.4403 34.414 57.5458 34.3613C57.7568 34.247 57.9767 33.8249 57.9767 33.5347C57.9767 33.4116 57.8624 33.1829 57.7217 33.0246L57.4666 32.7344L55.277 32.7169C54.081 32.7081 53.0346 32.7256 52.9642 32.752Z"/>
</mask>
<path d="M52.9642 32.752C52.4982 32.9279 52.2519 33.4819 52.4366 33.9304C52.6389 34.414 52.8235 34.4492 55.2066 34.4492C56.5257 34.4492 57.4403 34.414 57.5458 34.3613C57.7568 34.247 57.9767 33.8249 57.9767 33.5347C57.9767 33.4116 57.8624 33.1829 57.7217 33.0246L57.4666 32.7344L55.277 32.7169C54.081 32.7081 53.0346 32.7256 52.9642 32.752Z" fill="#9C171E"/>
<path d="M52.9642 32.752C52.4982 32.9279 52.2519 33.4819 52.4366 33.9304C52.6389 34.414 52.8235 34.4492 55.2066 34.4492C56.5257 34.4492 57.4403 34.414 57.5458 34.3613C57.7568 34.247 57.9767 33.8249 57.9767 33.5347C57.9767 33.4116 57.8624 33.1829 57.7217 33.0246L57.4666 32.7344L55.277 32.7169C54.081 32.7081 53.0346 32.7256 52.9642 32.752Z" stroke="#9C171E" mask="url(#path-3-outside-3_5980_45056)"/>
</g>
<g id="Vector_4">
<mask id="path-4-outside-4_5980_45056" maskUnits="userSpaceOnUse" x="50.2871" y="37.3633" width="7" height="6" fill="black">
<rect fill="white" x="50.2871" y="37.3633" width="7" height="6"/>
<path d="M51.5488 38.837C51.2058 39.1887 51.197 39.6196 51.54 39.9802C51.8829 40.3495 55.4268 42.3633 55.7258 42.3633C56.0512 42.3633 56.57 41.8532 56.57 41.5367C56.57 41.0178 56.3765 40.8596 54.3891 39.6988C52.2171 38.4413 52.0148 38.3797 51.5488 38.837Z"/>
</mask>
<path d="M51.5488 38.837C51.2058 39.1887 51.197 39.6196 51.54 39.9802C51.8829 40.3495 55.4268 42.3633 55.7258 42.3633C56.0512 42.3633 56.57 41.8532 56.57 41.5367C56.57 41.0178 56.3765 40.8596 54.3891 39.6988C52.2171 38.4413 52.0148 38.3797 51.5488 38.837Z" fill="#9C171E"/>
<path d="M51.5488 38.837C51.2058 39.1887 51.197 39.6196 51.54 39.9802C51.8829 40.3495 55.4268 42.3633 55.7258 42.3633C56.0512 42.3633 56.57 41.8532 56.57 41.5367C56.57 41.0178 56.3765 40.8596 54.3891 39.6988C52.2171 38.4413 52.0148 38.3797 51.5488 38.837Z" stroke="#9C171E" mask="url(#path-4-outside-4_5980_45056)"/>
</g>
</g>
</g>
</svg>
