<svg width="70" height="70" viewBox="0 0 70 70" fill="none" xmlns="http://www.w3.org/2000/svg">
<g id="repeat-order-otomatis">
<g id="Group">
<g id="Vector">
<mask id="path-1-outside-1_5980_45044" maskUnits="userSpaceOnUse" x="11" y="11" width="47" height="47" fill="black">
<rect fill="white" x="11" y="11" width="47" height="47"/>
<path d="M32.7596 12.027C31.2508 12.2088 30.7781 12.2815 29.9874 12.436C21.5708 14.1266 14.7813 20.589 12.6726 28.9146C12.1272 31.0778 12 32.1503 12 34.5135C12 36.8858 12.1363 38.0037 12.6726 40.1033C14.7086 48.0745 20.9437 54.3096 28.8967 56.3274C31.0417 56.8728 32.1233 57 34.4865 57C36.8497 57 37.9222 56.8728 40.0945 56.3274C42.9485 55.6003 45.9206 54.1642 48.1656 52.4282C48.4565 52.2009 48.7655 51.9646 48.8382 51.9101C48.9473 51.8192 48.9018 51.7192 48.5292 51.2739C48.2838 50.9739 48.0747 50.7194 48.0565 50.7012C48.0475 50.6831 47.7839 50.8739 47.4658 51.1284C45.4571 52.719 42.7939 54.0733 40.1945 54.8186C36.6315 55.8457 32.5959 55.8639 28.8785 54.8731C21.7435 52.9735 15.9356 47.1747 14.0451 40.0579C13.3997 37.6311 13.1543 34.7317 13.3906 32.4139C13.7996 28.4147 15.3812 24.4882 17.8261 21.3979C18.4987 20.5435 20.0802 18.9257 20.9437 18.2076C23.8977 15.7445 27.497 14.1539 31.4871 13.5449C32.7777 13.354 35.8408 13.3268 37.1223 13.4995C44.0755 14.4629 50.0016 18.6076 53.1737 24.7427C54.3099 26.9332 54.9643 28.9601 55.3642 31.5141C55.5823 32.9684 55.5823 36.0587 55.3642 37.5129C55.1551 38.8399 54.6734 40.7032 54.2462 41.8393C53.9281 42.6937 53.1828 44.2934 53.0374 44.4479C52.9919 44.4934 52.5193 44.2389 51.974 43.8935C51.4286 43.5481 50.9742 43.2663 50.956 43.2845C50.9287 43.3118 51.1378 48.8198 51.165 48.8561C51.1923 48.8925 56.1459 46.8656 56.2458 46.7747C56.2913 46.7384 55.9005 46.4294 55.3824 46.1021C54.8643 45.7658 54.4008 45.4568 54.3644 45.4205C54.319 45.3841 54.5098 44.8842 54.7825 44.3207C59.0089 35.4951 57.1638 25.1335 50.1561 18.3349C46.6932 14.9719 42.5031 12.9269 37.6222 12.1906C36.7497 12.0634 33.4231 11.9452 32.7596 12.027Z"/>
</mask>
<path d="M32.7596 12.027C31.2508 12.2088 30.7781 12.2815 29.9874 12.436C21.5708 14.1266 14.7813 20.589 12.6726 28.9146C12.1272 31.0778 12 32.1503 12 34.5135C12 36.8858 12.1363 38.0037 12.6726 40.1033C14.7086 48.0745 20.9437 54.3096 28.8967 56.3274C31.0417 56.8728 32.1233 57 34.4865 57C36.8497 57 37.9222 56.8728 40.0945 56.3274C42.9485 55.6003 45.9206 54.1642 48.1656 52.4282C48.4565 52.2009 48.7655 51.9646 48.8382 51.9101C48.9473 51.8192 48.9018 51.7192 48.5292 51.2739C48.2838 50.9739 48.0747 50.7194 48.0565 50.7012C48.0475 50.6831 47.7839 50.8739 47.4658 51.1284C45.4571 52.719 42.7939 54.0733 40.1945 54.8186C36.6315 55.8457 32.5959 55.8639 28.8785 54.8731C21.7435 52.9735 15.9356 47.1747 14.0451 40.0579C13.3997 37.6311 13.1543 34.7317 13.3906 32.4139C13.7996 28.4147 15.3812 24.4882 17.8261 21.3979C18.4987 20.5435 20.0802 18.9257 20.9437 18.2076C23.8977 15.7445 27.497 14.1539 31.4871 13.5449C32.7777 13.354 35.8408 13.3268 37.1223 13.4995C44.0755 14.4629 50.0016 18.6076 53.1737 24.7427C54.3099 26.9332 54.9643 28.9601 55.3642 31.5141C55.5823 32.9684 55.5823 36.0587 55.3642 37.5129C55.1551 38.8399 54.6734 40.7032 54.2462 41.8393C53.9281 42.6937 53.1828 44.2934 53.0374 44.4479C52.9919 44.4934 52.5193 44.2389 51.974 43.8935C51.4286 43.5481 50.9742 43.2663 50.956 43.2845C50.9287 43.3118 51.1378 48.8198 51.165 48.8561C51.1923 48.8925 56.1459 46.8656 56.2458 46.7747C56.2913 46.7384 55.9005 46.4294 55.3824 46.1021C54.8643 45.7658 54.4008 45.4568 54.3644 45.4205C54.319 45.3841 54.5098 44.8842 54.7825 44.3207C59.0089 35.4951 57.1638 25.1335 50.1561 18.3349C46.6932 14.9719 42.5031 12.9269 37.6222 12.1906C36.7497 12.0634 33.4231 11.9452 32.7596 12.027Z" fill="#9C171E"/>
<path d="M32.7596 12.027C31.2508 12.2088 30.7781 12.2815 29.9874 12.436C21.5708 14.1266 14.7813 20.589 12.6726 28.9146C12.1272 31.0778 12 32.1503 12 34.5135C12 36.8858 12.1363 38.0037 12.6726 40.1033C14.7086 48.0745 20.9437 54.3096 28.8967 56.3274C31.0417 56.8728 32.1233 57 34.4865 57C36.8497 57 37.9222 56.8728 40.0945 56.3274C42.9485 55.6003 45.9206 54.1642 48.1656 52.4282C48.4565 52.2009 48.7655 51.9646 48.8382 51.9101C48.9473 51.8192 48.9018 51.7192 48.5292 51.2739C48.2838 50.9739 48.0747 50.7194 48.0565 50.7012C48.0475 50.6831 47.7839 50.8739 47.4658 51.1284C45.4571 52.719 42.7939 54.0733 40.1945 54.8186C36.6315 55.8457 32.5959 55.8639 28.8785 54.8731C21.7435 52.9735 15.9356 47.1747 14.0451 40.0579C13.3997 37.6311 13.1543 34.7317 13.3906 32.4139C13.7996 28.4147 15.3812 24.4882 17.8261 21.3979C18.4987 20.5435 20.0802 18.9257 20.9437 18.2076C23.8977 15.7445 27.497 14.1539 31.4871 13.5449C32.7777 13.354 35.8408 13.3268 37.1223 13.4995C44.0755 14.4629 50.0016 18.6076 53.1737 24.7427C54.3099 26.9332 54.9643 28.9601 55.3642 31.5141C55.5823 32.9684 55.5823 36.0587 55.3642 37.5129C55.1551 38.8399 54.6734 40.7032 54.2462 41.8393C53.9281 42.6937 53.1828 44.2934 53.0374 44.4479C52.9919 44.4934 52.5193 44.2389 51.974 43.8935C51.4286 43.5481 50.9742 43.2663 50.956 43.2845C50.9287 43.3118 51.1378 48.8198 51.165 48.8561C51.1923 48.8925 56.1459 46.8656 56.2458 46.7747C56.2913 46.7384 55.9005 46.4294 55.3824 46.1021C54.8643 45.7658 54.4008 45.4568 54.3644 45.4205C54.319 45.3841 54.5098 44.8842 54.7825 44.3207C59.0089 35.4951 57.1638 25.1335 50.1561 18.3349C46.6932 14.9719 42.5031 12.9269 37.6222 12.1906C36.7497 12.0634 33.4231 11.9452 32.7596 12.027Z" stroke="#9C171E" stroke-width="1.6" mask="url(#path-1-outside-1_5980_45044)"/>
</g>
</g>
<g id="Group_2">
<path id="Vector_2" d="M33.6306 23.1097C33.4743 23.1976 33.2057 23.5833 32.0582 25.3407L30.6763 27.4642L27.0969 27.4886C23.7862 27.513 23.503 27.5179 23.3565 27.6009C23.1709 27.6985 23 28.0012 23 28.2209C23 28.465 23.1709 28.7432 23.3906 28.8555C23.5811 28.9531 23.6641 28.9531 31.0572 28.9531C38.4502 28.9531 38.5332 28.9531 38.7237 28.8555C38.9434 28.7432 39.1143 28.465 39.1143 28.2209C39.1143 28.0012 38.9434 27.6985 38.7578 27.6009C38.6162 27.5179 38.3477 27.513 35.5154 27.4886L32.4244 27.4642L33.3962 25.9753L34.3679 24.4864L35.7498 24.462C36.956 24.4424 37.1562 24.4278 37.2929 24.3497C37.4785 24.252 37.6494 23.9494 37.6494 23.7297C37.6494 23.4856 37.4785 23.2074 37.2587 23.0951C37.078 23.0023 36.9755 22.9974 35.4422 22.9974C33.8503 22.9974 33.8112 23.0023 33.6306 23.1097Z" fill="#9C171E"/>
<path id="Vector_3" d="M23.9473 30.7734C23.9668 30.9687 24.1963 34.7862 24.4649 39.2578C25.0118 48.3378 24.9434 47.6934 25.339 47.8985C25.5294 47.9912 25.6173 47.9961 27.8538 47.9961H30.1781L30.0072 47.7325C29.6898 47.2345 29.5091 46.678 29.4652 46.0385C29.4261 45.5601 29.4847 45.2379 29.6849 44.823C29.8412 44.491 30.3197 43.998 30.6323 43.8564C30.7592 43.7978 30.8618 43.7392 30.8618 43.7295C30.8618 43.7197 30.7934 43.5684 30.7153 43.3975C30.5395 43.0216 30.4223 42.5188 30.4223 42.1088C30.4223 41.7475 30.5639 41.1617 30.7397 40.82C30.8422 40.615 30.8569 40.5564 30.8032 40.5222C30.769 40.4978 30.7202 40.4783 30.7006 40.4783C30.6225 40.4783 30.1391 40.0877 29.973 39.8973C29.4896 39.3311 29.3529 38.6525 29.5189 37.5981C29.6215 36.939 29.7582 36.4753 30.0268 35.909C30.3637 35.206 30.7104 34.713 31.2475 34.176C31.7896 33.639 32.2876 33.2875 32.981 32.9556C33.9967 32.4723 34.612 32.3746 36.6043 32.3746H38.0741L38.1083 31.6766C38.1279 31.2958 38.1523 30.8564 38.1718 30.7002L38.2011 30.422H31.0571H23.918L23.9473 30.7734Z" fill="#9C171E"/>
<path id="Vector_4" d="M34.7441 33.9104C32.6444 34.3009 31.0671 36.0535 30.9255 38.1575C30.9011 38.548 30.9108 38.6212 31.0036 38.8067C31.072 38.9434 31.1696 39.0411 31.3015 39.1094C31.4919 39.207 31.5701 39.207 39.4563 39.207C47.3426 39.207 47.4207 39.207 47.6111 39.1094C47.743 39.0411 47.8406 38.9434 47.909 38.8067C48.0018 38.6212 48.0115 38.548 47.9871 38.1575C47.8553 36.1901 46.4685 34.5206 44.5103 33.9738L44.1197 33.8616L39.6028 33.8518C36.0528 33.8469 35.0127 33.8567 34.7441 33.9104Z" fill="#9C171E"/>
<path id="Vector_5" d="M32.8749 40.7643C32.3817 40.9352 32.035 41.3307 31.9275 41.8581C31.8152 42.3855 32.035 42.9666 32.4647 43.2937C32.8944 43.6209 32.5184 43.6062 39.5599 43.5916L45.9275 43.5769L46.2058 43.4402C46.7283 43.1814 47.0018 42.737 47.0018 42.1364C47.0018 41.5358 46.7283 41.0914 46.2058 40.8326L45.9275 40.6959L39.5306 40.6861C33.4316 40.6764 33.1239 40.6764 32.8749 40.7643Z" fill="#9C171E"/>
<path id="Vector_6" d="M31.293 45.1678C31.0781 45.2801 30.9121 45.5633 30.9121 45.8172C30.9121 46.8036 31.6739 47.7265 32.6603 47.9414C33.0216 48.0195 45.8838 48.0195 46.2549 47.9414C46.8799 47.8096 47.4317 47.3896 47.7247 46.8378C48.1251 46.0663 48.0812 45.4022 47.6124 45.1629C47.422 45.0652 47.3438 45.0652 39.4478 45.0652C31.6055 45.0701 31.4688 45.0701 31.293 45.1678Z" fill="#9C171E"/>
</g>
</g>
</svg>
