<svg width="70" height="70" viewBox="0 0 70 70" fill="none" xmlns="http://www.w3.org/2000/svg">
<g id="self-ordering-kiosk">
<path id="Union" fill-rule="evenodd" clip-rule="evenodd" d="M17.0004 16.5493C17.0004 14.0519 19.0523 12 21.5501 12H49.1784C51.6761 12 53.7276 14.0523 53.7276 16.5493V52.4503C53.7276 54.9481 51.6762 57 49.1784 57H21.5497C19.0519 57 17 54.9481 17 52.4503L17.0004 16.5493ZM49.1788 14.6472H21.5501H21.5497C20.4728 14.6472 19.6471 15.473 19.6471 16.5494V52.4504C19.6471 53.5273 20.4729 54.3531 21.5497 54.3531H49.1784C50.2557 54.3531 51.0806 53.5273 51.0806 52.4504L51.081 16.5494C51.081 15.4729 50.2556 14.6472 49.1788 14.6472ZM33.2719 15.3109H33.2723H37.2496C37.6007 15.3109 37.9373 15.4502 38.1858 15.6987C38.4338 15.9467 38.5731 16.2834 38.5731 16.6345C38.5731 16.9856 38.4338 17.3222 38.1858 17.5703C37.9373 17.8188 37.6007 17.9581 37.2496 17.9581H33.2719C32.9208 17.9581 32.5841 17.8188 32.3361 17.5703C32.0881 17.3222 31.9483 16.9856 31.9483 16.6345C31.9483 16.2834 32.0881 15.9467 32.3361 15.6987C32.5841 15.4502 32.9208 15.3109 33.2719 15.3109ZM21.3219 20.048C21.3219 19.317 21.9144 18.7244 22.6454 18.7244H48.083C48.814 18.7244 49.4066 19.317 49.4066 20.048V48.9521C49.4062 49.6827 48.8136 50.2753 48.083 50.2753H22.6454C21.9144 50.2753 21.3223 49.6827 21.3219 48.9521V20.048ZM34.323 51.3528C34.5972 51.0768 34.9697 50.9209 35.3588 50.9196C35.75 50.9179 36.1251 51.0724 36.402 51.3489C36.6784 51.6257 36.833 52.0008 36.8312 52.3921C36.8299 52.7811 36.674 53.1536 36.398 53.4279C36.1216 53.7017 35.7478 53.8549 35.3587 53.8532C34.5531 53.8506 33.9003 53.1978 33.8977 52.3921C33.8959 52.003 34.0492 51.6292 34.323 51.3528Z" fill="#9C171E"/>
</g>
</svg>
