<svg width="70" height="70" viewBox="0 0 70 70" fill="none" xmlns="http://www.w3.org/2000/svg">
<g id="up-selling-dan">
<g id="Group 1000001222">
<g id="Group 1000001208">
<g id="Group">
<path id="Vector" d="M26.3779 19.117C26.5187 18.906 26.4481 18.5546 26.2371 18.3436L21.737 13.2109C21.4558 12.9297 20.9636 12.9297 20.6825 13.2109L16.1827 18.3436C15.9718 18.5546 15.9718 18.8358 16.042 19.117C16.1827 19.3982 16.3933 19.539 16.6749 19.539H17.8001L17.7997 29.8751C17.7997 30.2265 18.0809 30.5782 18.5029 30.5782H23.9168C24.3387 30.5782 24.6199 30.2268 24.6199 29.8751V19.539H25.7451C26.0263 19.539 26.3075 19.328 26.3781 19.117H26.3779Z" fill="#9C171E"/>
<path id="Vector_2" d="M53.0909 51.8831C52.9501 51.6019 52.7395 51.4611 52.458 51.4611H51.3328L51.3332 41.125C51.3332 40.7736 51.052 40.4219 50.63 40.4219H45.2161C44.7942 40.4219 44.513 40.7733 44.513 41.125V51.4611H43.3878C43.1066 51.4611 42.8254 51.6019 42.7548 51.8831C42.6141 52.1643 42.6846 52.4455 42.8956 52.6565L47.3957 57.7892C47.5365 57.93 47.7471 58.0002 47.9581 58.0002C48.1691 58.0002 48.3801 57.93 48.5205 57.7892L53.0206 52.6565C53.1614 52.4451 53.2316 52.1639 53.0908 51.8827L53.0909 51.8831Z" fill="#9C171E"/>
</g>
</g>
</g>
<g id="Group_2">
<path id="Vector_3" d="M28.2081 29.056C28.0934 29.1147 28 29.2721 28 29.4001C28 29.5335 28.0934 29.6855 28.2134 29.7469C28.3121 29.7976 28.3681 29.8002 29.1924 29.8002H30.07L31.0329 33.1773L31.9986 36.5543L31.9212 36.709C31.7878 36.9731 31.7291 37.1812 31.7291 37.4026C31.7291 37.9574 32.0892 38.4215 32.6281 38.5629C32.7428 38.5923 32.9348 38.6029 33.335 38.6056C33.8258 38.6083 33.8685 38.6109 33.7484 38.6403C33.527 38.6936 33.359 38.7897 33.1856 38.9604C32.7134 39.4352 32.7134 40.1741 33.1856 40.6436C33.6631 41.1184 34.3993 41.1184 34.8688 40.6462C35.2342 40.2781 35.3249 39.7446 35.1035 39.2751C34.9648 38.979 34.602 38.6936 34.2873 38.6296C34.2232 38.6189 34.9861 38.6083 36.0425 38.6083C37.5709 38.6083 37.8857 38.6136 37.7763 38.6403C37.5549 38.6936 37.3869 38.7897 37.2135 38.9604C36.7413 39.4352 36.7413 40.1741 37.2135 40.6436C37.691 41.1184 38.4272 41.1184 38.8967 40.6462C39.3715 40.1687 39.3715 39.4352 38.8967 38.9604C38.7286 38.7897 38.5579 38.6936 38.3365 38.6403C38.2218 38.6109 38.3071 38.6083 38.9714 38.6056C39.6862 38.6029 39.7476 38.6003 39.8436 38.5496C39.9637 38.4882 40.057 38.3362 40.057 38.2028C40.057 38.0694 39.9637 37.9174 39.8436 37.856C39.7396 37.8027 39.6942 37.8027 36.2905 37.8027C33.0602 37.8027 32.8361 37.8 32.7481 37.7547C32.5321 37.648 32.4787 37.4132 32.6067 37.1492L32.6788 37.0024H36.2078C39.7076 37.0024 39.7396 37.0024 39.8463 36.9491C39.921 36.9091 39.969 36.8611 40.0037 36.781C40.0704 36.637 41.6575 31.078 41.6575 30.9873C41.6575 30.8672 41.5588 30.7125 41.4441 30.6538C41.3401 30.6005 41.2974 30.6005 36.2345 30.6005H31.129L30.9502 29.9656C30.7368 29.2134 30.7022 29.136 30.5634 29.0587C30.4621 29 30.4407 29 29.3844 29C28.3654 29.0027 28.3014 29.0053 28.2081 29.056Z" fill="#9C171E"/>
</g>
</g>
</svg>
