<svg width="70" height="70" viewBox="0 0 70 70" fill="none" xmlns="http://www.w3.org/2000/svg">
<path fill-rule="evenodd" clip-rule="evenodd" d="M35.4287 18C31.2867 18 27.9287 21.4399 27.9287 25.6829C27.9287 29.926 31.2867 33.3659 35.4287 33.3659C39.5708 33.3659 42.9287 29.926 42.9287 25.6829C42.9287 21.4399 39.5708 18 35.4287 18ZM38.6796 24.3838C38.7395 24.3137 38.7851 24.2321 38.8137 24.1437C38.8423 24.0553 38.8533 23.9619 38.8462 23.869C38.839 23.7762 38.8138 23.6858 38.7721 23.603C38.7303 23.5203 38.6728 23.447 38.6029 23.3874C38.5331 23.3277 38.4523 23.283 38.3654 23.2559C38.2784 23.2287 38.187 23.2196 38.0966 23.2292C38.0062 23.2387 37.9185 23.2667 37.8388 23.3114C37.759 23.3562 37.6889 23.4168 37.6323 23.4898L34.7005 27.0931L33.1835 25.5383C33.0549 25.4111 32.8827 25.3407 32.7039 25.3423C32.5251 25.3439 32.3541 25.4174 32.2277 25.5469C32.1013 25.6764 32.0296 25.8515 32.028 26.0347C32.0265 26.2178 32.0952 26.3942 32.2194 26.526L34.2648 28.6213C34.3318 28.6899 34.412 28.7434 34.5004 28.7785C34.5887 28.8136 34.6831 28.8294 34.7778 28.825C34.8724 28.8206 34.9651 28.796 35.0499 28.7529C35.1347 28.7098 35.2099 28.649 35.2705 28.5745L38.6796 24.3838Z" fill="#9C171E"/>
<path d="M37.334 48.9268C37.9476 48.9269 38.5374 49.1726 38.9806 49.6127C39.4237 50.0528 39.686 50.6534 39.7126 51.2892L39.715 51.3963V51.8902C39.7151 52.1395 39.6243 52.3795 39.4609 52.5622C39.2976 52.745 39.0736 52.8569 38.834 52.8756L38.7626 52.878H32.0959C31.8557 52.8781 31.6242 52.784 31.4481 52.6146C31.2719 52.4451 31.164 52.2128 31.1459 51.9643L31.1436 51.8902V51.3963C31.1436 50.76 31.3805 50.1482 31.8048 49.6885C32.2292 49.2289 32.8082 48.9569 33.4212 48.9293L33.5245 48.9268H37.334ZM35.4293 43C36.0607 43 36.6663 43.2602 37.1129 43.7233C37.5594 44.1864 37.8102 44.8146 37.8102 45.4695C37.8102 46.1245 37.5594 46.7526 37.1129 47.2157C36.6663 47.6788 36.0607 47.939 35.4293 47.939C34.7978 47.939 34.1922 47.6788 33.7457 47.2157C33.2992 46.7526 33.0483 46.1245 33.0483 45.4695C33.0483 44.8146 33.2992 44.1864 33.7457 43.7233C34.1922 43.2602 34.7978 43 35.4293 43Z" fill="#9C171E"/>
<path d="M54.4756 48.9268C55.0892 48.9269 55.679 49.1726 56.1222 49.6127C56.5653 50.0528 56.8276 50.6534 56.8542 51.2892L56.8566 51.3963V51.8902C56.8567 52.1395 56.7659 52.3795 56.6025 52.5622C56.4392 52.745 56.2152 52.8569 55.9756 52.8756L55.9042 52.878H49.2375C48.9973 52.8781 48.7658 52.784 48.5897 52.6146C48.4135 52.4451 48.3056 52.2128 48.2875 51.9643L48.2852 51.8902V51.3963C48.2852 50.76 48.5221 50.1482 48.9464 49.6885C49.3708 49.2289 49.9498 48.9569 50.5628 48.9293L50.6661 48.9268H54.4756ZM52.5709 43C53.2023 43 53.8079 43.2602 54.2545 43.7233C54.701 44.1864 54.9518 44.8146 54.9518 45.4695C54.9518 46.1245 54.701 46.7526 54.2545 47.2157C53.8079 47.6788 53.2023 47.939 52.5709 47.939C51.9394 47.939 51.3338 47.6788 50.8873 47.2157C50.4408 46.7526 50.1899 46.1245 50.1899 45.4695C50.1899 44.8146 50.4408 44.1864 50.8873 43.7233C51.3338 43.2602 51.9394 43 52.5709 43Z" fill="#9C171E"/>
<path d="M20.1905 48.9268C20.804 48.9269 21.3939 49.1726 21.837 49.6127C22.2802 50.0528 22.5424 50.6534 22.569 51.2892L22.5714 51.3963V51.8902C22.5715 52.1395 22.4808 52.3795 22.3174 52.5622C22.154 52.745 21.9301 52.8569 21.6905 52.8756L21.619 52.878H14.9524C14.7121 52.8781 14.4807 52.784 14.3045 52.6146C14.1283 52.4451 14.0204 52.2128 14.0024 51.9643L14 51.8902V51.3963C14 50.76 14.2369 50.1482 14.6613 49.6885C15.0856 49.2289 15.6646 48.9569 16.2776 48.9293L16.381 48.9268H20.1905ZM18.2857 43C18.9172 43 19.5228 43.2602 19.9693 43.7233C20.4158 44.1864 20.6667 44.8146 20.6667 45.4695C20.6667 46.1245 20.4158 46.7526 19.9693 47.2157C19.5228 47.6788 18.9172 47.939 18.2857 47.939C17.6542 47.939 17.0486 47.6788 16.6021 47.2157C16.1556 46.7526 15.9048 46.1245 15.9048 45.4695C15.9048 44.8146 16.1556 44.1864 16.6021 43.7233C17.0486 43.2602 17.6542 43 18.2857 43Z" fill="#9C171E"/>
<path d="M18.2852 37.7561V27.8781H25.7852" stroke="#9C171E" stroke-width="2" stroke-linecap="round" stroke-linejoin="round"/>
<path d="M52.5723 37.7561V27.8781H45.0723" stroke="#9C171E" stroke-width="2" stroke-linecap="round" stroke-linejoin="round"/>
<path d="M35.4287 38.3048V35.5609" stroke="#9C171E" stroke-width="2" stroke-linecap="round" stroke-linejoin="round"/>
</svg>
