<svg width="70" height="70" viewBox="0 0 70 70" fill="none" xmlns="http://www.w3.org/2000/svg">
<path d="M48.6152 57.141C47.3147 56.581 46.132 55.7799 45.1296 54.78C44.1241 53.7803 43.3198 52.5971 42.7601 51.2944C41.649 48.6697 41.6186 45.7126 42.6755 43.0656C43.1786 41.8222 43.9041 40.6809 44.8165 39.6977C45.7261 38.7162 46.8029 37.9042 47.9966 37.2994C49.2124 36.6839 50.5361 36.3103 51.8943 36.1993V47.1715C51.8916 47.2949 51.9079 47.4179 51.9426 47.5363C51.9856 47.6523 52.0575 47.7554 52.1516 47.8358L59.8607 55.3952C58.8801 56.2233 57.7635 56.8755 56.5604 57.3229C55.3655 57.7711 54.0997 58.0005 52.8235 57.9999C51.3765 58.007 49.9437 57.7145 48.6152 57.141ZM53.3321 36.1646C54.4733 36.2158 55.5983 36.4545 56.662 36.8712C57.7476 37.2917 58.762 37.8768 59.6695 38.606C60.5725 39.3282 61.3506 40.1939 61.9729 41.1684L53.3321 46.1332V36.1646ZM62.9952 51.016C62.5125 52.2458 61.8106 53.3778 60.9236 54.3569L53.9312 47.4499L62.6795 42.4174C63.0316 43.1294 63.2975 43.8808 63.4716 44.6557C63.656 45.4492 63.7494 46.2612 63.75 47.0759C63.7528 48.4255 63.4965 49.763 62.9952 51.016ZM38.5299 52.8142H38.4012V48.6677H38.9885C38.8505 47.5184 38.8556 46.3563 39.0037 45.2083H11.0063C10.5335 45.2083 10.1575 45.0673 9.87826 44.7852C9.59901 44.5031 9.45797 44.1271 9.45515 43.6572V18.0063C9.45515 17.52 9.59619 17.1403 9.87826 16.8673C10.1603 16.5942 10.5363 16.458 11.0063 16.4585H52.2176C52.6909 16.4585 53.0669 16.5945 53.3456 16.8664C53.6243 17.1383 53.7653 17.518 53.7687 18.0054V33.0683C54.9455 33.1437 56.108 33.3684 57.2281 33.7368V17.942C57.2281 16.3951 56.7875 15.1847 55.9063 14.3108C55.0251 13.4369 53.8122 13 52.2675 13H10.942C9.40861 13 8.2016 13.4369 7.32096 14.3108C6.44032 15.1847 6 16.3951 6 17.942V43.7071C6 45.254 6.44032 46.4669 7.32096 47.3459C8.2016 48.2248 9.40861 48.6654 10.942 48.6677H24.8201V52.8142H24.6915C24.4636 52.812 24.2376 52.8558 24.027 52.943C23.8164 53.0303 23.6257 53.1591 23.4661 53.3219C23.3029 53.4836 23.1733 53.6761 23.0849 53.8881C22.9965 54.1002 22.9509 54.3277 22.9509 54.5574C22.9509 54.7872 22.9965 55.0147 23.0849 55.2267C23.1733 55.4388 23.3029 55.6312 23.4661 55.7929C23.6257 55.9557 23.8164 56.0846 24.027 56.1718C24.2376 56.2591 24.4636 56.3029 24.6915 56.3006H38.5299C38.7562 56.3034 38.9807 56.2598 39.1896 56.1725C39.3984 56.0851 39.5872 55.956 39.7442 55.7929C40.0675 55.463 40.2486 55.0194 40.2486 54.5574C40.2486 54.0954 40.0675 53.6519 39.7442 53.3219C39.5873 53.1587 39.3985 53.0295 39.1897 52.9422C38.9808 52.8548 38.7562 52.8113 38.5299 52.8142ZM18.7594 39.4632C18.6635 39.5561 18.5873 39.6673 18.5352 39.7902C18.4832 39.9131 18.4563 40.0452 18.4563 40.1787C18.4563 40.3122 18.4832 40.4443 18.5352 40.5673C18.5873 40.6902 18.6635 40.8014 18.7594 40.8942C18.8518 40.9871 18.9619 41.0606 19.0831 41.1105C19.2042 41.1603 19.3342 41.1855 19.4652 41.1845H40.1555C40.4786 40.4815 40.8593 39.8065 41.2936 39.1662H19.461C19.3301 39.1661 19.2005 39.1923 19.08 39.2434C18.9594 39.2944 18.8504 39.3692 18.7594 39.4632ZM23.3248 37.3375C23.6633 37.3375 23.9302 37.245 24.1254 37.06C24.3206 36.8749 24.4196 36.6185 24.4224 36.2907V25.8601C24.4224 25.5318 24.3234 25.2731 24.1254 25.0841C23.9273 24.8951 23.6605 24.8006 23.3248 24.8006H20.5737C20.2285 24.8006 19.9571 24.8951 19.7597 25.0841C19.5622 25.2731 19.4635 25.5318 19.4635 25.8601V36.2907C19.4635 36.6191 19.5622 36.8755 19.7597 37.06C19.9571 37.2444 20.2285 37.337 20.5737 37.3375H23.3248ZM42.6349 27.4493H39.8855C39.5403 27.4493 39.2689 27.5438 39.0714 27.7328C38.874 27.9218 38.7753 28.1805 38.7753 28.5088V36.2941C38.7753 36.6225 38.874 36.8789 39.0714 37.0633C39.2689 37.2478 39.5403 37.3403 39.8855 37.3409H42.6349C42.6857 37.3409 42.7339 37.3409 42.7822 37.3341C43.0859 37.0168 43.4058 36.7147 43.7384 36.427C43.7384 36.3838 43.7452 36.3424 43.7452 36.2941V28.5088C43.7524 28.3654 43.7291 28.2221 43.6769 28.0883C43.6247 27.9546 43.5447 27.8334 43.4422 27.7328C43.2204 27.5367 42.9307 27.435 42.6349 27.4493ZM29.757 37.3375C30.0955 37.3375 30.3646 37.245 30.5643 37.06C30.764 36.8749 30.865 36.6185 30.8673 36.2907V20.3986C30.8673 20.0708 30.7663 19.8144 30.5643 19.6294C30.3623 19.4443 30.0932 19.3518 29.757 19.3518H27.0051C26.6604 19.3518 26.3893 19.4443 26.1918 19.6294C25.9944 19.8144 25.8957 20.0708 25.8957 20.3986V36.2907C25.8957 36.6191 25.9944 36.8755 26.1918 37.06C26.3893 37.2444 26.6604 37.337 27.0051 37.3375H29.757ZM36.2027 37.3375C36.5412 37.3375 36.8081 37.245 37.0033 37.06C37.1985 36.8749 37.2972 36.6185 37.2994 36.2907V23.1234C37.2994 22.7849 37.2007 22.5243 37.0033 22.3415C36.8058 22.1587 36.539 22.0662 36.2027 22.0639H33.4406C33.1021 22.0639 32.835 22.1565 32.6393 22.3415C32.4435 22.5266 32.3448 22.7872 32.3431 23.1234V36.2907C32.3431 36.6191 32.4418 36.8755 32.6393 37.06C32.8367 37.2444 33.1038 37.337 33.4406 37.3375H36.2027Z" fill="#9C171E"/>
</svg>
