<svg width="70" height="70" viewBox="0 0 70 70" fill="none" xmlns="http://www.w3.org/2000/svg">
<path d="M13 13V58H58" stroke="#9C171E" stroke-width="2" stroke-linecap="round" stroke-linejoin="round"/>
<path d="M18 45C18 43.8954 18.8954 43 20 43H23.5C24.6046 43 25.5 43.8954 25.5 45V57.5C25.5 57.7761 25.2761 58 25 58H18.5C18.2239 58 18 57.7761 18 57.5V45Z" fill="#9C171E"/>
<rect x="18" y="35.5" width="5" height="5" rx="2.5" fill="#9C171E"/>
<rect x="29" y="23" width="5" height="5" rx="2.5" fill="#9C171E"/>
<rect x="40" y="27" width="5" height="5" rx="2.5" fill="#9C171E"/>
<rect x="49" y="15" width="5" height="5" rx="2.5" fill="#9C171E"/>
<path d="M28.0005 35C28.0005 33.8954 28.8959 33 30.0005 33H33.5005C34.6051 33 35.5005 33.8954 35.5005 35V57.5C35.5005 57.7761 35.2766 58 35.0005 58H28.5005C28.2243 58 28.0005 57.7761 28.0005 57.5V35Z" fill="#9C171E"/>
<path d="M38 42.5C38 41.3954 38.8954 40.5 40 40.5H43.5C44.6046 40.5 45.5 41.3954 45.5 42.5V57.5C45.5 57.7761 45.2761 58 45 58H38.5C38.2239 58 38 57.7761 38 57.5V42.5Z" fill="#9C171E"/>
<path d="M48.0005 27.5C48.0005 26.3954 48.8959 25.5 50.0005 25.5H53.5005C54.6051 25.5 55.5005 26.3954 55.5005 27.5V57C55.5005 57.5523 55.0528 58 54.5005 58H49.0005C48.4482 58 48.0005 57.5523 48.0005 57V27.5Z" fill="#9C171E"/>
<path d="M21.75 36.75L31.75 25.5L41.75 30.5L51.75 16.75" stroke="#9C171E" stroke-linecap="round" stroke-linejoin="round"/>
</svg>
