<svg width="70" height="70" viewBox="0 0 70 70" fill="none" xmlns="http://www.w3.org/2000/svg">
<path d="M13 42.2002C13 45.6761 14.7753 47.3953 18.1765 47.3953H29.5947L29.0901 50.7778H27.1092C26.1748 50.7778 25.4086 51.5627 25.4086 52.4971C25.4086 53.4128 26.1748 54.1977 27.1092 54.1977H44.0216C44.9747 54.1977 45.7409 53.4128 45.7409 52.4971C45.7409 51.5627 44.9747 50.7778 44.0216 50.7778H41.8912L41.4053 47.3953H52.8048C56.206 47.3953 58 45.6761 58 42.2002V21.1765C58 17.7193 56.206 16 52.8048 16H18.1765C14.7753 16 13 17.7193 13 21.1765V42.2002ZM16.6441 41.9759V21.4194C16.6441 20.13 17.186 19.6441 18.4194 19.6441H52.5619C53.7953 19.6441 54.3559 20.13 54.3559 21.4194V41.9759C54.3559 43.2467 53.7953 43.7512 52.5619 43.7512H18.4194C17.186 43.7512 16.6441 43.2467 16.6441 41.9759Z" fill="#9C171E"/>
<path d="M42.2819 32.06C42.5944 31.619 42.7674 31.0786 42.7674 30.5164C42.7674 29.6244 42.3005 28.78 41.5488 28.3092C41.3553 28.188 41.135 28.1242 40.9107 28.1244H36.4493L36.5609 25.6828C36.587 25.0928 36.3916 24.5326 36.0121 24.1054C35.8258 23.8949 35.6011 23.7274 35.3518 23.6133C35.1026 23.4991 34.834 23.4408 34.5628 23.4419C33.5954 23.4419 32.7395 24.1372 32.4828 25.1325L30.8847 31.311H30.8791V39.814H39.666C39.8372 39.814 40.0047 39.7782 40.1591 39.7067C41.0447 39.3034 41.6158 38.3796 41.6158 37.3545C41.6158 37.1041 41.5823 36.8578 41.5154 36.6194C41.8279 36.1784 42.0009 35.638 42.0009 35.0758C42.0009 34.8254 41.9674 34.5791 41.9005 34.3407C42.213 33.8997 42.386 33.3593 42.386 32.7971C42.3823 32.5467 42.3488 32.2984 42.2819 32.06ZM27.8837 31.9468V39.1782C27.8837 39.5299 28.1498 39.814 28.4791 39.814H29.6884V31.311H28.4791C28.1498 31.311 27.8837 31.5951 27.8837 31.9468Z" fill="#9C171E"/>
</svg>
