<svg width="70" height="70" viewBox="0 0 70 70" fill="none" xmlns="http://www.w3.org/2000/svg">
<path d="M19.5102 20.5278C19.6977 20.2104 19.9479 20.0471 20.3587 19.9564L20.6267 19.902L20.6535 21.072C20.6624 21.725 20.6624 22.2692 20.6356 22.2873C20.6178 22.3145 20.3766 22.2238 20.0997 22.0878C19.3494 21.725 19.135 21.1536 19.5102 20.5278Z" fill="#9C171E"/>
<path d="M21.5645 25.5776C21.5644 26.3456 21.5644 26.6676 21.6927 26.7424C21.7854 26.7963 21.945 26.7214 22.2199 26.5925L22.2523 26.5773C22.6542 26.3959 22.9936 25.9515 22.9936 25.5978C22.9936 25.108 22.4577 24.5639 21.7699 24.3553L21.5645 24.3008L21.5645 25.5776Z" fill="#9C171E"/>
<path fill-rule="evenodd" clip-rule="evenodd" d="M13.2398 14.5418C13.615 13.8163 14.3206 13.263 15.1067 13.0726C15.2942 13.0272 18.9119 13 23.1726 13L30.8992 13.0181L30.9439 18.5566C30.9885 24.074 30.9886 24.0833 31.1939 24.6C31.8281 26.1872 33.0965 27.2756 34.6508 27.5658C34.9902 27.6293 36.9643 27.6656 40.2514 27.6656H45.325V34.4832C44.2657 34.729 43.2388 35.1202 42.2709 35.6487C40.8119 36.4453 39.5155 37.5385 38.4555 38.8656C38.4192 38.911 38.3833 38.9567 38.3476 39.0026H37.7325V39.8635C37.0251 40.9422 36.4721 42.1283 36.0933 43.3836C35.5936 45.0392 35.4069 46.7829 35.5437 48.5149C35.6805 50.2469 36.1382 51.9335 36.8906 53.4782C37.643 55.023 38.6753 56.3957 39.9288 57.518C39.9407 57.5287 39.9526 57.5394 39.9646 57.55H15.0888L14.5886 57.3142C13.9455 57.0058 13.3916 56.4163 13.1683 55.7996C12.9897 55.3189 12.9897 55.1375 13.0076 35.1208L13.0344 14.9228L13.2398 14.5418ZM22.1275 18.5053L21.5648 18.3874V17.689H20.6716V18.0427C20.6716 18.3861 20.6627 18.3874 20.2827 18.4412L20.2785 18.4418C18.4206 18.7048 17.2772 20.3101 17.7596 21.988C18.0186 22.895 18.769 23.4936 20.1713 23.9017L20.6716 24.0468V26.7586L20.4304 26.7042C19.8766 26.5682 19.3228 26.3051 18.8047 25.9424C18.501 25.7247 18.2419 25.5705 18.233 25.5886C18.2265 25.5952 18.1939 25.6356 18.1426 25.699C18.053 25.8098 17.9064 25.9912 17.7417 26.1872L17.2772 26.7405L17.6077 27.0216C18.2777 27.584 19.2602 28.0102 20.4304 28.2551C20.6537 28.3005 20.6716 28.3277 20.6716 28.7993V29.2981H21.5648V28.3277L22.1097 28.2188C22.8243 28.0737 23.3423 27.8379 23.7443 27.4842C24.7001 26.6226 24.9323 25.1261 24.2624 24.0468C23.9587 23.557 23.119 23.0129 22.2169 22.7408L21.5648 22.5503V19.9383L21.8596 20.0018C22.0114 20.029 22.458 20.2104 22.8421 20.4008L23.5299 20.7364L23.9498 20.1106L24.3785 19.4939L24.1552 19.3125C23.8158 19.0585 22.7528 18.6232 22.1275 18.5053ZM39.3403 32.6539C39.3403 32.3455 39.2867 32.2004 39.0991 32.0009C38.9026 31.7923 38.7865 31.7469 38.456 31.7469H38.054L35.3028 34.5313L32.5517 37.3247L30.1131 34.8578C28.7822 33.5064 27.5942 32.3546 27.487 32.3002C27.3798 32.2457 27.1565 32.2004 26.9957 32.2004C26.7277 32.2004 26.3258 32.5813 22.2169 36.7624C18.1616 40.871 17.7239 41.3426 17.7239 41.6056C17.7239 42.0047 17.8757 42.304 18.1705 42.4763C18.4653 42.6577 18.7243 42.6667 19.0012 42.5307C19.1084 42.4763 20.9753 40.6261 23.1458 38.4312L27.1029 34.4225L29.6308 36.9892L32.1586 39.5468H32.9536L36.1425 36.2999L39.3403 33.062V32.6539ZM23.6193 53.8768H27.6388V43.7188H23.6193V53.8768ZM16.652 53.8768H20.5822V45.5327H16.652V53.8768ZM30.6759 53.8768H34.6954V48.5257H30.6759V53.8768Z" fill="#9C171E"/>
<path d="M32.7473 18.493L32.7205 13.2358L32.9974 13.3809C33.1492 13.4625 34.239 14.4874 35.427 15.6755C38.464 18.7138 45.0561 25.5432 45.0561 25.6611C45.0561 25.7337 43.5197 25.7609 39.9378 25.7609H34.8106L34.2658 25.4798C33.6762 25.1805 33.2921 24.7814 32.9706 24.1284C32.7742 23.7206 32.7741 23.684 32.7473 18.493Z" fill="#9C171E"/>
<path d="M56.2687 41.558C56.2792 41.7308 56.2108 41.8923 56.1213 42.0428C55.9317 42.3771 55.7526 42.7169 55.5525 43.0401C55.4682 43.1794 55.4472 43.2908 55.5262 43.4468C55.7157 43.8146 55.8632 44.199 55.9738 44.6002C56.0159 44.7506 56.0897 44.8063 56.2213 44.8397C56.5952 44.9345 56.9691 45.0292 57.343 45.135C57.7749 45.2521 57.996 45.5474 57.996 46.0154C58.0013 46.9458 58.0013 47.8707 57.996 48.8012C57.996 49.2859 57.7749 49.5757 57.3272 49.6982C56.9639 49.7985 56.6005 49.8932 56.2318 49.9824C56.0949 50.0158 56.0107 50.0827 55.9685 50.2387C55.8579 50.6398 55.7052 51.0243 55.5209 51.392C55.4577 51.5257 55.4577 51.6205 55.5314 51.7486C55.7368 52.094 55.9369 52.4451 56.1265 52.7961C56.353 53.2139 56.3161 53.5705 56.0001 53.9104C55.384 54.5679 54.7626 55.2253 54.1411 55.8828C53.8146 56.2282 53.4776 56.2672 53.0721 56.0109C52.7456 55.8103 52.4243 55.6042 52.1031 55.3925C51.9872 55.3145 51.8977 55.2977 51.766 55.3758C51.4132 55.5763 51.0393 55.7379 50.6496 55.8605C50.5074 55.9051 50.4547 55.9831 50.4231 56.1224C50.3389 56.5124 50.2441 56.8968 50.1546 57.2813C50.0387 57.7716 49.7649 58 49.2909 58C48.4325 58 47.5688 58 46.7104 58C46.2207 58 45.9573 57.7771 45.831 57.2645C45.7414 56.8857 45.6466 56.5124 45.5676 56.1335C45.536 55.9831 45.4676 55.8995 45.3201 55.8549C44.941 55.7379 44.5776 55.5763 44.23 55.3813C44.1036 55.3089 44.0088 55.32 43.893 55.398C43.5665 55.6153 43.2347 55.8215 42.9029 56.0276C42.5079 56.2672 42.1762 56.2282 41.8549 55.8939C41.2335 55.242 40.6121 54.5846 39.9959 53.9271C39.6694 53.5817 39.6325 53.2251 39.8748 52.7961C40.0644 52.4506 40.2592 52.1108 40.4594 51.7709C40.5278 51.6483 40.5489 51.5536 40.4804 51.4143C40.2908 51.041 40.1381 50.6454 40.0222 50.2387C39.9801 50.0882 39.9064 50.027 39.7747 49.9991C39.4061 49.91 39.0427 49.8152 38.6793 49.7149C38.2159 49.5924 38 49.3026 38 48.8012C38 47.893 38 46.9793 38 46.0711C38 45.5473 38.2106 45.2743 38.6951 45.1462C39.0427 45.0515 39.3903 44.9568 39.7379 44.8732C39.8853 44.8398 39.9801 44.7785 40.0275 44.6057C40.1381 44.2046 40.2908 43.8201 40.4751 43.4524C40.5436 43.3187 40.5383 43.224 40.4646 43.0958C40.2592 42.7504 40.0644 42.3994 39.8695 42.0483C39.6325 41.6138 39.6694 41.2572 39.9854 40.9173C40.6015 40.2598 41.223 39.6024 41.8444 38.9449C42.1762 38.5995 42.5079 38.5605 42.9134 38.8112C43.2399 39.0118 43.5612 39.2124 43.8824 39.4297C44.0088 39.5188 44.1141 39.5132 44.2405 39.4408C44.5881 39.2402 44.9515 39.0842 45.3307 38.9672C45.4676 38.9226 45.5308 38.8446 45.5571 38.7054C45.6466 38.3098 45.7362 37.9142 45.831 37.5186C45.9415 37.0617 46.2207 36.8277 46.663 36.8277C47.5425 36.8221 48.4167 36.8221 49.2962 36.8277C49.7543 36.8277 50.0282 37.0617 50.144 37.5353C50.2336 37.9142 50.3231 38.2875 50.4073 38.6664C50.4389 38.8224 50.4916 38.9171 50.6601 38.9672C51.0288 39.0842 51.3869 39.2347 51.7239 39.4352C51.8766 39.5244 51.9872 39.5021 52.1294 39.4074C52.4349 39.1957 52.7561 39.0007 53.0721 38.8056C53.4618 38.5661 53.8041 38.6051 54.1201 38.9394C54.752 39.5968 55.3734 40.2654 56.0001 40.9284C56.1792 41.1012 56.274 41.3017 56.2687 41.558ZM51.6818 47.425C51.687 45.2743 50.044 43.5248 48.0217 43.5137C45.9784 43.5026 44.3143 45.2465 44.309 47.4027C44.3037 49.5534 45.9468 51.3029 47.9691 51.314C50.0124 51.3252 51.6765 49.5812 51.6818 47.425Z" fill="#9C171E"/>
</svg>
