<svg width="70" height="70" viewBox="0 0 70 70" fill="none" xmlns="http://www.w3.org/2000/svg">
<path fill-rule="evenodd" clip-rule="evenodd" d="M37.3334 42.3359C37.3334 41.548 37.4886 40.7678 37.7901 40.0398C38.0917 39.3119 38.5336 38.6504 39.0908 38.0933C39.6479 37.5361 40.3094 37.0942 41.0373 36.7927C41.7653 36.4911 42.5455 36.3359 43.3334 36.3359C44.1213 36.3359 44.9016 36.4911 45.6295 36.7927C46.3575 37.0942 47.0189 37.5361 47.5761 38.0933C48.1332 38.6504 48.5752 39.3119 48.8767 40.0398C49.1782 40.7678 49.3334 41.548 49.3334 42.3359C49.3334 43.9272 48.7013 45.4534 47.5761 46.5786C46.4508 47.7038 44.9247 48.3359 43.3334 48.3359C41.7421 48.3359 40.216 47.7038 39.0908 46.5786C37.9656 45.4534 37.3334 43.9272 37.3334 42.3359V42.3359ZM43.3334 32.3359C41.7741 32.3361 40.2364 32.7009 38.8432 33.4013C37.45 34.1016 36.2398 35.1181 35.3095 36.3694C34.3791 37.6208 33.7542 39.0724 33.4848 40.6083C33.2154 42.1442 33.309 43.7218 33.7579 45.2151C34.2069 46.7084 34.9988 48.076 36.0705 49.2087C37.1422 50.3414 38.464 51.2078 39.9302 51.7386C41.3964 52.2695 42.9664 52.4501 44.5148 52.266C46.0632 52.082 47.5472 51.5384 48.8481 50.6786L55.2521 57.0839C55.6273 57.4591 56.1361 57.6699 56.6668 57.6699C57.1974 57.6699 57.7062 57.4591 58.0814 57.0839C58.4566 56.7087 58.6674 56.1999 58.6674 55.6693C58.6674 55.1387 58.4566 54.6298 58.0814 54.2546L51.6761 47.8506C52.6725 46.3434 53.2419 44.5944 53.3238 42.7895C53.4058 40.9846 52.9972 39.1912 52.1415 37.6C51.2858 36.0087 50.015 34.6789 48.4641 33.7521C46.9132 32.8252 45.1402 32.3358 43.3334 32.3359V32.3359Z" fill="#9C171E"/>
<path d="M14.5102 15.5278C14.6977 15.2104 14.9479 15.0471 15.3587 14.9564L15.6267 14.902L15.6535 16.072C15.6624 16.725 15.6624 17.2692 15.6356 17.2873C15.6178 17.3145 15.3766 17.2238 15.0997 17.0878C14.3494 16.725 14.135 16.1536 14.5102 15.5278Z" fill="#9C171E"/>
<path d="M16.5645 20.5776C16.5644 21.3456 16.5644 21.6676 16.6927 21.7424C16.7854 21.7963 16.945 21.7214 17.2199 21.5925L17.2523 21.5773C17.6542 21.3959 17.9936 20.9515 17.9936 20.5978C17.9936 20.108 17.4577 19.5639 16.7699 19.3553L16.5645 19.3008L16.5645 20.5776Z" fill="#9C171E"/>
<path fill-rule="evenodd" clip-rule="evenodd" d="M8.2398 9.54184C8.61496 8.81627 9.32062 8.26302 10.1067 8.07256C10.2942 8.02721 13.9119 8 18.1726 8L25.8992 8.01814L25.9439 13.5566C25.9885 19.074 25.9886 19.0833 26.1939 19.6C26.8281 21.1872 28.0965 22.2756 29.6508 22.5658C29.9902 22.6293 31.9643 22.6656 35.2514 22.6656H40.325V29.4832C39.2657 29.729 38.2388 30.1202 37.2709 30.6487C35.8119 31.4453 34.5155 32.5385 33.4555 33.8656C33.4192 33.911 33.3833 33.9567 33.3476 34.0026H32.7325V34.8635C32.0251 35.9422 31.4721 37.1283 31.0933 38.3836C30.5936 40.0392 30.4069 41.7829 30.5437 43.5149C30.6805 45.2469 31.1382 46.9335 31.8906 48.4782C32.643 50.023 33.6753 51.3957 34.9288 52.518C34.9407 52.5287 34.9526 52.5394 34.9646 52.55H10.0888L9.58859 52.3142C8.94546 52.0058 8.39165 51.4163 8.16834 50.7996C7.98969 50.3189 7.98969 50.1375 8.00755 30.1208L8.03435 9.92276L8.2398 9.54184ZM17.1275 13.5053L16.5648 13.3874V12.689H15.6716V13.0427C15.6716 13.3861 15.6627 13.3874 15.2827 13.4412L15.2785 13.4418C13.4206 13.7048 12.2772 15.3101 12.7596 16.988C13.0186 17.895 13.769 18.4936 15.1713 18.9017L15.6716 19.0468V21.7586L15.4304 21.7042C14.8766 21.5682 14.3228 21.3051 13.8047 20.9424C13.501 20.7247 13.2419 20.5705 13.233 20.5886C13.2265 20.5952 13.1939 20.6356 13.1426 20.699C13.053 20.8098 12.9064 20.9912 12.7417 21.1872L12.2772 21.7405L12.6077 22.0216C13.2777 22.584 14.2602 23.0102 15.4304 23.2551C15.6537 23.3005 15.6716 23.3277 15.6716 23.7993V24.2981H16.5648V23.3277L17.1097 23.2188C17.8243 23.0737 18.3423 22.8379 18.7443 22.4842C19.7001 21.6226 19.9323 20.1261 19.2624 19.0468C18.9587 18.557 18.119 18.0129 17.2169 17.7408L16.5648 17.5503V14.9383L16.8596 15.0018C17.0114 15.029 17.458 15.2104 17.8421 15.4008L18.5299 15.7364L18.9498 15.1106L19.3785 14.4939L19.1552 14.3125C18.8158 14.0585 17.7528 13.6232 17.1275 13.5053ZM34.3403 27.6539C34.3403 27.3455 34.2867 27.2004 34.0991 27.0009C33.9026 26.7923 33.7865 26.7469 33.456 26.7469H33.054L30.3028 29.5313L27.5517 32.3247L25.1131 29.8578C23.7822 28.5064 22.5942 27.3546 22.487 27.3002C22.3798 27.2457 22.1565 27.2004 21.9957 27.2004C21.7277 27.2004 21.3258 27.5813 17.2169 31.7624C13.1616 35.871 12.7239 36.3426 12.7239 36.6056C12.7239 37.0047 12.8757 37.304 13.1705 37.4763C13.4653 37.6577 13.7243 37.6667 14.0012 37.5307C14.1084 37.4763 15.9753 35.6261 18.1458 33.4312L22.1029 29.4225L24.6308 31.9892L27.1586 34.5468H27.9536L31.1425 31.2999L34.3403 28.062V27.6539ZM18.6193 48.8768H22.6388V38.7188H18.6193V48.8768ZM11.652 48.8768H15.5822V40.5327H11.652V48.8768ZM25.6759 48.8768H29.6954V43.5257H25.6759V48.8768Z" fill="#9C171E"/>
<path d="M27.7473 13.493L27.7205 8.23576L27.9974 8.38087C28.1492 8.4625 29.239 9.48737 30.427 10.6755C33.464 13.7138 40.0561 20.5432 40.0561 20.6611C40.0561 20.7337 38.5197 20.7609 34.9378 20.7609H29.8106L29.2658 20.4798C28.6762 20.1805 28.2921 19.7814 27.9706 19.1284C27.7742 18.7206 27.7741 18.684 27.7473 13.493Z" fill="#9C171E"/>
</svg>
