<svg width="70" height="70" viewBox="0 0 70 70" fill="none" xmlns="http://www.w3.org/2000/svg">
<path d="M20.0859 13.143C15.207 14.0249 11.7261 18.4066 12.017 23.2855C12.1296 25.0494 12.8332 27.2074 13.9685 29.2621C15.3665 31.7766 18.1156 35.2857 20.602 37.697C21.7279 38.8041 21.7654 38.8041 22.8913 37.697C26.1564 34.5163 29.1119 30.4537 30.463 27.3012C32.3019 23.0134 31.5982 18.8194 28.5396 15.7888C26.3534 13.6215 23.0883 12.5988 20.0859 13.143ZM22.7412 17.609C23.5387 17.7498 24.7021 18.3409 25.2932 18.9038C25.9218 19.5137 26.466 20.3487 26.7381 21.1463C27.029 22.0188 27.0384 23.3793 26.7475 24.3082C26.2502 25.8844 24.9554 27.198 23.3604 27.7515C22.4691 28.0518 21.0242 28.0518 20.1328 27.7515C16.408 26.4755 15.2915 21.8312 18.0405 19.0821C19.2978 17.8248 20.9866 17.29 22.7412 17.609Z" fill="#9C171E"/>
<path d="M32.6022 25.7451C31.8328 28.982 29.0837 33.3168 25.0023 37.689C23.5762 39.2184 22.9757 39.7344 22.3659 39.9314C21.9155 40.0722 21.2493 40.0159 20.7615 39.7813C20.1047 39.4717 17.2336 36.4505 15.6574 34.4145C15.329 33.9923 15.0381 33.6451 15.0194 33.6451C15.01 33.6451 14.9912 36.7695 14.9912 40.5882V47.5312H17.7591H20.5175L21.0429 47.1653C21.9999 46.4898 23.5105 46.03 24.749 46.03C25.9875 46.03 27.4981 46.4898 28.4551 47.1653L28.9805 47.5312H35.492H42.0128V37.248C42.0128 29.4418 41.9847 26.8616 41.9002 26.5707C41.7501 26.0547 40.9714 25.2759 40.4553 25.1258C40.1832 25.0508 39.0104 25.0132 36.4209 25.0132H32.7711L32.6022 25.7451Z" fill="#9C171E"/>
<path d="M43.7482 31.2526L43.5137 31.4778V39.5092V47.5312H44.0297C44.4707 47.5312 44.6114 47.4843 45.0618 47.1653C46.0188 46.4898 47.5294 46.03 48.7679 46.03C50.0064 46.03 51.5169 46.4898 52.474 47.1653L52.9994 47.5312H55.0072H57.0245V44.0879V40.6539L55.786 36.5162C54.3974 31.9 54.3223 31.7217 53.4685 31.2808L52.9712 31.018H48.4676H43.9734L43.7482 31.2526ZM51.7984 34.2269C51.9861 34.3957 52.2206 35.0713 52.9431 37.492C53.4497 39.1714 53.8532 40.6633 53.8532 40.8228C53.8438 41.001 53.7594 41.1793 53.5999 41.3106C53.3653 41.5171 53.2996 41.5264 51.2824 41.5264H49.2182L48.4489 40.7758L47.6795 40.0252H46.5724C45.5309 40.0252 45.4652 40.0159 45.2494 39.7907L45.0149 39.5655V37.0228V34.4802L45.2494 34.255L45.4746 34.0204H48.5239C51.5545 34.0204 51.5732 34.0204 51.7984 34.2269ZM47.7827 43.2622C47.9328 43.4029 48.0173 43.6 48.0173 43.7782C48.0173 43.9565 47.9328 44.1535 47.7827 44.2943C47.5669 44.5195 47.4919 44.5288 46.5161 44.5288C45.5403 44.5288 45.4652 44.5195 45.2494 44.2943C45.0993 44.1535 45.0149 43.9565 45.0149 43.7782C45.0149 43.6 45.0993 43.4029 45.2494 43.2622C45.4652 43.037 45.5403 43.0276 46.5161 43.0276C47.4919 43.0276 47.5669 43.037 47.7827 43.2622Z" fill="#9C171E"/>
<path d="M23.6699 47.6435C23.4165 47.6904 22.863 47.8968 22.4408 48.0939C21.1647 48.7131 20.2077 49.8296 19.7198 51.2839C19.4665 52.0439 19.4759 53.47 19.748 54.3332C20.2453 55.9095 21.54 57.2231 23.1351 57.7766C23.9607 58.0581 25.4713 58.0769 26.2501 57.8141C27.9295 57.2512 29.1774 56.0221 29.7403 54.3989C30.0218 53.5733 30.0406 52.0627 29.7779 51.2839C29.4776 50.402 29.0554 49.7077 28.4549 49.0978C27.2165 47.8405 25.4525 47.3057 23.6699 47.6435ZM25.4432 50.6459C25.9592 50.796 26.7379 51.5748 26.8881 52.0908C27.1226 52.8883 26.9256 53.714 26.3626 54.3239C26.0061 54.6992 25.2555 55.0369 24.7489 55.0369C23.8763 55.0369 22.8536 54.2863 22.6096 53.4513C22.3469 52.6069 22.544 51.8938 23.2007 51.237C23.8575 50.5709 24.5612 50.3926 25.4432 50.6459Z" fill="#9C171E"/>
<path d="M47.6894 47.6435C47.4361 47.6904 46.8825 47.8968 46.4603 48.0939C45.1843 48.7131 44.2273 49.8296 43.7394 51.2839C43.486 52.0439 43.4954 53.47 43.7675 54.3332C44.2648 55.9095 45.5596 57.2231 47.1546 57.7766C47.9803 58.0581 49.4908 58.0769 50.2696 57.8141C52.39 57.1011 53.8068 55.3372 53.9944 53.198C54.2853 49.7546 51.1515 46.9867 47.6894 47.6435ZM49.4627 50.6459C49.9787 50.796 50.7575 51.5748 50.9076 52.0908C51.1422 52.8883 50.9451 53.714 50.3822 54.3239C50.0256 54.6992 49.275 55.0369 48.7684 55.0369C47.8958 55.0369 46.8731 54.2863 46.6292 53.4513C46.3665 52.6069 46.5635 51.8938 47.2203 51.237C47.877 50.5709 48.5807 50.3926 49.4627 50.6459Z" fill="#9C171E"/>
<path d="M14.9912 51.0488C14.9912 53.0754 14.9912 53.0754 15.2258 53.3006C15.4416 53.5258 15.4979 53.5352 16.7082 53.5352H17.9655L18.0218 52.5688C18.0874 51.4053 18.2657 50.711 18.7348 49.754L19.0914 49.0316H17.046H14.9912V51.0488Z" fill="#9C171E"/>
<path d="M30.7628 49.754C31.2319 50.711 31.4102 51.4053 31.4759 52.5688L31.5322 53.5352H36.7582H41.9843L42.0406 52.5688C42.1062 51.4053 42.2845 50.711 42.7536 49.754L43.1102 49.0316H36.7582H30.4062L30.7628 49.754Z" fill="#9C171E"/>
<path d="M54.7823 49.754C55.2514 50.711 55.4297 51.4053 55.4954 52.5688L55.5517 53.5352H56.0583C56.4712 53.5352 56.6025 53.4882 56.7902 53.3006C57.0247 53.0754 57.0247 53.0754 57.0247 51.0488V49.0316H55.7206H54.4258L54.7823 49.754Z" fill="#9C171E"/>
</svg>
