<svg width="70" height="70" viewBox="0 0 70 70" fill="none" xmlns="http://www.w3.org/2000/svg">
<path d="M18.0616 12.2515L17.811 12.4921V25.4815V38.4609H20.9381H24.0652L27.6834 37.2582L31.3116 36.0555H36.7139C40.9635 36.0555 42.2565 36.0856 42.7676 36.1958C43.1284 36.276 44.722 36.8172 46.3257 37.3985L49.2222 38.4609H51.1566H53.091V25.4815V12.4921L52.8404 12.2515L52.5999 12.001H35.451H18.3021L18.0616 12.2515ZM41.0637 15.2082V16.01H35.451H29.8383V15.2082V14.4064H35.451H41.0637V15.2082ZM50.6856 19.2173V20.0191H35.451H20.2165V19.2173V18.4155H35.451H50.6856V19.2173ZM50.6856 22.4246V23.2264H35.451H20.2165V22.4246V21.6228H35.451H50.6856V22.4246ZM37.0547 25.6319V26.4337H28.6356H20.2165V25.6319V24.83H28.6356H37.0547V25.6319ZM29.8383 30.4428V31.2446H25.0274H20.2165V30.4428V29.6409H25.0274H29.8383V30.4428ZM50.6856 30.4428V31.2446H45.8747H41.0637V30.4428V29.6409H45.8747H50.6856V30.4428ZM26.631 33.65V34.4518H24.6265H22.6219V33.65V32.8482H24.6265H26.631V33.65ZM47.4783 33.65V34.4518H45.4737H43.4692V33.65V32.8482H45.4737H47.4783V33.65Z" fill="#9C171E"/>
<path d="M27.9339 38.8699L24.3758 40.0626H18.6929H13V44.4726V48.8826H16.949H20.8879L20.948 48.5218C21.0583 47.8302 21.4191 47.3091 22.5517 46.2066C23.7343 45.054 24.2154 44.7733 25.0273 44.7733C25.9093 44.7733 27.122 45.5451 27.2924 46.2166C27.3525 46.4672 27.3726 46.4672 27.9339 46.407C29.1666 46.2867 30.2691 46.9984 30.6099 48.151L30.7803 48.7423L31.3716 48.9127C32.1735 49.1532 32.7748 49.7546 33.0154 50.5564L33.1858 51.1478L33.7771 51.3182C34.5589 51.5487 35.1602 52.15 35.4108 52.9318C35.5712 53.4229 35.7315 53.6334 36.9543 54.8462C38.147 56.0288 38.3675 56.1992 38.6481 56.1992C39.0992 56.1992 39.5602 55.7382 39.5602 55.2872C39.5602 54.9965 39.3497 54.7459 37.6559 53.0421C36.6135 51.9897 35.7516 51.0977 35.7516 51.0576C35.7516 50.9573 36.7238 49.9851 36.824 49.9851C36.8641 49.9851 37.9365 51.0175 39.2094 52.2904C41.2841 54.355 41.5547 54.5956 41.8554 54.5956C42.3064 54.5956 42.7675 54.1345 42.7675 53.6835C42.7675 53.3828 42.4969 53.0822 40.0413 50.6166L37.3051 47.8804L37.8864 47.3091L38.4577 46.7277L41.5948 49.8649C44.4313 52.7013 44.762 52.9919 45.0627 52.9919C45.5137 52.9919 45.9748 52.5309 45.9748 52.0799C45.9748 51.7692 45.644 51.4184 42.2864 48.0507L38.598 44.3624L37.1548 45.5751C35.3406 47.0785 35.06 47.2289 33.9976 47.2289C33.3261 47.2289 33.1056 47.1888 32.6245 46.9482C31.1211 46.2066 30.5197 44.3824 31.2714 42.849C31.522 42.3278 31.7926 42.0772 34.2281 40.0526C35.7015 38.8298 36.9443 37.7875 36.9944 37.7474C37.0545 37.6973 35.8518 37.6572 34.2883 37.6672L31.4919 37.6772L27.9339 38.8699Z" fill="#9C171E"/>
<path d="M40.1611 37.8206C39.8604 37.9008 39.3493 38.1113 39.0285 38.2917C38.3069 38.6926 32.9848 43.1126 32.7343 43.5235C32.3634 44.1249 32.5839 45.037 33.1853 45.4278C33.5561 45.6784 34.1475 45.7285 34.5484 45.5481C34.7388 45.4579 35.7511 44.6761 36.8035 43.7941L38.7078 42.1905L39.2791 42.7217C40.9429 44.2652 43.208 44.3554 45.0021 42.9422C45.2125 42.7818 45.393 42.6616 45.413 42.6816C45.423 42.7017 45.6435 42.9823 45.9041 43.303L46.3752 43.8944L46.0845 44.1349C45.1925 44.8766 43.9898 45.3878 42.777 45.5281L42.1356 45.5982L44.1802 47.6429L46.2248 49.6875H47.7383C49.5023 49.6875 49.7328 49.6274 50.8353 48.8857C52.018 48.0839 52.028 48.0839 55.1551 48.0839H57.9013V44.0748V40.0757L53.3209 40.0456L48.7305 40.0156L45.9442 38.9832C44.4007 38.422 42.8973 37.8908 42.5866 37.8106C41.885 37.6201 40.8827 37.6302 40.1611 37.8206Z" fill="#9C171E"/>
<path d="M23.6039 47.4599C22.6718 48.392 22.5215 48.5824 22.5215 48.8731C22.5215 49.3241 22.9825 49.7852 23.4336 49.7852C23.7242 49.7852 23.9146 49.6348 24.8468 48.7027C25.7789 47.7706 25.9292 47.5802 25.9292 47.2895C25.9292 46.8385 25.4682 46.3774 25.0171 46.3774C24.7265 46.3774 24.5361 46.5278 23.6039 47.4599Z" fill="#9C171E"/>
<path d="M26.4106 49.4652C25.0976 50.7682 24.9272 50.9887 24.9272 51.2793C24.9272 51.7304 25.3883 52.1914 25.8393 52.1914C26.13 52.1914 26.3505 52.021 27.6534 50.708C28.9664 49.4051 29.1368 49.1846 29.1368 48.8939C29.1368 48.4429 28.6757 47.9819 28.2247 47.9819C27.9341 47.9819 27.7136 48.1522 26.4106 49.4652Z" fill="#9C171E"/>
<path d="M51.6175 50.2873C50.3747 51.0992 50.054 51.2094 48.6608 51.2596L47.4882 51.3097L47.5483 51.7908C47.7387 53.3844 46.3857 54.7274 44.772 54.567C44.2107 54.5069 44.1907 54.5069 44.1305 54.7575C44.0905 54.8978 43.87 55.2085 43.6294 55.439C43.0782 56.0003 42.3665 56.2509 41.5748 56.1707C41.0035 56.1105 41.0035 56.1105 40.8631 56.4313C40.793 56.6117 40.7128 56.7821 40.6827 56.8222C40.6627 56.8723 43.3388 56.9023 46.6262 56.9023H52.5997L52.8403 56.6518L53.0909 56.4112V53.0436V49.686H52.8202C52.6499 49.686 52.1688 49.9265 51.6175 50.2873Z" fill="#9C171E"/>
<path d="M28.8159 51.8715C27.5029 53.1744 27.3325 53.3949 27.3325 53.6856C27.3325 54.1366 27.7936 54.5977 28.2446 54.5977C28.5352 54.5977 28.7557 54.4273 30.0587 53.1143C31.3717 51.8113 31.5421 51.5908 31.5421 51.3002C31.5421 50.8492 31.081 50.3881 30.63 50.3881C30.3393 50.3881 30.1188 50.5585 28.8159 51.8715Z" fill="#9C171E"/>
<path d="M17.811 53.4445V56.4112L18.0616 56.6518L18.3021 56.9023H23.8748C26.9417 56.9023 29.4374 56.8723 29.4173 56.8222C29.3873 56.7821 29.3071 56.6117 29.2369 56.4313C29.0966 56.1105 29.0966 56.1105 28.5253 56.1707C27.3026 56.291 26.2001 55.5693 25.8593 54.4267L25.6889 53.8354L25.0976 53.665C24.2957 53.4245 23.6944 52.8231 23.4538 52.0113C23.2834 51.4199 23.2734 51.4199 22.7923 51.2896C22.5217 51.2195 22.1108 51.019 21.8602 50.8286L21.4192 50.4878H19.6151H17.811V53.4445Z" fill="#9C171E"/>
<path d="M31.622 53.8739C30.6899 54.8061 30.5396 54.9965 30.5396 55.2872C30.5396 55.7382 31.0006 56.1992 31.4516 56.1992C31.7423 56.1992 31.9327 56.0489 32.8648 55.1168C33.7969 54.1847 33.9473 53.9942 33.9473 53.7036C33.9473 53.2525 33.4862 52.7915 33.0352 52.7915C32.7445 52.7915 32.5541 52.9418 31.622 53.8739Z" fill="#9C171E"/>
<path d="M34.3987 55.9095L33.7974 56.5109L34.078 56.7615C34.4689 57.0922 34.8898 57.0822 35.2607 56.7114C35.6115 56.3606 35.6415 55.9396 35.3409 55.5588C35.2306 55.4184 35.1003 55.2982 35.0602 55.2982C35.0302 55.2982 34.7295 55.5688 34.3987 55.9095Z" fill="#9C171E"/>
</svg>
