<svg width="70" height="70" viewBox="0 0 70 70" fill="none" xmlns="http://www.w3.org/2000/svg">
<path d="M23.8333 13.0001C22.7455 13.0001 21.8636 13.8574 21.8636 14.915V15.5852C21.8636 16.6428 22.7455 17.5001 23.8333 17.5001H34.1742C35.2621 17.5001 36.1439 16.6428 36.1439 15.5852V14.915C36.1439 13.8574 35.2621 13.0001 34.1742 13.0001H23.8333Z" fill="#9C171E"/>
<path fill-rule="evenodd" clip-rule="evenodd" d="M17.9242 15.8724H19.8939C19.8939 17.9875 21.6576 19.7022 23.8333 19.7022H34.6666C36.8423 19.7022 38.606 17.9875 38.606 15.8724L40.5757 15.8724C43.2953 15.8724 45.4999 18.0157 45.4999 20.6596V35.7501C40.3477 36.7959 36.3463 41.0107 35.6185 46.2713H29.7425C29.0626 46.2713 28.5115 46.8071 28.5115 47.4681C28.5115 48.1291 29.0626 48.6649 29.7425 48.6649H35.5173C35.7173 52.481 37.6289 55.8438 40.4987 58H17.9242C15.2047 58 13 55.8567 13 53.2128V20.6596C13 18.0157 15.2047 15.8724 17.9242 15.8724ZM26.6735 27.2506C27.1543 26.7832 27.1543 26.0254 26.6735 25.558C26.1927 25.0906 25.4133 25.0906 24.9325 25.558L21.5822 28.8151L20.7644 28.02C20.2837 27.5526 19.5042 27.5526 19.0234 28.02C18.5427 28.4874 18.5427 29.2452 19.0234 29.7126L20.7117 31.3539C21.1925 31.8213 21.972 31.8213 22.4527 31.3539L26.6735 27.2506ZM28.5114 28.3192C28.5114 27.6582 29.0626 27.1224 29.7425 27.1224H38.6061C39.286 27.1224 39.8371 27.6582 39.8371 28.3192C39.8371 28.9802 39.286 29.516 38.6061 29.516H29.7425C29.0626 29.516 28.5114 28.9802 28.5114 28.3192ZM26.6736 36.825C27.1543 36.3576 27.1543 35.5999 26.6736 35.1325C26.1928 34.6651 25.4133 34.6651 24.9326 35.1325L21.5823 38.3895L20.7645 37.5945C20.2837 37.1271 19.5043 37.1271 19.0235 37.5945C18.5427 38.0619 18.5427 38.8196 19.0235 39.287L20.7118 40.9284C21.1926 41.3957 21.972 41.3957 22.4528 40.9284L26.6736 36.825ZM28.5115 37.8936C28.5115 37.2327 29.0626 36.6968 29.7425 36.6968H38.6061C39.286 36.6968 39.8372 37.2327 39.8372 37.8936C39.8372 38.5546 39.286 39.0904 38.6061 39.0904H29.7425C29.0626 39.0904 28.5115 38.5546 28.5115 37.8936ZM26.6736 46.3995C27.1543 45.9321 27.1543 45.1743 26.6736 44.7069C26.1928 44.2395 25.4133 44.2395 24.9326 44.7069L21.5823 47.964L20.7645 47.1689C20.2837 46.7015 19.5043 46.7015 19.0235 47.1689C18.5427 47.6363 18.5427 48.3941 19.0235 48.8615L20.7118 50.5028C21.1926 50.9702 21.972 50.9702 22.4528 50.5028L26.6736 46.3995Z" fill="#9C171E"/>
<path d="M23.1804 13.0805C23.0765 13.1151 22.9121 13.2623 22.8082 13.3921C22.6351 13.6085 22.6264 13.721 22.6264 15.305V16.9928L22.8688 17.2351C23.0333 17.3996 23.241 17.4948 23.5006 17.5381C23.7084 17.564 26.3916 17.5813 29.4643 17.564C34.6316 17.5381 35.0644 17.5294 35.2721 17.3823C35.6529 17.1313 35.6962 16.8976 35.6962 15.279C35.6962 14.0932 35.6702 13.7123 35.5664 13.5133C35.2894 12.9766 35.4885 12.9939 29.144 13.0026C25.9675 13.0026 23.2756 13.0372 23.1804 13.0805Z" fill="#9C171E"/>
<path d="M56.2686 42.4715C56.2792 42.6346 56.2107 42.7873 56.1212 42.9293C55.9316 43.2451 55.7525 43.566 55.5524 43.8712C55.4681 44.0028 55.4471 44.108 55.5261 44.2554C55.7157 44.6027 55.8631 44.9658 55.9737 45.3446C56.0158 45.4867 56.0896 45.5393 56.2212 45.5709C56.5951 45.6604 56.969 45.7498 57.3429 45.8498C57.7748 45.9603 57.996 46.2392 57.996 46.6812C58.0012 47.56 58.0012 48.4335 57.996 49.3123C57.996 49.7701 57.7748 50.0437 57.3271 50.1595C56.9638 50.2542 56.6004 50.3436 56.2318 50.4278C56.0948 50.4594 56.0106 50.5225 55.9684 50.6699C55.8578 51.0488 55.7051 51.4118 55.5208 51.7591C55.4576 51.8854 55.4576 51.9749 55.5313 52.0959C55.7367 52.4222 55.9368 52.7537 56.1264 53.0852C56.3529 53.4799 56.316 53.8166 56 54.1376C55.3839 54.7585 54.7625 55.3795 54.141 56.0004C53.8145 56.3267 53.4775 56.3635 53.072 56.1214C52.7455 55.932 52.4242 55.7373 52.103 55.5373C51.9871 55.4637 51.8976 55.4479 51.766 55.5215C51.4131 55.711 51.0392 55.8636 50.6495 55.9794C50.5073 56.0215 50.4547 56.0951 50.4231 56.2267C50.3388 56.595 50.244 56.9581 50.1545 57.3212C50.0386 57.7843 49.7648 58 49.2908 58C48.4324 58 47.5687 58 46.7103 58C46.2206 58 45.9573 57.7895 45.8309 57.3054C45.7414 56.9476 45.6466 56.595 45.5676 56.2372C45.536 56.0951 45.4675 56.0162 45.3201 55.9741C44.9409 55.8636 44.5775 55.711 44.2299 55.5268C44.1035 55.4584 44.0088 55.4689 43.8929 55.5426C43.5664 55.7478 43.2346 55.9425 42.9028 56.1372C42.5079 56.3635 42.1761 56.3267 41.8549 56.0109C41.2334 55.3953 40.612 54.7743 39.9959 54.1534C39.6694 53.8272 39.6325 53.4904 39.8747 53.0852C40.0643 52.7589 40.2592 52.438 40.4593 52.117C40.5278 52.0012 40.5488 51.9117 40.4804 51.7802C40.2908 51.4276 40.138 51.054 40.0222 50.6699C39.9801 50.5278 39.9063 50.4699 39.7747 50.4436C39.406 50.3594 39.0427 50.27 38.6793 50.1753C38.2159 50.0595 37.9999 49.7859 37.9999 49.3123C37.9999 48.4545 37.9999 47.5916 37.9999 46.7338C37.9999 46.2392 38.2106 45.9813 38.6951 45.8603C39.0427 45.7709 39.3902 45.6814 39.7378 45.6025C39.8853 45.5709 39.9801 45.513 40.0275 45.3499C40.138 44.971 40.2908 44.6079 40.4751 44.2606C40.5436 44.1343 40.5383 44.0449 40.4646 43.9239C40.2592 43.5976 40.0643 43.2661 39.8695 42.9346C39.6325 42.5241 39.6694 42.1874 39.9853 41.8664C40.6015 41.2455 41.2229 40.6245 41.8443 40.0036C42.1761 39.6773 42.5079 39.6405 42.9134 39.8773C43.2399 40.0667 43.5611 40.2562 43.8824 40.4614C44.0088 40.5456 44.1141 40.5403 44.2405 40.4719C44.588 40.2825 44.9514 40.1351 45.3306 40.0246C45.4675 39.9825 45.5307 39.9089 45.557 39.7773C45.6466 39.4037 45.7361 39.0301 45.8309 38.6565C45.9415 38.225 46.2206 38.004 46.663 38.004C47.5424 37.9987 48.4166 37.9987 49.2961 38.004C49.7542 38.004 50.0281 38.225 50.144 38.6723C50.2335 39.0301 50.323 39.3827 50.4073 39.7405C50.4389 39.8878 50.4915 39.9773 50.66 40.0246C51.0287 40.1351 51.3868 40.2772 51.7238 40.4667C51.8766 40.5509 51.9871 40.5298 52.1293 40.4403C52.4348 40.2404 52.756 40.0562 53.072 39.872C53.4617 39.6458 53.804 39.6826 54.12 39.9983C54.7519 40.6193 55.3734 41.2507 56 41.8769C56.1791 42.04 56.2739 42.2295 56.2686 42.4715ZM51.6817 48.0125C51.687 45.9813 50.0439 44.329 48.0216 44.3185C45.9783 44.308 44.3142 45.955 44.3089 47.9915C44.3037 50.0226 45.9467 51.6749 47.969 51.6855C50.0123 51.696 51.6764 50.049 51.6817 48.0125Z" fill="#9C171E"/>
</svg>
