<svg width="70" height="70" viewBox="0 0 70 70" fill="none" xmlns="http://www.w3.org/2000/svg">
<path d="M23.5402 12.0815C23.4326 12.1166 23.2624 12.2656 23.1549 12.3971C22.9756 12.6163 22.9667 12.7302 22.9667 14.3344V16.0438L23.2176 16.2893C23.3878 16.4559 23.6029 16.5523 23.8717 16.5961C24.0868 16.6224 26.8647 16.6399 30.0459 16.6224C35.3956 16.5961 35.8436 16.5873 36.0587 16.4383C36.453 16.1841 36.4978 15.9474 36.4978 14.3081C36.4978 13.1072 36.4709 12.7215 36.3633 12.5198C36.0766 11.9763 36.2827 11.9939 29.7143 12.0026C26.4256 12.0026 23.6387 12.0377 23.5402 12.0815Z" fill="#9C171E"/>
<path fill-rule="evenodd" clip-rule="evenodd" d="M13.1546 17.2273C13.5847 15.6144 14.893 14.4485 16.5598 14.1855C16.8107 14.1504 17.7157 14.1241 18.576 14.1329L20.1441 14.1417L20.1889 15.3689C20.2338 16.5085 20.2517 16.64 20.5115 17.166C21.0582 18.2881 22.1693 19.0945 23.4328 19.2699C24.1676 19.3751 35.2972 19.3751 36.032 19.2699C37.5285 19.0595 38.7651 17.9812 39.1504 16.5524C39.2221 16.2806 39.2758 15.6582 39.2758 15.0884V14.0978H40.7813C42.6541 14.0978 43.2545 14.1855 44.061 14.5624C45.0736 15.0358 45.7726 15.8072 46.2296 16.9556C46.3909 17.3676 46.3998 17.841 46.4267 26.5633L46.4328 28.6304H40C38.5555 28.6304 37.2898 29.3795 36.5867 30.5022C35.1329 30.4954 32.973 30.4963 29.7324 30.4993C24.1855 30.5081 19.938 30.5432 19.7767 30.587C19.6154 30.6308 19.3645 30.8062 19.2212 30.9727C18.6029 31.6565 18.791 32.6909 19.5975 33.0678C19.8753 33.1906 20.8521 33.2081 29.7324 33.2081H36V35.8473C34.5689 35.843 32.5628 35.844 29.7324 35.8467C24.1855 35.8555 19.938 35.8905 19.7767 35.9344C19.6154 35.9782 19.3645 36.1535 19.2212 36.3201C18.6029 37.0038 18.791 38.0383 19.5975 38.4152C19.8753 38.5379 20.8521 38.5555 29.7324 38.5555H36V41.19L29.132 41.2028L29.1012 41.2029C19.8214 41.2291 19.7496 41.2294 19.5079 41.4132C19.0419 41.7464 18.8896 42.0356 18.8896 42.5704C18.8896 42.9473 18.9434 43.1402 19.0867 43.3418C19.1484 43.4273 19.1904 43.4998 19.2453 43.5613C19.573 43.9286 20.3609 43.9028 28.5585 43.9028C31.7112 43.9028 34.4862 43.9144 36 43.9324V55.0435C36 55.6358 36.1345 56.1974 36.3754 56.7007L16.3805 56.6576L15.8698 56.4648C14.4539 55.9388 13.522 54.9395 13.1546 53.5719C12.9485 52.8093 12.9485 17.9812 13.1546 17.2273ZM39.9121 27.6679C40.8799 27.1419 40.7992 25.7656 39.7777 25.3098C39.4282 25.152 38.9891 25.1432 29.7324 25.152C24.1855 25.1607 19.938 25.1958 19.7767 25.2396C19.6154 25.2835 19.3645 25.4588 19.2212 25.6253C18.6029 26.3091 18.791 27.3435 19.5975 27.7205C19.8753 27.8432 20.8521 27.8607 29.7324 27.8607H39.5626L39.9121 27.6679Z" fill="#9C171E"/>
<path d="M38 33.8886C38 33.0129 38.3512 32.1732 38.9763 31.554C39.6014 30.9348 40.4493 30.587 41.3333 30.587H54.6667C55.5507 30.587 56.3986 30.9348 57.0237 31.554C57.6488 32.1732 58 33.0129 58 33.8886V53.6984C58 54.574 57.6488 55.4138 57.0237 56.033C56.3986 56.6521 55.5507 57 54.6667 57H41.3333C40.4493 57 39.6014 56.6521 38.9763 56.033C38.3512 55.4138 38 54.574 38 53.6984V33.8886ZM41.3333 34.714V38.0156C41.3333 38.2345 41.4211 38.4445 41.5774 38.5993C41.7337 38.7541 41.9457 38.841 42.1667 38.841H53.8333C54.0543 38.841 54.2663 38.7541 54.4226 38.5993C54.5789 38.4445 54.6667 38.2345 54.6667 38.0156V34.714C54.6667 34.4951 54.5789 34.2851 54.4226 34.1303C54.2663 33.9755 54.0543 33.8886 53.8333 33.8886H42.1667C41.9457 33.8886 41.7337 33.9755 41.5774 34.1303C41.4211 34.2851 41.3333 34.4951 41.3333 34.714ZM41.3333 41.3173V42.9681C41.3333 43.187 41.4211 43.3969 41.5774 43.5517C41.7337 43.7065 41.9457 43.7935 42.1667 43.7935H43.8333C44.0543 43.7935 44.2663 43.7065 44.4226 43.5517C44.5789 43.3969 44.6667 43.187 44.6667 42.9681V41.3173C44.6667 41.0983 44.5789 40.8884 44.4226 40.7336C44.2663 40.5788 44.0543 40.4918 43.8333 40.4918H42.1667C41.9457 40.4918 41.7337 40.5788 41.5774 40.7336C41.4211 40.8884 41.3333 41.0983 41.3333 41.3173ZM42.1667 45.4443C41.9457 45.4443 41.7337 45.5313 41.5774 45.6861C41.4211 45.8408 41.3333 46.0508 41.3333 46.2697V47.9205C41.3333 48.1394 41.4211 48.3494 41.5774 48.5042C41.7337 48.659 41.9457 48.7459 42.1667 48.7459H43.8333C44.0543 48.7459 44.2663 48.659 44.4226 48.5042C44.5789 48.3494 44.6667 48.1394 44.6667 47.9205V46.2697C44.6667 46.0508 44.5789 45.8408 44.4226 45.6861C44.2663 45.5313 44.0543 45.4443 43.8333 45.4443H42.1667ZM41.3333 51.2221V52.873C41.3333 53.0919 41.4211 53.3018 41.5774 53.4566C41.7337 53.6114 41.9457 53.6984 42.1667 53.6984H43.8333C44.0543 53.6984 44.2663 53.6114 44.4226 53.4566C44.5789 53.3018 44.6667 53.0919 44.6667 52.873V51.2221C44.6667 51.0032 44.5789 50.7933 44.4226 50.6385C44.2663 50.4837 44.0543 50.3967 43.8333 50.3967H42.1667C41.9457 50.3967 41.7337 50.4837 41.5774 50.6385C41.4211 50.7933 41.3333 51.0032 41.3333 51.2221ZM47.1667 40.4918C46.9457 40.4918 46.7337 40.5788 46.5774 40.7336C46.4211 40.8884 46.3333 41.0983 46.3333 41.3173V42.9681C46.3333 43.187 46.4211 43.3969 46.5774 43.5517C46.7337 43.7065 46.9457 43.7935 47.1667 43.7935H48.8333C49.0543 43.7935 49.2663 43.7065 49.4226 43.5517C49.5789 43.3969 49.6667 43.187 49.6667 42.9681V41.3173C49.6667 41.0983 49.5789 40.8884 49.4226 40.7336C49.2663 40.5788 49.0543 40.4918 48.8333 40.4918H47.1667ZM46.3333 46.2697V47.9205C46.3333 48.1394 46.4211 48.3494 46.5774 48.5042C46.7337 48.659 46.9457 48.7459 47.1667 48.7459H48.8333C49.0543 48.7459 49.2663 48.659 49.4226 48.5042C49.5789 48.3494 49.6667 48.1394 49.6667 47.9205V46.2697C49.6667 46.0508 49.5789 45.8408 49.4226 45.6861C49.2663 45.5313 49.0543 45.4443 48.8333 45.4443H47.1667C46.9457 45.4443 46.7337 45.5313 46.5774 45.6861C46.4211 45.8408 46.3333 46.0508 46.3333 46.2697ZM47.1667 50.3967C46.9457 50.3967 46.7337 50.4837 46.5774 50.6385C46.4211 50.7933 46.3333 51.0032 46.3333 51.2221V52.873C46.3333 53.0919 46.4211 53.3018 46.5774 53.4566C46.7337 53.6114 46.9457 53.6984 47.1667 53.6984H48.8333C49.0543 53.6984 49.2663 53.6114 49.4226 53.4566C49.5789 53.3018 49.6667 53.0919 49.6667 52.873V51.2221C49.6667 51.0032 49.5789 50.7933 49.4226 50.6385C49.2663 50.4837 49.0543 50.3967 48.8333 50.3967H47.1667ZM51.3333 41.3173V42.9681C51.3333 43.187 51.4211 43.3969 51.5774 43.5517C51.7337 43.7065 51.9457 43.7935 52.1667 43.7935H53.8333C54.0543 43.7935 54.2663 43.7065 54.4226 43.5517C54.5789 43.3969 54.6667 43.187 54.6667 42.9681V41.3173C54.6667 41.0983 54.5789 40.8884 54.4226 40.7336C54.2663 40.5788 54.0543 40.4918 53.8333 40.4918H52.1667C51.9457 40.4918 51.7337 40.5788 51.5774 40.7336C51.4211 40.8884 51.3333 41.0983 51.3333 41.3173ZM52.1667 45.4443C51.9457 45.4443 51.7337 45.5313 51.5774 45.6861C51.4211 45.8408 51.3333 46.0508 51.3333 46.2697V52.873C51.3333 53.0919 51.4211 53.3018 51.5774 53.4566C51.7337 53.6114 51.9457 53.6984 52.1667 53.6984H53.8333C54.0543 53.6984 54.2663 53.6114 54.4226 53.4566C54.5789 53.3018 54.6667 53.0919 54.6667 52.873V46.2697C54.6667 46.0508 54.5789 45.8408 54.4226 45.6861C54.2663 45.5313 54.0543 45.4443 53.8333 45.4443H52.1667Z" fill="#9C171E"/>
</svg>
