<svg width="70" height="70" viewBox="0 0 70 70" fill="none" xmlns="http://www.w3.org/2000/svg">
<path d="M13 13V58H58" stroke="#9C171E" stroke-width="2" stroke-linecap="round" stroke-linejoin="round"/>
<path d="M18 45C18 43.8954 18.8954 43 20 43H23.5C24.6046 43 25.5 43.8954 25.5 45V57.5C25.5 57.7761 25.2761 58 25 58H18.5C18.2239 58 18 57.7761 18 57.5V45Z" fill="#9C171E"/>
<rect x="18" y="35.5" width="5" height="5" rx="2.5" fill="#9C171E"/>
<rect x="29" y="23" width="5" height="5" rx="2.5" fill="#9C171E"/>
<rect x="40" y="27" width="5" height="5" rx="2.5" fill="#9C171E"/>
<rect x="49" y="15" width="5" height="5" rx="2.5" fill="#9C171E"/>
<path d="M28 35C28 33.8954 28.8954 33 30 33H33.5C34.6046 33 35.5 33.8954 35.5 35V57.5C35.5 57.7761 35.2761 58 35 58H28.5C28.2239 58 28 57.7761 28 57.5V35Z" fill="#9C171E"/>
<path d="M38 42.5C38 41.3954 38.8954 40.5 40 40.5H43.5C44.6046 40.5 45.5 41.3954 45.5 42.5V57.5C45.5 57.7761 45.2761 58 45 58H38.5C38.2239 58 38 57.7761 38 57.5V42.5Z" fill="#9C171E"/>
<path d="M48 27.5C48 26.3954 48.8954 25.5 50 25.5H53.5C54.6046 25.5 55.5 26.3954 55.5 27.5V57C55.5 57.5523 55.0523 58 54.5 58H49C48.4477 58 48 57.5523 48 57V27.5Z" fill="#9C171E"/>
<path d="M21.75 36.75L31.75 25.5L41.75 30.5L51.75 16.75" stroke="#9C171E" stroke-linecap="round" stroke-linejoin="round"/>
</svg>
