<svg width="70" height="70" viewBox="0 0 70 70" fill="none" xmlns="http://www.w3.org/2000/svg">
<path d="M51.1347 41.4979H48.0475C47.924 41.4427 47.7996 41.3896 47.6742 41.3386C46.4853 40.8649 45.2133 40.635 43.9338 40.6623C42.6542 40.6897 41.3932 40.9738 40.2256 41.4979H38.5417C38.4567 41.5061 38.371 41.4953 38.2907 41.4665C38.2104 41.4376 38.1374 41.3914 38.0771 41.331C38.0167 41.2707 37.9705 41.1977 37.9416 41.1174C37.9128 41.0371 37.902 40.9514 37.9102 40.8664V37.6424C37.902 37.5574 37.9128 37.4717 37.9416 37.3914C37.9705 37.3111 38.0167 37.2382 38.0771 37.1778C38.1374 37.1175 38.2104 37.0712 38.2907 37.0423C38.371 37.0135 38.4567 37.0028 38.5417 37.0109H51.1347C51.219 37.0063 51.3034 37.0187 51.3828 37.0472C51.4622 37.0758 51.5351 37.12 51.5971 37.1772C51.6561 37.2391 51.7016 37.3125 51.7309 37.3927C51.7603 37.473 51.7728 37.5585 51.7676 37.6438V40.8664C51.7728 40.9517 51.7603 41.0372 51.7309 41.1175C51.7016 41.1978 51.6561 41.2711 51.5971 41.333C51.535 41.39 51.462 41.4339 51.3826 41.4622C51.3032 41.4906 51.2189 41.5027 51.1347 41.4979ZM38.0751 33.7335C38.0171 33.7961 37.9725 33.8698 37.9438 33.9501C37.9151 34.0304 37.9029 34.1157 37.9081 34.2008V35.5641C37.9033 35.6479 37.9156 35.7319 37.9443 35.8108C37.973 35.8897 38.0175 35.9619 38.0751 36.023C38.1376 36.0807 38.2112 36.1252 38.2914 36.1538C38.3716 36.1824 38.4567 36.1944 38.5417 36.1893H51.1347C51.219 36.1939 51.3034 36.1815 51.3828 36.153C51.4622 36.1244 51.5351 36.0802 51.5971 36.023C51.6556 35.9624 51.701 35.8903 51.7303 35.8114C51.7597 35.7324 51.7724 35.6482 51.7676 35.5641V34.2008C51.7728 34.1154 51.7603 34.0298 51.731 33.9495C51.7016 33.8691 51.6561 33.7956 51.5971 33.7335C51.5351 33.6763 51.4622 33.6321 51.3828 33.6036C51.3034 33.575 51.219 33.5627 51.1347 33.5672H38.5417C38.4567 33.5621 38.3716 33.5742 38.2914 33.6027C38.2112 33.6313 38.1376 33.6758 38.0751 33.7335ZM33.9164 52.7593V52.8526C33.9216 52.938 33.9091 53.0236 33.8798 53.104C33.8505 53.1844 33.8049 53.2579 33.7459 53.3199C33.6839 53.3771 33.611 53.4213 33.5316 53.4499C33.4522 53.4784 33.3678 53.4908 33.2836 53.4862H20.6933C20.6083 53.4945 20.5225 53.4838 20.4422 53.455C20.3618 53.4262 20.2888 53.3799 20.2284 53.3196C20.168 53.2592 20.1218 53.1862 20.093 53.1058C20.0642 53.0254 20.0535 52.9397 20.0618 52.8547V49.63C20.0535 49.545 20.0642 49.4592 20.093 49.3788C20.1218 49.2985 20.168 49.2255 20.2284 49.1651C20.2888 49.1047 20.3618 49.0585 20.4422 49.0297C20.5225 49.0008 20.6083 48.9902 20.6933 48.9985H25.5536V24.3947H18.4305C18.0517 24.3865 17.6909 24.2315 17.4241 23.9626C17.1573 23.6936 17.0053 23.3316 17.0001 22.9528C16.995 22.574 17.137 22.208 17.3963 21.9318C17.6557 21.6556 18.0121 21.4909 18.3905 21.4723L25.5536 14.9892V14.4622C25.5536 14.0744 25.7076 13.7025 25.9818 13.4283C26.2561 13.1541 26.628 13 27.0158 13C27.4036 13 27.7755 13.1541 28.0497 13.4283C28.324 13.7025 28.478 14.0744 28.478 14.4622V14.6173L46.2429 21.4716H47.722C48.2117 21.4716 48.6042 21.6021 48.8993 21.8631C49.1945 22.1242 49.342 22.4778 49.342 22.924C49.3481 23.123 49.3108 23.3209 49.2327 23.504C49.1545 23.6871 49.0374 23.851 48.8895 23.9842C48.6187 24.2247 48.2744 24.3665 47.9128 24.3863C47.8574 24.3912 45.8675 24.394 45.8079 24.394V32.0615C45.8079 32.2075 43.9036 32.2019 43.9036 32.0615V24.3947H28.478V48.9971H33.2836C33.3728 48.9957 33.4616 49.0099 33.546 49.0392L33.4386 49.1914C32.8815 49.9787 32.7566 50.9006 33.0948 51.7173C33.2638 52.1359 33.5489 52.4974 33.9164 52.7593ZM28.478 21.4709H40.9525L28.478 16.6577V21.4709ZM25.5536 17.5572L21.2307 21.4709H25.5536V17.5572ZM35.1296 50.3877C34.985 50.5926 34.945 50.7736 35.0096 50.9308C35.0741 51.088 35.2414 51.1665 35.5113 51.1665H36.5441C36.6425 52.0997 36.9155 53.0061 37.3489 53.8384C38.2089 55.4923 39.6337 56.7829 41.3644 57.4757C42.245 57.8275 43.1854 58.0055 44.1338 57.9998C45.2437 58.0072 46.3406 57.7602 47.3403 57.2779C48.313 56.8133 49.1805 56.1548 49.8893 55.3427C49.9542 55.2756 50.0043 55.1957 50.0365 55.1081C50.0686 55.0205 50.0821 54.9271 50.076 54.834C50.0709 54.7495 50.0467 54.6672 50.0052 54.5933C49.9638 54.5194 49.9062 54.4559 49.8367 54.4074C49.7717 54.357 49.6968 54.321 49.6168 54.3016C49.5369 54.2823 49.4538 54.2801 49.3729 54.2952C49.205 54.3264 49.0538 54.4165 48.9463 54.5492C48.3614 55.2225 47.6407 55.7645 46.8316 56.1398C45.9874 56.5345 45.0656 56.7354 44.1338 56.7278C43.3469 56.732 42.5661 56.5892 41.8317 56.3068C41.1242 56.0349 40.4724 55.6359 39.9085 55.1294C39.3458 54.6249 38.8759 54.0258 38.5199 53.3592C38.1555 52.678 37.9232 51.934 37.8351 51.1665H38.95C39.2145 51.1665 39.3801 51.0894 39.4482 50.9343C39.5162 50.7792 39.4763 50.6003 39.3317 50.3954L37.6555 48.0099C37.5353 47.8405 37.3949 47.7545 37.2345 47.7517C37.0752 47.7517 36.9328 47.8351 36.8079 48.0099L35.1296 50.3877ZM38.3852 45.3885C38.3186 45.454 38.2668 45.5329 38.2333 45.6201C38.1998 45.7072 38.1853 45.8005 38.1908 45.8937C38.1967 45.9782 38.2221 46.0601 38.2649 46.1332C38.3078 46.2062 38.367 46.2683 38.4378 46.3147C38.5029 46.3651 38.5777 46.4015 38.6575 46.4215C38.7373 46.4415 38.8204 46.4448 38.9016 46.4312C39.0696 46.402 39.2212 46.3128 39.3282 46.18C39.9177 45.5083 40.6412 44.9672 41.4521 44.5915C42.2299 44.2345 43.071 44.036 43.9263 44.0077C44.7816 43.9794 45.634 44.1218 46.4337 44.4266C47.1422 44.7013 47.7952 45.1018 48.3611 45.6088C48.9229 46.1131 49.3915 46.7123 49.7455 47.3791C50.1074 48.0618 50.3404 48.8053 50.4331 49.5724H49.3203C49.056 49.5724 48.8902 49.6496 48.8228 49.804C48.7555 49.9583 48.7941 50.1379 48.9386 50.3428L50.6148 52.7284C50.7346 52.8982 50.8749 52.9843 51.0358 52.9866C51.1967 52.9889 51.3389 52.9029 51.4624 52.7284L53.1302 50.3519C53.2794 50.1419 53.3206 49.9597 53.2537 49.8054C53.1868 49.651 53.0184 49.5738 52.7485 49.5738H51.7227C51.6239 48.6405 51.3509 47.734 50.9179 46.9013C50.0567 45.2461 48.6309 43.9544 46.8989 43.2604C45.9447 42.8818 44.9228 42.7036 43.8967 42.737C42.8707 42.7705 41.8625 43.0148 40.935 43.4548C39.9622 43.9189 39.0945 44.577 38.3852 45.3885ZM43.8292 54.0889H44.4488C44.5525 54.0912 44.6539 54.0583 44.7365 53.9956C44.8206 53.9295 44.8771 53.8344 44.895 53.7289L45.0676 53.0231C45.1161 53.0084 45.1687 52.9901 45.2262 52.9691C45.2812 52.9486 45.3343 52.9233 45.3848 52.8933L46.0043 53.275C46.0914 53.3302 46.1932 53.3578 46.2962 53.3543C46.4044 53.3454 46.5049 53.2951 46.5769 53.2139L47.0021 52.7817C47.0743 52.7092 47.1188 52.6136 47.1277 52.5116C47.1327 52.4035 47.1037 52.2965 47.0449 52.2057L46.6779 51.5861C46.7037 51.538 46.7272 51.4886 46.7481 51.4381C46.7678 51.3924 46.7847 51.3455 46.7986 51.2977L47.5122 51.1251C47.6176 51.1022 47.7125 51.0453 47.7823 50.9631C47.848 50.8803 47.8823 50.7769 47.8791 50.6712V50.0643C47.8807 49.9638 47.845 49.8662 47.7788 49.7906C47.7081 49.7119 47.6151 49.6566 47.5122 49.632L46.8105 49.4594C46.7867 49.397 46.7635 49.343 46.7404 49.2974C46.7172 49.2518 46.6983 49.2076 46.6793 49.1641L47.068 48.5228C47.1241 48.4351 47.1489 48.3309 47.1382 48.2274C47.1302 48.1253 47.0838 48.03 47.0084 47.9607L46.5692 47.5398C46.4962 47.4637 46.3998 47.4143 46.2955 47.3994C46.1971 47.3842 46.0967 47.4073 46.0149 47.464L45.3834 47.8597C45.331 47.829 45.2755 47.8038 45.2178 47.7846C45.1652 47.7678 45.1146 47.7495 45.0662 47.7306L44.8936 47.01C44.8722 46.9078 44.8162 46.8162 44.7351 46.7504C44.6541 46.6838 44.5522 46.6482 44.4474 46.6501H43.8278C43.7211 46.6483 43.6173 46.6855 43.536 46.7546C43.4554 46.8184 43.4003 46.9091 43.3809 47.01L43.2153 47.7229C43.1529 47.7474 43.0953 47.7678 43.0427 47.7846C42.9869 47.8028 42.9336 47.828 42.8841 47.8597L42.2576 47.464C42.2174 47.4352 42.1719 47.4147 42.1237 47.4036C42.0755 47.3925 42.0256 47.3911 41.9769 47.3994C41.8714 47.4139 41.7739 47.4633 41.6998 47.5398L41.2746 47.9607C41.2004 48.0336 41.1512 48.1282 41.1342 48.2309C41.117 48.3324 41.1388 48.4367 41.1953 48.5228L41.5917 49.1641L41.5307 49.3044C41.5089 49.3549 41.4886 49.4068 41.4696 49.4594L40.7638 49.632C40.6607 49.6559 40.5683 49.7129 40.5006 49.7941C40.4369 49.8697 40.4024 49.9655 40.4031 50.0643V50.6768C40.3998 50.7826 40.4344 50.8861 40.5006 50.9687C40.5683 51.05 40.6607 51.1069 40.7638 51.1308L41.4766 51.3034C41.4956 51.3518 41.5159 51.3981 41.5377 51.4437C41.5594 51.4893 41.5798 51.5384 41.5994 51.5917L41.2318 52.2183C41.1767 52.3092 41.1503 52.4146 41.156 52.5207C41.1633 52.6222 41.2084 52.7174 41.2823 52.7873L41.7033 53.2195C41.7374 53.2598 41.7791 53.293 41.8261 53.3171C41.873 53.3412 41.9243 53.3557 41.9769 53.3599C42.0811 53.3638 42.1841 53.3362 42.2723 53.2806L42.8989 52.8989C42.9538 52.9288 43.0105 52.9553 43.0687 52.9782C43.1185 52.9971 43.1683 53.014 43.216 53.0287L43.3816 53.7346C43.3976 53.8389 43.4531 53.9331 43.5367 53.9977C43.6208 54.0611 43.7239 54.094 43.8292 54.091V54.0889ZM44.1457 51.5679C43.988 51.5699 43.8315 51.5406 43.6853 51.4815C43.5391 51.4224 43.4062 51.3347 43.2942 51.2237C43.1823 51.1127 43.0935 50.9804 43.0333 50.8347C42.973 50.689 42.9423 50.5328 42.9431 50.3751C42.9423 50.2166 42.9729 50.0595 43.033 49.9128C43.093 49.7662 43.1815 49.6328 43.2932 49.5203C43.4049 49.4079 43.5377 49.3186 43.684 49.2576C43.8303 49.1966 43.9872 49.165 44.1457 49.1648C44.3028 49.1607 44.459 49.1898 44.6041 49.2502C44.7492 49.3107 44.8799 49.4011 44.9877 49.5156C45.1023 49.6268 45.1931 49.7601 45.2545 49.9075C45.3159 50.0549 45.3466 50.2133 45.3448 50.373C45.3471 50.5311 45.3166 50.6879 45.2551 50.8336C45.1937 50.9793 45.1026 51.1106 44.9877 51.2192C44.8784 51.3316 44.7474 51.4206 44.6026 51.4809C44.4579 51.5412 44.3025 51.5715 44.1457 51.57V51.5679Z" fill="#9C171E"/>
</svg>
