<svg width="70" height="70" viewBox="0 0 70 70" fill="none" xmlns="http://www.w3.org/2000/svg">
<path d="M37.6502 64.8173C37.3983 64.9377 37.1225 65 36.8433 65C36.5784 65 36.3146 64.9508 36.0708 64.8471C36.0094 64.821 35.9484 64.794 35.8885 64.7652C30.2302 62.0608 24.5709 59.3564 18.9106 56.6519C18.2752 56.3502 18 55.9147 18 55.2328C18.0135 49.2231 18.0135 43.2137 18 37.2047C18 36.517 18.2792 36.094 18.9187 35.7953C21.1141 34.77 21.77 34.6282 23.9533 33.5776C24.048 33.5227 25.1603 33.0253 25.8737 33.0253C26.5871 33.0253 27.8914 33.5227 27.9861 33.5776C33.7368 36.4321 37.2052 38.1063 42.9654 40.9426C43.7335 41.3109 43.7345 41.9347 43.7335 42.2315C43.7214 45.0281 43.7386 47.3871 43.7406 50.1847C43.7406 50.7842 43.9986 50.9365 44.55 50.661C45.5769 50.1488 46.5957 49.6192 47.6317 49.1245C48.004 48.947 48.1376 48.7141 48.1376 48.3213C48.1254 45.4878 48.1174 42.6544 48.1447 39.8209C48.1447 39.3359 47.9787 39.1099 47.5488 38.9003C41.9147 36.1474 37.4509 34.1411 31.827 31.3681C31.7772 31.3439 31.5113 31.1777 31.2122 30.9898C30.8191 30.7427 30.8321 30.0959 31.2508 29.8951C33.0285 29.0483 34.1655 28.554 35.9361 27.6945C36.4844 27.4288 36.9852 27.4394 37.5346 27.7013C43.1929 30.4058 48.8586 33.1005 54.5318 35.7856C55.2177 36.1096 55.502 36.5412 55.5 37.2707C55.4831 43.2202 55.4831 49.1697 55.5 55.1193C55.5 55.8827 55.1853 56.3328 54.4883 56.6636C48.7469 59.371 43.3627 62.0889 37.6502 64.8173Z" fill="#9C171E"/>
<rect x="18" y="25.5" width="5" height="5" rx="2.5" fill="#9C171E"/>
<rect x="29" y="13" width="5" height="5" rx="2.5" fill="#9C171E"/>
<rect x="40" y="17" width="5" height="5" rx="2.5" fill="#9C171E"/>
<rect x="49" y="5" width="5" height="5" rx="2.5" fill="#9C171E"/>
<path d="M21.75 26.75L31.75 15.5L41.75 20.5L51.75 6.75" stroke="#9C171E" stroke-linecap="round" stroke-linejoin="round"/>
</svg>
