<svg width="70" height="70" viewBox="0 0 70 70" fill="none" xmlns="http://www.w3.org/2000/svg">
<path d="M23.5945 13.1426C23.1828 13.3334 13.2408 23.3256 13.1002 23.677C12.8793 24.2896 12.4876 24.2495 18.6236 24.2495H24.2473V18.6257C24.2473 13.3334 24.2373 13.002 24.0766 13.002C23.9762 13.012 23.7653 13.0723 23.5945 13.1426Z" fill="#9C171E"/>
<path d="M25.8543 19.1752V25.3613L25.6032 25.6023L25.3622 25.8534H19.1761H13L13.0201 41.409C13.0502 56.9446 13.0502 56.9748 13.2611 57.2459C13.3716 57.3965 13.5925 57.6175 13.7431 57.7279C14.0143 57.9388 14.0946 57.9388 24.1671 57.969C33.8279 57.989 34.31 57.979 34.2397 57.8183C33.9384 57.1053 33.8882 56.6534 33.8882 54.9562V53.1687H26.1053H18.3124L18.0714 52.9176C17.74 52.5963 17.74 52.1343 18.0714 51.813L18.3124 51.5619H26.1053H33.8882V49.9551V48.3483H26.1053H18.3124L18.0714 48.0973C17.74 47.7759 17.74 47.314 18.0714 46.9926L18.3124 46.7415H26.1053H33.8882V46.5307C33.8882 46.4001 33.6873 46.139 33.376 45.8679C32.8036 45.3457 32.432 44.6929 32.3316 44C32.2915 43.7389 32.2412 43.528 32.2312 43.528C32.2111 43.528 31.9098 43.6686 31.5483 43.8293C31.1868 44 30.7248 44.1707 30.5139 44.2008C30.293 44.241 29.9616 44.4017 29.7507 44.5824C28.857 45.3356 27.6217 45.3155 26.7179 44.5222C26.4769 44.3113 26.2258 44 26.1555 43.8293L26.035 43.528H22.1687H18.3124L18.0714 43.2769C17.74 42.9556 17.74 42.4936 18.0714 42.1723L18.3124 41.9212H22.1788C25.9949 41.9212 26.0451 41.9212 26.1053 41.7103C26.1455 41.5998 26.2961 41.3588 26.4468 41.1881C26.6075 41.0073 26.7581 40.696 26.7882 40.4751C26.8183 40.2642 26.9891 39.8022 27.1598 39.4407C27.3205 39.0792 27.4611 38.7679 27.4611 38.7478C27.4611 38.7277 25.4024 38.7076 22.8918 38.7076H18.3124L18.0714 38.4566C17.7701 38.1653 17.7501 37.7134 18.0112 37.3921L18.202 37.1511L23.2432 37.1008L28.2946 37.0506L28.8369 36.1468C29.1381 35.6447 29.6101 34.9417 29.8813 34.5601L30.3734 33.8873H24.3379H18.3124L18.0714 33.6362C17.74 33.3149 17.74 32.8529 18.0714 32.5316L18.3124 32.2805L25.0208 32.2704L31.7291 32.2604L33.2756 30.6637L34.8221 29.0669H26.5673H18.3124L18.0714 28.8159C17.74 28.4945 17.74 28.0326 18.0714 27.7112L18.3124 27.4601H27.3807H36.449L38.0558 25.8534L39.6626 24.2466H34.6112H29.5599L29.3189 23.9955C28.9875 23.6742 28.9875 23.2122 29.3189 22.8908L29.5599 22.6398H35.4146H41.2694L43.2075 20.7016L45.1457 18.7634L45.1156 16.3934C45.0855 13.7824 45.0754 13.7723 44.3925 13.2602C44.1214 13.0493 44.031 13.0493 34.9828 13.0192L25.8543 12.9991V19.1752Z" fill="#9C171E"/>
<path d="M56.4032 13.1088C56.2726 13.159 55.6299 13.7214 54.9872 14.354L53.8022 15.5089L53.5612 15.2478C52.7879 14.4143 51.8439 14.4143 50.91 15.2378L50.5083 15.5993L52.9185 18.0095L55.3287 20.4297L55.7103 20.0481C56.584 19.2146 56.604 18.3409 55.7504 17.4371L55.4291 17.1057L56.6543 15.9006C57.6183 14.9566 57.8995 14.6151 57.9497 14.344C58.1104 13.4603 57.2468 12.7673 56.4032 13.1088Z" fill="#9C171E"/>
<path d="M43.5488 22.6709L37.7041 28.5156L40.1143 30.9258L42.5245 33.3359L48.3792 27.4812L54.2239 21.6365L51.8137 19.2264L49.4035 16.8162L43.5488 22.6709Z" fill="#9C171E"/>
<path d="M34.5006 31.6484C33.4462 32.743 32.3315 33.9481 32.0302 34.3397C30.2527 36.5591 28.3647 40.0338 28.3647 41.0882C28.3647 41.3795 28.2743 41.5402 27.9128 41.9318C27.3805 42.5042 27.3203 42.8959 27.7119 43.2775C28.0936 43.6691 28.4852 43.6089 29.0476 43.0867C29.4493 42.7252 29.5999 42.6448 30.0217 42.6046C31.2569 42.4942 34.9626 40.4054 37.0012 38.6781C37.192 38.5174 38.2464 37.5031 39.3411 36.4185L41.3294 34.4502L38.9394 32.0601C37.6238 30.7446 36.5191 29.67 36.479 29.67C36.4488 29.67 35.5551 30.5638 34.5006 31.6484Z" fill="#9C171E"/>
<path d="M44.3827 35.6969C43.5291 36.1488 34.3403 42.3852 34.1595 42.6362C33.8984 43.0078 33.8281 43.7007 34.0189 44.1426C34.0993 44.3434 34.3403 44.6347 34.5512 44.7953L34.9227 45.0866L45.0053 45.1167C56.1624 45.1468 55.5097 45.1769 56.0419 44.474C56.4436 43.9518 56.4537 43.1283 56.072 42.6161C55.9114 42.4052 53.923 41.0194 50.7797 38.9205C46.2104 35.8777 45.6982 35.5664 45.2664 35.5262C44.9049 35.4961 44.684 35.5362 44.3827 35.6969Z" fill="#9C171E"/>
<path d="M35.515 51.8541C35.5451 56.8451 35.5552 56.9757 35.756 57.2468C35.8665 57.3975 36.0874 57.6184 36.238 57.7289C36.4991 57.9297 36.6699 57.9397 39.2106 57.9699L41.912 58L41.9421 54.4852C41.9723 51.121 41.9823 50.9603 42.1831 50.6992C42.6953 50.0163 42.7154 50.0062 45.1356 50.0062C47.5558 50.0062 47.5759 50.0163 48.0881 50.6992C48.2889 50.9603 48.299 51.121 48.3291 54.4852L48.3592 58L51.0606 57.9699C53.6014 57.9397 53.7721 57.9297 54.0332 57.7289C54.1838 57.6184 54.4047 57.3975 54.5152 57.2468C54.7161 56.9757 54.7261 56.8451 54.7562 51.8541L54.7864 46.7425H45.1356H35.4849L35.515 51.8541Z" fill="#9C171E"/>
</svg>
