<svg width="70" height="70" viewBox="0 0 70 70" fill="none" xmlns="http://www.w3.org/2000/svg">
<g clip-path="url(#clip0_5877_45912)">
<path fill-rule="evenodd" clip-rule="evenodd" d="M38.6844 53.9654C38.9582 53.9654 39.2286 53.9026 39.4742 53.7816C41.9851 52.5449 44.4314 51.3103 46.8735 50.0778C49.8866 48.5571 52.8933 47.0397 56.0069 45.5255C56.6913 45.1906 57.0002 44.7349 57.0002 43.9621C56.9836 37.9387 56.9836 31.9153 57.0002 25.892C57.0022 25.1534 56.7231 24.7164 56.0496 24.3884C50.4801 21.67 44.9179 18.9418 39.363 16.2038C38.8236 15.9387 38.332 15.9279 37.7936 16.197C36.8171 16.6858 36.0368 17.058 35.2311 17.4423L35.2309 17.4424L35.2308 17.4424L35.2308 17.4424L35.2307 17.4425C34.6024 17.7422 33.9585 18.0493 33.194 18.4249C32.7758 18.6316 32.7628 19.2782 33.1543 19.5319C33.4486 19.7227 33.7107 19.8915 33.7596 19.9162C36.6861 21.4042 39.2927 22.6742 41.92 23.9543L41.9204 23.9545L41.9205 23.9546L41.9208 23.9547C44.2498 25.0895 46.5952 26.2322 49.1942 27.5418C49.6163 27.754 49.7792 27.9828 49.7792 28.4738C49.7524 31.3425 49.7603 34.2111 49.7723 37.0797C49.7723 37.4774 49.6412 37.7131 49.2756 37.8929C48.5949 38.2281 47.9217 38.5792 47.2486 38.9302L47.2483 38.9303L47.248 38.9305C46.9157 39.1038 46.5834 39.2771 46.2502 39.4485C45.7089 39.7274 45.4556 39.5732 45.4556 38.9663C45.4549 37.9788 45.4524 37.0453 45.4499 36.1281L45.4499 36.1255V36.1239C45.4453 34.412 45.4409 32.757 45.4486 30.9144C45.4496 30.6138 45.4486 29.9823 44.6945 29.6095C42.4941 28.4921 40.6343 27.5529 38.8507 26.6521C36.0504 25.2379 33.4378 23.9185 29.9889 22.1531C29.8959 22.0974 28.6155 21.5938 27.9151 21.5938C27.2147 21.5938 26.1228 22.0974 26.0297 22.1531C24.8959 22.7157 24.1816 23.0209 23.4413 23.3372C22.7821 23.6188 22.1023 23.9093 21.0871 24.3982C20.4594 24.7007 20.1852 25.1289 20.1852 25.8252C20.1906 28.3072 20.1938 30.7893 20.1948 33.2715C20.3825 33.2619 20.5714 33.257 20.7614 33.257C26.7976 33.257 31.6909 38.1503 31.6909 44.1865C31.6909 46.2967 31.0929 48.2672 30.0571 49.9378L37.7469 53.7278C37.8063 53.7571 37.8666 53.7847 37.9274 53.8113C38.1656 53.9157 38.4244 53.9654 38.6844 53.9654ZM25.532 40.5152C26.0835 40.516 26.5304 40.9634 26.5304 41.5152V43.8996C26.5304 44.4519 26.0827 44.8996 25.5304 44.8996C25.0226 44.8996 24.6033 44.5212 24.5389 44.031L21.7813 46.9684C21.5923 47.1698 21.3284 47.284 21.0522 47.284C20.7761 47.284 20.5122 47.1698 20.3232 46.9684L18.0677 44.5658L15.8122 46.9684C15.4342 47.3711 14.8013 47.3911 14.3987 47.0131C13.996 46.6351 13.976 46.0022 14.354 45.5996L17.3386 42.4204C17.5276 42.219 17.7915 42.1048 18.0677 42.1048C18.3438 42.1048 18.6077 42.219 18.7967 42.4204L21.0522 44.8229L23.221 42.5127C22.7018 42.4763 22.292 42.0436 22.292 41.5152C22.292 40.9629 22.7397 40.5152 23.292 40.5152H25.5268H25.532ZM20.6933 52.6423C25.4944 52.6423 29.3865 48.7501 29.3865 43.949C29.3865 39.1478 25.4944 35.2557 20.6933 35.2557C15.8921 35.2557 12 39.1478 12 43.949C12 48.7501 15.8921 52.6423 20.6933 52.6423Z" fill="#9C171E"/>
</g>
<defs>
<clipPath id="clip0_5877_45912">
<rect width="70" height="70" fill="white"/>
</clipPath>
</defs>
</svg>
