<svg width="70" height="70" viewBox="0 0 70 70" fill="none" xmlns="http://www.w3.org/2000/svg">
<path d="M35.6421 41.9394C35.721 41.9787 35.8079 41.9991 35.896 41.9991C35.9797 41.9991 36.063 41.9829 36.1396 41.9491C36.1592 41.9403 36.1787 41.9313 36.1978 41.9218C37.986 41.0303 39.7745 40.1389 41.5633 39.2475C41.7641 39.1481 41.8511 39.0045 41.8511 38.7797C41.8468 36.7989 41.8468 34.8181 41.8511 32.8375C41.8511 32.6108 41.7628 32.4714 41.5608 32.3729C40.8669 32.0349 40.6597 31.9882 39.9697 31.6419C39.9397 31.6238 39.5882 31.4599 39.3628 31.4599C39.1373 31.4599 38.7251 31.6238 38.6952 31.6419C36.8778 32.5828 35.7817 33.1346 33.9614 34.0695C33.7186 34.1909 33.7183 34.3965 33.7186 34.4944C33.7225 35.4162 33.717 36.1937 33.7164 37.1158C33.7164 37.3134 33.6349 37.3636 33.4606 37.2728C33.1361 37.104 32.8141 36.9294 32.4867 36.7664C32.369 36.7079 32.3268 36.6311 32.3268 36.5016C32.3307 35.5677 32.3332 34.6337 32.3246 33.6998C32.3246 33.5399 32.377 33.4654 32.5129 33.3964C34.2934 32.489 35.7041 31.8277 37.4814 30.9137C37.4972 30.9056 37.5816 30.8506 37.6764 30.7884C37.8031 30.7054 37.799 30.4959 37.6635 30.4281C37.1017 30.149 36.7424 29.9861 36.1828 29.7028C36.0095 29.6152 35.8513 29.6187 35.6776 29.705C33.8895 30.5965 32.099 31.4847 30.3061 32.3697C30.0893 32.4765 29.9995 32.6188 30.0001 32.8592C30.0054 34.8203 30.0054 36.7813 30.0001 38.7423C30.0001 38.994 30.0996 39.1423 30.3199 39.2513C32.1346 40.1439 33.8365 41.0399 35.6421 41.9394Z" fill="#9C171E"/>
<path d="M48.5464 41.9394C48.6253 41.9787 48.7122 41.9991 48.8003 41.9991C48.884 41.9991 48.9673 41.9829 49.0439 41.9491C49.0635 41.9403 49.083 41.9313 49.1021 41.9218C50.8903 41.0303 52.6788 40.1389 54.4676 39.2475C54.6684 39.1481 54.7554 39.0045 54.7554 38.7797C54.7511 36.7989 54.7511 34.8181 54.7554 32.8375C54.7554 32.6108 54.6671 32.4714 54.4651 32.3729C53.7712 32.0349 53.564 31.9882 52.874 31.6419C52.844 31.6238 52.4925 31.4599 52.2671 31.4599C52.0416 31.4599 51.6294 31.6238 51.5995 31.6419C49.7821 32.5828 48.686 33.1346 46.8657 34.0695C46.6229 34.1909 46.6226 34.3965 46.6229 34.4944C46.6268 35.4162 46.6213 36.1937 46.6207 37.1158C46.6207 37.3134 46.5392 37.3636 46.3649 37.2728C46.0404 37.104 45.7184 36.9294 45.391 36.7664C45.2733 36.7079 45.2311 36.6311 45.2311 36.5016C45.235 35.5677 45.2375 34.6337 45.2289 33.6998C45.2289 33.5399 45.2813 33.4654 45.4172 33.3964C47.1977 32.489 48.6084 31.8277 50.3857 30.9137C50.4015 30.9056 50.4859 30.8506 50.5807 30.7884C50.7074 30.7054 50.7033 30.4959 50.5678 30.4281C50.006 30.149 49.6467 29.9861 49.0871 29.7028C48.9138 29.6152 48.7556 29.6187 48.5819 29.705C46.7938 30.5965 45.0033 31.4847 43.2104 32.3697C42.9936 32.4765 42.9038 32.6188 42.9044 32.8592C42.9097 34.8203 42.9097 36.7813 42.9044 38.7423C42.9044 38.994 43.0039 39.1423 43.2241 39.2513C45.0389 40.1439 46.7408 41.0399 48.5464 41.9394Z" fill="#9C171E"/>
<path d="M41.9632 31.3008C42.042 31.3401 42.129 31.3605 42.2171 31.3605C42.3008 31.3605 42.3841 31.3443 42.4606 31.3104C42.4802 31.3017 42.4997 31.2927 42.5189 31.2831C44.3071 30.3917 46.0956 29.5003 47.8844 28.6088C48.0852 28.5094 48.1721 28.3658 48.1721 28.1411C48.1679 26.1602 48.1679 24.1794 48.1721 22.1988C48.1721 21.9721 48.0839 21.8327 47.8818 21.7342C47.188 21.3963 46.9807 21.3495 46.2907 21.0033C46.2608 20.9852 45.9093 20.8212 45.6838 20.8212C45.4584 20.8212 45.0462 20.9852 45.0162 21.0033C43.1989 21.9441 42.1028 22.496 40.2824 23.4309C40.0397 23.5522 40.0393 23.7579 40.0397 23.8557C40.0435 24.7775 40.0381 25.5551 40.0374 26.4772C40.0374 26.6748 39.9559 26.725 39.7816 26.6342C39.4571 26.4653 39.1351 26.2908 38.8077 26.1277C38.6901 26.0692 38.6479 25.9925 38.6479 25.863C38.6517 24.929 38.6543 23.9951 38.6456 23.0611C38.6456 22.9013 38.6981 22.8268 38.834 22.7577C40.6144 21.8503 42.0251 21.189 43.8024 20.275C43.8182 20.267 43.9027 20.2119 43.9975 20.1498C44.1242 20.0667 44.12 19.8572 43.9845 19.7895C43.4227 19.5103 43.0634 19.3474 42.5039 19.0641C42.3306 18.9765 42.1723 18.98 41.9987 19.0664C40.2105 19.9578 38.42 20.846 36.6271 21.731C36.4104 21.8378 36.3205 21.9801 36.3212 22.2205C36.3265 24.1816 36.3265 26.1426 36.3212 28.1037C36.3212 28.3553 36.4206 28.5036 36.6409 28.6127C38.4556 29.5052 40.1575 30.4013 41.9632 31.3008Z" fill="#9C171E"/>
<path d="M8 42.8659C8 46.9609 10.1304 48.9863 14.2118 48.9863H27.9136L27.3081 52.9711H24.9311C23.8098 52.9711 22.8904 53.8958 22.8904 54.9966C22.8904 56.0753 23.8098 57 24.9311 57H45.2259C46.3696 57 47.289 56.0753 47.289 54.9966C47.289 53.8958 46.3696 52.9711 45.2259 52.9711H42.6694L42.0864 48.9863H55.7658C59.8472 48.9863 62 46.9609 62 42.8659V18.0983C62 14.0254 59.8472 12 55.7658 12H14.2118C10.1304 12 8 14.0254 8 18.0983V42.8659ZM12.3729 42.6018V18.3845C12.3729 16.8655 13.0233 16.2931 14.5033 16.2931H55.4743C56.9543 16.2931 57.6271 16.8655 57.6271 18.3845V42.6018C57.6271 44.0988 56.9543 44.6932 55.4743 44.6932H14.5033C13.0233 44.6932 12.3729 44.0988 12.3729 42.6018Z" fill="#9C171E"/>
<path d="M16 20C16 19.4477 16.4477 19 17 19H17.5C18.0523 19 18.5 19.4477 18.5 20V28C18.5 28.5523 18.0523 29 17.5 29H17C16.4477 29 16 28.5523 16 28V20ZM19.75 19.625C19.75 19.2798 20.0298 19 20.375 19C20.7202 19 21 19.2798 21 19.625V28.375C21 28.7202 20.7202 29 20.375 29C20.0298 29 19.75 28.7202 19.75 28.375V19.625ZM29.75 19.625C29.75 19.2798 30.0298 19 30.375 19C30.7202 19 31 19.2798 31 19.625V28.375C31 28.7202 30.7202 29 30.375 29C30.0298 29 29.75 28.7202 29.75 28.375V19.625ZM24.75 20C24.75 19.4477 25.1977 19 25.75 19H27.5C28.0523 19 28.5 19.4477 28.5 20V28C28.5 28.5523 28.0523 29 27.5 29H25.75C25.1977 29 24.75 28.5523 24.75 28V20ZM22.25 19.625C22.25 19.2798 22.5298 19 22.875 19C23.2202 19 23.5 19.2798 23.5 19.625V28.375C23.5 28.7202 23.2202 29 22.875 29C22.5298 29 22.25 28.7202 22.25 28.375V19.625Z" fill="#9C171E"/>
</svg>
