<svg width="70" height="70" viewBox="0 0 70 70" fill="none" xmlns="http://www.w3.org/2000/svg">
<path fill-rule="evenodd" clip-rule="evenodd" d="M39.9855 54.9654C40.2737 54.9654 40.5583 54.8993 40.8168 54.772C43.46 53.4701 46.0352 52.1704 48.6059 50.873C51.7778 49.2722 54.9428 47.6748 58.2205 46.0809C58.9409 45.7284 59.2661 45.2487 59.2661 44.4351C59.2486 38.0944 59.2486 31.7537 59.2661 25.4131C59.2682 24.6356 58.9744 24.1756 58.2655 23.8303C52.4025 20.9687 46.5473 18.0968 40.6997 15.2146C40.132 14.9354 39.6144 14.9241 39.0477 15.2073C38.0196 15.722 37.1982 16.1138 36.3499 16.5184C35.6885 16.8339 35.0107 17.1572 34.2058 17.5526C33.7655 17.7703 33.7519 18.4509 34.164 18.718C34.4738 18.9188 34.7497 19.0965 34.8012 19.1225C37.8821 20.689 40.6262 22.026 43.392 23.3736C45.8439 24.5682 48.3129 25.7712 51.0489 27.1499C51.4932 27.3732 51.6647 27.614 51.6647 28.1309C51.6365 31.1507 51.6448 34.1704 51.6574 37.1902C51.6574 37.6089 51.5194 37.857 51.1346 38.0462C50.418 38.3991 49.7093 38.7686 49.0008 39.1381C48.6508 39.3207 48.3007 39.5032 47.9498 39.6837C47.3799 39.9773 47.1133 39.815 47.1133 39.1761C47.1126 38.1356 47.1099 37.152 47.1074 36.1857C47.1025 34.383 47.0978 32.6403 47.106 30.7C47.1071 30.3837 47.106 29.7189 46.3122 29.3264C43.9959 28.1502 42.0382 27.1615 40.1606 26.2133C37.2128 24.7246 34.4625 23.3356 30.8319 21.4772C30.734 21.4187 29.3861 20.8885 28.6488 20.8885C27.9115 20.8885 26.7621 21.4187 26.6641 21.4772C25.4705 22.0695 24.7187 22.3907 23.9393 22.7237C23.2454 23.0202 22.5298 23.326 21.4611 23.8406C20.8003 24.1591 20.5117 24.6098 20.5117 25.3428C20.5174 27.9555 20.5208 30.5684 20.5218 33.1813C20.7192 33.1712 20.918 33.1661 21.1179 33.1661C27.472 33.1661 32.6231 38.3172 32.6231 44.6713C32.6231 46.8926 31.9936 48.9668 30.9033 50.7254C33.6019 52.0554 36.3004 53.3853 38.9986 54.7152C39.061 54.7461 39.1246 54.7751 39.1886 54.8032C39.4393 54.913 39.7118 54.9654 39.9855 54.9654Z" fill="#9C171E"/>
<path d="M20 51.5C20.4167 51.5 20.7707 51.354 21.062 51.062C21.354 50.7707 21.5 50.4167 21.5 50H18.5C18.5 50.4167 18.646 50.7707 18.938 51.062C19.2293 51.354 19.5833 51.5 20 51.5ZM16.025 49H24.025C24.3083 49 24.5417 48.904 24.725 48.712C24.9083 48.5207 25 48.2833 25 48C25 47.7167 24.904 47.479 24.712 47.287C24.5207 47.0957 24.2833 47 24 47V44.4C24 43.3833 23.7377 42.454 23.213 41.612C22.6877 40.7707 21.95 40.2333 21 40V39.5C21 39.2167 20.9043 38.979 20.713 38.787C20.521 38.5957 20.2833 38.5 20 38.5C19.7167 38.5 19.4793 38.5957 19.288 38.787C19.096 38.979 19 39.2167 19 39.5V40C18.05 40.2333 17.3127 40.7707 16.788 41.612C16.2627 42.454 16 43.3833 16 44.4V47C15.7167 47 15.4833 47.0957 15.3 47.287C15.1167 47.479 15.025 47.7167 15.025 48C15.025 48.2833 15.1207 48.5207 15.312 48.712C15.504 48.904 15.7417 49 16.025 49ZM20 55C18.6167 55 17.3167 54.7373 16.1 54.212C14.8833 53.6873 13.825 52.975 12.925 52.075C12.025 51.175 11.3127 50.1167 10.788 48.9C10.2627 47.6833 10 46.3833 10 45C10 43.6167 10.2627 42.3167 10.788 41.1C11.3127 39.8833 12.025 38.825 12.925 37.925C13.825 37.025 14.8833 36.3123 16.1 35.787C17.3167 35.2623 18.6167 35 20 35C21.3833 35 22.6833 35.2623 23.9 35.787C25.1167 36.3123 26.175 37.025 27.075 37.925C27.975 38.825 28.6873 39.8833 29.212 41.1C29.7373 42.3167 30 43.6167 30 45C30 46.3833 29.7373 47.6833 29.212 48.9C28.6873 50.1167 27.975 51.175 27.075 52.075C26.175 52.975 25.1167 53.6873 23.9 54.212C22.6833 54.7373 21.3833 55 20 55Z" fill="#9C171E"/>
</svg>
