<svg width="70" height="70" viewBox="0 0 70 70" fill="none" xmlns="http://www.w3.org/2000/svg">
<path fill-rule="evenodd" clip-rule="evenodd" d="M39.0898 54.25C39.3573 54.25 39.6212 54.187 39.8597 54.066C42.3158 52.8196 44.7088 51.5753 47.0975 50.3332C50.0439 48.8011 52.984 47.2723 56.0287 45.7468C56.6979 45.4094 57 44.9503 57 44.1716C56.9838 38.1031 56.9838 32.0346 57 25.9661C57.0019 25.2221 56.729 24.7818 56.0705 24.4513C50.6243 21.7125 45.1852 18.9639 39.7532 16.2054C39.2258 15.9382 38.745 15.9273 38.2186 16.1984C37.2636 16.691 36.5006 17.066 35.7126 17.4532C35.0981 17.7552 34.4685 18.0646 33.7208 18.443C33.305 18.6548 33.2922 19.2982 33.6803 19.5573C33.9688 19.7499 34.226 19.9207 34.2739 19.9455C37.1358 21.4449 39.6848 22.7244 42.2541 24.0142C44.5317 25.1575 46.8252 26.3088 49.3668 27.6284C49.7796 27.8421 49.9389 28.0726 49.9389 28.5673C49.9127 31.4575 49.9204 34.3476 49.9321 37.2377C49.9321 37.6384 49.8039 37.8759 49.4464 38.057C48.7808 38.3947 48.1225 38.7484 47.4644 39.102C47.1392 39.2767 46.814 39.4514 46.488 39.6242C45.9586 39.9052 45.711 39.7499 45.711 39.1384C45.7103 38.1424 45.7078 37.201 45.7054 36.276C45.7009 34.5508 45.6966 32.8831 45.7042 31.0262C45.7051 30.7234 45.7042 30.0871 44.9667 29.7115C42.815 28.5858 40.9965 27.6395 39.2523 26.732C36.5141 25.3072 33.9592 23.9778 30.5867 22.1992C30.4957 22.1431 29.2436 21.6358 28.5587 21.6358C27.8739 21.6358 26.8061 22.1431 26.7151 22.1992C25.6064 22.766 24.9079 23.0735 24.184 23.3922C23.5394 23.6759 22.8746 23.9686 21.8819 24.4612C21.2681 24.7659 21 25.1973 21 25.8988C21.0015 26.5992 21.0028 27.2996 21.0039 28C21.4423 28.0014 21.905 28.0899 22.318 28.216C23.6676 28.6734 28.2838 30.3125 29.6712 30.897C30.9198 31.4179 31.5 31.9643 31.5 33.4636V42.9043C31.5 45.5733 30.6795 47.3549 28.551 49.1247C31.7586 50.7533 34.966 52.3819 38.173 54.0106C38.2315 54.0404 38.291 54.0684 38.351 54.0954C38.5827 54.1999 38.8356 54.25 39.0898 54.25Z" fill="#9C171E"/>
<path d="M20.9946 51.3037C21.1892 51.3037 21.4703 51.2274 21.7514 51.0858C27.9459 47.873 30 46.1849 30 42.2751V34.1831C30 32.898 29.5027 32.4297 28.4324 31.9831C27.2432 31.4822 23.2865 30.0772 22.1297 29.6851C21.773 29.5762 21.373 29.5 20.9946 29.5C20.627 29.5 20.227 29.5762 19.8703 29.6851C18.7027 30.0554 14.7459 31.493 13.5676 31.9831C12.4973 32.4188 12 32.898 12 34.1831V42.2751C12 46.1849 14.1405 47.7205 20.2486 51.0858C20.5297 51.2383 20.8108 51.3037 20.9946 51.3037ZM19.7946 45.2919C19.3838 45.2919 19.0486 45.1176 18.7459 44.7255L16.0973 41.4909C15.9027 41.2404 15.8054 40.9791 15.8054 40.7068C15.8054 40.1405 16.2486 39.683 16.8 39.683C17.1459 39.683 17.4054 39.8137 17.6865 40.1622L19.7622 42.8087L24.2162 35.6316C24.4541 35.2504 24.7568 35.0544 25.1027 35.0544C25.6432 35.0544 26.1514 35.4356 26.1514 36.0128C26.1514 36.2633 26.0216 36.5355 25.8703 36.786L20.8 44.7146C20.5514 45.0958 20.2054 45.2919 19.7946 45.2919Z" fill="#9C171E"/>
</svg>
