<svg width="70" height="70" viewBox="0 0 70 70" fill="none" xmlns="http://www.w3.org/2000/svg">
<path d="M20.3345 55.5069C20.4508 55.5653 20.5793 55.5957 20.7094 55.5957C20.8331 55.5957 20.9562 55.5716 21.0691 55.5211C21.0982 55.5081 21.1271 55.4946 21.1555 55.4803C23.7981 54.1508 26.4412 52.8212 29.0847 51.4917C29.3815 51.3434 29.51 51.1293 29.51 50.794C29.5037 47.8396 29.5037 44.8853 29.51 41.9311C29.51 41.593 29.3796 41.3851 29.081 41.2382C28.0556 40.7342 27.7493 40.6645 26.7296 40.148C26.6854 40.121 26.1659 39.8765 25.8327 39.8765C25.4995 39.8765 24.8904 40.121 24.8461 40.148C22.1604 41.5513 20.5405 42.3744 17.8503 43.7688C17.4916 43.9498 17.4911 44.2565 17.4916 44.4024C17.4972 45.7772 17.4892 46.937 17.4883 48.3123C17.4883 48.607 17.3678 48.6819 17.1103 48.5465C16.6307 48.2947 16.1548 48.0343 15.671 47.7911C15.4971 47.7038 15.4347 47.5894 15.4347 47.3962C15.4404 46.0032 15.4442 44.6103 15.4314 43.2173C15.4314 42.9789 15.5089 42.8677 15.7097 42.7647C18.341 41.4113 20.4258 40.425 23.0523 39.0618C23.0756 39.0498 23.2006 38.9676 23.3408 38.8748C23.5289 38.7505 23.5227 38.4392 23.3214 38.3376C22.4912 37.9213 21.9602 37.6783 21.1333 37.2558C20.8772 37.1251 20.6433 37.1304 20.3867 37.2591C17.7441 38.5887 15.098 39.9135 12.4484 41.2335C12.1281 41.3927 11.9953 41.605 11.9962 41.9636C12.0041 44.8885 12.0041 47.8133 11.9962 50.7382C11.9962 51.1135 12.1432 51.3348 12.4687 51.4974C15.1507 52.8287 17.6659 54.1652 20.3345 55.5069Z" fill="#9C171E"/>
<path d="M51.167 36.3445C50.5985 35.7367 49.6778 35.7367 49.1094 36.3445L46.1991 39.4558C45.6307 40.0635 45.6307 41.0478 46.1991 41.6555C46.7676 42.2632 47.6883 42.2632 48.2567 41.6555L48.4549 41.4437C47.3894 47.1399 42.6782 51.4456 37.0421 51.4456H34.1319C33.3283 51.4456 32.6765 52.142 32.6765 53.0015C32.6765 53.8605 33.3279 54.5573 34.1319 54.5573H37.0421C44.4151 54.5573 50.509 48.6603 51.4529 41.0495L52.0202 41.6559C52.3044 41.9598 52.6766 42.1117 53.0492 42.1117C53.4214 42.1117 53.7939 41.9598 54.0782 41.6559C54.6466 41.0482 54.6466 40.0639 54.0782 39.4562L51.167 36.3445Z" fill="#9C171E"/>
<path d="M17.7719 33.4277C18.0561 33.7316 18.4283 33.8835 18.8005 33.8835C19.1727 33.8835 19.5453 33.7316 19.8295 33.4277L22.7398 30.3164C23.3082 29.7087 23.3082 28.7244 22.7398 28.1167C22.1713 27.509 21.2506 27.5089 20.6822 28.1167L20.484 28.3285C21.5495 22.6323 26.2607 18.3266 31.8968 18.3266H34.8071C35.6106 18.3266 36.2624 17.6302 36.2624 16.7707C36.2624 15.9117 35.611 15.2148 34.8071 15.2148H31.8968C24.5239 15.2148 18.43 21.1119 17.486 28.7227L16.9187 28.1162C16.3503 27.5085 15.4296 27.5085 14.8611 28.1162C14.2927 28.724 14.2927 29.7083 14.8611 30.316L17.7719 33.4277Z" fill="#9C171E"/>
<path d="M47.8711 32.2418C52.8702 32.2418 56.9964 28.1136 56.9964 23.1209C56.9964 18.1282 52.8614 14 47.8623 14C42.872 14 38.7546 18.1282 38.7546 23.1209C38.7546 28.1136 42.8809 32.2418 47.8711 32.2418ZM47.8623 28.2724C47.6243 28.2724 47.4479 28.0959 47.4479 27.8489V27.2227C46.1342 27.1168 45.1644 26.4288 44.8999 25.4585C44.8646 25.3438 44.847 25.2379 44.847 25.1321C44.847 24.7616 45.1027 24.5058 45.4818 24.5058C45.7992 24.5058 46.0108 24.6734 46.1431 24.9998C46.2841 25.5378 46.7161 25.9348 47.4479 26.0406V23.6413L47.2892 23.6061C45.7639 23.2532 44.9704 22.5475 44.9704 21.3567C44.9704 20.0688 46.002 19.1867 47.4479 19.0544V18.437C47.4479 18.1811 47.6243 18.0135 47.8623 18.0135C48.1004 18.0135 48.2855 18.19 48.2855 18.437V19.0544C49.5199 19.1779 50.4368 19.8571 50.6837 20.801C50.7101 20.9068 50.7366 21.0127 50.7366 21.1185C50.7366 21.4714 50.4809 21.7272 50.1106 21.7272C49.7844 21.7272 49.5728 21.5419 49.4405 21.242C49.2642 20.7039 48.8674 20.3599 48.2855 20.2541V22.5211L48.4883 22.5652C50.0841 22.8651 50.8864 23.5972 50.8864 24.8498C50.8864 26.2435 49.7755 27.0992 48.2855 27.2315V27.8489C48.2855 28.0959 48.1004 28.2724 47.8623 28.2724ZM47.4479 22.3094V20.2453C46.7514 20.3599 46.3282 20.7745 46.3282 21.2685C46.3282 21.7625 46.6544 22.08 47.3862 22.2917L47.4479 22.3094ZM48.2855 23.8442V26.0406C49.1231 25.9436 49.5375 25.5202 49.5375 24.9468C49.5375 24.4352 49.2465 24.1 48.453 23.8883L48.2855 23.8442Z" fill="#9C171E"/>
</svg>
