<svg width="70" height="70" viewBox="0 0 70 70" fill="none" xmlns="http://www.w3.org/2000/svg">
<path fill-rule="evenodd" clip-rule="evenodd" d="M29.1429 52.1204C29.3969 52.1204 29.6479 52.0637 29.877 51.9542C32.2033 50.8431 34.4698 49.7339 36.7323 48.6266C38.293 47.8629 39.8519 47.1 41.4272 46.338C40.4849 44.9781 39.9148 43.2042 39.9148 41.264C39.9148 36.9865 42.6856 33.5179 46.1061 33.5098C46.1073 31.3037 46.111 29.0976 46.1172 26.8916C46.119 26.2279 45.8604 25.8351 45.2363 25.5404C40.0747 23.0975 34.9199 20.6457 29.7718 18.1851C29.272 17.9468 28.8164 17.9371 28.3174 18.179C27.4123 18.6183 26.6892 18.9528 25.9424 19.2982C25.36 19.5676 24.7633 19.8435 24.0547 20.1811C23.6738 20.3637 23.6619 20.9522 24.0196 21.177C24.2917 21.348 24.5337 21.4992 24.5789 21.5213C27.2913 22.8587 29.707 24 32.1421 25.1505C34.3006 26.1703 36.4742 27.1973 38.883 28.3743C39.2742 28.5649 39.4251 28.7705 39.4251 29.2118C39.4003 31.7898 39.4077 34.3677 39.4187 36.9457C39.4187 37.3031 39.2972 37.5149 38.9585 37.6764C38.3276 37.9777 37.7037 38.2932 37.0799 38.6087C36.7717 38.7645 36.4636 38.9203 36.1546 39.0744C35.6529 39.3251 35.4182 39.1865 35.4182 38.6411C35.4176 37.7527 35.4152 36.913 35.413 36.0879C35.4087 34.5491 35.4046 33.0614 35.4118 31.4051C35.4127 31.135 35.4118 30.5675 34.7129 30.2324C32.6737 29.2283 30.9502 28.3842 29.2972 27.5747C26.702 26.3038 24.2807 25.1181 21.0844 23.5315C20.9982 23.4816 19.8115 23.029 19.1625 23.029C18.5134 23.029 17.5014 23.4816 17.4152 23.5315C16.3644 24.0372 15.7025 24.3114 15.0164 24.5957C14.4055 24.8488 13.7754 25.1098 12.8346 25.5492C12.2528 25.821 11.9988 26.2058 11.9988 26.8316C12.0111 32.2987 12.0111 37.7662 11.9988 43.2339C11.9988 43.8543 12.2492 44.2506 12.8272 44.5251C17.9771 46.9857 23.1261 49.4462 28.2742 51.9068C28.3287 51.9329 28.3841 51.9575 28.44 51.9813C28.6618 52.0756 28.9019 52.1204 29.1429 52.1204Z" fill="#9C171E"/>
<path d="M47.6666 35.0605C46.6962 35.0611 45.7395 35.2892 44.8733 35.7267C44.0071 36.1642 43.2556 36.7987 42.6793 37.5794C42.1029 38.3601 41.7178 39.2651 41.5547 40.2217C41.3917 41.1783 41.4554 42.1598 41.7406 43.0873C42.0258 44.0148 42.5247 44.8625 43.1971 45.5622C43.8694 46.2619 44.6966 46.794 45.612 47.116C46.5274 47.4379 47.5056 47.5405 48.4679 47.4157C49.4303 47.2909 50.3499 46.942 51.1529 46.3972L54.9865 50.2277C55.093 50.342 55.2214 50.4337 55.3641 50.4972C55.5068 50.5608 55.6608 50.595 55.817 50.5978C55.9732 50.6005 56.1283 50.5718 56.2731 50.5133C56.4179 50.4548 56.5495 50.3677 56.66 50.2573C56.7704 50.1468 56.8575 50.0153 56.916 49.8704C56.9745 49.7256 57.0032 49.5705 57.0005 49.4143C56.9977 49.2581 56.9635 49.1041 56.8999 48.9614C56.8364 48.8187 56.7447 48.6903 56.6304 48.5839L52.7999 44.7502C53.4336 43.8175 53.8011 42.7297 53.8629 41.6037C53.9247 40.4778 53.6784 39.3563 53.1505 38.3599C52.6226 37.3635 51.8331 36.5298 50.8669 35.9484C49.9006 35.3671 48.7942 35.0601 47.6666 35.0605ZM43.7895 41.2639C43.7895 40.2356 44.198 39.2495 44.9251 38.5224C45.6522 37.7953 46.6383 37.3868 47.6666 37.3868C48.6949 37.3868 49.681 37.7953 50.4081 38.5224C51.1352 39.2495 51.5437 40.2356 51.5437 41.2639C51.5437 42.2922 51.1352 43.2783 50.4081 44.0054C49.681 44.7325 48.6949 45.141 47.6666 45.141C46.6383 45.141 45.6522 44.7325 44.9251 44.0054C44.198 43.2783 43.7895 42.2922 43.7895 41.2639Z" fill="#9C171E"/>
</svg>
