<svg width="70" height="70" viewBox="0 0 70 70" fill="none" xmlns="http://www.w3.org/2000/svg">
<path d="M52.5 17H16.5C15.3065 17 14.1619 17.4741 13.318 18.318C12.4741 19.1619 12 20.3065 12 21.5V48.5C12 49.6935 12.4741 50.8381 13.318 51.682C14.1619 52.5259 15.3065 53 16.5 53H52.5C53.6935 53 54.8381 52.5259 55.682 51.682C56.5259 50.8381 57 49.6935 57 48.5V21.5C57 20.3065 56.5259 19.1619 55.682 18.318C54.8381 17.4741 53.6935 17 52.5 17ZM16.5 48.5V21.5H52.5V48.5H16.5Z" fill="#9C171E"/>
<path d="M20.9993 27C20.9993 26.4477 21.447 26 21.9993 26H24.4993C25.0516 26 25.4993 26.4477 25.4993 27V43C25.4993 43.5523 25.0516 44 24.4993 44H21.9993C21.447 44 20.9993 43.5523 20.9993 43V27ZM27.7493 27C27.7493 26.4477 28.197 26 28.7493 26H28.9993C29.5516 26 29.9993 26.4477 29.9993 27V43C29.9993 43.5523 29.5516 44 28.9993 44H28.7493C28.197 44 27.7493 43.5523 27.7493 43V27ZM45.7493 27C45.7493 26.4477 46.197 26 46.7493 26H46.9993C47.5515 26 47.9993 26.4477 47.9993 27V43C47.9993 43.5523 47.5515 44 46.9993 44H46.7493C46.197 44 45.7493 43.5523 45.7493 43V27ZM36.7493 27C36.7493 26.4477 37.197 26 37.7493 26H42.4993C43.0515 26 43.4993 26.4477 43.4993 27V43C43.4993 43.5523 43.0515 44 42.4993 44H37.7493C37.197 44 36.7493 43.5523 36.7493 43V27ZM32.2493 27C32.2493 26.4477 32.697 26 33.2493 26H33.4993C34.0516 26 34.4993 26.4477 34.4993 27V43C34.4993 43.5523 34.0516 44 33.4993 44H33.2493C32.697 44 32.2493 43.5523 32.2493 43V27Z" fill="#9C171E"/>
</svg>
