<svg width="70" height="70" viewBox="0 0 70 70" fill="none" xmlns="http://www.w3.org/2000/svg">
<path fill-rule="evenodd" clip-rule="evenodd" d="M37.8526 54.9654C38.1408 54.9654 38.4254 54.8993 38.6839 54.772C41.327 53.4701 43.9021 52.1705 46.4728 50.8731L46.473 50.873L46.4732 50.8729C49.645 49.2721 52.81 47.6748 56.0876 46.0809C56.808 45.7284 57.1332 45.2487 57.1332 44.4351C57.1158 38.0944 57.1158 31.7537 57.1332 25.4131C57.1353 24.6356 56.8415 24.1756 56.1326 23.8303C50.2697 20.9687 44.4144 18.0968 38.5668 15.2146C37.9991 14.9354 37.4815 14.9241 36.9148 15.2073C35.8867 15.722 35.0653 16.1138 34.217 16.5184C33.5556 16.8339 32.8778 17.1572 32.0729 17.5526C31.6326 17.7703 31.619 18.4509 32.0312 18.718C32.341 18.9188 32.6168 19.0965 32.6683 19.1225C35.7491 20.689 38.493 22.0259 41.2588 23.3734L41.259 23.3735L41.2592 23.3736L41.2593 23.3737C43.7111 24.5683 46.18 25.7712 48.916 27.1499C49.3604 27.3732 49.5318 27.614 49.5318 28.1309C49.5036 31.1507 49.512 34.1704 49.5245 37.1902C49.5245 37.6089 49.3865 37.857 49.0017 38.0462C48.2851 38.3991 47.5765 38.7686 46.8679 39.1381C46.5179 39.3207 46.1678 39.5032 45.8169 39.6837C45.247 39.9773 44.9804 39.815 44.9804 39.1761C44.9797 38.1356 44.9771 37.152 44.9745 36.1857L44.9745 36.1824C44.9696 34.3809 44.965 32.6392 44.9731 30.7C44.9742 30.3837 44.9731 29.7189 44.1793 29.3264C41.863 28.1502 39.9053 27.1615 38.0277 26.2133C35.0799 24.7246 32.3296 23.3356 28.699 21.4772C28.6011 21.4187 27.2532 20.8885 26.5159 20.8885C25.7786 20.8885 24.6292 21.4187 24.5312 21.4772C23.3377 22.0695 22.5858 22.3907 21.8065 22.7237L21.8064 22.7237L21.8064 22.7237C21.1125 23.0202 20.3969 23.326 19.3282 23.8406C18.6674 24.1591 18.3788 24.6098 18.3788 25.3428C18.3845 27.9555 18.3879 30.5684 18.3889 33.1813C18.5863 33.1712 18.7851 33.1661 18.985 33.1661C25.3391 33.1661 30.4902 38.3172 30.4902 44.6713C30.4902 46.8926 29.8607 48.9668 28.7704 50.7254L36.8657 54.7152C36.9282 54.7461 36.9917 54.7751 37.0557 54.8032C37.3064 54.913 37.5789 54.9654 37.8526 54.9654ZM17.3653 49.4692H22.868C23.4763 49.4692 23.8312 49.1369 23.8312 48.523V48.354C23.836 46.9938 22.5622 45.853 21.774 45.1472C21.6517 45.0376 21.541 44.9385 21.4487 44.8507C21.2459 44.648 21.1277 44.4678 21.1277 44.1974C21.1277 43.927 21.2403 43.7581 21.4487 43.5497C21.5556 43.4454 21.6877 43.3275 21.8343 43.1966C22.6222 42.4933 23.8312 41.4139 23.8312 40.0464V39.8887C23.8312 39.2748 23.4763 38.9425 22.868 38.9425H17.3653C16.7739 38.9425 16.4472 39.2748 16.4472 39.8493V40.0464C16.4472 41.4093 17.6481 42.486 18.4327 43.1895L18.4327 43.1895C18.5819 43.3232 18.7161 43.4435 18.824 43.5497C19.0381 43.7581 19.1507 43.927 19.1507 44.1974C19.1507 44.4678 19.0324 44.648 18.824 44.8507C18.7309 44.94 18.6188 45.041 18.4947 45.1528L18.4947 45.1528C17.7108 45.859 16.4472 46.9974 16.4472 48.354V48.5624C16.4472 49.1369 16.7739 49.4692 17.3653 49.4692ZM18.0017 48.5793C17.7088 48.5793 17.6131 48.247 17.8834 48.0443L19.7815 46.6193C19.8435 46.5742 19.8829 46.5292 19.8829 46.4503V43.6792C19.8829 43.3807 19.8153 43.2286 19.5957 43.0371C19.5206 42.972 19.425 42.8945 19.3192 42.8087C19.0039 42.553 18.5984 42.2242 18.3791 41.9332C18.2664 41.7811 18.2777 41.6572 18.4129 41.6572H21.8599C21.995 41.6572 22.0119 41.7811 21.8993 41.9332C21.6751 42.2307 21.2561 42.5678 20.9355 42.8258C20.8374 42.9048 20.7484 42.9764 20.6771 43.0371C20.4574 43.223 20.3955 43.3807 20.3955 43.6792V46.4503C20.3955 46.5292 20.4349 46.5742 20.4968 46.6193L22.3949 48.0443C22.6709 48.247 22.5639 48.5793 22.2766 48.5793H18.0017ZM19.966 52.2507C24.4387 52.2507 28.0645 48.6248 28.0645 44.1521C28.0645 39.6794 24.4387 36.0536 19.966 36.0536C15.4933 36.0536 11.8674 39.6794 11.8674 44.1521C11.8674 48.6248 15.4933 52.2507 19.966 52.2507Z" fill="#9C171E"/>
</svg>
