<svg width="70" height="70" viewBox="0 0 70 70" fill="none" xmlns="http://www.w3.org/2000/svg">
<g id="auto-apply-promotion">
<g id="Group 1000001220">
<g id="Group 1000001171">
<path id="arrow.triangle.2.circlepath" d="M55.6155 32.2733H53.0872C52.0217 22.6917 44.0755 15 34.504 15C29.2126 15 24.4088 17.419 21.0858 21.1987C20.2009 22.1059 20.237 23.3154 20.9594 24.0146C21.6999 24.7328 22.7654 24.7328 23.6683 23.8635C26.3592 20.8208 30.2239 18.912 34.504 18.912C42.1251 18.912 48.2834 24.7517 49.3127 32.2733H46.5496C45.1591 32.2733 44.7798 33.3506 45.5925 34.5223L49.9087 40.91C50.5769 41.8549 51.5882 41.8738 52.2384 40.91L56.5726 34.5412C57.3853 33.3506 57.0241 32.2733 55.6155 32.2733ZM13.3925 36.8279H15.9389C17.0044 46.4095 24.9506 54.1013 34.504 54.1013C39.8315 54.1013 44.6353 51.6633 47.9583 47.8836C48.8251 46.9765 48.789 45.767 48.0666 45.0677C47.3262 44.3496 46.2788 44.3496 45.3577 45.2378C42.703 48.2805 38.8383 50.1892 34.504 50.1892C26.901 50.1892 20.7427 44.3496 19.7133 36.8279H22.4584C23.8309 36.8279 24.2282 35.7507 23.4155 34.579L19.0812 28.1912C18.4311 27.2463 17.4198 27.2274 16.7696 28.1912L12.4354 34.5601C11.6046 35.7507 11.9839 36.8279 13.3925 36.8279Z" fill="#9C171E"/>
</g>
<path id="Vector" d="M37.9664 26.8449L30.2593 32.9476L31.8978 37.9495L32.478 37.9707L32.2255 39.8369C32.1967 40.0491 32.2127 40.2661 32.2727 40.4731C32.3326 40.6801 32.4349 40.8723 32.5728 41.0366C32.7107 41.201 32.8808 41.3337 33.0717 41.4257C33.2626 41.5177 33.4698 41.5669 33.6792 41.5699L36.8246 41.6164C37.1757 41.6193 37.5138 41.4933 37.778 41.2612C38.0423 41.0291 38.2152 40.7062 38.2656 40.3508L38.5575 38.1932L41.7218 38.3095C41.8388 38.3137 41.9546 38.2891 42.0594 38.2376C42.1641 38.1862 42.2549 38.1095 42.3239 38.0139C42.3929 37.9183 42.4383 37.8067 42.4561 37.6884C42.4739 37.5701 42.4637 37.4486 42.4263 37.3341L39.1114 27.2144C39.0738 27.1 39.0102 26.996 38.9258 26.9112C38.8414 26.8264 38.7388 26.7632 38.6266 26.727C38.5144 26.6908 38.3959 26.6826 38.281 26.7031C38.1661 26.7236 38.0582 26.7723 37.9664 26.8449ZM36.818 40.1176L33.6733 40.0708L33.9498 38.0251L37.0855 38.1405L36.818 40.1176V40.1176ZM29.1291 38.8565L30.5134 38.403L28.8749 33.401L27.4906 33.8545C26.7271 34.1046 26.3162 34.9489 26.5744 35.7371L27.2766 37.8808C27.5348 38.669 28.3656 39.1066 29.1291 38.8565Z" fill="#9C171E"/>
</g>
</g>
</svg>
