<svg width="70" height="70" viewBox="0 0 70 70" fill="none" xmlns="http://www.w3.org/2000/svg">
<path d="M57.4276 33.054L53.1001 28.7266L52.5358 29.2909L51.9715 28.7266C51.7435 29.0206 51.4974 29.3088 51.2272 29.5788C50.957 29.849 50.6691 30.0888 50.375 30.3231L50.9393 30.8874L50.375 31.4517L54.7087 35.7788C55.4589 36.529 56.6774 36.529 57.4338 35.7788C58.1781 35.0227 58.1781 33.8043 57.4276 33.054L57.4276 33.054Z" fill="#9C171E"/>
<path d="M39.6562 23.048C39.6562 25.8329 41.9252 28.1018 44.7101 28.1018C47.495 28.1018 49.7639 25.8329 49.7639 23.048C49.7639 20.2631 47.495 17.9941 44.7101 17.9941C41.9249 17.9941 39.6562 20.2631 39.6562 23.048ZM45.3041 19.4407V19.8909C46.0785 20.1432 46.6425 20.8633 46.6425 21.7154C46.6425 22.0396 46.3785 22.3098 46.0481 22.3098C45.724 22.3098 45.4538 22.0458 45.4538 21.7154C45.4538 21.3073 45.1176 20.9711 44.7095 20.9711C44.3013 20.9711 43.9651 21.3073 43.9651 21.7154C43.9651 22.1236 44.3013 22.4598 44.7095 22.4598C45.7717 22.4598 46.6363 23.324 46.6363 24.3866C46.6363 25.245 46.072 25.9593 45.2979 26.2111V26.6614C45.2979 26.9855 45.0339 27.2557 44.7036 27.2557C44.3794 27.2557 44.1092 26.9917 44.1092 26.6614V26.2111C43.3348 25.9589 42.7708 25.2387 42.7708 24.3866C42.7708 24.0625 43.0348 23.7922 43.3652 23.7922C43.6893 23.7922 43.9596 24.0562 43.9596 24.3866C43.9596 24.7947 44.2958 25.1309 44.7039 25.1309C45.112 25.1309 45.4482 24.7947 45.4482 24.3866C45.4482 23.9785 45.112 23.6423 44.7039 23.6423C43.6416 23.6423 42.7771 22.778 42.7771 21.7154C42.7771 20.8571 43.3414 20.1428 44.1154 19.8909V19.4407C44.1154 19.1165 44.3794 18.8463 44.7098 18.8463C45.0401 18.8466 45.3041 19.1106 45.3041 19.4407Z" fill="#9C171E"/>
<path d="M39.015 17.3587C35.87 20.5037 35.87 25.5997 39.015 28.7449C42.16 31.8899 47.256 31.8899 50.4011 28.7449C53.5461 25.5999 53.5461 20.5039 50.4011 17.3587C47.2561 14.2138 42.1605 14.2138 39.015 17.3587ZM50.9473 23.0487C50.9473 26.4881 48.1503 29.2851 44.711 29.2851C41.2716 29.2851 38.4746 26.4881 38.4746 23.0487C38.475 19.6097 41.2719 16.8127 44.7113 16.8127C48.1503 16.8127 50.9473 19.6097 50.9473 23.0487Z" fill="#9C171E"/>
<path d="M34.0616 32.8613H38.4953C39.1074 32.8613 39.6038 33.6572 39.6038 34.3024V53.0348C39.6038 53.8307 39.1074 54.4759 38.4953 54.4759H34.0616C33.4495 54.4759 32.9531 53.6801 32.9531 53.0348V34.3024C32.9531 33.5066 33.4495 32.8613 34.0616 32.8613Z" fill="#9C171E"/>
<path d="M24.0772 39.5117H28.5109C29.1231 39.5117 29.6194 40.263 29.6194 40.8722V53.1152C29.6194 53.8665 29.1231 54.4757 28.5109 54.4757H24.0772C23.4651 54.4757 22.9688 53.7244 22.9688 53.1152V40.8722C22.9688 40.1209 23.4651 39.5117 24.0772 39.5117V39.5117Z" fill="#9C171E"/>
<path d="M14.1085 44.5H18.5421C19.1543 44.5 19.6506 45.2871 19.6506 45.9252V53.0508C19.6506 53.8378 19.1543 54.476 18.5421 54.476H14.1085C13.4963 54.476 13 53.6889 13 53.0508V45.9252C13 45.1381 13.4963 44.5 14.1085 44.5Z" fill="#9C171E"/>
</svg>
