<svg width="70" height="70" viewBox="0 0 70 70" fill="none" xmlns="http://www.w3.org/2000/svg">
<path fill-rule="evenodd" clip-rule="evenodd" d="M41.0786 24.1951H22.7422L22.4614 22.2994C22.2332 20.7723 21.6189 20 19.6705 20H13.6499C12.7723 20 12 20.7723 12 21.6675C12 22.5802 12.7723 23.3526 13.6499 23.3526H19.1439L21.8646 41.9233C22.2508 44.5737 23.655 46.1886 26.3405 46.1886H46.7718C47.5968 46.1886 48.3516 45.5391 48.3516 44.6088C48.3516 43.6961 47.5968 43.0466 46.7718 43.0466H26.7442C25.9017 43.0466 25.3751 42.4674 25.2523 41.5722L24.9714 39.7467H46.9122C49.5978 39.7467 51.0196 38.1143 51.4057 35.4463L51.9535 31.7874C51.3245 31.9266 50.6708 32 50 32C45.4346 32 41.6632 28.6007 41.0786 24.1951ZM27.7798 55C26.0772 55 24.7081 53.6309 24.7081 51.9283C24.7081 50.2257 26.0772 48.8566 27.7798 48.8566C29.4824 48.8566 30.8516 50.2257 30.8516 51.9283C30.8516 53.6309 29.4824 55 27.7798 55ZM43.9985 55C42.2959 55 40.9092 53.6309 40.9092 51.9283C40.9092 50.2257 42.2959 48.8566 43.9985 48.8566C45.7011 48.8566 47.0527 50.2257 47.0527 51.9283C47.0527 53.6309 45.7011 55 43.9985 55Z" fill="#9C171E"/>
<path fill-rule="evenodd" clip-rule="evenodd" d="M50 30C53.866 30 57 26.866 57 23C57 19.134 53.866 16 50 16C46.134 16 43 19.134 43 23C43 26.866 46.134 30 50 30ZM51.1589 21.2195L53.4745 21.5499C53.6341 21.5732 53.7453 21.7182 53.7207 21.8749C53.7116 21.9376 53.6815 21.9949 53.6359 22.0387L51.9606 23.6423L52.3564 25.9066C52.3837 26.0623 52.277 26.2101 52.1184 26.2369C52.0554 26.2477 51.9898 26.2378 51.9332 26.2083L49.8621 25.1393L47.791 26.2083C47.7428 26.2332 47.6885 26.2445 47.6342 26.2407C47.5799 26.2369 47.5277 26.2182 47.4837 26.1868C47.4396 26.1554 47.4054 26.1125 47.3849 26.0629C47.3644 26.0134 47.3585 25.9592 47.3678 25.9066L47.7636 23.6423L46.0883 22.0387C46.0328 21.9857 46.0011 21.9131 46 21.8371C45.999 21.761 46.0288 21.6877 46.0828 21.6332C46.1275 21.5884 46.1858 21.5588 46.2497 21.5499L48.5652 21.2195L49.6003 19.1594C49.6724 19.0179 49.8475 18.9597 49.9916 19.0295C50.049 19.0573 50.0956 19.103 50.1238 19.1594L51.1589 21.2195Z" fill="#9C171E"/>
</svg>
