<svg width="70" height="70" viewBox="0 0 70 70" fill="none" xmlns="http://www.w3.org/2000/svg">
<g id="manajemen-akuntansi-akurat">
<path id="Vector" d="M29.6304 12C28.3665 12 27.2882 12.8259 26.8791 13.9565H15.9348C14.3167 13.9565 13 15.2733 13 16.8913V51.1304C13 52.7485 14.3167 54.0652 15.9348 54.0652H31.587V31.5652C31.587 28.8682 33.7812 26.6739 36.4783 26.6739H46.2609V16.8913C46.2609 15.2733 44.9441 13.9565 43.3261 13.9565H32.3818C31.9727 12.8259 30.8944 12 29.6304 12ZM29.6304 13.9565C30.1823 13.9565 30.6087 14.3829 30.6087 14.9348C30.6087 15.4866 30.1823 15.913 29.6304 15.913C29.0786 15.913 28.6522 15.4866 28.6522 14.9348C28.6522 14.3829 29.0786 13.9565 29.6304 13.9565ZM21.8043 15.913H26.8791C27.2882 17.0437 28.3665 17.8696 29.6304 17.8696C30.8944 17.8696 31.9727 17.0437 32.3818 15.913H37.4565V18.8478C37.4565 19.9288 36.581 20.8043 35.5 20.8043H23.7609C22.6799 20.8043 21.8043 19.9288 21.8043 18.8478V17.8696V15.913ZM21.8043 25.6957H23.7609V31.5652H25.7174V27.6522H27.6739V31.5652H29.6304V33.5217H15.9348V31.5652H17.8913V28.6304H19.8478V31.5652H21.8043V25.6957ZM36.4783 28.6304C34.8602 28.6304 33.5435 29.9472 33.5435 31.5652V54.0652C33.5435 55.6833 34.8602 57 36.4783 57H54.087C55.705 57 57.0217 55.6833 57.0217 54.0652V31.5652C57.0217 29.9472 55.705 28.6304 54.087 28.6304H36.4783ZM38.4348 32.5435H52.1304C52.6714 32.5435 53.1087 32.9817 53.1087 33.5217V37.4348C53.1087 37.9758 52.6714 38.413 52.1304 38.413H38.4348C37.8938 38.413 37.4565 37.9758 37.4565 37.4348V33.5217C37.4565 32.9817 37.8938 32.5435 38.4348 32.5435ZM22.7826 37.4348C26.0197 37.4348 28.6522 40.0673 28.6522 43.3043C28.6522 46.5414 26.0197 49.1739 22.7826 49.1739C19.5455 49.1739 16.913 46.5414 16.913 43.3043C16.913 40.0673 19.5455 37.4348 22.7826 37.4348ZM22.7826 39.3913C20.6246 39.3913 18.8696 41.1463 18.8696 43.3043C18.8696 45.4624 20.6246 47.2174 22.7826 47.2174C24.9407 47.2174 26.6957 45.4624 26.6957 43.3043H22.7826V39.3913ZM38.4348 40.3696H40.3913C40.9313 40.3696 41.3696 40.8078 41.3696 41.3478V42.3261C41.3696 42.8661 40.9313 43.3043 40.3913 43.3043H38.4348C37.8948 43.3043 37.4565 42.8661 37.4565 42.3261V41.3478C37.4565 40.8078 37.8948 40.3696 38.4348 40.3696ZM44.3043 40.3696H46.2609C46.8009 40.3696 47.2391 40.8078 47.2391 41.3478V42.3261C47.2391 42.8661 46.8009 43.3043 46.2609 43.3043H44.3043C43.7643 43.3043 43.3261 42.8661 43.3261 42.3261V41.3478C43.3261 40.8078 43.7643 40.3696 44.3043 40.3696ZM50.1739 40.3696H52.1304C52.6704 40.3696 53.1087 40.8078 53.1087 41.3478V42.3261C53.1087 42.8661 52.6704 43.3043 52.1304 43.3043H50.1739C49.6339 43.3043 49.1957 42.8661 49.1957 42.3261V41.3478C49.1957 40.8078 49.6339 40.3696 50.1739 40.3696ZM38.4348 45.2609H40.3913C40.9313 45.2609 41.3696 45.6991 41.3696 46.2391V47.2174C41.3696 47.7574 40.9313 48.1957 40.3913 48.1957H38.4348C37.8948 48.1957 37.4565 47.7574 37.4565 47.2174V46.2391C37.4565 45.6991 37.8948 45.2609 38.4348 45.2609ZM44.3043 45.2609H46.2609C46.8009 45.2609 47.2391 45.6991 47.2391 46.2391V47.2174C47.2391 47.7574 46.8009 48.1957 46.2609 48.1957H44.3043C43.7643 48.1957 43.3261 47.7574 43.3261 47.2174V46.2391C43.3261 45.6991 43.7643 45.2609 44.3043 45.2609ZM50.1739 45.2609H52.1304C52.6704 45.2609 53.1087 45.6991 53.1087 46.2391V47.2174C53.1087 47.7574 52.6704 48.1957 52.1304 48.1957H50.1739C49.6339 48.1957 49.1957 47.7574 49.1957 47.2174V46.2391C49.1957 45.6991 49.6339 45.2609 50.1739 45.2609ZM38.4348 50.1522H40.3913C40.9313 50.1522 41.3696 50.5904 41.3696 51.1304V52.1087C41.3696 52.6487 40.9313 53.087 40.3913 53.087H38.4348C37.8948 53.087 37.4565 52.6487 37.4565 52.1087V51.1304C37.4565 50.5904 37.8948 50.1522 38.4348 50.1522ZM44.3043 50.1522H46.2609C46.8009 50.1522 47.2391 50.5904 47.2391 51.1304V52.1087C47.2391 52.6487 46.8009 53.087 46.2609 53.087H44.3043C43.7643 53.087 43.3261 52.6487 43.3261 52.1087V51.1304C43.3261 50.5904 43.7643 50.1522 44.3043 50.1522ZM50.1739 50.1522H52.1304C52.6704 50.1522 53.1087 50.5904 53.1087 51.1304V52.1087C53.1087 52.6487 52.6704 53.087 52.1304 53.087H50.1739C49.6339 53.087 49.1957 52.6487 49.1957 52.1087V51.1304C49.1957 50.5904 49.6339 50.1522 50.1739 50.1522Z" fill="#9C171E"/>
</g>
</svg>
