<svg width="70" height="70" viewBox="0 0 70 70" fill="none" xmlns="http://www.w3.org/2000/svg">
<path d="M20.3401 55.5069C20.4564 55.5653 20.5849 55.5957 20.715 55.5957V55.5957C20.8387 55.5957 20.9618 55.5716 21.0747 55.5211C21.1038 55.5081 21.1327 55.4946 21.1611 55.4803C23.8037 54.1508 26.4468 52.8212 29.0904 51.4917C29.3871 51.3434 29.5156 51.1293 29.5156 50.794C29.5093 47.8396 29.5093 44.8853 29.5156 41.9311C29.5156 41.593 29.3852 41.3851 29.0866 41.2382C28.0612 40.7342 27.7549 40.6645 26.7352 40.148C26.691 40.121 26.1715 39.8765 25.8383 39.8765C25.5051 39.8765 24.896 40.121 24.8518 40.148C22.166 41.5513 20.5461 42.3744 17.8559 43.7688C17.4972 43.9498 17.4967 44.2565 17.4972 44.4024C17.5029 45.7772 17.4948 46.937 17.4939 48.3123C17.4939 48.607 17.3734 48.6819 17.1159 48.5465C16.6363 48.2947 16.1604 48.0343 15.6766 47.7911C15.5027 47.7038 15.4403 47.5894 15.4403 47.3962C15.446 46.0032 15.4498 44.6103 15.437 43.2173C15.437 42.9789 15.5145 42.8677 15.7153 42.7647C18.3466 41.4113 20.4314 40.425 23.058 39.0618C23.0813 39.0498 23.2062 38.9676 23.3465 38.8748C23.5345 38.7505 23.5283 38.4392 23.327 38.3376V38.3376C22.4968 37.9213 21.9658 37.6783 21.1389 37.2558C20.8828 37.1251 20.6489 37.1304 20.3923 37.2591C17.7497 38.5887 15.1036 39.9135 12.454 41.2335C12.1337 41.3927 12.0009 41.605 12.0018 41.9636C12.0097 44.8885 12.0097 47.8133 12.0018 50.7382C12.0018 51.1135 12.1488 51.3348 12.4744 51.4974C15.1564 52.8287 17.6715 54.1652 20.3401 55.5069Z" fill="#9C171E"/>
<path d="M51.1702 36.3445C50.6017 35.7367 49.681 35.7367 49.1126 36.3445L46.2023 39.4558C45.6339 40.0635 45.6339 41.0478 46.2023 41.6555C46.7708 42.2632 47.6915 42.2632 48.2599 41.6555L48.4581 41.4437C47.3926 47.1399 42.6814 51.4456 37.0453 51.4456H34.135C33.3315 51.4456 32.6797 52.142 32.6797 53.0015C32.6797 53.8605 33.3311 54.5573 34.135 54.5573H37.0453C44.4182 54.5573 50.5121 48.6603 51.4561 41.0495L52.0234 41.6559C52.3076 41.9598 52.6798 42.1117 53.0523 42.1117C53.4245 42.1117 53.7971 41.9598 54.0813 41.6559C54.6498 41.0482 54.6498 40.0639 54.0813 39.4562L51.1702 36.3445Z" fill="#9C171E"/>
<path d="M17.7746 33.4277C18.0588 33.7316 18.431 33.8835 18.8032 33.8835C19.1754 33.8835 19.5479 33.7316 19.8322 33.4277L22.7425 30.3164C23.3109 29.7087 23.3109 28.7244 22.7425 28.1167C22.174 27.509 21.2533 27.5089 20.6849 28.1167L20.4867 28.3285C21.5522 22.6323 26.2634 18.3266 31.8995 18.3266H34.8098C35.6133 18.3266 36.2651 17.6302 36.2651 16.7707C36.2651 15.9117 35.6137 15.2148 34.8098 15.2148H31.8995C24.5265 15.2148 18.4326 21.1119 17.4887 28.7227L16.9214 28.1162C16.353 27.5085 15.4323 27.5085 14.8638 28.1162C14.2954 28.724 14.2954 29.7083 14.8638 30.316L17.7746 33.4277Z" fill="#9C171E"/>
<path d="M47.8743 32.2418C52.8734 32.2418 56.9996 28.1136 56.9996 23.1209C56.9996 18.1282 52.8646 14 47.8655 14C42.8752 14 38.7578 18.1282 38.7578 23.1209C38.7578 28.1136 42.884 32.2418 47.8743 32.2418ZM47.8655 28.2724C47.6274 28.2724 47.4511 28.0959 47.4511 27.8489V27.2227C46.1374 27.1168 45.1676 26.4288 44.9031 25.4585C44.8678 25.3438 44.8502 25.2379 44.8502 25.1321C44.8502 24.7616 45.1059 24.5058 45.485 24.5058C45.8024 24.5058 46.014 24.6734 46.1462 24.9998C46.2873 25.5378 46.7193 25.9348 47.4511 26.0406V23.6413L47.2924 23.6061C45.7671 23.2532 44.9736 22.5475 44.9736 21.3567C44.9736 20.0688 46.0052 19.1867 47.4511 19.0544V18.437C47.4511 18.1811 47.6274 18.0135 47.8655 18.0135C48.1035 18.0135 48.2887 18.19 48.2887 18.437V19.0544C49.523 19.1779 50.44 19.8571 50.6868 20.801C50.7133 20.9068 50.7397 21.0127 50.7397 21.1185C50.7397 21.4714 50.4841 21.7272 50.1137 21.7272C49.7875 21.7272 49.5759 21.5419 49.4437 21.242C49.2673 20.7039 48.8706 20.3599 48.2887 20.2541V22.5211L48.4915 22.5652C50.0873 22.8651 50.8896 23.5972 50.8896 24.8498C50.8896 26.2435 49.7787 27.0992 48.2887 27.2315V27.8489C48.2887 28.0959 48.1035 28.2724 47.8655 28.2724ZM47.4511 22.3094V20.2453C46.7546 20.3599 46.3314 20.7745 46.3314 21.2685C46.3314 21.7625 46.6576 22.08 47.3894 22.2917L47.4511 22.3094ZM48.2887 23.8442V26.0406C49.1263 25.9436 49.5407 25.5202 49.5407 24.9468C49.5407 24.4352 49.2497 24.1 48.4562 23.8883L48.2887 23.8442Z" fill="#9C171E"/>
</svg>
