<svg width="70" height="70" viewBox="0 0 70 70" fill="none" xmlns="http://www.w3.org/2000/svg">
<g id="multi-channel-ecommerce">
<g id="Group 1171274782">
<path id="Vector (Stroke)" fill-rule="evenodd" clip-rule="evenodd" d="M38.1084 49.5664C38.1084 47.3734 39.8861 45.5957 42.0791 45.5957C44.2721 45.5957 46.0498 47.3734 46.0498 49.5664C46.0498 51.7593 44.2723 53.5373 42.0791 53.5373C39.8859 53.5373 38.1084 51.7593 38.1084 49.5664ZM42.0791 48.5641C41.5255 48.5641 41.0768 49.0128 41.0768 49.5664C41.0768 50.1202 41.5256 50.5689 42.0791 50.5689C42.6326 50.5689 43.0814 50.1202 43.0814 49.5664C43.0814 49.0128 42.6327 48.5641 42.0791 48.5641Z" fill="#9C171E"/>
<path id="Vector (Stroke)_2" fill-rule="evenodd" clip-rule="evenodd" d="M21.9463 49.5664C21.9463 47.3734 23.724 45.5957 25.917 45.5957C28.11 45.5957 29.8877 47.3734 29.8877 49.5664C29.8877 51.7593 28.1102 53.5373 25.917 53.5373C23.7238 53.5373 21.9463 51.7593 21.9463 49.5664ZM25.917 48.5641C25.3634 48.5641 24.9147 49.0128 24.9147 49.5664C24.9147 50.1202 25.3635 50.5689 25.917 50.5689C26.4705 50.5689 26.9193 50.1202 26.9193 49.5664C26.9193 49.0128 26.4706 48.5641 25.917 48.5641Z" fill="#9C171E"/>
<path id="Vector" fill-rule="evenodd" clip-rule="evenodd" d="M46.0978 39.584L46.0124 39.9538C45.8571 40.6271 45.2574 41.1041 44.5663 41.1041H24.1253L24.6027 43.1088H44.5663C45.3859 43.1088 46.0505 43.7734 46.0505 44.5932C46.0505 45.4128 45.3859 46.0773 44.5663 46.0773H23.4304C22.7432 46.0773 22.1458 45.6056 21.9867 44.937L20.8945 40.3497C20.7725 40.1342 20.703 39.8853 20.703 39.62C20.703 39.5973 20.7034 39.5746 20.7046 39.552L16.0417 19.9684H13.4842C12.6645 19.9684 12 19.3039 12 18.4842C12 17.6645 12.6645 17 13.4842 17H17.214C17.9013 17 18.4987 17.4718 18.6579 18.1404L19.5704 21.9731H35.7623C35.3308 22.9058 35.0114 23.9011 34.8217 24.9416H20.2772L23.4187 38.1358H41.1561C42.6466 38.94 44.3199 39.4489 46.0978 39.584Z" fill="#9C171E"/>
<g id="Vector_2">
<mask id="path-4-outside-1_5921_46707" maskUnits="userSpaceOnUse" x="36.1074" y="16.2422" width="22" height="22" fill="black">
<rect fill="white" x="36.1074" y="16.2422" width="22" height="22"/>
<path d="M37.1074 27.1885C37.1074 24.5506 38.1552 22.0206 40.0205 20.1553C41.8857 18.2901 44.4157 17.2422 47.0537 17.2422C49.6916 17.2422 52.2214 18.2901 54.0867 20.1553C55.9519 22.0206 56.9999 24.5506 56.9999 27.1885C56.9999 29.8264 55.9519 32.3562 54.0867 34.2215C52.2214 36.0868 49.6916 37.1347 47.0537 37.1347C44.4157 37.1347 41.8857 36.0868 40.0205 34.2215C38.1552 32.3562 37.1074 29.8264 37.1074 27.1885ZM46.432 18.5812C45.599 18.8348 44.7722 19.6007 44.086 20.8876C43.8597 21.3153 43.6654 21.7591 43.504 22.2153H46.432V18.5812ZM42.1924 22.2153C42.3996 21.555 42.6659 20.9145 42.9882 20.3019C43.2031 19.8954 43.4513 19.5074 43.7302 19.1419C42.1899 19.7807 40.8645 20.8472 39.911 22.2153H42.1924ZM41.4688 26.5669C41.5061 25.4764 41.6404 24.4309 41.8567 23.4585H39.1886C38.7251 24.4346 38.4484 25.4889 38.373 26.5669H41.4688ZM43.1336 23.4585C42.8891 24.4778 42.7482 25.5193 42.7132 26.5669H46.432V23.4585H43.1336ZM47.6753 23.4585V26.5669H51.3927C51.3583 25.5193 51.2179 24.4778 50.9737 23.4585H47.6753ZM42.7146 27.8101C42.749 28.8577 42.8895 29.899 43.1336 30.9183H46.432V27.8101H42.7146ZM47.6753 27.8101V30.9183H50.9737C51.2061 29.9673 51.3541 28.9191 51.3939 27.8101H47.6753ZM43.504 32.1615C43.6756 32.6415 43.8709 33.0866 44.086 33.4894C44.7722 34.7762 45.6001 35.5407 46.432 35.7957V32.1615H43.504ZM43.7302 35.235C43.4513 34.8695 43.2031 34.4814 42.9882 34.0751C42.6659 33.4623 42.3996 32.822 42.1924 32.1615H39.911C40.8645 33.5296 42.1899 34.5963 43.7302 35.235ZM41.8567 30.9183C41.6318 29.8965 41.5019 28.856 41.4688 27.8101H38.373C38.4501 28.9166 38.7349 29.9648 39.1886 30.9183H41.8567ZM50.3769 35.235C51.9174 34.5963 53.2426 33.5296 54.1963 32.1615H51.9149C51.7077 32.822 51.4412 33.4623 51.1192 34.0751C50.9042 34.4814 50.6559 34.8695 50.3769 35.235ZM47.6753 32.1615V35.7957C48.5082 35.5421 49.3351 34.7762 50.0213 33.4894C50.2364 33.0866 50.4315 32.6415 50.6032 32.1615H47.6753ZM52.2504 30.9183H54.9186C55.3724 29.9648 55.6572 28.9166 55.7341 27.8101H52.6385C52.6052 28.856 52.4753 29.8965 52.2504 30.9183ZM55.7341 26.5669C55.6589 25.4889 55.3822 24.4346 54.9186 23.4585H52.2504C52.4669 24.4309 52.6012 25.4764 52.6385 26.5669H55.7341ZM51.1192 20.3019C51.4262 20.8787 51.6935 21.5204 51.9149 22.2153H54.1963C53.2426 20.8472 51.9174 19.7807 50.3769 19.1419C50.648 19.495 50.8966 19.8854 51.1192 20.3019ZM50.6032 22.2153C50.4419 21.7591 50.2474 21.3153 50.0213 20.8876C49.3351 19.6007 48.5082 18.8361 47.6753 18.5812V22.2153H50.6032Z"/>
</mask>
<path d="M37.1074 27.1885C37.1074 24.5506 38.1552 22.0206 40.0205 20.1553C41.8857 18.2901 44.4157 17.2422 47.0537 17.2422C49.6916 17.2422 52.2214 18.2901 54.0867 20.1553C55.9519 22.0206 56.9999 24.5506 56.9999 27.1885C56.9999 29.8264 55.9519 32.3562 54.0867 34.2215C52.2214 36.0868 49.6916 37.1347 47.0537 37.1347C44.4157 37.1347 41.8857 36.0868 40.0205 34.2215C38.1552 32.3562 37.1074 29.8264 37.1074 27.1885ZM46.432 18.5812C45.599 18.8348 44.7722 19.6007 44.086 20.8876C43.8597 21.3153 43.6654 21.7591 43.504 22.2153H46.432V18.5812ZM42.1924 22.2153C42.3996 21.555 42.6659 20.9145 42.9882 20.3019C43.2031 19.8954 43.4513 19.5074 43.7302 19.1419C42.1899 19.7807 40.8645 20.8472 39.911 22.2153H42.1924ZM41.4688 26.5669C41.5061 25.4764 41.6404 24.4309 41.8567 23.4585H39.1886C38.7251 24.4346 38.4484 25.4889 38.373 26.5669H41.4688ZM43.1336 23.4585C42.8891 24.4778 42.7482 25.5193 42.7132 26.5669H46.432V23.4585H43.1336ZM47.6753 23.4585V26.5669H51.3927C51.3583 25.5193 51.2179 24.4778 50.9737 23.4585H47.6753ZM42.7146 27.8101C42.749 28.8577 42.8895 29.899 43.1336 30.9183H46.432V27.8101H42.7146ZM47.6753 27.8101V30.9183H50.9737C51.2061 29.9673 51.3541 28.9191 51.3939 27.8101H47.6753ZM43.504 32.1615C43.6756 32.6415 43.8709 33.0866 44.086 33.4894C44.7722 34.7762 45.6001 35.5407 46.432 35.7957V32.1615H43.504ZM43.7302 35.235C43.4513 34.8695 43.2031 34.4814 42.9882 34.0751C42.6659 33.4623 42.3996 32.822 42.1924 32.1615H39.911C40.8645 33.5296 42.1899 34.5963 43.7302 35.235ZM41.8567 30.9183C41.6318 29.8965 41.5019 28.856 41.4688 27.8101H38.373C38.4501 28.9166 38.7349 29.9648 39.1886 30.9183H41.8567ZM50.3769 35.235C51.9174 34.5963 53.2426 33.5296 54.1963 32.1615H51.9149C51.7077 32.822 51.4412 33.4623 51.1192 34.0751C50.9042 34.4814 50.6559 34.8695 50.3769 35.235ZM47.6753 32.1615V35.7957C48.5082 35.5421 49.3351 34.7762 50.0213 33.4894C50.2364 33.0866 50.4315 32.6415 50.6032 32.1615H47.6753ZM52.2504 30.9183H54.9186C55.3724 29.9648 55.6572 28.9166 55.7341 27.8101H52.6385C52.6052 28.856 52.4753 29.8965 52.2504 30.9183ZM55.7341 26.5669C55.6589 25.4889 55.3822 24.4346 54.9186 23.4585H52.2504C52.4669 24.4309 52.6012 25.4764 52.6385 26.5669H55.7341ZM51.1192 20.3019C51.4262 20.8787 51.6935 21.5204 51.9149 22.2153H54.1963C53.2426 20.8472 51.9174 19.7807 50.3769 19.1419C50.648 19.495 50.8966 19.8854 51.1192 20.3019ZM50.6032 22.2153C50.4419 21.7591 50.2474 21.3153 50.0213 20.8876C49.3351 19.6007 48.5082 18.8361 47.6753 18.5812V22.2153H50.6032Z" fill="#9C171E"/>
<path d="M37.1074 27.1885C37.1074 24.5506 38.1552 22.0206 40.0205 20.1553C41.8857 18.2901 44.4157 17.2422 47.0537 17.2422C49.6916 17.2422 52.2214 18.2901 54.0867 20.1553C55.9519 22.0206 56.9999 24.5506 56.9999 27.1885C56.9999 29.8264 55.9519 32.3562 54.0867 34.2215C52.2214 36.0868 49.6916 37.1347 47.0537 37.1347C44.4157 37.1347 41.8857 36.0868 40.0205 34.2215C38.1552 32.3562 37.1074 29.8264 37.1074 27.1885ZM46.432 18.5812C45.599 18.8348 44.7722 19.6007 44.086 20.8876C43.8597 21.3153 43.6654 21.7591 43.504 22.2153H46.432V18.5812ZM42.1924 22.2153C42.3996 21.555 42.6659 20.9145 42.9882 20.3019C43.2031 19.8954 43.4513 19.5074 43.7302 19.1419C42.1899 19.7807 40.8645 20.8472 39.911 22.2153H42.1924ZM41.4688 26.5669C41.5061 25.4764 41.6404 24.4309 41.8567 23.4585H39.1886C38.7251 24.4346 38.4484 25.4889 38.373 26.5669H41.4688ZM43.1336 23.4585C42.8891 24.4778 42.7482 25.5193 42.7132 26.5669H46.432V23.4585H43.1336ZM47.6753 23.4585V26.5669H51.3927C51.3583 25.5193 51.2179 24.4778 50.9737 23.4585H47.6753ZM42.7146 27.8101C42.749 28.8577 42.8895 29.899 43.1336 30.9183H46.432V27.8101H42.7146ZM47.6753 27.8101V30.9183H50.9737C51.2061 29.9673 51.3541 28.9191 51.3939 27.8101H47.6753ZM43.504 32.1615C43.6756 32.6415 43.8709 33.0866 44.086 33.4894C44.7722 34.7762 45.6001 35.5407 46.432 35.7957V32.1615H43.504ZM43.7302 35.235C43.4513 34.8695 43.2031 34.4814 42.9882 34.0751C42.6659 33.4623 42.3996 32.822 42.1924 32.1615H39.911C40.8645 33.5296 42.1899 34.5963 43.7302 35.235ZM41.8567 30.9183C41.6318 29.8965 41.5019 28.856 41.4688 27.8101H38.373C38.4501 28.9166 38.7349 29.9648 39.1886 30.9183H41.8567ZM50.3769 35.235C51.9174 34.5963 53.2426 33.5296 54.1963 32.1615H51.9149C51.7077 32.822 51.4412 33.4623 51.1192 34.0751C50.9042 34.4814 50.6559 34.8695 50.3769 35.235ZM47.6753 32.1615V35.7957C48.5082 35.5421 49.3351 34.7762 50.0213 33.4894C50.2364 33.0866 50.4315 32.6415 50.6032 32.1615H47.6753ZM52.2504 30.9183H54.9186C55.3724 29.9648 55.6572 28.9166 55.7341 27.8101H52.6385C52.6052 28.856 52.4753 29.8965 52.2504 30.9183ZM55.7341 26.5669C55.6589 25.4889 55.3822 24.4346 54.9186 23.4585H52.2504C52.4669 24.4309 52.6012 25.4764 52.6385 26.5669H55.7341ZM51.1192 20.3019C51.4262 20.8787 51.6935 21.5204 51.9149 22.2153H54.1963C53.2426 20.8472 51.9174 19.7807 50.3769 19.1419C50.648 19.495 50.8966 19.8854 51.1192 20.3019ZM50.6032 22.2153C50.4419 21.7591 50.2474 21.3153 50.0213 20.8876C49.3351 19.6007 48.5082 18.8361 47.6753 18.5812V22.2153H50.6032Z" stroke="#9C171E" stroke-width="0.8" mask="url(#path-4-outside-1_5921_46707)"/>
</g>
</g>
</g>
</svg>
