<svg width="70" height="70" viewBox="0 0 70 70" fill="none" xmlns="http://www.w3.org/2000/svg">
<path d="M22.096 13.0801C21.993 13.1144 21.83 13.2602 21.727 13.3889C21.5555 13.6034 21.5469 13.715 21.5469 15.2851V16.9581L21.7871 17.1983C21.9501 17.3613 22.156 17.4557 22.4134 17.4986C22.6193 17.5243 25.279 17.5415 28.3248 17.5243C33.4469 17.4986 33.8759 17.49 34.0818 17.3442C34.4593 17.0954 34.5022 16.8637 34.5022 15.2593C34.5022 14.0839 34.4764 13.7064 34.3735 13.5091C34.0989 12.9771 34.2963 12.9943 28.0074 13.0029C24.8586 13.0029 22.1903 13.0372 22.096 13.0801Z" fill="#9C171E"/>
<path d="M15.4083 15.1379C13.8125 15.3952 12.5598 16.5363 12.148 18.115C11.9507 18.8529 11.9507 52.9399 12.148 53.6863C12.4998 55.0247 13.3921 56.0028 14.7476 56.5176L15.2367 56.7063L26.9393 56.7321L38.6334 56.7578L37.9728 56.0457C37.2264 55.2392 36.3169 53.9265 35.8536 52.9742C34.6868 50.5976 34.3608 47.4489 35.0214 44.9608C35.1072 44.6262 35.1844 44.3259 35.1844 44.283C35.1844 44.2487 31.4522 44.2229 26.8964 44.2229C17.7334 44.2229 18.2396 44.2572 17.8277 43.6738C17.6905 43.4765 17.639 43.2877 17.639 42.9188C17.639 42.3955 17.7848 42.1123 18.231 41.7863C18.4626 41.6061 18.5313 41.6061 27.4455 41.5804L36.4285 41.5632L36.8403 40.9626C38.3675 38.7405 40.9156 37.0074 43.6611 36.3296L44.03 36.2353L44.0043 27.2523C43.9786 18.7156 43.97 18.2523 43.8155 17.849C43.378 16.7251 42.7088 15.9701 41.7393 15.5068C40.9671 15.1379 40.3923 15.0521 38.5991 15.0521H37.1577V16.0216C37.1577 16.5792 37.1062 17.1884 37.0376 17.4544C36.6687 18.8529 35.4847 19.9081 34.0519 20.1141C33.3484 20.217 22.6924 20.217 21.9889 20.1141C20.7791 19.9425 19.7153 19.1531 19.1919 18.0549C18.9431 17.5402 18.9259 17.4115 18.883 16.2961L18.8401 15.095L17.3387 15.0864C16.515 15.0778 15.6485 15.1035 15.4083 15.1379ZM37.6382 26.0255C38.6163 26.4716 38.6935 27.8186 37.7669 28.3334L37.4323 28.5221H28.0204C19.5179 28.5221 18.5827 28.505 18.3168 28.3849C17.5446 28.0159 17.3644 27.0035 17.9564 26.3343C18.0937 26.1713 18.3339 25.9997 18.4884 25.9568C18.6428 25.9139 22.7096 25.8796 28.0204 25.871C36.8832 25.8624 37.3036 25.871 37.6382 26.0255ZM37.6382 31.259C38.6163 31.7052 38.6935 33.0522 37.7669 33.567L37.4323 33.7557H28.0204C19.5179 33.7557 18.5827 33.7386 18.3168 33.6185C17.5446 33.2495 17.3644 32.2371 17.9564 31.5679C18.0937 31.4049 18.3339 31.2333 18.4884 31.1904C18.6428 31.1475 22.7096 31.1132 28.0204 31.1046C36.8832 31.096 37.3036 31.1046 37.6382 31.259ZM37.6382 36.4926C38.6163 36.9388 38.6935 38.2858 37.7669 38.8006L37.4323 38.9893H28.0204C19.5179 38.9893 18.5827 38.9722 18.3168 38.8521C17.5446 38.4831 17.3644 37.4707 17.9564 36.8015C18.0937 36.6385 18.3339 36.4669 18.4884 36.424C18.6428 36.3811 22.7096 36.3468 28.0204 36.3382C36.8832 36.3296 37.3036 36.3382 37.6382 36.4926Z" fill="#9C171E"/>
<path fill-rule="evenodd" clip-rule="evenodd" d="M46.9516 57.8642C52.5039 57.8642 57.0048 53.3632 57.0048 47.811C57.0048 42.2588 52.5039 37.7578 46.9516 37.7578C41.3994 37.7578 36.8984 42.2588 36.8984 47.811C36.8984 53.3632 41.3994 57.8642 46.9516 57.8642ZM50.7384 47.0131V50.2046L51.5457 51.028C51.9431 51.4302 51.6593 52.1195 51.0979 52.1195H42.7914C42.23 52.1195 41.9525 51.4302 42.3498 51.028L43.1698 50.2046V47.0131C43.1698 45.0472 44.1979 43.4131 46.008 42.9791V42.545C46.008 42.0153 46.4243 41.5876 46.9478 41.5876C47.4713 41.5876 47.9002 42.0153 47.9002 42.545V42.9791C49.704 43.4131 50.7384 45.0536 50.7384 47.0131ZM48.2092 52.7578C48.2092 53.4599 47.6416 54.0344 46.9478 54.0344C46.6132 54.0344 46.2924 53.8999 46.0558 53.6605C45.8193 53.4211 45.6864 53.0964 45.6864 52.7578H48.2092ZM43.6744 42.0982C43.9266 42.3536 43.9203 42.7685 43.6554 43.011C42.7596 43.8387 42.1699 44.9511 41.984 46.1642C41.9336 46.4706 41.6687 46.694 41.3659 46.694C40.9749 46.694 40.6784 46.3429 40.7352 45.9536C40.9699 44.465 41.6971 43.1012 42.7977 42.0855C42.9169 41.9721 43.075 41.9101 43.2386 41.9125C43.4021 41.9149 43.5584 41.9815 43.6744 42.0982ZM50.2338 42.0982C50.4735 41.8557 50.8646 41.8493 51.1168 42.0855C52.1891 43.0876 52.927 44.4344 53.1667 45.9472C53.2298 46.3365 52.927 46.6876 52.5423 46.6876C52.2332 46.6876 51.9683 46.4642 51.9242 46.1578C51.735 44.9195 51.1232 43.8153 50.2528 43.0046C49.9942 42.7621 49.9816 42.3536 50.2338 42.0982Z" fill="#9C171E"/>
</svg>
