<svg width="70" height="70" viewBox="0 0 70 70" fill="none" xmlns="http://www.w3.org/2000/svg">
<path d="M41.2597 25.8568V13.2105C41.6972 13.2909 42.112 13.4654 42.4754 13.7218C42.9428 14.0464 43.3756 14.4181 43.7671 14.8311L54.3976 25.6539C54.8015 26.0585 55.1696 26.4973 55.4978 26.9653C55.7504 27.3228 55.9216 27.7313 55.9993 28.162H44.0163C42.4944 28.162 41.2597 27.1294 41.2597 25.8568ZM32.8388 44.3961C33.3493 45.5972 33.6079 46.8902 33.5986 48.1952C33.6061 49.4954 33.3432 50.7829 32.8266 51.976C32.3222 53.1444 31.5985 54.2053 30.6946 55.1011C29.7922 56.0007 28.7284 56.7222 27.5588 57.2278C26.372 57.7432 25.0909 58.006 23.797 57.9998C22.498 58.0084 21.211 57.7497 20.0162 57.24C18.8498 56.7417 17.7897 56.0244 16.8934 55.127C15.9949 54.2286 15.275 53.1678 14.772 52.0011C14.2625 50.8005 14 49.5097 14 48.2055C14 46.9013 14.2625 45.6104 14.772 44.4098C15.2782 43.245 15.9977 42.1851 16.8934 41.2847C17.7884 40.382 18.85 39.6614 20.0192 39.1626C21.2197 38.6595 22.5083 38.4005 23.8099 38.4005C25.1115 38.4005 26.4001 38.6595 27.6006 39.1626C29.957 40.1675 31.8338 42.0443 32.8388 44.4007V44.3961ZM29.5108 44.5116C29.5152 44.3506 29.4848 44.1905 29.4216 44.0423C29.3584 43.8941 29.2639 43.7613 29.1446 43.653C28.9161 43.4344 28.6113 43.3134 28.2951 43.3157C28.093 43.3122 27.8933 43.3599 27.7146 43.4543C27.5359 43.5488 27.384 43.6869 27.2731 43.8559L22.5623 50.3766L20.1894 47.8107C20.0809 47.6899 19.9498 47.5916 19.8034 47.5212C19.6352 47.4409 19.4504 47.4014 19.264 47.4058C19.1064 47.4034 18.95 47.4333 18.8044 47.4937C18.6589 47.554 18.5272 47.6436 18.4175 47.7568C18.3036 47.8701 18.2139 48.0055 18.1542 48.1547C18.0945 48.304 18.066 48.4638 18.0703 48.6245C18.0731 48.7722 18.0987 48.9185 18.1463 49.0583C18.1957 49.2164 18.2743 49.3639 18.378 49.493L21.6574 53.0641C21.7751 53.207 21.928 53.3167 22.1011 53.3824C22.2664 53.4503 22.4429 53.4863 22.6216 53.4888C23.0724 53.4888 23.407 53.3343 23.6253 53.0253L29.2403 45.2494C29.3255 45.1308 29.3937 45.0009 29.4432 44.8634C29.4851 44.7518 29.5079 44.6339 29.5108 44.5147V44.5116ZM56.2303 30.8046V48.3221V51.6037C56.2303 52.3348 55.9399 53.036 55.4229 53.5529C54.9059 54.0699 54.2048 54.3603 53.4737 54.3603H34.6015C34.8489 53.9336 35.0714 53.4929 35.2679 53.0405C35.9289 51.5126 36.2667 49.8645 36.2602 48.1998C36.2603 47.6341 36.223 47.0691 36.1485 46.5084H47.6262C47.7957 46.5119 47.9641 46.4812 48.1215 46.4183C48.2789 46.3554 48.4221 46.2615 48.5425 46.1422C48.6641 46.0289 48.7608 45.8914 48.8262 45.7386C48.8916 45.5858 48.9244 45.421 48.9224 45.2547C48.9258 45.0854 48.8937 44.9172 48.8283 44.761C48.7629 44.6048 48.6655 44.4639 48.5425 44.3475C48.4221 44.2282 48.2789 44.1343 48.1215 44.0714C47.9641 44.0085 47.7957 43.9778 47.6262 43.9813H35.5315C35.4555 43.7685 35.3712 43.5573 35.2823 43.3491C34.6502 41.872 33.742 40.5292 32.6062 39.3928C32.5394 39.3259 32.4718 39.2606 32.4041 39.1952H32.4436H47.6262C47.7949 39.1991 47.9628 39.1695 48.12 39.1082C48.2773 39.0469 48.4209 38.9551 48.5425 38.8381C48.6658 38.7242 48.7635 38.5853 48.829 38.4307C48.8945 38.2762 48.9263 38.1094 48.9224 37.9416C48.9258 37.7722 48.8937 37.604 48.8283 37.4478C48.7629 37.2916 48.6655 37.1507 48.5425 37.0343C48.4221 36.915 48.2789 36.8211 48.1215 36.7582C47.9641 36.6953 47.7957 36.6646 47.6262 36.6681H32.4436C32.2713 36.664 32.0999 36.6944 31.9396 36.7576C31.7792 36.8207 31.6331 36.9154 31.5098 37.0359C31.3868 37.1523 31.2895 37.2931 31.224 37.4493C31.1586 37.6056 31.1266 37.7737 31.1299 37.9431C31.1303 38.0097 31.1354 38.0762 31.1451 38.1421C30.3696 37.5741 29.532 37.0962 28.6484 36.7175C27.1153 36.0643 25.4649 35.7315 23.7985 35.7396H23.7795L23.7924 15.7566C23.7924 15.0255 24.0829 14.3243 24.5998 13.8074C25.1168 13.2904 25.8179 13 26.549 13H38.6171V28.0481C38.6171 28.7791 38.9075 29.4803 39.4245 29.9973C39.9415 30.5142 40.6426 30.8046 41.3737 30.8046H56.2303ZM34.3622 24.461C34.3622 23.7888 34.1444 23.2476 33.7087 22.8373C33.2731 22.427 32.626 22.1451 31.7674 21.9916L31.6329 21.9627V19.2046C31.9598 19.2578 32.2667 19.3971 32.5219 19.6081C32.7676 19.822 32.946 20.1025 33.0355 20.4158C33.145 20.7425 33.3476 20.9058 33.6434 20.9058C33.7214 20.9096 33.7994 20.8971 33.8723 20.8689C33.9452 20.8408 34.0114 20.7977 34.0666 20.7425C34.1219 20.6872 34.1649 20.621 34.1931 20.5482C34.2212 20.4753 34.2338 20.3973 34.23 20.3193C34.2296 20.2683 34.2247 20.2174 34.2155 20.1673C34.2056 20.1164 34.1943 20.0647 34.1813 20.0153C34.0467 19.483 33.7287 19.0152 33.2832 18.694C32.8015 18.338 32.2316 18.1202 31.6352 18.0641V17.3803C31.6376 17.3172 31.6269 17.2543 31.6038 17.1956C31.5806 17.1369 31.5455 17.0836 31.5007 17.0392C31.4083 16.956 31.2884 16.9099 31.1641 16.9099C31.0398 16.9099 30.9199 16.956 30.8275 17.0392C30.7827 17.0836 30.7476 17.1369 30.7245 17.1956C30.7013 17.2543 30.6906 17.3172 30.693 17.3803V18.0641C29.9439 18.1477 29.3274 18.4088 28.8437 18.8475C28.3599 19.2862 28.118 19.8451 28.118 20.5244C28.118 21.152 28.3295 21.6586 28.7525 22.044C29.1754 22.4295 29.8 22.7228 30.6262 22.9239L30.693 22.9429V25.8644C30.2513 25.7995 29.9008 25.6521 29.6415 25.4221C29.3885 25.2028 29.2089 24.911 29.1271 24.5864C29.086 24.4389 29.0025 24.3068 28.887 24.2064C28.7794 24.125 28.6473 24.0826 28.5124 24.0864C28.436 24.084 28.3599 24.0972 28.2888 24.1253C28.2177 24.1534 28.1531 24.1958 28.099 24.2498C28.0444 24.3053 28.0017 24.3714 27.9736 24.4441C27.9455 24.5167 27.9326 24.5944 27.9357 24.6722C27.9357 24.7232 27.9406 24.7741 27.9501 24.8242C27.9592 24.8751 27.9706 24.9267 27.9836 24.9761C28.1171 25.5425 28.4606 26.037 28.9447 26.3598C29.4638 26.7133 30.0662 26.9254 30.6923 26.9752V27.6864C30.6899 27.7495 30.7006 27.8124 30.7237 27.8711C30.7469 27.9298 30.782 27.9831 30.8268 28.0275C30.9191 28.1107 31.0391 28.1568 31.1634 28.1568C31.2877 28.1568 31.4076 28.1107 31.5 28.0275C31.5448 27.9831 31.5799 27.9298 31.603 27.8711C31.6262 27.8124 31.6369 27.7495 31.6345 27.6864V26.9942C32.4034 26.9172 33.0505 26.6627 33.5758 26.2306C34.101 25.7985 34.3632 25.2086 34.3622 24.461ZM31.8442 23.2309L31.6329 23.1731V25.8644C32.1395 25.8066 32.5158 25.6559 32.762 25.4123C32.8812 25.2984 32.9756 25.1611 33.0392 25.0091C33.1029 24.857 33.1345 24.6934 33.132 24.5286C33.141 24.2395 33.0397 23.9579 32.8486 23.7407C32.6597 23.529 32.3249 23.359 31.8442 23.2309ZM29.3459 20.4537C29.3426 20.5918 29.3683 20.7289 29.4213 20.8564C29.4743 20.9839 29.5535 21.0988 29.6536 21.1938C29.8562 21.3929 30.1797 21.5595 30.6239 21.6938L30.6908 21.7128V19.2054C30.2744 19.2758 29.9451 19.4265 29.703 19.6575C29.5911 19.7578 29.5015 19.8805 29.44 20.0177C29.3785 20.1549 29.3464 20.3034 29.3459 20.4537Z" fill="#9C171E"/>
</svg>
