<svg width="70" height="70" viewBox="0 0 70 70" fill="none" xmlns="http://www.w3.org/2000/svg">
<g id="rekonsiliasi-bank-otomatis">
<g id="Group">
<path id="Vector" d="M30.0065 22.863C27.6524 23.8435 25.1225 24.8934 24.3778 25.2033C23.6378 25.5131 22.9718 25.7999 22.8978 25.8461C22.6434 25.9988 22.6064 26.1606 22.6064 27.0903C22.6064 28.0662 22.6527 28.2234 22.9764 28.3899C23.1568 28.4824 23.2216 28.4824 34.4466 28.4824C45.6716 28.4824 45.7363 28.4824 45.9167 28.3899C46.2404 28.2234 46.2867 28.0662 46.2867 27.0949C46.2867 26.1283 46.2404 25.9664 45.9259 25.8045C45.8288 25.7536 44.9501 25.3836 43.9695 24.9766C35.7185 21.5495 34.5807 21.0823 34.4373 21.087C34.3448 21.087 32.5688 21.7992 30.0065 22.863ZM38.9329 25.1061C39.141 25.2125 39.3029 25.4761 39.3029 25.7074C39.3029 25.9386 39.141 26.2023 38.9329 26.3086C38.7571 26.4012 38.6692 26.4012 34.4419 26.4012H30.136L29.951 26.2994C29.4839 26.0358 29.4793 25.4021 29.9418 25.1246L30.1221 25.0136H34.4373C38.6692 25.0136 38.7571 25.0136 38.9329 25.1061Z" fill="#9C171E"/>
<path id="Vector_2" d="M24.8271 33.4547V37.0391H26.5847H28.3422V33.4547V29.8702H26.5847H24.8271V33.4547Z" fill="#9C171E"/>
<path id="Vector_3" d="M40.5518 33.4547V37.0391H42.3093H44.0668V33.4547V29.8702H42.3093H40.5518V33.4547Z" fill="#9C171E"/>
<path id="Vector_4" d="M34.1137 30.8921C33.887 31.0077 33.7529 31.2667 33.7529 31.5905V31.8356L33.5124 31.9466C33.2118 32.0854 32.7446 32.5432 32.6013 32.8439C32.1896 33.6995 32.333 34.606 32.9898 35.2581C33.3737 35.6466 33.9194 35.8825 34.4282 35.8825C34.7982 35.8825 35.1404 36.2155 35.1404 36.5809C35.1404 36.9232 34.7889 37.27 34.442 37.27C34.1044 37.27 33.7529 36.9185 33.7529 36.5763C33.7529 36.345 33.591 36.0814 33.3829 35.975C33.1517 35.8594 32.9667 35.8594 32.7354 35.975C31.9954 36.3496 32.4486 37.8667 33.4523 38.3847L33.7529 38.5419V38.787C33.7529 39.1154 33.887 39.3698 34.1229 39.4901C34.6317 39.7491 35.1404 39.3976 35.1404 38.787V38.5419L35.3856 38.4263C35.6816 38.2875 36.1441 37.8343 36.2921 37.5337C36.7037 36.6827 36.5603 35.7715 35.9036 35.1148C35.5151 34.7263 34.9785 34.495 34.4605 34.495C34.1044 34.495 33.7529 34.1528 33.7529 33.8012C33.7529 33.459 34.1044 33.1075 34.442 33.1075C34.7982 33.1075 35.1404 33.4497 35.1404 33.8012C35.1404 34.1528 35.4827 34.495 35.8342 34.495C35.9128 34.495 36.0608 34.4534 36.1579 34.4025C36.5881 34.1805 36.6436 33.5654 36.2921 32.8439C36.1394 32.5386 35.6816 32.0854 35.3856 31.9466L35.1404 31.8356V31.5905C35.1404 30.9753 34.6178 30.6238 34.1137 30.8921Z" fill="#9C171E"/>
<path id="Vector_5" d="M24.3232 38.5052C23.9763 38.6855 23.907 38.9122 23.9023 39.8464V40.5078H26.5895H29.2766L29.2628 39.7308C29.2443 38.8844 29.2073 38.7549 28.9298 38.5468C28.8003 38.4497 28.754 38.4497 26.6404 38.4358C24.6516 38.4265 24.4666 38.4312 24.3232 38.5052Z" fill="#9C171E"/>
<path id="Vector_6" d="M40.0478 38.5052C39.701 38.6855 39.6316 38.9122 39.627 39.8464V40.5078H42.3141H45.0013L44.9874 39.7308C44.9689 38.8844 44.9319 38.7549 44.6544 38.5468C44.5249 38.4497 44.4786 38.4497 42.365 38.4358C40.3762 38.4265 40.1912 38.4312 40.0478 38.5052Z" fill="#9C171E"/>
<path id="Vector_7" d="M23.2077 41.8063C23.0088 41.8896 22.7914 42.0792 22.6989 42.2642C22.6157 42.4261 22.6064 42.5371 22.6064 43.328C22.6064 44.3501 22.6481 44.5027 22.9764 44.6692C23.1568 44.7617 23.2216 44.7617 34.4466 44.7617C45.6716 44.7617 45.7363 44.7617 45.9167 44.6692C46.0369 44.6091 46.1341 44.512 46.1942 44.3871C46.2867 44.2113 46.2913 44.1373 46.2774 43.2586L46.2636 42.3197L46.1202 42.1393C46.0416 42.0422 45.9074 41.9173 45.8242 41.8572L45.6716 41.7554L34.4974 41.7601C27.2685 41.7601 23.2817 41.7786 23.2077 41.8063Z" fill="#9C171E"/>
<g id="Group_2">
<g id="Vector_8">
<mask id="path-8-outside-1_5921_46695" maskUnits="userSpaceOnUse" x="11" y="11.373" width="40" height="36" fill="black">
<rect fill="white" x="11" y="11.373" width="40" height="36"/>
<path d="M32.8309 12.0381C32.6638 12.0557 32.1449 12.1173 31.6876 12.17C29.0667 12.4691 25.9797 13.4629 23.6491 14.7645C14.4673 19.8919 10.0435 30.4017 12.8227 40.5157C13.2097 41.9317 13.8517 43.5587 14.5641 44.9219C15.2061 46.162 15.4436 46.373 16.1823 46.373C16.6133 46.373 16.6924 46.3379 17.0178 46.0388C17.3169 45.7486 17.3784 45.6343 17.4136 45.2649C17.4576 44.8603 17.4048 44.7284 16.754 43.3828C16.367 42.5825 15.9185 41.5711 15.769 41.1401C14.01 36.0743 14.3178 30.5776 16.6397 25.8372C18.6361 21.7652 21.7758 18.6254 25.839 16.6378C31.925 13.674 38.9609 14.0082 44.8622 17.5437C45.3547 17.8427 45.7593 18.1153 45.7593 18.1593C45.7593 18.1945 45.1084 18.2297 44.3169 18.2297C42.9713 18.2297 42.8658 18.2385 42.5931 18.4231C41.7576 18.9948 41.8016 20.1293 42.6899 20.6482C42.9713 20.8153 43.1472 20.8241 46.4189 20.8241C49.7873 20.8241 49.8576 20.8241 50.1567 20.6306C50.7811 20.2437 50.7723 20.3228 50.7723 16.4003C50.7723 12.8912 50.7723 12.8912 50.57 12.5922C50.4469 12.4075 50.2094 12.2316 49.9632 12.1261C49.5938 11.9766 49.5058 11.9678 49.1804 12.0645C48.7143 12.2052 48.3537 12.557 48.2306 13.0055C48.1778 13.1902 48.1339 14.0697 48.1339 14.958V16.5674L47.3247 16.0046C44.3609 13.9466 40.9749 12.645 37.3602 12.1612C36.6302 12.0645 33.3674 11.9766 32.8309 12.0381Z"/>
</mask>
<path d="M32.8309 12.0381C32.6638 12.0557 32.1449 12.1173 31.6876 12.17C29.0667 12.4691 25.9797 13.4629 23.6491 14.7645C14.4673 19.8919 10.0435 30.4017 12.8227 40.5157C13.2097 41.9317 13.8517 43.5587 14.5641 44.9219C15.2061 46.162 15.4436 46.373 16.1823 46.373C16.6133 46.373 16.6924 46.3379 17.0178 46.0388C17.3169 45.7486 17.3784 45.6343 17.4136 45.2649C17.4576 44.8603 17.4048 44.7284 16.754 43.3828C16.367 42.5825 15.9185 41.5711 15.769 41.1401C14.01 36.0743 14.3178 30.5776 16.6397 25.8372C18.6361 21.7652 21.7758 18.6254 25.839 16.6378C31.925 13.674 38.9609 14.0082 44.8622 17.5437C45.3547 17.8427 45.7593 18.1153 45.7593 18.1593C45.7593 18.1945 45.1084 18.2297 44.3169 18.2297C42.9713 18.2297 42.8658 18.2385 42.5931 18.4231C41.7576 18.9948 41.8016 20.1293 42.6899 20.6482C42.9713 20.8153 43.1472 20.8241 46.4189 20.8241C49.7873 20.8241 49.8576 20.8241 50.1567 20.6306C50.7811 20.2437 50.7723 20.3228 50.7723 16.4003C50.7723 12.8912 50.7723 12.8912 50.57 12.5922C50.4469 12.4075 50.2094 12.2316 49.9632 12.1261C49.5938 11.9766 49.5058 11.9678 49.1804 12.0645C48.7143 12.2052 48.3537 12.557 48.2306 13.0055C48.1778 13.1902 48.1339 14.0697 48.1339 14.958V16.5674L47.3247 16.0046C44.3609 13.9466 40.9749 12.645 37.3602 12.1612C36.6302 12.0645 33.3674 11.9766 32.8309 12.0381Z" fill="#9C171E"/>
<path d="M32.8309 12.0381C32.6638 12.0557 32.1449 12.1173 31.6876 12.17C29.0667 12.4691 25.9797 13.4629 23.6491 14.7645C14.4673 19.8919 10.0435 30.4017 12.8227 40.5157C13.2097 41.9317 13.8517 43.5587 14.5641 44.9219C15.2061 46.162 15.4436 46.373 16.1823 46.373C16.6133 46.373 16.6924 46.3379 17.0178 46.0388C17.3169 45.7486 17.3784 45.6343 17.4136 45.2649C17.4576 44.8603 17.4048 44.7284 16.754 43.3828C16.367 42.5825 15.9185 41.5711 15.769 41.1401C14.01 36.0743 14.3178 30.5776 16.6397 25.8372C18.6361 21.7652 21.7758 18.6254 25.839 16.6378C31.925 13.674 38.9609 14.0082 44.8622 17.5437C45.3547 17.8427 45.7593 18.1153 45.7593 18.1593C45.7593 18.1945 45.1084 18.2297 44.3169 18.2297C42.9713 18.2297 42.8658 18.2385 42.5931 18.4231C41.7576 18.9948 41.8016 20.1293 42.6899 20.6482C42.9713 20.8153 43.1472 20.8241 46.4189 20.8241C49.7873 20.8241 49.8576 20.8241 50.1567 20.6306C50.7811 20.2437 50.7723 20.3228 50.7723 16.4003C50.7723 12.8912 50.7723 12.8912 50.57 12.5922C50.4469 12.4075 50.2094 12.2316 49.9632 12.1261C49.5938 11.9766 49.5058 11.9678 49.1804 12.0645C48.7143 12.2052 48.3537 12.557 48.2306 13.0055C48.1778 13.1902 48.1339 14.0697 48.1339 14.958V16.5674L47.3247 16.0046C44.3609 13.9466 40.9749 12.645 37.3602 12.1612C36.6302 12.0645 33.3674 11.9766 32.8309 12.0381Z" stroke="#9C171E" stroke-width="0.4" mask="url(#path-8-outside-1_5921_46695)"/>
</g>
<g id="Vector_9">
<mask id="path-9-outside-2_5921_46695" maskUnits="userSpaceOnUse" x="17.2314" y="22.0078" width="40" height="36" fill="black">
<rect fill="white" x="17.2314" y="22.0078" width="40" height="36"/>
<path d="M51.9859 22.9603C51.6869 23.2505 51.6253 23.3649 51.5902 23.7343C51.5462 24.1388 51.599 24.2707 52.2498 25.6163C53.2876 27.7359 53.7977 29.3365 54.1758 31.6408C54.3957 32.9864 54.3957 35.9942 54.167 37.3574C53.8152 39.5737 53.2876 41.2623 52.3553 43.1708C50.3941 47.1988 47.2103 50.3913 43.1647 52.3526C40.5791 53.6102 38.1165 54.2259 35.2054 54.349C31.3533 54.4985 27.5627 53.5047 24.1504 51.4555C23.6491 51.1565 23.2445 50.8838 23.2445 50.8398C23.2445 50.8047 23.8953 50.7695 24.6868 50.7695C26.0324 50.7695 26.138 50.7607 26.4106 50.5672C27.2461 50.0043 27.2022 48.8698 26.3139 48.3509C26.0324 48.1838 25.8566 48.175 22.5849 48.175C19.2165 48.175 19.1461 48.175 18.8471 48.3685C18.2227 48.7555 18.2315 48.6763 18.2315 52.5988C18.2315 56.1079 18.2315 56.1079 18.4337 56.407C18.5569 56.5917 18.7943 56.7675 19.0406 56.8731C19.41 57.0226 19.4979 57.0314 19.8233 56.9347C20.2894 56.7939 20.65 56.4421 20.7732 55.9936C20.8259 55.8089 20.8699 54.9294 20.8699 54.0324V52.4229L21.0722 52.5636C22.8223 53.8301 25.2761 55.1405 27.0263 55.7386C32.2768 57.5503 37.7559 57.4184 42.9449 55.3692C47.7644 53.4695 52.1266 49.4854 54.5364 44.7714C57.0429 39.8727 57.6674 34.1297 56.269 28.8176C55.8381 27.1642 55.4159 26.0561 54.598 24.429C53.7801 22.802 53.613 22.6261 52.8214 22.6261C52.3905 22.6261 52.3113 22.6613 51.9859 22.9603Z"/>
</mask>
<path d="M51.9859 22.9603C51.6869 23.2505 51.6253 23.3649 51.5902 23.7343C51.5462 24.1388 51.599 24.2707 52.2498 25.6163C53.2876 27.7359 53.7977 29.3365 54.1758 31.6408C54.3957 32.9864 54.3957 35.9942 54.167 37.3574C53.8152 39.5737 53.2876 41.2623 52.3553 43.1708C50.3941 47.1988 47.2103 50.3913 43.1647 52.3526C40.5791 53.6102 38.1165 54.2259 35.2054 54.349C31.3533 54.4985 27.5627 53.5047 24.1504 51.4555C23.6491 51.1565 23.2445 50.8838 23.2445 50.8398C23.2445 50.8047 23.8953 50.7695 24.6868 50.7695C26.0324 50.7695 26.138 50.7607 26.4106 50.5672C27.2461 50.0043 27.2022 48.8698 26.3139 48.3509C26.0324 48.1838 25.8566 48.175 22.5849 48.175C19.2165 48.175 19.1461 48.175 18.8471 48.3685C18.2227 48.7555 18.2315 48.6763 18.2315 52.5988C18.2315 56.1079 18.2315 56.1079 18.4337 56.407C18.5569 56.5917 18.7943 56.7675 19.0406 56.8731C19.41 57.0226 19.4979 57.0314 19.8233 56.9347C20.2894 56.7939 20.65 56.4421 20.7732 55.9936C20.8259 55.8089 20.8699 54.9294 20.8699 54.0324V52.4229L21.0722 52.5636C22.8223 53.8301 25.2761 55.1405 27.0263 55.7386C32.2768 57.5503 37.7559 57.4184 42.9449 55.3692C47.7644 53.4695 52.1266 49.4854 54.5364 44.7714C57.0429 39.8727 57.6674 34.1297 56.269 28.8176C55.8381 27.1642 55.4159 26.0561 54.598 24.429C53.7801 22.802 53.613 22.6261 52.8214 22.6261C52.3905 22.6261 52.3113 22.6613 51.9859 22.9603Z" fill="#9C171E"/>
<path d="M51.9859 22.9603C51.6869 23.2505 51.6253 23.3649 51.5902 23.7343C51.5462 24.1388 51.599 24.2707 52.2498 25.6163C53.2876 27.7359 53.7977 29.3365 54.1758 31.6408C54.3957 32.9864 54.3957 35.9942 54.167 37.3574C53.8152 39.5737 53.2876 41.2623 52.3553 43.1708C50.3941 47.1988 47.2103 50.3913 43.1647 52.3526C40.5791 53.6102 38.1165 54.2259 35.2054 54.349C31.3533 54.4985 27.5627 53.5047 24.1504 51.4555C23.6491 51.1565 23.2445 50.8838 23.2445 50.8398C23.2445 50.8047 23.8953 50.7695 24.6868 50.7695C26.0324 50.7695 26.138 50.7607 26.4106 50.5672C27.2461 50.0043 27.2022 48.8698 26.3139 48.3509C26.0324 48.1838 25.8566 48.175 22.5849 48.175C19.2165 48.175 19.1461 48.175 18.8471 48.3685C18.2227 48.7555 18.2315 48.6763 18.2315 52.5988C18.2315 56.1079 18.2315 56.1079 18.4337 56.407C18.5569 56.5917 18.7943 56.7675 19.0406 56.8731C19.41 57.0226 19.4979 57.0314 19.8233 56.9347C20.2894 56.7939 20.65 56.4421 20.7732 55.9936C20.8259 55.8089 20.8699 54.9294 20.8699 54.0324V52.4229L21.0722 52.5636C22.8223 53.8301 25.2761 55.1405 27.0263 55.7386C32.2768 57.5503 37.7559 57.4184 42.9449 55.3692C47.7644 53.4695 52.1266 49.4854 54.5364 44.7714C57.0429 39.8727 57.6674 34.1297 56.269 28.8176C55.8381 27.1642 55.4159 26.0561 54.598 24.429C53.7801 22.802 53.613 22.6261 52.8214 22.6261C52.3905 22.6261 52.3113 22.6613 51.9859 22.9603Z" stroke="#9C171E" stroke-width="0.4" mask="url(#path-9-outside-2_5921_46695)"/>
</g>
</g>
</g>
</g>
</svg>
