<svg width="70" height="70" viewBox="0 0 70 70" fill="none" xmlns="http://www.w3.org/2000/svg">
<path d="M26.3779 19.117C26.5187 18.906 26.4481 18.5546 26.2371 18.3436L21.737 13.2109C21.4558 12.9297 20.9636 12.9297 20.6825 13.2109L16.1827 18.3436C15.9718 18.5546 15.9718 18.8358 16.042 19.117C16.1827 19.3982 16.3933 19.539 16.6749 19.539H17.8001L17.7997 29.8751C17.7997 30.2265 18.0809 30.5782 18.5029 30.5782H23.9168C24.3387 30.5782 24.6199 30.2268 24.6199 29.8751V19.539H25.7451C26.0263 19.539 26.3075 19.328 26.3781 19.117H26.3779Z" fill="#9C171E"/>
<path d="M53.089 51.8831C52.9482 51.6019 52.7376 51.4611 52.456 51.4611H51.3308L51.3312 41.125C51.3312 40.7736 51.05 40.4219 50.6281 40.4219H45.2142C44.7922 40.4219 44.511 40.7733 44.511 41.125V51.4611H43.3858C43.1047 51.4611 42.8235 51.6019 42.7529 51.8831C42.6121 52.1643 42.6827 52.4455 42.8937 52.6565L47.3938 57.7892C47.5346 57.93 47.7452 58.0002 47.9562 58.0002C48.1671 58.0002 48.3781 57.93 48.5185 57.7892L53.0186 52.6565C53.1594 52.4451 53.2296 52.1639 53.0888 51.8827L53.089 51.8831Z" fill="#9C171E"/>
<path d="M34.2975 28.3984C30.2067 28.3984 26.8906 31.7147 26.8906 35.8053C26.8906 39.8962 30.2068 43.2122 34.2975 43.2122C38.3883 43.2122 41.7044 39.8961 41.7044 35.8053C41.7044 31.7145 38.3883 28.3984 34.2975 28.3984V28.3984ZM39.158 35.3396L38.3908 38.456C38.2338 39.0942 37.6649 39.5399 37.0077 39.5399H33.1571C33.0834 39.5399 33.0108 39.5227 32.9449 39.4897L32.6084 39.3217C32.4571 39.4572 32.2575 39.5399 32.0388 39.5399H30.2502C29.779 39.5399 29.3956 39.1565 29.3956 38.6852V34.425C29.3956 33.9538 29.779 33.5704 30.2502 33.5704H32.0388C32.155 33.5704 32.2657 33.5938 32.3666 33.6359C33.2232 33.1381 33.8778 32.3245 34.1769 31.3776C34.3361 30.6946 35.1379 30.2533 35.7224 30.7858C36.5146 31.4945 36.7663 32.6133 36.4078 33.5748H37.7749C38.6825 33.5747 39.3752 34.458 39.1581 35.3396L39.158 35.3396Z" fill="#9C171E"/>
<path d="M31.9502 34.5215H30.3516V38.5918H31.9502V34.5215ZM31.1682 38.1572C30.965 38.1572 30.8002 37.9968 30.8002 37.7989C30.8002 37.6011 30.9649 37.4406 31.1682 37.4406C31.3714 37.4406 31.5362 37.6011 31.5362 37.7989C31.5362 37.9968 31.3715 38.1572 31.1682 38.1572Z" fill="#9C171E"/>
<path d="M37.7799 34.5248H35.5461C35.1429 34.4485 35.0356 34.0418 35.2107 33.7836L35.3508 33.577C35.7875 32.933 35.6908 32.0609 35.1305 31.5273C34.7715 32.733 33.9818 33.781 32.8984 34.4283V38.4035L33.2741 38.5912H37.0128C37.2319 38.5912 37.4214 38.4426 37.4738 38.2298L38.241 35.1134C38.3135 34.8182 38.0833 34.525 37.78 34.525L37.7799 34.5248Z" fill="#9C171E"/>
</svg>
