<svg width="70" height="70" viewBox="0 0 70 70" fill="none" xmlns="http://www.w3.org/2000/svg">
<g id="rfid-dan-Barcode">
<g id="Group 1000001224">
<path id="Vector" d="M52.5 17H16.5C15.3065 17 14.1619 17.4741 13.318 18.318C12.4741 19.1619 12 20.3065 12 21.5V48.5C12 49.6935 12.4741 50.8381 13.318 51.682C14.1619 52.5259 15.3065 53 16.5 53H52.5C53.6935 53 54.8381 52.5259 55.682 51.682C56.5259 50.8381 57 49.6935 57 48.5V21.5C57 20.3065 56.5259 19.1619 55.682 18.318C54.8381 17.4741 53.6935 17 52.5 17V17ZM16.5 48.5V21.5H52.5V48.5H16.5Z" fill="#9C171E"/>
<path id="Vector_2" d="M21.001 26.7594C21.001 26.3389 21.3418 25.998 21.7623 25.998H24.7396C25.1601 25.998 25.501 26.3389 25.501 26.7594V43.2367C25.501 43.6572 25.1601 43.998 24.7396 43.998H21.7623C21.3418 43.998 21.001 43.6572 21.001 43.2367V26.7594ZM27.751 26.7594C27.751 26.3389 28.0918 25.998 28.5123 25.998H29.2396C29.6601 25.998 30.001 26.3389 30.001 26.7594V43.2367C30.001 43.6572 29.6601 43.998 29.2396 43.998H28.5123C28.0918 43.998 27.751 43.6572 27.751 43.2367V26.7594ZM45.751 26.7594C45.751 26.3389 46.0918 25.998 46.5123 25.998H47.2396C47.6601 25.998 48.001 26.3389 48.001 26.7594V43.2367C48.001 43.6572 47.6601 43.998 47.2396 43.998H46.5123C46.0918 43.998 45.751 43.6572 45.751 43.2367V26.7594ZM36.751 26.7594C36.751 26.3389 37.0918 25.998 37.5123 25.998H42.7396C43.1601 25.998 43.501 26.3389 43.501 26.7594V43.2367C43.501 43.6572 43.1601 43.998 42.7396 43.998H37.5123C37.0918 43.998 36.751 43.6572 36.751 43.2367V26.7594ZM32.251 26.7594C32.251 26.3389 32.5918 25.998 33.0123 25.998H33.7396C34.1601 25.998 34.501 26.3389 34.501 26.7594V43.2367C34.501 43.6572 34.1601 43.998 33.7396 43.998H33.0123C32.5918 43.998 32.251 43.6572 32.251 43.2367V26.7594Z" fill="#9C171E"/>
</g>
</g>
</svg>
