<svg width="70" height="70" viewBox="0 0 70 70" fill="none" xmlns="http://www.w3.org/2000/svg">
<g id="sistem-manajemen-procurement">
<g id="Group 1000001219">
<path id="Vector" d="M20.3343 55.5069C20.4506 55.5653 20.579 55.5957 20.7092 55.5957V55.5957C20.8329 55.5957 20.9559 55.5716 21.0688 55.5211C21.0979 55.5081 21.1268 55.4946 21.1552 55.4803C23.7978 54.1508 26.4409 52.8212 29.0845 51.4917C29.3812 51.3434 29.5098 51.1293 29.5098 50.794C29.5035 47.8396 29.5035 44.8853 29.5098 41.9311C29.5098 41.593 29.3794 41.3851 29.0807 41.2382C28.0554 40.7342 27.7491 40.6645 26.7294 40.148C26.6851 40.121 26.1657 39.8765 25.8325 39.8765C25.4993 39.8765 24.8902 40.121 24.8459 40.148C22.1601 41.5513 20.5403 42.3744 17.8501 43.7688C17.4913 43.9498 17.4909 44.2565 17.4913 44.4024C17.497 45.7772 17.489 46.937 17.488 48.3123C17.488 48.607 17.3675 48.6819 17.11 48.5465C16.6304 48.2947 16.1546 48.0343 15.6707 47.7911C15.4968 47.7038 15.4345 47.5894 15.4345 47.3962C15.4401 46.0032 15.4439 44.6103 15.4312 43.2173C15.4312 42.9789 15.5087 42.8677 15.7095 42.7647C18.3408 41.4113 20.4255 40.425 23.0521 39.0618C23.0754 39.0498 23.2004 38.9676 23.3406 38.8748C23.5286 38.7505 23.5224 38.4392 23.3212 38.3376V38.3376C22.491 37.9213 21.9599 37.6783 21.133 37.2558C20.8769 37.1251 20.643 37.1304 20.3864 37.2591C17.7438 38.5887 15.0977 39.9135 12.4482 41.2335C12.1278 41.3927 11.995 41.605 11.996 41.9636C12.0039 44.8885 12.0039 47.8133 11.996 50.7382C11.996 51.1135 12.1429 51.3348 12.4685 51.4974C15.1505 52.8287 17.6657 54.1652 20.3343 55.5069Z" fill="#9C171E"/>
<g id="Group">
<path id="Vector_2" d="M51.1672 36.3445C50.5988 35.7367 49.6781 35.7367 49.1097 36.3445L46.1994 39.4558C45.6309 40.0635 45.6309 41.0478 46.1994 41.6555C46.7678 42.2632 47.6885 42.2632 48.257 41.6555L48.4552 41.4437C47.3897 47.1399 42.6785 51.4456 37.0424 51.4456H34.1321C33.3286 51.4456 32.6768 52.142 32.6768 53.0015C32.6768 53.8605 33.3282 54.5573 34.1321 54.5573H37.0424C44.4153 54.5573 50.5092 48.6603 51.4531 41.0495L52.0204 41.6559C52.3047 41.9598 52.6768 42.1117 53.0494 42.1117C53.4216 42.1117 53.7942 41.9598 54.0784 41.6559C54.6469 41.0482 54.6469 40.0639 54.0784 39.4562L51.1672 36.3445Z" fill="#9C171E"/>
<path id="Vector_3" d="M17.7717 33.4277C18.0559 33.7316 18.4281 33.8835 18.8003 33.8835C19.1725 33.8835 19.545 33.7316 19.8293 33.4277L22.7395 30.3164C23.308 29.7087 23.308 28.7244 22.7395 28.1167C22.1711 27.509 21.2504 27.5089 20.682 28.1167L20.4838 28.3285C21.5492 22.6323 26.2605 18.3266 31.8965 18.3266H34.8068C35.6103 18.3266 36.2622 17.6302 36.2622 16.7707C36.2622 15.9117 35.6107 15.2148 34.8068 15.2148H31.8965C24.5236 15.2148 18.4297 21.1119 17.4858 28.7227L16.9185 28.1162C16.35 27.5085 15.4293 27.5085 14.8609 28.1162C14.2925 28.724 14.2925 29.7083 14.8609 30.316L17.7717 33.4277Z" fill="#9C171E"/>
</g>
<path id="dollarsign.circle.fill" d="M47.8704 32.2418C52.8695 32.2418 56.9957 28.1136 56.9957 23.1209C56.9957 18.1282 52.8607 14 47.8616 14C42.8713 14 38.7539 18.1282 38.7539 23.1209C38.7539 28.1136 42.8801 32.2418 47.8704 32.2418ZM47.8616 28.2724C47.6235 28.2724 47.4472 28.0959 47.4472 27.8489V27.2227C46.1335 27.1168 45.1637 26.4288 44.8992 25.4585C44.8639 25.3438 44.8463 25.2379 44.8463 25.1321C44.8463 24.7616 45.1019 24.5058 45.4811 24.5058C45.7985 24.5058 46.0101 24.6734 46.1423 24.9998C46.2834 25.5378 46.7154 25.9348 47.4472 26.0406V23.6413L47.2885 23.6061C45.7632 23.2532 44.9697 22.5475 44.9697 21.3567C44.9697 20.0688 46.0013 19.1867 47.4472 19.0544V18.437C47.4472 18.1811 47.6235 18.0135 47.8616 18.0135C48.0996 18.0135 48.2848 18.19 48.2848 18.437V19.0544C49.5191 19.1779 50.4361 19.8571 50.6829 20.801C50.7094 20.9068 50.7358 21.0127 50.7358 21.1185C50.7358 21.4714 50.4801 21.7272 50.1098 21.7272C49.7836 21.7272 49.572 21.5419 49.4398 21.242C49.2634 20.7039 48.8667 20.3599 48.2848 20.2541V22.5211L48.4876 22.5652C50.0834 22.8651 50.8857 23.5972 50.8857 24.8498C50.8857 26.2435 49.7748 27.0992 48.2848 27.2315V27.8489C48.2848 28.0959 48.0996 28.2724 47.8616 28.2724ZM47.4472 22.3094V20.2453C46.7507 20.3599 46.3275 20.7745 46.3275 21.2685C46.3275 21.7625 46.6537 22.08 47.3855 22.2917L47.4472 22.3094ZM48.2848 23.8442V26.0406C49.1224 25.9436 49.5368 25.5202 49.5368 24.9468C49.5368 24.4352 49.2458 24.1 48.4523 23.8883L48.2848 23.8442Z" fill="#9C171E"/>
</g>
</g>
</svg>
