<svg width="70" height="70" viewBox="0 0 70 70" fill="none" xmlns="http://www.w3.org/2000/svg">
<g id="actual-and-amortization">
<g id="Group">
<g id="Vector">
<mask id="path-1-outside-1_334_26" maskUnits="userSpaceOnUse" x="11" y="11.0029" width="47" height="47" fill="black">
<rect fill="white" x="11" y="11.0029" width="47" height="47"/>
<path d="M32.2521 12.0969C28.6698 12.4626 24.9843 13.7849 22.0491 15.7636C21.6646 16.0168 21.3458 16.2137 21.327 16.195C21.3176 16.1856 21.402 15.8292 21.524 15.4166C21.8053 14.4694 21.8053 14.2913 21.5146 14.0099C21.2426 13.7286 20.8206 13.7005 20.5393 13.9349C20.3048 14.1412 19.0764 18.2768 19.1701 18.5675C19.2077 18.6707 19.3108 18.8301 19.414 18.9239C19.6109 19.102 20.483 19.1771 23.2307 19.2427C24.1872 19.2615 24.206 19.2615 24.431 18.9989C24.7124 18.6707 24.7218 18.3612 24.4498 18.0424C24.2435 17.8173 24.1685 17.7985 23.0619 17.7329L21.8897 17.6673L22.8743 17.0108C28.6416 13.1753 35.9844 12.4345 42.4269 15.0602C48.4849 17.5172 53.1738 22.8438 54.8055 29.1175C55.3119 31.0587 55.4526 32.2215 55.4526 34.5003C55.4526 36.7791 55.3119 37.9419 54.8055 39.8831C52.9393 47.0571 47.0595 52.9369 39.8855 54.8031C37.9444 55.3095 36.7815 55.4501 34.5027 55.4501C32.374 55.4501 31.5206 55.3657 29.8608 54.9812C21.7865 53.1338 15.5691 46.7664 13.9186 38.6546C12.7558 32.9342 14.1062 26.7449 17.5384 22.1123C18.0448 21.4277 18.1198 21.0714 17.8197 20.7056C17.6041 20.4337 17.0602 20.4149 16.7788 20.6681C16.6757 20.7619 16.3006 21.2683 15.9442 21.7841C11.9305 27.7014 10.9271 34.866 13.1778 41.618C15.419 48.3512 20.6518 53.584 27.3757 55.8252C32.5522 57.5414 37.9162 57.3819 42.9427 55.347C50.7262 52.2054 56.1371 44.9283 56.9061 36.5634C57.5719 29.3519 54.6648 22.1592 49.1789 17.4516C46.9564 15.5479 44.5275 14.1694 41.536 13.1191C38.9665 12.2094 35.1967 11.7968 32.2521 12.0969Z"/>
</mask>
<path d="M32.2521 12.0969C28.6698 12.4626 24.9843 13.7849 22.0491 15.7636C21.6646 16.0168 21.3458 16.2137 21.327 16.195C21.3176 16.1856 21.402 15.8292 21.524 15.4166C21.8053 14.4694 21.8053 14.2913 21.5146 14.0099C21.2426 13.7286 20.8206 13.7005 20.5393 13.9349C20.3048 14.1412 19.0764 18.2768 19.1701 18.5675C19.2077 18.6707 19.3108 18.8301 19.414 18.9239C19.6109 19.102 20.483 19.1771 23.2307 19.2427C24.1872 19.2615 24.206 19.2615 24.431 18.9989C24.7124 18.6707 24.7218 18.3612 24.4498 18.0424C24.2435 17.8173 24.1685 17.7985 23.0619 17.7329L21.8897 17.6673L22.8743 17.0108C28.6416 13.1753 35.9844 12.4345 42.4269 15.0602C48.4849 17.5172 53.1738 22.8438 54.8055 29.1175C55.3119 31.0587 55.4526 32.2215 55.4526 34.5003C55.4526 36.7791 55.3119 37.9419 54.8055 39.8831C52.9393 47.0571 47.0595 52.9369 39.8855 54.8031C37.9444 55.3095 36.7815 55.4501 34.5027 55.4501C32.374 55.4501 31.5206 55.3657 29.8608 54.9812C21.7865 53.1338 15.5691 46.7664 13.9186 38.6546C12.7558 32.9342 14.1062 26.7449 17.5384 22.1123C18.0448 21.4277 18.1198 21.0714 17.8197 20.7056C17.6041 20.4337 17.0602 20.4149 16.7788 20.6681C16.6757 20.7619 16.3006 21.2683 15.9442 21.7841C11.9305 27.7014 10.9271 34.866 13.1778 41.618C15.419 48.3512 20.6518 53.584 27.3757 55.8252C32.5522 57.5414 37.9162 57.3819 42.9427 55.347C50.7262 52.2054 56.1371 44.9283 56.9061 36.5634C57.5719 29.3519 54.6648 22.1592 49.1789 17.4516C46.9564 15.5479 44.5275 14.1694 41.536 13.1191C38.9665 12.2094 35.1967 11.7968 32.2521 12.0969Z" fill="#9C171E"/>
<path d="M32.2521 12.0969C28.6698 12.4626 24.9843 13.7849 22.0491 15.7636C21.6646 16.0168 21.3458 16.2137 21.327 16.195C21.3176 16.1856 21.402 15.8292 21.524 15.4166C21.8053 14.4694 21.8053 14.2913 21.5146 14.0099C21.2426 13.7286 20.8206 13.7005 20.5393 13.9349C20.3048 14.1412 19.0764 18.2768 19.1701 18.5675C19.2077 18.6707 19.3108 18.8301 19.414 18.9239C19.6109 19.102 20.483 19.1771 23.2307 19.2427C24.1872 19.2615 24.206 19.2615 24.431 18.9989C24.7124 18.6707 24.7218 18.3612 24.4498 18.0424C24.2435 17.8173 24.1685 17.7985 23.0619 17.7329L21.8897 17.6673L22.8743 17.0108C28.6416 13.1753 35.9844 12.4345 42.4269 15.0602C48.4849 17.5172 53.1738 22.8438 54.8055 29.1175C55.3119 31.0587 55.4526 32.2215 55.4526 34.5003C55.4526 36.7791 55.3119 37.9419 54.8055 39.8831C52.9393 47.0571 47.0595 52.9369 39.8855 54.8031C37.9444 55.3095 36.7815 55.4501 34.5027 55.4501C32.374 55.4501 31.5206 55.3657 29.8608 54.9812C21.7865 53.1338 15.5691 46.7664 13.9186 38.6546C12.7558 32.9342 14.1062 26.7449 17.5384 22.1123C18.0448 21.4277 18.1198 21.0714 17.8197 20.7056C17.6041 20.4337 17.0602 20.4149 16.7788 20.6681C16.6757 20.7619 16.3006 21.2683 15.9442 21.7841C11.9305 27.7014 10.9271 34.866 13.1778 41.618C15.419 48.3512 20.6518 53.584 27.3757 55.8252C32.5522 57.5414 37.9162 57.3819 42.9427 55.347C50.7262 52.2054 56.1371 44.9283 56.9061 36.5634C57.5719 29.3519 54.6648 22.1592 49.1789 17.4516C46.9564 15.5479 44.5275 14.1694 41.536 13.1191C38.9665 12.2094 35.1967 11.7968 32.2521 12.0969Z" stroke="#9C171E" mask="url(#path-1-outside-1_334_26)"/>
</g>
<path id="Subtract" fill-rule="evenodd" clip-rule="evenodd" d="M34.5 51.0029C43.6127 51.0029 51 43.6156 51 34.5029C51 25.3902 43.6127 18.0029 34.5 18.0029C25.3873 18.0029 18 25.3902 18 34.5029C18 43.6156 25.3873 51.0029 34.5 51.0029ZM33.7712 46.3444C33.7431 45.4348 33.8369 45.1253 34.2214 44.9378C34.4933 44.7971 34.7559 44.8534 35.0185 45.1066C35.1779 45.266 35.206 45.416 35.206 46.2319C35.206 47.1509 35.1967 47.179 34.9435 47.4041C34.6152 47.6854 34.3902 47.6854 34.0619 47.4041C33.8181 47.1884 33.7994 47.1228 33.7712 46.3444ZM25.2655 43.7374C24.8716 43.3529 24.956 43.0997 25.7062 42.3213C26.4471 41.5524 26.7472 41.4492 27.1598 41.8337C27.5724 42.2182 27.4599 42.5464 26.6815 43.2966C25.9032 44.0468 25.65 44.1312 25.2655 43.7374ZM39.1448 29.7927C38.9947 29.8959 37.6256 31.2275 36.1158 32.7654L33.3681 35.5506L31.6614 33.872C29.8421 32.0809 29.5326 31.8746 28.848 32.0152C28.3885 32.109 27.8915 32.4747 27.7227 32.8405C27.5258 33.2437 27.5164 33.9564 27.6946 34.294C27.8634 34.5941 32.4022 39.1235 32.6929 39.2736C32.9742 39.4143 33.7151 39.4049 34.0152 39.2455C34.3715 39.0579 41.1047 32.2684 41.2923 31.9027C41.8174 30.8711 41.0578 29.6239 39.9044 29.6239C39.6043 29.6239 39.323 29.6895 39.1448 29.7927ZM25.2655 25.2633C24.8716 25.6478 24.956 25.901 25.7062 26.6793C26.4565 27.4577 26.7847 27.5702 27.1692 27.1576C27.5536 26.745 27.4505 26.4449 26.6815 25.704C25.9032 24.9538 25.65 24.8694 25.2655 25.2633ZM34.0619 21.5966C33.8087 21.8217 33.7993 21.8498 33.7993 22.7688C33.7993 23.6128 33.8181 23.7347 34.0056 23.9129C34.1275 24.0442 34.3245 24.1192 34.5026 24.1192C34.6808 24.1192 34.8778 24.0442 34.9997 23.9129C35.1872 23.7347 35.206 23.6128 35.206 22.7688C35.206 21.8498 35.1966 21.8217 34.9434 21.5966C34.8027 21.4747 34.5964 21.3715 34.5026 21.3715C34.4089 21.3715 34.2026 21.4747 34.0619 21.5966ZM41.8453 27.167C41.4327 26.7825 41.5453 26.4543 42.3236 25.704C43.102 24.9538 43.3552 24.8694 43.7396 25.2633C44.1335 25.6478 44.0491 25.901 43.2989 26.6793C42.558 27.4483 42.258 27.5515 41.8453 27.167ZM21.4677 34.2472C21.5521 34.1065 21.7209 33.9283 21.8428 33.8627C22.0022 33.7877 22.3585 33.7502 22.8931 33.7689C23.8308 33.797 24.1216 33.9752 24.1216 34.5004C24.1216 35.0255 23.8308 35.2037 22.8931 35.2318C21.9834 35.26 21.7021 35.1662 21.4677 34.7536C21.3457 34.5285 21.3457 34.4722 21.4677 34.2472ZM45.2872 33.8626C44.9309 34.0502 44.7808 34.4346 44.9309 34.7535C45.1278 35.1567 45.4185 35.2599 46.3469 35.2317C47.1253 35.2036 47.1909 35.1849 47.4066 34.941C47.5285 34.8004 47.6317 34.5941 47.6317 34.5003C47.6317 34.4065 47.5285 34.2002 47.4066 34.0595C47.1909 33.8157 47.1253 33.797 46.3469 33.7688C45.803 33.7501 45.4466 33.7876 45.2872 33.8626ZM41.8361 41.8431C41.4516 42.2557 41.5548 42.5558 42.3238 43.2966C43.1021 44.0468 43.3553 44.1312 43.7398 43.7374C44.1337 43.3529 44.0493 43.0997 43.2991 42.3213C42.5488 41.543 42.2206 41.4305 41.8361 41.8431Z" fill="#9C171E"/>
</g>
</g>
</svg>
