<svg width="70" height="70" viewBox="0 0 70 70" fill="none" xmlns="http://www.w3.org/2000/svg">
<path d="M23.5403 12.0833C23.4328 12.1192 23.2625 12.2715 23.155 12.4059C22.9758 12.63 22.9668 12.7464 22.9668 14.3863V16.1337L23.2177 16.3846C23.388 16.5549 23.603 16.6534 23.8719 16.6982C24.0869 16.7251 26.8648 16.743 30.046 16.7251C35.3957 16.6982 35.8437 16.6893 36.0588 16.5369C36.4531 16.2771 36.4979 16.0351 36.4979 14.3594C36.4979 13.1318 36.471 12.7375 36.3635 12.5314C36.0767 11.9758 36.2828 11.9937 29.7144 12.0027C26.4257 12.0027 23.6389 12.0385 23.5403 12.0833Z" fill="#9C171E"/>
<path d="M16.5597 14.234C14.893 14.5028 13.5847 15.6946 13.1546 17.3434C12.9485 18.1141 12.9485 53.716 13.1546 54.4956C13.522 55.8936 14.4539 56.9151 15.8698 57.4528L16.3805 57.6499L28.6033 57.6768L40.8171 57.7037L40.1271 56.9599C39.3475 56.1176 38.3976 54.7466 37.9138 53.7519C36.6951 51.2697 36.3545 47.981 37.0445 45.3823C37.1341 45.0329 37.2148 44.7192 37.2148 44.6744C37.2148 44.6386 33.3168 44.6117 28.5585 44.6117C18.9882 44.6117 19.5169 44.6475 19.0867 44.0382C18.9434 43.8321 18.8896 43.6349 18.8896 43.2496C18.8896 42.703 19.0419 42.4073 19.5079 42.0668C19.7499 41.8786 19.8215 41.8786 29.132 41.8517L38.5141 41.8338L38.9443 41.2065C40.5393 38.8856 43.2007 37.0755 46.0682 36.3676L46.4536 36.269L46.4267 26.8869C46.3998 17.9707 46.3908 17.4868 46.2295 17.0657C45.7725 15.8918 45.0736 15.1032 44.061 14.6193C43.2545 14.234 42.6541 14.1444 40.7813 14.1444H39.2758V15.157C39.2758 15.7394 39.2221 16.3757 39.1504 16.6534C38.765 18.1141 37.5284 19.2163 36.0319 19.4314C35.2971 19.5389 24.1676 19.5389 23.4328 19.4314C22.1693 19.2521 21.0582 18.4277 20.5115 17.2807C20.2517 16.7431 20.2337 16.6086 20.1889 15.4437L20.1441 14.1892L18.576 14.1802C17.7157 14.1713 16.8107 14.1981 16.5597 14.234ZM39.7776 25.6055C40.7992 26.0714 40.8798 27.4783 39.912 28.016L39.5626 28.2131H29.7324C20.8521 28.2131 19.8753 28.1952 19.5975 28.0697C18.791 27.6844 18.6028 26.627 19.2212 25.9281C19.3645 25.7578 19.6154 25.5786 19.7767 25.5338C19.938 25.489 24.1855 25.4531 29.7324 25.4442C38.9891 25.4352 39.4282 25.4442 39.7776 25.6055ZM39.7776 31.0717C40.7992 31.5376 40.8798 32.9445 39.912 33.4822L39.5626 33.6793H29.7324C20.8521 33.6793 19.8753 33.6614 19.5975 33.5359C18.791 33.1506 18.6028 32.0932 19.2212 31.3943C19.3645 31.224 19.6154 31.0448 19.7767 31C19.938 30.9552 24.1855 30.9193 29.7324 30.9104C38.9891 30.9014 39.4282 30.9104 39.7776 31.0717ZM39.7776 36.5379C40.7992 37.0038 40.8798 38.4107 39.912 38.9484L39.5626 39.1455H29.7324C20.8521 39.1455 19.8753 39.1276 19.5975 39.0021C18.791 38.6168 18.6028 37.5594 19.2212 36.8604C19.3645 36.6902 19.6154 36.511 19.7767 36.4662C19.938 36.4214 24.1855 36.3855 29.7324 36.3766C38.9891 36.3676 39.4282 36.3766 39.7776 36.5379Z" fill="#9C171E"/>
<path d="M46.9822 39.0021C43.7294 39.6831 41.0501 42.0667 39.9658 45.2389C38.6396 49.119 40.0106 53.5995 43.2634 56.019C47.5647 59.2181 53.47 58.1427 56.4271 53.6174C58.0401 51.1532 58.4433 48.0079 57.4935 45.2389C56.8751 43.4288 55.6385 41.7442 54.0614 40.5703C53.3983 40.0774 51.9287 39.3785 51.0595 39.1365C50.1455 38.8946 47.8783 38.8139 46.9822 39.0021ZM49.4823 44.2353C50.029 44.6385 50.0738 44.773 50.1186 46.4307L50.1634 47.972L51.5165 49.7732C52.2602 50.7589 52.9413 51.6998 53.0309 51.8701C53.3266 52.4346 53.1026 53.1604 52.5112 53.6085C52.1796 53.8504 51.4269 53.8594 51.0684 53.6174C50.7638 53.4113 47.6543 49.2983 47.4661 48.8592C47.2869 48.438 47.2869 45.2658 47.4661 44.8536C47.6185 44.4952 47.95 44.1815 48.2905 44.074C48.64 43.9665 49.2225 44.0471 49.4823 44.2353Z" fill="#9C171E"/>
</svg>
