<svg width="70" height="70" viewBox="0 0 70 70" fill="none" xmlns="http://www.w3.org/2000/svg">
<path d="M23.5403 12.0815C23.4328 12.1173 23.2625 12.2696 23.155 12.4041C22.9758 12.6281 22.9668 12.7446 22.9668 14.3844V16.1318L23.2177 16.3827C23.388 16.553 23.603 16.6516 23.8719 16.6964C24.0869 16.7233 26.8648 16.7412 30.046 16.7233C35.3957 16.6964 35.8437 16.6874 36.0588 16.5351C36.4531 16.2752 36.4979 16.0333 36.4979 14.3576C36.4979 13.1299 36.471 12.7356 36.3635 12.5295C36.0767 11.9739 36.2828 11.9919 29.7144 12.0008C26.4257 12.0008 23.6389 12.0367 23.5403 12.0815Z" fill="#9C171E"/>
<path d="M16.5597 14.2334C14.893 14.5023 13.5847 15.6941 13.1546 17.3429C12.9485 18.1135 12.9485 53.7155 13.1546 54.4951C13.522 55.893 14.4539 56.9146 15.8698 57.4522L16.3805 57.6494L28.6033 57.6762L40.8171 57.7031L40.1271 56.9594C39.3475 56.117 38.3976 54.746 37.9138 53.7513C36.6951 51.2691 36.3545 47.9805 37.0445 45.3818C37.1341 45.0323 37.2148 44.7187 37.2148 44.6739C37.2148 44.638 33.3168 44.6111 28.5585 44.6111C18.9882 44.6111 19.5169 44.647 19.0867 44.0376C18.9434 43.8315 18.8896 43.6344 18.8896 43.2491C18.8896 42.7025 19.0419 42.4067 19.5079 42.0662C19.7499 41.878 19.8215 41.878 29.132 41.8512L38.5141 41.8332L38.9443 41.206C40.5393 38.8851 43.2007 37.075 46.0682 36.367L46.4536 36.2685L46.4267 26.8863C46.3998 17.9702 46.3908 17.4863 46.2295 17.0651C45.7725 15.8912 45.0736 15.1026 44.061 14.6188C43.2545 14.2334 42.6541 14.1438 40.7813 14.1438H39.2758V15.1564C39.2758 15.7389 39.2221 16.3751 39.1504 16.6529C38.765 18.1135 37.5284 19.2157 36.0319 19.4308C35.2971 19.5383 24.1676 19.5383 23.4328 19.4308C22.1693 19.2516 21.0582 18.4272 20.5115 17.2802C20.2517 16.7425 20.2337 16.6081 20.1889 15.4432L20.1441 14.1886L18.576 14.1797C17.7157 14.1707 16.8107 14.1976 16.5597 14.2334ZM39.7776 25.6049C40.7992 26.0709 40.8798 27.4778 39.912 28.0154L39.5626 28.2126H29.7324C20.8521 28.2126 19.8753 28.1946 19.5975 28.0692C18.791 27.6839 18.6028 26.6265 19.2212 25.9275C19.3645 25.7572 19.6154 25.578 19.7767 25.5332C19.938 25.4884 24.1855 25.4526 29.7324 25.4436C38.9891 25.4347 39.4282 25.4436 39.7776 25.6049ZM39.7776 31.0711C40.7992 31.5371 40.8798 32.944 39.912 33.4816L39.5626 33.6788H29.7324C20.8521 33.6788 19.8753 33.6608 19.5975 33.5354C18.791 33.1501 18.6028 32.0927 19.2212 31.3937C19.3645 31.2234 19.6154 31.0442 19.7767 30.9994C19.938 30.9546 24.1855 30.9188 29.7324 30.9098C38.9891 30.9008 39.4282 30.9098 39.7776 31.0711ZM39.7776 36.5373C40.7992 37.0033 40.8798 38.4101 39.912 38.9478L39.5626 39.1449H29.7324C20.8521 39.1449 19.8753 39.127 19.5975 39.0016C18.791 38.6162 18.6028 37.5589 19.2212 36.8599C19.3645 36.6896 19.6154 36.5104 19.7767 36.4656C19.938 36.4208 24.1855 36.385 29.7324 36.376C38.9891 36.367 39.4282 36.376 39.7776 36.5373Z" fill="#9C171E"/>
<path d="M46.9822 39.0011C43.7294 39.6821 41.0501 42.0657 39.9658 45.2379C38.6396 49.118 40.0106 53.5985 43.2634 56.0179C47.5647 59.217 53.47 58.1417 56.4271 53.6164C58.0401 51.1521 58.4433 48.0068 57.4935 45.2379C56.8751 43.4278 55.6385 41.7431 54.0614 40.5692C53.3983 40.0764 51.9287 39.3774 51.0595 39.1355C50.1455 38.8935 47.8783 38.8129 46.9822 39.0011ZM49.4823 44.2343C50.029 44.6375 50.0738 44.7719 50.1186 46.4297L50.1634 47.971L51.5165 49.7721C52.2602 50.7579 52.9413 51.6988 53.0309 51.869C53.3266 52.4336 53.1026 53.1594 52.5112 53.6074C52.1796 53.8494 51.4269 53.8584 51.0684 53.6164C50.7638 53.4103 47.6543 49.2972 47.4661 48.8581C47.2869 48.437 47.2869 45.2648 47.4661 44.8526C47.6185 44.4941 47.95 44.1805 48.2905 44.073C48.64 43.9654 49.2225 44.0461 49.4823 44.2343Z" fill="#9C171E"/>
</svg>
