<svg width="70" height="70" viewBox="0 0 70 70" fill="none" xmlns="http://www.w3.org/2000/svg">
<g id="automatic-bank-integration">
<g id="Group">
<path id="Vector" d="M30.007 22.8649C27.6529 23.8455 25.123 24.8953 24.3783 25.2052C23.6383 25.5151 22.9723 25.8018 22.8983 25.8481C22.6439 26.0007 22.6069 26.1626 22.6069 27.0922C22.6069 28.0681 22.6532 28.2254 22.9769 28.3919C23.1573 28.4844 23.2221 28.4844 34.4471 28.4844C45.672 28.4844 45.7368 28.4844 45.9172 28.3919C46.2409 28.2254 46.2872 28.0681 46.2872 27.0969C46.2872 26.1302 46.2409 25.9683 45.9264 25.8065C45.8293 25.7556 44.9505 25.3856 43.97 24.9786C35.7189 21.5514 34.5812 21.0843 34.4378 21.0889C34.3453 21.0889 32.5693 21.8012 30.007 22.8649ZM38.9334 25.1081C39.1415 25.2145 39.3034 25.4781 39.3034 25.7093C39.3034 25.9406 39.1415 26.2042 38.9334 26.3106C38.7576 26.4031 38.6697 26.4031 34.4424 26.4031H30.1365L29.9515 26.3014C29.4844 26.0377 29.4798 25.4041 29.9423 25.1266L30.1226 25.0156H34.4378C38.6697 25.0156 38.7576 25.0156 38.9334 25.1081Z" fill="#9C171E"/>
<path id="Vector_2" d="M24.8269 33.4547V37.0391H26.5844H28.3419V33.4547V29.8702H26.5844H24.8269V33.4547Z" fill="#9C171E"/>
<path id="Vector_3" d="M40.552 33.4547V37.0391H42.3095H44.067V33.4547V29.8702H42.3095H40.552V33.4547Z" fill="#9C171E"/>
<path id="Vector_4" d="M34.1139 30.894C33.8873 31.0097 33.7532 31.2687 33.7532 31.5924V31.8376L33.5127 31.9486C33.212 32.0873 32.7449 32.5452 32.6015 32.8458C32.1899 33.7014 32.3333 34.608 32.99 35.2601C33.3739 35.6486 33.9197 35.8845 34.4284 35.8845C34.7984 35.8845 35.1407 36.2175 35.1407 36.5829C35.1407 36.9251 34.7892 37.272 34.4423 37.272C34.1047 37.272 33.7532 36.9205 33.7532 36.5782C33.7532 36.347 33.5913 36.0833 33.3832 35.977C33.1519 35.8613 32.9669 35.8613 32.7356 35.977C31.9956 36.3516 32.4489 37.8686 33.4525 38.3866L33.7532 38.5439V38.789C33.7532 39.1174 33.8873 39.3718 34.1232 39.492C34.6319 39.751 35.1407 39.3995 35.1407 38.789V38.5439L35.3858 38.4282C35.6818 38.2895 36.1443 37.8362 36.2923 37.5356C36.7039 36.6846 36.5606 35.7735 35.9038 35.1167C35.5153 34.7282 34.9788 34.497 34.4608 34.497C34.1047 34.497 33.7532 34.1547 33.7532 33.8032C33.7532 33.4609 34.1047 33.1094 34.4423 33.1094C34.7984 33.1094 35.1407 33.4517 35.1407 33.8032C35.1407 34.1547 35.4829 34.497 35.8344 34.497C35.9131 34.497 36.0611 34.4553 36.1582 34.4045C36.5883 34.1825 36.6438 33.5673 36.2923 32.8458C36.1397 32.5406 35.6818 32.0873 35.3858 31.9486L35.1407 31.8376V31.5924C35.1407 30.9773 34.618 30.6258 34.1139 30.894Z" fill="#9C171E"/>
<path id="Vector_5" d="M24.3227 38.5052C23.9759 38.6855 23.9065 38.9122 23.9019 39.8464V40.5078H26.589H29.2762L29.2623 39.7308C29.2438 38.8844 29.2068 38.7549 28.9293 38.5468C28.7998 38.4497 28.7535 38.4497 26.6399 38.4358C24.6511 38.4265 24.4661 38.4312 24.3227 38.5052Z" fill="#9C171E"/>
<path id="Vector_6" d="M40.0478 38.5052C39.701 38.6855 39.6316 38.9122 39.627 39.8464V40.5078H42.3141H45.0013L44.9874 39.7308C44.9689 38.8844 44.9319 38.7549 44.6544 38.5468C44.5249 38.4497 44.4786 38.4497 42.365 38.4358C40.3762 38.4265 40.1912 38.4312 40.0478 38.5052Z" fill="#9C171E"/>
<path id="Vector_7" d="M23.2082 41.8063C23.0093 41.8896 22.7919 42.0792 22.6994 42.2642C22.6162 42.4261 22.6069 42.5371 22.6069 43.328C22.6069 44.3501 22.6486 44.5027 22.9769 44.6692C23.1573 44.7617 23.2221 44.7617 34.4471 44.7617C45.6721 44.7617 45.7368 44.7617 45.9172 44.6692C46.0374 44.6091 46.1346 44.512 46.1947 44.3871C46.2872 44.2113 46.2918 44.1373 46.2779 43.2586L46.2641 42.3197L46.1207 42.1393C46.0421 42.0422 45.9079 41.9173 45.8247 41.8572L45.6721 41.7554L34.4979 41.7601C27.269 41.7601 23.2822 41.7786 23.2082 41.8063Z" fill="#9C171E"/>
<g id="Group_2">
<g id="Vector_8">
<mask id="path-8-outside-1_5912_45996" maskUnits="userSpaceOnUse" x="11" y="11.3711" width="40" height="36" fill="black">
<rect fill="white" x="11" y="11.3711" width="40" height="36"/>
<path d="M32.8309 12.0362C32.6638 12.0538 32.1449 12.1153 31.6876 12.1681C29.0667 12.4671 25.9797 13.4609 23.6491 14.7626C14.4673 19.8899 10.0435 30.3997 12.8227 40.5138C13.2097 41.9297 13.8517 43.5568 14.5641 44.92C15.2061 46.16 15.4436 46.3711 16.1823 46.3711C16.6133 46.3711 16.6924 46.3359 17.0178 46.0369C17.3169 45.7467 17.3784 45.6323 17.4136 45.2629C17.4576 44.8584 17.4048 44.7265 16.754 43.3809C16.367 42.5805 15.9185 41.5691 15.769 41.1382C14.01 36.0724 14.3178 30.5756 16.6397 25.8352C18.6361 21.7632 21.7758 18.6235 25.839 16.6358C31.925 13.672 38.9609 14.0062 44.8622 17.5417C45.3547 17.8407 45.7593 18.1134 45.7593 18.1574C45.7593 18.1925 45.1084 18.2277 44.3169 18.2277C42.9713 18.2277 42.8658 18.2365 42.5931 18.4212C41.7576 18.9929 41.8016 20.1274 42.6899 20.6463C42.9713 20.8134 43.1472 20.8222 46.4189 20.8222C49.7873 20.8222 49.8576 20.8222 50.1567 20.6287C50.7811 20.2417 50.7723 20.3209 50.7723 16.3984C50.7723 12.8893 50.7723 12.8893 50.57 12.5902C50.4469 12.4055 50.2094 12.2296 49.9632 12.1241C49.5938 11.9746 49.5058 11.9658 49.1804 12.0625C48.7143 12.2033 48.3537 12.5551 48.2306 13.0036C48.1778 13.1883 48.1339 14.0678 48.1339 14.956V16.5655L47.3247 16.0026C44.3609 13.9446 40.9749 12.643 37.3602 12.1593C36.6302 12.0625 33.3674 11.9746 32.8309 12.0362Z"/>
</mask>
<path d="M32.8309 12.0362C32.6638 12.0538 32.1449 12.1153 31.6876 12.1681C29.0667 12.4671 25.9797 13.4609 23.6491 14.7626C14.4673 19.8899 10.0435 30.3997 12.8227 40.5138C13.2097 41.9297 13.8517 43.5568 14.5641 44.92C15.2061 46.16 15.4436 46.3711 16.1823 46.3711C16.6133 46.3711 16.6924 46.3359 17.0178 46.0369C17.3169 45.7467 17.3784 45.6323 17.4136 45.2629C17.4576 44.8584 17.4048 44.7265 16.754 43.3809C16.367 42.5805 15.9185 41.5691 15.769 41.1382C14.01 36.0724 14.3178 30.5756 16.6397 25.8352C18.6361 21.7632 21.7758 18.6235 25.839 16.6358C31.925 13.672 38.9609 14.0062 44.8622 17.5417C45.3547 17.8407 45.7593 18.1134 45.7593 18.1574C45.7593 18.1925 45.1084 18.2277 44.3169 18.2277C42.9713 18.2277 42.8658 18.2365 42.5931 18.4212C41.7576 18.9929 41.8016 20.1274 42.6899 20.6463C42.9713 20.8134 43.1472 20.8222 46.4189 20.8222C49.7873 20.8222 49.8576 20.8222 50.1567 20.6287C50.7811 20.2417 50.7723 20.3209 50.7723 16.3984C50.7723 12.8893 50.7723 12.8893 50.57 12.5902C50.4469 12.4055 50.2094 12.2296 49.9632 12.1241C49.5938 11.9746 49.5058 11.9658 49.1804 12.0625C48.7143 12.2033 48.3537 12.5551 48.2306 13.0036C48.1778 13.1883 48.1339 14.0678 48.1339 14.956V16.5655L47.3247 16.0026C44.3609 13.9446 40.9749 12.643 37.3602 12.1593C36.6302 12.0625 33.3674 11.9746 32.8309 12.0362Z" fill="#9C171E"/>
<path d="M32.8309 12.0362C32.6638 12.0538 32.1449 12.1153 31.6876 12.1681C29.0667 12.4671 25.9797 13.4609 23.6491 14.7626C14.4673 19.8899 10.0435 30.3997 12.8227 40.5138C13.2097 41.9297 13.8517 43.5568 14.5641 44.92C15.2061 46.16 15.4436 46.3711 16.1823 46.3711C16.6133 46.3711 16.6924 46.3359 17.0178 46.0369C17.3169 45.7467 17.3784 45.6323 17.4136 45.2629C17.4576 44.8584 17.4048 44.7265 16.754 43.3809C16.367 42.5805 15.9185 41.5691 15.769 41.1382C14.01 36.0724 14.3178 30.5756 16.6397 25.8352C18.6361 21.7632 21.7758 18.6235 25.839 16.6358C31.925 13.672 38.9609 14.0062 44.8622 17.5417C45.3547 17.8407 45.7593 18.1134 45.7593 18.1574C45.7593 18.1925 45.1084 18.2277 44.3169 18.2277C42.9713 18.2277 42.8658 18.2365 42.5931 18.4212C41.7576 18.9929 41.8016 20.1274 42.6899 20.6463C42.9713 20.8134 43.1472 20.8222 46.4189 20.8222C49.7873 20.8222 49.8576 20.8222 50.1567 20.6287C50.7811 20.2417 50.7723 20.3209 50.7723 16.3984C50.7723 12.8893 50.7723 12.8893 50.57 12.5902C50.4469 12.4055 50.2094 12.2296 49.9632 12.1241C49.5938 11.9746 49.5058 11.9658 49.1804 12.0625C48.7143 12.2033 48.3537 12.5551 48.2306 13.0036C48.1778 13.1883 48.1339 14.0678 48.1339 14.956V16.5655L47.3247 16.0026C44.3609 13.9446 40.9749 12.643 37.3602 12.1593C36.6302 12.0625 33.3674 11.9746 32.8309 12.0362Z" stroke="#9C171E" stroke-width="0.4" mask="url(#path-8-outside-1_5912_45996)"/>
</g>
<g id="Vector_9">
<mask id="path-9-outside-2_5912_45996" maskUnits="userSpaceOnUse" x="17.2314" y="22.0078" width="40" height="36" fill="black">
<rect fill="white" x="17.2314" y="22.0078" width="40" height="36"/>
<path d="M51.9859 22.9603C51.6869 23.2505 51.6253 23.3649 51.5902 23.7343C51.5462 24.1388 51.599 24.2707 52.2498 25.6163C53.2876 27.7359 53.7977 29.3365 54.1758 31.6408C54.3957 32.9864 54.3957 35.9942 54.167 37.3574C53.8152 39.5737 53.2876 41.2623 52.3553 43.1708C50.3941 47.1988 47.2103 50.3913 43.1647 52.3526C40.5791 53.6102 38.1165 54.2259 35.2054 54.349C31.3533 54.4985 27.5627 53.5047 24.1504 51.4555C23.6491 51.1565 23.2445 50.8838 23.2445 50.8398C23.2445 50.8047 23.8953 50.7695 24.6868 50.7695C26.0324 50.7695 26.138 50.7607 26.4106 50.5672C27.2461 50.0043 27.2022 48.8698 26.3139 48.3509C26.0324 48.1838 25.8566 48.175 22.5849 48.175C19.2165 48.175 19.1461 48.175 18.8471 48.3685C18.2227 48.7555 18.2315 48.6763 18.2315 52.5988C18.2315 56.1079 18.2315 56.1079 18.4337 56.407C18.5569 56.5917 18.7943 56.7675 19.0406 56.8731C19.41 57.0226 19.4979 57.0314 19.8233 56.9347C20.2894 56.7939 20.65 56.4421 20.7732 55.9936C20.8259 55.8089 20.8699 54.9294 20.8699 54.0324V52.4229L21.0722 52.5636C22.8223 53.8301 25.2761 55.1405 27.0263 55.7386C32.2768 57.5503 37.7559 57.4184 42.9449 55.3692C47.7644 53.4695 52.1266 49.4854 54.5364 44.7714C57.0429 39.8727 57.6674 34.1297 56.269 28.8176C55.8381 27.1642 55.4159 26.0561 54.598 24.429C53.7801 22.802 53.613 22.6261 52.8214 22.6261C52.3905 22.6261 52.3113 22.6613 51.9859 22.9603Z"/>
</mask>
<path d="M51.9859 22.9603C51.6869 23.2505 51.6253 23.3649 51.5902 23.7343C51.5462 24.1388 51.599 24.2707 52.2498 25.6163C53.2876 27.7359 53.7977 29.3365 54.1758 31.6408C54.3957 32.9864 54.3957 35.9942 54.167 37.3574C53.8152 39.5737 53.2876 41.2623 52.3553 43.1708C50.3941 47.1988 47.2103 50.3913 43.1647 52.3526C40.5791 53.6102 38.1165 54.2259 35.2054 54.349C31.3533 54.4985 27.5627 53.5047 24.1504 51.4555C23.6491 51.1565 23.2445 50.8838 23.2445 50.8398C23.2445 50.8047 23.8953 50.7695 24.6868 50.7695C26.0324 50.7695 26.138 50.7607 26.4106 50.5672C27.2461 50.0043 27.2022 48.8698 26.3139 48.3509C26.0324 48.1838 25.8566 48.175 22.5849 48.175C19.2165 48.175 19.1461 48.175 18.8471 48.3685C18.2227 48.7555 18.2315 48.6763 18.2315 52.5988C18.2315 56.1079 18.2315 56.1079 18.4337 56.407C18.5569 56.5917 18.7943 56.7675 19.0406 56.8731C19.41 57.0226 19.4979 57.0314 19.8233 56.9347C20.2894 56.7939 20.65 56.4421 20.7732 55.9936C20.8259 55.8089 20.8699 54.9294 20.8699 54.0324V52.4229L21.0722 52.5636C22.8223 53.8301 25.2761 55.1405 27.0263 55.7386C32.2768 57.5503 37.7559 57.4184 42.9449 55.3692C47.7644 53.4695 52.1266 49.4854 54.5364 44.7714C57.0429 39.8727 57.6674 34.1297 56.269 28.8176C55.8381 27.1642 55.4159 26.0561 54.598 24.429C53.7801 22.802 53.613 22.6261 52.8214 22.6261C52.3905 22.6261 52.3113 22.6613 51.9859 22.9603Z" fill="#9C171E"/>
<path d="M51.9859 22.9603C51.6869 23.2505 51.6253 23.3649 51.5902 23.7343C51.5462 24.1388 51.599 24.2707 52.2498 25.6163C53.2876 27.7359 53.7977 29.3365 54.1758 31.6408C54.3957 32.9864 54.3957 35.9942 54.167 37.3574C53.8152 39.5737 53.2876 41.2623 52.3553 43.1708C50.3941 47.1988 47.2103 50.3913 43.1647 52.3526C40.5791 53.6102 38.1165 54.2259 35.2054 54.349C31.3533 54.4985 27.5627 53.5047 24.1504 51.4555C23.6491 51.1565 23.2445 50.8838 23.2445 50.8398C23.2445 50.8047 23.8953 50.7695 24.6868 50.7695C26.0324 50.7695 26.138 50.7607 26.4106 50.5672C27.2461 50.0043 27.2022 48.8698 26.3139 48.3509C26.0324 48.1838 25.8566 48.175 22.5849 48.175C19.2165 48.175 19.1461 48.175 18.8471 48.3685C18.2227 48.7555 18.2315 48.6763 18.2315 52.5988C18.2315 56.1079 18.2315 56.1079 18.4337 56.407C18.5569 56.5917 18.7943 56.7675 19.0406 56.8731C19.41 57.0226 19.4979 57.0314 19.8233 56.9347C20.2894 56.7939 20.65 56.4421 20.7732 55.9936C20.8259 55.8089 20.8699 54.9294 20.8699 54.0324V52.4229L21.0722 52.5636C22.8223 53.8301 25.2761 55.1405 27.0263 55.7386C32.2768 57.5503 37.7559 57.4184 42.9449 55.3692C47.7644 53.4695 52.1266 49.4854 54.5364 44.7714C57.0429 39.8727 57.6674 34.1297 56.269 28.8176C55.8381 27.1642 55.4159 26.0561 54.598 24.429C53.7801 22.802 53.613 22.6261 52.8214 22.6261C52.3905 22.6261 52.3113 22.6613 51.9859 22.9603Z" stroke="#9C171E" stroke-width="0.4" mask="url(#path-9-outside-2_5912_45996)"/>
</g>
</g>
</g>
</g>
</svg>
