<svg width="70" height="70" viewBox="0 0 70 70" fill="none" xmlns="http://www.w3.org/2000/svg">
<g id="bank-integration">
<g id="Group">
<path id="Vector" d="M30.007 22.863C27.6529 23.8435 25.123 24.8934 24.3783 25.2032C23.6383 25.5131 22.9723 25.7999 22.8983 25.8461C22.6439 25.9988 22.6069 26.1606 22.6069 27.0903C22.6069 28.0662 22.6532 28.2234 22.9769 28.3899C23.1573 28.4824 23.2221 28.4824 34.4471 28.4824C45.672 28.4824 45.7368 28.4824 45.9172 28.3899C46.2409 28.2234 46.2872 28.0662 46.2872 27.0949C46.2872 26.1283 46.2409 25.9664 45.9264 25.8045C45.8293 25.7536 44.9505 25.3836 43.97 24.9766C35.7189 21.5495 34.5812 21.0823 34.4378 21.087C34.3453 21.087 32.5693 21.7992 30.007 22.863ZM38.9334 25.1061C39.1415 25.2125 39.3034 25.4761 39.3034 25.7074C39.3034 25.9386 39.1415 26.2023 38.9334 26.3086C38.7576 26.4011 38.6697 26.4011 34.4424 26.4011H30.1365L29.9515 26.2994C29.4844 26.0358 29.4798 25.4021 29.9423 25.1246L30.1226 25.0136H34.4378C38.6697 25.0136 38.7576 25.0136 38.9334 25.1061Z" fill="#9C171E"/>
<path id="Vector_2" d="M24.8271 33.4543V37.0387H26.5847H28.3422V33.4543V29.8699H26.5847H24.8271V33.4543Z" fill="#9C171E"/>
<path id="Vector_3" d="M40.5522 33.4543V37.0387H42.3098H44.0673V33.4543V29.8699H42.3098H40.5522V33.4543Z" fill="#9C171E"/>
<path id="Vector_4" d="M34.1142 30.8921C33.8875 31.0077 33.7534 31.2667 33.7534 31.5904V31.8356L33.5129 31.9466C33.2123 32.0853 32.7451 32.5432 32.6018 32.8438C32.1901 33.6995 32.3335 34.606 32.9903 35.2581C33.3741 35.6466 33.9199 35.8825 34.4287 35.8825C34.7987 35.8825 35.1409 36.2155 35.1409 36.5809C35.1409 36.9231 34.7894 37.27 34.4425 37.27C34.1049 37.27 33.7534 36.9185 33.7534 36.5762C33.7534 36.345 33.5915 36.0814 33.3834 35.975C33.1521 35.8594 32.9671 35.8594 32.7359 35.975C31.9959 36.3496 32.4491 37.8666 33.4528 38.3846L33.7534 38.5419V38.787C33.7534 39.1154 33.8875 39.3698 34.1234 39.49C34.6322 39.749 35.1409 39.3975 35.1409 38.787V38.5419L35.386 38.4263C35.682 38.2875 36.1445 37.8343 36.2925 37.5336C36.7042 36.6826 36.5608 35.7715 35.904 35.1147C35.5155 34.7262 34.979 34.495 34.461 34.495C34.1049 34.495 33.7534 34.1527 33.7534 33.8012C33.7534 33.459 34.1049 33.1075 34.4425 33.1075C34.7987 33.1075 35.1409 33.4497 35.1409 33.8012C35.1409 34.1527 35.4832 34.495 35.8347 34.495C35.9133 34.495 36.0613 34.4533 36.1584 34.4025C36.5886 34.1805 36.6441 33.5653 36.2925 32.8438C36.1399 32.5386 35.682 32.0853 35.386 31.9466L35.1409 31.8356V31.5904C35.1409 30.9753 34.6183 30.6238 34.1142 30.8921Z" fill="#9C171E"/>
<path id="Vector_5" d="M24.3227 38.5049C23.9759 38.6853 23.9065 38.9119 23.9019 39.8461V40.5075H26.589H29.2762L29.2623 39.7305C29.2438 38.8841 29.2068 38.7546 28.9293 38.5465C28.7998 38.4494 28.7535 38.4494 26.6399 38.4355C24.6511 38.4263 24.4661 38.4309 24.3227 38.5049Z" fill="#9C171E"/>
<path id="Vector_6" d="M40.0478 38.5049C39.701 38.6853 39.6316 38.9119 39.627 39.8461V40.5075H42.3141H45.0013L44.9874 39.7305C44.9689 38.8841 44.9319 38.7546 44.6544 38.5465C44.5249 38.4494 44.4786 38.4494 42.365 38.4355C40.3762 38.4263 40.1912 38.4309 40.0478 38.5049Z" fill="#9C171E"/>
<path id="Vector_7" d="M23.2082 41.8072C23.0093 41.8904 22.7919 42.08 22.6994 42.265C22.6162 42.4269 22.6069 42.5379 22.6069 43.3288C22.6069 44.3509 22.6486 44.5036 22.9769 44.6701C23.1573 44.7626 23.2221 44.7626 34.4471 44.7626C45.6721 44.7626 45.7368 44.7626 45.9172 44.6701C46.0374 44.6099 46.1346 44.5128 46.1947 44.3879C46.2872 44.2122 46.2918 44.1382 46.2779 43.2594L46.2641 42.3205L46.1207 42.1402C46.0421 42.043 45.9079 41.9182 45.8247 41.858L45.6721 41.7563L34.4979 41.7609C27.269 41.7609 23.2822 41.7794 23.2082 41.8072Z" fill="#9C171E"/>
<g id="Group_2">
<g id="Vector_8">
<mask id="path-8-outside-1_334_32" maskUnits="userSpaceOnUse" x="11" y="11.372" width="40" height="36" fill="black">
<rect fill="white" x="11" y="11.372" width="40" height="36"/>
<path d="M32.8309 12.0371C32.6638 12.0547 32.1449 12.1162 31.6876 12.169C29.0667 12.468 25.9797 13.4618 23.6491 14.7635C14.4673 19.8908 10.0435 30.4006 12.8227 40.5147C13.2097 41.9306 13.8517 43.5577 14.5641 44.9209C15.2061 46.1609 15.4436 46.372 16.1823 46.372C16.6133 46.372 16.6924 46.3368 17.0178 46.0378C17.3169 45.7476 17.3784 45.6332 17.4136 45.2639C17.4576 44.8593 17.4048 44.7274 16.754 43.3818C16.367 42.5814 15.9185 41.57 15.769 41.1391C14.01 36.0733 14.3178 30.5765 16.6397 25.8361C18.6361 21.7641 21.7758 18.6244 25.839 16.6368C31.925 13.6729 38.9609 14.0071 44.8622 17.5426C45.3547 17.8417 45.7593 18.1143 45.7593 18.1583C45.7593 18.1934 45.1084 18.2286 44.3169 18.2286C42.9713 18.2286 42.8658 18.2374 42.5931 18.4221C41.7576 18.9938 41.8016 20.1283 42.6899 20.6472C42.9713 20.8143 43.1472 20.8231 46.4189 20.8231C49.7873 20.8231 49.8576 20.8231 50.1567 20.6296C50.7811 20.2426 50.7723 20.3218 50.7723 16.3993C50.7723 12.8902 50.7723 12.8902 50.57 12.5912C50.4469 12.4065 50.2094 12.2306 49.9632 12.125C49.5938 11.9755 49.5058 11.9667 49.1804 12.0635C48.7143 12.2042 48.3537 12.556 48.2306 13.0045C48.1778 13.1892 48.1339 14.0687 48.1339 14.957V16.5664L47.3247 16.0035C44.3609 13.9456 40.9749 12.6439 37.3602 12.1602C36.6302 12.0635 33.3674 11.9755 32.8309 12.0371Z"/>
</mask>
<path d="M32.8309 12.0371C32.6638 12.0547 32.1449 12.1162 31.6876 12.169C29.0667 12.468 25.9797 13.4618 23.6491 14.7635C14.4673 19.8908 10.0435 30.4006 12.8227 40.5147C13.2097 41.9306 13.8517 43.5577 14.5641 44.9209C15.2061 46.1609 15.4436 46.372 16.1823 46.372C16.6133 46.372 16.6924 46.3368 17.0178 46.0378C17.3169 45.7476 17.3784 45.6332 17.4136 45.2639C17.4576 44.8593 17.4048 44.7274 16.754 43.3818C16.367 42.5814 15.9185 41.57 15.769 41.1391C14.01 36.0733 14.3178 30.5765 16.6397 25.8361C18.6361 21.7641 21.7758 18.6244 25.839 16.6368C31.925 13.6729 38.9609 14.0071 44.8622 17.5426C45.3547 17.8417 45.7593 18.1143 45.7593 18.1583C45.7593 18.1934 45.1084 18.2286 44.3169 18.2286C42.9713 18.2286 42.8658 18.2374 42.5931 18.4221C41.7576 18.9938 41.8016 20.1283 42.6899 20.6472C42.9713 20.8143 43.1472 20.8231 46.4189 20.8231C49.7873 20.8231 49.8576 20.8231 50.1567 20.6296C50.7811 20.2426 50.7723 20.3218 50.7723 16.3993C50.7723 12.8902 50.7723 12.8902 50.57 12.5912C50.4469 12.4065 50.2094 12.2306 49.9632 12.125C49.5938 11.9755 49.5058 11.9667 49.1804 12.0635C48.7143 12.2042 48.3537 12.556 48.2306 13.0045C48.1778 13.1892 48.1339 14.0687 48.1339 14.957V16.5664L47.3247 16.0035C44.3609 13.9456 40.9749 12.6439 37.3602 12.1602C36.6302 12.0635 33.3674 11.9755 32.8309 12.0371Z" fill="#9C171E"/>
<path d="M32.8309 12.0371C32.6638 12.0547 32.1449 12.1162 31.6876 12.169C29.0667 12.468 25.9797 13.4618 23.6491 14.7635C14.4673 19.8908 10.0435 30.4006 12.8227 40.5147C13.2097 41.9306 13.8517 43.5577 14.5641 44.9209C15.2061 46.1609 15.4436 46.372 16.1823 46.372C16.6133 46.372 16.6924 46.3368 17.0178 46.0378C17.3169 45.7476 17.3784 45.6332 17.4136 45.2639C17.4576 44.8593 17.4048 44.7274 16.754 43.3818C16.367 42.5814 15.9185 41.57 15.769 41.1391C14.01 36.0733 14.3178 30.5765 16.6397 25.8361C18.6361 21.7641 21.7758 18.6244 25.839 16.6368C31.925 13.6729 38.9609 14.0071 44.8622 17.5426C45.3547 17.8417 45.7593 18.1143 45.7593 18.1583C45.7593 18.1934 45.1084 18.2286 44.3169 18.2286C42.9713 18.2286 42.8658 18.2374 42.5931 18.4221C41.7576 18.9938 41.8016 20.1283 42.6899 20.6472C42.9713 20.8143 43.1472 20.8231 46.4189 20.8231C49.7873 20.8231 49.8576 20.8231 50.1567 20.6296C50.7811 20.2426 50.7723 20.3218 50.7723 16.3993C50.7723 12.8902 50.7723 12.8902 50.57 12.5912C50.4469 12.4065 50.2094 12.2306 49.9632 12.125C49.5938 11.9755 49.5058 11.9667 49.1804 12.0635C48.7143 12.2042 48.3537 12.556 48.2306 13.0045C48.1778 13.1892 48.1339 14.0687 48.1339 14.957V16.5664L47.3247 16.0035C44.3609 13.9456 40.9749 12.6439 37.3602 12.1602C36.6302 12.0635 33.3674 11.9755 32.8309 12.0371Z" stroke="#9C171E" stroke-width="0.4" mask="url(#path-8-outside-1_334_32)"/>
</g>
<g id="Vector_9">
<mask id="path-9-outside-2_334_32" maskUnits="userSpaceOnUse" x="17.2314" y="22.0077" width="40" height="36" fill="black">
<rect fill="white" x="17.2314" y="22.0077" width="40" height="36"/>
<path d="M51.9859 22.9602C51.6869 23.2504 51.6253 23.3648 51.5902 23.7342C51.5462 24.1387 51.599 24.2706 52.2498 25.6162C53.2876 27.7358 53.7977 29.3365 54.1758 31.6407C54.3957 32.9863 54.3957 35.9941 54.167 37.3573C53.8152 39.5736 53.2876 41.2622 52.3553 43.1707C50.3941 47.1987 47.2103 50.3912 43.1647 52.3525C40.5791 53.6101 38.1165 54.2258 35.2054 54.3489C31.3533 54.4984 27.5627 53.5046 24.1504 51.4554C23.6491 51.1564 23.2445 50.8837 23.2445 50.8398C23.2445 50.8046 23.8953 50.7694 24.6868 50.7694C26.0324 50.7694 26.138 50.7606 26.4106 50.5671C27.2461 50.0043 27.2022 48.8697 26.3139 48.3508C26.0324 48.1837 25.8566 48.1749 22.5849 48.1749C19.2165 48.1749 19.1461 48.1749 18.8471 48.3684C18.2227 48.7554 18.2315 48.6762 18.2315 52.5987C18.2315 56.1078 18.2315 56.1078 18.4337 56.4069C18.5569 56.5916 18.7943 56.7675 19.0406 56.873C19.41 57.0225 19.4979 57.0313 19.8233 56.9346C20.2894 56.7938 20.65 56.4421 20.7732 55.9935C20.8259 55.8088 20.8699 54.9293 20.8699 54.0323V52.4228L21.0722 52.5635C22.8223 53.83 25.2761 55.1404 27.0263 55.7385C32.2768 57.5502 37.7559 57.4183 42.9449 55.3691C47.7644 53.4694 52.1266 49.4854 54.5364 44.7713C57.0429 39.8726 57.6674 34.1296 56.269 28.8176C55.8381 27.1641 55.4159 26.056 54.598 24.4289C53.7801 22.8019 53.613 22.626 52.8214 22.626C52.3905 22.626 52.3113 22.6612 51.9859 22.9602Z"/>
</mask>
<path d="M51.9859 22.9602C51.6869 23.2504 51.6253 23.3648 51.5902 23.7342C51.5462 24.1387 51.599 24.2706 52.2498 25.6162C53.2876 27.7358 53.7977 29.3365 54.1758 31.6407C54.3957 32.9863 54.3957 35.9941 54.167 37.3573C53.8152 39.5736 53.2876 41.2622 52.3553 43.1707C50.3941 47.1987 47.2103 50.3912 43.1647 52.3525C40.5791 53.6101 38.1165 54.2258 35.2054 54.3489C31.3533 54.4984 27.5627 53.5046 24.1504 51.4554C23.6491 51.1564 23.2445 50.8837 23.2445 50.8398C23.2445 50.8046 23.8953 50.7694 24.6868 50.7694C26.0324 50.7694 26.138 50.7606 26.4106 50.5671C27.2461 50.0043 27.2022 48.8697 26.3139 48.3508C26.0324 48.1837 25.8566 48.1749 22.5849 48.1749C19.2165 48.1749 19.1461 48.1749 18.8471 48.3684C18.2227 48.7554 18.2315 48.6762 18.2315 52.5987C18.2315 56.1078 18.2315 56.1078 18.4337 56.4069C18.5569 56.5916 18.7943 56.7675 19.0406 56.873C19.41 57.0225 19.4979 57.0313 19.8233 56.9346C20.2894 56.7938 20.65 56.4421 20.7732 55.9935C20.8259 55.8088 20.8699 54.9293 20.8699 54.0323V52.4228L21.0722 52.5635C22.8223 53.83 25.2761 55.1404 27.0263 55.7385C32.2768 57.5502 37.7559 57.4183 42.9449 55.3691C47.7644 53.4694 52.1266 49.4854 54.5364 44.7713C57.0429 39.8726 57.6674 34.1296 56.269 28.8176C55.8381 27.1641 55.4159 26.056 54.598 24.4289C53.7801 22.8019 53.613 22.626 52.8214 22.626C52.3905 22.626 52.3113 22.6612 51.9859 22.9602Z" fill="#9C171E"/>
<path d="M51.9859 22.9602C51.6869 23.2504 51.6253 23.3648 51.5902 23.7342C51.5462 24.1387 51.599 24.2706 52.2498 25.6162C53.2876 27.7358 53.7977 29.3365 54.1758 31.6407C54.3957 32.9863 54.3957 35.9941 54.167 37.3573C53.8152 39.5736 53.2876 41.2622 52.3553 43.1707C50.3941 47.1987 47.2103 50.3912 43.1647 52.3525C40.5791 53.6101 38.1165 54.2258 35.2054 54.3489C31.3533 54.4984 27.5627 53.5046 24.1504 51.4554C23.6491 51.1564 23.2445 50.8837 23.2445 50.8398C23.2445 50.8046 23.8953 50.7694 24.6868 50.7694C26.0324 50.7694 26.138 50.7606 26.4106 50.5671C27.2461 50.0043 27.2022 48.8697 26.3139 48.3508C26.0324 48.1837 25.8566 48.1749 22.5849 48.1749C19.2165 48.1749 19.1461 48.1749 18.8471 48.3684C18.2227 48.7554 18.2315 48.6762 18.2315 52.5987C18.2315 56.1078 18.2315 56.1078 18.4337 56.4069C18.5569 56.5916 18.7943 56.7675 19.0406 56.873C19.41 57.0225 19.4979 57.0313 19.8233 56.9346C20.2894 56.7938 20.65 56.4421 20.7732 55.9935C20.8259 55.8088 20.8699 54.9293 20.8699 54.0323V52.4228L21.0722 52.5635C22.8223 53.83 25.2761 55.1404 27.0263 55.7385C32.2768 57.5502 37.7559 57.4183 42.9449 55.3691C47.7644 53.4694 52.1266 49.4854 54.5364 44.7713C57.0429 39.8726 57.6674 34.1296 56.269 28.8176C55.8381 27.1641 55.4159 26.056 54.598 24.4289C53.7801 22.8019 53.613 22.626 52.8214 22.626C52.3905 22.626 52.3113 22.6612 51.9859 22.9602Z" stroke="#9C171E" stroke-width="0.4" mask="url(#path-9-outside-2_334_32)"/>
</g>
</g>
</g>
</g>
</svg>
