<svg width="70" height="70" viewBox="0 0 70 70" fill="none" xmlns="http://www.w3.org/2000/svg">
<path d="M57.0001 17.625C57.0001 17.7169 56.995 17.8093 56.9837 17.9012C56.973 17.9932 56.9567 18.0851 56.9352 18.1765C56.9133 18.2679 56.8867 18.3593 56.854 18.4507C56.8219 18.5416 56.7841 18.6319 56.7407 18.7223C56.6978 18.8127 56.6493 18.9026 56.5957 18.9919C56.542 19.0813 56.4828 19.1696 56.419 19.258C56.3546 19.3458 56.2852 19.4336 56.2112 19.5199C56.1366 19.6067 56.0569 19.6925 55.9727 19.7778C55.8879 19.8625 55.7986 19.9468 55.7041 20.03C55.6096 20.1133 55.5101 20.1955 55.4059 20.2767C55.3017 20.3578 55.193 20.438 55.0796 20.5172C54.9658 20.5958 54.8478 20.6734 54.7247 20.75C54.6022 20.8266 54.475 20.9022 54.3433 20.9757C54.2121 21.0497 54.0757 21.1222 53.9358 21.1937C53.7954 21.2647 53.6514 21.3342 53.5028 21.4026C53.3547 21.471 53.2021 21.5374 53.0463 21.6027C52.8901 21.6676 52.7297 21.7309 52.5663 21.7927C52.4024 21.855 52.2355 21.9147 52.0644 21.9735C51.8939 22.0317 51.7197 22.0883 51.542 22.143C51.3649 22.1981 51.1841 22.2507 51.0003 22.3023C50.8165 22.3534 50.6301 22.4024 50.4406 22.4499C50.2512 22.4974 50.0587 22.5423 49.8641 22.5857C49.6691 22.6291 49.472 22.6705 49.2723 22.7103C49.0722 22.7496 48.8705 22.7869 48.6662 22.8221C48.4625 22.8573 48.2562 22.89 48.0484 22.9212C47.84 22.9523 47.6302 22.9809 47.4188 23.008C47.2074 23.0345 46.9945 23.059 46.7805 23.0815C46.5661 23.104 46.3506 23.1239 46.1341 23.1423C45.9171 23.1601 45.6995 23.1755 45.481 23.1892C45.2624 23.2025 45.0434 23.2138 44.8233 23.2229C44.6037 23.2321 44.3831 23.2388 44.1626 23.2434C43.942 23.248 43.7209 23.25 43.5003 23.25C43.2792 23.25 43.0586 23.248 42.8375 23.2434C42.6169 23.2388 42.3968 23.2321 42.1768 23.2229C41.9572 23.2138 41.7376 23.2025 41.5191 23.1892C41.3005 23.1755 41.083 23.1601 40.8665 23.1423C40.65 23.1239 40.434 23.104 40.2201 23.0815C40.0056 23.059 39.7927 23.0345 39.5813 23.008C39.3699 22.9809 39.16 22.9523 38.9522 22.9212C38.7444 22.89 38.5381 22.8573 38.3338 22.8221C38.1296 22.7869 37.9279 22.7496 37.7282 22.7103C37.5286 22.6705 37.331 22.6291 37.1364 22.5857C36.9414 22.5423 36.7494 22.4974 36.5599 22.4499C36.3705 22.4024 36.1836 22.3534 35.9998 22.3023C35.8165 22.2507 35.6357 22.1981 35.458 22.143C35.2808 22.0883 35.1067 22.0317 34.9357 21.9735C34.7651 21.9147 34.5976 21.855 34.4342 21.7927C34.2703 21.7309 34.1105 21.6676 33.9542 21.6027C33.798 21.5374 33.6458 21.471 33.4972 21.4026C33.3492 21.3342 33.2047 21.2647 33.0647 21.1937C32.9243 21.1222 32.7885 21.0497 32.6568 20.9757C32.525 20.9022 32.3979 20.8266 32.2753 20.75C32.1528 20.6734 32.0343 20.5958 31.921 20.5172C31.8071 20.438 31.6983 20.3578 31.5942 20.2767C31.49 20.1955 31.3909 20.1133 31.2965 20.03C31.202 19.9468 31.1121 19.8625 31.0279 19.7778C30.9431 19.6925 30.864 19.6067 30.7894 19.5199C30.7149 19.4336 30.6454 19.3458 30.5816 19.258C30.5173 19.1696 30.4585 19.0813 30.4049 18.9919C30.3513 18.9026 30.3028 18.8127 30.2594 18.7223C30.2165 18.6319 30.1787 18.5416 30.1465 18.4507C30.1139 18.3593 30.0868 18.2679 30.0654 18.1765C30.0434 18.0851 30.0271 17.9932 30.0163 17.9012C30.0056 17.8093 30 17.7169 30 17.625C30 17.5331 30.0056 17.4412 30.0163 17.3493C30.0271 17.2574 30.0434 17.1654 30.0654 17.0735C30.0868 16.9821 30.1139 16.8907 30.1465 16.7998C30.1787 16.7084 30.2165 16.6181 30.2594 16.5277C30.3028 16.4373 30.3513 16.3474 30.4049 16.2586C30.4585 16.1692 30.5173 16.0804 30.5816 15.992C30.6454 15.9042 30.7149 15.8169 30.7894 15.7301C30.864 15.6433 30.9431 15.5575 31.0279 15.4727C31.1121 15.3875 31.202 15.3032 31.2965 15.22C31.3909 15.1367 31.49 15.0545 31.5942 14.9733C31.6983 14.8922 31.8071 14.812 31.921 14.7334C32.0343 14.6542 32.1528 14.5766 32.2753 14.5C32.3979 14.4234 32.525 14.3483 32.6568 14.2743C32.7885 14.2003 32.9243 14.1278 33.0647 14.0568C33.2047 13.9853 33.3492 13.9159 33.4972 13.8474C33.6458 13.7795 33.798 13.7126 33.9542 13.6478C34.1105 13.5824 34.2703 13.5191 34.4342 13.4573C34.5976 13.3955 34.7651 13.3353 34.9357 13.2771C35.1067 13.2183 35.2808 13.1617 35.458 13.107C35.6357 13.0524 35.8165 12.9993 35.9998 12.9482C36.1836 12.8972 36.3705 12.8476 36.5599 12.8001C36.7494 12.7532 36.9414 12.7077 37.1364 12.6643C37.331 12.6209 37.5286 12.5796 37.7282 12.5402C37.9279 12.5009 38.1296 12.4636 38.3338 12.4284C38.5381 12.3932 38.7444 12.36 38.9522 12.3288C39.16 12.2977 39.3699 12.2691 39.5813 12.2425C39.7927 12.2155 40.0056 12.191 40.2201 12.1685C40.434 12.1465 40.65 12.1261 40.8665 12.1083C41.083 12.0904 41.3005 12.0746 41.5191 12.0608C41.7376 12.0475 41.9572 12.0363 42.1768 12.0271C42.3968 12.0184 42.6169 12.0112 42.8375 12.0066C43.0586 12.0026 43.2792 12 43.5003 12C43.7209 12 43.942 12.0026 44.1626 12.0066C44.3831 12.0112 44.6037 12.0184 44.8233 12.0271C45.0434 12.0363 45.2624 12.0475 45.481 12.0608C45.6995 12.0746 45.9171 12.0904 46.1341 12.1083C46.3506 12.1261 46.5661 12.1465 46.7805 12.1685C46.9945 12.191 47.2074 12.2155 47.4188 12.2425C47.6302 12.2691 47.84 12.2977 48.0484 12.3288C48.2562 12.36 48.4625 12.3932 48.6662 12.4284C48.8705 12.4636 49.0722 12.5009 49.2723 12.5402C49.472 12.5796 49.6691 12.6209 49.8641 12.6643C50.0587 12.7077 50.2512 12.7532 50.4406 12.8001C50.6301 12.8476 50.8165 12.8972 51.0003 12.9482C51.1841 12.9993 51.3649 13.0524 51.542 13.107C51.7197 13.1617 51.8939 13.2183 52.0644 13.2771C52.2355 13.3353 52.4024 13.3955 52.5663 13.4573C52.7297 13.5191 52.8901 13.5824 53.0463 13.6478C53.2021 13.7126 53.3547 13.7795 53.5028 13.8474C53.6514 13.9159 53.7954 13.9853 53.9358 14.0568C54.0757 14.1278 54.2121 14.2003 54.3433 14.2743C54.475 14.3483 54.6022 14.4234 54.7247 14.5C54.8478 14.5766 54.9658 14.6542 55.0796 14.7334C55.193 14.812 55.3017 14.8922 55.4059 14.9733C55.5101 15.0545 55.6096 15.1367 55.7041 15.22C55.7986 15.3032 55.8879 15.3875 55.9727 15.4727C56.0569 15.5575 56.1366 15.6433 56.2112 15.7301C56.2852 15.8169 56.3546 15.9042 56.419 15.992C56.4828 16.0804 56.542 16.1692 56.5957 16.2586C56.6493 16.3474 56.6978 16.4373 56.7407 16.5277C56.7841 16.6181 56.8219 16.7084 56.854 16.7998C56.8867 16.8907 56.9133 16.9821 56.9352 17.0735C56.9567 17.1654 56.973 17.2574 56.9837 17.3493C56.995 17.4412 57.0001 17.5331 57.0001 17.625Z" fill="#9C171E"/>
<path d="M43.5003 25.5003C36.0754 25.5003 30 23.0254 30 19.8753C30 21.2249 30 23.0254 30 24.3749C30 27.525 36.0754 29.9999 43.5003 29.9999C50.9252 29.9999 57.0001 27.525 57.0001 24.3749C57.0001 23.0254 57.0001 21.2249 57.0001 19.8753C57.0001 23.0254 50.9252 25.5003 43.5003 25.5003Z" fill="#9C171E"/>
<path d="M43.5003 39.0001C42.8253 39.0001 41.925 39.0001 41.25 39.0001C41.25 40.125 41.25 41.7003 41.25 43.5002C41.925 43.5002 42.8253 43.5002 43.5003 43.5002C50.9252 43.5002 57.0001 41.0252 57.0001 37.8752C57.0001 36.5251 57.0001 34.7252 57.0001 33.3751C57.0001 36.5251 50.9252 39.0001 43.5003 39.0001Z" fill="#9C171E"/>
<path d="M43.5003 32.2502C36.0754 32.2502 30 29.7753 30 26.6252C30 27.7501 30 29.1002 30 30.2251C35.4003 30.9002 40.1251 33.15 41.0253 36.5252C41.925 36.5252 42.6001 36.5252 43.5003 36.5252C50.9252 36.5252 57.0001 34.0502 57.0001 30.9002C57.0001 29.5501 57.0001 27.7501 57.0001 26.4001C57.0001 29.7753 50.9252 32.2502 43.5003 32.2502Z" fill="#9C171E"/>
<path d="M12 37.8752C12 34.7252 18.0748 32.2502 25.5003 32.2502C32.9252 32.2502 39.0001 34.7252 39.0001 37.8752C39.0001 41.0252 32.9252 43.5002 25.5003 43.5002C18.0748 43.5002 12 41.0252 12 37.8752ZM25.5003 45.75C18.0748 45.75 12 43.275 12 40.125C12 41.4751 12 43.275 12 44.6251C12 47.7751 18.0748 50.2501 25.5003 50.2501C32.9252 50.2501 39.0001 47.7751 39.0001 44.6251C39.0001 43.275 39.0001 41.4751 39.0001 40.125C39.0001 43.275 32.9252 45.75 25.5003 45.75ZM25.5003 52.4999C18.0748 52.4999 12 50.0249 12 46.8749C12 48.225 12 50.0249 12 51.375C12 54.525 18.0748 57 25.5003 57C32.9252 57 39.0001 54.525 39.0001 51.375C39.0001 50.0249 39.0001 48.225 39.0001 46.8749C39.0001 50.0249 32.9252 52.4999 25.5003 52.4999Z" fill="#9C171E"/>
</svg>
