<svg width="70" height="70" viewBox="0 0 70 70" fill="none" xmlns="http://www.w3.org/2000/svg">
<path d="M59.3046 32.969H56.3949C55.1686 21.9419 46.0237 13.0898 35.0083 13.0898C28.9186 13.0898 23.3901 15.8738 19.5659 20.2237C18.5475 21.2677 18.589 22.6597 19.4204 23.4644C20.2725 24.2909 21.4988 24.2909 22.538 23.2904C25.6348 19.7887 30.0825 17.592 35.0083 17.592C43.7791 17.592 50.8664 24.3127 52.051 32.969H48.8711C47.2708 32.969 46.8343 34.2087 47.7696 35.5572L52.7369 42.9086C53.5059 43.9961 54.6698 44.0178 55.418 42.9086L60.4062 35.579C61.3414 34.2087 60.9258 32.969 59.3046 32.969ZM10.712 38.2107H13.6425C14.8687 49.2377 24.0136 58.0898 35.0083 58.0898C41.1395 58.0898 46.668 55.2841 50.4923 50.9342C51.4899 49.8902 51.4483 48.4983 50.617 47.6935C49.7648 46.867 48.5594 46.867 47.4994 47.8893C44.4442 51.391 39.9964 53.5877 35.0083 53.5877C26.2583 53.5877 19.171 46.867 17.9863 38.2107H21.1455C22.725 38.2107 23.1823 36.9709 22.247 35.6225L17.2589 28.2711C16.5107 27.1836 15.3468 27.1619 14.5985 28.2711L9.61042 35.6007C8.65436 36.9709 9.09083 38.2107 10.712 38.2107Z" fill="#9C171E"/>
<path d="M34.9936 45.9736C40.4522 45.9736 44.9578 41.4039 44.9578 35.8774C44.9578 30.3509 40.4426 25.7812 34.984 25.7812C29.535 25.7812 25.0391 30.3509 25.0391 35.8774C25.0391 41.4039 29.5446 45.9736 34.9936 45.9736ZM34.984 41.5797C34.724 41.5797 34.5315 41.3844 34.5315 41.111V40.4177C33.097 40.3006 32.038 39.539 31.7492 38.4649C31.7107 38.338 31.6915 38.2208 31.6915 38.1036C31.6915 37.6935 31.9707 37.4104 32.3846 37.4104C32.7312 37.4104 32.9623 37.5959 33.1067 37.9572C33.2607 38.5528 33.7324 38.9922 34.5315 39.1093V36.4535L34.3582 36.4144C32.6927 36.0239 31.8262 35.2427 31.8262 33.9246C31.8262 32.499 32.9526 31.5226 34.5315 31.3761V30.6926C34.5315 30.4095 34.724 30.2239 34.984 30.2239C35.2439 30.2239 35.4461 30.4192 35.4461 30.6926V31.3761C36.7939 31.5128 37.7951 32.2647 38.0647 33.3094C38.0936 33.4266 38.1224 33.5438 38.1224 33.6609C38.1224 34.0515 37.8433 34.3347 37.4389 34.3347C37.0827 34.3347 36.8517 34.1296 36.7072 33.7976C36.5147 33.202 36.0815 32.8212 35.4461 32.704V35.2134L35.6675 35.2623C37.41 35.5942 38.2861 36.4047 38.2861 37.7912C38.2861 39.3339 37.0731 40.281 35.4461 40.4275V41.111C35.4461 41.3844 35.2439 41.5797 34.984 41.5797ZM34.5315 34.9791V32.6943C33.7709 32.8212 33.3088 33.2801 33.3088 33.8269C33.3088 34.3737 33.665 34.7252 34.4641 34.9596L34.5315 34.9791ZM35.4461 36.6781V39.1093C36.3607 39.0019 36.8131 38.5333 36.8131 37.8986C36.8131 37.3323 36.4954 36.9612 35.629 36.7269L35.4461 36.6781Z" fill="#9C171E"/>
</svg>
