<svg width="70" height="70" viewBox="0 0 70 70" fill="none" xmlns="http://www.w3.org/2000/svg">
<path d="M23.5951 13.0413C21.775 13.2259 19.7703 13.9645 18.1437 15.046C17.2996 15.6087 15.585 17.3233 15.0223 18.1673C14.1255 19.5214 13.5012 21.0249 13.1583 22.6516C12.9472 23.6891 12.9472 26.0104 13.1583 27.0479C13.677 29.545 14.6882 31.4266 16.4731 33.2027C18.2492 34.9876 20.1308 35.9988 22.6279 36.5175C23.6391 36.7285 25.9779 36.7285 27.0242 36.5175C29.3718 36.0515 31.315 35.0316 33.0384 33.3698C34.4715 31.9981 35.4036 30.5561 36.0278 28.7361C36.5114 27.3292 36.6433 26.5115 36.6433 24.8497C36.6521 23.2583 36.529 22.5021 36.0806 21.1392C34.6298 16.7869 30.7962 13.6304 26.2768 13.0764C25.5295 12.9885 24.2809 12.9709 23.5951 13.0413ZM25.4415 15.7933C25.9867 16.0747 26.1449 16.4704 26.1449 17.5694V18.4751L26.6285 18.7301C27.5869 19.2313 28.2552 20.005 28.2552 20.6293C28.2552 21.2975 27.6045 21.9482 26.9363 21.9482C26.6197 21.9482 25.9867 21.6492 25.9163 21.4646C25.8284 21.236 25.3009 20.981 24.9228 20.981C24.4919 20.981 23.9204 21.2535 23.727 21.5437C23.1818 22.3702 23.8501 23.5308 24.8524 23.5308C26.6461 23.5308 28.2991 24.8937 28.686 26.6786C28.8794 27.6106 28.7651 28.4107 28.2991 29.334C27.9914 29.9406 27.2001 30.7232 26.6022 30.9958L26.1449 31.2068V32.1212C26.1449 33.2291 25.9867 33.6247 25.4415 33.9061C24.9931 34.1347 24.6238 34.1259 24.193 33.8885C23.6478 33.5808 23.5072 33.2115 23.5072 32.1212V31.198L23.0324 30.9694C22.1003 30.5122 21.3969 29.6945 21.3969 29.0702C21.3969 28.4019 22.0476 27.7513 22.7158 27.7513C23.0675 27.7513 23.6215 28.0326 23.7973 28.3052C23.9644 28.569 24.4568 28.8064 24.8173 28.8064C25.4943 28.8064 26.1449 28.1557 26.1449 27.4875C26.1449 26.8017 25.4943 26.1686 24.7909 26.1686C23.8237 26.1686 22.8038 25.7202 22.0564 24.9816C20.4737 23.4165 20.4825 20.9634 22.0916 19.3983C22.3641 19.1345 22.795 18.818 23.0499 18.7037L23.5072 18.4927V17.5607C23.516 16.4704 23.6391 16.1538 24.1754 15.8285C24.5974 15.5735 24.9843 15.5647 25.4415 15.7933Z" fill="#9C171E"/>
<path d="M37.7513 18.2838C37.7513 18.3014 37.9095 18.6795 38.103 19.1279C38.569 20.2006 38.9295 21.4228 39.1141 22.5834L39.2724 23.533H45.3744C51.3183 23.533 51.4853 23.5418 51.8194 23.7088C52.048 23.8231 52.2327 24.0078 52.347 24.2364C52.514 24.5705 52.5228 24.7464 52.5228 30.1274C52.5228 35.5085 52.514 35.6844 52.347 36.0185C52.2327 36.2471 52.048 36.4317 51.8194 36.546C51.4765 36.7219 51.3183 36.7219 42.3234 36.7219H33.1703L32.2998 37.2494C30.6556 38.243 28.9587 38.8673 27.121 39.1487L26.145 39.2981V48.1259C26.145 56.7954 26.145 56.9537 26.3209 57.2966C26.4352 57.5252 26.6198 57.7098 26.8484 57.8241C27.1913 58 27.332 58 42.0596 58C56.7873 58 56.9279 58 57.2708 57.8241C57.4995 57.7098 57.6841 57.5252 57.7984 57.2966C57.9743 56.9537 57.9743 56.8218 57.9743 38.1287C57.9743 19.4356 57.9743 19.3037 57.7984 18.9608C57.6841 18.7322 57.4995 18.5476 57.2708 18.4333C56.9279 18.2574 56.7697 18.2574 47.3352 18.2574C42.0684 18.2574 37.7513 18.2662 37.7513 18.2838ZM35.9927 39.5355C36.3884 39.7378 36.6961 40.2389 36.6961 40.6786C36.6961 41.1182 36.3884 41.6194 35.9927 41.8216C35.685 41.9799 35.474 41.9975 34.0496 41.9975C32.5636 41.9975 32.4317 41.9887 32.1064 41.804C31.2184 41.3028 31.2096 40.0983 32.0888 39.5707C32.4141 39.3685 32.5021 39.3597 34.0408 39.3597C35.4828 39.3597 35.685 39.3773 35.9927 39.5355ZM43.9061 39.5355C44.3018 39.7378 44.6095 40.2389 44.6095 40.6786C44.6095 41.1182 44.3018 41.6194 43.9061 41.8216C43.5983 41.9799 43.3873 41.9975 41.9629 41.9975C40.477 41.9975 40.3451 41.9887 40.0198 41.804C39.1317 41.3028 39.1229 40.0983 40.0022 39.5707C40.3275 39.3685 40.4154 39.3597 41.9541 39.3597C43.3961 39.3597 43.5983 39.3773 43.9061 39.5355ZM51.8194 39.5355C52.2151 39.7378 52.5228 40.2389 52.5228 40.6786C52.5228 41.1182 52.2151 41.6194 51.8194 41.8216C51.5117 41.9799 51.3007 41.9975 49.8763 41.9975C48.3903 41.9975 48.2584 41.9887 47.9331 41.804C47.045 41.3028 47.0363 40.0983 47.9155 39.5707C48.2408 39.3685 48.3288 39.3597 49.8675 39.3597C51.3095 39.3597 51.5117 39.3773 51.8194 39.5355ZM35.9927 44.8111C36.3884 45.0133 36.6961 45.5145 36.6961 45.9541C36.6961 46.3938 36.3884 46.8949 35.9927 47.0972C35.685 47.2554 35.474 47.273 34.0496 47.273C32.5636 47.273 32.4317 47.2642 32.1064 47.0796C31.2184 46.5784 31.2096 45.3738 32.0888 44.8463C32.4141 44.644 32.5021 44.6352 34.0408 44.6352C35.4828 44.6352 35.685 44.6528 35.9927 44.8111ZM43.9061 44.8111C44.3018 45.0133 44.6095 45.5145 44.6095 45.9541C44.6095 46.3938 44.3018 46.8949 43.9061 47.0972C43.5983 47.2554 43.3873 47.273 41.9629 47.273C40.477 47.273 40.3451 47.2642 40.0198 47.0796C39.1317 46.5784 39.1229 45.3738 40.0022 44.8463C40.3275 44.644 40.4154 44.6352 41.9541 44.6352C43.3961 44.6352 43.5983 44.6528 43.9061 44.8111ZM51.8194 44.8111C52.2151 45.0133 52.5228 45.5145 52.5228 45.9541C52.5228 46.3938 52.2151 46.8949 51.8194 47.0972C51.5117 47.2554 51.3007 47.273 49.8763 47.273C48.3903 47.273 48.2584 47.2642 47.9331 47.0796C47.045 46.5784 47.0363 45.3738 47.9155 44.8463C48.2408 44.644 48.3288 44.6352 49.8675 44.6352C51.3095 44.6352 51.5117 44.6528 51.8194 44.8111ZM35.9927 50.0867C36.3884 50.2889 36.6961 50.7901 36.6961 51.2297C36.6961 51.6693 36.3884 52.1705 35.9927 52.3727C35.685 52.531 35.474 52.5486 34.0496 52.5486C32.5636 52.5486 32.4317 52.5398 32.1064 52.3551C31.2184 51.854 31.2096 50.6494 32.0888 50.1218C32.4141 49.9196 32.5021 49.9108 34.0408 49.9108C35.4828 49.9108 35.685 49.9284 35.9927 50.0867ZM51.8194 50.0867C52.2151 50.2889 52.5228 50.7901 52.5228 51.2297C52.5228 51.6693 52.2151 52.1705 51.8194 52.3727C51.4853 52.5398 51.3095 52.5486 45.9196 52.5486H40.3715L40.0198 52.3551C39.1317 51.854 39.1229 50.6494 40.0022 50.1218L40.3451 49.9108H45.9108C51.3183 49.9108 51.4853 49.9196 51.8194 50.0867Z" fill="#9C171E"/>
<path d="M39.2108 26.366C39.1844 26.4803 39.1228 26.8848 39.0701 27.2717C38.7623 29.3379 37.7512 31.7295 36.4587 33.4705L36.0015 34.0859H42.9388H49.885V30.1293V26.1726H44.5655H39.2459L39.2108 26.366Z" fill="#9C171E"/>
</svg>
