<svg width="70" height="70" viewBox="0 0 70 70" fill="none" xmlns="http://www.w3.org/2000/svg">
<path d="M35.8499 30.3932C41.3911 30.3932 45.896 26.2695 45.896 21.1968C45.896 16.1242 41.3911 12 35.8499 12H22.0462C16.505 12 12 16.1242 12 21.1968C12 25.0559 14.6011 28.4499 18.4683 29.791V34.4623C18.4683 35.0008 18.8173 35.4934 19.3554 35.7126C19.5547 35.7947 19.7539 35.8309 19.9631 35.8309C20.3321 35.8309 20.691 35.7126 20.9699 35.475L27.1093 30.384H35.8499V30.3932ZM36.3279 19.4998C37.4148 19.4998 38.3013 20.3025 38.3013 21.3065C38.3013 22.31 37.4243 23.1126 36.3279 23.1126C35.2416 23.1126 34.3551 22.31 34.3551 21.3065C34.3551 20.3025 35.2416 19.4998 36.3279 19.4998ZM21.7273 23.1034C20.641 23.1034 19.7539 22.3008 19.7539 21.2973C19.7539 20.2933 20.6309 19.4907 21.7273 19.4907C22.8236 19.4907 23.7007 20.2933 23.7007 21.2973C23.7007 22.3008 22.8236 23.1034 21.7273 23.1034ZM29.0326 19.4998C30.1189 19.4998 31.006 20.3025 31.006 21.3065C31.006 22.31 30.1289 23.1126 29.0326 23.1126C27.9363 23.1126 27.0592 22.31 27.0592 21.3065C27.0592 20.3025 27.9463 19.4998 29.0326 19.4998Z" fill="#9C171E"/>
<path d="M46.9436 33.1599H33.1404C27.5987 33.1599 23.0942 37.2841 23.0942 42.3567C23.0942 47.4294 27.5987 51.5531 33.1404 51.5531H41.8905L48.0299 56.6441C48.3093 56.8725 48.6677 57 49.0366 57C49.2459 57 49.4451 56.9638 49.6449 56.8812C50.183 56.6624 50.5314 56.1699 50.5314 55.6314V50.96C54.3886 49.619 56.9998 46.225 56.9998 42.3659C56.9898 37.2841 52.4753 33.1599 46.9436 33.1599ZM32.6618 44.2633C31.5755 44.2633 30.6884 43.4607 30.6884 42.4572C30.6884 41.4623 31.5655 40.6505 32.6618 40.6505C33.7581 40.6505 34.6352 41.4532 34.6352 42.4572C34.6252 43.4515 33.7481 44.2633 32.6618 44.2633ZM39.9571 44.2633C38.8708 44.2633 37.9837 43.4607 37.9837 42.4572C37.9837 41.4623 38.8608 40.6505 39.9571 40.6505C41.0535 40.6505 41.9305 41.4532 41.9305 42.4572C41.9205 43.4515 41.0435 44.2633 39.9571 44.2633ZM47.2525 44.2633C46.1662 44.2633 45.2791 43.4607 45.2791 42.4572C45.2791 41.4623 46.1561 40.6505 47.2525 40.6505C48.3488 40.6505 49.2259 41.4532 49.2259 42.4572C49.2259 43.4515 48.3388 44.2633 47.2525 44.2633Z" fill="#9C171E"/>
</svg>
