<svg width="70" height="70" viewBox="0 0 70 70" fill="none" xmlns="http://www.w3.org/2000/svg">
<path d="M43.5663 40C39.9397 40 37 43.3174 37 47.4097C37 51.502 39.9397 54.8196 43.5663 54.8196C47.1929 54.8196 50.1327 51.502 50.1327 47.4097C50.1327 43.3174 47.1929 40 43.5663 40Z" fill="#9C171E"/>
<path d="M44 39C39.582 39 36 42.582 36 47C36 51.4181 39.582 55.0001 44 55.0001C48.4181 55.0001 52.0001 51.4181 52.0001 47C52.0001 42.582 48.4181 39 44 39ZM48 39C47.6611 39 47.3282 39.0276 47 39.0685C50.9452 39.5614 54.0001 42.9212 54.0001 47C54.0001 51.0791 50.9452 54.4387 47 54.9317C47.3282 54.9727 47.6611 55.0001 48 55.0001C52.4181 55.0001 56.0001 51.4181 56.0001 47C56.0001 42.582 52.4181 39 48 39ZM43.7131 40.5997H44.7209V42.0567C45.0419 42.1176 46.8381 42.5273 46.8381 45.1544H44.9474C44.9474 43.7814 44.3643 43.5645 44.1192 43.5645C43.9852 43.5645 43.3654 43.5997 43.3654 44.7267C43.3663 46.6936 46.8244 46.0802 46.8244 49.2852C46.8244 51.6132 44.9124 51.9288 44.5744 51.9707V53.3009H43.5724V51.9707C43.2603 51.9277 41.1622 51.6967 41.1622 48.8047H43.0529C43.0529 50.5128 43.9326 50.4414 44.0666 50.4414C44.2135 50.4414 44.9357 50.4149 44.9357 49.2989C44.9357 47.0699 41.4767 48.0598 41.4767 44.7189C41.4767 42.4288 43.3739 42.0704 43.7131 42.0273V40.5997Z" fill="#9C171E"/>
<path d="M20.5934 15.0821C20.4821 15.1174 20.306 15.2673 20.1947 15.3997C20.0093 15.6203 20 15.735 20 17.3496V19.0701L20.2596 19.3171C20.4358 19.4847 20.6583 19.5818 20.9364 19.6259C21.1589 19.6524 24.0331 19.67 27.3245 19.6524C32.8596 19.6259 33.3232 19.6171 33.5457 19.4671C33.9536 19.2112 34 18.973 34 17.3231C34 16.1144 33.9722 15.7261 33.8609 15.5232C33.5642 14.9762 33.7775 14.9938 26.9815 15.0027C23.5788 15.0027 20.6954 15.0379 20.5934 15.0821Z" fill="#9C171E"/>
<path d="M15.1923 17.1899C13.6976 17.4257 12.5243 18.471 12.1386 19.917C11.9538 20.5929 11.9538 51.8169 12.1386 52.5007C12.4681 53.7267 13.3038 54.6226 14.5735 55.0942L15.0315 55.2671L25.9925 55.2906L36.9454 55.3142L36.3267 54.6619C35.6275 53.9232 34.7757 52.7207 34.3418 51.8484C33.2489 49.6714 32.9435 46.7871 33.5623 44.508C33.6427 44.2015 33.715 43.9265 33.715 43.8872C33.715 43.8557 30.2194 43.8321 25.9523 43.8321C17.37 43.8321 17.8441 43.8636 17.4584 43.3292C17.3298 43.1484 17.2816 42.9755 17.2816 42.6376C17.2816 42.1582 17.4182 41.8988 17.8361 41.6002C18.053 41.4351 18.1173 41.4351 26.4666 41.4116L34.8802 41.3958L35.2659 40.8457C36.6963 38.8102 39.083 37.2227 41.6545 36.6018L42 36.5154L41.9759 28.2869C41.9518 20.4672 41.9437 20.0428 41.7991 19.6734C41.3893 18.6439 40.7625 17.9523 39.8544 17.5279C39.1312 17.1899 38.5928 17.1114 36.9133 17.1114H35.5632V17.9994C35.5632 18.5103 35.515 19.0683 35.4507 19.3119C35.1052 20.5929 33.9962 21.5596 32.6543 21.7482C31.9953 21.8425 22.0147 21.8425 21.3558 21.7482C20.2227 21.591 19.2263 20.868 18.7361 19.862C18.503 19.3905 18.487 19.2726 18.4468 18.2509L18.4066 17.1507L17.0003 17.1428C16.2289 17.1349 15.4173 17.1585 15.1923 17.1899ZM36.0133 27.1631C36.9293 27.5718 37.0017 28.8056 36.1338 29.2772L35.8204 29.4501H27.005C19.0415 29.4501 18.1655 29.4344 17.9164 29.3243C17.1932 28.9864 17.0244 28.059 17.5789 27.446C17.7075 27.2967 17.9325 27.1395 18.0771 27.1002C18.2218 27.0609 22.0308 27.0295 27.005 27.0216C35.3061 27.0138 35.6999 27.0216 36.0133 27.1631ZM36.0133 31.9571C36.9293 32.3658 37.0017 33.5997 36.1338 34.0712L35.8204 34.2441H27.005C19.0415 34.2441 18.1655 34.2284 17.9164 34.1184C17.1932 33.7804 17.0244 32.853 17.5789 32.24C17.7075 32.0907 17.9325 31.9335 18.0771 31.8942C18.2218 31.8549 22.0308 31.8235 27.005 31.8156C35.3061 31.8078 35.6999 31.8156 36.0133 31.9571ZM36.0133 36.7511C36.9293 37.1598 37.0017 38.3937 36.1338 38.8652L35.8204 39.0381H27.005C19.0415 39.0381 18.1655 39.0224 17.9164 38.9124C17.1932 38.5744 17.0244 37.6471 17.5789 37.0341C17.7075 36.8847 17.9325 36.7276 18.0771 36.6883C18.2218 36.649 22.0308 36.6175 27.005 36.6097C35.3061 36.6018 35.6999 36.6097 36.0133 36.7511Z" fill="#9C171E"/>
</svg>
