<svg width="70" height="70" viewBox="0 0 70 70" fill="none" xmlns="http://www.w3.org/2000/svg">
<path d="M20.185 12.0741C19.3697 12.2687 18.6378 12.8338 18.2487 13.575L18.0356 13.9641L18.0078 34.5959C17.9893 55.0425 17.9893 55.2278 18.1746 55.7188C18.4062 56.3488 18.9806 56.951 19.6476 57.266L20.1664 57.5069H34.7579H49.3494L49.8775 57.2567C50.5538 56.9417 51.1004 56.3766 51.3412 55.7374C51.5265 55.2371 51.5265 55.1074 51.5265 41.1088V26.9806H46.2643C42.855 26.9806 40.8076 26.9435 40.4555 26.8787C38.8435 26.5822 37.528 25.4705 36.8702 23.8492C36.6571 23.3211 36.6571 23.3119 36.6108 17.6698L36.5645 12.0185L28.5508 12C24.1316 12 20.3795 12.0278 20.185 12.0741ZM26.8832 17.151V17.5031L27.4668 17.6235C28.1153 17.744 29.2178 18.1886 29.5698 18.448L29.8014 18.6333L29.3568 19.2633L28.9213 19.9026L28.208 19.5598C27.8096 19.3652 27.3464 19.1799 27.1889 19.1521L26.8832 19.0873V20.4214V21.7554L27.5595 21.95C28.4952 22.2279 29.366 22.7838 29.681 23.2841C30.3758 24.3865 30.135 25.9152 29.1437 26.7953C28.7268 27.1566 28.1894 27.3975 27.4483 27.5457L26.8832 27.6569V28.1479V28.6482H26.4199H25.9567V28.1386C25.9567 27.6569 25.9382 27.6291 25.7066 27.5828C24.4929 27.3326 23.4738 26.8972 22.779 26.3228L22.4362 26.0356L22.918 25.4705C23.1866 25.1555 23.409 24.8776 23.4275 24.859C23.4368 24.8405 23.7055 24.998 24.0204 25.2203C24.5578 25.5909 25.1322 25.8596 25.7066 25.9986L25.9567 26.0541V24.6737V23.2841L25.4379 23.1358C23.9834 22.7189 23.2052 22.1075 22.9365 21.1811C22.4362 19.4671 23.6221 17.8273 25.5491 17.5587C25.9474 17.5031 25.9567 17.5031 25.9567 17.151V16.7897H26.4199H26.8832V17.151ZM45.0692 31.409C45.2638 31.6128 45.3194 31.761 45.3194 32.076V32.4929L42.0027 35.8003L38.6953 39.117H38.2784H37.8708L35.2489 36.5044L32.6271 33.8826L28.523 37.9775C26.2717 40.2194 24.3354 42.1094 24.2243 42.165C23.9371 42.3039 23.6684 42.2947 23.3627 42.1094C23.0569 41.9334 22.8995 41.6276 22.8995 41.22C22.8995 40.9513 23.3534 40.4696 27.5595 36.2728C31.8211 32.0019 32.238 31.6128 32.5159 31.6128C32.6827 31.6128 32.9143 31.6591 33.0255 31.7147C33.1366 31.7703 34.3688 32.9469 35.7492 34.3273L38.2784 36.8472L41.1318 33.9938L43.9853 31.1496H44.4022C44.745 31.1496 44.8654 31.1959 45.0692 31.409ZM47.7281 46.1579V53.7548H45.6899H43.6518V46.1579V38.5611H45.6899H47.7281V46.1579ZM33.183 48.5667V53.7548H31.0985H29.014V48.5667V43.3786H31.0985H33.183V48.5667ZM25.8641 49.4931V53.7548H23.8259H21.7877V49.4931V45.2315H23.8259H25.8641V49.4931ZM40.5019 51.0218V53.7548H38.4174H36.3329V51.0218V48.2888H38.4174H40.5019V51.0218Z" fill="#9C171E"/>
<path d="M25.6326 19.1058C25.2064 19.1984 24.947 19.3652 24.7525 19.6895C24.3634 20.3287 24.5857 20.9124 25.3639 21.2829C25.6511 21.4219 25.9013 21.5145 25.9198 21.4868C25.9476 21.4682 25.9476 20.9124 25.9383 20.2453L25.9105 19.0502L25.6326 19.1058Z" fill="#9C171E"/>
<path d="M26.8828 24.7942C26.8828 26.2209 26.8736 26.2024 27.5962 25.8689C28.0131 25.6836 28.3651 25.2296 28.3651 24.8683C28.3651 24.3681 27.8093 23.8122 27.0959 23.5991L26.8828 23.5435V24.7942Z" fill="#9C171E"/>
<path d="M38.4824 17.5957C38.5102 22.9135 38.5102 22.9506 38.714 23.3675C39.0475 24.0345 39.4459 24.4421 40.0573 24.7479L40.6225 25.035H45.9402C49.6553 25.035 51.2488 25.0073 51.2488 24.9331C51.2488 24.8127 44.4116 17.8366 41.2617 14.733C40.0295 13.5194 38.8993 12.4725 38.7418 12.3891L38.4546 12.2409L38.4824 17.5957Z" fill="#9C171E"/>
</svg>
