<svg width="80" height="70" viewBox="0 0 80 70" fill="none" xmlns="http://www.w3.org/2000/svg">
<path d="M17 42.5201C17 46.0384 18.7753 47.7787 22.1765 47.7787H33.5947L33.0901 51.2025H31.1092C30.1748 51.2025 29.4086 51.9969 29.4086 52.9427C29.4086 53.8696 30.1748 54.6641 31.1092 54.6641H48.0216C48.9747 54.6641 49.7409 53.8696 49.7409 52.9427C49.7409 51.9969 48.9747 51.2025 48.0216 51.2025H45.8912L45.4053 47.7787H56.8048C60.206 47.7787 62 46.0384 62 42.5201V21.2397C62 17.7403 60.206 16 56.8048 16H22.1765C18.7753 16 17 17.7403 17 21.2397V42.5201ZM20.6441 42.2931V21.4856C20.6441 20.1804 21.186 19.6886 22.4194 19.6886H56.5619C57.7953 19.6886 58.3559 20.1804 58.3559 21.4856V42.2931C58.3559 43.5794 57.7953 44.0901 56.5619 44.0901H22.4194C21.186 44.0901 20.6441 43.5794 20.6441 42.2931Z" fill="#9C171E"/>
<path d="M32.4989 33.1557C32.2383 33.1557 32.0273 33.3698 32.0273 33.6295V36.6359C32.0273 36.8954 32.2383 37.1068 32.4989 37.1068H33.9209C34.1816 37.1068 34.3941 36.8954 34.3941 36.6359V33.6295C34.3941 33.3698 34.1816 33.1557 33.9209 33.1557H32.4989Z" fill="#9C171E"/>
<path d="M35.4303 32.3558C35.1742 32.3558 34.9648 32.5656 34.9648 32.8207V36.6419C34.9648 36.8986 35.1742 37.1068 35.4303 37.1068H36.8674C37.1237 37.1068 37.3331 36.8986 37.3331 36.6419V32.8207C37.3331 32.5656 37.1237 32.3558 36.8674 32.3558H35.4303Z" fill="#9C171E"/>
<path d="M38.3528 31.2056C38.1118 31.2056 37.916 31.4034 37.916 31.6464V36.651C37.916 36.8939 38.1118 37.0901 38.3528 37.0901H39.8442C40.0854 37.0901 40.2827 36.8939 40.2827 36.651V31.6464C40.2827 31.4034 40.0854 31.2056 39.8442 31.2056H38.3528Z" fill="#9C171E"/>
<path d="M41.2845 29.6315C41.042 29.6315 40.8462 29.8293 40.8462 30.0706V36.669C40.8462 36.912 41.042 37.1067 41.2845 37.1067H42.7731C43.0156 37.1067 43.2144 36.912 43.2144 36.669V30.0706C43.2144 29.8293 43.0156 29.6315 42.7731 29.6315H41.2845Z" fill="#9C171E"/>
<path d="M45.2243 23C45.164 23 45.1007 23.009 45.0435 23.0287C44.9275 23.0664 44.8296 23.1388 44.7678 23.2339L43.2146 25.7333C43.171 25.8041 43.1482 25.8811 43.1497 25.9595C43.1513 26.0381 43.1754 26.115 43.222 26.1844C43.3155 26.3217 43.4827 26.4063 43.6651 26.4063H44.0583V32.9096C44.0583 32.9172 44.0612 32.9262 44.0612 32.9352C44.0612 32.9444 44.0583 32.9534 44.0583 32.9624V37.6291H32.4383C32.1958 37.6291 32 37.8253 32 38.0666V39.5579C32 39.8007 32.1958 40 32.4383 40H45.1097C45.1143 40 45.1158 39.9985 45.1204 39.9985H45.9865C46.2277 39.9985 46.4266 39.8023 46.4266 39.5607V32.9624C46.4266 32.9534 46.425 32.9444 46.4235 32.9352C46.425 32.9262 46.4266 32.9172 46.4266 32.9096V26.4063H46.7821C46.9643 26.4063 47.1345 26.3217 47.228 26.1844C47.3213 26.0456 47.3244 25.8735 47.237 25.7333L45.6763 23.2339C45.6159 23.1388 45.5241 23.0664 45.4065 23.0287C45.3478 23.009 45.2876 23 45.2243 23Z" fill="#9C171E"/>
<path d="M34.9986 31C36.6428 31 38 29.6422 38 28C38 26.3578 36.6399 25 34.9957 25C33.3543 25 32 26.3578 32 28C32 29.6422 33.3572 31 34.9986 31ZM34.9957 29.6944C34.9174 29.6944 34.8594 29.6364 34.8594 29.5551V29.3491C34.4273 29.3143 34.1083 29.088 34.0213 28.7689C34.0097 28.7311 34.0039 28.6963 34.0039 28.6615C34.0039 28.5397 34.088 28.4555 34.2127 28.4555C34.3171 28.4555 34.3867 28.5106 34.4302 28.618C34.4766 28.795 34.6187 28.9255 34.8594 28.9603V28.1712L34.8072 28.1596C34.3055 28.0435 34.0445 27.8114 34.0445 27.4197C34.0445 26.9961 34.3838 26.706 34.8594 26.6625V26.4594C34.8594 26.3752 34.9174 26.3201 34.9957 26.3201C35.0739 26.3201 35.1348 26.3781 35.1348 26.4594V26.6625C35.5408 26.7031 35.8424 26.9265 35.9236 27.2369C35.9323 27.2718 35.941 27.3066 35.941 27.3414C35.941 27.4574 35.8569 27.5416 35.7351 27.5416C35.6278 27.5416 35.5582 27.4807 35.5147 27.382C35.4567 27.205 35.3262 27.0919 35.1348 27.0571V27.8027L35.2015 27.8172C35.7264 27.9159 35.9903 28.1567 35.9903 28.5687C35.9903 29.0271 35.6249 29.3085 35.1348 29.352V29.5551C35.1348 29.6364 35.0739 29.6944 34.9957 29.6944ZM34.8594 27.7331V27.0542C34.6303 27.0919 34.4911 27.2282 34.4911 27.3907C34.4911 27.5532 34.5984 27.6576 34.8391 27.7273L34.8594 27.7331ZM35.1348 28.2379V28.9603C35.4103 28.9284 35.5466 28.7892 35.5466 28.6006C35.5466 28.4323 35.4509 28.3221 35.1899 28.2524L35.1348 28.2379Z" fill="#9C171E"/>
</svg>
