<svg width="70" height="70" viewBox="0 0 70 70" fill="none" xmlns="http://www.w3.org/2000/svg">
<path d="M15 42.5201C15 46.0384 16.5665 47.7787 19.5675 47.7787H29.6424L29.1972 51.2025H27.4493C26.6249 51.2025 25.9488 51.9969 25.9488 52.9427C25.9488 53.8696 26.6249 54.6641 27.4493 54.6641H42.372C43.2129 54.6641 43.889 53.8696 43.889 52.9427C43.889 51.9969 43.2129 51.2025 42.372 51.2025H40.4922L40.0635 47.7787H50.1219C53.1229 47.7787 54.7059 46.0384 54.7059 42.5201V21.2397C54.7059 17.7403 53.1229 16 50.1219 16H19.5675C16.5665 16 15 17.7403 15 21.2397V42.5201ZM18.2154 42.2931V21.4856C18.2154 20.1804 18.6936 19.6886 19.7819 19.6886H49.9075C50.9958 19.6886 51.4905 20.1804 51.4905 21.4856V42.2931C51.4905 43.5794 50.9958 44.0901 49.9075 44.0901H19.7819C18.6936 44.0901 18.2154 43.5794 18.2154 42.2931Z" fill="#9C171E"/>
<path d="M28.6756 33.1562C28.4456 33.1562 28.2595 33.3704 28.2595 33.6301V36.6365C28.2595 36.896 28.4456 37.1074 28.6756 37.1074H29.9304C30.1603 37.1074 30.3478 36.896 30.3478 36.6365V33.6301C30.3478 33.3704 30.1603 33.1562 29.9304 33.1562H28.6756Z" fill="#9C171E"/>
<path d="M31.262 32.3555C31.0361 32.3555 30.8513 32.5653 30.8513 32.8204V36.6416C30.8513 36.8983 31.0361 37.1065 31.262 37.1065H32.5301C32.7562 37.1065 32.941 36.8983 32.941 36.6416V32.8204C32.941 32.5653 32.7562 32.3555 32.5301 32.3555H31.262Z" fill="#9C171E"/>
<path d="M33.841 31.207C33.6284 31.207 33.4556 31.4048 33.4556 31.6478V36.6524C33.4556 36.8953 33.6284 37.0915 33.841 37.0915H35.1569C35.3697 37.0915 35.5438 36.8953 35.5438 36.6524V31.6478C35.5438 31.4048 35.3697 31.207 35.1569 31.207H33.841Z" fill="#9C171E"/>
<path d="M36.4275 29.6328C36.2136 29.6328 36.0408 29.8305 36.0408 30.0719V36.6702C36.0408 36.9133 36.2136 37.108 36.4275 37.108H37.741C37.9549 37.108 38.1304 36.9133 38.1304 36.6702V30.0719C38.1304 29.8305 37.9549 29.6328 37.741 29.6328H36.4275Z" fill="#9C171E"/>
<path d="M39.9038 23C39.8507 23 39.7948 23.009 39.7444 23.0287C39.6419 23.0664 39.5555 23.1388 39.501 23.2339L38.1306 25.7333C38.0921 25.8041 38.072 25.8811 38.0734 25.9595C38.0747 26.0381 38.096 26.115 38.1371 26.1844C38.2197 26.3217 38.3671 26.4063 38.5281 26.4063H38.875V32.9096C38.875 32.9172 38.8776 32.9262 38.8776 32.9352C38.8776 32.9444 38.875 32.9534 38.875 32.9624V37.6291H28.6221C28.4081 37.6291 28.2354 37.8253 28.2354 38.0666V39.5579C28.2354 39.8007 28.4081 40 28.6221 40H39.8027C39.8068 40 39.8081 39.9985 39.8122 39.9985H40.5764C40.7892 39.9985 40.9647 39.8023 40.9647 39.5607V32.9624C40.9647 32.9534 40.9633 32.9444 40.962 32.9352C40.9633 32.9262 40.9647 32.9172 40.9647 32.9096V26.4063H41.2783C41.4391 26.4063 41.5893 26.3217 41.6718 26.1844C41.7542 26.0456 41.7569 25.8735 41.6798 25.7333L40.3027 23.2339C40.2494 23.1388 40.1684 23.0664 40.0646 23.0287C40.0128 23.009 39.9597 23 39.9038 23Z" fill="#9C171E"/>
<path d="M30.8811 31C32.332 31 33.5295 29.6422 33.5295 28C33.5295 26.3578 32.3294 25 30.8786 25C29.4303 25 28.2354 26.3578 28.2354 28C28.2354 29.6422 29.4329 31 30.8811 31ZM30.8786 29.6944C30.8095 29.6944 30.7583 29.6364 30.7583 29.5551V29.3491C30.3771 29.3143 30.0956 29.088 30.0188 28.7689C30.0086 28.7311 30.0035 28.6963 30.0035 28.6615C30.0035 28.5397 30.0777 28.4555 30.1877 28.4555C30.2798 28.4555 30.3412 28.5106 30.3796 28.618C30.4206 28.795 30.5459 28.9255 30.7583 28.9603V28.1712L30.7123 28.1596C30.2696 28.0435 30.0393 27.8114 30.0393 27.4197C30.0393 26.9961 30.3387 26.706 30.7583 26.6625V26.4594C30.7583 26.3752 30.8095 26.3201 30.8786 26.3201C30.9477 26.3201 31.0014 26.3781 31.0014 26.4594V26.6625C31.3596 26.7031 31.6257 26.9265 31.6974 27.2369C31.7051 27.2718 31.7127 27.3066 31.7127 27.3414C31.7127 27.4574 31.6385 27.5416 31.5311 27.5416C31.4364 27.5416 31.375 27.4807 31.3366 27.382C31.2854 27.205 31.1703 27.0919 31.0014 27.0571V27.8027L31.0602 27.8172C31.5234 27.9159 31.7562 28.1567 31.7562 28.5687C31.7562 29.0271 31.4338 29.3085 31.0014 29.352V29.5551C31.0014 29.6364 30.9477 29.6944 30.8786 29.6944ZM30.7583 27.7331V27.0542C30.5562 27.0919 30.4333 27.2282 30.4333 27.3907C30.4333 27.5532 30.528 27.6576 30.7404 27.7273L30.7583 27.7331ZM31.0014 28.2379V28.9603C31.2445 28.9284 31.3647 28.7892 31.3647 28.6006C31.3647 28.4323 31.2803 28.3221 31.05 28.2524L31.0014 28.2379Z" fill="#9C171E"/>
</svg>
