<svg width="70" height="70" viewBox="0 0 70 70" fill="none" xmlns="http://www.w3.org/2000/svg">
<path d="M43.5663 40C39.9397 40 37 43.3174 37 47.4097C37 51.502 39.9397 54.8196 43.5663 54.8196C47.1929 54.8196 50.1327 51.502 50.1327 47.4097C50.1327 43.3174 47.1929 40 43.5663 40Z" fill="#9C171E"/>
<path d="M44 39C39.582 39 36 42.582 36 47C36 51.4181 39.582 55.0001 44 55.0001C48.4181 55.0001 52.0001 51.4181 52.0001 47C52.0001 42.582 48.4181 39 44 39ZM48 39C47.6611 39 47.3282 39.0276 47 39.0685C50.9452 39.5614 54.0001 42.9212 54.0001 47C54.0001 51.0791 50.9452 54.4387 47 54.9317C47.3282 54.9727 47.6611 55.0001 48 55.0001C52.4181 55.0001 56.0001 51.4181 56.0001 47C56.0001 42.582 52.4181 39 48 39ZM43.7131 40.5997H44.7209V42.0567C45.0419 42.1176 46.8381 42.5273 46.8381 45.1544H44.9474C44.9474 43.7814 44.3643 43.5645 44.1192 43.5645C43.9852 43.5645 43.3654 43.5997 43.3654 44.7267C43.3663 46.6936 46.8244 46.0802 46.8244 49.2852C46.8244 51.6132 44.9124 51.9288 44.5744 51.9707V53.3009H43.5724V51.9707C43.2603 51.9277 41.1622 51.6967 41.1622 48.8047H43.0529C43.0529 50.5128 43.9326 50.4414 44.0666 50.4414C44.2135 50.4414 44.9357 50.4149 44.9357 49.2989C44.9357 47.0699 41.4767 48.0598 41.4767 44.7189C41.4767 42.4288 43.3739 42.0704 43.7131 42.0273V40.5997Z" fill="#9C171E"/>
<path d="M20.5934 15.0827C20.4821 15.118 20.306 15.268 20.1947 15.4004C20.0093 15.6209 20 15.7356 20 17.3502V19.0707L20.2596 19.3178C20.4358 19.4854 20.6583 19.5825 20.9364 19.6266C21.1589 19.6531 24.0331 19.6707 27.3245 19.6531C32.8596 19.6266 33.3232 19.6178 33.5457 19.4678C33.9536 19.2119 34 18.9737 34 17.3238C34 16.115 33.9722 15.7268 33.8609 15.5239C33.5642 14.9769 33.7775 14.9945 26.9815 15.0033C23.5788 15.0033 20.6954 15.0386 20.5934 15.0827Z" fill="#9C171E"/>
<path d="M15.1923 17.1882C13.6976 17.424 12.5243 18.4692 12.1386 19.9153C11.9538 20.5912 11.9538 51.8152 12.1386 52.499C12.4681 53.725 13.3038 54.6209 14.5735 55.0924L15.0315 55.2653L25.9925 55.2889L36.9454 55.3125L36.3267 54.6602C35.6275 53.9214 34.7757 52.719 34.3418 51.8467C33.2489 49.6697 32.9435 46.7854 33.5623 44.5063C33.6427 44.1998 33.715 43.9247 33.715 43.8854C33.715 43.854 30.2194 43.8304 25.9523 43.8304C17.37 43.8304 17.8441 43.8619 17.4584 43.3274C17.3298 43.1467 17.2816 42.9738 17.2816 42.6358C17.2816 42.1564 17.4182 41.8971 17.8361 41.5984C18.053 41.4334 18.1173 41.4334 26.4666 41.4098L34.8802 41.3941L35.2659 40.844C36.6963 38.8085 39.083 37.221 41.6545 36.6001L42 36.5136L41.9759 28.2852C41.9518 20.4654 41.9437 20.0411 41.7991 19.6717C41.3893 18.6421 40.7625 17.9505 39.8544 17.5262C39.1312 17.1882 38.5928 17.1096 36.9133 17.1096H35.5632V17.9977C35.5632 18.5085 35.515 19.0665 35.4507 19.3102C35.1052 20.5912 33.9962 21.5579 32.6543 21.7465C31.9953 21.8408 22.0147 21.8408 21.3558 21.7465C20.2227 21.5893 19.2263 20.8663 18.7361 19.8603C18.503 19.3888 18.487 19.2709 18.4468 18.2492L18.4066 17.1489L17.0003 17.1411C16.2289 17.1332 15.4173 17.1568 15.1923 17.1882ZM36.0133 27.1614C36.9293 27.57 37.0017 28.8039 36.1338 29.2754L35.8204 29.4483H27.005C19.0415 29.4483 18.1655 29.4326 17.9164 29.3226C17.1932 28.9847 17.0244 28.0573 17.5789 27.4443C17.7075 27.295 17.9325 27.1378 18.0771 27.0985C18.2218 27.0592 22.0308 27.0278 27.005 27.0199C35.3061 27.012 35.6999 27.0199 36.0133 27.1614ZM36.0133 31.9554C36.9293 32.3641 37.0017 33.5979 36.1338 34.0695L35.8204 34.2424H27.005C19.0415 34.2424 18.1655 34.2267 17.9164 34.1166C17.1932 33.7787 17.0244 32.8513 17.5789 32.2383C17.7075 32.089 17.9325 31.9318 18.0771 31.8925C18.2218 31.8532 22.0308 31.8218 27.005 31.8139C35.3061 31.8061 35.6999 31.8139 36.0133 31.9554ZM36.0133 36.7494C36.9293 37.1581 37.0017 38.392 36.1338 38.8635L35.8204 39.0364H27.005C19.0415 39.0364 18.1655 39.0207 17.9164 38.9107C17.1932 38.5727 17.0244 37.6453 17.5789 37.0323C17.7075 36.883 17.9325 36.7258 18.0771 36.6865C18.2218 36.6472 22.0308 36.6158 27.005 36.6079C35.3061 36.6001 35.6999 36.6079 36.0133 36.7494Z" fill="#9C171E"/>
</svg>
