<svg width="70" height="70" viewBox="0 0 70 70" fill="none" xmlns="http://www.w3.org/2000/svg">
<path fill-rule="evenodd" clip-rule="evenodd" d="M38.561 15.4707L38.5886 18.9507L38.8556 19.5031C39.233 20.2672 39.9787 21.0221 40.7336 21.3996L41.3504 21.7126L44.8304 21.7402L48.3011 21.7678V37.6669C48.3011 38.5487 48.3011 39.3817 48.301 40.1688C47.4357 39.9067 46.5178 39.7657 45.5669 39.7657C42.576 39.7657 39.9107 41.16 38.1855 43.3339L32.7608 43.3249C26.6479 43.3157 21.5845 43.3341 21.5108 43.3617C21.4372 43.3894 21.2622 43.5183 21.1241 43.6471C20.9124 43.8405 20.8664 43.9602 20.8664 44.3376C20.8664 44.7059 20.9124 44.8255 21.1333 45.0557L21.4003 45.3227H32.6503H36.9742C36.444 46.5009 36.1489 47.8078 36.1489 49.1837C36.1489 51.4169 36.9262 53.4686 38.225 55.083C36.661 55.0846 34.8195 55.0851 32.6506 55.0851C20.1209 55.0851 18.519 55.0667 18.2152 54.9378C17.7641 54.7537 17.3867 54.3854 17.1749 53.9343C17.0092 53.5753 17 52.8388 17 33.561C17 15.6825 17.0184 13.519 17.1473 13.2152C17.3314 12.7641 17.6997 12.3867 18.1508 12.1749C18.5006 12.0092 18.9793 12 28.5262 12H38.5333L38.561 15.4707ZM44.5082 19.7148C42.0409 19.7424 41.7647 19.7056 41.24 19.2453C40.6047 18.6929 40.5679 18.5088 40.5679 15.8666V13.519L43.652 16.6031L46.7361 19.6872L44.5082 19.7148ZM23.2875 16.9652C22.9561 17.1678 22.7995 17.4071 22.7995 17.7201C22.7995 17.8858 22.7167 17.9871 22.4773 18.0976C21.9894 18.3277 21.391 18.9261 21.1424 19.4233C20.8386 20.0033 20.7742 21.2001 20.9951 21.7985C21.2161 22.3601 21.6211 22.8848 22.0815 23.207C22.5049 23.5016 23.3151 23.7778 23.7294 23.7778C24.2817 23.7778 24.7329 24.1921 24.7329 24.6984C24.7329 24.9654 24.4935 25.3981 24.3002 25.4902C24.2081 25.527 23.5268 25.5914 22.7811 25.6191L22.7762 25.6192C21.437 25.6651 21.4275 25.6654 21.1516 25.9321C20.9123 26.1622 20.8662 26.2727 20.8662 26.6594C20.8662 27.0276 20.9123 27.1473 21.1332 27.3775C21.3818 27.626 21.4554 27.6444 22.0999 27.6444C22.7535 27.6444 22.7995 27.6628 22.7995 27.8378C22.7995 27.9482 22.9376 28.1692 23.1126 28.3441C23.3703 28.6019 23.4992 28.6571 23.8122 28.6571C24.1252 28.6571 24.2541 28.6019 24.5119 28.3441C24.7144 28.1416 24.8249 27.939 24.8249 27.7641C24.8249 27.5524 24.8986 27.4787 25.1747 27.3498C25.6443 27.1289 26.2519 26.5213 26.5004 25.9965C26.8042 25.3705 26.8411 24.275 26.5741 23.5661C26.2151 22.6178 25.0919 21.7525 24.1989 21.7525C23.0849 21.7525 22.5142 20.8871 23.1586 20.169L23.4256 19.8652L24.7973 19.8191C26.5373 19.7639 26.7582 19.6442 26.7582 18.8065C26.7582 18.0792 26.39 17.7938 25.4509 17.7938C24.8709 17.7938 24.8617 17.7938 24.7789 17.4992C24.6684 17.1493 24.1805 16.7811 23.8214 16.7811C23.6925 16.7811 23.4532 16.864 23.2875 16.9652ZM30.9655 27.3895C30.4868 26.8924 30.5604 26.1375 31.122 25.7969C31.3982 25.6311 31.6652 25.6219 37.64 25.6404L43.8726 25.668L44.1488 25.935C44.3882 26.1651 44.4342 26.2756 44.4342 26.6622C44.4342 27.0305 44.3882 27.1502 44.1672 27.3803L43.9002 27.6473H37.5571H31.2141L30.9655 27.3895ZM21.5108 31.5769C21.4372 31.6045 21.2622 31.7334 21.1241 31.8623C20.9124 32.0557 20.8664 32.1753 20.8664 32.5528C20.8664 32.921 20.9124 33.0407 21.1333 33.2709L21.4003 33.5379H32.6503H43.9003L44.1673 33.2709C44.3883 33.0407 44.4343 32.921 44.4343 32.5528C44.4343 32.1661 44.3883 32.0557 44.1489 31.8255L43.8727 31.5585L32.7608 31.5401C26.6479 31.5309 21.5845 31.5493 21.5108 31.5769ZM21.1241 37.7529C21.2622 37.624 21.4372 37.4951 21.5108 37.4675C21.5845 37.4398 26.6479 37.4214 32.7608 37.4306L43.8727 37.4491L44.1489 37.716C44.3883 37.9462 44.4343 38.0567 44.4343 38.4433C44.4343 38.8116 44.3883 38.9313 44.1673 39.1614L43.9003 39.4284H32.6503H21.4003L21.1333 39.1614C20.9124 38.9313 20.8664 38.8116 20.8664 38.4433C20.8664 38.0659 20.9124 37.9462 21.1241 37.7529ZM21.1241 49.5377C21.2622 49.4088 21.4372 49.2799 21.5108 49.2523C21.5845 49.2247 24.3923 49.1971 27.7526 49.1971L28.3543 49.1962H28.3543C33.4616 49.1887 34.1514 49.1877 34.4129 49.5219C34.4537 49.5741 34.4841 49.6345 34.5192 49.7042C34.528 49.7218 34.5371 49.7399 34.5468 49.7586C34.7401 50.1361 34.6573 50.6148 34.3443 50.9554L34.0865 51.2132H27.7434H21.4003L21.1333 50.9462C20.9124 50.7161 20.8664 50.5964 20.8664 50.2281C20.8664 49.8507 20.9124 49.731 21.1241 49.5377Z" fill="#9C171E"/>
<path d="M45.067 56.9998H46.3844C46.8163 56.9998 47.1402 56.7407 47.2338 56.3159L47.5938 54.797C47.8385 54.7106 48.0689 54.617 48.2849 54.5162L49.6167 55.3369C49.9694 55.56 50.3941 55.524 50.6893 55.2289L51.6179 54.3002C51.9131 54.0051 51.9563 53.566 51.7187 53.206L50.9052 51.8886C51.006 51.6727 51.0996 51.4423 51.1716 51.2191L52.705 50.8592C53.1297 50.7656 53.3816 50.4417 53.3816 50.0097V48.7139C53.3816 48.2892 53.1297 47.9581 52.705 47.8645L51.186 47.4973C51.1068 47.2454 51.006 47.0222 50.9196 46.8278L51.7331 45.4817C51.9635 45.1145 51.9347 44.7042 51.6251 44.4018L50.6893 43.4732C50.3869 43.1996 50.0054 43.1492 49.6382 43.3508L48.2849 44.1859C48.0761 44.0851 47.8457 43.9915 47.601 43.9051L47.2338 42.3646C47.1402 41.9398 46.8163 41.6807 46.3844 41.6807H45.067C44.6278 41.6807 44.3039 41.9398 44.2103 42.3646L43.8504 43.8979C43.6056 43.9771 43.3681 44.0707 43.1521 44.1787L41.8059 43.3508C41.4388 43.1492 41.0644 43.1924 40.7549 43.4732L39.819 44.4018C39.5095 44.7042 39.4807 45.1145 39.711 45.4817L40.5245 46.8278C40.4381 47.0222 40.3445 47.2454 40.2581 47.4973L38.7392 47.8645C38.3145 47.9581 38.0625 48.2892 38.0625 48.7139V50.0097C38.0625 50.4417 38.3145 50.7656 38.7392 50.8592L40.2725 51.2191C40.3445 51.4423 40.4381 51.6727 40.5389 51.8886L39.7254 53.206C39.4879 53.566 39.5311 54.0051 39.8334 54.3002L40.7549 55.2289C41.05 55.524 41.4748 55.56 41.8347 55.3369L43.1593 54.5162C43.3752 54.617 43.6056 54.7106 43.8504 54.797L44.2103 56.3159C44.3039 56.7407 44.6278 56.9998 45.067 56.9998ZM45.7221 51.8598C44.3399 51.8598 43.2097 50.7224 43.2097 49.333C43.2097 47.9581 44.3399 46.8278 45.7221 46.8278C47.1115 46.8278 48.2417 47.9581 48.2417 49.333C48.2417 50.7224 47.1115 51.8598 45.7221 51.8598Z" fill="#9C171E"/>
</svg>
