<svg width="70" height="70" viewBox="0 0 70 70" fill="none" xmlns="http://www.w3.org/2000/svg">
<path d="M56.9998 17.625C56.9998 17.7169 56.9947 17.8093 56.9835 17.9012C56.9728 17.9932 56.9564 18.0851 56.935 18.1765C56.913 18.2679 56.8865 18.3593 56.8538 18.4507C56.8216 18.5416 56.7838 18.6319 56.7404 18.7223C56.6975 18.8127 56.649 18.9026 56.5954 18.9919C56.5418 19.0813 56.4826 19.1696 56.4187 19.258C56.3544 19.3458 56.285 19.4336 56.2109 19.5199C56.1364 19.6067 56.0567 19.6925 55.9725 19.7778C55.8877 19.8625 55.7983 19.9468 55.7039 20.03C55.6094 20.1133 55.5098 20.1955 55.4057 20.2767C55.3015 20.3578 55.1927 20.438 55.0794 20.5172C54.9655 20.5958 54.8476 20.6734 54.7245 20.75C54.6019 20.8266 54.4748 20.9022 54.3431 20.9757C54.2118 21.0497 54.0755 21.1222 53.9356 21.1937C53.7952 21.2647 53.6512 21.3342 53.5026 21.4026C53.3545 21.471 53.2018 21.5374 53.0461 21.6027C52.8898 21.6676 52.7295 21.7309 52.5661 21.7927C52.4022 21.855 52.2352 21.9147 52.0642 21.9735C51.8936 22.0317 51.7195 22.0883 51.5418 22.143C51.3646 22.1981 51.1839 22.2507 51 22.3023C50.8162 22.3534 50.6298 22.4024 50.4404 22.4499C50.251 22.4974 50.0584 22.5423 49.8639 22.5857C49.6688 22.6291 49.4717 22.6705 49.2721 22.7103C49.0719 22.7496 48.8702 22.7869 48.666 22.8221C48.4622 22.8573 48.256 22.89 48.0481 22.9212C47.8398 22.9523 47.6299 22.9809 47.4185 23.008C47.2071 23.0345 46.9942 23.059 46.7803 23.0815C46.5658 23.104 46.3503 23.1239 46.1338 23.1423C45.9168 23.1601 45.6993 23.1755 45.4807 23.1892C45.2622 23.2025 45.0431 23.2138 44.8231 23.2229C44.6035 23.2321 44.3829 23.2388 44.1623 23.2434C43.9417 23.248 43.7206 23.25 43.5 23.25C43.2789 23.25 43.0584 23.248 42.8373 23.2434C42.6167 23.2388 42.3966 23.2321 42.1765 23.2229C41.9569 23.2138 41.7374 23.2025 41.5188 23.1892C41.3003 23.1755 41.0828 23.1601 40.8663 23.1423C40.6498 23.1239 40.4338 23.104 40.2198 23.0815C40.0054 23.059 39.7924 23.0345 39.581 23.008C39.3696 22.9809 39.1598 22.9523 38.9519 22.9212C38.7441 22.89 38.5378 22.8573 38.3336 22.8221C38.1293 22.7869 37.9276 22.7496 37.728 22.7103C37.5283 22.6705 37.3307 22.6291 37.1362 22.5857C36.9411 22.5423 36.7491 22.4974 36.5597 22.4499C36.3703 22.4024 36.1834 22.3534 35.9995 22.3023C35.8162 22.2507 35.6355 22.1981 35.4578 22.143C35.2806 22.0883 35.1065 22.0317 34.9354 21.9735C34.7649 21.9147 34.5974 21.855 34.434 21.7927C34.2701 21.7309 34.1102 21.6676 33.954 21.6027C33.7977 21.5374 33.6456 21.471 33.497 21.4026C33.3489 21.3342 33.2044 21.2647 33.0645 21.1937C32.9241 21.1222 32.7883 21.0497 32.6565 20.9757C32.5248 20.9022 32.3976 20.8266 32.2751 20.75C32.1525 20.6734 32.0341 20.5958 31.9207 20.5172C31.8068 20.438 31.6981 20.3578 31.5939 20.2767C31.4897 20.1955 31.3907 20.1133 31.2962 20.03C31.2018 19.9468 31.1119 19.8625 31.0276 19.7778C30.9429 19.6925 30.8637 19.6067 30.7892 19.5199C30.7146 19.4336 30.6452 19.3458 30.5814 19.258C30.517 19.1696 30.4583 19.0813 30.4047 18.9919C30.3511 18.9026 30.3026 18.8127 30.2592 18.7223C30.2163 18.6319 30.1785 18.5416 30.1463 18.4507C30.1136 18.3593 30.0866 18.2679 30.0651 18.1765C30.0432 18.0851 30.0268 17.9932 30.0161 17.9012C30.0054 17.8093 29.9998 17.7169 29.9998 17.625C29.9998 17.5331 30.0054 17.4412 30.0161 17.3493C30.0268 17.2574 30.0432 17.1654 30.0651 17.0735C30.0866 16.9821 30.1136 16.8907 30.1463 16.7998C30.1785 16.7084 30.2163 16.6181 30.2592 16.5277C30.3026 16.4373 30.3511 16.3474 30.4047 16.2586C30.4583 16.1692 30.517 16.0804 30.5814 15.992C30.6452 15.9042 30.7146 15.8169 30.7892 15.7301C30.8637 15.6433 30.9429 15.5575 31.0276 15.4727C31.1119 15.3875 31.2018 15.3032 31.2962 15.22C31.3907 15.1367 31.4897 15.0545 31.5939 14.9733C31.6981 14.8922 31.8068 14.812 31.9207 14.7334C32.0341 14.6542 32.1525 14.5766 32.2751 14.5C32.3976 14.4234 32.5248 14.3483 32.6565 14.2743C32.7883 14.2003 32.9241 14.1278 33.0645 14.0568C33.2044 13.9853 33.3489 13.9159 33.497 13.8474C33.6456 13.7795 33.7977 13.7126 33.954 13.6478C34.1102 13.5824 34.2701 13.5191 34.434 13.4573C34.5974 13.3955 34.7649 13.3353 34.9354 13.2771C35.1065 13.2183 35.2806 13.1617 35.4578 13.107C35.6355 13.0524 35.8162 12.9993 35.9995 12.9482C36.1834 12.8972 36.3703 12.8476 36.5597 12.8001C36.7491 12.7532 36.9411 12.7077 37.1362 12.6643C37.3307 12.6209 37.5283 12.5796 37.728 12.5402C37.9276 12.5009 38.1293 12.4636 38.3336 12.4284C38.5378 12.3932 38.7441 12.36 38.9519 12.3288C39.1598 12.2977 39.3696 12.2691 39.581 12.2425C39.7924 12.2155 40.0054 12.191 40.2198 12.1685C40.4338 12.1465 40.6498 12.1261 40.8663 12.1083C41.0828 12.0904 41.3003 12.0746 41.5188 12.0608C41.7374 12.0475 41.9569 12.0363 42.1765 12.0271C42.3966 12.0184 42.6167 12.0112 42.8373 12.0066C43.0584 12.0026 43.2789 12 43.5 12C43.7206 12 43.9417 12.0026 44.1623 12.0066C44.3829 12.0112 44.6035 12.0184 44.8231 12.0271C45.0431 12.0363 45.2622 12.0475 45.4807 12.0608C45.6993 12.0746 45.9168 12.0904 46.1338 12.1083C46.3503 12.1261 46.5658 12.1465 46.7803 12.1685C46.9942 12.191 47.2071 12.2155 47.4185 12.2425C47.6299 12.2691 47.8398 12.2977 48.0481 12.3288C48.256 12.36 48.4622 12.3932 48.666 12.4284C48.8702 12.4636 49.0719 12.5009 49.2721 12.5402C49.4717 12.5796 49.6688 12.6209 49.8639 12.6643C50.0584 12.7077 50.251 12.7532 50.4404 12.8001C50.6298 12.8476 50.8162 12.8972 51 12.9482C51.1839 12.9993 51.3646 13.0524 51.5418 13.107C51.7195 13.1617 51.8936 13.2183 52.0642 13.2771C52.2352 13.3353 52.4022 13.3955 52.5661 13.4573C52.7295 13.5191 52.8898 13.5824 53.0461 13.6478C53.2018 13.7126 53.3545 13.7795 53.5026 13.8474C53.6512 13.9159 53.7952 13.9853 53.9356 14.0568C54.0755 14.1278 54.2118 14.2003 54.3431 14.2743C54.4748 14.3483 54.6019 14.4234 54.7245 14.5C54.8476 14.5766 54.9655 14.6542 55.0794 14.7334C55.1927 14.812 55.3015 14.8922 55.4057 14.9733C55.5098 15.0545 55.6094 15.1367 55.7039 15.22C55.7983 15.3032 55.8877 15.3875 55.9725 15.4727C56.0567 15.5575 56.1364 15.6433 56.2109 15.7301C56.285 15.8169 56.3544 15.9042 56.4187 15.992C56.4826 16.0804 56.5418 16.1692 56.5954 16.2586C56.649 16.3474 56.6975 16.4373 56.7404 16.5277C56.7838 16.6181 56.8216 16.7084 56.8538 16.7998C56.8865 16.8907 56.913 16.9821 56.935 17.0735C56.9564 17.1654 56.9728 17.2574 56.9835 17.3493C56.9947 17.4412 56.9998 17.5331 56.9998 17.625Z" fill="#9C171E"/>
<path d="M43.5 25.5C36.0751 25.5 29.9998 23.025 29.9998 19.875C29.9998 21.2246 29.9998 23.025 29.9998 24.3746C29.9998 27.5246 36.0751 29.9996 43.5 29.9996C50.925 29.9996 56.9998 27.5246 56.9998 24.3746C56.9998 23.025 56.9998 21.2246 56.9998 19.875C56.9998 23.025 50.925 25.5 43.5 25.5Z" fill="#9C171E"/>
<path d="M43.5003 39C42.8253 39 41.925 39 41.25 39C41.25 40.1249 41.25 41.7002 41.25 43.5001C41.925 43.5001 42.8253 43.5001 43.5003 43.5001C50.9252 43.5001 57.0001 41.0251 57.0001 37.8751C57.0001 36.525 57.0001 34.7251 57.0001 33.375C57.0001 36.525 50.9252 39 43.5003 39Z" fill="#9C171E"/>
<path d="M43.5 32.2486C36.0751 32.2486 29.9998 29.7736 29.9998 26.6236C29.9998 27.7485 29.9998 29.0986 29.9998 30.2235C35.4001 30.8985 40.1248 33.1483 41.0251 36.5235C41.9248 36.5235 42.5998 36.5235 43.5 36.5235C50.925 36.5235 56.9998 34.0486 56.9998 30.8985C56.9998 29.5485 56.9998 27.7485 56.9998 26.3984C56.9998 29.7736 50.925 32.2486 43.5 32.2486Z" fill="#9C171E"/>
<path d="M12 37.875C12 34.725 18.0748 32.25 25.5003 32.25C32.9252 32.25 39.0001 34.725 39.0001 37.875C39.0001 41.025 32.9252 43.5 25.5003 43.5C18.0748 43.5 12 41.025 12 37.875ZM25.5003 45.7498C18.0748 45.7498 12 43.2748 12 40.1248C12 41.4749 12 43.2748 12 44.6249C12 47.7749 18.0748 50.2499 25.5003 50.2499C32.9252 50.2499 39.0001 47.7749 39.0001 44.6249C39.0001 43.2748 39.0001 41.4749 39.0001 40.1248C39.0001 43.2748 32.9252 45.7498 25.5003 45.7498ZM25.5003 52.4997C18.0748 52.4997 12 50.0247 12 46.8747C12 48.2248 12 50.0247 12 51.3748C12 54.5248 18.0748 56.9998 25.5003 56.9998C32.9252 56.9998 39.0001 54.5248 39.0001 51.3748C39.0001 50.0247 39.0001 48.2248 39.0001 46.8747C39.0001 50.0247 32.9252 52.4997 25.5003 52.4997Z" fill="#9C171E"/>
</svg>
